M48
; DRILL file {KiCad (5.1.9)-1} date 05/31/21 11:32:26
; FORMAT={-:-/ absolute / inch / decimal}
; #@! TF.CreationDate,2021-05-31T11:32:26+02:00
; #@! TF.GenerationSoftware,Kicad,Pcbnew,(5.1.9)-1
; #@! TF.FileFunction,NonPlated,1,2,NPTH
FMAT,2
INCH
T1C0.0669
T2C0.1575
%
G90
G05
T1
X2.975Y-3.725
X2.975Y-4.475
X2.975Y-5.225
X2.975Y-5.975
X3.375Y-3.725
X3.375Y-4.475
X3.375Y-5.225
X3.375Y-5.975
X3.725Y-3.725
X3.725Y-4.475
X3.725Y-5.225
X3.725Y-5.975
X4.125Y-3.725
X4.125Y-4.475
X4.125Y-5.225
X4.125Y-5.975
X4.475Y-3.725
X4.475Y-4.475
X4.475Y-5.225
X4.475Y-5.975
X4.875Y-3.725
X4.875Y-4.475
X4.875Y-5.225
X4.875Y-5.975
T2
X3.175Y-3.725
X3.175Y-4.475
X3.175Y-5.225
X3.175Y-5.975
X3.925Y-3.725
X3.925Y-4.475
X3.925Y-5.225
X3.925Y-5.975
X4.675Y-3.725
X4.675Y-4.475
X4.675Y-5.225
X4.675Y-5.975
T0
M30
