%TF.GenerationSoftware,KiCad,Pcbnew,(5.1.9)-1*%
%TF.CreationDate,2021-05-31T11:32:24+02:00*%
%TF.ProjectId,periph_numpad,70657269-7068-45f6-9e75-6d7061642e6b,v1.0*%
%TF.SameCoordinates,Original*%
%TF.FileFunction,Soldermask,Top*%
%TF.FilePolarity,Negative*%
%FSLAX46Y46*%
G04 Gerber Fmt 4.6, Leading zero omitted, Abs format (unit mm)*
G04 Created by KiCad (PCBNEW (5.1.9)-1) date 2021-05-31 11:32:24*
%MOMM*%
%LPD*%
G01*
G04 APERTURE LIST*
%ADD10C,0.800000*%
%ADD11C,6.400000*%
%ADD12R,0.650000X0.400000*%
%ADD13C,1.700000*%
%ADD14C,4.000000*%
%ADD15C,2.200000*%
%ADD16R,0.500000X0.800000*%
%ADD17R,0.400000X0.800000*%
%ADD18C,1.800000*%
%ADD19R,1.800000X1.800000*%
G04 APERTURE END LIST*
D10*
%TO.C,H1*%
X73452056Y-54817944D03*
X71755000Y-54115000D03*
X70057944Y-54817944D03*
X69355000Y-56515000D03*
X70057944Y-58212056D03*
X71755000Y-58915000D03*
X73452056Y-58212056D03*
X74155000Y-56515000D03*
D11*
X71755000Y-56515000D03*
%TD*%
%TO.C,U1*%
G36*
G01*
X95470000Y-68680000D02*
X95470000Y-68480000D01*
G75*
G02*
X95570000Y-68380000I100000J0D01*
G01*
X96845000Y-68380000D01*
G75*
G02*
X96945000Y-68480000I0J-100000D01*
G01*
X96945000Y-68680000D01*
G75*
G02*
X96845000Y-68780000I-100000J0D01*
G01*
X95570000Y-68780000D01*
G75*
G02*
X95470000Y-68680000I0J100000D01*
G01*
G37*
G36*
G01*
X95470000Y-69330000D02*
X95470000Y-69130000D01*
G75*
G02*
X95570000Y-69030000I100000J0D01*
G01*
X96845000Y-69030000D01*
G75*
G02*
X96945000Y-69130000I0J-100000D01*
G01*
X96945000Y-69330000D01*
G75*
G02*
X96845000Y-69430000I-100000J0D01*
G01*
X95570000Y-69430000D01*
G75*
G02*
X95470000Y-69330000I0J100000D01*
G01*
G37*
G36*
G01*
X95470000Y-69980000D02*
X95470000Y-69780000D01*
G75*
G02*
X95570000Y-69680000I100000J0D01*
G01*
X96845000Y-69680000D01*
G75*
G02*
X96945000Y-69780000I0J-100000D01*
G01*
X96945000Y-69980000D01*
G75*
G02*
X96845000Y-70080000I-100000J0D01*
G01*
X95570000Y-70080000D01*
G75*
G02*
X95470000Y-69980000I0J100000D01*
G01*
G37*
G36*
G01*
X95470000Y-70630000D02*
X95470000Y-70430000D01*
G75*
G02*
X95570000Y-70330000I100000J0D01*
G01*
X96845000Y-70330000D01*
G75*
G02*
X96945000Y-70430000I0J-100000D01*
G01*
X96945000Y-70630000D01*
G75*
G02*
X96845000Y-70730000I-100000J0D01*
G01*
X95570000Y-70730000D01*
G75*
G02*
X95470000Y-70630000I0J100000D01*
G01*
G37*
G36*
G01*
X95470000Y-71280000D02*
X95470000Y-71080000D01*
G75*
G02*
X95570000Y-70980000I100000J0D01*
G01*
X96845000Y-70980000D01*
G75*
G02*
X96945000Y-71080000I0J-100000D01*
G01*
X96945000Y-71280000D01*
G75*
G02*
X96845000Y-71380000I-100000J0D01*
G01*
X95570000Y-71380000D01*
G75*
G02*
X95470000Y-71280000I0J100000D01*
G01*
G37*
G36*
G01*
X95470000Y-71930000D02*
X95470000Y-71730000D01*
G75*
G02*
X95570000Y-71630000I100000J0D01*
G01*
X96845000Y-71630000D01*
G75*
G02*
X96945000Y-71730000I0J-100000D01*
G01*
X96945000Y-71930000D01*
G75*
G02*
X96845000Y-72030000I-100000J0D01*
G01*
X95570000Y-72030000D01*
G75*
G02*
X95470000Y-71930000I0J100000D01*
G01*
G37*
G36*
G01*
X95470000Y-72580000D02*
X95470000Y-72380000D01*
G75*
G02*
X95570000Y-72280000I100000J0D01*
G01*
X96845000Y-72280000D01*
G75*
G02*
X96945000Y-72380000I0J-100000D01*
G01*
X96945000Y-72580000D01*
G75*
G02*
X96845000Y-72680000I-100000J0D01*
G01*
X95570000Y-72680000D01*
G75*
G02*
X95470000Y-72580000I0J100000D01*
G01*
G37*
G36*
G01*
X95470000Y-73230000D02*
X95470000Y-73030000D01*
G75*
G02*
X95570000Y-72930000I100000J0D01*
G01*
X96845000Y-72930000D01*
G75*
G02*
X96945000Y-73030000I0J-100000D01*
G01*
X96945000Y-73230000D01*
G75*
G02*
X96845000Y-73330000I-100000J0D01*
G01*
X95570000Y-73330000D01*
G75*
G02*
X95470000Y-73230000I0J100000D01*
G01*
G37*
G36*
G01*
X89745000Y-73230000D02*
X89745000Y-73030000D01*
G75*
G02*
X89845000Y-72930000I100000J0D01*
G01*
X91120000Y-72930000D01*
G75*
G02*
X91220000Y-73030000I0J-100000D01*
G01*
X91220000Y-73230000D01*
G75*
G02*
X91120000Y-73330000I-100000J0D01*
G01*
X89845000Y-73330000D01*
G75*
G02*
X89745000Y-73230000I0J100000D01*
G01*
G37*
G36*
G01*
X89745000Y-72580000D02*
X89745000Y-72380000D01*
G75*
G02*
X89845000Y-72280000I100000J0D01*
G01*
X91120000Y-72280000D01*
G75*
G02*
X91220000Y-72380000I0J-100000D01*
G01*
X91220000Y-72580000D01*
G75*
G02*
X91120000Y-72680000I-100000J0D01*
G01*
X89845000Y-72680000D01*
G75*
G02*
X89745000Y-72580000I0J100000D01*
G01*
G37*
G36*
G01*
X89745000Y-71930000D02*
X89745000Y-71730000D01*
G75*
G02*
X89845000Y-71630000I100000J0D01*
G01*
X91120000Y-71630000D01*
G75*
G02*
X91220000Y-71730000I0J-100000D01*
G01*
X91220000Y-71930000D01*
G75*
G02*
X91120000Y-72030000I-100000J0D01*
G01*
X89845000Y-72030000D01*
G75*
G02*
X89745000Y-71930000I0J100000D01*
G01*
G37*
G36*
G01*
X89745000Y-71280000D02*
X89745000Y-71080000D01*
G75*
G02*
X89845000Y-70980000I100000J0D01*
G01*
X91120000Y-70980000D01*
G75*
G02*
X91220000Y-71080000I0J-100000D01*
G01*
X91220000Y-71280000D01*
G75*
G02*
X91120000Y-71380000I-100000J0D01*
G01*
X89845000Y-71380000D01*
G75*
G02*
X89745000Y-71280000I0J100000D01*
G01*
G37*
G36*
G01*
X89745000Y-70630000D02*
X89745000Y-70430000D01*
G75*
G02*
X89845000Y-70330000I100000J0D01*
G01*
X91120000Y-70330000D01*
G75*
G02*
X91220000Y-70430000I0J-100000D01*
G01*
X91220000Y-70630000D01*
G75*
G02*
X91120000Y-70730000I-100000J0D01*
G01*
X89845000Y-70730000D01*
G75*
G02*
X89745000Y-70630000I0J100000D01*
G01*
G37*
G36*
G01*
X89745000Y-69980000D02*
X89745000Y-69780000D01*
G75*
G02*
X89845000Y-69680000I100000J0D01*
G01*
X91120000Y-69680000D01*
G75*
G02*
X91220000Y-69780000I0J-100000D01*
G01*
X91220000Y-69980000D01*
G75*
G02*
X91120000Y-70080000I-100000J0D01*
G01*
X89845000Y-70080000D01*
G75*
G02*
X89745000Y-69980000I0J100000D01*
G01*
G37*
G36*
G01*
X89745000Y-69330000D02*
X89745000Y-69130000D01*
G75*
G02*
X89845000Y-69030000I100000J0D01*
G01*
X91120000Y-69030000D01*
G75*
G02*
X91220000Y-69130000I0J-100000D01*
G01*
X91220000Y-69330000D01*
G75*
G02*
X91120000Y-69430000I-100000J0D01*
G01*
X89845000Y-69430000D01*
G75*
G02*
X89745000Y-69330000I0J100000D01*
G01*
G37*
G36*
G01*
X89745000Y-68680000D02*
X89745000Y-68480000D01*
G75*
G02*
X89845000Y-68380000I100000J0D01*
G01*
X91120000Y-68380000D01*
G75*
G02*
X91220000Y-68480000I0J-100000D01*
G01*
X91220000Y-68680000D01*
G75*
G02*
X91120000Y-68780000I-100000J0D01*
G01*
X89845000Y-68780000D01*
G75*
G02*
X89745000Y-68680000I0J100000D01*
G01*
G37*
%TD*%
%TO.C,R33*%
G36*
G01*
X124820000Y-77895000D02*
X125370000Y-77895000D01*
G75*
G02*
X125570000Y-78095000I0J-200000D01*
G01*
X125570000Y-78495000D01*
G75*
G02*
X125370000Y-78695000I-200000J0D01*
G01*
X124820000Y-78695000D01*
G75*
G02*
X124620000Y-78495000I0J200000D01*
G01*
X124620000Y-78095000D01*
G75*
G02*
X124820000Y-77895000I200000J0D01*
G01*
G37*
G36*
G01*
X124820000Y-76245000D02*
X125370000Y-76245000D01*
G75*
G02*
X125570000Y-76445000I0J-200000D01*
G01*
X125570000Y-76845000D01*
G75*
G02*
X125370000Y-77045000I-200000J0D01*
G01*
X124820000Y-77045000D01*
G75*
G02*
X124620000Y-76845000I0J200000D01*
G01*
X124620000Y-76445000D01*
G75*
G02*
X124820000Y-76245000I200000J0D01*
G01*
G37*
%TD*%
%TO.C,R32*%
G36*
G01*
X126725000Y-77895000D02*
X127275000Y-77895000D01*
G75*
G02*
X127475000Y-78095000I0J-200000D01*
G01*
X127475000Y-78495000D01*
G75*
G02*
X127275000Y-78695000I-200000J0D01*
G01*
X126725000Y-78695000D01*
G75*
G02*
X126525000Y-78495000I0J200000D01*
G01*
X126525000Y-78095000D01*
G75*
G02*
X126725000Y-77895000I200000J0D01*
G01*
G37*
G36*
G01*
X126725000Y-76245000D02*
X127275000Y-76245000D01*
G75*
G02*
X127475000Y-76445000I0J-200000D01*
G01*
X127475000Y-76845000D01*
G75*
G02*
X127275000Y-77045000I-200000J0D01*
G01*
X126725000Y-77045000D01*
G75*
G02*
X126525000Y-76845000I0J200000D01*
G01*
X126525000Y-76445000D01*
G75*
G02*
X126725000Y-76245000I200000J0D01*
G01*
G37*
%TD*%
D12*
%TO.C,U10*%
X117155000Y-79995000D03*
X117155000Y-81295000D03*
X115255000Y-80645000D03*
X115255000Y-81295000D03*
X115255000Y-79995000D03*
%TD*%
%TO.C,C10*%
G36*
G01*
X116530000Y-78355000D02*
X116530000Y-77855000D01*
G75*
G02*
X116755000Y-77630000I225000J0D01*
G01*
X117205000Y-77630000D01*
G75*
G02*
X117430000Y-77855000I0J-225000D01*
G01*
X117430000Y-78355000D01*
G75*
G02*
X117205000Y-78580000I-225000J0D01*
G01*
X116755000Y-78580000D01*
G75*
G02*
X116530000Y-78355000I0J225000D01*
G01*
G37*
G36*
G01*
X114980000Y-78355000D02*
X114980000Y-77855000D01*
G75*
G02*
X115205000Y-77630000I225000J0D01*
G01*
X115655000Y-77630000D01*
G75*
G02*
X115880000Y-77855000I0J-225000D01*
G01*
X115880000Y-78355000D01*
G75*
G02*
X115655000Y-78580000I-225000J0D01*
G01*
X115205000Y-78580000D01*
G75*
G02*
X114980000Y-78355000I0J225000D01*
G01*
G37*
%TD*%
%TO.C,R7*%
G36*
G01*
X73300000Y-80220000D02*
X72750000Y-80220000D01*
G75*
G02*
X72550000Y-80020000I0J200000D01*
G01*
X72550000Y-79620000D01*
G75*
G02*
X72750000Y-79420000I200000J0D01*
G01*
X73300000Y-79420000D01*
G75*
G02*
X73500000Y-79620000I0J-200000D01*
G01*
X73500000Y-80020000D01*
G75*
G02*
X73300000Y-80220000I-200000J0D01*
G01*
G37*
G36*
G01*
X73300000Y-81870000D02*
X72750000Y-81870000D01*
G75*
G02*
X72550000Y-81670000I0J200000D01*
G01*
X72550000Y-81270000D01*
G75*
G02*
X72750000Y-81070000I200000J0D01*
G01*
X73300000Y-81070000D01*
G75*
G02*
X73500000Y-81270000I0J-200000D01*
G01*
X73500000Y-81670000D01*
G75*
G02*
X73300000Y-81870000I-200000J0D01*
G01*
G37*
%TD*%
%TO.C,R6*%
G36*
G01*
X75205000Y-80220000D02*
X74655000Y-80220000D01*
G75*
G02*
X74455000Y-80020000I0J200000D01*
G01*
X74455000Y-79620000D01*
G75*
G02*
X74655000Y-79420000I200000J0D01*
G01*
X75205000Y-79420000D01*
G75*
G02*
X75405000Y-79620000I0J-200000D01*
G01*
X75405000Y-80020000D01*
G75*
G02*
X75205000Y-80220000I-200000J0D01*
G01*
G37*
G36*
G01*
X75205000Y-81870000D02*
X74655000Y-81870000D01*
G75*
G02*
X74455000Y-81670000I0J200000D01*
G01*
X74455000Y-81270000D01*
G75*
G02*
X74655000Y-81070000I200000J0D01*
G01*
X75205000Y-81070000D01*
G75*
G02*
X75405000Y-81270000I0J-200000D01*
G01*
X75405000Y-81670000D01*
G75*
G02*
X75205000Y-81870000I-200000J0D01*
G01*
G37*
%TD*%
%TO.C,R5*%
G36*
G01*
X77110000Y-80220000D02*
X76560000Y-80220000D01*
G75*
G02*
X76360000Y-80020000I0J200000D01*
G01*
X76360000Y-79620000D01*
G75*
G02*
X76560000Y-79420000I200000J0D01*
G01*
X77110000Y-79420000D01*
G75*
G02*
X77310000Y-79620000I0J-200000D01*
G01*
X77310000Y-80020000D01*
G75*
G02*
X77110000Y-80220000I-200000J0D01*
G01*
G37*
G36*
G01*
X77110000Y-81870000D02*
X76560000Y-81870000D01*
G75*
G02*
X76360000Y-81670000I0J200000D01*
G01*
X76360000Y-81270000D01*
G75*
G02*
X76560000Y-81070000I200000J0D01*
G01*
X77110000Y-81070000D01*
G75*
G02*
X77310000Y-81270000I0J-200000D01*
G01*
X77310000Y-81670000D01*
G75*
G02*
X77110000Y-81870000I-200000J0D01*
G01*
G37*
%TD*%
%TO.C,R4*%
G36*
G01*
X79015000Y-80220000D02*
X78465000Y-80220000D01*
G75*
G02*
X78265000Y-80020000I0J200000D01*
G01*
X78265000Y-79620000D01*
G75*
G02*
X78465000Y-79420000I200000J0D01*
G01*
X79015000Y-79420000D01*
G75*
G02*
X79215000Y-79620000I0J-200000D01*
G01*
X79215000Y-80020000D01*
G75*
G02*
X79015000Y-80220000I-200000J0D01*
G01*
G37*
G36*
G01*
X79015000Y-81870000D02*
X78465000Y-81870000D01*
G75*
G02*
X78265000Y-81670000I0J200000D01*
G01*
X78265000Y-81270000D01*
G75*
G02*
X78465000Y-81070000I200000J0D01*
G01*
X79015000Y-81070000D01*
G75*
G02*
X79215000Y-81270000I0J-200000D01*
G01*
X79215000Y-81670000D01*
G75*
G02*
X79015000Y-81870000I-200000J0D01*
G01*
G37*
%TD*%
%TO.C,R3*%
G36*
G01*
X80920000Y-80220000D02*
X80370000Y-80220000D01*
G75*
G02*
X80170000Y-80020000I0J200000D01*
G01*
X80170000Y-79620000D01*
G75*
G02*
X80370000Y-79420000I200000J0D01*
G01*
X80920000Y-79420000D01*
G75*
G02*
X81120000Y-79620000I0J-200000D01*
G01*
X81120000Y-80020000D01*
G75*
G02*
X80920000Y-80220000I-200000J0D01*
G01*
G37*
G36*
G01*
X80920000Y-81870000D02*
X80370000Y-81870000D01*
G75*
G02*
X80170000Y-81670000I0J200000D01*
G01*
X80170000Y-81270000D01*
G75*
G02*
X80370000Y-81070000I200000J0D01*
G01*
X80920000Y-81070000D01*
G75*
G02*
X81120000Y-81270000I0J-200000D01*
G01*
X81120000Y-81670000D01*
G75*
G02*
X80920000Y-81870000I-200000J0D01*
G01*
G37*
%TD*%
%TO.C,R2*%
G36*
G01*
X82825000Y-80220000D02*
X82275000Y-80220000D01*
G75*
G02*
X82075000Y-80020000I0J200000D01*
G01*
X82075000Y-79620000D01*
G75*
G02*
X82275000Y-79420000I200000J0D01*
G01*
X82825000Y-79420000D01*
G75*
G02*
X83025000Y-79620000I0J-200000D01*
G01*
X83025000Y-80020000D01*
G75*
G02*
X82825000Y-80220000I-200000J0D01*
G01*
G37*
G36*
G01*
X82825000Y-81870000D02*
X82275000Y-81870000D01*
G75*
G02*
X82075000Y-81670000I0J200000D01*
G01*
X82075000Y-81270000D01*
G75*
G02*
X82275000Y-81070000I200000J0D01*
G01*
X82825000Y-81070000D01*
G75*
G02*
X83025000Y-81270000I0J-200000D01*
G01*
X83025000Y-81670000D01*
G75*
G02*
X82825000Y-81870000I-200000J0D01*
G01*
G37*
%TD*%
%TO.C,R1*%
G36*
G01*
X84730000Y-80220000D02*
X84180000Y-80220000D01*
G75*
G02*
X83980000Y-80020000I0J200000D01*
G01*
X83980000Y-79620000D01*
G75*
G02*
X84180000Y-79420000I200000J0D01*
G01*
X84730000Y-79420000D01*
G75*
G02*
X84930000Y-79620000I0J-200000D01*
G01*
X84930000Y-80020000D01*
G75*
G02*
X84730000Y-80220000I-200000J0D01*
G01*
G37*
G36*
G01*
X84730000Y-81870000D02*
X84180000Y-81870000D01*
G75*
G02*
X83980000Y-81670000I0J200000D01*
G01*
X83980000Y-81270000D01*
G75*
G02*
X84180000Y-81070000I200000J0D01*
G01*
X84730000Y-81070000D01*
G75*
G02*
X84930000Y-81270000I0J-200000D01*
G01*
X84930000Y-81670000D01*
G75*
G02*
X84730000Y-81870000I-200000J0D01*
G01*
G37*
%TD*%
%TO.C,D14*%
G36*
G01*
X125401250Y-80295000D02*
X124888750Y-80295000D01*
G75*
G02*
X124670000Y-80076250I0J218750D01*
G01*
X124670000Y-79638750D01*
G75*
G02*
X124888750Y-79420000I218750J0D01*
G01*
X125401250Y-79420000D01*
G75*
G02*
X125620000Y-79638750I0J-218750D01*
G01*
X125620000Y-80076250D01*
G75*
G02*
X125401250Y-80295000I-218750J0D01*
G01*
G37*
G36*
G01*
X125401250Y-81870000D02*
X124888750Y-81870000D01*
G75*
G02*
X124670000Y-81651250I0J218750D01*
G01*
X124670000Y-81213750D01*
G75*
G02*
X124888750Y-80995000I218750J0D01*
G01*
X125401250Y-80995000D01*
G75*
G02*
X125620000Y-81213750I0J-218750D01*
G01*
X125620000Y-81651250D01*
G75*
G02*
X125401250Y-81870000I-218750J0D01*
G01*
G37*
%TD*%
%TO.C,D13*%
G36*
G01*
X127256250Y-80295000D02*
X126743750Y-80295000D01*
G75*
G02*
X126525000Y-80076250I0J218750D01*
G01*
X126525000Y-79638750D01*
G75*
G02*
X126743750Y-79420000I218750J0D01*
G01*
X127256250Y-79420000D01*
G75*
G02*
X127475000Y-79638750I0J-218750D01*
G01*
X127475000Y-80076250D01*
G75*
G02*
X127256250Y-80295000I-218750J0D01*
G01*
G37*
G36*
G01*
X127256250Y-81870000D02*
X126743750Y-81870000D01*
G75*
G02*
X126525000Y-81651250I0J218750D01*
G01*
X126525000Y-81213750D01*
G75*
G02*
X126743750Y-80995000I218750J0D01*
G01*
X127256250Y-80995000D01*
G75*
G02*
X127475000Y-81213750I0J-218750D01*
G01*
X127475000Y-81651250D01*
G75*
G02*
X127256250Y-81870000I-218750J0D01*
G01*
G37*
%TD*%
%TO.C,U9*%
G36*
G01*
X115790000Y-68680000D02*
X115790000Y-68480000D01*
G75*
G02*
X115890000Y-68380000I100000J0D01*
G01*
X117165000Y-68380000D01*
G75*
G02*
X117265000Y-68480000I0J-100000D01*
G01*
X117265000Y-68680000D01*
G75*
G02*
X117165000Y-68780000I-100000J0D01*
G01*
X115890000Y-68780000D01*
G75*
G02*
X115790000Y-68680000I0J100000D01*
G01*
G37*
G36*
G01*
X115790000Y-69330000D02*
X115790000Y-69130000D01*
G75*
G02*
X115890000Y-69030000I100000J0D01*
G01*
X117165000Y-69030000D01*
G75*
G02*
X117265000Y-69130000I0J-100000D01*
G01*
X117265000Y-69330000D01*
G75*
G02*
X117165000Y-69430000I-100000J0D01*
G01*
X115890000Y-69430000D01*
G75*
G02*
X115790000Y-69330000I0J100000D01*
G01*
G37*
G36*
G01*
X115790000Y-69980000D02*
X115790000Y-69780000D01*
G75*
G02*
X115890000Y-69680000I100000J0D01*
G01*
X117165000Y-69680000D01*
G75*
G02*
X117265000Y-69780000I0J-100000D01*
G01*
X117265000Y-69980000D01*
G75*
G02*
X117165000Y-70080000I-100000J0D01*
G01*
X115890000Y-70080000D01*
G75*
G02*
X115790000Y-69980000I0J100000D01*
G01*
G37*
G36*
G01*
X115790000Y-70630000D02*
X115790000Y-70430000D01*
G75*
G02*
X115890000Y-70330000I100000J0D01*
G01*
X117165000Y-70330000D01*
G75*
G02*
X117265000Y-70430000I0J-100000D01*
G01*
X117265000Y-70630000D01*
G75*
G02*
X117165000Y-70730000I-100000J0D01*
G01*
X115890000Y-70730000D01*
G75*
G02*
X115790000Y-70630000I0J100000D01*
G01*
G37*
G36*
G01*
X115790000Y-71280000D02*
X115790000Y-71080000D01*
G75*
G02*
X115890000Y-70980000I100000J0D01*
G01*
X117165000Y-70980000D01*
G75*
G02*
X117265000Y-71080000I0J-100000D01*
G01*
X117265000Y-71280000D01*
G75*
G02*
X117165000Y-71380000I-100000J0D01*
G01*
X115890000Y-71380000D01*
G75*
G02*
X115790000Y-71280000I0J100000D01*
G01*
G37*
G36*
G01*
X115790000Y-71930000D02*
X115790000Y-71730000D01*
G75*
G02*
X115890000Y-71630000I100000J0D01*
G01*
X117165000Y-71630000D01*
G75*
G02*
X117265000Y-71730000I0J-100000D01*
G01*
X117265000Y-71930000D01*
G75*
G02*
X117165000Y-72030000I-100000J0D01*
G01*
X115890000Y-72030000D01*
G75*
G02*
X115790000Y-71930000I0J100000D01*
G01*
G37*
G36*
G01*
X115790000Y-72580000D02*
X115790000Y-72380000D01*
G75*
G02*
X115890000Y-72280000I100000J0D01*
G01*
X117165000Y-72280000D01*
G75*
G02*
X117265000Y-72380000I0J-100000D01*
G01*
X117265000Y-72580000D01*
G75*
G02*
X117165000Y-72680000I-100000J0D01*
G01*
X115890000Y-72680000D01*
G75*
G02*
X115790000Y-72580000I0J100000D01*
G01*
G37*
G36*
G01*
X115790000Y-73230000D02*
X115790000Y-73030000D01*
G75*
G02*
X115890000Y-72930000I100000J0D01*
G01*
X117165000Y-72930000D01*
G75*
G02*
X117265000Y-73030000I0J-100000D01*
G01*
X117265000Y-73230000D01*
G75*
G02*
X117165000Y-73330000I-100000J0D01*
G01*
X115890000Y-73330000D01*
G75*
G02*
X115790000Y-73230000I0J100000D01*
G01*
G37*
G36*
G01*
X115790000Y-73880000D02*
X115790000Y-73680000D01*
G75*
G02*
X115890000Y-73580000I100000J0D01*
G01*
X117165000Y-73580000D01*
G75*
G02*
X117265000Y-73680000I0J-100000D01*
G01*
X117265000Y-73880000D01*
G75*
G02*
X117165000Y-73980000I-100000J0D01*
G01*
X115890000Y-73980000D01*
G75*
G02*
X115790000Y-73880000I0J100000D01*
G01*
G37*
G36*
G01*
X115790000Y-74530000D02*
X115790000Y-74330000D01*
G75*
G02*
X115890000Y-74230000I100000J0D01*
G01*
X117165000Y-74230000D01*
G75*
G02*
X117265000Y-74330000I0J-100000D01*
G01*
X117265000Y-74530000D01*
G75*
G02*
X117165000Y-74630000I-100000J0D01*
G01*
X115890000Y-74630000D01*
G75*
G02*
X115790000Y-74530000I0J100000D01*
G01*
G37*
G36*
G01*
X110065000Y-74530000D02*
X110065000Y-74330000D01*
G75*
G02*
X110165000Y-74230000I100000J0D01*
G01*
X111440000Y-74230000D01*
G75*
G02*
X111540000Y-74330000I0J-100000D01*
G01*
X111540000Y-74530000D01*
G75*
G02*
X111440000Y-74630000I-100000J0D01*
G01*
X110165000Y-74630000D01*
G75*
G02*
X110065000Y-74530000I0J100000D01*
G01*
G37*
G36*
G01*
X110065000Y-73880000D02*
X110065000Y-73680000D01*
G75*
G02*
X110165000Y-73580000I100000J0D01*
G01*
X111440000Y-73580000D01*
G75*
G02*
X111540000Y-73680000I0J-100000D01*
G01*
X111540000Y-73880000D01*
G75*
G02*
X111440000Y-73980000I-100000J0D01*
G01*
X110165000Y-73980000D01*
G75*
G02*
X110065000Y-73880000I0J100000D01*
G01*
G37*
G36*
G01*
X110065000Y-73230000D02*
X110065000Y-73030000D01*
G75*
G02*
X110165000Y-72930000I100000J0D01*
G01*
X111440000Y-72930000D01*
G75*
G02*
X111540000Y-73030000I0J-100000D01*
G01*
X111540000Y-73230000D01*
G75*
G02*
X111440000Y-73330000I-100000J0D01*
G01*
X110165000Y-73330000D01*
G75*
G02*
X110065000Y-73230000I0J100000D01*
G01*
G37*
G36*
G01*
X110065000Y-72580000D02*
X110065000Y-72380000D01*
G75*
G02*
X110165000Y-72280000I100000J0D01*
G01*
X111440000Y-72280000D01*
G75*
G02*
X111540000Y-72380000I0J-100000D01*
G01*
X111540000Y-72580000D01*
G75*
G02*
X111440000Y-72680000I-100000J0D01*
G01*
X110165000Y-72680000D01*
G75*
G02*
X110065000Y-72580000I0J100000D01*
G01*
G37*
G36*
G01*
X110065000Y-71930000D02*
X110065000Y-71730000D01*
G75*
G02*
X110165000Y-71630000I100000J0D01*
G01*
X111440000Y-71630000D01*
G75*
G02*
X111540000Y-71730000I0J-100000D01*
G01*
X111540000Y-71930000D01*
G75*
G02*
X111440000Y-72030000I-100000J0D01*
G01*
X110165000Y-72030000D01*
G75*
G02*
X110065000Y-71930000I0J100000D01*
G01*
G37*
G36*
G01*
X110065000Y-71280000D02*
X110065000Y-71080000D01*
G75*
G02*
X110165000Y-70980000I100000J0D01*
G01*
X111440000Y-70980000D01*
G75*
G02*
X111540000Y-71080000I0J-100000D01*
G01*
X111540000Y-71280000D01*
G75*
G02*
X111440000Y-71380000I-100000J0D01*
G01*
X110165000Y-71380000D01*
G75*
G02*
X110065000Y-71280000I0J100000D01*
G01*
G37*
G36*
G01*
X110065000Y-70630000D02*
X110065000Y-70430000D01*
G75*
G02*
X110165000Y-70330000I100000J0D01*
G01*
X111440000Y-70330000D01*
G75*
G02*
X111540000Y-70430000I0J-100000D01*
G01*
X111540000Y-70630000D01*
G75*
G02*
X111440000Y-70730000I-100000J0D01*
G01*
X110165000Y-70730000D01*
G75*
G02*
X110065000Y-70630000I0J100000D01*
G01*
G37*
G36*
G01*
X110065000Y-69980000D02*
X110065000Y-69780000D01*
G75*
G02*
X110165000Y-69680000I100000J0D01*
G01*
X111440000Y-69680000D01*
G75*
G02*
X111540000Y-69780000I0J-100000D01*
G01*
X111540000Y-69980000D01*
G75*
G02*
X111440000Y-70080000I-100000J0D01*
G01*
X110165000Y-70080000D01*
G75*
G02*
X110065000Y-69980000I0J100000D01*
G01*
G37*
G36*
G01*
X110065000Y-69330000D02*
X110065000Y-69130000D01*
G75*
G02*
X110165000Y-69030000I100000J0D01*
G01*
X111440000Y-69030000D01*
G75*
G02*
X111540000Y-69130000I0J-100000D01*
G01*
X111540000Y-69330000D01*
G75*
G02*
X111440000Y-69430000I-100000J0D01*
G01*
X110165000Y-69430000D01*
G75*
G02*
X110065000Y-69330000I0J100000D01*
G01*
G37*
G36*
G01*
X110065000Y-68680000D02*
X110065000Y-68480000D01*
G75*
G02*
X110165000Y-68380000I100000J0D01*
G01*
X111440000Y-68380000D01*
G75*
G02*
X111540000Y-68480000I0J-100000D01*
G01*
X111540000Y-68680000D01*
G75*
G02*
X111440000Y-68780000I-100000J0D01*
G01*
X110165000Y-68780000D01*
G75*
G02*
X110065000Y-68680000I0J100000D01*
G01*
G37*
%TD*%
%TO.C,U8*%
G36*
G01*
X125627500Y-68680000D02*
X125627500Y-68480000D01*
G75*
G02*
X125727500Y-68380000I100000J0D01*
G01*
X127002500Y-68380000D01*
G75*
G02*
X127102500Y-68480000I0J-100000D01*
G01*
X127102500Y-68680000D01*
G75*
G02*
X127002500Y-68780000I-100000J0D01*
G01*
X125727500Y-68780000D01*
G75*
G02*
X125627500Y-68680000I0J100000D01*
G01*
G37*
G36*
G01*
X125627500Y-69330000D02*
X125627500Y-69130000D01*
G75*
G02*
X125727500Y-69030000I100000J0D01*
G01*
X127002500Y-69030000D01*
G75*
G02*
X127102500Y-69130000I0J-100000D01*
G01*
X127102500Y-69330000D01*
G75*
G02*
X127002500Y-69430000I-100000J0D01*
G01*
X125727500Y-69430000D01*
G75*
G02*
X125627500Y-69330000I0J100000D01*
G01*
G37*
G36*
G01*
X125627500Y-69980000D02*
X125627500Y-69780000D01*
G75*
G02*
X125727500Y-69680000I100000J0D01*
G01*
X127002500Y-69680000D01*
G75*
G02*
X127102500Y-69780000I0J-100000D01*
G01*
X127102500Y-69980000D01*
G75*
G02*
X127002500Y-70080000I-100000J0D01*
G01*
X125727500Y-70080000D01*
G75*
G02*
X125627500Y-69980000I0J100000D01*
G01*
G37*
G36*
G01*
X125627500Y-70630000D02*
X125627500Y-70430000D01*
G75*
G02*
X125727500Y-70330000I100000J0D01*
G01*
X127002500Y-70330000D01*
G75*
G02*
X127102500Y-70430000I0J-100000D01*
G01*
X127102500Y-70630000D01*
G75*
G02*
X127002500Y-70730000I-100000J0D01*
G01*
X125727500Y-70730000D01*
G75*
G02*
X125627500Y-70630000I0J100000D01*
G01*
G37*
G36*
G01*
X125627500Y-71280000D02*
X125627500Y-71080000D01*
G75*
G02*
X125727500Y-70980000I100000J0D01*
G01*
X127002500Y-70980000D01*
G75*
G02*
X127102500Y-71080000I0J-100000D01*
G01*
X127102500Y-71280000D01*
G75*
G02*
X127002500Y-71380000I-100000J0D01*
G01*
X125727500Y-71380000D01*
G75*
G02*
X125627500Y-71280000I0J100000D01*
G01*
G37*
G36*
G01*
X125627500Y-71930000D02*
X125627500Y-71730000D01*
G75*
G02*
X125727500Y-71630000I100000J0D01*
G01*
X127002500Y-71630000D01*
G75*
G02*
X127102500Y-71730000I0J-100000D01*
G01*
X127102500Y-71930000D01*
G75*
G02*
X127002500Y-72030000I-100000J0D01*
G01*
X125727500Y-72030000D01*
G75*
G02*
X125627500Y-71930000I0J100000D01*
G01*
G37*
G36*
G01*
X125627500Y-72580000D02*
X125627500Y-72380000D01*
G75*
G02*
X125727500Y-72280000I100000J0D01*
G01*
X127002500Y-72280000D01*
G75*
G02*
X127102500Y-72380000I0J-100000D01*
G01*
X127102500Y-72580000D01*
G75*
G02*
X127002500Y-72680000I-100000J0D01*
G01*
X125727500Y-72680000D01*
G75*
G02*
X125627500Y-72580000I0J100000D01*
G01*
G37*
G36*
G01*
X125627500Y-73230000D02*
X125627500Y-73030000D01*
G75*
G02*
X125727500Y-72930000I100000J0D01*
G01*
X127002500Y-72930000D01*
G75*
G02*
X127102500Y-73030000I0J-100000D01*
G01*
X127102500Y-73230000D01*
G75*
G02*
X127002500Y-73330000I-100000J0D01*
G01*
X125727500Y-73330000D01*
G75*
G02*
X125627500Y-73230000I0J100000D01*
G01*
G37*
G36*
G01*
X125627500Y-73880000D02*
X125627500Y-73680000D01*
G75*
G02*
X125727500Y-73580000I100000J0D01*
G01*
X127002500Y-73580000D01*
G75*
G02*
X127102500Y-73680000I0J-100000D01*
G01*
X127102500Y-73880000D01*
G75*
G02*
X127002500Y-73980000I-100000J0D01*
G01*
X125727500Y-73980000D01*
G75*
G02*
X125627500Y-73880000I0J100000D01*
G01*
G37*
G36*
G01*
X125627500Y-74530000D02*
X125627500Y-74330000D01*
G75*
G02*
X125727500Y-74230000I100000J0D01*
G01*
X127002500Y-74230000D01*
G75*
G02*
X127102500Y-74330000I0J-100000D01*
G01*
X127102500Y-74530000D01*
G75*
G02*
X127002500Y-74630000I-100000J0D01*
G01*
X125727500Y-74630000D01*
G75*
G02*
X125627500Y-74530000I0J100000D01*
G01*
G37*
G36*
G01*
X119902500Y-74530000D02*
X119902500Y-74330000D01*
G75*
G02*
X120002500Y-74230000I100000J0D01*
G01*
X121277500Y-74230000D01*
G75*
G02*
X121377500Y-74330000I0J-100000D01*
G01*
X121377500Y-74530000D01*
G75*
G02*
X121277500Y-74630000I-100000J0D01*
G01*
X120002500Y-74630000D01*
G75*
G02*
X119902500Y-74530000I0J100000D01*
G01*
G37*
G36*
G01*
X119902500Y-73880000D02*
X119902500Y-73680000D01*
G75*
G02*
X120002500Y-73580000I100000J0D01*
G01*
X121277500Y-73580000D01*
G75*
G02*
X121377500Y-73680000I0J-100000D01*
G01*
X121377500Y-73880000D01*
G75*
G02*
X121277500Y-73980000I-100000J0D01*
G01*
X120002500Y-73980000D01*
G75*
G02*
X119902500Y-73880000I0J100000D01*
G01*
G37*
G36*
G01*
X119902500Y-73230000D02*
X119902500Y-73030000D01*
G75*
G02*
X120002500Y-72930000I100000J0D01*
G01*
X121277500Y-72930000D01*
G75*
G02*
X121377500Y-73030000I0J-100000D01*
G01*
X121377500Y-73230000D01*
G75*
G02*
X121277500Y-73330000I-100000J0D01*
G01*
X120002500Y-73330000D01*
G75*
G02*
X119902500Y-73230000I0J100000D01*
G01*
G37*
G36*
G01*
X119902500Y-72580000D02*
X119902500Y-72380000D01*
G75*
G02*
X120002500Y-72280000I100000J0D01*
G01*
X121277500Y-72280000D01*
G75*
G02*
X121377500Y-72380000I0J-100000D01*
G01*
X121377500Y-72580000D01*
G75*
G02*
X121277500Y-72680000I-100000J0D01*
G01*
X120002500Y-72680000D01*
G75*
G02*
X119902500Y-72580000I0J100000D01*
G01*
G37*
G36*
G01*
X119902500Y-71930000D02*
X119902500Y-71730000D01*
G75*
G02*
X120002500Y-71630000I100000J0D01*
G01*
X121277500Y-71630000D01*
G75*
G02*
X121377500Y-71730000I0J-100000D01*
G01*
X121377500Y-71930000D01*
G75*
G02*
X121277500Y-72030000I-100000J0D01*
G01*
X120002500Y-72030000D01*
G75*
G02*
X119902500Y-71930000I0J100000D01*
G01*
G37*
G36*
G01*
X119902500Y-71280000D02*
X119902500Y-71080000D01*
G75*
G02*
X120002500Y-70980000I100000J0D01*
G01*
X121277500Y-70980000D01*
G75*
G02*
X121377500Y-71080000I0J-100000D01*
G01*
X121377500Y-71280000D01*
G75*
G02*
X121277500Y-71380000I-100000J0D01*
G01*
X120002500Y-71380000D01*
G75*
G02*
X119902500Y-71280000I0J100000D01*
G01*
G37*
G36*
G01*
X119902500Y-70630000D02*
X119902500Y-70430000D01*
G75*
G02*
X120002500Y-70330000I100000J0D01*
G01*
X121277500Y-70330000D01*
G75*
G02*
X121377500Y-70430000I0J-100000D01*
G01*
X121377500Y-70630000D01*
G75*
G02*
X121277500Y-70730000I-100000J0D01*
G01*
X120002500Y-70730000D01*
G75*
G02*
X119902500Y-70630000I0J100000D01*
G01*
G37*
G36*
G01*
X119902500Y-69980000D02*
X119902500Y-69780000D01*
G75*
G02*
X120002500Y-69680000I100000J0D01*
G01*
X121277500Y-69680000D01*
G75*
G02*
X121377500Y-69780000I0J-100000D01*
G01*
X121377500Y-69980000D01*
G75*
G02*
X121277500Y-70080000I-100000J0D01*
G01*
X120002500Y-70080000D01*
G75*
G02*
X119902500Y-69980000I0J100000D01*
G01*
G37*
G36*
G01*
X119902500Y-69330000D02*
X119902500Y-69130000D01*
G75*
G02*
X120002500Y-69030000I100000J0D01*
G01*
X121277500Y-69030000D01*
G75*
G02*
X121377500Y-69130000I0J-100000D01*
G01*
X121377500Y-69330000D01*
G75*
G02*
X121277500Y-69430000I-100000J0D01*
G01*
X120002500Y-69430000D01*
G75*
G02*
X119902500Y-69330000I0J100000D01*
G01*
G37*
G36*
G01*
X119902500Y-68680000D02*
X119902500Y-68480000D01*
G75*
G02*
X120002500Y-68380000I100000J0D01*
G01*
X121277500Y-68380000D01*
G75*
G02*
X121377500Y-68480000I0J-100000D01*
G01*
X121377500Y-68680000D01*
G75*
G02*
X121277500Y-68780000I-100000J0D01*
G01*
X120002500Y-68780000D01*
G75*
G02*
X119902500Y-68680000I0J100000D01*
G01*
G37*
%TD*%
%TO.C,U7*%
X96835000Y-79995000D03*
X96835000Y-81295000D03*
X94935000Y-80645000D03*
X94935000Y-81295000D03*
X94935000Y-79995000D03*
%TD*%
%TO.C,U6*%
X91755000Y-79995000D03*
X91755000Y-81295000D03*
X89855000Y-80645000D03*
X89855000Y-81295000D03*
X89855000Y-79995000D03*
%TD*%
%TO.C,U5*%
X112075000Y-79995000D03*
X112075000Y-81295000D03*
X110175000Y-80645000D03*
X110175000Y-81295000D03*
X110175000Y-79995000D03*
%TD*%
%TO.C,U4*%
X101915000Y-79995000D03*
X101915000Y-81295000D03*
X100015000Y-80645000D03*
X100015000Y-81295000D03*
X100015000Y-79995000D03*
%TD*%
%TO.C,U3*%
X106995000Y-79995000D03*
X106995000Y-81295000D03*
X105095000Y-80645000D03*
X105095000Y-81295000D03*
X105095000Y-79995000D03*
%TD*%
%TO.C,U2*%
G36*
G01*
X105630000Y-68680000D02*
X105630000Y-68480000D01*
G75*
G02*
X105730000Y-68380000I100000J0D01*
G01*
X107005000Y-68380000D01*
G75*
G02*
X107105000Y-68480000I0J-100000D01*
G01*
X107105000Y-68680000D01*
G75*
G02*
X107005000Y-68780000I-100000J0D01*
G01*
X105730000Y-68780000D01*
G75*
G02*
X105630000Y-68680000I0J100000D01*
G01*
G37*
G36*
G01*
X105630000Y-69330000D02*
X105630000Y-69130000D01*
G75*
G02*
X105730000Y-69030000I100000J0D01*
G01*
X107005000Y-69030000D01*
G75*
G02*
X107105000Y-69130000I0J-100000D01*
G01*
X107105000Y-69330000D01*
G75*
G02*
X107005000Y-69430000I-100000J0D01*
G01*
X105730000Y-69430000D01*
G75*
G02*
X105630000Y-69330000I0J100000D01*
G01*
G37*
G36*
G01*
X105630000Y-69980000D02*
X105630000Y-69780000D01*
G75*
G02*
X105730000Y-69680000I100000J0D01*
G01*
X107005000Y-69680000D01*
G75*
G02*
X107105000Y-69780000I0J-100000D01*
G01*
X107105000Y-69980000D01*
G75*
G02*
X107005000Y-70080000I-100000J0D01*
G01*
X105730000Y-70080000D01*
G75*
G02*
X105630000Y-69980000I0J100000D01*
G01*
G37*
G36*
G01*
X105630000Y-70630000D02*
X105630000Y-70430000D01*
G75*
G02*
X105730000Y-70330000I100000J0D01*
G01*
X107005000Y-70330000D01*
G75*
G02*
X107105000Y-70430000I0J-100000D01*
G01*
X107105000Y-70630000D01*
G75*
G02*
X107005000Y-70730000I-100000J0D01*
G01*
X105730000Y-70730000D01*
G75*
G02*
X105630000Y-70630000I0J100000D01*
G01*
G37*
G36*
G01*
X105630000Y-71280000D02*
X105630000Y-71080000D01*
G75*
G02*
X105730000Y-70980000I100000J0D01*
G01*
X107005000Y-70980000D01*
G75*
G02*
X107105000Y-71080000I0J-100000D01*
G01*
X107105000Y-71280000D01*
G75*
G02*
X107005000Y-71380000I-100000J0D01*
G01*
X105730000Y-71380000D01*
G75*
G02*
X105630000Y-71280000I0J100000D01*
G01*
G37*
G36*
G01*
X105630000Y-71930000D02*
X105630000Y-71730000D01*
G75*
G02*
X105730000Y-71630000I100000J0D01*
G01*
X107005000Y-71630000D01*
G75*
G02*
X107105000Y-71730000I0J-100000D01*
G01*
X107105000Y-71930000D01*
G75*
G02*
X107005000Y-72030000I-100000J0D01*
G01*
X105730000Y-72030000D01*
G75*
G02*
X105630000Y-71930000I0J100000D01*
G01*
G37*
G36*
G01*
X105630000Y-72580000D02*
X105630000Y-72380000D01*
G75*
G02*
X105730000Y-72280000I100000J0D01*
G01*
X107005000Y-72280000D01*
G75*
G02*
X107105000Y-72380000I0J-100000D01*
G01*
X107105000Y-72580000D01*
G75*
G02*
X107005000Y-72680000I-100000J0D01*
G01*
X105730000Y-72680000D01*
G75*
G02*
X105630000Y-72580000I0J100000D01*
G01*
G37*
G36*
G01*
X105630000Y-73230000D02*
X105630000Y-73030000D01*
G75*
G02*
X105730000Y-72930000I100000J0D01*
G01*
X107005000Y-72930000D01*
G75*
G02*
X107105000Y-73030000I0J-100000D01*
G01*
X107105000Y-73230000D01*
G75*
G02*
X107005000Y-73330000I-100000J0D01*
G01*
X105730000Y-73330000D01*
G75*
G02*
X105630000Y-73230000I0J100000D01*
G01*
G37*
G36*
G01*
X99905000Y-73230000D02*
X99905000Y-73030000D01*
G75*
G02*
X100005000Y-72930000I100000J0D01*
G01*
X101280000Y-72930000D01*
G75*
G02*
X101380000Y-73030000I0J-100000D01*
G01*
X101380000Y-73230000D01*
G75*
G02*
X101280000Y-73330000I-100000J0D01*
G01*
X100005000Y-73330000D01*
G75*
G02*
X99905000Y-73230000I0J100000D01*
G01*
G37*
G36*
G01*
X99905000Y-72580000D02*
X99905000Y-72380000D01*
G75*
G02*
X100005000Y-72280000I100000J0D01*
G01*
X101280000Y-72280000D01*
G75*
G02*
X101380000Y-72380000I0J-100000D01*
G01*
X101380000Y-72580000D01*
G75*
G02*
X101280000Y-72680000I-100000J0D01*
G01*
X100005000Y-72680000D01*
G75*
G02*
X99905000Y-72580000I0J100000D01*
G01*
G37*
G36*
G01*
X99905000Y-71930000D02*
X99905000Y-71730000D01*
G75*
G02*
X100005000Y-71630000I100000J0D01*
G01*
X101280000Y-71630000D01*
G75*
G02*
X101380000Y-71730000I0J-100000D01*
G01*
X101380000Y-71930000D01*
G75*
G02*
X101280000Y-72030000I-100000J0D01*
G01*
X100005000Y-72030000D01*
G75*
G02*
X99905000Y-71930000I0J100000D01*
G01*
G37*
G36*
G01*
X99905000Y-71280000D02*
X99905000Y-71080000D01*
G75*
G02*
X100005000Y-70980000I100000J0D01*
G01*
X101280000Y-70980000D01*
G75*
G02*
X101380000Y-71080000I0J-100000D01*
G01*
X101380000Y-71280000D01*
G75*
G02*
X101280000Y-71380000I-100000J0D01*
G01*
X100005000Y-71380000D01*
G75*
G02*
X99905000Y-71280000I0J100000D01*
G01*
G37*
G36*
G01*
X99905000Y-70630000D02*
X99905000Y-70430000D01*
G75*
G02*
X100005000Y-70330000I100000J0D01*
G01*
X101280000Y-70330000D01*
G75*
G02*
X101380000Y-70430000I0J-100000D01*
G01*
X101380000Y-70630000D01*
G75*
G02*
X101280000Y-70730000I-100000J0D01*
G01*
X100005000Y-70730000D01*
G75*
G02*
X99905000Y-70630000I0J100000D01*
G01*
G37*
G36*
G01*
X99905000Y-69980000D02*
X99905000Y-69780000D01*
G75*
G02*
X100005000Y-69680000I100000J0D01*
G01*
X101280000Y-69680000D01*
G75*
G02*
X101380000Y-69780000I0J-100000D01*
G01*
X101380000Y-69980000D01*
G75*
G02*
X101280000Y-70080000I-100000J0D01*
G01*
X100005000Y-70080000D01*
G75*
G02*
X99905000Y-69980000I0J100000D01*
G01*
G37*
G36*
G01*
X99905000Y-69330000D02*
X99905000Y-69130000D01*
G75*
G02*
X100005000Y-69030000I100000J0D01*
G01*
X101280000Y-69030000D01*
G75*
G02*
X101380000Y-69130000I0J-100000D01*
G01*
X101380000Y-69330000D01*
G75*
G02*
X101280000Y-69430000I-100000J0D01*
G01*
X100005000Y-69430000D01*
G75*
G02*
X99905000Y-69330000I0J100000D01*
G01*
G37*
G36*
G01*
X99905000Y-68680000D02*
X99905000Y-68480000D01*
G75*
G02*
X100005000Y-68380000I100000J0D01*
G01*
X101280000Y-68380000D01*
G75*
G02*
X101380000Y-68480000I0J-100000D01*
G01*
X101380000Y-68680000D01*
G75*
G02*
X101280000Y-68780000I-100000J0D01*
G01*
X100005000Y-68780000D01*
G75*
G02*
X99905000Y-68680000I0J100000D01*
G01*
G37*
%TD*%
D13*
%TO.C,SW12*%
X123825000Y-151765000D03*
X113665000Y-151765000D03*
D14*
X118745000Y-151765000D03*
D15*
X114935000Y-149225000D03*
X121285000Y-146685000D03*
%TD*%
D13*
%TO.C,SW11*%
X123825000Y-132715000D03*
X113665000Y-132715000D03*
D14*
X118745000Y-132715000D03*
D15*
X114935000Y-130175000D03*
X121285000Y-127635000D03*
%TD*%
D13*
%TO.C,SW10*%
X104775000Y-132715000D03*
X94615000Y-132715000D03*
D14*
X99695000Y-132715000D03*
D15*
X95885000Y-130175000D03*
X102235000Y-127635000D03*
%TD*%
D13*
%TO.C,SW9*%
X85725000Y-132715000D03*
X75565000Y-132715000D03*
D14*
X80645000Y-132715000D03*
D15*
X76835000Y-130175000D03*
X83185000Y-127635000D03*
%TD*%
D13*
%TO.C,SW8*%
X123825000Y-113665000D03*
X113665000Y-113665000D03*
D14*
X118745000Y-113665000D03*
D15*
X114935000Y-111125000D03*
X121285000Y-108585000D03*
%TD*%
D13*
%TO.C,SW7*%
X104775000Y-113665000D03*
X94615000Y-113665000D03*
D14*
X99695000Y-113665000D03*
D15*
X95885000Y-111125000D03*
X102235000Y-108585000D03*
%TD*%
D13*
%TO.C,SW6*%
X85725000Y-113665000D03*
X75565000Y-113665000D03*
D14*
X80645000Y-113665000D03*
D15*
X76835000Y-111125000D03*
X83185000Y-108585000D03*
%TD*%
D13*
%TO.C,SW5*%
X123825000Y-94615000D03*
X113665000Y-94615000D03*
D14*
X118745000Y-94615000D03*
D15*
X114935000Y-92075000D03*
X121285000Y-89535000D03*
%TD*%
D13*
%TO.C,SW4*%
X104775000Y-94615000D03*
X94615000Y-94615000D03*
D14*
X99695000Y-94615000D03*
D15*
X95885000Y-92075000D03*
X102235000Y-89535000D03*
%TD*%
D13*
%TO.C,SW3*%
X85725000Y-94615000D03*
X75565000Y-94615000D03*
D14*
X80645000Y-94615000D03*
D15*
X76835000Y-92075000D03*
X83185000Y-89535000D03*
%TD*%
D13*
%TO.C,SW2*%
X104775000Y-151765000D03*
X94615000Y-151765000D03*
D14*
X99695000Y-151765000D03*
D15*
X95885000Y-149225000D03*
X102235000Y-146685000D03*
%TD*%
D13*
%TO.C,SW1*%
X85725000Y-151765000D03*
X75565000Y-151765000D03*
D14*
X80645000Y-151765000D03*
D15*
X76835000Y-149225000D03*
X83185000Y-146685000D03*
%TD*%
D16*
%TO.C,RN2*%
X76130000Y-75935000D03*
D17*
X75330000Y-75935000D03*
D16*
X73730000Y-75935000D03*
D17*
X74530000Y-75935000D03*
D16*
X76130000Y-77735000D03*
D17*
X74530000Y-77735000D03*
X75330000Y-77735000D03*
D16*
X73730000Y-77735000D03*
%TD*%
%TO.C,RN1*%
X83750000Y-75935000D03*
D17*
X82950000Y-75935000D03*
D16*
X81350000Y-75935000D03*
D17*
X82150000Y-75935000D03*
D16*
X83750000Y-77735000D03*
D17*
X82150000Y-77735000D03*
X82950000Y-77735000D03*
D16*
X81350000Y-77735000D03*
%TD*%
%TO.C,R31*%
G36*
G01*
X110215000Y-150285000D02*
X110765000Y-150285000D01*
G75*
G02*
X110965000Y-150485000I0J-200000D01*
G01*
X110965000Y-150885000D01*
G75*
G02*
X110765000Y-151085000I-200000J0D01*
G01*
X110215000Y-151085000D01*
G75*
G02*
X110015000Y-150885000I0J200000D01*
G01*
X110015000Y-150485000D01*
G75*
G02*
X110215000Y-150285000I200000J0D01*
G01*
G37*
G36*
G01*
X110215000Y-148635000D02*
X110765000Y-148635000D01*
G75*
G02*
X110965000Y-148835000I0J-200000D01*
G01*
X110965000Y-149235000D01*
G75*
G02*
X110765000Y-149435000I-200000J0D01*
G01*
X110215000Y-149435000D01*
G75*
G02*
X110015000Y-149235000I0J200000D01*
G01*
X110015000Y-148835000D01*
G75*
G02*
X110215000Y-148635000I200000J0D01*
G01*
G37*
%TD*%
%TO.C,R30*%
G36*
G01*
X110765000Y-155785000D02*
X110215000Y-155785000D01*
G75*
G02*
X110015000Y-155585000I0J200000D01*
G01*
X110015000Y-155185000D01*
G75*
G02*
X110215000Y-154985000I200000J0D01*
G01*
X110765000Y-154985000D01*
G75*
G02*
X110965000Y-155185000I0J-200000D01*
G01*
X110965000Y-155585000D01*
G75*
G02*
X110765000Y-155785000I-200000J0D01*
G01*
G37*
G36*
G01*
X110765000Y-157435000D02*
X110215000Y-157435000D01*
G75*
G02*
X110015000Y-157235000I0J200000D01*
G01*
X110015000Y-156835000D01*
G75*
G02*
X110215000Y-156635000I200000J0D01*
G01*
X110765000Y-156635000D01*
G75*
G02*
X110965000Y-156835000I0J-200000D01*
G01*
X110965000Y-157235000D01*
G75*
G02*
X110765000Y-157435000I-200000J0D01*
G01*
G37*
%TD*%
%TO.C,R29*%
G36*
G01*
X110215000Y-131235000D02*
X110765000Y-131235000D01*
G75*
G02*
X110965000Y-131435000I0J-200000D01*
G01*
X110965000Y-131835000D01*
G75*
G02*
X110765000Y-132035000I-200000J0D01*
G01*
X110215000Y-132035000D01*
G75*
G02*
X110015000Y-131835000I0J200000D01*
G01*
X110015000Y-131435000D01*
G75*
G02*
X110215000Y-131235000I200000J0D01*
G01*
G37*
G36*
G01*
X110215000Y-129585000D02*
X110765000Y-129585000D01*
G75*
G02*
X110965000Y-129785000I0J-200000D01*
G01*
X110965000Y-130185000D01*
G75*
G02*
X110765000Y-130385000I-200000J0D01*
G01*
X110215000Y-130385000D01*
G75*
G02*
X110015000Y-130185000I0J200000D01*
G01*
X110015000Y-129785000D01*
G75*
G02*
X110215000Y-129585000I200000J0D01*
G01*
G37*
%TD*%
%TO.C,R28*%
G36*
G01*
X110765000Y-136735000D02*
X110215000Y-136735000D01*
G75*
G02*
X110015000Y-136535000I0J200000D01*
G01*
X110015000Y-136135000D01*
G75*
G02*
X110215000Y-135935000I200000J0D01*
G01*
X110765000Y-135935000D01*
G75*
G02*
X110965000Y-136135000I0J-200000D01*
G01*
X110965000Y-136535000D01*
G75*
G02*
X110765000Y-136735000I-200000J0D01*
G01*
G37*
G36*
G01*
X110765000Y-138385000D02*
X110215000Y-138385000D01*
G75*
G02*
X110015000Y-138185000I0J200000D01*
G01*
X110015000Y-137785000D01*
G75*
G02*
X110215000Y-137585000I200000J0D01*
G01*
X110765000Y-137585000D01*
G75*
G02*
X110965000Y-137785000I0J-200000D01*
G01*
X110965000Y-138185000D01*
G75*
G02*
X110765000Y-138385000I-200000J0D01*
G01*
G37*
%TD*%
%TO.C,R27*%
G36*
G01*
X91165000Y-131235000D02*
X91715000Y-131235000D01*
G75*
G02*
X91915000Y-131435000I0J-200000D01*
G01*
X91915000Y-131835000D01*
G75*
G02*
X91715000Y-132035000I-200000J0D01*
G01*
X91165000Y-132035000D01*
G75*
G02*
X90965000Y-131835000I0J200000D01*
G01*
X90965000Y-131435000D01*
G75*
G02*
X91165000Y-131235000I200000J0D01*
G01*
G37*
G36*
G01*
X91165000Y-129585000D02*
X91715000Y-129585000D01*
G75*
G02*
X91915000Y-129785000I0J-200000D01*
G01*
X91915000Y-130185000D01*
G75*
G02*
X91715000Y-130385000I-200000J0D01*
G01*
X91165000Y-130385000D01*
G75*
G02*
X90965000Y-130185000I0J200000D01*
G01*
X90965000Y-129785000D01*
G75*
G02*
X91165000Y-129585000I200000J0D01*
G01*
G37*
%TD*%
%TO.C,R26*%
G36*
G01*
X91715000Y-136735000D02*
X91165000Y-136735000D01*
G75*
G02*
X90965000Y-136535000I0J200000D01*
G01*
X90965000Y-136135000D01*
G75*
G02*
X91165000Y-135935000I200000J0D01*
G01*
X91715000Y-135935000D01*
G75*
G02*
X91915000Y-136135000I0J-200000D01*
G01*
X91915000Y-136535000D01*
G75*
G02*
X91715000Y-136735000I-200000J0D01*
G01*
G37*
G36*
G01*
X91715000Y-138385000D02*
X91165000Y-138385000D01*
G75*
G02*
X90965000Y-138185000I0J200000D01*
G01*
X90965000Y-137785000D01*
G75*
G02*
X91165000Y-137585000I200000J0D01*
G01*
X91715000Y-137585000D01*
G75*
G02*
X91915000Y-137785000I0J-200000D01*
G01*
X91915000Y-138185000D01*
G75*
G02*
X91715000Y-138385000I-200000J0D01*
G01*
G37*
%TD*%
%TO.C,R25*%
G36*
G01*
X72115000Y-131235000D02*
X72665000Y-131235000D01*
G75*
G02*
X72865000Y-131435000I0J-200000D01*
G01*
X72865000Y-131835000D01*
G75*
G02*
X72665000Y-132035000I-200000J0D01*
G01*
X72115000Y-132035000D01*
G75*
G02*
X71915000Y-131835000I0J200000D01*
G01*
X71915000Y-131435000D01*
G75*
G02*
X72115000Y-131235000I200000J0D01*
G01*
G37*
G36*
G01*
X72115000Y-129585000D02*
X72665000Y-129585000D01*
G75*
G02*
X72865000Y-129785000I0J-200000D01*
G01*
X72865000Y-130185000D01*
G75*
G02*
X72665000Y-130385000I-200000J0D01*
G01*
X72115000Y-130385000D01*
G75*
G02*
X71915000Y-130185000I0J200000D01*
G01*
X71915000Y-129785000D01*
G75*
G02*
X72115000Y-129585000I200000J0D01*
G01*
G37*
%TD*%
%TO.C,R24*%
G36*
G01*
X72665000Y-136735000D02*
X72115000Y-136735000D01*
G75*
G02*
X71915000Y-136535000I0J200000D01*
G01*
X71915000Y-136135000D01*
G75*
G02*
X72115000Y-135935000I200000J0D01*
G01*
X72665000Y-135935000D01*
G75*
G02*
X72865000Y-136135000I0J-200000D01*
G01*
X72865000Y-136535000D01*
G75*
G02*
X72665000Y-136735000I-200000J0D01*
G01*
G37*
G36*
G01*
X72665000Y-138385000D02*
X72115000Y-138385000D01*
G75*
G02*
X71915000Y-138185000I0J200000D01*
G01*
X71915000Y-137785000D01*
G75*
G02*
X72115000Y-137585000I200000J0D01*
G01*
X72665000Y-137585000D01*
G75*
G02*
X72865000Y-137785000I0J-200000D01*
G01*
X72865000Y-138185000D01*
G75*
G02*
X72665000Y-138385000I-200000J0D01*
G01*
G37*
%TD*%
%TO.C,R23*%
G36*
G01*
X110215000Y-112185000D02*
X110765000Y-112185000D01*
G75*
G02*
X110965000Y-112385000I0J-200000D01*
G01*
X110965000Y-112785000D01*
G75*
G02*
X110765000Y-112985000I-200000J0D01*
G01*
X110215000Y-112985000D01*
G75*
G02*
X110015000Y-112785000I0J200000D01*
G01*
X110015000Y-112385000D01*
G75*
G02*
X110215000Y-112185000I200000J0D01*
G01*
G37*
G36*
G01*
X110215000Y-110535000D02*
X110765000Y-110535000D01*
G75*
G02*
X110965000Y-110735000I0J-200000D01*
G01*
X110965000Y-111135000D01*
G75*
G02*
X110765000Y-111335000I-200000J0D01*
G01*
X110215000Y-111335000D01*
G75*
G02*
X110015000Y-111135000I0J200000D01*
G01*
X110015000Y-110735000D01*
G75*
G02*
X110215000Y-110535000I200000J0D01*
G01*
G37*
%TD*%
%TO.C,R22*%
G36*
G01*
X110765000Y-117685000D02*
X110215000Y-117685000D01*
G75*
G02*
X110015000Y-117485000I0J200000D01*
G01*
X110015000Y-117085000D01*
G75*
G02*
X110215000Y-116885000I200000J0D01*
G01*
X110765000Y-116885000D01*
G75*
G02*
X110965000Y-117085000I0J-200000D01*
G01*
X110965000Y-117485000D01*
G75*
G02*
X110765000Y-117685000I-200000J0D01*
G01*
G37*
G36*
G01*
X110765000Y-119335000D02*
X110215000Y-119335000D01*
G75*
G02*
X110015000Y-119135000I0J200000D01*
G01*
X110015000Y-118735000D01*
G75*
G02*
X110215000Y-118535000I200000J0D01*
G01*
X110765000Y-118535000D01*
G75*
G02*
X110965000Y-118735000I0J-200000D01*
G01*
X110965000Y-119135000D01*
G75*
G02*
X110765000Y-119335000I-200000J0D01*
G01*
G37*
%TD*%
%TO.C,R21*%
G36*
G01*
X91165000Y-112185000D02*
X91715000Y-112185000D01*
G75*
G02*
X91915000Y-112385000I0J-200000D01*
G01*
X91915000Y-112785000D01*
G75*
G02*
X91715000Y-112985000I-200000J0D01*
G01*
X91165000Y-112985000D01*
G75*
G02*
X90965000Y-112785000I0J200000D01*
G01*
X90965000Y-112385000D01*
G75*
G02*
X91165000Y-112185000I200000J0D01*
G01*
G37*
G36*
G01*
X91165000Y-110535000D02*
X91715000Y-110535000D01*
G75*
G02*
X91915000Y-110735000I0J-200000D01*
G01*
X91915000Y-111135000D01*
G75*
G02*
X91715000Y-111335000I-200000J0D01*
G01*
X91165000Y-111335000D01*
G75*
G02*
X90965000Y-111135000I0J200000D01*
G01*
X90965000Y-110735000D01*
G75*
G02*
X91165000Y-110535000I200000J0D01*
G01*
G37*
%TD*%
%TO.C,R20*%
G36*
G01*
X91715000Y-117685000D02*
X91165000Y-117685000D01*
G75*
G02*
X90965000Y-117485000I0J200000D01*
G01*
X90965000Y-117085000D01*
G75*
G02*
X91165000Y-116885000I200000J0D01*
G01*
X91715000Y-116885000D01*
G75*
G02*
X91915000Y-117085000I0J-200000D01*
G01*
X91915000Y-117485000D01*
G75*
G02*
X91715000Y-117685000I-200000J0D01*
G01*
G37*
G36*
G01*
X91715000Y-119335000D02*
X91165000Y-119335000D01*
G75*
G02*
X90965000Y-119135000I0J200000D01*
G01*
X90965000Y-118735000D01*
G75*
G02*
X91165000Y-118535000I200000J0D01*
G01*
X91715000Y-118535000D01*
G75*
G02*
X91915000Y-118735000I0J-200000D01*
G01*
X91915000Y-119135000D01*
G75*
G02*
X91715000Y-119335000I-200000J0D01*
G01*
G37*
%TD*%
%TO.C,R19*%
G36*
G01*
X72115000Y-112185000D02*
X72665000Y-112185000D01*
G75*
G02*
X72865000Y-112385000I0J-200000D01*
G01*
X72865000Y-112785000D01*
G75*
G02*
X72665000Y-112985000I-200000J0D01*
G01*
X72115000Y-112985000D01*
G75*
G02*
X71915000Y-112785000I0J200000D01*
G01*
X71915000Y-112385000D01*
G75*
G02*
X72115000Y-112185000I200000J0D01*
G01*
G37*
G36*
G01*
X72115000Y-110535000D02*
X72665000Y-110535000D01*
G75*
G02*
X72865000Y-110735000I0J-200000D01*
G01*
X72865000Y-111135000D01*
G75*
G02*
X72665000Y-111335000I-200000J0D01*
G01*
X72115000Y-111335000D01*
G75*
G02*
X71915000Y-111135000I0J200000D01*
G01*
X71915000Y-110735000D01*
G75*
G02*
X72115000Y-110535000I200000J0D01*
G01*
G37*
%TD*%
%TO.C,R18*%
G36*
G01*
X72665000Y-117685000D02*
X72115000Y-117685000D01*
G75*
G02*
X71915000Y-117485000I0J200000D01*
G01*
X71915000Y-117085000D01*
G75*
G02*
X72115000Y-116885000I200000J0D01*
G01*
X72665000Y-116885000D01*
G75*
G02*
X72865000Y-117085000I0J-200000D01*
G01*
X72865000Y-117485000D01*
G75*
G02*
X72665000Y-117685000I-200000J0D01*
G01*
G37*
G36*
G01*
X72665000Y-119335000D02*
X72115000Y-119335000D01*
G75*
G02*
X71915000Y-119135000I0J200000D01*
G01*
X71915000Y-118735000D01*
G75*
G02*
X72115000Y-118535000I200000J0D01*
G01*
X72665000Y-118535000D01*
G75*
G02*
X72865000Y-118735000I0J-200000D01*
G01*
X72865000Y-119135000D01*
G75*
G02*
X72665000Y-119335000I-200000J0D01*
G01*
G37*
%TD*%
%TO.C,R17*%
G36*
G01*
X110215000Y-93135000D02*
X110765000Y-93135000D01*
G75*
G02*
X110965000Y-93335000I0J-200000D01*
G01*
X110965000Y-93735000D01*
G75*
G02*
X110765000Y-93935000I-200000J0D01*
G01*
X110215000Y-93935000D01*
G75*
G02*
X110015000Y-93735000I0J200000D01*
G01*
X110015000Y-93335000D01*
G75*
G02*
X110215000Y-93135000I200000J0D01*
G01*
G37*
G36*
G01*
X110215000Y-91485000D02*
X110765000Y-91485000D01*
G75*
G02*
X110965000Y-91685000I0J-200000D01*
G01*
X110965000Y-92085000D01*
G75*
G02*
X110765000Y-92285000I-200000J0D01*
G01*
X110215000Y-92285000D01*
G75*
G02*
X110015000Y-92085000I0J200000D01*
G01*
X110015000Y-91685000D01*
G75*
G02*
X110215000Y-91485000I200000J0D01*
G01*
G37*
%TD*%
%TO.C,R16*%
G36*
G01*
X110765000Y-98635000D02*
X110215000Y-98635000D01*
G75*
G02*
X110015000Y-98435000I0J200000D01*
G01*
X110015000Y-98035000D01*
G75*
G02*
X110215000Y-97835000I200000J0D01*
G01*
X110765000Y-97835000D01*
G75*
G02*
X110965000Y-98035000I0J-200000D01*
G01*
X110965000Y-98435000D01*
G75*
G02*
X110765000Y-98635000I-200000J0D01*
G01*
G37*
G36*
G01*
X110765000Y-100285000D02*
X110215000Y-100285000D01*
G75*
G02*
X110015000Y-100085000I0J200000D01*
G01*
X110015000Y-99685000D01*
G75*
G02*
X110215000Y-99485000I200000J0D01*
G01*
X110765000Y-99485000D01*
G75*
G02*
X110965000Y-99685000I0J-200000D01*
G01*
X110965000Y-100085000D01*
G75*
G02*
X110765000Y-100285000I-200000J0D01*
G01*
G37*
%TD*%
%TO.C,R15*%
G36*
G01*
X91165000Y-93135000D02*
X91715000Y-93135000D01*
G75*
G02*
X91915000Y-93335000I0J-200000D01*
G01*
X91915000Y-93735000D01*
G75*
G02*
X91715000Y-93935000I-200000J0D01*
G01*
X91165000Y-93935000D01*
G75*
G02*
X90965000Y-93735000I0J200000D01*
G01*
X90965000Y-93335000D01*
G75*
G02*
X91165000Y-93135000I200000J0D01*
G01*
G37*
G36*
G01*
X91165000Y-91485000D02*
X91715000Y-91485000D01*
G75*
G02*
X91915000Y-91685000I0J-200000D01*
G01*
X91915000Y-92085000D01*
G75*
G02*
X91715000Y-92285000I-200000J0D01*
G01*
X91165000Y-92285000D01*
G75*
G02*
X90965000Y-92085000I0J200000D01*
G01*
X90965000Y-91685000D01*
G75*
G02*
X91165000Y-91485000I200000J0D01*
G01*
G37*
%TD*%
%TO.C,R14*%
G36*
G01*
X91715000Y-98635000D02*
X91165000Y-98635000D01*
G75*
G02*
X90965000Y-98435000I0J200000D01*
G01*
X90965000Y-98035000D01*
G75*
G02*
X91165000Y-97835000I200000J0D01*
G01*
X91715000Y-97835000D01*
G75*
G02*
X91915000Y-98035000I0J-200000D01*
G01*
X91915000Y-98435000D01*
G75*
G02*
X91715000Y-98635000I-200000J0D01*
G01*
G37*
G36*
G01*
X91715000Y-100285000D02*
X91165000Y-100285000D01*
G75*
G02*
X90965000Y-100085000I0J200000D01*
G01*
X90965000Y-99685000D01*
G75*
G02*
X91165000Y-99485000I200000J0D01*
G01*
X91715000Y-99485000D01*
G75*
G02*
X91915000Y-99685000I0J-200000D01*
G01*
X91915000Y-100085000D01*
G75*
G02*
X91715000Y-100285000I-200000J0D01*
G01*
G37*
%TD*%
%TO.C,R13*%
G36*
G01*
X72115000Y-93135000D02*
X72665000Y-93135000D01*
G75*
G02*
X72865000Y-93335000I0J-200000D01*
G01*
X72865000Y-93735000D01*
G75*
G02*
X72665000Y-93935000I-200000J0D01*
G01*
X72115000Y-93935000D01*
G75*
G02*
X71915000Y-93735000I0J200000D01*
G01*
X71915000Y-93335000D01*
G75*
G02*
X72115000Y-93135000I200000J0D01*
G01*
G37*
G36*
G01*
X72115000Y-91485000D02*
X72665000Y-91485000D01*
G75*
G02*
X72865000Y-91685000I0J-200000D01*
G01*
X72865000Y-92085000D01*
G75*
G02*
X72665000Y-92285000I-200000J0D01*
G01*
X72115000Y-92285000D01*
G75*
G02*
X71915000Y-92085000I0J200000D01*
G01*
X71915000Y-91685000D01*
G75*
G02*
X72115000Y-91485000I200000J0D01*
G01*
G37*
%TD*%
%TO.C,R12*%
G36*
G01*
X72665000Y-98635000D02*
X72115000Y-98635000D01*
G75*
G02*
X71915000Y-98435000I0J200000D01*
G01*
X71915000Y-98035000D01*
G75*
G02*
X72115000Y-97835000I200000J0D01*
G01*
X72665000Y-97835000D01*
G75*
G02*
X72865000Y-98035000I0J-200000D01*
G01*
X72865000Y-98435000D01*
G75*
G02*
X72665000Y-98635000I-200000J0D01*
G01*
G37*
G36*
G01*
X72665000Y-100285000D02*
X72115000Y-100285000D01*
G75*
G02*
X71915000Y-100085000I0J200000D01*
G01*
X71915000Y-99685000D01*
G75*
G02*
X72115000Y-99485000I200000J0D01*
G01*
X72665000Y-99485000D01*
G75*
G02*
X72865000Y-99685000I0J-200000D01*
G01*
X72865000Y-100085000D01*
G75*
G02*
X72665000Y-100285000I-200000J0D01*
G01*
G37*
%TD*%
%TO.C,R11*%
G36*
G01*
X91165000Y-150285000D02*
X91715000Y-150285000D01*
G75*
G02*
X91915000Y-150485000I0J-200000D01*
G01*
X91915000Y-150885000D01*
G75*
G02*
X91715000Y-151085000I-200000J0D01*
G01*
X91165000Y-151085000D01*
G75*
G02*
X90965000Y-150885000I0J200000D01*
G01*
X90965000Y-150485000D01*
G75*
G02*
X91165000Y-150285000I200000J0D01*
G01*
G37*
G36*
G01*
X91165000Y-148635000D02*
X91715000Y-148635000D01*
G75*
G02*
X91915000Y-148835000I0J-200000D01*
G01*
X91915000Y-149235000D01*
G75*
G02*
X91715000Y-149435000I-200000J0D01*
G01*
X91165000Y-149435000D01*
G75*
G02*
X90965000Y-149235000I0J200000D01*
G01*
X90965000Y-148835000D01*
G75*
G02*
X91165000Y-148635000I200000J0D01*
G01*
G37*
%TD*%
%TO.C,R10*%
G36*
G01*
X91715000Y-155785000D02*
X91165000Y-155785000D01*
G75*
G02*
X90965000Y-155585000I0J200000D01*
G01*
X90965000Y-155185000D01*
G75*
G02*
X91165000Y-154985000I200000J0D01*
G01*
X91715000Y-154985000D01*
G75*
G02*
X91915000Y-155185000I0J-200000D01*
G01*
X91915000Y-155585000D01*
G75*
G02*
X91715000Y-155785000I-200000J0D01*
G01*
G37*
G36*
G01*
X91715000Y-157435000D02*
X91165000Y-157435000D01*
G75*
G02*
X90965000Y-157235000I0J200000D01*
G01*
X90965000Y-156835000D01*
G75*
G02*
X91165000Y-156635000I200000J0D01*
G01*
X91715000Y-156635000D01*
G75*
G02*
X91915000Y-156835000I0J-200000D01*
G01*
X91915000Y-157235000D01*
G75*
G02*
X91715000Y-157435000I-200000J0D01*
G01*
G37*
%TD*%
%TO.C,R9*%
G36*
G01*
X72115000Y-150285000D02*
X72665000Y-150285000D01*
G75*
G02*
X72865000Y-150485000I0J-200000D01*
G01*
X72865000Y-150885000D01*
G75*
G02*
X72665000Y-151085000I-200000J0D01*
G01*
X72115000Y-151085000D01*
G75*
G02*
X71915000Y-150885000I0J200000D01*
G01*
X71915000Y-150485000D01*
G75*
G02*
X72115000Y-150285000I200000J0D01*
G01*
G37*
G36*
G01*
X72115000Y-148635000D02*
X72665000Y-148635000D01*
G75*
G02*
X72865000Y-148835000I0J-200000D01*
G01*
X72865000Y-149235000D01*
G75*
G02*
X72665000Y-149435000I-200000J0D01*
G01*
X72115000Y-149435000D01*
G75*
G02*
X71915000Y-149235000I0J200000D01*
G01*
X71915000Y-148835000D01*
G75*
G02*
X72115000Y-148635000I200000J0D01*
G01*
G37*
%TD*%
%TO.C,R8*%
G36*
G01*
X72665000Y-155785000D02*
X72115000Y-155785000D01*
G75*
G02*
X71915000Y-155585000I0J200000D01*
G01*
X71915000Y-155185000D01*
G75*
G02*
X72115000Y-154985000I200000J0D01*
G01*
X72665000Y-154985000D01*
G75*
G02*
X72865000Y-155185000I0J-200000D01*
G01*
X72865000Y-155585000D01*
G75*
G02*
X72665000Y-155785000I-200000J0D01*
G01*
G37*
G36*
G01*
X72665000Y-157435000D02*
X72115000Y-157435000D01*
G75*
G02*
X71915000Y-157235000I0J200000D01*
G01*
X71915000Y-156835000D01*
G75*
G02*
X72115000Y-156635000I200000J0D01*
G01*
X72665000Y-156635000D01*
G75*
G02*
X72865000Y-156835000I0J-200000D01*
G01*
X72865000Y-157235000D01*
G75*
G02*
X72665000Y-157435000I-200000J0D01*
G01*
G37*
%TD*%
D13*
%TO.C,J2*%
X117475000Y-167005000D03*
X114935000Y-167005000D03*
X112395000Y-167005000D03*
X109855000Y-167005000D03*
X107315000Y-167005000D03*
X104775000Y-167005000D03*
X102235000Y-167005000D03*
X99695000Y-167005000D03*
X97155000Y-167005000D03*
X94615000Y-167005000D03*
X92075000Y-167005000D03*
X89535000Y-167005000D03*
X86995000Y-167005000D03*
X84455000Y-167005000D03*
X81915000Y-167005000D03*
X117475000Y-169545000D03*
X114935000Y-169545000D03*
X112395000Y-169545000D03*
X109855000Y-169545000D03*
X107315000Y-169545000D03*
X104775000Y-169545000D03*
X102235000Y-169545000D03*
X99695000Y-169545000D03*
X97155000Y-169545000D03*
X94615000Y-169545000D03*
X92075000Y-169545000D03*
X89535000Y-169545000D03*
X86995000Y-169545000D03*
X84455000Y-169545000D03*
G36*
G01*
X82515000Y-170395000D02*
X81315000Y-170395000D01*
G75*
G02*
X81065000Y-170145000I0J250000D01*
G01*
X81065000Y-168945000D01*
G75*
G02*
X81315000Y-168695000I250000J0D01*
G01*
X82515000Y-168695000D01*
G75*
G02*
X82765000Y-168945000I0J-250000D01*
G01*
X82765000Y-170145000D01*
G75*
G02*
X82515000Y-170395000I-250000J0D01*
G01*
G37*
%TD*%
%TO.C,J1*%
X117475000Y-57150000D03*
X114935000Y-57150000D03*
X112395000Y-57150000D03*
X109855000Y-57150000D03*
X107315000Y-57150000D03*
X104775000Y-57150000D03*
X102235000Y-57150000D03*
X99695000Y-57150000D03*
X97155000Y-57150000D03*
X94615000Y-57150000D03*
X92075000Y-57150000D03*
X89535000Y-57150000D03*
X86995000Y-57150000D03*
X84455000Y-57150000D03*
X81915000Y-57150000D03*
X117475000Y-59690000D03*
X114935000Y-59690000D03*
X112395000Y-59690000D03*
X109855000Y-59690000D03*
X107315000Y-59690000D03*
X104775000Y-59690000D03*
X102235000Y-59690000D03*
X99695000Y-59690000D03*
X97155000Y-59690000D03*
X94615000Y-59690000D03*
X92075000Y-59690000D03*
X89535000Y-59690000D03*
X86995000Y-59690000D03*
X84455000Y-59690000D03*
G36*
G01*
X82515000Y-60540000D02*
X81315000Y-60540000D01*
G75*
G02*
X81065000Y-60290000I0J250000D01*
G01*
X81065000Y-59090000D01*
G75*
G02*
X81315000Y-58840000I250000J0D01*
G01*
X82515000Y-58840000D01*
G75*
G02*
X82765000Y-59090000I0J-250000D01*
G01*
X82765000Y-60290000D01*
G75*
G02*
X82515000Y-60540000I-250000J0D01*
G01*
G37*
%TD*%
D10*
%TO.C,H4*%
X73452056Y-168482944D03*
X71755000Y-167780000D03*
X70057944Y-168482944D03*
X69355000Y-170180000D03*
X70057944Y-171877056D03*
X71755000Y-172580000D03*
X73452056Y-171877056D03*
X74155000Y-170180000D03*
D11*
X71755000Y-170180000D03*
%TD*%
D10*
%TO.C,H3*%
X129332056Y-168482944D03*
X127635000Y-167780000D03*
X125937944Y-168482944D03*
X125235000Y-170180000D03*
X125937944Y-171877056D03*
X127635000Y-172580000D03*
X129332056Y-171877056D03*
X130035000Y-170180000D03*
D11*
X127635000Y-170180000D03*
%TD*%
D10*
%TO.C,H2*%
X129332056Y-54817944D03*
X127635000Y-54115000D03*
X125937944Y-54817944D03*
X125235000Y-56515000D03*
X125937944Y-58212056D03*
X127635000Y-58915000D03*
X129332056Y-58212056D03*
X130035000Y-56515000D03*
D11*
X127635000Y-56515000D03*
%TD*%
D18*
%TO.C,D12*%
X120015000Y-156845000D03*
D19*
X117475000Y-156845000D03*
%TD*%
D18*
%TO.C,D11*%
X120015000Y-137795000D03*
D19*
X117475000Y-137795000D03*
%TD*%
D18*
%TO.C,D10*%
X100965000Y-137795000D03*
D19*
X98425000Y-137795000D03*
%TD*%
D18*
%TO.C,D9*%
X81915000Y-137795000D03*
D19*
X79375000Y-137795000D03*
%TD*%
D18*
%TO.C,D8*%
X120015000Y-118745000D03*
D19*
X117475000Y-118745000D03*
%TD*%
D18*
%TO.C,D7*%
X100965000Y-118745000D03*
D19*
X98425000Y-118745000D03*
%TD*%
D18*
%TO.C,D6*%
X81915000Y-118745000D03*
D19*
X79375000Y-118745000D03*
%TD*%
D18*
%TO.C,D5*%
X120015000Y-99695000D03*
D19*
X117475000Y-99695000D03*
%TD*%
D18*
%TO.C,D4*%
X100965000Y-99695000D03*
D19*
X98425000Y-99695000D03*
%TD*%
D18*
%TO.C,D3*%
X81915000Y-99695000D03*
D19*
X79375000Y-99695000D03*
%TD*%
D18*
%TO.C,D2*%
X100965000Y-156845000D03*
D19*
X98425000Y-156845000D03*
%TD*%
D18*
%TO.C,D1*%
X81915000Y-156845000D03*
D19*
X79375000Y-156845000D03*
%TD*%
%TO.C,C9*%
G36*
G01*
X116530000Y-66925000D02*
X116530000Y-66425000D01*
G75*
G02*
X116755000Y-66200000I225000J0D01*
G01*
X117205000Y-66200000D01*
G75*
G02*
X117430000Y-66425000I0J-225000D01*
G01*
X117430000Y-66925000D01*
G75*
G02*
X117205000Y-67150000I-225000J0D01*
G01*
X116755000Y-67150000D01*
G75*
G02*
X116530000Y-66925000I0J225000D01*
G01*
G37*
G36*
G01*
X114980000Y-66925000D02*
X114980000Y-66425000D01*
G75*
G02*
X115205000Y-66200000I225000J0D01*
G01*
X115655000Y-66200000D01*
G75*
G02*
X115880000Y-66425000I0J-225000D01*
G01*
X115880000Y-66925000D01*
G75*
G02*
X115655000Y-67150000I-225000J0D01*
G01*
X115205000Y-67150000D01*
G75*
G02*
X114980000Y-66925000I0J225000D01*
G01*
G37*
%TD*%
%TO.C,C8*%
G36*
G01*
X126690000Y-66925000D02*
X126690000Y-66425000D01*
G75*
G02*
X126915000Y-66200000I225000J0D01*
G01*
X127365000Y-66200000D01*
G75*
G02*
X127590000Y-66425000I0J-225000D01*
G01*
X127590000Y-66925000D01*
G75*
G02*
X127365000Y-67150000I-225000J0D01*
G01*
X126915000Y-67150000D01*
G75*
G02*
X126690000Y-66925000I0J225000D01*
G01*
G37*
G36*
G01*
X125140000Y-66925000D02*
X125140000Y-66425000D01*
G75*
G02*
X125365000Y-66200000I225000J0D01*
G01*
X125815000Y-66200000D01*
G75*
G02*
X126040000Y-66425000I0J-225000D01*
G01*
X126040000Y-66925000D01*
G75*
G02*
X125815000Y-67150000I-225000J0D01*
G01*
X125365000Y-67150000D01*
G75*
G02*
X125140000Y-66925000I0J225000D01*
G01*
G37*
%TD*%
%TO.C,C7*%
G36*
G01*
X96210000Y-78355000D02*
X96210000Y-77855000D01*
G75*
G02*
X96435000Y-77630000I225000J0D01*
G01*
X96885000Y-77630000D01*
G75*
G02*
X97110000Y-77855000I0J-225000D01*
G01*
X97110000Y-78355000D01*
G75*
G02*
X96885000Y-78580000I-225000J0D01*
G01*
X96435000Y-78580000D01*
G75*
G02*
X96210000Y-78355000I0J225000D01*
G01*
G37*
G36*
G01*
X94660000Y-78355000D02*
X94660000Y-77855000D01*
G75*
G02*
X94885000Y-77630000I225000J0D01*
G01*
X95335000Y-77630000D01*
G75*
G02*
X95560000Y-77855000I0J-225000D01*
G01*
X95560000Y-78355000D01*
G75*
G02*
X95335000Y-78580000I-225000J0D01*
G01*
X94885000Y-78580000D01*
G75*
G02*
X94660000Y-78355000I0J225000D01*
G01*
G37*
%TD*%
%TO.C,C6*%
G36*
G01*
X91130000Y-78355000D02*
X91130000Y-77855000D01*
G75*
G02*
X91355000Y-77630000I225000J0D01*
G01*
X91805000Y-77630000D01*
G75*
G02*
X92030000Y-77855000I0J-225000D01*
G01*
X92030000Y-78355000D01*
G75*
G02*
X91805000Y-78580000I-225000J0D01*
G01*
X91355000Y-78580000D01*
G75*
G02*
X91130000Y-78355000I0J225000D01*
G01*
G37*
G36*
G01*
X89580000Y-78355000D02*
X89580000Y-77855000D01*
G75*
G02*
X89805000Y-77630000I225000J0D01*
G01*
X90255000Y-77630000D01*
G75*
G02*
X90480000Y-77855000I0J-225000D01*
G01*
X90480000Y-78355000D01*
G75*
G02*
X90255000Y-78580000I-225000J0D01*
G01*
X89805000Y-78580000D01*
G75*
G02*
X89580000Y-78355000I0J225000D01*
G01*
G37*
%TD*%
%TO.C,C5*%
G36*
G01*
X111450000Y-78355000D02*
X111450000Y-77855000D01*
G75*
G02*
X111675000Y-77630000I225000J0D01*
G01*
X112125000Y-77630000D01*
G75*
G02*
X112350000Y-77855000I0J-225000D01*
G01*
X112350000Y-78355000D01*
G75*
G02*
X112125000Y-78580000I-225000J0D01*
G01*
X111675000Y-78580000D01*
G75*
G02*
X111450000Y-78355000I0J225000D01*
G01*
G37*
G36*
G01*
X109900000Y-78355000D02*
X109900000Y-77855000D01*
G75*
G02*
X110125000Y-77630000I225000J0D01*
G01*
X110575000Y-77630000D01*
G75*
G02*
X110800000Y-77855000I0J-225000D01*
G01*
X110800000Y-78355000D01*
G75*
G02*
X110575000Y-78580000I-225000J0D01*
G01*
X110125000Y-78580000D01*
G75*
G02*
X109900000Y-78355000I0J225000D01*
G01*
G37*
%TD*%
%TO.C,C4*%
G36*
G01*
X101290000Y-78355000D02*
X101290000Y-77855000D01*
G75*
G02*
X101515000Y-77630000I225000J0D01*
G01*
X101965000Y-77630000D01*
G75*
G02*
X102190000Y-77855000I0J-225000D01*
G01*
X102190000Y-78355000D01*
G75*
G02*
X101965000Y-78580000I-225000J0D01*
G01*
X101515000Y-78580000D01*
G75*
G02*
X101290000Y-78355000I0J225000D01*
G01*
G37*
G36*
G01*
X99740000Y-78355000D02*
X99740000Y-77855000D01*
G75*
G02*
X99965000Y-77630000I225000J0D01*
G01*
X100415000Y-77630000D01*
G75*
G02*
X100640000Y-77855000I0J-225000D01*
G01*
X100640000Y-78355000D01*
G75*
G02*
X100415000Y-78580000I-225000J0D01*
G01*
X99965000Y-78580000D01*
G75*
G02*
X99740000Y-78355000I0J225000D01*
G01*
G37*
%TD*%
%TO.C,C3*%
G36*
G01*
X106370000Y-78355000D02*
X106370000Y-77855000D01*
G75*
G02*
X106595000Y-77630000I225000J0D01*
G01*
X107045000Y-77630000D01*
G75*
G02*
X107270000Y-77855000I0J-225000D01*
G01*
X107270000Y-78355000D01*
G75*
G02*
X107045000Y-78580000I-225000J0D01*
G01*
X106595000Y-78580000D01*
G75*
G02*
X106370000Y-78355000I0J225000D01*
G01*
G37*
G36*
G01*
X104820000Y-78355000D02*
X104820000Y-77855000D01*
G75*
G02*
X105045000Y-77630000I225000J0D01*
G01*
X105495000Y-77630000D01*
G75*
G02*
X105720000Y-77855000I0J-225000D01*
G01*
X105720000Y-78355000D01*
G75*
G02*
X105495000Y-78580000I-225000J0D01*
G01*
X105045000Y-78580000D01*
G75*
G02*
X104820000Y-78355000I0J225000D01*
G01*
G37*
%TD*%
%TO.C,C2*%
G36*
G01*
X106370000Y-66925000D02*
X106370000Y-66425000D01*
G75*
G02*
X106595000Y-66200000I225000J0D01*
G01*
X107045000Y-66200000D01*
G75*
G02*
X107270000Y-66425000I0J-225000D01*
G01*
X107270000Y-66925000D01*
G75*
G02*
X107045000Y-67150000I-225000J0D01*
G01*
X106595000Y-67150000D01*
G75*
G02*
X106370000Y-66925000I0J225000D01*
G01*
G37*
G36*
G01*
X104820000Y-66925000D02*
X104820000Y-66425000D01*
G75*
G02*
X105045000Y-66200000I225000J0D01*
G01*
X105495000Y-66200000D01*
G75*
G02*
X105720000Y-66425000I0J-225000D01*
G01*
X105720000Y-66925000D01*
G75*
G02*
X105495000Y-67150000I-225000J0D01*
G01*
X105045000Y-67150000D01*
G75*
G02*
X104820000Y-66925000I0J225000D01*
G01*
G37*
%TD*%
%TO.C,C1*%
G36*
G01*
X96210000Y-66925000D02*
X96210000Y-66425000D01*
G75*
G02*
X96435000Y-66200000I225000J0D01*
G01*
X96885000Y-66200000D01*
G75*
G02*
X97110000Y-66425000I0J-225000D01*
G01*
X97110000Y-66925000D01*
G75*
G02*
X96885000Y-67150000I-225000J0D01*
G01*
X96435000Y-67150000D01*
G75*
G02*
X96210000Y-66925000I0J225000D01*
G01*
G37*
G36*
G01*
X94660000Y-66925000D02*
X94660000Y-66425000D01*
G75*
G02*
X94885000Y-66200000I225000J0D01*
G01*
X95335000Y-66200000D01*
G75*
G02*
X95560000Y-66425000I0J-225000D01*
G01*
X95560000Y-66925000D01*
G75*
G02*
X95335000Y-67150000I-225000J0D01*
G01*
X94885000Y-67150000D01*
G75*
G02*
X94660000Y-66925000I0J225000D01*
G01*
G37*
%TD*%
M02*
