M48
; DRILL file {KiCad (5.1.9)-1} date 05/31/21 11:32:26
; FORMAT={-:-/ absolute / inch / decimal}
; #@! TF.CreationDate,2021-05-31T11:32:26+02:00
; #@! TF.GenerationSoftware,Kicad,Pcbnew,(5.1.9)-1
; #@! TF.FileFunction,Plated,1,2,PTH
FMAT,2
INCH
T1C0.0118
T2C0.0197
T3C0.0354
T4C0.0394
T5C0.0591
T6C0.1260
%
G90
G05
T1
X2.687Y-2.563
X2.687Y-3.112
X2.687Y-3.237
X2.687Y-3.512
X2.687Y-4.263
X2.687Y-5.012
X2.687Y-5.738
X2.6995Y-2.4746
X2.7Y-2.425
X2.7Y-6.4759
X2.7Y-6.5
X2.7Y-6.525
X2.716Y-6.4327
X2.7289Y-2.5008
X2.7467Y-3.2251
X2.75Y-2.425
X2.75Y-6.45
X2.7514Y-6.3932
X2.7673Y-2.4923
X2.7821Y-2.8251
X2.7821Y-6.375
X2.7998Y-2.7046
X2.8Y-4.575
X2.8Y-5.325
X2.8054Y-3.3642
X2.8081Y-3.6331
X2.8175Y-4.3675
X2.8175Y-5.8675
X2.8222Y-2.4965
X2.8248Y-5.1174
X2.8248Y-6.0749
X2.825Y-3.4
X2.8331Y-3.8581
X2.85Y-2.525
X2.85Y-4.025
X2.85Y-4.775
X2.85Y-5.525
X2.85Y-6.275
X2.875Y-2.7
X2.9Y-2.55
X2.9Y-3.025
X2.9Y-3.25
X2.95Y-3.25
X2.9657Y-3.0907
X3.025Y-3.25
X3.025Y-3.475
X3.05Y-2.95
X3.05Y-4.175
X3.075Y-2.9
X3.075Y-3.075
X3.1Y-2.725
X3.1Y-3.25
X3.1014Y-3.075
X3.15Y-2.9
X3.175Y-3.25
X3.2Y-3.025
X3.2226Y-3.0961
X3.25Y-3.25
X3.25Y-4.375
X3.25Y-5.125
X3.2657Y-3.0907
X3.275Y-3.625
X3.275Y-6.625
X3.3Y-3.25
X3.3Y-5.875
X3.35Y-2.775
X3.35Y-3.075
X3.375Y-2.8
X3.375Y-3.375
X3.3778Y-4.2722
X3.4Y-2.45
X3.4Y-2.975
X3.4429Y-2.753
X3.4715Y-6.3971
X3.4943Y-2.6193
X3.5Y-6.425
X3.5222Y-4.2722
X3.525Y-2.575
X3.525Y-2.925
X3.525Y-3.275
X3.55Y-3.025
X3.55Y-3.6
X3.55Y-3.825
X3.55Y-4.575
X3.55Y-5.325
X3.55Y-6.075
X3.5675Y-4.3675
X3.5675Y-5.1175
X3.5675Y-5.8675
X3.575Y-2.625
X3.6Y-2.525
X3.6Y-2.95
X3.6Y-3.3
X3.6Y-4.025
X3.6Y-4.775
X3.6Y-5.525
X3.6Y-6.275
X3.6118Y-2.8368
X3.6124Y-3.1126
X3.625Y-6.3965
X3.6573Y-3.378
X3.675Y-6.425
X3.6766Y-2.7016
X3.6943Y-2.628
X3.7Y-3.35
X3.7Y-5.025
X3.7028Y-4.2722
X3.725Y-2.7472
X3.725Y-2.7736
X3.725Y-2.8
X3.725Y-2.8264
X3.725Y-3.275
X3.7415Y-2.7203
X3.75Y-2.525
X3.75Y-3.025
X3.775Y-3.025
X3.775Y-6.3
X3.8Y-2.575
X3.8Y-3.175
X3.8124Y-3.1124
X3.825Y-3.575
X3.8431Y-2.8181
X3.875Y-3.6
X3.878Y-2.722
X3.9Y-2.775
X3.9Y-4.275
X3.9Y-5.025
X3.9Y-5.775
X3.9006Y-3.1494
X3.9035Y-3.5715
X3.9211Y-2.9898
X3.925Y-3.25
X3.925Y-6.475
X3.95Y-3.025
X3.9623Y-2.6127
X3.975Y-2.95
X3.975Y-6.3
X4.0Y-3.625
X4.0Y-4.375
X4.0Y-5.125
X4.0Y-5.875
X4.0124Y-3.1126
X4.0138Y-2.8441
X4.0239Y-2.9059
X4.025Y-3.275
X4.025Y-3.5986
X4.025Y-6.475
X4.0499Y-2.9249
X4.0713Y-2.7463
X4.1Y-3.175
X4.1Y-6.025
X4.1Y-6.475
X4.1118Y-2.925
X4.125Y-2.95
X4.125Y-5.025
X4.125Y-6.3
X4.15Y-2.525
X4.15Y-3.025
X4.15Y-4.275
X4.15Y-5.775
X4.1709Y-3.3777
X4.175Y-2.45
X4.2Y-2.575
X4.2124Y-3.1124
X4.224Y-3.2352
X4.225Y-6.025
X4.225Y-6.4
X4.2428Y-2.6852
X4.2437Y-2.772
X4.2469Y-2.8473
X4.2488Y-2.821
X4.25Y-3.375
X4.25Y-6.3
X4.2531Y-2.447
X4.275Y-2.4
X4.2927Y-2.8073
X4.3Y-3.825
X4.3Y-4.575
X4.3Y-5.325
X4.3Y-6.075
X4.3175Y-3.6175
X4.3175Y-4.3675
X4.3175Y-5.1175
X4.3175Y-5.8675
X4.325Y-2.45
X4.3325Y-3.1309
X4.3325Y-3.1756
X4.35Y-3.025
X4.35Y-3.025
X4.35Y-3.4
X4.35Y-4.025
X4.35Y-4.775
X4.35Y-5.525
X4.35Y-6.275
X4.375Y-2.4
X4.375Y-2.575
X4.4Y-2.475
X4.4Y-3.4
X4.4035Y-5.8744
X4.4156Y-3.1089
X4.425Y-2.625
X4.425Y-6.4
X4.4259Y-3.2711
X4.4262Y-2.85
X4.475Y-2.2
X4.475Y-2.875
X4.4898Y-3.3733
X4.5Y-2.975
X4.5075Y-3.2523
X4.525Y-2.7404
X4.525Y-2.7667
X4.525Y-2.7931
X4.525Y-2.8195
X4.525Y-2.8459
X4.525Y-2.8722
X4.525Y-2.8986
X4.525Y-2.925
X4.55Y-2.525
X4.55Y-3.025
X4.575Y-2.4
X4.6Y-2.575
X4.6124Y-3.1124
X4.65Y-3.175
X4.675Y-3.15
X4.675Y-3.375
X4.675Y-3.6
X4.7Y-2.675
X4.7Y-2.725
X4.7Y-3.475
X4.7321Y-3.0274
X4.75Y-2.575
X4.775Y-3.625
X4.775Y-4.375
X4.775Y-5.125
X4.775Y-5.875
X4.8Y-2.7
X4.8Y-3.6
X4.8204Y-3.2767
X4.8219Y-2.9719
X4.825Y-4.175
X4.85Y-2.725
X4.85Y-3.425
X4.8598Y-3.304
X4.875Y-2.7
X4.8781Y-3.0281
X4.9Y-2.625
X4.925Y-2.7404
X4.925Y-2.7667
X4.925Y-2.7931
X4.925Y-2.8195
X4.925Y-2.8459
X4.925Y-2.8722
X4.925Y-2.8986
X4.925Y-2.925
X4.925Y-2.975
X4.925Y-5.1
X4.95Y-2.525
X4.95Y-5.875
X4.975Y-3.275
X4.975Y-3.375
X4.975Y-4.375
X5.0Y-2.575
X5.0Y-3.425
X5.0Y-5.125
X5.025Y-2.725
X5.05Y-3.025
X5.0677Y-2.5176
X5.075Y-2.9
X5.075Y-6.425
X5.0881Y-2.4613
X5.1Y-3.25
X5.1004Y-2.4239
X5.1061Y-2.5264
X5.125Y-2.675
X5.125Y-5.925
X5.125Y-6.4
X5.1461Y-2.9455
X5.1461Y-6.45
X5.15Y-2.425
X5.15Y-2.475
X5.175Y-2.575
X5.175Y-3.025
X5.175Y-3.825
X5.175Y-3.825
X5.175Y-4.575
X5.175Y-5.325
X5.175Y-6.075
X5.175Y-6.475
X5.175Y-6.5
X5.175Y-6.525
T2
X2.7305Y-2.225
X2.7305Y-6.7
X2.7582Y-2.1582
X2.7582Y-2.2918
X2.7582Y-6.6332
X2.7582Y-6.7668
X2.825Y-2.1305
X2.825Y-2.3195
X2.825Y-6.6055
X2.825Y-6.7945
X2.8918Y-2.1582
X2.8918Y-2.2918
X2.8918Y-6.6332
X2.8918Y-6.7668
X2.9195Y-2.225
X2.9195Y-6.7
X4.9305Y-2.225
X4.9305Y-6.7
X4.9582Y-2.1582
X4.9582Y-2.2918
X4.9582Y-6.6332
X4.9582Y-6.7668
X5.025Y-2.1305
X5.025Y-2.3195
X5.025Y-6.6055
X5.025Y-6.7945
X5.0918Y-2.1582
X5.0918Y-2.2918
X5.0918Y-6.6332
X5.0918Y-6.7668
X5.1195Y-2.225
X5.1195Y-6.7
T3
X3.125Y-3.925
X3.125Y-4.675
X3.125Y-5.425
X3.125Y-6.175
X3.225Y-3.925
X3.225Y-4.675
X3.225Y-5.425
X3.225Y-6.175
X3.875Y-3.925
X3.875Y-4.675
X3.875Y-5.425
X3.875Y-6.175
X3.975Y-3.925
X3.975Y-4.675
X3.975Y-5.425
X3.975Y-6.175
X4.625Y-3.925
X4.625Y-4.675
X4.625Y-5.425
X4.625Y-6.175
X4.725Y-3.925
X4.725Y-4.675
X4.725Y-5.425
X4.725Y-6.175
T4
X3.225Y-2.25
X3.225Y-2.35
X3.225Y-6.575
X3.225Y-6.675
X3.325Y-2.25
X3.325Y-2.35
X3.325Y-6.575
X3.325Y-6.675
X3.425Y-2.25
X3.425Y-2.35
X3.425Y-6.575
X3.425Y-6.675
X3.525Y-2.25
X3.525Y-2.35
X3.525Y-6.575
X3.525Y-6.675
X3.625Y-2.25
X3.625Y-2.35
X3.625Y-6.575
X3.625Y-6.675
X3.725Y-2.25
X3.725Y-2.35
X3.725Y-6.575
X3.725Y-6.675
X3.825Y-2.25
X3.825Y-2.35
X3.825Y-6.575
X3.825Y-6.675
X3.925Y-2.25
X3.925Y-2.35
X3.925Y-6.575
X3.925Y-6.675
X4.025Y-2.25
X4.025Y-2.35
X4.025Y-6.575
X4.025Y-6.675
X4.125Y-2.25
X4.125Y-2.35
X4.125Y-6.575
X4.125Y-6.675
X4.225Y-2.25
X4.225Y-2.35
X4.225Y-6.575
X4.225Y-6.675
X4.325Y-2.25
X4.325Y-2.35
X4.325Y-6.575
X4.325Y-6.675
X4.425Y-2.25
X4.425Y-2.35
X4.425Y-6.575
X4.425Y-6.675
X4.525Y-2.25
X4.525Y-2.35
X4.525Y-6.575
X4.525Y-6.675
X4.625Y-2.25
X4.625Y-2.35
X4.625Y-6.575
X4.625Y-6.675
T5
X3.025Y-3.625
X3.025Y-4.375
X3.025Y-5.125
X3.025Y-5.875
X3.275Y-3.525
X3.275Y-4.275
X3.275Y-5.025
X3.275Y-5.775
X3.775Y-3.625
X3.775Y-4.375
X3.775Y-5.125
X3.775Y-5.875
X4.025Y-3.525
X4.025Y-4.275
X4.025Y-5.025
X4.025Y-5.775
X4.525Y-3.625
X4.525Y-4.375
X4.525Y-5.125
X4.525Y-5.875
X4.775Y-3.525
X4.775Y-4.275
X4.775Y-5.025
X4.775Y-5.775
T6
X2.825Y-2.225
X2.825Y-6.7
X5.025Y-2.225
X5.025Y-6.7
T0
M30
