%TF.GenerationSoftware,KiCad,Pcbnew,(5.1.9)-1*%
%TF.CreationDate,2021-05-31T11:32:24+02:00*%
%TF.ProjectId,periph_numpad,70657269-7068-45f6-9e75-6d7061642e6b,v1.0*%
%TF.SameCoordinates,Original*%
%TF.FileFunction,Legend,Top*%
%TF.FilePolarity,Positive*%
%FSLAX46Y46*%
G04 Gerber Fmt 4.6, Leading zero omitted, Abs format (unit mm)*
G04 Created by KiCad (PCBNEW (5.1.9)-1) date 2021-05-31 11:32:24*
%MOMM*%
%LPD*%
G01*
G04 APERTURE LIST*
%ADD10C,0.250000*%
%ADD11C,0.750000*%
%ADD12C,0.120000*%
%ADD13C,0.150000*%
G04 APERTURE END LIST*
D10*
X127371428Y-83727857D02*
X126800000Y-83727857D01*
X126800000Y-82527857D01*
X124752142Y-83727857D02*
X124752142Y-82527857D01*
X124752142Y-83099285D02*
X125437857Y-83099285D01*
X125437857Y-83727857D02*
X125437857Y-82527857D01*
D11*
X69819285Y-67947142D02*
X69819285Y-64947142D01*
X71533571Y-67947142D01*
X71533571Y-64947142D01*
X74247857Y-65947142D02*
X74247857Y-67947142D01*
X72962142Y-65947142D02*
X72962142Y-67518571D01*
X73105000Y-67804285D01*
X73390714Y-67947142D01*
X73819285Y-67947142D01*
X74105000Y-67804285D01*
X74247857Y-67661428D01*
X75676428Y-67947142D02*
X75676428Y-65947142D01*
X75676428Y-66232857D02*
X75819285Y-66090000D01*
X76105000Y-65947142D01*
X76533571Y-65947142D01*
X76819285Y-66090000D01*
X76962142Y-66375714D01*
X76962142Y-67947142D01*
X76962142Y-66375714D02*
X77105000Y-66090000D01*
X77390714Y-65947142D01*
X77819285Y-65947142D01*
X78105000Y-66090000D01*
X78247857Y-66375714D01*
X78247857Y-67947142D01*
X79676428Y-65947142D02*
X79676428Y-68947142D01*
X79676428Y-66090000D02*
X79962142Y-65947142D01*
X80533571Y-65947142D01*
X80819285Y-66090000D01*
X80962142Y-66232857D01*
X81105000Y-66518571D01*
X81105000Y-67375714D01*
X80962142Y-67661428D01*
X80819285Y-67804285D01*
X80533571Y-67947142D01*
X79962142Y-67947142D01*
X79676428Y-67804285D01*
X83676428Y-67947142D02*
X83676428Y-66375714D01*
X83533571Y-66090000D01*
X83247857Y-65947142D01*
X82676428Y-65947142D01*
X82390714Y-66090000D01*
X83676428Y-67804285D02*
X83390714Y-67947142D01*
X82676428Y-67947142D01*
X82390714Y-67804285D01*
X82247857Y-67518571D01*
X82247857Y-67232857D01*
X82390714Y-66947142D01*
X82676428Y-66804285D01*
X83390714Y-66804285D01*
X83676428Y-66661428D01*
X86390714Y-67947142D02*
X86390714Y-64947142D01*
X86390714Y-67804285D02*
X86105000Y-67947142D01*
X85533571Y-67947142D01*
X85247857Y-67804285D01*
X85105000Y-67661428D01*
X84962142Y-67375714D01*
X84962142Y-66518571D01*
X85105000Y-66232857D01*
X85247857Y-66090000D01*
X85533571Y-65947142D01*
X86105000Y-65947142D01*
X86390714Y-66090000D01*
X70962142Y-73197142D02*
X70962142Y-70197142D01*
X72105000Y-70197142D01*
X72390714Y-70340000D01*
X72533571Y-70482857D01*
X72676428Y-70768571D01*
X72676428Y-71197142D01*
X72533571Y-71482857D01*
X72390714Y-71625714D01*
X72105000Y-71768571D01*
X70962142Y-71768571D01*
X75105000Y-73054285D02*
X74819285Y-73197142D01*
X74247857Y-73197142D01*
X73962142Y-73054285D01*
X73819285Y-72768571D01*
X73819285Y-71625714D01*
X73962142Y-71340000D01*
X74247857Y-71197142D01*
X74819285Y-71197142D01*
X75105000Y-71340000D01*
X75247857Y-71625714D01*
X75247857Y-71911428D01*
X73819285Y-72197142D01*
X76533571Y-73197142D02*
X76533571Y-71197142D01*
X76533571Y-71768571D02*
X76676428Y-71482857D01*
X76819285Y-71340000D01*
X77105000Y-71197142D01*
X77390714Y-71197142D01*
X78390714Y-73197142D02*
X78390714Y-71197142D01*
X78390714Y-70197142D02*
X78247857Y-70340000D01*
X78390714Y-70482857D01*
X78533571Y-70340000D01*
X78390714Y-70197142D01*
X78390714Y-70482857D01*
X79819285Y-71197142D02*
X79819285Y-74197142D01*
X79819285Y-71340000D02*
X80105000Y-71197142D01*
X80676428Y-71197142D01*
X80962142Y-71340000D01*
X81105000Y-71482857D01*
X81247857Y-71768571D01*
X81247857Y-72625714D01*
X81105000Y-72911428D01*
X80962142Y-73054285D01*
X80676428Y-73197142D01*
X80105000Y-73197142D01*
X79819285Y-73054285D01*
X82533571Y-73197142D02*
X82533571Y-70197142D01*
X83819285Y-73197142D02*
X83819285Y-71625714D01*
X83676428Y-71340000D01*
X83390714Y-71197142D01*
X82962142Y-71197142D01*
X82676428Y-71340000D01*
X82533571Y-71482857D01*
X85247857Y-72911428D02*
X85390714Y-73054285D01*
X85247857Y-73197142D01*
X85105000Y-73054285D01*
X85247857Y-72911428D01*
X85247857Y-73197142D01*
D10*
X77540000Y-83385000D02*
X78111428Y-83385000D01*
X77425714Y-83727857D02*
X77825714Y-82527857D01*
X78225714Y-83727857D01*
X79140000Y-83727857D02*
X79140000Y-82527857D01*
X79140000Y-83670714D02*
X79025714Y-83727857D01*
X78797142Y-83727857D01*
X78682857Y-83670714D01*
X78625714Y-83613571D01*
X78568571Y-83499285D01*
X78568571Y-83156428D01*
X78625714Y-83042142D01*
X78682857Y-82985000D01*
X78797142Y-82927857D01*
X79025714Y-82927857D01*
X79140000Y-82985000D01*
X79711428Y-83727857D02*
X79711428Y-82927857D01*
X79711428Y-83156428D02*
X79768571Y-83042142D01*
X79825714Y-82985000D01*
X79940000Y-82927857D01*
X80054285Y-82927857D01*
X84797857Y-83727857D02*
X84112142Y-83727857D01*
X84455000Y-83727857D02*
X84455000Y-82527857D01*
X84340714Y-82699285D01*
X84226428Y-82813571D01*
X84112142Y-82870714D01*
X72625000Y-82527857D02*
X73425000Y-82527857D01*
X72910714Y-83727857D01*
D12*
%TO.C,U1*%
X93345000Y-73590000D02*
X95545000Y-73590000D01*
X93345000Y-73590000D02*
X91145000Y-73590000D01*
X93345000Y-68120000D02*
X95545000Y-68120000D01*
X93345000Y-68120000D02*
X89745000Y-68120000D01*
%TO.C,R33*%
X125617500Y-77232742D02*
X125617500Y-77707258D01*
X124572500Y-77232742D02*
X124572500Y-77707258D01*
%TO.C,R32*%
X127522500Y-77232742D02*
X127522500Y-77707258D01*
X126477500Y-77232742D02*
X126477500Y-77707258D01*
%TO.C,U10*%
X115505000Y-81805000D02*
X116905000Y-81805000D01*
X116905000Y-79485000D02*
X115005000Y-79485000D01*
%TO.C,C10*%
X116064420Y-77595000D02*
X116345580Y-77595000D01*
X116064420Y-78615000D02*
X116345580Y-78615000D01*
%TO.C,R7*%
X72502500Y-80882258D02*
X72502500Y-80407742D01*
X73547500Y-80882258D02*
X73547500Y-80407742D01*
%TO.C,R6*%
X74407500Y-80882258D02*
X74407500Y-80407742D01*
X75452500Y-80882258D02*
X75452500Y-80407742D01*
%TO.C,R5*%
X76312500Y-80882258D02*
X76312500Y-80407742D01*
X77357500Y-80882258D02*
X77357500Y-80407742D01*
%TO.C,R4*%
X78217500Y-80882258D02*
X78217500Y-80407742D01*
X79262500Y-80882258D02*
X79262500Y-80407742D01*
%TO.C,R3*%
X80122500Y-80882258D02*
X80122500Y-80407742D01*
X81167500Y-80882258D02*
X81167500Y-80407742D01*
%TO.C,R2*%
X82027500Y-80882258D02*
X82027500Y-80407742D01*
X83072500Y-80882258D02*
X83072500Y-80407742D01*
%TO.C,R1*%
X83932500Y-80882258D02*
X83932500Y-80407742D01*
X84977500Y-80882258D02*
X84977500Y-80407742D01*
%TO.C,D14*%
X124410000Y-79845000D02*
X124410000Y-82130000D01*
X124410000Y-82130000D02*
X125880000Y-82130000D01*
X125880000Y-82130000D02*
X125880000Y-79845000D01*
%TO.C,D13*%
X126265000Y-79845000D02*
X126265000Y-82130000D01*
X126265000Y-82130000D02*
X127735000Y-82130000D01*
X127735000Y-82130000D02*
X127735000Y-79845000D01*
%TO.C,U9*%
X113665000Y-74890000D02*
X115865000Y-74890000D01*
X113665000Y-74890000D02*
X111465000Y-74890000D01*
X113665000Y-68120000D02*
X115865000Y-68120000D01*
X113665000Y-68120000D02*
X110065000Y-68120000D01*
%TO.C,U8*%
X123502500Y-74890000D02*
X125702500Y-74890000D01*
X123502500Y-74890000D02*
X121302500Y-74890000D01*
X123502500Y-68120000D02*
X125702500Y-68120000D01*
X123502500Y-68120000D02*
X119902500Y-68120000D01*
%TO.C,U7*%
X96585000Y-79485000D02*
X94685000Y-79485000D01*
X95185000Y-81805000D02*
X96585000Y-81805000D01*
%TO.C,U6*%
X91505000Y-79485000D02*
X89605000Y-79485000D01*
X90105000Y-81805000D02*
X91505000Y-81805000D01*
%TO.C,U5*%
X111825000Y-79485000D02*
X109925000Y-79485000D01*
X110425000Y-81805000D02*
X111825000Y-81805000D01*
%TO.C,U4*%
X101665000Y-79485000D02*
X99765000Y-79485000D01*
X100265000Y-81805000D02*
X101665000Y-81805000D01*
%TO.C,U3*%
X106745000Y-79485000D02*
X104845000Y-79485000D01*
X105345000Y-81805000D02*
X106745000Y-81805000D01*
%TO.C,U2*%
X103505000Y-73590000D02*
X105705000Y-73590000D01*
X103505000Y-73590000D02*
X101305000Y-73590000D01*
X103505000Y-68120000D02*
X105705000Y-68120000D01*
X103505000Y-68120000D02*
X99905000Y-68120000D01*
%TO.C,SW12*%
X111760000Y-144780000D02*
X125730000Y-144780000D01*
X125730000Y-144780000D02*
X125730000Y-158750000D01*
X125730000Y-158750000D02*
X111760000Y-158750000D01*
X111760000Y-158750000D02*
X111760000Y-144780000D01*
%TO.C,SW11*%
X111760000Y-125730000D02*
X125730000Y-125730000D01*
X125730000Y-125730000D02*
X125730000Y-139700000D01*
X125730000Y-139700000D02*
X111760000Y-139700000D01*
X111760000Y-139700000D02*
X111760000Y-125730000D01*
%TO.C,SW10*%
X92710000Y-125730000D02*
X106680000Y-125730000D01*
X106680000Y-125730000D02*
X106680000Y-139700000D01*
X106680000Y-139700000D02*
X92710000Y-139700000D01*
X92710000Y-139700000D02*
X92710000Y-125730000D01*
%TO.C,SW9*%
X73660000Y-125730000D02*
X87630000Y-125730000D01*
X87630000Y-125730000D02*
X87630000Y-139700000D01*
X87630000Y-139700000D02*
X73660000Y-139700000D01*
X73660000Y-139700000D02*
X73660000Y-125730000D01*
%TO.C,SW8*%
X111760000Y-106680000D02*
X125730000Y-106680000D01*
X125730000Y-106680000D02*
X125730000Y-120650000D01*
X125730000Y-120650000D02*
X111760000Y-120650000D01*
X111760000Y-120650000D02*
X111760000Y-106680000D01*
%TO.C,SW7*%
X92710000Y-106680000D02*
X106680000Y-106680000D01*
X106680000Y-106680000D02*
X106680000Y-120650000D01*
X106680000Y-120650000D02*
X92710000Y-120650000D01*
X92710000Y-120650000D02*
X92710000Y-106680000D01*
%TO.C,SW6*%
X73660000Y-106680000D02*
X87630000Y-106680000D01*
X87630000Y-106680000D02*
X87630000Y-120650000D01*
X87630000Y-120650000D02*
X73660000Y-120650000D01*
X73660000Y-120650000D02*
X73660000Y-106680000D01*
%TO.C,SW5*%
X111760000Y-87630000D02*
X125730000Y-87630000D01*
X125730000Y-87630000D02*
X125730000Y-101600000D01*
X125730000Y-101600000D02*
X111760000Y-101600000D01*
X111760000Y-101600000D02*
X111760000Y-87630000D01*
%TO.C,SW4*%
X92710000Y-87630000D02*
X106680000Y-87630000D01*
X106680000Y-87630000D02*
X106680000Y-101600000D01*
X106680000Y-101600000D02*
X92710000Y-101600000D01*
X92710000Y-101600000D02*
X92710000Y-87630000D01*
%TO.C,SW3*%
X73660000Y-87630000D02*
X87630000Y-87630000D01*
X87630000Y-87630000D02*
X87630000Y-101600000D01*
X87630000Y-101600000D02*
X73660000Y-101600000D01*
X73660000Y-101600000D02*
X73660000Y-87630000D01*
%TO.C,SW2*%
X92710000Y-144780000D02*
X106680000Y-144780000D01*
X106680000Y-144780000D02*
X106680000Y-158750000D01*
X106680000Y-158750000D02*
X92710000Y-158750000D01*
X92710000Y-158750000D02*
X92710000Y-144780000D01*
%TO.C,SW1*%
X73660000Y-144780000D02*
X87630000Y-144780000D01*
X87630000Y-144780000D02*
X87630000Y-158750000D01*
X87630000Y-158750000D02*
X73660000Y-158750000D01*
X73660000Y-158750000D02*
X73660000Y-144780000D01*
%TO.C,RN2*%
X73250000Y-76335000D02*
X73250000Y-77335000D01*
X76610000Y-76335000D02*
X76610000Y-77335000D01*
%TO.C,RN1*%
X80870000Y-76335000D02*
X80870000Y-77335000D01*
X84230000Y-76335000D02*
X84230000Y-77335000D01*
%TO.C,R31*%
X111012500Y-149622742D02*
X111012500Y-150097258D01*
X109967500Y-149622742D02*
X109967500Y-150097258D01*
%TO.C,R30*%
X109967500Y-156447258D02*
X109967500Y-155972742D01*
X111012500Y-156447258D02*
X111012500Y-155972742D01*
%TO.C,R29*%
X111012500Y-130572742D02*
X111012500Y-131047258D01*
X109967500Y-130572742D02*
X109967500Y-131047258D01*
%TO.C,R28*%
X109967500Y-137397258D02*
X109967500Y-136922742D01*
X111012500Y-137397258D02*
X111012500Y-136922742D01*
%TO.C,R27*%
X91962500Y-130572742D02*
X91962500Y-131047258D01*
X90917500Y-130572742D02*
X90917500Y-131047258D01*
%TO.C,R26*%
X90917500Y-137397258D02*
X90917500Y-136922742D01*
X91962500Y-137397258D02*
X91962500Y-136922742D01*
%TO.C,R25*%
X72912500Y-130572742D02*
X72912500Y-131047258D01*
X71867500Y-130572742D02*
X71867500Y-131047258D01*
%TO.C,R24*%
X71867500Y-137397258D02*
X71867500Y-136922742D01*
X72912500Y-137397258D02*
X72912500Y-136922742D01*
%TO.C,R23*%
X111012500Y-111522742D02*
X111012500Y-111997258D01*
X109967500Y-111522742D02*
X109967500Y-111997258D01*
%TO.C,R22*%
X109967500Y-118347258D02*
X109967500Y-117872742D01*
X111012500Y-118347258D02*
X111012500Y-117872742D01*
%TO.C,R21*%
X91962500Y-111522742D02*
X91962500Y-111997258D01*
X90917500Y-111522742D02*
X90917500Y-111997258D01*
%TO.C,R20*%
X90917500Y-118347258D02*
X90917500Y-117872742D01*
X91962500Y-118347258D02*
X91962500Y-117872742D01*
%TO.C,R19*%
X72912500Y-111522742D02*
X72912500Y-111997258D01*
X71867500Y-111522742D02*
X71867500Y-111997258D01*
%TO.C,R18*%
X71867500Y-118347258D02*
X71867500Y-117872742D01*
X72912500Y-118347258D02*
X72912500Y-117872742D01*
%TO.C,R17*%
X111012500Y-92472742D02*
X111012500Y-92947258D01*
X109967500Y-92472742D02*
X109967500Y-92947258D01*
%TO.C,R16*%
X109967500Y-99297258D02*
X109967500Y-98822742D01*
X111012500Y-99297258D02*
X111012500Y-98822742D01*
%TO.C,R15*%
X91962500Y-92472742D02*
X91962500Y-92947258D01*
X90917500Y-92472742D02*
X90917500Y-92947258D01*
%TO.C,R14*%
X90917500Y-99297258D02*
X90917500Y-98822742D01*
X91962500Y-99297258D02*
X91962500Y-98822742D01*
%TO.C,R13*%
X72912500Y-92472742D02*
X72912500Y-92947258D01*
X71867500Y-92472742D02*
X71867500Y-92947258D01*
%TO.C,R12*%
X71867500Y-99297258D02*
X71867500Y-98822742D01*
X72912500Y-99297258D02*
X72912500Y-98822742D01*
%TO.C,R11*%
X91962500Y-149622742D02*
X91962500Y-150097258D01*
X90917500Y-149622742D02*
X90917500Y-150097258D01*
%TO.C,R10*%
X90917500Y-156447258D02*
X90917500Y-155972742D01*
X91962500Y-156447258D02*
X91962500Y-155972742D01*
%TO.C,R9*%
X72912500Y-149622742D02*
X72912500Y-150097258D01*
X71867500Y-149622742D02*
X71867500Y-150097258D01*
%TO.C,R8*%
X71867500Y-156447258D02*
X71867500Y-155972742D01*
X72912500Y-156447258D02*
X72912500Y-155972742D01*
%TO.C,J2*%
X76705000Y-172835000D02*
X76705000Y-163715000D01*
X76705000Y-163715000D02*
X122685000Y-163715000D01*
X122685000Y-163715000D02*
X122685000Y-172835000D01*
X122685000Y-172835000D02*
X76705000Y-172835000D01*
X97645000Y-172835000D02*
X97645000Y-171525000D01*
X97645000Y-171525000D02*
X78005000Y-171525000D01*
X78005000Y-171525000D02*
X78005000Y-165025000D01*
X78005000Y-165025000D02*
X121385000Y-165025000D01*
X121385000Y-165025000D02*
X121385000Y-171525000D01*
X121385000Y-171525000D02*
X101745000Y-171525000D01*
X101745000Y-171525000D02*
X101745000Y-171525000D01*
X101745000Y-171525000D02*
X101745000Y-172835000D01*
X81915000Y-173225000D02*
X81415000Y-174225000D01*
X81415000Y-174225000D02*
X82415000Y-174225000D01*
X82415000Y-174225000D02*
X81915000Y-173225000D01*
%TO.C,J1*%
X76705000Y-62980000D02*
X76705000Y-53860000D01*
X76705000Y-53860000D02*
X122685000Y-53860000D01*
X122685000Y-53860000D02*
X122685000Y-62980000D01*
X122685000Y-62980000D02*
X76705000Y-62980000D01*
X97645000Y-62980000D02*
X97645000Y-61670000D01*
X97645000Y-61670000D02*
X78005000Y-61670000D01*
X78005000Y-61670000D02*
X78005000Y-55170000D01*
X78005000Y-55170000D02*
X121385000Y-55170000D01*
X121385000Y-55170000D02*
X121385000Y-61670000D01*
X121385000Y-61670000D02*
X101745000Y-61670000D01*
X101745000Y-61670000D02*
X101745000Y-61670000D01*
X101745000Y-61670000D02*
X101745000Y-62980000D01*
X81915000Y-63370000D02*
X81415000Y-64370000D01*
X81415000Y-64370000D02*
X82415000Y-64370000D01*
X82415000Y-64370000D02*
X81915000Y-63370000D01*
%TO.C,D12*%
X117185000Y-155609000D02*
X117185000Y-155765000D01*
X117185000Y-157925000D02*
X117185000Y-158081000D01*
X119786130Y-157924837D02*
G75*
G02*
X117704039Y-157925000I-1041130J1079837D01*
G01*
X119786130Y-155765163D02*
G75*
G03*
X117704039Y-155765000I-1041130J-1079837D01*
G01*
X120417335Y-157923608D02*
G75*
G02*
X117185000Y-158080516I-1672335J1078608D01*
G01*
X120417335Y-155766392D02*
G75*
G03*
X117185000Y-155609484I-1672335J-1078608D01*
G01*
%TO.C,D11*%
X117185000Y-136559000D02*
X117185000Y-136715000D01*
X117185000Y-138875000D02*
X117185000Y-139031000D01*
X119786130Y-138874837D02*
G75*
G02*
X117704039Y-138875000I-1041130J1079837D01*
G01*
X119786130Y-136715163D02*
G75*
G03*
X117704039Y-136715000I-1041130J-1079837D01*
G01*
X120417335Y-138873608D02*
G75*
G02*
X117185000Y-139030516I-1672335J1078608D01*
G01*
X120417335Y-136716392D02*
G75*
G03*
X117185000Y-136559484I-1672335J-1078608D01*
G01*
%TO.C,D10*%
X98135000Y-136559000D02*
X98135000Y-136715000D01*
X98135000Y-138875000D02*
X98135000Y-139031000D01*
X100736130Y-138874837D02*
G75*
G02*
X98654039Y-138875000I-1041130J1079837D01*
G01*
X100736130Y-136715163D02*
G75*
G03*
X98654039Y-136715000I-1041130J-1079837D01*
G01*
X101367335Y-138873608D02*
G75*
G02*
X98135000Y-139030516I-1672335J1078608D01*
G01*
X101367335Y-136716392D02*
G75*
G03*
X98135000Y-136559484I-1672335J-1078608D01*
G01*
%TO.C,D9*%
X79085000Y-136559000D02*
X79085000Y-136715000D01*
X79085000Y-138875000D02*
X79085000Y-139031000D01*
X81686130Y-138874837D02*
G75*
G02*
X79604039Y-138875000I-1041130J1079837D01*
G01*
X81686130Y-136715163D02*
G75*
G03*
X79604039Y-136715000I-1041130J-1079837D01*
G01*
X82317335Y-138873608D02*
G75*
G02*
X79085000Y-139030516I-1672335J1078608D01*
G01*
X82317335Y-136716392D02*
G75*
G03*
X79085000Y-136559484I-1672335J-1078608D01*
G01*
%TO.C,D8*%
X117185000Y-117509000D02*
X117185000Y-117665000D01*
X117185000Y-119825000D02*
X117185000Y-119981000D01*
X119786130Y-119824837D02*
G75*
G02*
X117704039Y-119825000I-1041130J1079837D01*
G01*
X119786130Y-117665163D02*
G75*
G03*
X117704039Y-117665000I-1041130J-1079837D01*
G01*
X120417335Y-119823608D02*
G75*
G02*
X117185000Y-119980516I-1672335J1078608D01*
G01*
X120417335Y-117666392D02*
G75*
G03*
X117185000Y-117509484I-1672335J-1078608D01*
G01*
%TO.C,D7*%
X98135000Y-117509000D02*
X98135000Y-117665000D01*
X98135000Y-119825000D02*
X98135000Y-119981000D01*
X100736130Y-119824837D02*
G75*
G02*
X98654039Y-119825000I-1041130J1079837D01*
G01*
X100736130Y-117665163D02*
G75*
G03*
X98654039Y-117665000I-1041130J-1079837D01*
G01*
X101367335Y-119823608D02*
G75*
G02*
X98135000Y-119980516I-1672335J1078608D01*
G01*
X101367335Y-117666392D02*
G75*
G03*
X98135000Y-117509484I-1672335J-1078608D01*
G01*
%TO.C,D6*%
X79085000Y-117509000D02*
X79085000Y-117665000D01*
X79085000Y-119825000D02*
X79085000Y-119981000D01*
X81686130Y-119824837D02*
G75*
G02*
X79604039Y-119825000I-1041130J1079837D01*
G01*
X81686130Y-117665163D02*
G75*
G03*
X79604039Y-117665000I-1041130J-1079837D01*
G01*
X82317335Y-119823608D02*
G75*
G02*
X79085000Y-119980516I-1672335J1078608D01*
G01*
X82317335Y-117666392D02*
G75*
G03*
X79085000Y-117509484I-1672335J-1078608D01*
G01*
%TO.C,D5*%
X117185000Y-98459000D02*
X117185000Y-98615000D01*
X117185000Y-100775000D02*
X117185000Y-100931000D01*
X119786130Y-100774837D02*
G75*
G02*
X117704039Y-100775000I-1041130J1079837D01*
G01*
X119786130Y-98615163D02*
G75*
G03*
X117704039Y-98615000I-1041130J-1079837D01*
G01*
X120417335Y-100773608D02*
G75*
G02*
X117185000Y-100930516I-1672335J1078608D01*
G01*
X120417335Y-98616392D02*
G75*
G03*
X117185000Y-98459484I-1672335J-1078608D01*
G01*
%TO.C,D4*%
X98135000Y-98459000D02*
X98135000Y-98615000D01*
X98135000Y-100775000D02*
X98135000Y-100931000D01*
X100736130Y-100774837D02*
G75*
G02*
X98654039Y-100775000I-1041130J1079837D01*
G01*
X100736130Y-98615163D02*
G75*
G03*
X98654039Y-98615000I-1041130J-1079837D01*
G01*
X101367335Y-100773608D02*
G75*
G02*
X98135000Y-100930516I-1672335J1078608D01*
G01*
X101367335Y-98616392D02*
G75*
G03*
X98135000Y-98459484I-1672335J-1078608D01*
G01*
%TO.C,D3*%
X79085000Y-98459000D02*
X79085000Y-98615000D01*
X79085000Y-100775000D02*
X79085000Y-100931000D01*
X81686130Y-100774837D02*
G75*
G02*
X79604039Y-100775000I-1041130J1079837D01*
G01*
X81686130Y-98615163D02*
G75*
G03*
X79604039Y-98615000I-1041130J-1079837D01*
G01*
X82317335Y-100773608D02*
G75*
G02*
X79085000Y-100930516I-1672335J1078608D01*
G01*
X82317335Y-98616392D02*
G75*
G03*
X79085000Y-98459484I-1672335J-1078608D01*
G01*
%TO.C,D2*%
X98135000Y-155609000D02*
X98135000Y-155765000D01*
X98135000Y-157925000D02*
X98135000Y-158081000D01*
X100736130Y-157924837D02*
G75*
G02*
X98654039Y-157925000I-1041130J1079837D01*
G01*
X100736130Y-155765163D02*
G75*
G03*
X98654039Y-155765000I-1041130J-1079837D01*
G01*
X101367335Y-157923608D02*
G75*
G02*
X98135000Y-158080516I-1672335J1078608D01*
G01*
X101367335Y-155766392D02*
G75*
G03*
X98135000Y-155609484I-1672335J-1078608D01*
G01*
%TO.C,D1*%
X79085000Y-155609000D02*
X79085000Y-155765000D01*
X79085000Y-157925000D02*
X79085000Y-158081000D01*
X81686130Y-157924837D02*
G75*
G02*
X79604039Y-157925000I-1041130J1079837D01*
G01*
X81686130Y-155765163D02*
G75*
G03*
X79604039Y-155765000I-1041130J-1079837D01*
G01*
X82317335Y-157923608D02*
G75*
G02*
X79085000Y-158080516I-1672335J1078608D01*
G01*
X82317335Y-155766392D02*
G75*
G03*
X79085000Y-155609484I-1672335J-1078608D01*
G01*
%TO.C,C9*%
X116064420Y-67185000D02*
X116345580Y-67185000D01*
X116064420Y-66165000D02*
X116345580Y-66165000D01*
%TO.C,C8*%
X126224420Y-67185000D02*
X126505580Y-67185000D01*
X126224420Y-66165000D02*
X126505580Y-66165000D01*
%TO.C,C7*%
X95744420Y-78615000D02*
X96025580Y-78615000D01*
X95744420Y-77595000D02*
X96025580Y-77595000D01*
%TO.C,C6*%
X90664420Y-78615000D02*
X90945580Y-78615000D01*
X90664420Y-77595000D02*
X90945580Y-77595000D01*
%TO.C,C5*%
X110984420Y-78615000D02*
X111265580Y-78615000D01*
X110984420Y-77595000D02*
X111265580Y-77595000D01*
%TO.C,C4*%
X100824420Y-78615000D02*
X101105580Y-78615000D01*
X100824420Y-77595000D02*
X101105580Y-77595000D01*
%TO.C,C3*%
X105904420Y-78615000D02*
X106185580Y-78615000D01*
X105904420Y-77595000D02*
X106185580Y-77595000D01*
%TO.C,C2*%
X105904420Y-67185000D02*
X106185580Y-67185000D01*
X105904420Y-66165000D02*
X106185580Y-66165000D01*
%TO.C,C1*%
X95744420Y-67185000D02*
X96025580Y-67185000D01*
X95744420Y-66165000D02*
X96025580Y-66165000D01*
%TO.C,U1*%
D13*
X89408095Y-66762380D02*
X89408095Y-67571904D01*
X89455714Y-67667142D01*
X89503333Y-67714761D01*
X89598571Y-67762380D01*
X89789047Y-67762380D01*
X89884285Y-67714761D01*
X89931904Y-67667142D01*
X89979523Y-67571904D01*
X89979523Y-66762380D01*
X90979523Y-67762380D02*
X90408095Y-67762380D01*
X90693809Y-67762380D02*
X90693809Y-66762380D01*
X90598571Y-66905238D01*
X90503333Y-67000476D01*
X90408095Y-67048095D01*
%TO.C,U10*%
X114966904Y-81967380D02*
X114966904Y-82776904D01*
X115014523Y-82872142D01*
X115062142Y-82919761D01*
X115157380Y-82967380D01*
X115347857Y-82967380D01*
X115443095Y-82919761D01*
X115490714Y-82872142D01*
X115538333Y-82776904D01*
X115538333Y-81967380D01*
X116538333Y-82967380D02*
X115966904Y-82967380D01*
X116252619Y-82967380D02*
X116252619Y-81967380D01*
X116157380Y-82110238D01*
X116062142Y-82205476D01*
X115966904Y-82253095D01*
X117157380Y-81967380D02*
X117252619Y-81967380D01*
X117347857Y-82015000D01*
X117395476Y-82062619D01*
X117443095Y-82157857D01*
X117490714Y-82348333D01*
X117490714Y-82586428D01*
X117443095Y-82776904D01*
X117395476Y-82872142D01*
X117347857Y-82919761D01*
X117252619Y-82967380D01*
X117157380Y-82967380D01*
X117062142Y-82919761D01*
X117014523Y-82872142D01*
X116966904Y-82776904D01*
X116919285Y-82586428D01*
X116919285Y-82348333D01*
X116966904Y-82157857D01*
X117014523Y-82062619D01*
X117062142Y-82015000D01*
X117157380Y-81967380D01*
%TO.C,U9*%
X109728095Y-66757380D02*
X109728095Y-67566904D01*
X109775714Y-67662142D01*
X109823333Y-67709761D01*
X109918571Y-67757380D01*
X110109047Y-67757380D01*
X110204285Y-67709761D01*
X110251904Y-67662142D01*
X110299523Y-67566904D01*
X110299523Y-66757380D01*
X110823333Y-67757380D02*
X111013809Y-67757380D01*
X111109047Y-67709761D01*
X111156666Y-67662142D01*
X111251904Y-67519285D01*
X111299523Y-67328809D01*
X111299523Y-66947857D01*
X111251904Y-66852619D01*
X111204285Y-66805000D01*
X111109047Y-66757380D01*
X110918571Y-66757380D01*
X110823333Y-66805000D01*
X110775714Y-66852619D01*
X110728095Y-66947857D01*
X110728095Y-67185952D01*
X110775714Y-67281190D01*
X110823333Y-67328809D01*
X110918571Y-67376428D01*
X111109047Y-67376428D01*
X111204285Y-67328809D01*
X111251904Y-67281190D01*
X111299523Y-67185952D01*
%TO.C,U8*%
X119888095Y-66762380D02*
X119888095Y-67571904D01*
X119935714Y-67667142D01*
X119983333Y-67714761D01*
X120078571Y-67762380D01*
X120269047Y-67762380D01*
X120364285Y-67714761D01*
X120411904Y-67667142D01*
X120459523Y-67571904D01*
X120459523Y-66762380D01*
X121078571Y-67190952D02*
X120983333Y-67143333D01*
X120935714Y-67095714D01*
X120888095Y-67000476D01*
X120888095Y-66952857D01*
X120935714Y-66857619D01*
X120983333Y-66810000D01*
X121078571Y-66762380D01*
X121269047Y-66762380D01*
X121364285Y-66810000D01*
X121411904Y-66857619D01*
X121459523Y-66952857D01*
X121459523Y-67000476D01*
X121411904Y-67095714D01*
X121364285Y-67143333D01*
X121269047Y-67190952D01*
X121078571Y-67190952D01*
X120983333Y-67238571D01*
X120935714Y-67286190D01*
X120888095Y-67381428D01*
X120888095Y-67571904D01*
X120935714Y-67667142D01*
X120983333Y-67714761D01*
X121078571Y-67762380D01*
X121269047Y-67762380D01*
X121364285Y-67714761D01*
X121411904Y-67667142D01*
X121459523Y-67571904D01*
X121459523Y-67381428D01*
X121411904Y-67286190D01*
X121364285Y-67238571D01*
X121269047Y-67190952D01*
%TO.C,U7*%
X95123095Y-82002380D02*
X95123095Y-82811904D01*
X95170714Y-82907142D01*
X95218333Y-82954761D01*
X95313571Y-83002380D01*
X95504047Y-83002380D01*
X95599285Y-82954761D01*
X95646904Y-82907142D01*
X95694523Y-82811904D01*
X95694523Y-82002380D01*
X96075476Y-82002380D02*
X96742142Y-82002380D01*
X96313571Y-83002380D01*
%TO.C,U6*%
X90043095Y-82002380D02*
X90043095Y-82811904D01*
X90090714Y-82907142D01*
X90138333Y-82954761D01*
X90233571Y-83002380D01*
X90424047Y-83002380D01*
X90519285Y-82954761D01*
X90566904Y-82907142D01*
X90614523Y-82811904D01*
X90614523Y-82002380D01*
X91519285Y-82002380D02*
X91328809Y-82002380D01*
X91233571Y-82050000D01*
X91185952Y-82097619D01*
X91090714Y-82240476D01*
X91043095Y-82430952D01*
X91043095Y-82811904D01*
X91090714Y-82907142D01*
X91138333Y-82954761D01*
X91233571Y-83002380D01*
X91424047Y-83002380D01*
X91519285Y-82954761D01*
X91566904Y-82907142D01*
X91614523Y-82811904D01*
X91614523Y-82573809D01*
X91566904Y-82478571D01*
X91519285Y-82430952D01*
X91424047Y-82383333D01*
X91233571Y-82383333D01*
X91138333Y-82430952D01*
X91090714Y-82478571D01*
X91043095Y-82573809D01*
%TO.C,U5*%
X110363095Y-82002380D02*
X110363095Y-82811904D01*
X110410714Y-82907142D01*
X110458333Y-82954761D01*
X110553571Y-83002380D01*
X110744047Y-83002380D01*
X110839285Y-82954761D01*
X110886904Y-82907142D01*
X110934523Y-82811904D01*
X110934523Y-82002380D01*
X111886904Y-82002380D02*
X111410714Y-82002380D01*
X111363095Y-82478571D01*
X111410714Y-82430952D01*
X111505952Y-82383333D01*
X111744047Y-82383333D01*
X111839285Y-82430952D01*
X111886904Y-82478571D01*
X111934523Y-82573809D01*
X111934523Y-82811904D01*
X111886904Y-82907142D01*
X111839285Y-82954761D01*
X111744047Y-83002380D01*
X111505952Y-83002380D01*
X111410714Y-82954761D01*
X111363095Y-82907142D01*
%TO.C,U4*%
X100203095Y-82002380D02*
X100203095Y-82811904D01*
X100250714Y-82907142D01*
X100298333Y-82954761D01*
X100393571Y-83002380D01*
X100584047Y-83002380D01*
X100679285Y-82954761D01*
X100726904Y-82907142D01*
X100774523Y-82811904D01*
X100774523Y-82002380D01*
X101679285Y-82335714D02*
X101679285Y-83002380D01*
X101441190Y-81954761D02*
X101203095Y-82669047D01*
X101822142Y-82669047D01*
%TO.C,U3*%
X105283095Y-82002380D02*
X105283095Y-82811904D01*
X105330714Y-82907142D01*
X105378333Y-82954761D01*
X105473571Y-83002380D01*
X105664047Y-83002380D01*
X105759285Y-82954761D01*
X105806904Y-82907142D01*
X105854523Y-82811904D01*
X105854523Y-82002380D01*
X106235476Y-82002380D02*
X106854523Y-82002380D01*
X106521190Y-82383333D01*
X106664047Y-82383333D01*
X106759285Y-82430952D01*
X106806904Y-82478571D01*
X106854523Y-82573809D01*
X106854523Y-82811904D01*
X106806904Y-82907142D01*
X106759285Y-82954761D01*
X106664047Y-83002380D01*
X106378333Y-83002380D01*
X106283095Y-82954761D01*
X106235476Y-82907142D01*
%TO.C,U2*%
X99568095Y-66762380D02*
X99568095Y-67571904D01*
X99615714Y-67667142D01*
X99663333Y-67714761D01*
X99758571Y-67762380D01*
X99949047Y-67762380D01*
X100044285Y-67714761D01*
X100091904Y-67667142D01*
X100139523Y-67571904D01*
X100139523Y-66762380D01*
X100568095Y-66857619D02*
X100615714Y-66810000D01*
X100710952Y-66762380D01*
X100949047Y-66762380D01*
X101044285Y-66810000D01*
X101091904Y-66857619D01*
X101139523Y-66952857D01*
X101139523Y-67048095D01*
X101091904Y-67190952D01*
X100520476Y-67762380D01*
X101139523Y-67762380D01*
%TO.C,SW12*%
X116935476Y-144295761D02*
X117078333Y-144343380D01*
X117316428Y-144343380D01*
X117411666Y-144295761D01*
X117459285Y-144248142D01*
X117506904Y-144152904D01*
X117506904Y-144057666D01*
X117459285Y-143962428D01*
X117411666Y-143914809D01*
X117316428Y-143867190D01*
X117125952Y-143819571D01*
X117030714Y-143771952D01*
X116983095Y-143724333D01*
X116935476Y-143629095D01*
X116935476Y-143533857D01*
X116983095Y-143438619D01*
X117030714Y-143391000D01*
X117125952Y-143343380D01*
X117364047Y-143343380D01*
X117506904Y-143391000D01*
X117840238Y-143343380D02*
X118078333Y-144343380D01*
X118268809Y-143629095D01*
X118459285Y-144343380D01*
X118697380Y-143343380D01*
X119602142Y-144343380D02*
X119030714Y-144343380D01*
X119316428Y-144343380D02*
X119316428Y-143343380D01*
X119221190Y-143486238D01*
X119125952Y-143581476D01*
X119030714Y-143629095D01*
X119983095Y-143438619D02*
X120030714Y-143391000D01*
X120125952Y-143343380D01*
X120364047Y-143343380D01*
X120459285Y-143391000D01*
X120506904Y-143438619D01*
X120554523Y-143533857D01*
X120554523Y-143629095D01*
X120506904Y-143771952D01*
X119935476Y-144343380D01*
X120554523Y-144343380D01*
%TO.C,SW11*%
X116935476Y-125245761D02*
X117078333Y-125293380D01*
X117316428Y-125293380D01*
X117411666Y-125245761D01*
X117459285Y-125198142D01*
X117506904Y-125102904D01*
X117506904Y-125007666D01*
X117459285Y-124912428D01*
X117411666Y-124864809D01*
X117316428Y-124817190D01*
X117125952Y-124769571D01*
X117030714Y-124721952D01*
X116983095Y-124674333D01*
X116935476Y-124579095D01*
X116935476Y-124483857D01*
X116983095Y-124388619D01*
X117030714Y-124341000D01*
X117125952Y-124293380D01*
X117364047Y-124293380D01*
X117506904Y-124341000D01*
X117840238Y-124293380D02*
X118078333Y-125293380D01*
X118268809Y-124579095D01*
X118459285Y-125293380D01*
X118697380Y-124293380D01*
X119602142Y-125293380D02*
X119030714Y-125293380D01*
X119316428Y-125293380D02*
X119316428Y-124293380D01*
X119221190Y-124436238D01*
X119125952Y-124531476D01*
X119030714Y-124579095D01*
X120554523Y-125293380D02*
X119983095Y-125293380D01*
X120268809Y-125293380D02*
X120268809Y-124293380D01*
X120173571Y-124436238D01*
X120078333Y-124531476D01*
X119983095Y-124579095D01*
%TO.C,SW10*%
X97885476Y-125245761D02*
X98028333Y-125293380D01*
X98266428Y-125293380D01*
X98361666Y-125245761D01*
X98409285Y-125198142D01*
X98456904Y-125102904D01*
X98456904Y-125007666D01*
X98409285Y-124912428D01*
X98361666Y-124864809D01*
X98266428Y-124817190D01*
X98075952Y-124769571D01*
X97980714Y-124721952D01*
X97933095Y-124674333D01*
X97885476Y-124579095D01*
X97885476Y-124483857D01*
X97933095Y-124388619D01*
X97980714Y-124341000D01*
X98075952Y-124293380D01*
X98314047Y-124293380D01*
X98456904Y-124341000D01*
X98790238Y-124293380D02*
X99028333Y-125293380D01*
X99218809Y-124579095D01*
X99409285Y-125293380D01*
X99647380Y-124293380D01*
X100552142Y-125293380D02*
X99980714Y-125293380D01*
X100266428Y-125293380D02*
X100266428Y-124293380D01*
X100171190Y-124436238D01*
X100075952Y-124531476D01*
X99980714Y-124579095D01*
X101171190Y-124293380D02*
X101266428Y-124293380D01*
X101361666Y-124341000D01*
X101409285Y-124388619D01*
X101456904Y-124483857D01*
X101504523Y-124674333D01*
X101504523Y-124912428D01*
X101456904Y-125102904D01*
X101409285Y-125198142D01*
X101361666Y-125245761D01*
X101266428Y-125293380D01*
X101171190Y-125293380D01*
X101075952Y-125245761D01*
X101028333Y-125198142D01*
X100980714Y-125102904D01*
X100933095Y-124912428D01*
X100933095Y-124674333D01*
X100980714Y-124483857D01*
X101028333Y-124388619D01*
X101075952Y-124341000D01*
X101171190Y-124293380D01*
%TO.C,SW9*%
X79311666Y-125245761D02*
X79454523Y-125293380D01*
X79692619Y-125293380D01*
X79787857Y-125245761D01*
X79835476Y-125198142D01*
X79883095Y-125102904D01*
X79883095Y-125007666D01*
X79835476Y-124912428D01*
X79787857Y-124864809D01*
X79692619Y-124817190D01*
X79502142Y-124769571D01*
X79406904Y-124721952D01*
X79359285Y-124674333D01*
X79311666Y-124579095D01*
X79311666Y-124483857D01*
X79359285Y-124388619D01*
X79406904Y-124341000D01*
X79502142Y-124293380D01*
X79740238Y-124293380D01*
X79883095Y-124341000D01*
X80216428Y-124293380D02*
X80454523Y-125293380D01*
X80645000Y-124579095D01*
X80835476Y-125293380D01*
X81073571Y-124293380D01*
X81502142Y-125293380D02*
X81692619Y-125293380D01*
X81787857Y-125245761D01*
X81835476Y-125198142D01*
X81930714Y-125055285D01*
X81978333Y-124864809D01*
X81978333Y-124483857D01*
X81930714Y-124388619D01*
X81883095Y-124341000D01*
X81787857Y-124293380D01*
X81597380Y-124293380D01*
X81502142Y-124341000D01*
X81454523Y-124388619D01*
X81406904Y-124483857D01*
X81406904Y-124721952D01*
X81454523Y-124817190D01*
X81502142Y-124864809D01*
X81597380Y-124912428D01*
X81787857Y-124912428D01*
X81883095Y-124864809D01*
X81930714Y-124817190D01*
X81978333Y-124721952D01*
%TO.C,SW8*%
X117411666Y-106195761D02*
X117554523Y-106243380D01*
X117792619Y-106243380D01*
X117887857Y-106195761D01*
X117935476Y-106148142D01*
X117983095Y-106052904D01*
X117983095Y-105957666D01*
X117935476Y-105862428D01*
X117887857Y-105814809D01*
X117792619Y-105767190D01*
X117602142Y-105719571D01*
X117506904Y-105671952D01*
X117459285Y-105624333D01*
X117411666Y-105529095D01*
X117411666Y-105433857D01*
X117459285Y-105338619D01*
X117506904Y-105291000D01*
X117602142Y-105243380D01*
X117840238Y-105243380D01*
X117983095Y-105291000D01*
X118316428Y-105243380D02*
X118554523Y-106243380D01*
X118745000Y-105529095D01*
X118935476Y-106243380D01*
X119173571Y-105243380D01*
X119697380Y-105671952D02*
X119602142Y-105624333D01*
X119554523Y-105576714D01*
X119506904Y-105481476D01*
X119506904Y-105433857D01*
X119554523Y-105338619D01*
X119602142Y-105291000D01*
X119697380Y-105243380D01*
X119887857Y-105243380D01*
X119983095Y-105291000D01*
X120030714Y-105338619D01*
X120078333Y-105433857D01*
X120078333Y-105481476D01*
X120030714Y-105576714D01*
X119983095Y-105624333D01*
X119887857Y-105671952D01*
X119697380Y-105671952D01*
X119602142Y-105719571D01*
X119554523Y-105767190D01*
X119506904Y-105862428D01*
X119506904Y-106052904D01*
X119554523Y-106148142D01*
X119602142Y-106195761D01*
X119697380Y-106243380D01*
X119887857Y-106243380D01*
X119983095Y-106195761D01*
X120030714Y-106148142D01*
X120078333Y-106052904D01*
X120078333Y-105862428D01*
X120030714Y-105767190D01*
X119983095Y-105719571D01*
X119887857Y-105671952D01*
%TO.C,SW7*%
X98361666Y-106195761D02*
X98504523Y-106243380D01*
X98742619Y-106243380D01*
X98837857Y-106195761D01*
X98885476Y-106148142D01*
X98933095Y-106052904D01*
X98933095Y-105957666D01*
X98885476Y-105862428D01*
X98837857Y-105814809D01*
X98742619Y-105767190D01*
X98552142Y-105719571D01*
X98456904Y-105671952D01*
X98409285Y-105624333D01*
X98361666Y-105529095D01*
X98361666Y-105433857D01*
X98409285Y-105338619D01*
X98456904Y-105291000D01*
X98552142Y-105243380D01*
X98790238Y-105243380D01*
X98933095Y-105291000D01*
X99266428Y-105243380D02*
X99504523Y-106243380D01*
X99695000Y-105529095D01*
X99885476Y-106243380D01*
X100123571Y-105243380D01*
X100409285Y-105243380D02*
X101075952Y-105243380D01*
X100647380Y-106243380D01*
%TO.C,SW6*%
X79311666Y-106195761D02*
X79454523Y-106243380D01*
X79692619Y-106243380D01*
X79787857Y-106195761D01*
X79835476Y-106148142D01*
X79883095Y-106052904D01*
X79883095Y-105957666D01*
X79835476Y-105862428D01*
X79787857Y-105814809D01*
X79692619Y-105767190D01*
X79502142Y-105719571D01*
X79406904Y-105671952D01*
X79359285Y-105624333D01*
X79311666Y-105529095D01*
X79311666Y-105433857D01*
X79359285Y-105338619D01*
X79406904Y-105291000D01*
X79502142Y-105243380D01*
X79740238Y-105243380D01*
X79883095Y-105291000D01*
X80216428Y-105243380D02*
X80454523Y-106243380D01*
X80645000Y-105529095D01*
X80835476Y-106243380D01*
X81073571Y-105243380D01*
X81883095Y-105243380D02*
X81692619Y-105243380D01*
X81597380Y-105291000D01*
X81549761Y-105338619D01*
X81454523Y-105481476D01*
X81406904Y-105671952D01*
X81406904Y-106052904D01*
X81454523Y-106148142D01*
X81502142Y-106195761D01*
X81597380Y-106243380D01*
X81787857Y-106243380D01*
X81883095Y-106195761D01*
X81930714Y-106148142D01*
X81978333Y-106052904D01*
X81978333Y-105814809D01*
X81930714Y-105719571D01*
X81883095Y-105671952D01*
X81787857Y-105624333D01*
X81597380Y-105624333D01*
X81502142Y-105671952D01*
X81454523Y-105719571D01*
X81406904Y-105814809D01*
%TO.C,SW5*%
X117411666Y-87145761D02*
X117554523Y-87193380D01*
X117792619Y-87193380D01*
X117887857Y-87145761D01*
X117935476Y-87098142D01*
X117983095Y-87002904D01*
X117983095Y-86907666D01*
X117935476Y-86812428D01*
X117887857Y-86764809D01*
X117792619Y-86717190D01*
X117602142Y-86669571D01*
X117506904Y-86621952D01*
X117459285Y-86574333D01*
X117411666Y-86479095D01*
X117411666Y-86383857D01*
X117459285Y-86288619D01*
X117506904Y-86241000D01*
X117602142Y-86193380D01*
X117840238Y-86193380D01*
X117983095Y-86241000D01*
X118316428Y-86193380D02*
X118554523Y-87193380D01*
X118745000Y-86479095D01*
X118935476Y-87193380D01*
X119173571Y-86193380D01*
X120030714Y-86193380D02*
X119554523Y-86193380D01*
X119506904Y-86669571D01*
X119554523Y-86621952D01*
X119649761Y-86574333D01*
X119887857Y-86574333D01*
X119983095Y-86621952D01*
X120030714Y-86669571D01*
X120078333Y-86764809D01*
X120078333Y-87002904D01*
X120030714Y-87098142D01*
X119983095Y-87145761D01*
X119887857Y-87193380D01*
X119649761Y-87193380D01*
X119554523Y-87145761D01*
X119506904Y-87098142D01*
%TO.C,SW4*%
X98361666Y-87145761D02*
X98504523Y-87193380D01*
X98742619Y-87193380D01*
X98837857Y-87145761D01*
X98885476Y-87098142D01*
X98933095Y-87002904D01*
X98933095Y-86907666D01*
X98885476Y-86812428D01*
X98837857Y-86764809D01*
X98742619Y-86717190D01*
X98552142Y-86669571D01*
X98456904Y-86621952D01*
X98409285Y-86574333D01*
X98361666Y-86479095D01*
X98361666Y-86383857D01*
X98409285Y-86288619D01*
X98456904Y-86241000D01*
X98552142Y-86193380D01*
X98790238Y-86193380D01*
X98933095Y-86241000D01*
X99266428Y-86193380D02*
X99504523Y-87193380D01*
X99695000Y-86479095D01*
X99885476Y-87193380D01*
X100123571Y-86193380D01*
X100933095Y-86526714D02*
X100933095Y-87193380D01*
X100695000Y-86145761D02*
X100456904Y-86860047D01*
X101075952Y-86860047D01*
%TO.C,SW3*%
X79311666Y-87145761D02*
X79454523Y-87193380D01*
X79692619Y-87193380D01*
X79787857Y-87145761D01*
X79835476Y-87098142D01*
X79883095Y-87002904D01*
X79883095Y-86907666D01*
X79835476Y-86812428D01*
X79787857Y-86764809D01*
X79692619Y-86717190D01*
X79502142Y-86669571D01*
X79406904Y-86621952D01*
X79359285Y-86574333D01*
X79311666Y-86479095D01*
X79311666Y-86383857D01*
X79359285Y-86288619D01*
X79406904Y-86241000D01*
X79502142Y-86193380D01*
X79740238Y-86193380D01*
X79883095Y-86241000D01*
X80216428Y-86193380D02*
X80454523Y-87193380D01*
X80645000Y-86479095D01*
X80835476Y-87193380D01*
X81073571Y-86193380D01*
X81359285Y-86193380D02*
X81978333Y-86193380D01*
X81645000Y-86574333D01*
X81787857Y-86574333D01*
X81883095Y-86621952D01*
X81930714Y-86669571D01*
X81978333Y-86764809D01*
X81978333Y-87002904D01*
X81930714Y-87098142D01*
X81883095Y-87145761D01*
X81787857Y-87193380D01*
X81502142Y-87193380D01*
X81406904Y-87145761D01*
X81359285Y-87098142D01*
%TO.C,SW2*%
X98361666Y-144295761D02*
X98504523Y-144343380D01*
X98742619Y-144343380D01*
X98837857Y-144295761D01*
X98885476Y-144248142D01*
X98933095Y-144152904D01*
X98933095Y-144057666D01*
X98885476Y-143962428D01*
X98837857Y-143914809D01*
X98742619Y-143867190D01*
X98552142Y-143819571D01*
X98456904Y-143771952D01*
X98409285Y-143724333D01*
X98361666Y-143629095D01*
X98361666Y-143533857D01*
X98409285Y-143438619D01*
X98456904Y-143391000D01*
X98552142Y-143343380D01*
X98790238Y-143343380D01*
X98933095Y-143391000D01*
X99266428Y-143343380D02*
X99504523Y-144343380D01*
X99695000Y-143629095D01*
X99885476Y-144343380D01*
X100123571Y-143343380D01*
X100456904Y-143438619D02*
X100504523Y-143391000D01*
X100599761Y-143343380D01*
X100837857Y-143343380D01*
X100933095Y-143391000D01*
X100980714Y-143438619D01*
X101028333Y-143533857D01*
X101028333Y-143629095D01*
X100980714Y-143771952D01*
X100409285Y-144343380D01*
X101028333Y-144343380D01*
%TO.C,SW1*%
X79311666Y-144295761D02*
X79454523Y-144343380D01*
X79692619Y-144343380D01*
X79787857Y-144295761D01*
X79835476Y-144248142D01*
X79883095Y-144152904D01*
X79883095Y-144057666D01*
X79835476Y-143962428D01*
X79787857Y-143914809D01*
X79692619Y-143867190D01*
X79502142Y-143819571D01*
X79406904Y-143771952D01*
X79359285Y-143724333D01*
X79311666Y-143629095D01*
X79311666Y-143533857D01*
X79359285Y-143438619D01*
X79406904Y-143391000D01*
X79502142Y-143343380D01*
X79740238Y-143343380D01*
X79883095Y-143391000D01*
X80216428Y-143343380D02*
X80454523Y-144343380D01*
X80645000Y-143629095D01*
X80835476Y-144343380D01*
X81073571Y-143343380D01*
X81978333Y-144343380D02*
X81406904Y-144343380D01*
X81692619Y-144343380D02*
X81692619Y-143343380D01*
X81597380Y-143486238D01*
X81502142Y-143581476D01*
X81406904Y-143629095D01*
%TO.C,R31*%
X110942380Y-147327857D02*
X110466190Y-147661190D01*
X110942380Y-147899285D02*
X109942380Y-147899285D01*
X109942380Y-147518333D01*
X109990000Y-147423095D01*
X110037619Y-147375476D01*
X110132857Y-147327857D01*
X110275714Y-147327857D01*
X110370952Y-147375476D01*
X110418571Y-147423095D01*
X110466190Y-147518333D01*
X110466190Y-147899285D01*
X109942380Y-146994523D02*
X109942380Y-146375476D01*
X110323333Y-146708809D01*
X110323333Y-146565952D01*
X110370952Y-146470714D01*
X110418571Y-146423095D01*
X110513809Y-146375476D01*
X110751904Y-146375476D01*
X110847142Y-146423095D01*
X110894761Y-146470714D01*
X110942380Y-146565952D01*
X110942380Y-146851666D01*
X110894761Y-146946904D01*
X110847142Y-146994523D01*
X110942380Y-145423095D02*
X110942380Y-145994523D01*
X110942380Y-145708809D02*
X109942380Y-145708809D01*
X110085238Y-145804047D01*
X110180476Y-145899285D01*
X110228095Y-145994523D01*
%TO.C,R30*%
X110942380Y-153677857D02*
X110466190Y-154011190D01*
X110942380Y-154249285D02*
X109942380Y-154249285D01*
X109942380Y-153868333D01*
X109990000Y-153773095D01*
X110037619Y-153725476D01*
X110132857Y-153677857D01*
X110275714Y-153677857D01*
X110370952Y-153725476D01*
X110418571Y-153773095D01*
X110466190Y-153868333D01*
X110466190Y-154249285D01*
X109942380Y-153344523D02*
X109942380Y-152725476D01*
X110323333Y-153058809D01*
X110323333Y-152915952D01*
X110370952Y-152820714D01*
X110418571Y-152773095D01*
X110513809Y-152725476D01*
X110751904Y-152725476D01*
X110847142Y-152773095D01*
X110894761Y-152820714D01*
X110942380Y-152915952D01*
X110942380Y-153201666D01*
X110894761Y-153296904D01*
X110847142Y-153344523D01*
X109942380Y-152106428D02*
X109942380Y-152011190D01*
X109990000Y-151915952D01*
X110037619Y-151868333D01*
X110132857Y-151820714D01*
X110323333Y-151773095D01*
X110561428Y-151773095D01*
X110751904Y-151820714D01*
X110847142Y-151868333D01*
X110894761Y-151915952D01*
X110942380Y-152011190D01*
X110942380Y-152106428D01*
X110894761Y-152201666D01*
X110847142Y-152249285D01*
X110751904Y-152296904D01*
X110561428Y-152344523D01*
X110323333Y-152344523D01*
X110132857Y-152296904D01*
X110037619Y-152249285D01*
X109990000Y-152201666D01*
X109942380Y-152106428D01*
%TO.C,R29*%
X110942380Y-128277857D02*
X110466190Y-128611190D01*
X110942380Y-128849285D02*
X109942380Y-128849285D01*
X109942380Y-128468333D01*
X109990000Y-128373095D01*
X110037619Y-128325476D01*
X110132857Y-128277857D01*
X110275714Y-128277857D01*
X110370952Y-128325476D01*
X110418571Y-128373095D01*
X110466190Y-128468333D01*
X110466190Y-128849285D01*
X110037619Y-127896904D02*
X109990000Y-127849285D01*
X109942380Y-127754047D01*
X109942380Y-127515952D01*
X109990000Y-127420714D01*
X110037619Y-127373095D01*
X110132857Y-127325476D01*
X110228095Y-127325476D01*
X110370952Y-127373095D01*
X110942380Y-127944523D01*
X110942380Y-127325476D01*
X110942380Y-126849285D02*
X110942380Y-126658809D01*
X110894761Y-126563571D01*
X110847142Y-126515952D01*
X110704285Y-126420714D01*
X110513809Y-126373095D01*
X110132857Y-126373095D01*
X110037619Y-126420714D01*
X109990000Y-126468333D01*
X109942380Y-126563571D01*
X109942380Y-126754047D01*
X109990000Y-126849285D01*
X110037619Y-126896904D01*
X110132857Y-126944523D01*
X110370952Y-126944523D01*
X110466190Y-126896904D01*
X110513809Y-126849285D01*
X110561428Y-126754047D01*
X110561428Y-126563571D01*
X110513809Y-126468333D01*
X110466190Y-126420714D01*
X110370952Y-126373095D01*
%TO.C,R28*%
X110942380Y-134627857D02*
X110466190Y-134961190D01*
X110942380Y-135199285D02*
X109942380Y-135199285D01*
X109942380Y-134818333D01*
X109990000Y-134723095D01*
X110037619Y-134675476D01*
X110132857Y-134627857D01*
X110275714Y-134627857D01*
X110370952Y-134675476D01*
X110418571Y-134723095D01*
X110466190Y-134818333D01*
X110466190Y-135199285D01*
X110037619Y-134246904D02*
X109990000Y-134199285D01*
X109942380Y-134104047D01*
X109942380Y-133865952D01*
X109990000Y-133770714D01*
X110037619Y-133723095D01*
X110132857Y-133675476D01*
X110228095Y-133675476D01*
X110370952Y-133723095D01*
X110942380Y-134294523D01*
X110942380Y-133675476D01*
X110370952Y-133104047D02*
X110323333Y-133199285D01*
X110275714Y-133246904D01*
X110180476Y-133294523D01*
X110132857Y-133294523D01*
X110037619Y-133246904D01*
X109990000Y-133199285D01*
X109942380Y-133104047D01*
X109942380Y-132913571D01*
X109990000Y-132818333D01*
X110037619Y-132770714D01*
X110132857Y-132723095D01*
X110180476Y-132723095D01*
X110275714Y-132770714D01*
X110323333Y-132818333D01*
X110370952Y-132913571D01*
X110370952Y-133104047D01*
X110418571Y-133199285D01*
X110466190Y-133246904D01*
X110561428Y-133294523D01*
X110751904Y-133294523D01*
X110847142Y-133246904D01*
X110894761Y-133199285D01*
X110942380Y-133104047D01*
X110942380Y-132913571D01*
X110894761Y-132818333D01*
X110847142Y-132770714D01*
X110751904Y-132723095D01*
X110561428Y-132723095D01*
X110466190Y-132770714D01*
X110418571Y-132818333D01*
X110370952Y-132913571D01*
%TO.C,R27*%
X91892380Y-128277857D02*
X91416190Y-128611190D01*
X91892380Y-128849285D02*
X90892380Y-128849285D01*
X90892380Y-128468333D01*
X90940000Y-128373095D01*
X90987619Y-128325476D01*
X91082857Y-128277857D01*
X91225714Y-128277857D01*
X91320952Y-128325476D01*
X91368571Y-128373095D01*
X91416190Y-128468333D01*
X91416190Y-128849285D01*
X90987619Y-127896904D02*
X90940000Y-127849285D01*
X90892380Y-127754047D01*
X90892380Y-127515952D01*
X90940000Y-127420714D01*
X90987619Y-127373095D01*
X91082857Y-127325476D01*
X91178095Y-127325476D01*
X91320952Y-127373095D01*
X91892380Y-127944523D01*
X91892380Y-127325476D01*
X90892380Y-126992142D02*
X90892380Y-126325476D01*
X91892380Y-126754047D01*
%TO.C,R26*%
X91892380Y-134627857D02*
X91416190Y-134961190D01*
X91892380Y-135199285D02*
X90892380Y-135199285D01*
X90892380Y-134818333D01*
X90940000Y-134723095D01*
X90987619Y-134675476D01*
X91082857Y-134627857D01*
X91225714Y-134627857D01*
X91320952Y-134675476D01*
X91368571Y-134723095D01*
X91416190Y-134818333D01*
X91416190Y-135199285D01*
X90987619Y-134246904D02*
X90940000Y-134199285D01*
X90892380Y-134104047D01*
X90892380Y-133865952D01*
X90940000Y-133770714D01*
X90987619Y-133723095D01*
X91082857Y-133675476D01*
X91178095Y-133675476D01*
X91320952Y-133723095D01*
X91892380Y-134294523D01*
X91892380Y-133675476D01*
X90892380Y-132818333D02*
X90892380Y-133008809D01*
X90940000Y-133104047D01*
X90987619Y-133151666D01*
X91130476Y-133246904D01*
X91320952Y-133294523D01*
X91701904Y-133294523D01*
X91797142Y-133246904D01*
X91844761Y-133199285D01*
X91892380Y-133104047D01*
X91892380Y-132913571D01*
X91844761Y-132818333D01*
X91797142Y-132770714D01*
X91701904Y-132723095D01*
X91463809Y-132723095D01*
X91368571Y-132770714D01*
X91320952Y-132818333D01*
X91273333Y-132913571D01*
X91273333Y-133104047D01*
X91320952Y-133199285D01*
X91368571Y-133246904D01*
X91463809Y-133294523D01*
%TO.C,R25*%
X72842380Y-128277857D02*
X72366190Y-128611190D01*
X72842380Y-128849285D02*
X71842380Y-128849285D01*
X71842380Y-128468333D01*
X71890000Y-128373095D01*
X71937619Y-128325476D01*
X72032857Y-128277857D01*
X72175714Y-128277857D01*
X72270952Y-128325476D01*
X72318571Y-128373095D01*
X72366190Y-128468333D01*
X72366190Y-128849285D01*
X71937619Y-127896904D02*
X71890000Y-127849285D01*
X71842380Y-127754047D01*
X71842380Y-127515952D01*
X71890000Y-127420714D01*
X71937619Y-127373095D01*
X72032857Y-127325476D01*
X72128095Y-127325476D01*
X72270952Y-127373095D01*
X72842380Y-127944523D01*
X72842380Y-127325476D01*
X71842380Y-126420714D02*
X71842380Y-126896904D01*
X72318571Y-126944523D01*
X72270952Y-126896904D01*
X72223333Y-126801666D01*
X72223333Y-126563571D01*
X72270952Y-126468333D01*
X72318571Y-126420714D01*
X72413809Y-126373095D01*
X72651904Y-126373095D01*
X72747142Y-126420714D01*
X72794761Y-126468333D01*
X72842380Y-126563571D01*
X72842380Y-126801666D01*
X72794761Y-126896904D01*
X72747142Y-126944523D01*
%TO.C,R24*%
X72842380Y-134627857D02*
X72366190Y-134961190D01*
X72842380Y-135199285D02*
X71842380Y-135199285D01*
X71842380Y-134818333D01*
X71890000Y-134723095D01*
X71937619Y-134675476D01*
X72032857Y-134627857D01*
X72175714Y-134627857D01*
X72270952Y-134675476D01*
X72318571Y-134723095D01*
X72366190Y-134818333D01*
X72366190Y-135199285D01*
X71937619Y-134246904D02*
X71890000Y-134199285D01*
X71842380Y-134104047D01*
X71842380Y-133865952D01*
X71890000Y-133770714D01*
X71937619Y-133723095D01*
X72032857Y-133675476D01*
X72128095Y-133675476D01*
X72270952Y-133723095D01*
X72842380Y-134294523D01*
X72842380Y-133675476D01*
X72175714Y-132818333D02*
X72842380Y-132818333D01*
X71794761Y-133056428D02*
X72509047Y-133294523D01*
X72509047Y-132675476D01*
%TO.C,R23*%
X110942380Y-109227857D02*
X110466190Y-109561190D01*
X110942380Y-109799285D02*
X109942380Y-109799285D01*
X109942380Y-109418333D01*
X109990000Y-109323095D01*
X110037619Y-109275476D01*
X110132857Y-109227857D01*
X110275714Y-109227857D01*
X110370952Y-109275476D01*
X110418571Y-109323095D01*
X110466190Y-109418333D01*
X110466190Y-109799285D01*
X110037619Y-108846904D02*
X109990000Y-108799285D01*
X109942380Y-108704047D01*
X109942380Y-108465952D01*
X109990000Y-108370714D01*
X110037619Y-108323095D01*
X110132857Y-108275476D01*
X110228095Y-108275476D01*
X110370952Y-108323095D01*
X110942380Y-108894523D01*
X110942380Y-108275476D01*
X109942380Y-107942142D02*
X109942380Y-107323095D01*
X110323333Y-107656428D01*
X110323333Y-107513571D01*
X110370952Y-107418333D01*
X110418571Y-107370714D01*
X110513809Y-107323095D01*
X110751904Y-107323095D01*
X110847142Y-107370714D01*
X110894761Y-107418333D01*
X110942380Y-107513571D01*
X110942380Y-107799285D01*
X110894761Y-107894523D01*
X110847142Y-107942142D01*
%TO.C,R22*%
X110942380Y-115577857D02*
X110466190Y-115911190D01*
X110942380Y-116149285D02*
X109942380Y-116149285D01*
X109942380Y-115768333D01*
X109990000Y-115673095D01*
X110037619Y-115625476D01*
X110132857Y-115577857D01*
X110275714Y-115577857D01*
X110370952Y-115625476D01*
X110418571Y-115673095D01*
X110466190Y-115768333D01*
X110466190Y-116149285D01*
X110037619Y-115196904D02*
X109990000Y-115149285D01*
X109942380Y-115054047D01*
X109942380Y-114815952D01*
X109990000Y-114720714D01*
X110037619Y-114673095D01*
X110132857Y-114625476D01*
X110228095Y-114625476D01*
X110370952Y-114673095D01*
X110942380Y-115244523D01*
X110942380Y-114625476D01*
X110037619Y-114244523D02*
X109990000Y-114196904D01*
X109942380Y-114101666D01*
X109942380Y-113863571D01*
X109990000Y-113768333D01*
X110037619Y-113720714D01*
X110132857Y-113673095D01*
X110228095Y-113673095D01*
X110370952Y-113720714D01*
X110942380Y-114292142D01*
X110942380Y-113673095D01*
%TO.C,R21*%
X91892380Y-109227857D02*
X91416190Y-109561190D01*
X91892380Y-109799285D02*
X90892380Y-109799285D01*
X90892380Y-109418333D01*
X90940000Y-109323095D01*
X90987619Y-109275476D01*
X91082857Y-109227857D01*
X91225714Y-109227857D01*
X91320952Y-109275476D01*
X91368571Y-109323095D01*
X91416190Y-109418333D01*
X91416190Y-109799285D01*
X90987619Y-108846904D02*
X90940000Y-108799285D01*
X90892380Y-108704047D01*
X90892380Y-108465952D01*
X90940000Y-108370714D01*
X90987619Y-108323095D01*
X91082857Y-108275476D01*
X91178095Y-108275476D01*
X91320952Y-108323095D01*
X91892380Y-108894523D01*
X91892380Y-108275476D01*
X91892380Y-107323095D02*
X91892380Y-107894523D01*
X91892380Y-107608809D02*
X90892380Y-107608809D01*
X91035238Y-107704047D01*
X91130476Y-107799285D01*
X91178095Y-107894523D01*
%TO.C,R20*%
X91892380Y-115577857D02*
X91416190Y-115911190D01*
X91892380Y-116149285D02*
X90892380Y-116149285D01*
X90892380Y-115768333D01*
X90940000Y-115673095D01*
X90987619Y-115625476D01*
X91082857Y-115577857D01*
X91225714Y-115577857D01*
X91320952Y-115625476D01*
X91368571Y-115673095D01*
X91416190Y-115768333D01*
X91416190Y-116149285D01*
X90987619Y-115196904D02*
X90940000Y-115149285D01*
X90892380Y-115054047D01*
X90892380Y-114815952D01*
X90940000Y-114720714D01*
X90987619Y-114673095D01*
X91082857Y-114625476D01*
X91178095Y-114625476D01*
X91320952Y-114673095D01*
X91892380Y-115244523D01*
X91892380Y-114625476D01*
X90892380Y-114006428D02*
X90892380Y-113911190D01*
X90940000Y-113815952D01*
X90987619Y-113768333D01*
X91082857Y-113720714D01*
X91273333Y-113673095D01*
X91511428Y-113673095D01*
X91701904Y-113720714D01*
X91797142Y-113768333D01*
X91844761Y-113815952D01*
X91892380Y-113911190D01*
X91892380Y-114006428D01*
X91844761Y-114101666D01*
X91797142Y-114149285D01*
X91701904Y-114196904D01*
X91511428Y-114244523D01*
X91273333Y-114244523D01*
X91082857Y-114196904D01*
X90987619Y-114149285D01*
X90940000Y-114101666D01*
X90892380Y-114006428D01*
%TO.C,R19*%
X72842380Y-109227857D02*
X72366190Y-109561190D01*
X72842380Y-109799285D02*
X71842380Y-109799285D01*
X71842380Y-109418333D01*
X71890000Y-109323095D01*
X71937619Y-109275476D01*
X72032857Y-109227857D01*
X72175714Y-109227857D01*
X72270952Y-109275476D01*
X72318571Y-109323095D01*
X72366190Y-109418333D01*
X72366190Y-109799285D01*
X72842380Y-108275476D02*
X72842380Y-108846904D01*
X72842380Y-108561190D02*
X71842380Y-108561190D01*
X71985238Y-108656428D01*
X72080476Y-108751666D01*
X72128095Y-108846904D01*
X72842380Y-107799285D02*
X72842380Y-107608809D01*
X72794761Y-107513571D01*
X72747142Y-107465952D01*
X72604285Y-107370714D01*
X72413809Y-107323095D01*
X72032857Y-107323095D01*
X71937619Y-107370714D01*
X71890000Y-107418333D01*
X71842380Y-107513571D01*
X71842380Y-107704047D01*
X71890000Y-107799285D01*
X71937619Y-107846904D01*
X72032857Y-107894523D01*
X72270952Y-107894523D01*
X72366190Y-107846904D01*
X72413809Y-107799285D01*
X72461428Y-107704047D01*
X72461428Y-107513571D01*
X72413809Y-107418333D01*
X72366190Y-107370714D01*
X72270952Y-107323095D01*
%TO.C,R18*%
X72842380Y-115577857D02*
X72366190Y-115911190D01*
X72842380Y-116149285D02*
X71842380Y-116149285D01*
X71842380Y-115768333D01*
X71890000Y-115673095D01*
X71937619Y-115625476D01*
X72032857Y-115577857D01*
X72175714Y-115577857D01*
X72270952Y-115625476D01*
X72318571Y-115673095D01*
X72366190Y-115768333D01*
X72366190Y-116149285D01*
X72842380Y-114625476D02*
X72842380Y-115196904D01*
X72842380Y-114911190D02*
X71842380Y-114911190D01*
X71985238Y-115006428D01*
X72080476Y-115101666D01*
X72128095Y-115196904D01*
X72270952Y-114054047D02*
X72223333Y-114149285D01*
X72175714Y-114196904D01*
X72080476Y-114244523D01*
X72032857Y-114244523D01*
X71937619Y-114196904D01*
X71890000Y-114149285D01*
X71842380Y-114054047D01*
X71842380Y-113863571D01*
X71890000Y-113768333D01*
X71937619Y-113720714D01*
X72032857Y-113673095D01*
X72080476Y-113673095D01*
X72175714Y-113720714D01*
X72223333Y-113768333D01*
X72270952Y-113863571D01*
X72270952Y-114054047D01*
X72318571Y-114149285D01*
X72366190Y-114196904D01*
X72461428Y-114244523D01*
X72651904Y-114244523D01*
X72747142Y-114196904D01*
X72794761Y-114149285D01*
X72842380Y-114054047D01*
X72842380Y-113863571D01*
X72794761Y-113768333D01*
X72747142Y-113720714D01*
X72651904Y-113673095D01*
X72461428Y-113673095D01*
X72366190Y-113720714D01*
X72318571Y-113768333D01*
X72270952Y-113863571D01*
%TO.C,R17*%
X110942380Y-90177857D02*
X110466190Y-90511190D01*
X110942380Y-90749285D02*
X109942380Y-90749285D01*
X109942380Y-90368333D01*
X109990000Y-90273095D01*
X110037619Y-90225476D01*
X110132857Y-90177857D01*
X110275714Y-90177857D01*
X110370952Y-90225476D01*
X110418571Y-90273095D01*
X110466190Y-90368333D01*
X110466190Y-90749285D01*
X110942380Y-89225476D02*
X110942380Y-89796904D01*
X110942380Y-89511190D02*
X109942380Y-89511190D01*
X110085238Y-89606428D01*
X110180476Y-89701666D01*
X110228095Y-89796904D01*
X109942380Y-88892142D02*
X109942380Y-88225476D01*
X110942380Y-88654047D01*
%TO.C,R16*%
X110942380Y-96527857D02*
X110466190Y-96861190D01*
X110942380Y-97099285D02*
X109942380Y-97099285D01*
X109942380Y-96718333D01*
X109990000Y-96623095D01*
X110037619Y-96575476D01*
X110132857Y-96527857D01*
X110275714Y-96527857D01*
X110370952Y-96575476D01*
X110418571Y-96623095D01*
X110466190Y-96718333D01*
X110466190Y-97099285D01*
X110942380Y-95575476D02*
X110942380Y-96146904D01*
X110942380Y-95861190D02*
X109942380Y-95861190D01*
X110085238Y-95956428D01*
X110180476Y-96051666D01*
X110228095Y-96146904D01*
X109942380Y-94718333D02*
X109942380Y-94908809D01*
X109990000Y-95004047D01*
X110037619Y-95051666D01*
X110180476Y-95146904D01*
X110370952Y-95194523D01*
X110751904Y-95194523D01*
X110847142Y-95146904D01*
X110894761Y-95099285D01*
X110942380Y-95004047D01*
X110942380Y-94813571D01*
X110894761Y-94718333D01*
X110847142Y-94670714D01*
X110751904Y-94623095D01*
X110513809Y-94623095D01*
X110418571Y-94670714D01*
X110370952Y-94718333D01*
X110323333Y-94813571D01*
X110323333Y-95004047D01*
X110370952Y-95099285D01*
X110418571Y-95146904D01*
X110513809Y-95194523D01*
%TO.C,R15*%
X91892380Y-90177857D02*
X91416190Y-90511190D01*
X91892380Y-90749285D02*
X90892380Y-90749285D01*
X90892380Y-90368333D01*
X90940000Y-90273095D01*
X90987619Y-90225476D01*
X91082857Y-90177857D01*
X91225714Y-90177857D01*
X91320952Y-90225476D01*
X91368571Y-90273095D01*
X91416190Y-90368333D01*
X91416190Y-90749285D01*
X91892380Y-89225476D02*
X91892380Y-89796904D01*
X91892380Y-89511190D02*
X90892380Y-89511190D01*
X91035238Y-89606428D01*
X91130476Y-89701666D01*
X91178095Y-89796904D01*
X90892380Y-88320714D02*
X90892380Y-88796904D01*
X91368571Y-88844523D01*
X91320952Y-88796904D01*
X91273333Y-88701666D01*
X91273333Y-88463571D01*
X91320952Y-88368333D01*
X91368571Y-88320714D01*
X91463809Y-88273095D01*
X91701904Y-88273095D01*
X91797142Y-88320714D01*
X91844761Y-88368333D01*
X91892380Y-88463571D01*
X91892380Y-88701666D01*
X91844761Y-88796904D01*
X91797142Y-88844523D01*
%TO.C,R14*%
X91892380Y-96527857D02*
X91416190Y-96861190D01*
X91892380Y-97099285D02*
X90892380Y-97099285D01*
X90892380Y-96718333D01*
X90940000Y-96623095D01*
X90987619Y-96575476D01*
X91082857Y-96527857D01*
X91225714Y-96527857D01*
X91320952Y-96575476D01*
X91368571Y-96623095D01*
X91416190Y-96718333D01*
X91416190Y-97099285D01*
X91892380Y-95575476D02*
X91892380Y-96146904D01*
X91892380Y-95861190D02*
X90892380Y-95861190D01*
X91035238Y-95956428D01*
X91130476Y-96051666D01*
X91178095Y-96146904D01*
X91225714Y-94718333D02*
X91892380Y-94718333D01*
X90844761Y-94956428D02*
X91559047Y-95194523D01*
X91559047Y-94575476D01*
%TO.C,R13*%
X72842380Y-90177857D02*
X72366190Y-90511190D01*
X72842380Y-90749285D02*
X71842380Y-90749285D01*
X71842380Y-90368333D01*
X71890000Y-90273095D01*
X71937619Y-90225476D01*
X72032857Y-90177857D01*
X72175714Y-90177857D01*
X72270952Y-90225476D01*
X72318571Y-90273095D01*
X72366190Y-90368333D01*
X72366190Y-90749285D01*
X72842380Y-89225476D02*
X72842380Y-89796904D01*
X72842380Y-89511190D02*
X71842380Y-89511190D01*
X71985238Y-89606428D01*
X72080476Y-89701666D01*
X72128095Y-89796904D01*
X71842380Y-88892142D02*
X71842380Y-88273095D01*
X72223333Y-88606428D01*
X72223333Y-88463571D01*
X72270952Y-88368333D01*
X72318571Y-88320714D01*
X72413809Y-88273095D01*
X72651904Y-88273095D01*
X72747142Y-88320714D01*
X72794761Y-88368333D01*
X72842380Y-88463571D01*
X72842380Y-88749285D01*
X72794761Y-88844523D01*
X72747142Y-88892142D01*
%TO.C,R12*%
X72842380Y-96527857D02*
X72366190Y-96861190D01*
X72842380Y-97099285D02*
X71842380Y-97099285D01*
X71842380Y-96718333D01*
X71890000Y-96623095D01*
X71937619Y-96575476D01*
X72032857Y-96527857D01*
X72175714Y-96527857D01*
X72270952Y-96575476D01*
X72318571Y-96623095D01*
X72366190Y-96718333D01*
X72366190Y-97099285D01*
X72842380Y-95575476D02*
X72842380Y-96146904D01*
X72842380Y-95861190D02*
X71842380Y-95861190D01*
X71985238Y-95956428D01*
X72080476Y-96051666D01*
X72128095Y-96146904D01*
X71937619Y-95194523D02*
X71890000Y-95146904D01*
X71842380Y-95051666D01*
X71842380Y-94813571D01*
X71890000Y-94718333D01*
X71937619Y-94670714D01*
X72032857Y-94623095D01*
X72128095Y-94623095D01*
X72270952Y-94670714D01*
X72842380Y-95242142D01*
X72842380Y-94623095D01*
%TO.C,R11*%
X91892380Y-147327857D02*
X91416190Y-147661190D01*
X91892380Y-147899285D02*
X90892380Y-147899285D01*
X90892380Y-147518333D01*
X90940000Y-147423095D01*
X90987619Y-147375476D01*
X91082857Y-147327857D01*
X91225714Y-147327857D01*
X91320952Y-147375476D01*
X91368571Y-147423095D01*
X91416190Y-147518333D01*
X91416190Y-147899285D01*
X91892380Y-146375476D02*
X91892380Y-146946904D01*
X91892380Y-146661190D02*
X90892380Y-146661190D01*
X91035238Y-146756428D01*
X91130476Y-146851666D01*
X91178095Y-146946904D01*
X91892380Y-145423095D02*
X91892380Y-145994523D01*
X91892380Y-145708809D02*
X90892380Y-145708809D01*
X91035238Y-145804047D01*
X91130476Y-145899285D01*
X91178095Y-145994523D01*
%TO.C,R10*%
X91892380Y-153677857D02*
X91416190Y-154011190D01*
X91892380Y-154249285D02*
X90892380Y-154249285D01*
X90892380Y-153868333D01*
X90940000Y-153773095D01*
X90987619Y-153725476D01*
X91082857Y-153677857D01*
X91225714Y-153677857D01*
X91320952Y-153725476D01*
X91368571Y-153773095D01*
X91416190Y-153868333D01*
X91416190Y-154249285D01*
X91892380Y-152725476D02*
X91892380Y-153296904D01*
X91892380Y-153011190D02*
X90892380Y-153011190D01*
X91035238Y-153106428D01*
X91130476Y-153201666D01*
X91178095Y-153296904D01*
X90892380Y-152106428D02*
X90892380Y-152011190D01*
X90940000Y-151915952D01*
X90987619Y-151868333D01*
X91082857Y-151820714D01*
X91273333Y-151773095D01*
X91511428Y-151773095D01*
X91701904Y-151820714D01*
X91797142Y-151868333D01*
X91844761Y-151915952D01*
X91892380Y-152011190D01*
X91892380Y-152106428D01*
X91844761Y-152201666D01*
X91797142Y-152249285D01*
X91701904Y-152296904D01*
X91511428Y-152344523D01*
X91273333Y-152344523D01*
X91082857Y-152296904D01*
X90987619Y-152249285D01*
X90940000Y-152201666D01*
X90892380Y-152106428D01*
%TO.C,R9*%
X72842380Y-146851666D02*
X72366190Y-147185000D01*
X72842380Y-147423095D02*
X71842380Y-147423095D01*
X71842380Y-147042142D01*
X71890000Y-146946904D01*
X71937619Y-146899285D01*
X72032857Y-146851666D01*
X72175714Y-146851666D01*
X72270952Y-146899285D01*
X72318571Y-146946904D01*
X72366190Y-147042142D01*
X72366190Y-147423095D01*
X72842380Y-146375476D02*
X72842380Y-146185000D01*
X72794761Y-146089761D01*
X72747142Y-146042142D01*
X72604285Y-145946904D01*
X72413809Y-145899285D01*
X72032857Y-145899285D01*
X71937619Y-145946904D01*
X71890000Y-145994523D01*
X71842380Y-146089761D01*
X71842380Y-146280238D01*
X71890000Y-146375476D01*
X71937619Y-146423095D01*
X72032857Y-146470714D01*
X72270952Y-146470714D01*
X72366190Y-146423095D01*
X72413809Y-146375476D01*
X72461428Y-146280238D01*
X72461428Y-146089761D01*
X72413809Y-145994523D01*
X72366190Y-145946904D01*
X72270952Y-145899285D01*
%TO.C,R8*%
X72842380Y-153201666D02*
X72366190Y-153535000D01*
X72842380Y-153773095D02*
X71842380Y-153773095D01*
X71842380Y-153392142D01*
X71890000Y-153296904D01*
X71937619Y-153249285D01*
X72032857Y-153201666D01*
X72175714Y-153201666D01*
X72270952Y-153249285D01*
X72318571Y-153296904D01*
X72366190Y-153392142D01*
X72366190Y-153773095D01*
X72270952Y-152630238D02*
X72223333Y-152725476D01*
X72175714Y-152773095D01*
X72080476Y-152820714D01*
X72032857Y-152820714D01*
X71937619Y-152773095D01*
X71890000Y-152725476D01*
X71842380Y-152630238D01*
X71842380Y-152439761D01*
X71890000Y-152344523D01*
X71937619Y-152296904D01*
X72032857Y-152249285D01*
X72080476Y-152249285D01*
X72175714Y-152296904D01*
X72223333Y-152344523D01*
X72270952Y-152439761D01*
X72270952Y-152630238D01*
X72318571Y-152725476D01*
X72366190Y-152773095D01*
X72461428Y-152820714D01*
X72651904Y-152820714D01*
X72747142Y-152773095D01*
X72794761Y-152725476D01*
X72842380Y-152630238D01*
X72842380Y-152439761D01*
X72794761Y-152344523D01*
X72747142Y-152296904D01*
X72651904Y-152249285D01*
X72461428Y-152249285D01*
X72366190Y-152296904D01*
X72318571Y-152344523D01*
X72270952Y-152439761D01*
%TO.C,J2*%
X75267380Y-168608333D02*
X75981666Y-168608333D01*
X76124523Y-168655952D01*
X76219761Y-168751190D01*
X76267380Y-168894047D01*
X76267380Y-168989285D01*
X75362619Y-168179761D02*
X75315000Y-168132142D01*
X75267380Y-168036904D01*
X75267380Y-167798809D01*
X75315000Y-167703571D01*
X75362619Y-167655952D01*
X75457857Y-167608333D01*
X75553095Y-167608333D01*
X75695952Y-167655952D01*
X76267380Y-168227380D01*
X76267380Y-167608333D01*
%TO.C,J1*%
X75267380Y-58753333D02*
X75981666Y-58753333D01*
X76124523Y-58800952D01*
X76219761Y-58896190D01*
X76267380Y-59039047D01*
X76267380Y-59134285D01*
X76267380Y-57753333D02*
X76267380Y-58324761D01*
X76267380Y-58039047D02*
X75267380Y-58039047D01*
X75410238Y-58134285D01*
X75505476Y-58229523D01*
X75553095Y-58324761D01*
%TO.C,D12*%
X121975714Y-157297380D02*
X121975714Y-156297380D01*
X122213809Y-156297380D01*
X122356666Y-156345000D01*
X122451904Y-156440238D01*
X122499523Y-156535476D01*
X122547142Y-156725952D01*
X122547142Y-156868809D01*
X122499523Y-157059285D01*
X122451904Y-157154523D01*
X122356666Y-157249761D01*
X122213809Y-157297380D01*
X121975714Y-157297380D01*
X123499523Y-157297380D02*
X122928095Y-157297380D01*
X123213809Y-157297380D02*
X123213809Y-156297380D01*
X123118571Y-156440238D01*
X123023333Y-156535476D01*
X122928095Y-156583095D01*
X123880476Y-156392619D02*
X123928095Y-156345000D01*
X124023333Y-156297380D01*
X124261428Y-156297380D01*
X124356666Y-156345000D01*
X124404285Y-156392619D01*
X124451904Y-156487857D01*
X124451904Y-156583095D01*
X124404285Y-156725952D01*
X123832857Y-157297380D01*
X124451904Y-157297380D01*
%TO.C,D11*%
X121975714Y-138247380D02*
X121975714Y-137247380D01*
X122213809Y-137247380D01*
X122356666Y-137295000D01*
X122451904Y-137390238D01*
X122499523Y-137485476D01*
X122547142Y-137675952D01*
X122547142Y-137818809D01*
X122499523Y-138009285D01*
X122451904Y-138104523D01*
X122356666Y-138199761D01*
X122213809Y-138247380D01*
X121975714Y-138247380D01*
X123499523Y-138247380D02*
X122928095Y-138247380D01*
X123213809Y-138247380D02*
X123213809Y-137247380D01*
X123118571Y-137390238D01*
X123023333Y-137485476D01*
X122928095Y-137533095D01*
X124451904Y-138247380D02*
X123880476Y-138247380D01*
X124166190Y-138247380D02*
X124166190Y-137247380D01*
X124070952Y-137390238D01*
X123975714Y-137485476D01*
X123880476Y-137533095D01*
%TO.C,D10*%
X102925714Y-138247380D02*
X102925714Y-137247380D01*
X103163809Y-137247380D01*
X103306666Y-137295000D01*
X103401904Y-137390238D01*
X103449523Y-137485476D01*
X103497142Y-137675952D01*
X103497142Y-137818809D01*
X103449523Y-138009285D01*
X103401904Y-138104523D01*
X103306666Y-138199761D01*
X103163809Y-138247380D01*
X102925714Y-138247380D01*
X104449523Y-138247380D02*
X103878095Y-138247380D01*
X104163809Y-138247380D02*
X104163809Y-137247380D01*
X104068571Y-137390238D01*
X103973333Y-137485476D01*
X103878095Y-137533095D01*
X105068571Y-137247380D02*
X105163809Y-137247380D01*
X105259047Y-137295000D01*
X105306666Y-137342619D01*
X105354285Y-137437857D01*
X105401904Y-137628333D01*
X105401904Y-137866428D01*
X105354285Y-138056904D01*
X105306666Y-138152142D01*
X105259047Y-138199761D01*
X105163809Y-138247380D01*
X105068571Y-138247380D01*
X104973333Y-138199761D01*
X104925714Y-138152142D01*
X104878095Y-138056904D01*
X104830476Y-137866428D01*
X104830476Y-137628333D01*
X104878095Y-137437857D01*
X104925714Y-137342619D01*
X104973333Y-137295000D01*
X105068571Y-137247380D01*
%TO.C,D9*%
X84351904Y-138247380D02*
X84351904Y-137247380D01*
X84590000Y-137247380D01*
X84732857Y-137295000D01*
X84828095Y-137390238D01*
X84875714Y-137485476D01*
X84923333Y-137675952D01*
X84923333Y-137818809D01*
X84875714Y-138009285D01*
X84828095Y-138104523D01*
X84732857Y-138199761D01*
X84590000Y-138247380D01*
X84351904Y-138247380D01*
X85399523Y-138247380D02*
X85590000Y-138247380D01*
X85685238Y-138199761D01*
X85732857Y-138152142D01*
X85828095Y-138009285D01*
X85875714Y-137818809D01*
X85875714Y-137437857D01*
X85828095Y-137342619D01*
X85780476Y-137295000D01*
X85685238Y-137247380D01*
X85494761Y-137247380D01*
X85399523Y-137295000D01*
X85351904Y-137342619D01*
X85304285Y-137437857D01*
X85304285Y-137675952D01*
X85351904Y-137771190D01*
X85399523Y-137818809D01*
X85494761Y-137866428D01*
X85685238Y-137866428D01*
X85780476Y-137818809D01*
X85828095Y-137771190D01*
X85875714Y-137675952D01*
%TO.C,D8*%
X122451904Y-119197380D02*
X122451904Y-118197380D01*
X122690000Y-118197380D01*
X122832857Y-118245000D01*
X122928095Y-118340238D01*
X122975714Y-118435476D01*
X123023333Y-118625952D01*
X123023333Y-118768809D01*
X122975714Y-118959285D01*
X122928095Y-119054523D01*
X122832857Y-119149761D01*
X122690000Y-119197380D01*
X122451904Y-119197380D01*
X123594761Y-118625952D02*
X123499523Y-118578333D01*
X123451904Y-118530714D01*
X123404285Y-118435476D01*
X123404285Y-118387857D01*
X123451904Y-118292619D01*
X123499523Y-118245000D01*
X123594761Y-118197380D01*
X123785238Y-118197380D01*
X123880476Y-118245000D01*
X123928095Y-118292619D01*
X123975714Y-118387857D01*
X123975714Y-118435476D01*
X123928095Y-118530714D01*
X123880476Y-118578333D01*
X123785238Y-118625952D01*
X123594761Y-118625952D01*
X123499523Y-118673571D01*
X123451904Y-118721190D01*
X123404285Y-118816428D01*
X123404285Y-119006904D01*
X123451904Y-119102142D01*
X123499523Y-119149761D01*
X123594761Y-119197380D01*
X123785238Y-119197380D01*
X123880476Y-119149761D01*
X123928095Y-119102142D01*
X123975714Y-119006904D01*
X123975714Y-118816428D01*
X123928095Y-118721190D01*
X123880476Y-118673571D01*
X123785238Y-118625952D01*
%TO.C,D7*%
X103401904Y-119197380D02*
X103401904Y-118197380D01*
X103640000Y-118197380D01*
X103782857Y-118245000D01*
X103878095Y-118340238D01*
X103925714Y-118435476D01*
X103973333Y-118625952D01*
X103973333Y-118768809D01*
X103925714Y-118959285D01*
X103878095Y-119054523D01*
X103782857Y-119149761D01*
X103640000Y-119197380D01*
X103401904Y-119197380D01*
X104306666Y-118197380D02*
X104973333Y-118197380D01*
X104544761Y-119197380D01*
%TO.C,D6*%
X84351904Y-119197380D02*
X84351904Y-118197380D01*
X84590000Y-118197380D01*
X84732857Y-118245000D01*
X84828095Y-118340238D01*
X84875714Y-118435476D01*
X84923333Y-118625952D01*
X84923333Y-118768809D01*
X84875714Y-118959285D01*
X84828095Y-119054523D01*
X84732857Y-119149761D01*
X84590000Y-119197380D01*
X84351904Y-119197380D01*
X85780476Y-118197380D02*
X85590000Y-118197380D01*
X85494761Y-118245000D01*
X85447142Y-118292619D01*
X85351904Y-118435476D01*
X85304285Y-118625952D01*
X85304285Y-119006904D01*
X85351904Y-119102142D01*
X85399523Y-119149761D01*
X85494761Y-119197380D01*
X85685238Y-119197380D01*
X85780476Y-119149761D01*
X85828095Y-119102142D01*
X85875714Y-119006904D01*
X85875714Y-118768809D01*
X85828095Y-118673571D01*
X85780476Y-118625952D01*
X85685238Y-118578333D01*
X85494761Y-118578333D01*
X85399523Y-118625952D01*
X85351904Y-118673571D01*
X85304285Y-118768809D01*
%TO.C,D5*%
X122451904Y-100147380D02*
X122451904Y-99147380D01*
X122690000Y-99147380D01*
X122832857Y-99195000D01*
X122928095Y-99290238D01*
X122975714Y-99385476D01*
X123023333Y-99575952D01*
X123023333Y-99718809D01*
X122975714Y-99909285D01*
X122928095Y-100004523D01*
X122832857Y-100099761D01*
X122690000Y-100147380D01*
X122451904Y-100147380D01*
X123928095Y-99147380D02*
X123451904Y-99147380D01*
X123404285Y-99623571D01*
X123451904Y-99575952D01*
X123547142Y-99528333D01*
X123785238Y-99528333D01*
X123880476Y-99575952D01*
X123928095Y-99623571D01*
X123975714Y-99718809D01*
X123975714Y-99956904D01*
X123928095Y-100052142D01*
X123880476Y-100099761D01*
X123785238Y-100147380D01*
X123547142Y-100147380D01*
X123451904Y-100099761D01*
X123404285Y-100052142D01*
%TO.C,D4*%
X103401904Y-100147380D02*
X103401904Y-99147380D01*
X103640000Y-99147380D01*
X103782857Y-99195000D01*
X103878095Y-99290238D01*
X103925714Y-99385476D01*
X103973333Y-99575952D01*
X103973333Y-99718809D01*
X103925714Y-99909285D01*
X103878095Y-100004523D01*
X103782857Y-100099761D01*
X103640000Y-100147380D01*
X103401904Y-100147380D01*
X104830476Y-99480714D02*
X104830476Y-100147380D01*
X104592380Y-99099761D02*
X104354285Y-99814047D01*
X104973333Y-99814047D01*
%TO.C,D3*%
X84351904Y-100147380D02*
X84351904Y-99147380D01*
X84590000Y-99147380D01*
X84732857Y-99195000D01*
X84828095Y-99290238D01*
X84875714Y-99385476D01*
X84923333Y-99575952D01*
X84923333Y-99718809D01*
X84875714Y-99909285D01*
X84828095Y-100004523D01*
X84732857Y-100099761D01*
X84590000Y-100147380D01*
X84351904Y-100147380D01*
X85256666Y-99147380D02*
X85875714Y-99147380D01*
X85542380Y-99528333D01*
X85685238Y-99528333D01*
X85780476Y-99575952D01*
X85828095Y-99623571D01*
X85875714Y-99718809D01*
X85875714Y-99956904D01*
X85828095Y-100052142D01*
X85780476Y-100099761D01*
X85685238Y-100147380D01*
X85399523Y-100147380D01*
X85304285Y-100099761D01*
X85256666Y-100052142D01*
%TO.C,D2*%
X102766904Y-157297380D02*
X102766904Y-156297380D01*
X103005000Y-156297380D01*
X103147857Y-156345000D01*
X103243095Y-156440238D01*
X103290714Y-156535476D01*
X103338333Y-156725952D01*
X103338333Y-156868809D01*
X103290714Y-157059285D01*
X103243095Y-157154523D01*
X103147857Y-157249761D01*
X103005000Y-157297380D01*
X102766904Y-157297380D01*
X103719285Y-156392619D02*
X103766904Y-156345000D01*
X103862142Y-156297380D01*
X104100238Y-156297380D01*
X104195476Y-156345000D01*
X104243095Y-156392619D01*
X104290714Y-156487857D01*
X104290714Y-156583095D01*
X104243095Y-156725952D01*
X103671666Y-157297380D01*
X104290714Y-157297380D01*
%TO.C,D1*%
X84351904Y-157297380D02*
X84351904Y-156297380D01*
X84590000Y-156297380D01*
X84732857Y-156345000D01*
X84828095Y-156440238D01*
X84875714Y-156535476D01*
X84923333Y-156725952D01*
X84923333Y-156868809D01*
X84875714Y-157059285D01*
X84828095Y-157154523D01*
X84732857Y-157249761D01*
X84590000Y-157297380D01*
X84351904Y-157297380D01*
X85875714Y-157297380D02*
X85304285Y-157297380D01*
X85590000Y-157297380D02*
X85590000Y-156297380D01*
X85494761Y-156440238D01*
X85399523Y-156535476D01*
X85304285Y-156583095D01*
%TD*%
M02*
