G04 #@! TF.GenerationSoftware,KiCad,Pcbnew,(5.1.5)-3*
G04 #@! TF.CreationDate,2021-02-03T19:11:54+01:00*
G04 #@! TF.ProjectId,psMCU,70734d43-552e-46b6-9963-61645f706362,rev?*
G04 #@! TF.SameCoordinates,Original*
G04 #@! TF.FileFunction,Legend,Bot*
G04 #@! TF.FilePolarity,Positive*
%FSLAX46Y46*%
G04 Gerber Fmt 4.6, Leading zero omitted, Abs format (unit mm)*
G04 Created by KiCad (PCBNEW (5.1.5)-3) date 2021-02-03 19:11:54*
%MOMM*%
%LPD*%
G04 APERTURE LIST*
%ADD10C,0.300000*%
G04 APERTURE END LIST*
D10*
X-134112619Y-75213571D02*
X-133922142Y-75404047D01*
X-133350714Y-75594523D01*
X-132969761Y-75594523D01*
X-132398333Y-75404047D01*
X-132017380Y-75023095D01*
X-131826904Y-74642142D01*
X-131636428Y-73880238D01*
X-131636428Y-73308809D01*
X-131826904Y-72546904D01*
X-132017380Y-72165952D01*
X-132398333Y-71785000D01*
X-132969761Y-71594523D01*
X-133350714Y-71594523D01*
X-133922142Y-71785000D01*
X-134112619Y-71975476D01*
X-136398333Y-75594523D02*
X-136017380Y-75404047D01*
X-135826904Y-75023095D01*
X-135826904Y-71594523D01*
X-138493571Y-75594523D02*
X-138112619Y-75404047D01*
X-137922142Y-75213571D01*
X-137731666Y-74832619D01*
X-137731666Y-73689761D01*
X-137922142Y-73308809D01*
X-138112619Y-73118333D01*
X-138493571Y-72927857D01*
X-139065000Y-72927857D01*
X-139445952Y-73118333D01*
X-139636428Y-73308809D01*
X-139826904Y-73689761D01*
X-139826904Y-74832619D01*
X-139636428Y-75213571D01*
X-139445952Y-75404047D01*
X-139065000Y-75594523D01*
X-138493571Y-75594523D01*
X-143255476Y-75404047D02*
X-142874523Y-75594523D01*
X-142112619Y-75594523D01*
X-141731666Y-75404047D01*
X-141541190Y-75213571D01*
X-141350714Y-74832619D01*
X-141350714Y-73689761D01*
X-141541190Y-73308809D01*
X-141731666Y-73118333D01*
X-142112619Y-72927857D01*
X-142874523Y-72927857D01*
X-143255476Y-73118333D01*
X-144969761Y-75594523D02*
X-144969761Y-71594523D01*
X-145350714Y-74070714D02*
X-146493571Y-75594523D01*
X-146493571Y-72927857D02*
X-144969761Y-74451666D01*
X-134684047Y-81513571D02*
X-134493571Y-81704047D01*
X-133922142Y-81894523D01*
X-133541190Y-81894523D01*
X-132969761Y-81704047D01*
X-132588809Y-81323095D01*
X-132398333Y-80942142D01*
X-132207857Y-80180238D01*
X-132207857Y-79608809D01*
X-132398333Y-78846904D01*
X-132588809Y-78465952D01*
X-132969761Y-78085000D01*
X-133541190Y-77894523D01*
X-133922142Y-77894523D01*
X-134493571Y-78085000D01*
X-134684047Y-78275476D01*
X-136398333Y-81894523D02*
X-136398333Y-77894523D01*
X-137922142Y-77894523D01*
X-138303095Y-78085000D01*
X-138493571Y-78275476D01*
X-138684047Y-78656428D01*
X-138684047Y-79227857D01*
X-138493571Y-79608809D01*
X-138303095Y-79799285D01*
X-137922142Y-79989761D01*
X-136398333Y-79989761D01*
X-142303095Y-81894523D02*
X-140398333Y-81894523D01*
X-140398333Y-77894523D01*
X-143636428Y-81894523D02*
X-143636428Y-77894523D01*
X-144588809Y-77894523D01*
X-145160238Y-78085000D01*
X-145541190Y-78465952D01*
X-145731666Y-78846904D01*
X-145922142Y-79608809D01*
X-145922142Y-80180238D01*
X-145731666Y-80942142D01*
X-145541190Y-81323095D01*
X-145160238Y-81704047D01*
X-144588809Y-81894523D01*
X-143636428Y-81894523D01*
X-127636428Y-84194523D02*
X-129922142Y-84194523D01*
X-128779285Y-88194523D02*
X-128779285Y-84194523D01*
X-131255476Y-86099285D02*
X-132588809Y-86099285D01*
X-133160238Y-88194523D02*
X-131255476Y-88194523D01*
X-131255476Y-84194523D01*
X-133160238Y-84194523D01*
X-134684047Y-88004047D02*
X-135255476Y-88194523D01*
X-136207857Y-88194523D01*
X-136588809Y-88004047D01*
X-136779285Y-87813571D01*
X-136969761Y-87432619D01*
X-136969761Y-87051666D01*
X-136779285Y-86670714D01*
X-136588809Y-86480238D01*
X-136207857Y-86289761D01*
X-135445952Y-86099285D01*
X-135065000Y-85908809D01*
X-134874523Y-85718333D01*
X-134684047Y-85337380D01*
X-134684047Y-84956428D01*
X-134874523Y-84575476D01*
X-135065000Y-84385000D01*
X-135445952Y-84194523D01*
X-136398333Y-84194523D01*
X-136969761Y-84385000D01*
X-138112619Y-84194523D02*
X-140398333Y-84194523D01*
X-139255476Y-88194523D02*
X-139255476Y-84194523D01*
X-141731666Y-88194523D02*
X-141731666Y-84194523D01*
X-143636428Y-88194523D02*
X-143636428Y-84194523D01*
X-145922142Y-88194523D01*
X-145922142Y-84194523D01*
X-149922142Y-84385000D02*
X-149541190Y-84194523D01*
X-148969761Y-84194523D01*
X-148398333Y-84385000D01*
X-148017380Y-84765952D01*
X-147826904Y-85146904D01*
X-147636428Y-85908809D01*
X-147636428Y-86480238D01*
X-147826904Y-87242142D01*
X-148017380Y-87623095D01*
X-148398333Y-88004047D01*
X-148969761Y-88194523D01*
X-149350714Y-88194523D01*
X-149922142Y-88004047D01*
X-150112619Y-87813571D01*
X-150112619Y-86480238D01*
X-149350714Y-86480238D01*
X-133350714Y-98127857D02*
X-134303095Y-100794523D01*
X-135255476Y-98127857D01*
X-137541190Y-96794523D02*
X-137922142Y-96794523D01*
X-138303095Y-96985000D01*
X-138493571Y-97175476D01*
X-138684047Y-97556428D01*
X-138874523Y-98318333D01*
X-138874523Y-99270714D01*
X-138684047Y-100032619D01*
X-138493571Y-100413571D01*
X-138303095Y-100604047D01*
X-137922142Y-100794523D01*
X-137541190Y-100794523D01*
X-137160238Y-100604047D01*
X-136969761Y-100413571D01*
X-136779285Y-100032619D01*
X-136588809Y-99270714D01*
X-136588809Y-98318333D01*
X-136779285Y-97556428D01*
X-136969761Y-97175476D01*
X-137160238Y-96985000D01*
X-137541190Y-96794523D01*
X-140588809Y-100413571D02*
X-140779285Y-100604047D01*
X-140588809Y-100794523D01*
X-140398333Y-100604047D01*
X-140588809Y-100413571D01*
X-140588809Y-100794523D01*
X-143255476Y-96794523D02*
X-143636428Y-96794523D01*
X-144017380Y-96985000D01*
X-144207857Y-97175476D01*
X-144398333Y-97556428D01*
X-144588809Y-98318333D01*
X-144588809Y-99270714D01*
X-144398333Y-100032619D01*
X-144207857Y-100413571D01*
X-144017380Y-100604047D01*
X-143636428Y-100794523D01*
X-143255476Y-100794523D01*
X-142874523Y-100604047D01*
X-142684047Y-100413571D01*
X-142493571Y-100032619D01*
X-142303095Y-99270714D01*
X-142303095Y-98318333D01*
X-142493571Y-97556428D01*
X-142684047Y-97175476D01*
X-142874523Y-96985000D01*
X-143255476Y-96794523D01*
X-129255476Y-106904047D02*
X-129826904Y-107094523D01*
X-130779285Y-107094523D01*
X-131160238Y-106904047D01*
X-131350714Y-106713571D01*
X-131541190Y-106332619D01*
X-131541190Y-105951666D01*
X-131350714Y-105570714D01*
X-131160238Y-105380238D01*
X-130779285Y-105189761D01*
X-130017380Y-104999285D01*
X-129636428Y-104808809D01*
X-129445952Y-104618333D01*
X-129255476Y-104237380D01*
X-129255476Y-103856428D01*
X-129445952Y-103475476D01*
X-129636428Y-103285000D01*
X-130017380Y-103094523D01*
X-130969761Y-103094523D01*
X-131541190Y-103285000D01*
X-135541190Y-106713571D02*
X-135350714Y-106904047D01*
X-134779285Y-107094523D01*
X-134398333Y-107094523D01*
X-133826904Y-106904047D01*
X-133445952Y-106523095D01*
X-133255476Y-106142142D01*
X-133065000Y-105380238D01*
X-133065000Y-104808809D01*
X-133255476Y-104046904D01*
X-133445952Y-103665952D01*
X-133826904Y-103285000D01*
X-134398333Y-103094523D01*
X-134779285Y-103094523D01*
X-135350714Y-103285000D01*
X-135541190Y-103475476D01*
X-137255476Y-107094523D02*
X-137255476Y-103094523D01*
X-137255476Y-104999285D02*
X-139541190Y-104999285D01*
X-139541190Y-107094523D02*
X-139541190Y-103094523D01*
X-141445952Y-107094523D02*
X-141445952Y-103094523D01*
X-145255476Y-107094523D02*
X-143350714Y-107094523D01*
X-143350714Y-103094523D01*
X-146588809Y-107094523D02*
X-146588809Y-103094523D01*
X-148874523Y-107094523D02*
X-147160238Y-104808809D01*
X-148874523Y-103094523D02*
X-146588809Y-105380238D01*
M02*
