M48
; DRILL file {KiCad (5.1.5)-3} date 02/03/21 19:11:56
; FORMAT={-:-/ absolute / inch / decimal}
; #@! TF.CreationDate,2021-02-03T19:11:56+01:00
; #@! TF.GenerationSoftware,Kicad,Pcbnew,(5.1.5)-3
; #@! TF.FileFunction,Plated,1,2,PTH
FMAT,2
INCH
T1C0.0138
T2C0.0157
T3C0.0315
T4C0.0394
T5C0.0433
%
G90
G05
T1
X-7.925Y-1.675
X-7.925Y-1.675
X-7.9Y-1.65
X-7.9Y-1.7
X-7.9Y-1.975
X-7.8Y-2.0
X-7.725Y-1.625
X-7.725Y-1.825
X-7.725Y-2.0
X-7.7Y-1.625
X-7.7Y-1.95
X-7.7Y-2.075
X-7.675Y-1.625
X-7.425Y-4.7
X-7.375Y-1.9823
X-7.375Y-2.125
X-7.35Y-2.45
X-7.325Y-2.725
X-7.275Y-1.975
X-7.275Y-3.125
X-7.275Y-4.0
X-7.275Y-4.7
X-7.25Y-3.575
X-7.25Y-4.425
X-7.1299Y-1.8525
X-7.125Y-1.5
X-7.125Y-1.675
X-7.125Y-4.7
X-7.1Y-1.875
X-7.025Y-3.2
X-7.0Y-1.825
X-7.0Y-1.875
X-6.925Y-4.5
X-6.9Y-2.65
X-6.9Y-3.75
X-6.9Y-3.825
X-6.9Y-4.05
X-6.9Y-4.125
X-6.875Y-2.975
X-6.875Y-3.25
X-6.85Y-1.6
X-6.8Y-3.15
X-6.8Y-3.275
X-6.8Y-3.5
X-6.775Y-4.575
X-6.7528Y-4.0778
X-6.75Y-2.65
X-6.75Y-3.025
X-6.75Y-3.525
X-6.75Y-3.9
X-6.75Y-4.15
X-6.725Y-2.125
X-6.725Y-3.35
X-6.725Y-3.75
X-6.725Y-3.8224
X-6.725Y-4.125
X-6.7235Y-3.8515
X-6.7033Y-4.0347
X-6.675Y-2.975
X-6.65Y-3.05
X-6.625Y-3.375
X-6.6Y-2.775
X-6.6Y-2.9
X-6.6Y-3.15
X-6.575Y-3.225
X-6.575Y-3.325
X-6.575Y-4.05
X-6.55Y-3.75
X-6.55Y-4.075
X-6.475Y-1.9
X-6.475Y-2.1
X-6.4606Y-3.275
X-6.458Y-3.042
X-6.45Y-2.05
X-6.425Y-2.575
X-6.425Y-2.825
X-6.4236Y-3.3986
X-6.4124Y-2.95
X-6.4Y-3.825
X-6.4Y-4.05
X-6.4Y-4.125
X-6.3844Y-1.7714
X-6.375Y-2.175
X-6.375Y-2.75
X-6.375Y-2.9
X-6.375Y-3.4
X-6.375Y-3.75
X-6.375Y-4.075
X-6.35Y-1.75
X-6.35Y-1.9
X-6.325Y-2.225
X-6.3Y-2.075
X-6.25Y-2.3
X-6.25Y-3.05
X-6.25Y-3.275
X-6.25Y-3.475
X-6.25Y-4.775
X-6.225Y-2.95
X-6.225Y-4.05
X-6.2Y-3.075
X-6.2Y-3.25
X-6.2Y-3.475
X-6.2Y-3.75
X-6.2Y-3.85
X-6.2Y-4.075
X-6.2Y-4.15
X-6.175Y-2.8
X-6.175Y-3.625
X-6.15Y-2.6
X-6.125Y-2.825
X-6.1Y-2.625
X-6.0807Y-2.8443
X-6.05Y-2.625
X-6.05Y-4.05
X-6.025Y-2.575
X-6.025Y-3.075
X-6.025Y-3.65
X-6.0Y-2.625
X-6.0Y-4.15
X-5.9903Y-2.8097
X-5.95Y-2.625
X-5.95Y-4.3
X-5.925Y-2.275
X-5.9Y-4.5
X-5.875Y-3.2
X-5.875Y-4.425
X-5.875Y-4.55
X-5.875Y-4.775
X-5.85Y-4.575
X-5.8458Y-3.0283
X-5.825Y-4.3
X-5.825Y-4.45
X-5.8Y-2.825
X-5.8Y-3.2
X-5.775Y-3.825
X-5.75Y-4.45
X-5.75Y-4.6
X-5.7Y-3.275
X-5.6778Y-4.8033
X-5.675Y-4.45
X-5.675Y-4.6
X-5.625Y-3.275
X-5.6Y-3.925
X-5.525Y-3.2
X-5.525Y-4.575
X-5.5Y-2.425
X-5.4778Y-3.3778
X-5.475Y-2.6
X-5.475Y-2.875
X-5.475Y-3.9
X-5.475Y-4.075
X-5.425Y-4.725
X-5.3627Y-3.856
X-5.3624Y-2.94
X-5.3528Y-4.5436
X-5.35Y-2.3
X-5.35Y-2.825
X-5.35Y-3.35
X-5.35Y-4.0
X-5.35Y-4.375
X-5.325Y-2.15
X-5.325Y-3.2
X-5.325Y-3.75
X-5.325Y-4.625
X-5.3Y-2.3
X-5.3Y-2.425
X-5.3Y-3.075
X-5.3Y-3.575
X-5.3Y-3.85
X-5.3Y-4.125
X-5.3Y-4.3
X-5.275Y-2.85
X-5.275Y-3.35
X-5.15Y-2.325
X-5.15Y-2.6
X-5.15Y-3.125
X-5.15Y-3.65
X-5.15Y-4.1
X-5.15Y-4.15
X-5.15Y-4.675
X-5.125Y-4.0
X-5.1Y-4.625
X-5.075Y-2.525
X-5.075Y-2.6
X-5.075Y-3.35
X-5.075Y-4.1
X-5.05Y-2.3
X-5.05Y-2.675
X-5.05Y-3.7
X-5.05Y-3.95
X-5.05Y-4.225
X-5.05Y-4.775
X-5.025Y-3.225
X-4.925Y-2.55
X-4.925Y-3.0526
X-4.925Y-4.1
X-4.9216Y-3.0245
X-4.9Y-2.4
X-4.9Y-2.475
X-4.9Y-3.325
X-4.9Y-3.375
X-4.9Y-4.05
X-4.9Y-4.325
X-4.9Y-4.625
X-4.875Y-2.3
X-4.875Y-2.45
X-4.875Y-2.975
X-4.875Y-3.05
X-4.875Y-3.45
X-4.875Y-4.0
X-4.875Y-4.4
X-4.775Y-3.2556
X-4.75Y-3.2
X-4.7471Y-3.9294
X-4.725Y-2.55
X-4.725Y-2.75
X-4.725Y-2.825
X-4.725Y-3.8
X-4.725Y-3.85
X-4.725Y-4.275
X-4.7157Y-4.0156
X-4.7Y-2.9
X-4.7Y-3.55
X-4.7Y-3.6
X-4.675Y-2.95
X-4.675Y-3.5
X-4.675Y-3.825
X-4.675Y-4.2
X-4.675Y-4.625
X-4.65Y-3.275
X-4.65Y-3.7
X-4.65Y-3.95
X-4.6495Y-3.7755
X-4.6409Y-4.0097
X-4.575Y-4.025
X-4.5Y-2.9
X-4.475Y-3.7
X-4.45Y-2.625
X-4.45Y-2.95
X-4.4472Y-2.2278
X-4.4Y-2.325
X-4.4Y-2.55
X-4.4Y-2.625
X-4.4Y-3.25
X-4.375Y-2.1
X-4.375Y-2.975
X-4.375Y-3.55
X-4.375Y-3.65
X-4.35Y-2.35
X-4.35Y-4.025
X-4.325Y-2.275
X-4.3Y-2.1998
X-4.25Y-2.25
X-4.25Y-2.325
X-4.25Y-2.6
X-4.25Y-2.825
X-4.225Y-2.125
X-4.225Y-2.175
X-4.225Y-2.225
X-4.225Y-2.625
X-4.225Y-2.95
X-4.225Y-3.25
X-4.225Y-3.375
X-4.225Y-3.475
X-4.2Y-2.425
X-4.2Y-2.65
X-4.2Y-3.275
X-4.175Y-1.75
X-4.125Y-3.55
X-4.1Y-3.25
X-4.075Y-2.275
X-4.075Y-3.125
T2
X-7.1Y-4.55
X-6.95Y-4.55
X-6.925Y-4.625
X-6.775Y-4.65
T3
X-6.925Y-1.075
X-6.925Y-1.375
X-6.825Y-1.075
X-6.825Y-1.375
X-6.725Y-1.075
X-6.725Y-1.375
X-6.625Y-1.075
X-6.625Y-1.375
X-6.525Y-1.075
X-6.525Y-1.375
X-6.425Y-1.075
X-6.425Y-1.375
X-6.325Y-1.075
X-6.325Y-1.375
X-6.225Y-1.075
X-6.225Y-1.375
X-5.6Y-1.1
X-5.6Y-1.2
X-5.6Y-1.3
X-5.6Y-1.4
X-5.6Y-1.5
X-5.6Y-1.6
X-5.6Y-1.7
X-5.6Y-1.8
X-5.3Y-1.1
X-5.3Y-1.2
X-5.3Y-1.3
X-5.3Y-1.4
X-5.3Y-1.5
X-5.3Y-1.6
X-5.3Y-1.7
X-5.3Y-1.8
T4
X-6.45Y-4.75
X-6.35Y-4.75
X-4.65Y-1.1
X-4.65Y-1.2
X-4.65Y-1.3
X-4.65Y-1.4
X-4.65Y-1.5
X-4.65Y-1.6
X-4.65Y-1.7
X-4.65Y-1.8
X-4.65Y-1.9
X-7.85Y-1.45
X-7.85Y-1.55
X-5.775Y-1.1
X-5.775Y-1.2
X-5.775Y-1.3
X-5.775Y-1.4
X-5.775Y-1.5
X-5.775Y-1.6
X-5.775Y-1.7
X-5.775Y-1.8
X-5.775Y-1.9
T5
X-7.75Y-3.675
X-7.75Y-3.8522
X-7.4941Y-3.675
X-7.4941Y-3.8522
X-7.75Y-4.55
X-7.75Y-4.7272
X-7.4941Y-4.55
X-7.4941Y-4.7272
X-7.75Y-2.825
X-7.75Y-3.0022
X-7.4941Y-2.825
X-7.4941Y-3.0022
X-7.75Y-3.25
X-7.75Y-3.4272
X-7.4941Y-3.25
X-7.4941Y-3.4272
X-7.75Y-4.1
X-7.75Y-4.2772
X-7.4941Y-4.1
X-7.4941Y-4.2772
T4
G00X-7.6112Y-1.1106
M15
G01X-7.6112Y-1.1894
M16
G05
G00X-7.5325Y-1.335
M15
G01X-7.4537Y-1.335
M16
G05
G00X-7.375Y-1.1106
M15
G01X-7.375Y-1.1894
M16
G05
T0
M30
