G04 #@! TF.GenerationSoftware,KiCad,Pcbnew,(5.1.5)-3*
G04 #@! TF.CreationDate,2021-02-03T19:11:55+01:00*
G04 #@! TF.ProjectId,psMCU,70734d43-552e-46b6-9963-61645f706362,rev?*
G04 #@! TF.SameCoordinates,Original*
G04 #@! TF.FileFunction,Soldermask,Bot*
G04 #@! TF.FilePolarity,Negative*
%FSLAX46Y46*%
G04 Gerber Fmt 4.6, Leading zero omitted, Abs format (unit mm)*
G04 Created by KiCad (PCBNEW (5.1.5)-3) date 2021-02-03 19:11:55*
%MOMM*%
%LPD*%
G04 APERTURE LIST*
%ADD10C,0.100000*%
G04 APERTURE END LIST*
D10*
G36*
X-162929000Y-121551000D02*
G01*
X-164731000Y-121551000D01*
X-164731000Y-119749000D01*
X-162929000Y-119749000D01*
X-162929000Y-121551000D01*
G37*
G36*
X-161176488Y-119753927D02*
G01*
X-161027188Y-119783624D01*
X-160863216Y-119851544D01*
X-160715646Y-119950147D01*
X-160590147Y-120075646D01*
X-160491544Y-120223216D01*
X-160423624Y-120387188D01*
X-160389000Y-120561259D01*
X-160389000Y-120738741D01*
X-160423624Y-120912812D01*
X-160491544Y-121076784D01*
X-160590147Y-121224354D01*
X-160715646Y-121349853D01*
X-160863216Y-121448456D01*
X-161027188Y-121516376D01*
X-161176488Y-121546073D01*
X-161201258Y-121551000D01*
X-161378742Y-121551000D01*
X-161403512Y-121546073D01*
X-161552812Y-121516376D01*
X-161716784Y-121448456D01*
X-161864354Y-121349853D01*
X-161989853Y-121224354D01*
X-162088456Y-121076784D01*
X-162156376Y-120912812D01*
X-162191000Y-120738741D01*
X-162191000Y-120561259D01*
X-162156376Y-120387188D01*
X-162088456Y-120223216D01*
X-161989853Y-120075646D01*
X-161864354Y-119950147D01*
X-161716784Y-119851544D01*
X-161552812Y-119783624D01*
X-161403512Y-119753927D01*
X-161378742Y-119749000D01*
X-161201258Y-119749000D01*
X-161176488Y-119753927D01*
G37*
G36*
X-190043436Y-119059389D02*
G01*
X-189852167Y-119138615D01*
X-189852165Y-119138616D01*
X-189680027Y-119253635D01*
X-189533635Y-119400027D01*
X-189418615Y-119572167D01*
X-189339389Y-119763436D01*
X-189299000Y-119966484D01*
X-189299000Y-120173516D01*
X-189339389Y-120376564D01*
X-189415892Y-120561258D01*
X-189418616Y-120567835D01*
X-189533635Y-120739973D01*
X-189680027Y-120886365D01*
X-189852165Y-121001384D01*
X-189852166Y-121001385D01*
X-189852167Y-121001385D01*
X-190043436Y-121080611D01*
X-190246484Y-121121000D01*
X-190453516Y-121121000D01*
X-190656564Y-121080611D01*
X-190847833Y-121001385D01*
X-190847834Y-121001385D01*
X-190847835Y-121001384D01*
X-191019973Y-120886365D01*
X-191166365Y-120739973D01*
X-191281384Y-120567835D01*
X-191284108Y-120561258D01*
X-191360611Y-120376564D01*
X-191401000Y-120173516D01*
X-191401000Y-119966484D01*
X-191360611Y-119763436D01*
X-191281385Y-119572167D01*
X-191166365Y-119400027D01*
X-191019973Y-119253635D01*
X-190847835Y-119138616D01*
X-190847833Y-119138615D01*
X-190656564Y-119059389D01*
X-190453516Y-119019000D01*
X-190246484Y-119019000D01*
X-190043436Y-119059389D01*
G37*
G36*
X-196543436Y-119059389D02*
G01*
X-196352167Y-119138615D01*
X-196352165Y-119138616D01*
X-196180027Y-119253635D01*
X-196033635Y-119400027D01*
X-195918615Y-119572167D01*
X-195839389Y-119763436D01*
X-195799000Y-119966484D01*
X-195799000Y-120173516D01*
X-195839389Y-120376564D01*
X-195915892Y-120561258D01*
X-195918616Y-120567835D01*
X-196033635Y-120739973D01*
X-196180027Y-120886365D01*
X-196352165Y-121001384D01*
X-196352166Y-121001385D01*
X-196352167Y-121001385D01*
X-196543436Y-121080611D01*
X-196746484Y-121121000D01*
X-196953516Y-121121000D01*
X-197156564Y-121080611D01*
X-197347833Y-121001385D01*
X-197347834Y-121001385D01*
X-197347835Y-121001384D01*
X-197519973Y-120886365D01*
X-197666365Y-120739973D01*
X-197781384Y-120567835D01*
X-197784108Y-120561258D01*
X-197860611Y-120376564D01*
X-197901000Y-120173516D01*
X-197901000Y-119966484D01*
X-197860611Y-119763436D01*
X-197781385Y-119572167D01*
X-197666365Y-119400027D01*
X-197519973Y-119253635D01*
X-197347835Y-119138616D01*
X-197347833Y-119138615D01*
X-197156564Y-119059389D01*
X-196953516Y-119019000D01*
X-196746484Y-119019000D01*
X-196543436Y-119059389D01*
G37*
G36*
X-196543436Y-114559389D02*
G01*
X-196352167Y-114638615D01*
X-196352165Y-114638616D01*
X-196180027Y-114753635D01*
X-196033635Y-114900027D01*
X-195918615Y-115072167D01*
X-195839389Y-115263436D01*
X-195799000Y-115466484D01*
X-195799000Y-115673516D01*
X-195839389Y-115876564D01*
X-195918615Y-116067833D01*
X-195918616Y-116067835D01*
X-196033635Y-116239973D01*
X-196180027Y-116386365D01*
X-196352165Y-116501384D01*
X-196352166Y-116501385D01*
X-196352167Y-116501385D01*
X-196543436Y-116580611D01*
X-196746484Y-116621000D01*
X-196953516Y-116621000D01*
X-197156564Y-116580611D01*
X-197347833Y-116501385D01*
X-197347834Y-116501385D01*
X-197347835Y-116501384D01*
X-197519973Y-116386365D01*
X-197666365Y-116239973D01*
X-197781384Y-116067835D01*
X-197781385Y-116067833D01*
X-197860611Y-115876564D01*
X-197901000Y-115673516D01*
X-197901000Y-115466484D01*
X-197860611Y-115263436D01*
X-197781385Y-115072167D01*
X-197666365Y-114900027D01*
X-197519973Y-114753635D01*
X-197347835Y-114638616D01*
X-197347833Y-114638615D01*
X-197156564Y-114559389D01*
X-196953516Y-114519000D01*
X-196746484Y-114519000D01*
X-196543436Y-114559389D01*
G37*
G36*
X-190043436Y-114559389D02*
G01*
X-189852167Y-114638615D01*
X-189852165Y-114638616D01*
X-189680027Y-114753635D01*
X-189533635Y-114900027D01*
X-189418615Y-115072167D01*
X-189339389Y-115263436D01*
X-189299000Y-115466484D01*
X-189299000Y-115673516D01*
X-189339389Y-115876564D01*
X-189418615Y-116067833D01*
X-189418616Y-116067835D01*
X-189533635Y-116239973D01*
X-189680027Y-116386365D01*
X-189852165Y-116501384D01*
X-189852166Y-116501385D01*
X-189852167Y-116501385D01*
X-190043436Y-116580611D01*
X-190246484Y-116621000D01*
X-190453516Y-116621000D01*
X-190656564Y-116580611D01*
X-190847833Y-116501385D01*
X-190847834Y-116501385D01*
X-190847835Y-116501384D01*
X-191019973Y-116386365D01*
X-191166365Y-116239973D01*
X-191281384Y-116067835D01*
X-191281385Y-116067833D01*
X-191360611Y-115876564D01*
X-191401000Y-115673516D01*
X-191401000Y-115466484D01*
X-191360611Y-115263436D01*
X-191281385Y-115072167D01*
X-191166365Y-114900027D01*
X-191019973Y-114753635D01*
X-190847835Y-114638616D01*
X-190847833Y-114638615D01*
X-190656564Y-114559389D01*
X-190453516Y-114519000D01*
X-190246484Y-114519000D01*
X-190043436Y-114559389D01*
G37*
G36*
X-190043436Y-107629389D02*
G01*
X-189852167Y-107708615D01*
X-189852165Y-107708616D01*
X-189680027Y-107823635D01*
X-189533635Y-107970027D01*
X-189418615Y-108142167D01*
X-189339389Y-108333436D01*
X-189299000Y-108536484D01*
X-189299000Y-108743516D01*
X-189339389Y-108946564D01*
X-189418615Y-109137833D01*
X-189418616Y-109137835D01*
X-189533635Y-109309973D01*
X-189680027Y-109456365D01*
X-189852165Y-109571384D01*
X-189852166Y-109571385D01*
X-189852167Y-109571385D01*
X-190043436Y-109650611D01*
X-190246484Y-109691000D01*
X-190453516Y-109691000D01*
X-190656564Y-109650611D01*
X-190847833Y-109571385D01*
X-190847834Y-109571385D01*
X-190847835Y-109571384D01*
X-191019973Y-109456365D01*
X-191166365Y-109309973D01*
X-191281384Y-109137835D01*
X-191281385Y-109137833D01*
X-191360611Y-108946564D01*
X-191401000Y-108743516D01*
X-191401000Y-108536484D01*
X-191360611Y-108333436D01*
X-191281385Y-108142167D01*
X-191166365Y-107970027D01*
X-191019973Y-107823635D01*
X-190847835Y-107708616D01*
X-190847833Y-107708615D01*
X-190656564Y-107629389D01*
X-190453516Y-107589000D01*
X-190246484Y-107589000D01*
X-190043436Y-107629389D01*
G37*
G36*
X-196543436Y-107629389D02*
G01*
X-196352167Y-107708615D01*
X-196352165Y-107708616D01*
X-196180027Y-107823635D01*
X-196033635Y-107970027D01*
X-195918615Y-108142167D01*
X-195839389Y-108333436D01*
X-195799000Y-108536484D01*
X-195799000Y-108743516D01*
X-195839389Y-108946564D01*
X-195918615Y-109137833D01*
X-195918616Y-109137835D01*
X-196033635Y-109309973D01*
X-196180027Y-109456365D01*
X-196352165Y-109571384D01*
X-196352166Y-109571385D01*
X-196352167Y-109571385D01*
X-196543436Y-109650611D01*
X-196746484Y-109691000D01*
X-196953516Y-109691000D01*
X-197156564Y-109650611D01*
X-197347833Y-109571385D01*
X-197347834Y-109571385D01*
X-197347835Y-109571384D01*
X-197519973Y-109456365D01*
X-197666365Y-109309973D01*
X-197781384Y-109137835D01*
X-197781385Y-109137833D01*
X-197860611Y-108946564D01*
X-197901000Y-108743516D01*
X-197901000Y-108536484D01*
X-197860611Y-108333436D01*
X-197781385Y-108142167D01*
X-197666365Y-107970027D01*
X-197519973Y-107823635D01*
X-197347835Y-107708616D01*
X-197347833Y-107708615D01*
X-197156564Y-107629389D01*
X-196953516Y-107589000D01*
X-196746484Y-107589000D01*
X-196543436Y-107629389D01*
G37*
G36*
X-196543436Y-103129389D02*
G01*
X-196352167Y-103208615D01*
X-196352165Y-103208616D01*
X-196180027Y-103323635D01*
X-196033635Y-103470027D01*
X-195918615Y-103642167D01*
X-195839389Y-103833436D01*
X-195799000Y-104036484D01*
X-195799000Y-104243516D01*
X-195839389Y-104446564D01*
X-195918615Y-104637833D01*
X-195918616Y-104637835D01*
X-196033635Y-104809973D01*
X-196180027Y-104956365D01*
X-196352165Y-105071384D01*
X-196352166Y-105071385D01*
X-196352167Y-105071385D01*
X-196543436Y-105150611D01*
X-196746484Y-105191000D01*
X-196953516Y-105191000D01*
X-197156564Y-105150611D01*
X-197347833Y-105071385D01*
X-197347834Y-105071385D01*
X-197347835Y-105071384D01*
X-197519973Y-104956365D01*
X-197666365Y-104809973D01*
X-197781384Y-104637835D01*
X-197781385Y-104637833D01*
X-197860611Y-104446564D01*
X-197901000Y-104243516D01*
X-197901000Y-104036484D01*
X-197860611Y-103833436D01*
X-197781385Y-103642167D01*
X-197666365Y-103470027D01*
X-197519973Y-103323635D01*
X-197347835Y-103208616D01*
X-197347833Y-103208615D01*
X-197156564Y-103129389D01*
X-196953516Y-103089000D01*
X-196746484Y-103089000D01*
X-196543436Y-103129389D01*
G37*
G36*
X-190043436Y-103129389D02*
G01*
X-189852167Y-103208615D01*
X-189852165Y-103208616D01*
X-189680027Y-103323635D01*
X-189533635Y-103470027D01*
X-189418615Y-103642167D01*
X-189339389Y-103833436D01*
X-189299000Y-104036484D01*
X-189299000Y-104243516D01*
X-189339389Y-104446564D01*
X-189418615Y-104637833D01*
X-189418616Y-104637835D01*
X-189533635Y-104809973D01*
X-189680027Y-104956365D01*
X-189852165Y-105071384D01*
X-189852166Y-105071385D01*
X-189852167Y-105071385D01*
X-190043436Y-105150611D01*
X-190246484Y-105191000D01*
X-190453516Y-105191000D01*
X-190656564Y-105150611D01*
X-190847833Y-105071385D01*
X-190847834Y-105071385D01*
X-190847835Y-105071384D01*
X-191019973Y-104956365D01*
X-191166365Y-104809973D01*
X-191281384Y-104637835D01*
X-191281385Y-104637833D01*
X-191360611Y-104446564D01*
X-191401000Y-104243516D01*
X-191401000Y-104036484D01*
X-191360611Y-103833436D01*
X-191281385Y-103642167D01*
X-191166365Y-103470027D01*
X-191019973Y-103323635D01*
X-190847835Y-103208616D01*
X-190847833Y-103208615D01*
X-190656564Y-103129389D01*
X-190453516Y-103089000D01*
X-190246484Y-103089000D01*
X-190043436Y-103129389D01*
G37*
G36*
X-190043436Y-96834389D02*
G01*
X-189852167Y-96913615D01*
X-189852165Y-96913616D01*
X-189680027Y-97028635D01*
X-189533635Y-97175027D01*
X-189418615Y-97347167D01*
X-189339389Y-97538436D01*
X-189299000Y-97741484D01*
X-189299000Y-97948516D01*
X-189339389Y-98151564D01*
X-189418615Y-98342833D01*
X-189418616Y-98342835D01*
X-189533635Y-98514973D01*
X-189680027Y-98661365D01*
X-189852165Y-98776384D01*
X-189852166Y-98776385D01*
X-189852167Y-98776385D01*
X-190043436Y-98855611D01*
X-190246484Y-98896000D01*
X-190453516Y-98896000D01*
X-190656564Y-98855611D01*
X-190847833Y-98776385D01*
X-190847834Y-98776385D01*
X-190847835Y-98776384D01*
X-191019973Y-98661365D01*
X-191166365Y-98514973D01*
X-191281384Y-98342835D01*
X-191281385Y-98342833D01*
X-191360611Y-98151564D01*
X-191401000Y-97948516D01*
X-191401000Y-97741484D01*
X-191360611Y-97538436D01*
X-191281385Y-97347167D01*
X-191166365Y-97175027D01*
X-191019973Y-97028635D01*
X-190847835Y-96913616D01*
X-190847833Y-96913615D01*
X-190656564Y-96834389D01*
X-190453516Y-96794000D01*
X-190246484Y-96794000D01*
X-190043436Y-96834389D01*
G37*
G36*
X-196543436Y-96834389D02*
G01*
X-196352167Y-96913615D01*
X-196352165Y-96913616D01*
X-196180027Y-97028635D01*
X-196033635Y-97175027D01*
X-195918615Y-97347167D01*
X-195839389Y-97538436D01*
X-195799000Y-97741484D01*
X-195799000Y-97948516D01*
X-195839389Y-98151564D01*
X-195918615Y-98342833D01*
X-195918616Y-98342835D01*
X-196033635Y-98514973D01*
X-196180027Y-98661365D01*
X-196352165Y-98776384D01*
X-196352166Y-98776385D01*
X-196352167Y-98776385D01*
X-196543436Y-98855611D01*
X-196746484Y-98896000D01*
X-196953516Y-98896000D01*
X-197156564Y-98855611D01*
X-197347833Y-98776385D01*
X-197347834Y-98776385D01*
X-197347835Y-98776384D01*
X-197519973Y-98661365D01*
X-197666365Y-98514973D01*
X-197781384Y-98342835D01*
X-197781385Y-98342833D01*
X-197860611Y-98151564D01*
X-197901000Y-97948516D01*
X-197901000Y-97741484D01*
X-197860611Y-97538436D01*
X-197781385Y-97347167D01*
X-197666365Y-97175027D01*
X-197519973Y-97028635D01*
X-197347835Y-96913616D01*
X-197347833Y-96913615D01*
X-197156564Y-96834389D01*
X-196953516Y-96794000D01*
X-196746484Y-96794000D01*
X-196543436Y-96834389D01*
G37*
G36*
X-190043436Y-92334389D02*
G01*
X-189852167Y-92413615D01*
X-189852165Y-92413616D01*
X-189680027Y-92528635D01*
X-189533635Y-92675027D01*
X-189418615Y-92847167D01*
X-189339389Y-93038436D01*
X-189299000Y-93241484D01*
X-189299000Y-93448516D01*
X-189339389Y-93651564D01*
X-189418615Y-93842833D01*
X-189418616Y-93842835D01*
X-189533635Y-94014973D01*
X-189680027Y-94161365D01*
X-189852165Y-94276384D01*
X-189852166Y-94276385D01*
X-189852167Y-94276385D01*
X-190043436Y-94355611D01*
X-190246484Y-94396000D01*
X-190453516Y-94396000D01*
X-190656564Y-94355611D01*
X-190847833Y-94276385D01*
X-190847834Y-94276385D01*
X-190847835Y-94276384D01*
X-191019973Y-94161365D01*
X-191166365Y-94014973D01*
X-191281384Y-93842835D01*
X-191281385Y-93842833D01*
X-191360611Y-93651564D01*
X-191401000Y-93448516D01*
X-191401000Y-93241484D01*
X-191360611Y-93038436D01*
X-191281385Y-92847167D01*
X-191166365Y-92675027D01*
X-191019973Y-92528635D01*
X-190847835Y-92413616D01*
X-190847833Y-92413615D01*
X-190656564Y-92334389D01*
X-190453516Y-92294000D01*
X-190246484Y-92294000D01*
X-190043436Y-92334389D01*
G37*
G36*
X-196543436Y-92334389D02*
G01*
X-196352167Y-92413615D01*
X-196352165Y-92413616D01*
X-196180027Y-92528635D01*
X-196033635Y-92675027D01*
X-195918615Y-92847167D01*
X-195839389Y-93038436D01*
X-195799000Y-93241484D01*
X-195799000Y-93448516D01*
X-195839389Y-93651564D01*
X-195918615Y-93842833D01*
X-195918616Y-93842835D01*
X-196033635Y-94014973D01*
X-196180027Y-94161365D01*
X-196352165Y-94276384D01*
X-196352166Y-94276385D01*
X-196352167Y-94276385D01*
X-196543436Y-94355611D01*
X-196746484Y-94396000D01*
X-196953516Y-94396000D01*
X-197156564Y-94355611D01*
X-197347833Y-94276385D01*
X-197347834Y-94276385D01*
X-197347835Y-94276384D01*
X-197519973Y-94161365D01*
X-197666365Y-94014973D01*
X-197781384Y-93842835D01*
X-197781385Y-93842833D01*
X-197860611Y-93651564D01*
X-197901000Y-93448516D01*
X-197901000Y-93241484D01*
X-197860611Y-93038436D01*
X-197781385Y-92847167D01*
X-197666365Y-92675027D01*
X-197519973Y-92528635D01*
X-197347835Y-92413616D01*
X-197347833Y-92413615D01*
X-197156564Y-92334389D01*
X-196953516Y-92294000D01*
X-196746484Y-92294000D01*
X-196543436Y-92334389D01*
G37*
G36*
X-196543436Y-86039389D02*
G01*
X-196352167Y-86118615D01*
X-196352165Y-86118616D01*
X-196180027Y-86233635D01*
X-196033635Y-86380027D01*
X-195918615Y-86552167D01*
X-195839389Y-86743436D01*
X-195799000Y-86946484D01*
X-195799000Y-87153516D01*
X-195839389Y-87356564D01*
X-195918615Y-87547833D01*
X-195918616Y-87547835D01*
X-196033635Y-87719973D01*
X-196180027Y-87866365D01*
X-196352165Y-87981384D01*
X-196352166Y-87981385D01*
X-196352167Y-87981385D01*
X-196543436Y-88060611D01*
X-196746484Y-88101000D01*
X-196953516Y-88101000D01*
X-197156564Y-88060611D01*
X-197347833Y-87981385D01*
X-197347834Y-87981385D01*
X-197347835Y-87981384D01*
X-197519973Y-87866365D01*
X-197666365Y-87719973D01*
X-197781384Y-87547835D01*
X-197781385Y-87547833D01*
X-197860611Y-87356564D01*
X-197901000Y-87153516D01*
X-197901000Y-86946484D01*
X-197860611Y-86743436D01*
X-197781385Y-86552167D01*
X-197666365Y-86380027D01*
X-197519973Y-86233635D01*
X-197347835Y-86118616D01*
X-197347833Y-86118615D01*
X-197156564Y-86039389D01*
X-196953516Y-85999000D01*
X-196746484Y-85999000D01*
X-196543436Y-86039389D01*
G37*
G36*
X-190043436Y-86039389D02*
G01*
X-189852167Y-86118615D01*
X-189852165Y-86118616D01*
X-189680027Y-86233635D01*
X-189533635Y-86380027D01*
X-189418615Y-86552167D01*
X-189339389Y-86743436D01*
X-189299000Y-86946484D01*
X-189299000Y-87153516D01*
X-189339389Y-87356564D01*
X-189418615Y-87547833D01*
X-189418616Y-87547835D01*
X-189533635Y-87719973D01*
X-189680027Y-87866365D01*
X-189852165Y-87981384D01*
X-189852166Y-87981385D01*
X-189852167Y-87981385D01*
X-190043436Y-88060611D01*
X-190246484Y-88101000D01*
X-190453516Y-88101000D01*
X-190656564Y-88060611D01*
X-190847833Y-87981385D01*
X-190847834Y-87981385D01*
X-190847835Y-87981384D01*
X-191019973Y-87866365D01*
X-191166365Y-87719973D01*
X-191281384Y-87547835D01*
X-191281385Y-87547833D01*
X-191360611Y-87356564D01*
X-191401000Y-87153516D01*
X-191401000Y-86946484D01*
X-191360611Y-86743436D01*
X-191281385Y-86552167D01*
X-191166365Y-86380027D01*
X-191019973Y-86233635D01*
X-190847835Y-86118616D01*
X-190847833Y-86118615D01*
X-190656564Y-86039389D01*
X-190453516Y-85999000D01*
X-190246484Y-85999000D01*
X-190043436Y-86039389D01*
G37*
G36*
X-190043436Y-81539389D02*
G01*
X-189852167Y-81618615D01*
X-189852165Y-81618616D01*
X-189680027Y-81733635D01*
X-189533635Y-81880027D01*
X-189418615Y-82052167D01*
X-189339389Y-82243436D01*
X-189299000Y-82446484D01*
X-189299000Y-82653516D01*
X-189339389Y-82856564D01*
X-189418615Y-83047833D01*
X-189418616Y-83047835D01*
X-189533635Y-83219973D01*
X-189680027Y-83366365D01*
X-189852165Y-83481384D01*
X-189852166Y-83481385D01*
X-189852167Y-83481385D01*
X-190043436Y-83560611D01*
X-190246484Y-83601000D01*
X-190453516Y-83601000D01*
X-190656564Y-83560611D01*
X-190847833Y-83481385D01*
X-190847834Y-83481385D01*
X-190847835Y-83481384D01*
X-191019973Y-83366365D01*
X-191166365Y-83219973D01*
X-191281384Y-83047835D01*
X-191281385Y-83047833D01*
X-191360611Y-82856564D01*
X-191401000Y-82653516D01*
X-191401000Y-82446484D01*
X-191360611Y-82243436D01*
X-191281385Y-82052167D01*
X-191166365Y-81880027D01*
X-191019973Y-81733635D01*
X-190847835Y-81618616D01*
X-190847833Y-81618615D01*
X-190656564Y-81539389D01*
X-190453516Y-81499000D01*
X-190246484Y-81499000D01*
X-190043436Y-81539389D01*
G37*
G36*
X-196543436Y-81539389D02*
G01*
X-196352167Y-81618615D01*
X-196352165Y-81618616D01*
X-196180027Y-81733635D01*
X-196033635Y-81880027D01*
X-195918615Y-82052167D01*
X-195839389Y-82243436D01*
X-195799000Y-82446484D01*
X-195799000Y-82653516D01*
X-195839389Y-82856564D01*
X-195918615Y-83047833D01*
X-195918616Y-83047835D01*
X-196033635Y-83219973D01*
X-196180027Y-83366365D01*
X-196352165Y-83481384D01*
X-196352166Y-83481385D01*
X-196352167Y-83481385D01*
X-196543436Y-83560611D01*
X-196746484Y-83601000D01*
X-196953516Y-83601000D01*
X-197156564Y-83560611D01*
X-197347833Y-83481385D01*
X-197347834Y-83481385D01*
X-197347835Y-83481384D01*
X-197519973Y-83366365D01*
X-197666365Y-83219973D01*
X-197781384Y-83047835D01*
X-197781385Y-83047833D01*
X-197860611Y-82856564D01*
X-197901000Y-82653516D01*
X-197901000Y-82446484D01*
X-197860611Y-82243436D01*
X-197781385Y-82052167D01*
X-197666365Y-81880027D01*
X-197519973Y-81733635D01*
X-197347835Y-81618616D01*
X-197347833Y-81618615D01*
X-197156564Y-81539389D01*
X-196953516Y-81499000D01*
X-196746484Y-81499000D01*
X-196543436Y-81539389D01*
G37*
G36*
X-190043436Y-75244389D02*
G01*
X-189852167Y-75323615D01*
X-189852165Y-75323616D01*
X-189680027Y-75438635D01*
X-189533635Y-75585027D01*
X-189418615Y-75757167D01*
X-189339389Y-75948436D01*
X-189299000Y-76151484D01*
X-189299000Y-76358516D01*
X-189339389Y-76561564D01*
X-189418615Y-76752833D01*
X-189418616Y-76752835D01*
X-189533635Y-76924973D01*
X-189680027Y-77071365D01*
X-189852165Y-77186384D01*
X-189852166Y-77186385D01*
X-189852167Y-77186385D01*
X-190043436Y-77265611D01*
X-190246484Y-77306000D01*
X-190453516Y-77306000D01*
X-190656564Y-77265611D01*
X-190847833Y-77186385D01*
X-190847834Y-77186385D01*
X-190847835Y-77186384D01*
X-191019973Y-77071365D01*
X-191166365Y-76924973D01*
X-191281384Y-76752835D01*
X-191281385Y-76752833D01*
X-191360611Y-76561564D01*
X-191401000Y-76358516D01*
X-191401000Y-76151484D01*
X-191360611Y-75948436D01*
X-191281385Y-75757167D01*
X-191166365Y-75585027D01*
X-191019973Y-75438635D01*
X-190847835Y-75323616D01*
X-190847833Y-75323615D01*
X-190656564Y-75244389D01*
X-190453516Y-75204000D01*
X-190246484Y-75204000D01*
X-190043436Y-75244389D01*
G37*
G36*
X-196543436Y-75244389D02*
G01*
X-196352167Y-75323615D01*
X-196352165Y-75323616D01*
X-196180027Y-75438635D01*
X-196033635Y-75585027D01*
X-195918615Y-75757167D01*
X-195839389Y-75948436D01*
X-195799000Y-76151484D01*
X-195799000Y-76358516D01*
X-195839389Y-76561564D01*
X-195918615Y-76752833D01*
X-195918616Y-76752835D01*
X-196033635Y-76924973D01*
X-196180027Y-77071365D01*
X-196352165Y-77186384D01*
X-196352166Y-77186385D01*
X-196352167Y-77186385D01*
X-196543436Y-77265611D01*
X-196746484Y-77306000D01*
X-196953516Y-77306000D01*
X-197156564Y-77265611D01*
X-197347833Y-77186385D01*
X-197347834Y-77186385D01*
X-197347835Y-77186384D01*
X-197519973Y-77071365D01*
X-197666365Y-76924973D01*
X-197781384Y-76752835D01*
X-197781385Y-76752833D01*
X-197860611Y-76561564D01*
X-197901000Y-76358516D01*
X-197901000Y-76151484D01*
X-197860611Y-75948436D01*
X-197781385Y-75757167D01*
X-197666365Y-75585027D01*
X-197519973Y-75438635D01*
X-197347835Y-75323616D01*
X-197347833Y-75323615D01*
X-197156564Y-75244389D01*
X-196953516Y-75204000D01*
X-196746484Y-75204000D01*
X-196543436Y-75244389D01*
G37*
G36*
X-190043436Y-70744389D02*
G01*
X-189852167Y-70823615D01*
X-189852165Y-70823616D01*
X-189680027Y-70938635D01*
X-189533635Y-71085027D01*
X-189418615Y-71257167D01*
X-189339389Y-71448436D01*
X-189299000Y-71651484D01*
X-189299000Y-71858516D01*
X-189339389Y-72061564D01*
X-189418615Y-72252833D01*
X-189418616Y-72252835D01*
X-189533635Y-72424973D01*
X-189680027Y-72571365D01*
X-189852165Y-72686384D01*
X-189852166Y-72686385D01*
X-189852167Y-72686385D01*
X-190043436Y-72765611D01*
X-190246484Y-72806000D01*
X-190453516Y-72806000D01*
X-190656564Y-72765611D01*
X-190847833Y-72686385D01*
X-190847834Y-72686385D01*
X-190847835Y-72686384D01*
X-191019973Y-72571365D01*
X-191166365Y-72424973D01*
X-191281384Y-72252835D01*
X-191281385Y-72252833D01*
X-191360611Y-72061564D01*
X-191401000Y-71858516D01*
X-191401000Y-71651484D01*
X-191360611Y-71448436D01*
X-191281385Y-71257167D01*
X-191166365Y-71085027D01*
X-191019973Y-70938635D01*
X-190847835Y-70823616D01*
X-190847833Y-70823615D01*
X-190656564Y-70744389D01*
X-190453516Y-70704000D01*
X-190246484Y-70704000D01*
X-190043436Y-70744389D01*
G37*
G36*
X-196543436Y-70744389D02*
G01*
X-196352167Y-70823615D01*
X-196352165Y-70823616D01*
X-196180027Y-70938635D01*
X-196033635Y-71085027D01*
X-195918615Y-71257167D01*
X-195839389Y-71448436D01*
X-195799000Y-71651484D01*
X-195799000Y-71858516D01*
X-195839389Y-72061564D01*
X-195918615Y-72252833D01*
X-195918616Y-72252835D01*
X-196033635Y-72424973D01*
X-196180027Y-72571365D01*
X-196352165Y-72686384D01*
X-196352166Y-72686385D01*
X-196352167Y-72686385D01*
X-196543436Y-72765611D01*
X-196746484Y-72806000D01*
X-196953516Y-72806000D01*
X-197156564Y-72765611D01*
X-197347833Y-72686385D01*
X-197347834Y-72686385D01*
X-197347835Y-72686384D01*
X-197519973Y-72571365D01*
X-197666365Y-72424973D01*
X-197781384Y-72252835D01*
X-197781385Y-72252833D01*
X-197860611Y-72061564D01*
X-197901000Y-71858516D01*
X-197901000Y-71651484D01*
X-197860611Y-71448436D01*
X-197781385Y-71257167D01*
X-197666365Y-71085027D01*
X-197519973Y-70938635D01*
X-197347835Y-70823616D01*
X-197347833Y-70823615D01*
X-197156564Y-70744389D01*
X-196953516Y-70704000D01*
X-196746484Y-70704000D01*
X-196543436Y-70744389D01*
G37*
G36*
X-145784000Y-49161000D02*
G01*
X-147586000Y-49161000D01*
X-147586000Y-47359000D01*
X-145784000Y-47359000D01*
X-145784000Y-49161000D01*
G37*
G36*
X-117209000Y-49161000D02*
G01*
X-119011000Y-49161000D01*
X-119011000Y-47359000D01*
X-117209000Y-47359000D01*
X-117209000Y-49161000D01*
G37*
G36*
X-146571488Y-44823927D02*
G01*
X-146422188Y-44853624D01*
X-146258216Y-44921544D01*
X-146110646Y-45020147D01*
X-145985147Y-45145646D01*
X-145886544Y-45293216D01*
X-145818624Y-45457188D01*
X-145784000Y-45631259D01*
X-145784000Y-45808741D01*
X-145818624Y-45982812D01*
X-145886544Y-46146784D01*
X-145985147Y-46294354D01*
X-146110646Y-46419853D01*
X-146258216Y-46518456D01*
X-146422188Y-46586376D01*
X-146571488Y-46616073D01*
X-146596258Y-46621000D01*
X-146773742Y-46621000D01*
X-146798512Y-46616073D01*
X-146947812Y-46586376D01*
X-147111784Y-46518456D01*
X-147259354Y-46419853D01*
X-147384853Y-46294354D01*
X-147483456Y-46146784D01*
X-147551376Y-45982812D01*
X-147586000Y-45808741D01*
X-147586000Y-45631259D01*
X-147551376Y-45457188D01*
X-147483456Y-45293216D01*
X-147384853Y-45145646D01*
X-147259354Y-45020147D01*
X-147111784Y-44921544D01*
X-146947812Y-44853624D01*
X-146798512Y-44823927D01*
X-146773742Y-44819000D01*
X-146596258Y-44819000D01*
X-146571488Y-44823927D01*
G37*
G36*
X-117996488Y-44823927D02*
G01*
X-117847188Y-44853624D01*
X-117683216Y-44921544D01*
X-117535646Y-45020147D01*
X-117410147Y-45145646D01*
X-117311544Y-45293216D01*
X-117243624Y-45457188D01*
X-117209000Y-45631259D01*
X-117209000Y-45808741D01*
X-117243624Y-45982812D01*
X-117311544Y-46146784D01*
X-117410147Y-46294354D01*
X-117535646Y-46419853D01*
X-117683216Y-46518456D01*
X-117847188Y-46586376D01*
X-117996488Y-46616073D01*
X-118021258Y-46621000D01*
X-118198742Y-46621000D01*
X-118223512Y-46616073D01*
X-118372812Y-46586376D01*
X-118536784Y-46518456D01*
X-118684354Y-46419853D01*
X-118809853Y-46294354D01*
X-118908456Y-46146784D01*
X-118976376Y-45982812D01*
X-119011000Y-45808741D01*
X-119011000Y-45631259D01*
X-118976376Y-45457188D01*
X-118908456Y-45293216D01*
X-118809853Y-45145646D01*
X-118684354Y-45020147D01*
X-118536784Y-44921544D01*
X-118372812Y-44853624D01*
X-118223512Y-44823927D01*
X-118198742Y-44819000D01*
X-118021258Y-44819000D01*
X-117996488Y-44823927D01*
G37*
G36*
X-141991772Y-44901703D02*
G01*
X-141836900Y-44965853D01*
X-141697519Y-45058985D01*
X-141578985Y-45177519D01*
X-141485853Y-45316900D01*
X-141421703Y-45471772D01*
X-141389000Y-45636184D01*
X-141389000Y-45803816D01*
X-141421703Y-45968228D01*
X-141485853Y-46123100D01*
X-141578985Y-46262481D01*
X-141697519Y-46381015D01*
X-141836900Y-46474147D01*
X-141991772Y-46538297D01*
X-142156184Y-46571000D01*
X-142323816Y-46571000D01*
X-142488228Y-46538297D01*
X-142643100Y-46474147D01*
X-142782481Y-46381015D01*
X-142901015Y-46262481D01*
X-142994147Y-46123100D01*
X-143058297Y-45968228D01*
X-143091000Y-45803816D01*
X-143091000Y-45636184D01*
X-143058297Y-45471772D01*
X-142994147Y-45316900D01*
X-142901015Y-45177519D01*
X-142782481Y-45058985D01*
X-142643100Y-44965853D01*
X-142488228Y-44901703D01*
X-142323816Y-44869000D01*
X-142156184Y-44869000D01*
X-141991772Y-44901703D01*
G37*
G36*
X-134371772Y-44901703D02*
G01*
X-134216900Y-44965853D01*
X-134077519Y-45058985D01*
X-133958985Y-45177519D01*
X-133865853Y-45316900D01*
X-133801703Y-45471772D01*
X-133769000Y-45636184D01*
X-133769000Y-45803816D01*
X-133801703Y-45968228D01*
X-133865853Y-46123100D01*
X-133958985Y-46262481D01*
X-134077519Y-46381015D01*
X-134216900Y-46474147D01*
X-134371772Y-46538297D01*
X-134536184Y-46571000D01*
X-134703816Y-46571000D01*
X-134868228Y-46538297D01*
X-135023100Y-46474147D01*
X-135162481Y-46381015D01*
X-135281015Y-46262481D01*
X-135374147Y-46123100D01*
X-135438297Y-45968228D01*
X-135471000Y-45803816D01*
X-135471000Y-45636184D01*
X-135438297Y-45471772D01*
X-135374147Y-45316900D01*
X-135281015Y-45177519D01*
X-135162481Y-45058985D01*
X-135023100Y-44965853D01*
X-134868228Y-44901703D01*
X-134703816Y-44869000D01*
X-134536184Y-44869000D01*
X-134371772Y-44901703D01*
G37*
G36*
X-117996488Y-42283927D02*
G01*
X-117847188Y-42313624D01*
X-117683216Y-42381544D01*
X-117535646Y-42480147D01*
X-117410147Y-42605646D01*
X-117311544Y-42753216D01*
X-117243624Y-42917188D01*
X-117209000Y-43091259D01*
X-117209000Y-43268741D01*
X-117243624Y-43442812D01*
X-117311544Y-43606784D01*
X-117410147Y-43754354D01*
X-117535646Y-43879853D01*
X-117683216Y-43978456D01*
X-117847188Y-44046376D01*
X-117996488Y-44076073D01*
X-118021258Y-44081000D01*
X-118198742Y-44081000D01*
X-118223512Y-44076073D01*
X-118372812Y-44046376D01*
X-118536784Y-43978456D01*
X-118684354Y-43879853D01*
X-118809853Y-43754354D01*
X-118908456Y-43606784D01*
X-118976376Y-43442812D01*
X-119011000Y-43268741D01*
X-119011000Y-43091259D01*
X-118976376Y-42917188D01*
X-118908456Y-42753216D01*
X-118809853Y-42605646D01*
X-118684354Y-42480147D01*
X-118536784Y-42381544D01*
X-118372812Y-42313624D01*
X-118223512Y-42283927D01*
X-118198742Y-42279000D01*
X-118021258Y-42279000D01*
X-117996488Y-42283927D01*
G37*
G36*
X-146571488Y-42283927D02*
G01*
X-146422188Y-42313624D01*
X-146258216Y-42381544D01*
X-146110646Y-42480147D01*
X-145985147Y-42605646D01*
X-145886544Y-42753216D01*
X-145818624Y-42917188D01*
X-145784000Y-43091259D01*
X-145784000Y-43268741D01*
X-145818624Y-43442812D01*
X-145886544Y-43606784D01*
X-145985147Y-43754354D01*
X-146110646Y-43879853D01*
X-146258216Y-43978456D01*
X-146422188Y-44046376D01*
X-146571488Y-44076073D01*
X-146596258Y-44081000D01*
X-146773742Y-44081000D01*
X-146798512Y-44076073D01*
X-146947812Y-44046376D01*
X-147111784Y-43978456D01*
X-147259354Y-43879853D01*
X-147384853Y-43754354D01*
X-147483456Y-43606784D01*
X-147551376Y-43442812D01*
X-147586000Y-43268741D01*
X-147586000Y-43091259D01*
X-147551376Y-42917188D01*
X-147483456Y-42753216D01*
X-147384853Y-42605646D01*
X-147259354Y-42480147D01*
X-147111784Y-42381544D01*
X-146947812Y-42313624D01*
X-146798512Y-42283927D01*
X-146773742Y-42279000D01*
X-146596258Y-42279000D01*
X-146571488Y-42283927D01*
G37*
G36*
X-141991772Y-42361703D02*
G01*
X-141836900Y-42425853D01*
X-141697519Y-42518985D01*
X-141578985Y-42637519D01*
X-141485853Y-42776900D01*
X-141421703Y-42931772D01*
X-141389000Y-43096184D01*
X-141389000Y-43263816D01*
X-141421703Y-43428228D01*
X-141485853Y-43583100D01*
X-141578985Y-43722481D01*
X-141697519Y-43841015D01*
X-141836900Y-43934147D01*
X-141991772Y-43998297D01*
X-142156184Y-44031000D01*
X-142323816Y-44031000D01*
X-142488228Y-43998297D01*
X-142643100Y-43934147D01*
X-142782481Y-43841015D01*
X-142901015Y-43722481D01*
X-142994147Y-43583100D01*
X-143058297Y-43428228D01*
X-143091000Y-43263816D01*
X-143091000Y-43096184D01*
X-143058297Y-42931772D01*
X-142994147Y-42776900D01*
X-142901015Y-42637519D01*
X-142782481Y-42518985D01*
X-142643100Y-42425853D01*
X-142488228Y-42361703D01*
X-142323816Y-42329000D01*
X-142156184Y-42329000D01*
X-141991772Y-42361703D01*
G37*
G36*
X-134371772Y-42361703D02*
G01*
X-134216900Y-42425853D01*
X-134077519Y-42518985D01*
X-133958985Y-42637519D01*
X-133865853Y-42776900D01*
X-133801703Y-42931772D01*
X-133769000Y-43096184D01*
X-133769000Y-43263816D01*
X-133801703Y-43428228D01*
X-133865853Y-43583100D01*
X-133958985Y-43722481D01*
X-134077519Y-43841015D01*
X-134216900Y-43934147D01*
X-134371772Y-43998297D01*
X-134536184Y-44031000D01*
X-134703816Y-44031000D01*
X-134868228Y-43998297D01*
X-135023100Y-43934147D01*
X-135162481Y-43841015D01*
X-135281015Y-43722481D01*
X-135374147Y-43583100D01*
X-135438297Y-43428228D01*
X-135471000Y-43263816D01*
X-135471000Y-43096184D01*
X-135438297Y-42931772D01*
X-135374147Y-42776900D01*
X-135281015Y-42637519D01*
X-135162481Y-42518985D01*
X-135023100Y-42425853D01*
X-134868228Y-42361703D01*
X-134703816Y-42329000D01*
X-134536184Y-42329000D01*
X-134371772Y-42361703D01*
G37*
G36*
X-117996488Y-39743927D02*
G01*
X-117847188Y-39773624D01*
X-117683216Y-39841544D01*
X-117535646Y-39940147D01*
X-117410147Y-40065646D01*
X-117311544Y-40213216D01*
X-117243624Y-40377188D01*
X-117209000Y-40551259D01*
X-117209000Y-40728741D01*
X-117243624Y-40902812D01*
X-117311544Y-41066784D01*
X-117410147Y-41214354D01*
X-117535646Y-41339853D01*
X-117683216Y-41438456D01*
X-117847188Y-41506376D01*
X-117996488Y-41536073D01*
X-118021258Y-41541000D01*
X-118198742Y-41541000D01*
X-118223512Y-41536073D01*
X-118372812Y-41506376D01*
X-118536784Y-41438456D01*
X-118684354Y-41339853D01*
X-118809853Y-41214354D01*
X-118908456Y-41066784D01*
X-118976376Y-40902812D01*
X-119011000Y-40728741D01*
X-119011000Y-40551259D01*
X-118976376Y-40377188D01*
X-118908456Y-40213216D01*
X-118809853Y-40065646D01*
X-118684354Y-39940147D01*
X-118536784Y-39841544D01*
X-118372812Y-39773624D01*
X-118223512Y-39743927D01*
X-118198742Y-39739000D01*
X-118021258Y-39739000D01*
X-117996488Y-39743927D01*
G37*
G36*
X-146571488Y-39743927D02*
G01*
X-146422188Y-39773624D01*
X-146258216Y-39841544D01*
X-146110646Y-39940147D01*
X-145985147Y-40065646D01*
X-145886544Y-40213216D01*
X-145818624Y-40377188D01*
X-145784000Y-40551259D01*
X-145784000Y-40728741D01*
X-145818624Y-40902812D01*
X-145886544Y-41066784D01*
X-145985147Y-41214354D01*
X-146110646Y-41339853D01*
X-146258216Y-41438456D01*
X-146422188Y-41506376D01*
X-146571488Y-41536073D01*
X-146596258Y-41541000D01*
X-146773742Y-41541000D01*
X-146798512Y-41536073D01*
X-146947812Y-41506376D01*
X-147111784Y-41438456D01*
X-147259354Y-41339853D01*
X-147384853Y-41214354D01*
X-147483456Y-41066784D01*
X-147551376Y-40902812D01*
X-147586000Y-40728741D01*
X-147586000Y-40551259D01*
X-147551376Y-40377188D01*
X-147483456Y-40213216D01*
X-147384853Y-40065646D01*
X-147259354Y-39940147D01*
X-147111784Y-39841544D01*
X-146947812Y-39773624D01*
X-146798512Y-39743927D01*
X-146773742Y-39739000D01*
X-146596258Y-39739000D01*
X-146571488Y-39743927D01*
G37*
G36*
X-141991772Y-39821703D02*
G01*
X-141836900Y-39885853D01*
X-141697519Y-39978985D01*
X-141578985Y-40097519D01*
X-141485853Y-40236900D01*
X-141421703Y-40391772D01*
X-141389000Y-40556184D01*
X-141389000Y-40723816D01*
X-141421703Y-40888228D01*
X-141485853Y-41043100D01*
X-141578985Y-41182481D01*
X-141697519Y-41301015D01*
X-141836900Y-41394147D01*
X-141991772Y-41458297D01*
X-142156184Y-41491000D01*
X-142323816Y-41491000D01*
X-142488228Y-41458297D01*
X-142643100Y-41394147D01*
X-142782481Y-41301015D01*
X-142901015Y-41182481D01*
X-142994147Y-41043100D01*
X-143058297Y-40888228D01*
X-143091000Y-40723816D01*
X-143091000Y-40556184D01*
X-143058297Y-40391772D01*
X-142994147Y-40236900D01*
X-142901015Y-40097519D01*
X-142782481Y-39978985D01*
X-142643100Y-39885853D01*
X-142488228Y-39821703D01*
X-142323816Y-39789000D01*
X-142156184Y-39789000D01*
X-141991772Y-39821703D01*
G37*
G36*
X-134371772Y-39821703D02*
G01*
X-134216900Y-39885853D01*
X-134077519Y-39978985D01*
X-133958985Y-40097519D01*
X-133865853Y-40236900D01*
X-133801703Y-40391772D01*
X-133769000Y-40556184D01*
X-133769000Y-40723816D01*
X-133801703Y-40888228D01*
X-133865853Y-41043100D01*
X-133958985Y-41182481D01*
X-134077519Y-41301015D01*
X-134216900Y-41394147D01*
X-134371772Y-41458297D01*
X-134536184Y-41491000D01*
X-134703816Y-41491000D01*
X-134868228Y-41458297D01*
X-135023100Y-41394147D01*
X-135162481Y-41301015D01*
X-135281015Y-41182481D01*
X-135374147Y-41043100D01*
X-135438297Y-40888228D01*
X-135471000Y-40723816D01*
X-135471000Y-40556184D01*
X-135438297Y-40391772D01*
X-135374147Y-40236900D01*
X-135281015Y-40097519D01*
X-135162481Y-39978985D01*
X-135023100Y-39885853D01*
X-134868228Y-39821703D01*
X-134703816Y-39789000D01*
X-134536184Y-39789000D01*
X-134371772Y-39821703D01*
G37*
G36*
X-198489000Y-40271000D02*
G01*
X-200291000Y-40271000D01*
X-200291000Y-38469000D01*
X-198489000Y-38469000D01*
X-198489000Y-40271000D01*
G37*
G36*
X-146571488Y-37203927D02*
G01*
X-146422188Y-37233624D01*
X-146258216Y-37301544D01*
X-146110646Y-37400147D01*
X-145985147Y-37525646D01*
X-145886544Y-37673216D01*
X-145818624Y-37837188D01*
X-145784000Y-38011259D01*
X-145784000Y-38188741D01*
X-145818624Y-38362812D01*
X-145886544Y-38526784D01*
X-145985147Y-38674354D01*
X-146110646Y-38799853D01*
X-146258216Y-38898456D01*
X-146422188Y-38966376D01*
X-146571488Y-38996073D01*
X-146596258Y-39001000D01*
X-146773742Y-39001000D01*
X-146798512Y-38996073D01*
X-146947812Y-38966376D01*
X-147111784Y-38898456D01*
X-147259354Y-38799853D01*
X-147384853Y-38674354D01*
X-147483456Y-38526784D01*
X-147551376Y-38362812D01*
X-147586000Y-38188741D01*
X-147586000Y-38011259D01*
X-147551376Y-37837188D01*
X-147483456Y-37673216D01*
X-147384853Y-37525646D01*
X-147259354Y-37400147D01*
X-147111784Y-37301544D01*
X-146947812Y-37233624D01*
X-146798512Y-37203927D01*
X-146773742Y-37199000D01*
X-146596258Y-37199000D01*
X-146571488Y-37203927D01*
G37*
G36*
X-117996488Y-37203927D02*
G01*
X-117847188Y-37233624D01*
X-117683216Y-37301544D01*
X-117535646Y-37400147D01*
X-117410147Y-37525646D01*
X-117311544Y-37673216D01*
X-117243624Y-37837188D01*
X-117209000Y-38011259D01*
X-117209000Y-38188741D01*
X-117243624Y-38362812D01*
X-117311544Y-38526784D01*
X-117410147Y-38674354D01*
X-117535646Y-38799853D01*
X-117683216Y-38898456D01*
X-117847188Y-38966376D01*
X-117996488Y-38996073D01*
X-118021258Y-39001000D01*
X-118198742Y-39001000D01*
X-118223512Y-38996073D01*
X-118372812Y-38966376D01*
X-118536784Y-38898456D01*
X-118684354Y-38799853D01*
X-118809853Y-38674354D01*
X-118908456Y-38526784D01*
X-118976376Y-38362812D01*
X-119011000Y-38188741D01*
X-119011000Y-38011259D01*
X-118976376Y-37837188D01*
X-118908456Y-37673216D01*
X-118809853Y-37525646D01*
X-118684354Y-37400147D01*
X-118536784Y-37301544D01*
X-118372812Y-37233624D01*
X-118223512Y-37203927D01*
X-118198742Y-37199000D01*
X-118021258Y-37199000D01*
X-117996488Y-37203927D01*
G37*
G36*
X-141991772Y-37281703D02*
G01*
X-141836900Y-37345853D01*
X-141697519Y-37438985D01*
X-141578985Y-37557519D01*
X-141485853Y-37696900D01*
X-141421703Y-37851772D01*
X-141389000Y-38016184D01*
X-141389000Y-38183816D01*
X-141421703Y-38348228D01*
X-141485853Y-38503100D01*
X-141578985Y-38642481D01*
X-141697519Y-38761015D01*
X-141836900Y-38854147D01*
X-141991772Y-38918297D01*
X-142156184Y-38951000D01*
X-142323816Y-38951000D01*
X-142488228Y-38918297D01*
X-142643100Y-38854147D01*
X-142782481Y-38761015D01*
X-142901015Y-38642481D01*
X-142994147Y-38503100D01*
X-143058297Y-38348228D01*
X-143091000Y-38183816D01*
X-143091000Y-38016184D01*
X-143058297Y-37851772D01*
X-142994147Y-37696900D01*
X-142901015Y-37557519D01*
X-142782481Y-37438985D01*
X-142643100Y-37345853D01*
X-142488228Y-37281703D01*
X-142323816Y-37249000D01*
X-142156184Y-37249000D01*
X-141991772Y-37281703D01*
G37*
G36*
X-134371772Y-37281703D02*
G01*
X-134216900Y-37345853D01*
X-134077519Y-37438985D01*
X-133958985Y-37557519D01*
X-133865853Y-37696900D01*
X-133801703Y-37851772D01*
X-133769000Y-38016184D01*
X-133769000Y-38183816D01*
X-133801703Y-38348228D01*
X-133865853Y-38503100D01*
X-133958985Y-38642481D01*
X-134077519Y-38761015D01*
X-134216900Y-38854147D01*
X-134371772Y-38918297D01*
X-134536184Y-38951000D01*
X-134703816Y-38951000D01*
X-134868228Y-38918297D01*
X-135023100Y-38854147D01*
X-135162481Y-38761015D01*
X-135281015Y-38642481D01*
X-135374147Y-38503100D01*
X-135438297Y-38348228D01*
X-135471000Y-38183816D01*
X-135471000Y-38016184D01*
X-135438297Y-37851772D01*
X-135374147Y-37696900D01*
X-135281015Y-37557519D01*
X-135162481Y-37438985D01*
X-135023100Y-37345853D01*
X-134868228Y-37281703D01*
X-134703816Y-37249000D01*
X-134536184Y-37249000D01*
X-134371772Y-37281703D01*
G37*
G36*
X-199276488Y-35933927D02*
G01*
X-199127188Y-35963624D01*
X-198963216Y-36031544D01*
X-198815646Y-36130147D01*
X-198690147Y-36255646D01*
X-198591544Y-36403216D01*
X-198523624Y-36567188D01*
X-198489000Y-36741259D01*
X-198489000Y-36918741D01*
X-198523624Y-37092812D01*
X-198591544Y-37256784D01*
X-198690147Y-37404354D01*
X-198815646Y-37529853D01*
X-198963216Y-37628456D01*
X-199127188Y-37696376D01*
X-199276488Y-37726073D01*
X-199301258Y-37731000D01*
X-199478742Y-37731000D01*
X-199503512Y-37726073D01*
X-199652812Y-37696376D01*
X-199816784Y-37628456D01*
X-199964354Y-37529853D01*
X-200089853Y-37404354D01*
X-200188456Y-37256784D01*
X-200256376Y-37092812D01*
X-200291000Y-36918741D01*
X-200291000Y-36741259D01*
X-200256376Y-36567188D01*
X-200188456Y-36403216D01*
X-200089853Y-36255646D01*
X-199964354Y-36130147D01*
X-199816784Y-36031544D01*
X-199652812Y-35963624D01*
X-199503512Y-35933927D01*
X-199478742Y-35929000D01*
X-199301258Y-35929000D01*
X-199276488Y-35933927D01*
G37*
G36*
X-146571488Y-34663927D02*
G01*
X-146422188Y-34693624D01*
X-146258216Y-34761544D01*
X-146110646Y-34860147D01*
X-145985147Y-34985646D01*
X-145886544Y-35133216D01*
X-145818624Y-35297188D01*
X-145788927Y-35446488D01*
X-145785219Y-35465128D01*
X-145784000Y-35471259D01*
X-145784000Y-35648741D01*
X-145818624Y-35822812D01*
X-145886544Y-35986784D01*
X-145985147Y-36134354D01*
X-146110646Y-36259853D01*
X-146258216Y-36358456D01*
X-146422188Y-36426376D01*
X-146571488Y-36456073D01*
X-146596258Y-36461000D01*
X-146773742Y-36461000D01*
X-146798512Y-36456073D01*
X-146947812Y-36426376D01*
X-147111784Y-36358456D01*
X-147259354Y-36259853D01*
X-147384853Y-36134354D01*
X-147483456Y-35986784D01*
X-147551376Y-35822812D01*
X-147586000Y-35648741D01*
X-147586000Y-35471259D01*
X-147584780Y-35465128D01*
X-147581073Y-35446488D01*
X-147551376Y-35297188D01*
X-147483456Y-35133216D01*
X-147384853Y-34985646D01*
X-147259354Y-34860147D01*
X-147111784Y-34761544D01*
X-146947812Y-34693624D01*
X-146798512Y-34663927D01*
X-146773742Y-34659000D01*
X-146596258Y-34659000D01*
X-146571488Y-34663927D01*
G37*
G36*
X-117996488Y-34663927D02*
G01*
X-117847188Y-34693624D01*
X-117683216Y-34761544D01*
X-117535646Y-34860147D01*
X-117410147Y-34985646D01*
X-117311544Y-35133216D01*
X-117243624Y-35297188D01*
X-117213927Y-35446488D01*
X-117210219Y-35465128D01*
X-117209000Y-35471259D01*
X-117209000Y-35648741D01*
X-117243624Y-35822812D01*
X-117311544Y-35986784D01*
X-117410147Y-36134354D01*
X-117535646Y-36259853D01*
X-117683216Y-36358456D01*
X-117847188Y-36426376D01*
X-117996488Y-36456073D01*
X-118021258Y-36461000D01*
X-118198742Y-36461000D01*
X-118223512Y-36456073D01*
X-118372812Y-36426376D01*
X-118536784Y-36358456D01*
X-118684354Y-36259853D01*
X-118809853Y-36134354D01*
X-118908456Y-35986784D01*
X-118976376Y-35822812D01*
X-119011000Y-35648741D01*
X-119011000Y-35471259D01*
X-119009780Y-35465128D01*
X-119006073Y-35446488D01*
X-118976376Y-35297188D01*
X-118908456Y-35133216D01*
X-118809853Y-34985646D01*
X-118684354Y-34860147D01*
X-118536784Y-34761544D01*
X-118372812Y-34693624D01*
X-118223512Y-34663927D01*
X-118198742Y-34659000D01*
X-118021258Y-34659000D01*
X-117996488Y-34663927D01*
G37*
G36*
X-141991772Y-34741703D02*
G01*
X-141836900Y-34805853D01*
X-141697519Y-34898985D01*
X-141578985Y-35017519D01*
X-141485853Y-35156900D01*
X-141421703Y-35311772D01*
X-141389000Y-35476184D01*
X-141389000Y-35643816D01*
X-141421703Y-35808228D01*
X-141485853Y-35963100D01*
X-141578985Y-36102481D01*
X-141697519Y-36221015D01*
X-141836900Y-36314147D01*
X-141991772Y-36378297D01*
X-142156184Y-36411000D01*
X-142323816Y-36411000D01*
X-142488228Y-36378297D01*
X-142643100Y-36314147D01*
X-142782481Y-36221015D01*
X-142901015Y-36102481D01*
X-142994147Y-35963100D01*
X-143058297Y-35808228D01*
X-143091000Y-35643816D01*
X-143091000Y-35476184D01*
X-143058297Y-35311772D01*
X-142994147Y-35156900D01*
X-142901015Y-35017519D01*
X-142782481Y-34898985D01*
X-142643100Y-34805853D01*
X-142488228Y-34741703D01*
X-142323816Y-34709000D01*
X-142156184Y-34709000D01*
X-141991772Y-34741703D01*
G37*
G36*
X-134371772Y-34741703D02*
G01*
X-134216900Y-34805853D01*
X-134077519Y-34898985D01*
X-133958985Y-35017519D01*
X-133865853Y-35156900D01*
X-133801703Y-35311772D01*
X-133769000Y-35476184D01*
X-133769000Y-35643816D01*
X-133801703Y-35808228D01*
X-133865853Y-35963100D01*
X-133958985Y-36102481D01*
X-134077519Y-36221015D01*
X-134216900Y-36314147D01*
X-134371772Y-36378297D01*
X-134536184Y-36411000D01*
X-134703816Y-36411000D01*
X-134868228Y-36378297D01*
X-135023100Y-36314147D01*
X-135162481Y-36221015D01*
X-135281015Y-36102481D01*
X-135374147Y-35963100D01*
X-135438297Y-35808228D01*
X-135471000Y-35643816D01*
X-135471000Y-35476184D01*
X-135438297Y-35311772D01*
X-135374147Y-35156900D01*
X-135281015Y-35017519D01*
X-135162481Y-34898985D01*
X-135023100Y-34805853D01*
X-134868228Y-34741703D01*
X-134703816Y-34709000D01*
X-134536184Y-34709000D01*
X-134371772Y-34741703D01*
G37*
G36*
X-165486772Y-34106703D02*
G01*
X-165331900Y-34170853D01*
X-165192519Y-34263985D01*
X-165073985Y-34382519D01*
X-164980853Y-34521900D01*
X-164916703Y-34676772D01*
X-164884000Y-34841184D01*
X-164884000Y-35008816D01*
X-164916703Y-35173228D01*
X-164980853Y-35328100D01*
X-165073985Y-35467481D01*
X-165192519Y-35586015D01*
X-165331900Y-35679147D01*
X-165486772Y-35743297D01*
X-165651184Y-35776000D01*
X-165818816Y-35776000D01*
X-165983228Y-35743297D01*
X-166138100Y-35679147D01*
X-166277481Y-35586015D01*
X-166396015Y-35467481D01*
X-166489147Y-35328100D01*
X-166553297Y-35173228D01*
X-166586000Y-35008816D01*
X-166586000Y-34841184D01*
X-166553297Y-34676772D01*
X-166489147Y-34521900D01*
X-166396015Y-34382519D01*
X-166277481Y-34263985D01*
X-166138100Y-34170853D01*
X-165983228Y-34106703D01*
X-165818816Y-34074000D01*
X-165651184Y-34074000D01*
X-165486772Y-34106703D01*
G37*
G36*
X-157866772Y-34106703D02*
G01*
X-157711900Y-34170853D01*
X-157572519Y-34263985D01*
X-157453985Y-34382519D01*
X-157360853Y-34521900D01*
X-157296703Y-34676772D01*
X-157264000Y-34841184D01*
X-157264000Y-35008816D01*
X-157296703Y-35173228D01*
X-157360853Y-35328100D01*
X-157453985Y-35467481D01*
X-157572519Y-35586015D01*
X-157711900Y-35679147D01*
X-157866772Y-35743297D01*
X-158031184Y-35776000D01*
X-158198816Y-35776000D01*
X-158363228Y-35743297D01*
X-158518100Y-35679147D01*
X-158657481Y-35586015D01*
X-158776015Y-35467481D01*
X-158869147Y-35328100D01*
X-158933297Y-35173228D01*
X-158966000Y-35008816D01*
X-158966000Y-34841184D01*
X-158933297Y-34676772D01*
X-158869147Y-34521900D01*
X-158776015Y-34382519D01*
X-158657481Y-34263985D01*
X-158518100Y-34170853D01*
X-158363228Y-34106703D01*
X-158198816Y-34074000D01*
X-158031184Y-34074000D01*
X-157866772Y-34106703D01*
G37*
G36*
X-175646772Y-34106703D02*
G01*
X-175491900Y-34170853D01*
X-175352519Y-34263985D01*
X-175233985Y-34382519D01*
X-175140853Y-34521900D01*
X-175076703Y-34676772D01*
X-175044000Y-34841184D01*
X-175044000Y-35008816D01*
X-175076703Y-35173228D01*
X-175140853Y-35328100D01*
X-175233985Y-35467481D01*
X-175352519Y-35586015D01*
X-175491900Y-35679147D01*
X-175646772Y-35743297D01*
X-175811184Y-35776000D01*
X-175978816Y-35776000D01*
X-176143228Y-35743297D01*
X-176298100Y-35679147D01*
X-176437481Y-35586015D01*
X-176556015Y-35467481D01*
X-176649147Y-35328100D01*
X-176713297Y-35173228D01*
X-176746000Y-35008816D01*
X-176746000Y-34841184D01*
X-176713297Y-34676772D01*
X-176649147Y-34521900D01*
X-176556015Y-34382519D01*
X-176437481Y-34263985D01*
X-176298100Y-34170853D01*
X-176143228Y-34106703D01*
X-175978816Y-34074000D01*
X-175811184Y-34074000D01*
X-175646772Y-34106703D01*
G37*
G36*
X-160406772Y-34106703D02*
G01*
X-160251900Y-34170853D01*
X-160112519Y-34263985D01*
X-159993985Y-34382519D01*
X-159900853Y-34521900D01*
X-159836703Y-34676772D01*
X-159804000Y-34841184D01*
X-159804000Y-35008816D01*
X-159836703Y-35173228D01*
X-159900853Y-35328100D01*
X-159993985Y-35467481D01*
X-160112519Y-35586015D01*
X-160251900Y-35679147D01*
X-160406772Y-35743297D01*
X-160571184Y-35776000D01*
X-160738816Y-35776000D01*
X-160903228Y-35743297D01*
X-161058100Y-35679147D01*
X-161197481Y-35586015D01*
X-161316015Y-35467481D01*
X-161409147Y-35328100D01*
X-161473297Y-35173228D01*
X-161506000Y-35008816D01*
X-161506000Y-34841184D01*
X-161473297Y-34676772D01*
X-161409147Y-34521900D01*
X-161316015Y-34382519D01*
X-161197481Y-34263985D01*
X-161058100Y-34170853D01*
X-160903228Y-34106703D01*
X-160738816Y-34074000D01*
X-160571184Y-34074000D01*
X-160406772Y-34106703D01*
G37*
G36*
X-162946772Y-34106703D02*
G01*
X-162791900Y-34170853D01*
X-162652519Y-34263985D01*
X-162533985Y-34382519D01*
X-162440853Y-34521900D01*
X-162376703Y-34676772D01*
X-162344000Y-34841184D01*
X-162344000Y-35008816D01*
X-162376703Y-35173228D01*
X-162440853Y-35328100D01*
X-162533985Y-35467481D01*
X-162652519Y-35586015D01*
X-162791900Y-35679147D01*
X-162946772Y-35743297D01*
X-163111184Y-35776000D01*
X-163278816Y-35776000D01*
X-163443228Y-35743297D01*
X-163598100Y-35679147D01*
X-163737481Y-35586015D01*
X-163856015Y-35467481D01*
X-163949147Y-35328100D01*
X-164013297Y-35173228D01*
X-164046000Y-35008816D01*
X-164046000Y-34841184D01*
X-164013297Y-34676772D01*
X-163949147Y-34521900D01*
X-163856015Y-34382519D01*
X-163737481Y-34263985D01*
X-163598100Y-34170853D01*
X-163443228Y-34106703D01*
X-163278816Y-34074000D01*
X-163111184Y-34074000D01*
X-162946772Y-34106703D01*
G37*
G36*
X-168026772Y-34106703D02*
G01*
X-167871900Y-34170853D01*
X-167732519Y-34263985D01*
X-167613985Y-34382519D01*
X-167520853Y-34521900D01*
X-167456703Y-34676772D01*
X-167424000Y-34841184D01*
X-167424000Y-35008816D01*
X-167456703Y-35173228D01*
X-167520853Y-35328100D01*
X-167613985Y-35467481D01*
X-167732519Y-35586015D01*
X-167871900Y-35679147D01*
X-168026772Y-35743297D01*
X-168191184Y-35776000D01*
X-168358816Y-35776000D01*
X-168523228Y-35743297D01*
X-168678100Y-35679147D01*
X-168817481Y-35586015D01*
X-168936015Y-35467481D01*
X-169029147Y-35328100D01*
X-169093297Y-35173228D01*
X-169126000Y-35008816D01*
X-169126000Y-34841184D01*
X-169093297Y-34676772D01*
X-169029147Y-34521900D01*
X-168936015Y-34382519D01*
X-168817481Y-34263985D01*
X-168678100Y-34170853D01*
X-168523228Y-34106703D01*
X-168358816Y-34074000D01*
X-168191184Y-34074000D01*
X-168026772Y-34106703D01*
G37*
G36*
X-170566772Y-34106703D02*
G01*
X-170411900Y-34170853D01*
X-170272519Y-34263985D01*
X-170153985Y-34382519D01*
X-170060853Y-34521900D01*
X-169996703Y-34676772D01*
X-169964000Y-34841184D01*
X-169964000Y-35008816D01*
X-169996703Y-35173228D01*
X-170060853Y-35328100D01*
X-170153985Y-35467481D01*
X-170272519Y-35586015D01*
X-170411900Y-35679147D01*
X-170566772Y-35743297D01*
X-170731184Y-35776000D01*
X-170898816Y-35776000D01*
X-171063228Y-35743297D01*
X-171218100Y-35679147D01*
X-171357481Y-35586015D01*
X-171476015Y-35467481D01*
X-171569147Y-35328100D01*
X-171633297Y-35173228D01*
X-171666000Y-35008816D01*
X-171666000Y-34841184D01*
X-171633297Y-34676772D01*
X-171569147Y-34521900D01*
X-171476015Y-34382519D01*
X-171357481Y-34263985D01*
X-171218100Y-34170853D01*
X-171063228Y-34106703D01*
X-170898816Y-34074000D01*
X-170731184Y-34074000D01*
X-170566772Y-34106703D01*
G37*
G36*
X-173106772Y-34106703D02*
G01*
X-172951900Y-34170853D01*
X-172812519Y-34263985D01*
X-172693985Y-34382519D01*
X-172600853Y-34521900D01*
X-172536703Y-34676772D01*
X-172504000Y-34841184D01*
X-172504000Y-35008816D01*
X-172536703Y-35173228D01*
X-172600853Y-35328100D01*
X-172693985Y-35467481D01*
X-172812519Y-35586015D01*
X-172951900Y-35679147D01*
X-173106772Y-35743297D01*
X-173271184Y-35776000D01*
X-173438816Y-35776000D01*
X-173603228Y-35743297D01*
X-173758100Y-35679147D01*
X-173897481Y-35586015D01*
X-174016015Y-35467481D01*
X-174109147Y-35328100D01*
X-174173297Y-35173228D01*
X-174206000Y-35008816D01*
X-174206000Y-34841184D01*
X-174173297Y-34676772D01*
X-174109147Y-34521900D01*
X-174016015Y-34382519D01*
X-173897481Y-34263985D01*
X-173758100Y-34170853D01*
X-173603228Y-34106703D01*
X-173438816Y-34074000D01*
X-173271184Y-34074000D01*
X-173106772Y-34106703D01*
G37*
G36*
X-189198634Y-32125695D02*
G01*
X-189041540Y-32173349D01*
X-188896769Y-32250731D01*
X-188769872Y-32354872D01*
X-188665731Y-32481769D01*
X-188588349Y-32626540D01*
X-188540695Y-32783634D01*
X-188524000Y-32953140D01*
X-188524000Y-34866860D01*
X-188540695Y-35036366D01*
X-188588349Y-35193460D01*
X-188665731Y-35338231D01*
X-188769872Y-35465128D01*
X-188896769Y-35569269D01*
X-189041540Y-35646651D01*
X-189198634Y-35694305D01*
X-189368140Y-35711000D01*
X-191281860Y-35711000D01*
X-191451366Y-35694305D01*
X-191608460Y-35646651D01*
X-191753231Y-35569269D01*
X-191880128Y-35465128D01*
X-191984269Y-35338231D01*
X-192061651Y-35193460D01*
X-192109305Y-35036366D01*
X-192126000Y-34866860D01*
X-192126000Y-32953140D01*
X-192109305Y-32783634D01*
X-192061651Y-32626540D01*
X-191984269Y-32481769D01*
X-191880128Y-32354872D01*
X-191753231Y-32250731D01*
X-191608460Y-32173349D01*
X-191451366Y-32125695D01*
X-191281860Y-32109000D01*
X-189368140Y-32109000D01*
X-189198634Y-32125695D01*
G37*
G36*
X-117996488Y-32123927D02*
G01*
X-117847188Y-32153624D01*
X-117683216Y-32221544D01*
X-117535646Y-32320147D01*
X-117410147Y-32445646D01*
X-117311544Y-32593216D01*
X-117243624Y-32757188D01*
X-117209000Y-32931259D01*
X-117209000Y-33108741D01*
X-117243624Y-33282812D01*
X-117311544Y-33446784D01*
X-117410147Y-33594354D01*
X-117535646Y-33719853D01*
X-117683216Y-33818456D01*
X-117847188Y-33886376D01*
X-117996488Y-33916073D01*
X-118021258Y-33921000D01*
X-118198742Y-33921000D01*
X-118223512Y-33916073D01*
X-118372812Y-33886376D01*
X-118536784Y-33818456D01*
X-118684354Y-33719853D01*
X-118809853Y-33594354D01*
X-118908456Y-33446784D01*
X-118976376Y-33282812D01*
X-119011000Y-33108741D01*
X-119011000Y-32931259D01*
X-118976376Y-32757188D01*
X-118908456Y-32593216D01*
X-118809853Y-32445646D01*
X-118684354Y-32320147D01*
X-118536784Y-32221544D01*
X-118372812Y-32153624D01*
X-118223512Y-32123927D01*
X-118198742Y-32119000D01*
X-118021258Y-32119000D01*
X-117996488Y-32123927D01*
G37*
G36*
X-146571488Y-32123927D02*
G01*
X-146422188Y-32153624D01*
X-146258216Y-32221544D01*
X-146110646Y-32320147D01*
X-145985147Y-32445646D01*
X-145886544Y-32593216D01*
X-145818624Y-32757188D01*
X-145784000Y-32931259D01*
X-145784000Y-33108741D01*
X-145818624Y-33282812D01*
X-145886544Y-33446784D01*
X-145985147Y-33594354D01*
X-146110646Y-33719853D01*
X-146258216Y-33818456D01*
X-146422188Y-33886376D01*
X-146571488Y-33916073D01*
X-146596258Y-33921000D01*
X-146773742Y-33921000D01*
X-146798512Y-33916073D01*
X-146947812Y-33886376D01*
X-147111784Y-33818456D01*
X-147259354Y-33719853D01*
X-147384853Y-33594354D01*
X-147483456Y-33446784D01*
X-147551376Y-33282812D01*
X-147586000Y-33108741D01*
X-147586000Y-32931259D01*
X-147551376Y-32757188D01*
X-147483456Y-32593216D01*
X-147384853Y-32445646D01*
X-147259354Y-32320147D01*
X-147111784Y-32221544D01*
X-146947812Y-32153624D01*
X-146798512Y-32123927D01*
X-146773742Y-32119000D01*
X-146596258Y-32119000D01*
X-146571488Y-32123927D01*
G37*
G36*
X-134371772Y-32201703D02*
G01*
X-134216900Y-32265853D01*
X-134077519Y-32358985D01*
X-133958985Y-32477519D01*
X-133865853Y-32616900D01*
X-133801703Y-32771772D01*
X-133769000Y-32936184D01*
X-133769000Y-33103816D01*
X-133801703Y-33268228D01*
X-133865853Y-33423100D01*
X-133958985Y-33562481D01*
X-134077519Y-33681015D01*
X-134216900Y-33774147D01*
X-134371772Y-33838297D01*
X-134536184Y-33871000D01*
X-134703816Y-33871000D01*
X-134868228Y-33838297D01*
X-135023100Y-33774147D01*
X-135162481Y-33681015D01*
X-135281015Y-33562481D01*
X-135374147Y-33423100D01*
X-135438297Y-33268228D01*
X-135471000Y-33103816D01*
X-135471000Y-32936184D01*
X-135438297Y-32771772D01*
X-135374147Y-32616900D01*
X-135281015Y-32477519D01*
X-135162481Y-32358985D01*
X-135023100Y-32265853D01*
X-134868228Y-32201703D01*
X-134703816Y-32169000D01*
X-134536184Y-32169000D01*
X-134371772Y-32201703D01*
G37*
G36*
X-141991772Y-32201703D02*
G01*
X-141836900Y-32265853D01*
X-141697519Y-32358985D01*
X-141578985Y-32477519D01*
X-141485853Y-32616900D01*
X-141421703Y-32771772D01*
X-141389000Y-32936184D01*
X-141389000Y-33103816D01*
X-141421703Y-33268228D01*
X-141485853Y-33423100D01*
X-141578985Y-33562481D01*
X-141697519Y-33681015D01*
X-141836900Y-33774147D01*
X-141991772Y-33838297D01*
X-142156184Y-33871000D01*
X-142323816Y-33871000D01*
X-142488228Y-33838297D01*
X-142643100Y-33774147D01*
X-142782481Y-33681015D01*
X-142901015Y-33562481D01*
X-142994147Y-33423100D01*
X-143058297Y-33268228D01*
X-143091000Y-33103816D01*
X-143091000Y-32936184D01*
X-143058297Y-32771772D01*
X-142994147Y-32616900D01*
X-142901015Y-32477519D01*
X-142782481Y-32358985D01*
X-142643100Y-32265853D01*
X-142488228Y-32201703D01*
X-142323816Y-32169000D01*
X-142156184Y-32169000D01*
X-141991772Y-32201703D01*
G37*
G36*
X-117996488Y-29583927D02*
G01*
X-117847188Y-29613624D01*
X-117683216Y-29681544D01*
X-117535646Y-29780147D01*
X-117410147Y-29905646D01*
X-117311544Y-30053216D01*
X-117243624Y-30217188D01*
X-117209000Y-30391259D01*
X-117209000Y-30568741D01*
X-117243624Y-30742812D01*
X-117311544Y-30906784D01*
X-117410147Y-31054354D01*
X-117535646Y-31179853D01*
X-117683216Y-31278456D01*
X-117847188Y-31346376D01*
X-117996488Y-31376073D01*
X-118021258Y-31381000D01*
X-118198742Y-31381000D01*
X-118223512Y-31376073D01*
X-118372812Y-31346376D01*
X-118536784Y-31278456D01*
X-118684354Y-31179853D01*
X-118809853Y-31054354D01*
X-118908456Y-30906784D01*
X-118976376Y-30742812D01*
X-119011000Y-30568741D01*
X-119011000Y-30391259D01*
X-118976376Y-30217188D01*
X-118908456Y-30053216D01*
X-118809853Y-29905646D01*
X-118684354Y-29780147D01*
X-118536784Y-29681544D01*
X-118372812Y-29613624D01*
X-118223512Y-29583927D01*
X-118198742Y-29579000D01*
X-118021258Y-29579000D01*
X-117996488Y-29583927D01*
G37*
G36*
X-146571488Y-29583927D02*
G01*
X-146422188Y-29613624D01*
X-146258216Y-29681544D01*
X-146110646Y-29780147D01*
X-145985147Y-29905646D01*
X-145886544Y-30053216D01*
X-145818624Y-30217188D01*
X-145784000Y-30391259D01*
X-145784000Y-30568741D01*
X-145818624Y-30742812D01*
X-145886544Y-30906784D01*
X-145985147Y-31054354D01*
X-146110646Y-31179853D01*
X-146258216Y-31278456D01*
X-146422188Y-31346376D01*
X-146571488Y-31376073D01*
X-146596258Y-31381000D01*
X-146773742Y-31381000D01*
X-146798512Y-31376073D01*
X-146947812Y-31346376D01*
X-147111784Y-31278456D01*
X-147259354Y-31179853D01*
X-147384853Y-31054354D01*
X-147483456Y-30906784D01*
X-147551376Y-30742812D01*
X-147586000Y-30568741D01*
X-147586000Y-30391259D01*
X-147551376Y-30217188D01*
X-147483456Y-30053216D01*
X-147384853Y-29905646D01*
X-147259354Y-29780147D01*
X-147111784Y-29681544D01*
X-146947812Y-29613624D01*
X-146798512Y-29583927D01*
X-146773742Y-29579000D01*
X-146596258Y-29579000D01*
X-146571488Y-29583927D01*
G37*
G36*
X-134371772Y-29661703D02*
G01*
X-134216900Y-29725853D01*
X-134077519Y-29818985D01*
X-133958985Y-29937519D01*
X-133865853Y-30076900D01*
X-133801703Y-30231772D01*
X-133769000Y-30396184D01*
X-133769000Y-30563816D01*
X-133801703Y-30728228D01*
X-133865853Y-30883100D01*
X-133958985Y-31022481D01*
X-134077519Y-31141015D01*
X-134216900Y-31234147D01*
X-134371772Y-31298297D01*
X-134536184Y-31331000D01*
X-134703816Y-31331000D01*
X-134868228Y-31298297D01*
X-135023100Y-31234147D01*
X-135162481Y-31141015D01*
X-135281015Y-31022481D01*
X-135374147Y-30883100D01*
X-135438297Y-30728228D01*
X-135471000Y-30563816D01*
X-135471000Y-30396184D01*
X-135438297Y-30231772D01*
X-135374147Y-30076900D01*
X-135281015Y-29937519D01*
X-135162481Y-29818985D01*
X-135023100Y-29725853D01*
X-134868228Y-29661703D01*
X-134703816Y-29629000D01*
X-134536184Y-29629000D01*
X-134371772Y-29661703D01*
G37*
G36*
X-141991772Y-29661703D02*
G01*
X-141836900Y-29725853D01*
X-141697519Y-29818985D01*
X-141578985Y-29937519D01*
X-141485853Y-30076900D01*
X-141421703Y-30231772D01*
X-141389000Y-30396184D01*
X-141389000Y-30563816D01*
X-141421703Y-30728228D01*
X-141485853Y-30883100D01*
X-141578985Y-31022481D01*
X-141697519Y-31141015D01*
X-141836900Y-31234147D01*
X-141991772Y-31298297D01*
X-142156184Y-31331000D01*
X-142323816Y-31331000D01*
X-142488228Y-31298297D01*
X-142643100Y-31234147D01*
X-142782481Y-31141015D01*
X-142901015Y-31022481D01*
X-142994147Y-30883100D01*
X-143058297Y-30728228D01*
X-143091000Y-30563816D01*
X-143091000Y-30396184D01*
X-143058297Y-30231772D01*
X-142994147Y-30076900D01*
X-142901015Y-29937519D01*
X-142782481Y-29818985D01*
X-142643100Y-29725853D01*
X-142488228Y-29661703D01*
X-142323816Y-29629000D01*
X-142156184Y-29629000D01*
X-141991772Y-29661703D01*
G37*
G36*
X-185524000Y-31011000D02*
G01*
X-189126000Y-31011000D01*
X-189126000Y-27409000D01*
X-185524000Y-27409000D01*
X-185524000Y-31011000D01*
G37*
G36*
X-192348021Y-27423293D02*
G01*
X-192214375Y-27463834D01*
X-192091216Y-27529664D01*
X-191983260Y-27618260D01*
X-191894664Y-27726216D01*
X-191828834Y-27849375D01*
X-191788293Y-27983021D01*
X-191774000Y-28128140D01*
X-191774000Y-30291860D01*
X-191788293Y-30436979D01*
X-191828834Y-30570625D01*
X-191894664Y-30693784D01*
X-191983260Y-30801740D01*
X-192091216Y-30890336D01*
X-192214375Y-30956166D01*
X-192348021Y-30996707D01*
X-192493140Y-31011000D01*
X-194156860Y-31011000D01*
X-194301979Y-30996707D01*
X-194435625Y-30956166D01*
X-194558784Y-30890336D01*
X-194666740Y-30801740D01*
X-194755336Y-30693784D01*
X-194821166Y-30570625D01*
X-194861707Y-30436979D01*
X-194876000Y-30291860D01*
X-194876000Y-28128140D01*
X-194861707Y-27983021D01*
X-194821166Y-27849375D01*
X-194755336Y-27726216D01*
X-194666740Y-27618260D01*
X-194558784Y-27529664D01*
X-194435625Y-27463834D01*
X-194301979Y-27423293D01*
X-194156860Y-27409000D01*
X-192493140Y-27409000D01*
X-192348021Y-27423293D01*
G37*
G36*
X-146571488Y-27043927D02*
G01*
X-146422188Y-27073624D01*
X-146258216Y-27141544D01*
X-146110646Y-27240147D01*
X-145985147Y-27365646D01*
X-145886544Y-27513216D01*
X-145818624Y-27677188D01*
X-145784000Y-27851259D01*
X-145784000Y-28028741D01*
X-145818624Y-28202812D01*
X-145886544Y-28366784D01*
X-145985147Y-28514354D01*
X-146110646Y-28639853D01*
X-146258216Y-28738456D01*
X-146422188Y-28806376D01*
X-146571488Y-28836073D01*
X-146596258Y-28841000D01*
X-146773742Y-28841000D01*
X-146798512Y-28836073D01*
X-146947812Y-28806376D01*
X-147111784Y-28738456D01*
X-147259354Y-28639853D01*
X-147384853Y-28514354D01*
X-147483456Y-28366784D01*
X-147551376Y-28202812D01*
X-147586000Y-28028741D01*
X-147586000Y-27851259D01*
X-147551376Y-27677188D01*
X-147483456Y-27513216D01*
X-147384853Y-27365646D01*
X-147259354Y-27240147D01*
X-147111784Y-27141544D01*
X-146947812Y-27073624D01*
X-146798512Y-27043927D01*
X-146773742Y-27039000D01*
X-146596258Y-27039000D01*
X-146571488Y-27043927D01*
G37*
G36*
X-117996488Y-27043927D02*
G01*
X-117847188Y-27073624D01*
X-117683216Y-27141544D01*
X-117535646Y-27240147D01*
X-117410147Y-27365646D01*
X-117311544Y-27513216D01*
X-117243624Y-27677188D01*
X-117209000Y-27851259D01*
X-117209000Y-28028741D01*
X-117243624Y-28202812D01*
X-117311544Y-28366784D01*
X-117410147Y-28514354D01*
X-117535646Y-28639853D01*
X-117683216Y-28738456D01*
X-117847188Y-28806376D01*
X-117996488Y-28836073D01*
X-118021258Y-28841000D01*
X-118198742Y-28841000D01*
X-118223512Y-28836073D01*
X-118372812Y-28806376D01*
X-118536784Y-28738456D01*
X-118684354Y-28639853D01*
X-118809853Y-28514354D01*
X-118908456Y-28366784D01*
X-118976376Y-28202812D01*
X-119011000Y-28028741D01*
X-119011000Y-27851259D01*
X-118976376Y-27677188D01*
X-118908456Y-27513216D01*
X-118809853Y-27365646D01*
X-118684354Y-27240147D01*
X-118536784Y-27141544D01*
X-118372812Y-27073624D01*
X-118223512Y-27043927D01*
X-118198742Y-27039000D01*
X-118021258Y-27039000D01*
X-117996488Y-27043927D01*
G37*
G36*
X-141389000Y-28791000D02*
G01*
X-143091000Y-28791000D01*
X-143091000Y-27089000D01*
X-141389000Y-27089000D01*
X-141389000Y-28791000D01*
G37*
G36*
X-134371772Y-27121703D02*
G01*
X-134216900Y-27185853D01*
X-134077519Y-27278985D01*
X-133958985Y-27397519D01*
X-133865853Y-27536900D01*
X-133801703Y-27691772D01*
X-133769000Y-27856184D01*
X-133769000Y-28023816D01*
X-133801703Y-28188228D01*
X-133865853Y-28343100D01*
X-133958985Y-28482481D01*
X-134077519Y-28601015D01*
X-134216900Y-28694147D01*
X-134371772Y-28758297D01*
X-134536184Y-28791000D01*
X-134703816Y-28791000D01*
X-134868228Y-28758297D01*
X-135023100Y-28694147D01*
X-135162481Y-28601015D01*
X-135281015Y-28482481D01*
X-135374147Y-28343100D01*
X-135438297Y-28188228D01*
X-135471000Y-28023816D01*
X-135471000Y-27856184D01*
X-135438297Y-27691772D01*
X-135374147Y-27536900D01*
X-135281015Y-27397519D01*
X-135162481Y-27278985D01*
X-135023100Y-27185853D01*
X-134868228Y-27121703D01*
X-134703816Y-27089000D01*
X-134536184Y-27089000D01*
X-134371772Y-27121703D01*
G37*
G36*
X-157264000Y-28156000D02*
G01*
X-158966000Y-28156000D01*
X-158966000Y-26454000D01*
X-157264000Y-26454000D01*
X-157264000Y-28156000D01*
G37*
G36*
X-162946772Y-26486703D02*
G01*
X-162791900Y-26550853D01*
X-162652519Y-26643985D01*
X-162533985Y-26762519D01*
X-162440853Y-26901900D01*
X-162376703Y-27056772D01*
X-162344000Y-27221184D01*
X-162344000Y-27388816D01*
X-162376703Y-27553228D01*
X-162440853Y-27708100D01*
X-162533985Y-27847481D01*
X-162652519Y-27966015D01*
X-162791900Y-28059147D01*
X-162946772Y-28123297D01*
X-163111184Y-28156000D01*
X-163278816Y-28156000D01*
X-163443228Y-28123297D01*
X-163598100Y-28059147D01*
X-163737481Y-27966015D01*
X-163856015Y-27847481D01*
X-163949147Y-27708100D01*
X-164013297Y-27553228D01*
X-164046000Y-27388816D01*
X-164046000Y-27221184D01*
X-164013297Y-27056772D01*
X-163949147Y-26901900D01*
X-163856015Y-26762519D01*
X-163737481Y-26643985D01*
X-163598100Y-26550853D01*
X-163443228Y-26486703D01*
X-163278816Y-26454000D01*
X-163111184Y-26454000D01*
X-162946772Y-26486703D01*
G37*
G36*
X-160406772Y-26486703D02*
G01*
X-160251900Y-26550853D01*
X-160112519Y-26643985D01*
X-159993985Y-26762519D01*
X-159900853Y-26901900D01*
X-159836703Y-27056772D01*
X-159804000Y-27221184D01*
X-159804000Y-27388816D01*
X-159836703Y-27553228D01*
X-159900853Y-27708100D01*
X-159993985Y-27847481D01*
X-160112519Y-27966015D01*
X-160251900Y-28059147D01*
X-160406772Y-28123297D01*
X-160571184Y-28156000D01*
X-160738816Y-28156000D01*
X-160903228Y-28123297D01*
X-161058100Y-28059147D01*
X-161197481Y-27966015D01*
X-161316015Y-27847481D01*
X-161409147Y-27708100D01*
X-161473297Y-27553228D01*
X-161506000Y-27388816D01*
X-161506000Y-27221184D01*
X-161473297Y-27056772D01*
X-161409147Y-26901900D01*
X-161316015Y-26762519D01*
X-161197481Y-26643985D01*
X-161058100Y-26550853D01*
X-160903228Y-26486703D01*
X-160738816Y-26454000D01*
X-160571184Y-26454000D01*
X-160406772Y-26486703D01*
G37*
G36*
X-165486772Y-26486703D02*
G01*
X-165331900Y-26550853D01*
X-165192519Y-26643985D01*
X-165073985Y-26762519D01*
X-164980853Y-26901900D01*
X-164916703Y-27056772D01*
X-164884000Y-27221184D01*
X-164884000Y-27388816D01*
X-164916703Y-27553228D01*
X-164980853Y-27708100D01*
X-165073985Y-27847481D01*
X-165192519Y-27966015D01*
X-165331900Y-28059147D01*
X-165486772Y-28123297D01*
X-165651184Y-28156000D01*
X-165818816Y-28156000D01*
X-165983228Y-28123297D01*
X-166138100Y-28059147D01*
X-166277481Y-27966015D01*
X-166396015Y-27847481D01*
X-166489147Y-27708100D01*
X-166553297Y-27553228D01*
X-166586000Y-27388816D01*
X-166586000Y-27221184D01*
X-166553297Y-27056772D01*
X-166489147Y-26901900D01*
X-166396015Y-26762519D01*
X-166277481Y-26643985D01*
X-166138100Y-26550853D01*
X-165983228Y-26486703D01*
X-165818816Y-26454000D01*
X-165651184Y-26454000D01*
X-165486772Y-26486703D01*
G37*
G36*
X-168026772Y-26486703D02*
G01*
X-167871900Y-26550853D01*
X-167732519Y-26643985D01*
X-167613985Y-26762519D01*
X-167520853Y-26901900D01*
X-167456703Y-27056772D01*
X-167424000Y-27221184D01*
X-167424000Y-27388816D01*
X-167456703Y-27553228D01*
X-167520853Y-27708100D01*
X-167613985Y-27847481D01*
X-167732519Y-27966015D01*
X-167871900Y-28059147D01*
X-168026772Y-28123297D01*
X-168191184Y-28156000D01*
X-168358816Y-28156000D01*
X-168523228Y-28123297D01*
X-168678100Y-28059147D01*
X-168817481Y-27966015D01*
X-168936015Y-27847481D01*
X-169029147Y-27708100D01*
X-169093297Y-27553228D01*
X-169126000Y-27388816D01*
X-169126000Y-27221184D01*
X-169093297Y-27056772D01*
X-169029147Y-26901900D01*
X-168936015Y-26762519D01*
X-168817481Y-26643985D01*
X-168678100Y-26550853D01*
X-168523228Y-26486703D01*
X-168358816Y-26454000D01*
X-168191184Y-26454000D01*
X-168026772Y-26486703D01*
G37*
G36*
X-170566772Y-26486703D02*
G01*
X-170411900Y-26550853D01*
X-170272519Y-26643985D01*
X-170153985Y-26762519D01*
X-170060853Y-26901900D01*
X-169996703Y-27056772D01*
X-169964000Y-27221184D01*
X-169964000Y-27388816D01*
X-169996703Y-27553228D01*
X-170060853Y-27708100D01*
X-170153985Y-27847481D01*
X-170272519Y-27966015D01*
X-170411900Y-28059147D01*
X-170566772Y-28123297D01*
X-170731184Y-28156000D01*
X-170898816Y-28156000D01*
X-171063228Y-28123297D01*
X-171218100Y-28059147D01*
X-171357481Y-27966015D01*
X-171476015Y-27847481D01*
X-171569147Y-27708100D01*
X-171633297Y-27553228D01*
X-171666000Y-27388816D01*
X-171666000Y-27221184D01*
X-171633297Y-27056772D01*
X-171569147Y-26901900D01*
X-171476015Y-26762519D01*
X-171357481Y-26643985D01*
X-171218100Y-26550853D01*
X-171063228Y-26486703D01*
X-170898816Y-26454000D01*
X-170731184Y-26454000D01*
X-170566772Y-26486703D01*
G37*
G36*
X-173106772Y-26486703D02*
G01*
X-172951900Y-26550853D01*
X-172812519Y-26643985D01*
X-172693985Y-26762519D01*
X-172600853Y-26901900D01*
X-172536703Y-27056772D01*
X-172504000Y-27221184D01*
X-172504000Y-27388816D01*
X-172536703Y-27553228D01*
X-172600853Y-27708100D01*
X-172693985Y-27847481D01*
X-172812519Y-27966015D01*
X-172951900Y-28059147D01*
X-173106772Y-28123297D01*
X-173271184Y-28156000D01*
X-173438816Y-28156000D01*
X-173603228Y-28123297D01*
X-173758100Y-28059147D01*
X-173897481Y-27966015D01*
X-174016015Y-27847481D01*
X-174109147Y-27708100D01*
X-174173297Y-27553228D01*
X-174206000Y-27388816D01*
X-174206000Y-27221184D01*
X-174173297Y-27056772D01*
X-174109147Y-26901900D01*
X-174016015Y-26762519D01*
X-173897481Y-26643985D01*
X-173758100Y-26550853D01*
X-173603228Y-26486703D01*
X-173438816Y-26454000D01*
X-173271184Y-26454000D01*
X-173106772Y-26486703D01*
G37*
G36*
X-175646772Y-26486703D02*
G01*
X-175491900Y-26550853D01*
X-175352519Y-26643985D01*
X-175233985Y-26762519D01*
X-175140853Y-26901900D01*
X-175076703Y-27056772D01*
X-175044000Y-27221184D01*
X-175044000Y-27388816D01*
X-175076703Y-27553228D01*
X-175140853Y-27708100D01*
X-175233985Y-27847481D01*
X-175352519Y-27966015D01*
X-175491900Y-28059147D01*
X-175646772Y-28123297D01*
X-175811184Y-28156000D01*
X-175978816Y-28156000D01*
X-176143228Y-28123297D01*
X-176298100Y-28059147D01*
X-176437481Y-27966015D01*
X-176556015Y-27847481D01*
X-176649147Y-27708100D01*
X-176713297Y-27553228D01*
X-176746000Y-27388816D01*
X-176746000Y-27221184D01*
X-176713297Y-27056772D01*
X-176649147Y-26901900D01*
X-176556015Y-26762519D01*
X-176437481Y-26643985D01*
X-176298100Y-26550853D01*
X-176143228Y-26486703D01*
X-175978816Y-26454000D01*
X-175811184Y-26454000D01*
X-175646772Y-26486703D01*
G37*
M02*
