M48
; DRILL file {KiCad (5.1.9)-1} date 05/31/21 11:51:59
; FORMAT={-:-/ absolute / inch / decimal}
; #@! TF.CreationDate,2021-05-31T11:51:59+02:00
; #@! TF.GenerationSoftware,Kicad,Pcbnew,(5.1.9)-1
; #@! TF.FileFunction,Plated,1,2,PTH
FMAT,2
INCH
T1C0.0118
T2C0.0197
T3C0.0394
T4C0.1260
%
G90
G05
T1
X-3.7Y-0.375
X-3.7Y-0.4
X-3.7Y-0.425
X-3.7Y-0.85
X-3.7Y-1.225
X-3.7Y-1.625
X-3.7Y-2.35
X-3.7Y-2.375
X-3.7Y-2.4
X-3.6907Y-1.3593
X-3.6876Y-1.9626
X-3.675Y-0.225
X-3.675Y-1.125
X-3.6711Y-0.65
X-3.6711Y-1.025
X-3.6711Y-1.3926
X-3.6711Y-1.5
X-3.6711Y-1.5961
X-3.6711Y-1.875
X-3.667Y-0.717
X-3.65Y-1.7
X-3.65Y-2.15
X-3.6493Y-0.7582
X-3.6118Y-1.1132
X-3.6118Y-1.4368
X-3.6118Y-1.8632
X-3.6102Y-0.675
X-3.5924Y-0.8459
X-3.575Y-0.4
X-3.575Y-1.275
X-3.575Y-1.6
X-3.575Y-2.025
X-3.5626Y-1.9626
X-3.55Y-1.35
X-3.55Y-1.5
X-3.5495Y-1.7237
X-3.5474Y-0.75
X-3.5397Y-0.8663
X-3.5352Y-1.5511
X-3.5281Y-0.8031
X-3.5281Y-1.0531
X-3.525Y-1.2
X-3.525Y-1.25
X-3.525Y-2.1
X-3.503Y-1.8996
X-3.5Y-0.725
X-3.5Y-0.9
X-3.5Y-1.025
X-3.475Y-0.625
X-3.475Y-1.525
X-3.475Y-2.05
X-3.472Y-1.7583
X-3.4701Y-1.4486
X-3.4602Y-0.9281
X-3.4559Y-1.0184
X-3.4545Y-1.8461
X-3.45Y-1.3211
X-3.45Y-1.8
X-3.425Y-1.875
X-3.4128Y-1.4382
X-3.4118Y-1.1132
X-3.4Y-0.675
X-3.4Y-1.2
X-3.4Y-1.325
X-3.4Y-1.675
X-3.4Y-2.6
X-3.3882Y-1.9632
X-3.378Y0.028
X-3.375Y-0.4
X-3.375Y-1.3
X-3.3575Y-1.5024
X-3.35Y-0.5994
X-3.35Y-1.35
X-3.35Y-2.075
X-3.3415Y-1.7184
X-3.3329Y-1.2805
X-3.3289Y-2.0273
X-3.3282Y-0.8721
X-3.3273Y-1.9711
X-3.325Y-1.075
X-3.304Y-1.6902
X-3.3Y0.075
X-3.3Y-0.5486
X-3.3Y-0.575
X-3.3Y-1.8
X-3.3Y-2.05
X-3.2993Y-0.797
X-3.2972Y-1.1554
X-3.2969Y-0.9031
X-3.2953Y-1.5515
X-3.2825Y-1.7472
X-3.278Y-0.9852
X-3.2773Y-0.7518
X-3.275Y0.1
X-3.275Y-0.525
X-3.275Y-1.225
X-3.275Y-1.878
X-3.275Y-2.15
X-3.275Y-0.8753
X-3.2731Y-0.8001
X-3.2687Y-1.2506
X-3.2647Y-1.4602
X-3.2602Y-1.528
X-3.2559Y-1.1309
X-3.25Y0.05
X-3.25Y-0.5
X-3.25Y-1.3
X-3.228Y-1.975
X-3.2118Y-1.1118
X-3.2118Y-1.4368
X-3.2031Y-1.1969
X-3.2Y0.125
X-3.2Y-0.225
X-3.2Y-0.675
X-3.2Y-1.875
X-3.2Y-2.05
X-3.1812Y-1.9606
X-3.175Y-0.4
X-3.175Y-1.025
X-3.175Y-1.3211
X-3.175Y-1.6
X-3.169Y-1.8651
X-3.1626Y-0.8376
X-3.1586Y-2.0548
X-3.15Y-1.35
X-3.1461Y-1.572
X-3.1373Y-0.4123
X-3.1368Y-0.6012
X-3.1295Y-1.2
X-3.1281Y-1.0898
X-3.1281Y-1.7281
X-3.125Y-0.725
X-3.125Y-1.275
X-3.125Y-1.4
X-3.125Y-1.475
X-3.1211Y-0.25
X-3.1207Y-2.0145
X-3.1123Y-0.4123
X-3.1095Y-0.8682
X-3.1045Y-2.175
X-3.079Y-2.0756
X-3.075Y-0.25
X-3.075Y-0.6014
X-3.075Y-1.675
X-3.075Y-1.8
X-3.0726Y-0.5726
X-3.0604Y-2.172
X-3.0529Y-2.0719
X-3.05Y-1.225
X-3.05Y-1.575
X-3.05Y-2.025
X-3.0493Y-1.451
X-3.025Y-0.3
X-3.025Y-0.675
X-3.025Y-2.25
X-3.025Y-1.5648
X-3.0Y-0.725
X-3.0Y-1.05
X-3.0Y-1.5
X-2.9856Y-1.0258
X-2.9764Y-0.35
X-2.975Y-0.65
X-2.975Y-1.6
X-2.975Y-2.128
X-2.9722Y-1.9
X-2.9626Y-0.8374
X-2.95Y-0.35
X-2.9115Y-2.0907
X-2.8972Y-0.8579
X-2.8863Y-1.0038
X-2.875Y-1.525
X-2.875Y-1.9
X-2.872Y-2.0666
X-2.8638Y-1.675
X-2.858Y-1.7013
X-2.85Y-0.3
X-2.85Y-0.4972
X-2.85Y-0.5236
X-2.85Y-0.55
X-2.85Y-1.075
X-2.85Y-1.5
X-2.85Y-1.822
X-2.85Y-2.625
X-2.8379Y-0.4497
X-2.825Y-0.675
X-2.825Y-1.85
X-2.825Y-2.175
X-2.8039Y-1.7727
X-2.8Y-0.25
X-2.8Y-0.925
X-2.8Y-1.925
X-2.7882Y-0.8382
X-2.7873Y-0.4123
X-2.7829Y-1.9852
X-2.775Y-0.675
X-2.775Y-1.6
X-2.775Y-2.325
X-2.7572Y-1.8255
X-2.7567Y-0.95
X-2.7563Y-0.8437
X-2.75Y-0.725
X-2.75Y-2.275
X-2.7424Y-1.2765
X-2.7392Y-1.682
X-2.7341Y-2.05
X-2.7334Y-2.3183
X-2.731Y-1.8325
X-2.7297Y-2.1
X-2.725Y-1.225
X-2.712Y-2.0335
X-2.7012Y-1.4882
X-2.7Y-1.55
X-2.675Y-0.25
X-2.675Y-1.15
X-2.675Y-2.253
X-2.664Y-0.589
X-2.6594Y-0.9506
X-2.6521Y-1.9685
X-2.6503Y-1.9067
X-2.65Y-1.2285
X-2.6417Y-1.1333
X-2.625Y-0.3
X-2.625Y-0.675
X-2.625Y-1.025
X-2.625Y-2.253
X-2.6227Y-1.4925
X-2.6Y-0.25
X-2.6Y-0.75
X-2.6Y-1.05
X-2.6Y-1.0764
X-2.6Y-2.225
X-2.6Y-2.3325
X-2.575Y-0.7
X-2.575Y-1.2285
X-2.575Y-1.6
X-2.5727Y-1.4925
X-2.5704Y-0.91
X-2.5631Y-0.4756
X-2.563Y-0.828
X-2.5559Y-0.5017
X-2.5531Y-0.5292
X-2.5502Y-2.025
X-2.55Y-0.575
X-2.55Y-1.75
X-2.55Y-2.0514
X-2.55Y-2.0986
X-2.55Y-2.125
X-2.5148Y-0.4539
X-2.5148Y-1.9231
X-2.5023Y-2.1662
X-2.5Y-1.0764
X-2.5Y-1.575
X-2.4763Y-1.8224
X-2.475Y-0.95
X-2.475Y-1.05
X-2.475Y-2.325
X-2.4746Y-1.8489
X-2.4727Y-1.4925
X-2.4671Y-0.3617
X-2.4528Y-1.7508
X-2.4519Y-2.1013
X-2.45Y-0.45
X-2.45Y-0.625
X-2.45Y-0.7
X-2.45Y-1.825
X-2.45Y-2.075
X-2.45Y-2.253
X-2.4492Y-2.0196
X-2.4486Y-1.05
X-2.4376Y-0.5719
X-2.425Y-0.25
X-2.425Y-0.3
X-2.425Y-0.675
X-2.425Y-1.2285
X-2.425Y-1.5
X-2.425Y-1.875
X-2.4244Y-0.8494
X-2.4Y-1.5
X-2.3875Y-1.9813
X-2.3873Y-0.403
X-2.375Y-0.675
X-2.375Y-0.975
X-2.375Y-1.6
X-2.375Y-1.75
X-2.375Y-2.225
X-2.375Y-2.275
X-2.375Y-2.375
X-2.372Y-0.9
X-2.3626Y-0.8376
X-2.3606Y-1.3394
X-2.3526Y-1.0972
X-2.3524Y-1.847
X-2.35Y-0.325
X-2.35Y-1.2285
X-2.35Y-1.5
X-2.3398Y-0.203
X-2.337Y-0.537
X-2.3274Y-0.9644
X-2.325Y-1.575
X-2.325Y-2.375
X-2.3243Y-1.9012
X-2.3001Y-1.9852
X-2.2972Y-0.9309
X-2.2795Y-0.8493
X-2.2767Y-0.7433
X-2.275Y-1.2285
X-2.2725Y-1.0787
X-2.2703Y-0.45
X-2.2658Y-1.753
X-2.2531Y-1.497
X-2.252Y-0.91
X-2.25Y-0.65
X-2.25Y-2.325
X-2.2491Y-1.8251
X-2.225Y-0.2
X-2.225Y-0.675
X-2.225Y-2.225
X-2.2197Y-1.144
X-2.2071Y-1.9758
X-2.2033Y-1.1155
X-2.2Y-1.5
X-2.1935Y-1.2247
X-2.1781Y-2.103
X-2.175Y-1.5
X-2.175Y-1.6
X-2.175Y-1.75
X-2.175Y-2.325
X-2.1727Y-2.0539
X-2.1691Y-0.9372
X-2.1661Y-0.9634
X-2.1641Y-0.447
X-2.1531Y-0.4969
X-2.1519Y-0.547
X-2.1507Y-2.1
X-2.15Y-0.6088
X-2.1496Y-0.4708
X-2.1382Y-0.8557
X-2.1354Y-2.3011
X-2.1281Y-0.1969
X-2.1219Y-1.403
X-2.1118Y-1.0487
X-2.1109Y-2.1359
X-2.1043Y-0.975
X-2.1013Y-0.5241
X-2.1Y-0.2
X-2.0999Y-2.0609
X-2.086Y-1.328
X-2.0818Y-1.9068
X-2.0811Y-0.5411
X-2.0807Y-1.0831
X-2.0757Y-2.2557
X-2.075Y-0.25
X-2.0634Y-0.4366
X-2.0534Y-2.103
X-2.0518Y-1.4079
X-2.0503Y-2.2002
X-2.05Y-1.05
X-2.0499Y-1.0828
X-2.0289Y-1.1539
X-2.0289Y-0.5773
X-2.025Y-0.3
X-2.025Y-0.675
X-2.025Y-1.125
X-2.025Y-1.55
X-2.0219Y-1.8281
X-2.0161Y-1.8661
X-2.0094Y-2.253
X-2.0Y-1.675
X-1.9969Y-0.2469
X-1.9969Y-0.628
X-1.9969Y-1.8031
X-1.9873Y-0.4102
X-1.9873Y-0.8127
X-1.9842Y-1.9903
X-1.975Y-1.475
X-1.975Y-2.35
X-1.9571Y-1.6628
X-1.9507Y-0.7398
X-1.95Y-1.175
X-1.95Y-1.9
X-1.9306Y-2.0852
X-1.9297Y-0.975
X-1.9269Y-2.1648
X-1.925Y-1.075
X-1.9166Y-1.797
X-1.9031Y-2.1761
X-1.9Y-0.25
X-1.9Y-0.575
X-1.9Y-1.4
X-1.9Y-1.45
X-1.9Y-2.6
X-1.878Y-2.339
X-1.875Y-1.35
X-1.875Y-1.3826
X-1.875Y-1.475
X-1.8722Y-0.5778
X-1.8632Y-1.0826
X-1.859Y-2.1648
X-1.8545Y-0.3545
X-1.85Y0.075
X-1.85Y-1.175
X-1.85Y-2.075
X-1.85Y-2.253
X-1.85Y-2.325
X-1.8498Y-1.9914
X-1.8347Y-1.55
X-1.825Y-0.675
X-1.825Y-1.925
X-1.825Y-2.225
X-1.8Y-0.1
X-1.8Y-0.225
X-1.8Y-0.3285
X-1.8Y-1.125
X-1.8Y-1.575
X-1.8Y-2.65
X-1.7903Y-1.948
X-1.7763Y-1.9918
X-1.775Y0.1
X-1.775Y-0.65
X-1.775Y-1.5
X-1.7735Y-2.0202
X-1.7717Y-0.898
X-1.7691Y-0.9421
X-1.7654Y-2.147
X-1.7648Y-0.9745
X-1.7597Y-1.222
X-1.7548Y-0.8634
X-1.7505Y-1.2468
X-1.75Y0.1
X-1.75Y-0.4644
X-1.75Y-1.2736
X-1.75Y-1.3
X-1.747Y-0.8886
X-1.7469Y-2.103
X-1.7399Y-1.9399
X-1.7281Y-0.253
X-1.725Y0.1
X-1.725Y-0.725
X-1.725Y-0.95
X-1.725Y-1.4502
X-1.7249Y-2.075
X-1.7039Y-2.1727
X-1.7Y-1.5
X-1.7Y-2.625
X-1.7Y-1.372
X-1.6999Y-0.2499
X-1.697Y-1.4361
X-1.6899Y-1.9399
X-1.6764Y-2.375
X-1.675Y-2.1
X-1.675Y-2.45
X-1.6744Y-0.6465
X-1.6707Y-0.7602
X-1.6514Y-1.825
X-1.6512Y-0.6
X-1.6512Y-0.675
X-1.6512Y-2.075
X-1.65Y-1.3514
X-1.65Y-1.3778
X-1.65Y-1.4041
X-1.65Y-1.4305
X-1.65Y-1.4569
X-1.65Y-2.375
X-1.6469Y-2.2031
X-1.643Y-1.3243
X-1.625Y-0.125
X-1.625Y-0.3
X-1.625Y-1.1
X-1.625Y-2.625
X-1.6161Y-1.8661
X-1.6Y-0.05
X-1.6Y-1.55
X-1.5873Y-0.4127
X-1.5873Y-1.1877
X-1.5873Y-1.9877
X-1.578Y-0.8153
X-1.575Y-2.275
X-1.575Y-2.425
X-1.575Y-2.625
X-1.5402Y-2.0502
X-1.5398Y-0.8711
X-1.5398Y-0.9199
X-1.5398Y-0.9476
X-1.5398Y-2.175
X-1.5398Y-0.5633
X-1.525Y-0.6251
X-1.525Y-1.05
X-1.525Y-1.2
X-1.525Y-1.475
X-1.525Y-2.15
X-1.525Y-2.325
X-1.522Y-2.2009
X-1.5205Y-1.7738
X-1.5169Y-1.95
X-1.5037Y-1.2525
X-1.5031Y-0.747
X-1.5031Y-1.4969
X-1.5031Y-2.4031
X-1.5014Y-2.575
X-1.5008Y-1.625
X-1.5Y-0.175
X-1.5Y-1.3
X-1.4844Y-0.047
X-1.4842Y-1.7004
X-1.4773Y-2.1898
X-1.4766Y-1.075
X-1.475Y-0.675
X-1.475Y-0.725
X-1.475Y-1.475
X-1.475Y-2.425
X-1.475Y-2.475
X-1.475Y-2.5014
X-1.475Y-2.5278
X-1.475Y-2.5541
X-1.475Y-2.5805
X-1.4708Y-1.527
X-1.4503Y-1.6163
X-1.45Y-0.6
X-1.45Y-1.825
X-1.4441Y-1.174
X-1.4425Y-2.2614
X-1.4296Y-1.1216
X-1.425Y0.05
X-1.425Y-0.3
X-1.4161Y-1.8661
X-1.4118Y-0.1132
X-1.4118Y-1.6882
X-1.4Y-1.175
X-1.4Y-1.45
X-1.4Y-2.7
X-1.3875Y-1.208
X-1.3807Y-0.4139
X-1.375Y0.0
X-1.375Y-0.5486
X-1.375Y-0.575
X-1.375Y-0.625
X-1.375Y-0.6514
X-1.375Y-1.4
X-1.375Y-1.4264
X-1.375Y-1.575
X-1.375Y-1.9
X-1.375Y-2.05
X-1.3719Y-0.5205
X-1.3719Y-0.4942
X-1.3673Y-1.225
X-1.3648Y-1.925
X-1.3648Y-2.2006
X-1.3545Y-2.1219
X-1.35Y-1.35
X-1.35Y-1.3764
X-1.35Y-2.325
X-1.35Y-2.45
X-1.35Y-2.575
X-1.35Y-2.6014
X-1.35Y-2.6278
X-1.3493Y-2.096
X-1.325Y-0.825
X-1.325Y-1.325
X-1.325Y-1.65
X-1.325Y-1.95
X-1.325Y-2.025
X-1.325Y-2.375
X-1.325Y-2.55
X-1.3219Y-2.1531
X-1.3007Y-2.4248
X-1.3Y-0.45
X-1.3Y-0.85
X-1.3Y-1.5778
X-1.3Y-1.9
X-1.2809Y-2.0247
X-1.278Y-1.728
X-1.275Y-0.175
X-1.275Y-0.475
X-1.275Y-0.875
X-1.275Y-1.8
X-1.275Y-2.4309
X-1.2632Y-2.0476
X-1.2511Y-2.2171
X-1.2504Y-0.9243
X-1.25Y-0.5
X-1.25Y-0.5264
X-1.25Y-0.5528
X-1.25Y-0.5791
X-1.25Y-0.6461
X-1.25Y-0.675
X-1.25Y-1.075
X-1.25Y-2.0
X-1.25Y-2.475
X-1.25Y-2.5014
X-1.25Y-2.5278
X-1.25Y-2.5541
X-1.25Y-2.6236
X-1.25Y-2.65
X-1.25Y-0.898
X-1.2461Y-2.2461
X-1.245Y-0.9502
X-1.2425Y-2.1264
X-1.2422Y-0.9765
X-1.2411Y-2.0737
X-1.2411Y-2.1001
X-1.241Y-2.1528
X-1.2339Y-1.8661
X-1.225Y-0.3
X-1.2118Y-0.1132
X-1.2118Y-1.6882
X-1.2Y-2.375
X-1.1873Y-0.4123
X-1.1873Y-1.9873
X-1.1766Y-2.272
X-1.175Y0.0
X-1.175Y-0.725
X-1.175Y-0.825
X-1.175Y-1.55
X-1.175Y-2.4
X-1.1428Y-2.2697
X-1.1396Y-0.8665
X-1.131Y-2.298
X-1.1303Y-0.7231
X-1.128Y-1.8218
X-1.125Y-1.05
X-1.125Y-1.15
X-1.125Y-1.75
X-1.125Y-2.625
X-1.1247Y-2.4102
X-1.122Y-0.6373
X-1.1208Y-2.1941
X-1.112Y-0.8885
X-1.1064Y-0.7394
X-1.1051Y-2.303
X-1.1Y-0.25
X-1.1Y-0.3289
X-1.1Y-1.3
X-1.1Y-2.15
X-1.0936Y-1.8752
X-1.0791Y-2.5959
X-1.0766Y-0.85
X-1.0766Y-2.3498
X-1.075Y-0.65
X-1.075Y-1.05
X-1.0736Y-0.25
X-1.0721Y-1.003
X-1.0602Y-1.7477
X-1.0569Y-2.1718
X-1.0545Y-0.7535
X-1.025Y-0.3
X-1.025Y-2.225
X-1.025Y-2.7
X-1.0161Y-1.8661
X-1.0118Y-0.1118
X-1.0118Y-1.6868
X-1.0Y-0.65
X-1.0Y-1.125
X-0.9789Y-1.8951
X-0.9782Y-2.6352
X-0.975Y0.0
X-0.975Y-0.325
X-0.9746Y-1.5504
X-0.9733Y-0.7005
X-0.9705Y-0.7705
X-0.9651Y-2.0524
X-0.9609Y-0.4759
X-0.9531Y-0.897
X-0.9531Y-2.472
X-0.9516Y-2.653
X-0.95Y-0.5014
X-0.95Y-0.625
X-0.95Y-0.925
X-0.95Y-1.075
X-0.95Y-1.9039
X-0.95Y-2.5
X-0.9488Y-0.5986
X-0.9477Y-2.2603
X-0.9469Y-0.3281
X-0.9436Y-2.0681
X-0.9424Y-2.167
X-0.9417Y-2.347
X-0.925Y-0.35
X-0.925Y-1.025
X-0.925Y-1.75
X-0.925Y-1.925
X-0.9239Y-2.6169
X-0.9196Y-2.3196
X-0.9032Y-0.375
X-0.9008Y-1.9461
X-0.9Y-0.525
X-0.9Y-0.9
X-0.9Y-1.225
X-0.9Y-1.825
X-0.9Y-2.475
X-0.8973Y-2.0982
X-0.8876Y-0.181
X-0.8812Y-0.3473
X-0.8764Y-0.925
X-0.8764Y-2.5
X-0.875Y-0.225
X-0.875Y-1.2
X-0.8738Y-1.7874
X-0.8512Y-0.95
X-0.8512Y-2.525
X-0.85Y-0.5
X-0.85Y-1.175
X-0.8413Y-0.5691
X-0.8371Y-0.6132
X-0.8348Y-2.2402
X-0.8268Y-2.0998
X-0.825Y-0.2925
X-0.825Y-0.7
X-0.825Y-1.45
X-0.8161Y-1.8661
X-0.8118Y-0.1132
X-0.8118Y-1.6882
X-0.7873Y-0.4123
X-0.7873Y-1.9877
X-0.7789Y-1.575
X-0.7777Y-0.6667
X-0.7769Y-2.6355
X-0.775Y0.0
X-0.775Y-0.825
X-0.775Y-1.075
X-0.775Y-2.4
X-0.775Y-2.4
X-0.7398Y-2.0495
X-0.7325Y-0.4748
X-0.7267Y-2.6396
X-0.7254Y-2.4983
X-0.7251Y-2.4429
X-0.725Y-0.872
X-0.725Y-0.8984
X-0.725Y-0.9248
X-0.725Y-0.9512
X-0.725Y-1.075
X-0.725Y-1.525
X-0.725Y-1.675
X-0.725Y-1.7986
X-0.725Y-2.197
X-0.7247Y-1.8433
X-0.7242Y-2.5246
X-0.7234Y-2.472
X-0.703Y-2.2691
X-0.703Y-2.3309
X-0.7Y-0.35
X-0.6998Y-0.6947
X-0.697Y-0.429
X-0.697Y-0.7606
X-0.6848Y-2.5779
X-0.6844Y-1.0059
X-0.6766Y-0.55
X-0.675Y-0.2
X-0.675Y-0.6014
X-0.675Y-1.05
X-0.675Y-1.3
X-0.675Y-1.8118
X-0.6618Y-0.1132
X-0.6602Y-0.9506
X-0.6602Y-2.5221
X-0.6598Y-1.953
X-0.6589Y-1.8661
X-0.6564Y-2.2874
X-0.6539Y-0.7217
X-0.65Y-1.25
X-0.65Y-1.6
X-0.65Y-2.675
X-0.6425Y-0.2951
X-0.625Y-0.65
X-0.6098Y-2.2402
X-0.6Y-1.125
X-0.6Y-2.7
X-0.575Y-1.325
X-0.5659Y-1.8041
X-0.564Y-2.6047
X-0.5628Y-1.7369
X-0.5589Y-1.8297
X-0.553Y-2.2691
X-0.553Y-0.6858
X-0.5527Y-2.1763
X-0.5514Y-0.9
X-0.5514Y-2.475
X-0.55Y-0.4945
X-0.55Y-0.5209
X-0.55Y-0.5472
X-0.55Y-0.5736
X-0.55Y-0.6
X-0.55Y-0.85
X-0.55Y-0.9264
X-0.55Y-0.9528
X-0.55Y-0.9791
X-0.55Y-1.3486
X-0.55Y-1.375
X-0.55Y-2.0707
X-0.55Y-2.097
X-0.55Y-2.1234
X-0.55Y-2.1498
X-0.55Y-2.5014
X-0.55Y-2.5278
X-0.55Y-2.5541
X-0.5264Y-2.175
X-0.5252Y-1.3974
X-0.525Y-0.5913
X-0.525Y-0.9
X-0.525Y-1.25
X-0.525Y-1.3
X-0.525Y-2.475
X-0.5198Y-1.4235
X-0.512Y-0.0574
X-0.503Y-0.9331
X-0.5Y0.075
X-0.5Y-0.55
X-0.5Y-1.45
X-0.5Y-2.05
X-0.5Y-2.5
X-0.4823Y-2.1677
X-0.4813Y-1.4063
X-0.4765Y-0.0175
X-0.475Y-0.9571
X-0.475Y-1.325
X-0.475Y-1.975
X-0.475Y-2.525
X-0.4719Y-0.0969
X-0.4697Y-0.5102
X-0.4524Y-1.497
X-0.45Y-0.275
X-0.45Y-1.35
X-0.4411Y-1.8661
X-0.4368Y-0.1132
X-0.4352Y-1.688
X-0.425Y0.1
X-0.425Y-0.7
X-0.425Y-2.2
X-0.4098Y-2.2402
X-0.3873Y-0.0127
X-0.3873Y-0.4127
X-0.3873Y-1.5877
X-0.3873Y-1.9873
X-0.3781Y-0.6405
X-0.375Y0.072
X-0.375Y-1.075
X-0.375Y-1.497
X-0.375Y-2.4
X-0.3727Y-2.6352
X-0.3419Y-0.8419
X-0.3369Y-0.4441
X-0.3348Y-0.5059
X-0.3348Y-2.0309
X-0.3343Y-1.8205
X-0.3305Y-2.1555
X-0.3295Y-0.9016
X-0.3284Y-1.7908
X-0.328Y-0.2488
X-0.3264Y-1.85
X-0.3251Y-0.9539
X-0.325Y-0.9276
X-0.325Y0.025
X-0.325Y-0.275
X-0.325Y-0.55
X-0.325Y-0.6
X-0.325Y-0.8709
X-0.325Y-1.55
X-0.325Y-2.075
X-0.325Y-2.4459
X-0.325Y-2.4722
X-0.325Y-2.4986
X-0.325Y-2.525
X-0.3247Y-0.2226
X-0.3234Y-1.6207
X-0.3187Y-0.024
X-0.3073Y-1.425
X-0.3001Y-2.1545
X-0.3Y0.125
X-0.2971Y-1.623
X-0.2961Y-0.046
X-0.28Y-1.643
X-0.2797Y-1.7282
X-0.2754Y-0.0681
X-0.275Y-1.45
X-0.2535Y-1.6532
X-0.2535Y-1.6801
X-0.2535Y-1.7252
X-0.25Y-0.175
X-0.25Y-0.2014
X-0.25Y-0.325
X-0.25Y-0.9
X-0.25Y-0.975
X-0.25Y-1.9
X-0.2477Y-0.0716
X-0.2447Y-0.104
X-0.2315Y-1.4315
X-0.2Y0.05
X-0.2Y-1.125
X-0.2Y-2.7
X-0.175Y-1.225
X-0.1636Y-1.7176
X-0.1565Y-1.7753
X-0.1539Y-2.2023
X-0.1501Y-1.7497
X-0.15Y-0.175
X-0.15Y-0.675
X-0.15Y-1.15
X-0.15Y-1.425
X-0.15Y-1.875
X-0.15Y-2.25
X-0.15Y-2.65
X-0.125Y-0.975
X-0.1184Y-1.7005
X-0.1183Y-1.9294
X-0.1034Y-1.8716
X-0.1Y-0.325
X-0.1Y-0.9
X-0.1Y-2.075
X-0.0838Y-1.8962
X-0.075Y-0.675
X-0.075Y-2.25
X-0.05Y-0.3
X-0.05Y-1.125
X-0.05Y-2.7
X-0.0273Y-1.4927
X-0.025Y0.0711
X-0.025Y-1.275
X-0.025Y-1.325
X0.0Y-2.2
X0.003Y-1.5455
X0.0171Y0.0329
X0.025Y-2.125
X0.0281Y-2.1531
X0.05Y-0.525
X0.05Y-1.4
X0.0648Y-2.096
X0.0657Y-0.1593
X0.0705Y-1.7343
X0.075Y-0.2961
X0.075Y-1.075
X0.075Y-1.8711
X0.075Y-2.65
X0.1Y-1.125
X0.1Y-2.7
X0.125Y-0.225
X0.125Y-0.325
X0.125Y-0.675
X0.125Y-1.8
X0.125Y-1.9
X0.125Y-2.25
X0.1264Y-0.4252
X0.1264Y-2.0002
X0.15Y-0.2961
X0.15Y-0.6
X0.15Y-1.05
X0.15Y-1.8711
X0.15Y-2.175
X0.15Y-2.625
X0.175Y-0.325
X0.175Y-1.125
X0.175Y-1.9
X0.175Y-2.7
X0.1805Y-0.7579
X0.1805Y-2.3329
X0.1962Y-0.4075
X0.1962Y-1.9825
X0.2Y-0.675
X0.2Y-2.25
X0.225Y-0.2961
X0.225Y-1.05
X0.225Y-1.8711
X0.225Y-2.625
X0.2392Y-0.7051
X0.2392Y-2.2801
X0.25Y-0.325
X0.25Y-1.125
X0.25Y-1.9
X0.25Y-2.7
X0.275Y-0.225
X0.275Y-0.675
X0.275Y-1.8
X0.275Y-2.25
X0.2993Y-0.3868
X0.2993Y-1.9648
X0.3Y-0.675
X0.3Y-2.25
X0.3063Y-0.3269
X0.3063Y-1.9019
X0.325Y-0.775
X0.325Y-1.125
X0.325Y-2.35
X0.325Y-2.7
X0.3283Y-0.3744
X0.3283Y-1.9494
X0.3296Y-1.6209
X0.35Y-0.475
X0.351Y-0.0601
X0.3515Y-2.0515
X0.4Y-0.775
X0.4Y-1.125
X0.4Y-1.6
X0.4Y-2.35
X0.4Y-2.7
X0.4032Y-0.0423
X0.4091Y-0.4071
X0.4128Y-2.0002
X0.4178Y-0.6748
X0.4178Y-2.2498
X0.4251Y-0.3205
X0.4251Y-1.8955
X0.4412Y-2.0627
X0.45Y-0.4
X0.4614Y-0.7051
X0.4614Y-2.2801
X0.475Y-0.025
X0.475Y-0.3205
X0.475Y-1.125
X0.475Y-1.6
X0.475Y-1.8955
X0.475Y-2.7
X0.4781Y-0.3969
X0.4783Y-2.3356
X0.479Y-0.7648
X0.4817Y-1.9825
X0.4937Y-0.6769
X0.4937Y-2.2519
X0.5Y-0.225
X0.5Y-1.8
X0.525Y-0.475
X0.525Y-2.05
X0.546Y-0.4098
X0.546Y-1.9848
X0.5499Y-2.3179
X0.55Y-0.025
X0.55Y-0.325
X0.55Y-0.75
X0.55Y-1.125
X0.55Y-1.6
X0.55Y-1.9
X0.55Y-2.7
X0.575Y-0.375
X0.575Y-0.675
X0.575Y-1.925
X0.575Y-1.9514
X0.575Y-2.25
X0.6249Y-2.3179
X0.625Y-0.025
X0.625Y-0.4
X0.625Y-0.75
X0.625Y-1.125
X0.625Y-1.25
X0.625Y-1.6
X0.625Y-1.975
X0.625Y-2.7
X0.65Y-0.325
X0.65Y-0.675
X0.65Y-1.9
X0.65Y-2.25
X0.675Y-0.15
X0.675Y-0.975
X0.675Y-1.725
X0.675Y-2.55
X0.6949Y-0.5486
X0.6949Y-2.1236
X0.6969Y-0.4531
X0.6969Y-2.0281
X0.7031Y-0.2719
X0.7031Y-1.8469
X0.7161Y-2.4525
X0.7169Y-0.8789
X0.7246Y-0.3958
X0.7246Y-1.9708
X0.725Y-1.075
X0.725Y-2.65
X0.7281Y-0.4219
X0.7281Y-1.9969
X0.75Y-0.525
X0.75Y-1.125
X0.75Y-2.1
X0.775Y-0.7
X0.775Y-0.8
X0.775Y-2.275
X0.775Y-2.3711
X0.775Y-2.7
X0.7882Y-0.3618
X0.7882Y-0.9132
X0.7882Y-1.9368
X0.7882Y-2.4882
X0.8Y-0.15
X0.8Y-0.25
X0.8Y-1.825
X0.825Y-0.575
X0.825Y-0.8
X0.825Y-0.975
X0.825Y-1.5
X0.825Y-2.15
X0.825Y-2.3711
X0.825Y-2.55
X0.85Y-0.275
X0.85Y-0.525
X0.85Y-0.825
X0.85Y-1.85
X0.85Y-2.1
X0.85Y-2.4
X0.875Y-0.025
X0.875Y-1.6
X0.8962Y-0.7726
X0.8962Y-2.3476
X0.925Y-0.3986
X0.925Y-0.425
X0.925Y-0.4514
X0.925Y-0.775
X0.925Y-1.025
X0.925Y-1.9736
X0.925Y-2.0
X0.925Y-2.0264
X0.925Y-2.35
X0.925Y-2.6
X0.9882Y-0.3618
X0.9882Y-0.9132
X0.9882Y-1.9368
X0.9882Y-2.4882
X1.0Y-0.675
X1.0Y-2.25
X1.025Y-0.425
X1.025Y-0.975
X1.025Y-1.5
X1.025Y-2.0
X1.025Y-2.55
X1.05Y-0.275
X1.05Y-0.55
X1.05Y-0.825
X1.05Y-1.85
X1.05Y-2.125
X1.05Y-2.4
X1.0742Y-1.9742
X1.075Y-0.125
X1.075Y-0.775
X1.075Y-1.7
X1.075Y-2.35
X1.0963Y-0.4287
X1.0963Y-2.0037
X1.1Y-0.05
X1.1Y-1.625
X1.125Y-0.25
X1.125Y-0.5
X1.125Y-0.7
X1.125Y-0.75
X1.125Y-0.875
X1.125Y-1.05
X1.125Y-1.8
X1.125Y-2.075
X1.125Y-2.275
X1.125Y-2.325
X1.125Y-2.45
X1.125Y-2.625
X1.1882Y-0.3632
X1.1882Y-0.9132
X1.1882Y-1.9382
X1.1882Y-2.4882
X1.2Y-0.675
X1.2Y-2.25
X1.25Y-0.275
X1.25Y-0.55
X1.25Y-0.825
X1.25Y-1.525
X1.25Y-1.85
X1.25Y-2.125
X1.25Y-2.4
X1.2594Y-0.753
X1.2697Y-0.5211
X1.2736Y-2.0236
X1.275Y-0.075
X1.275Y-1.65
X1.3Y-0.1
X1.3Y-1.675
X1.3Y-2.1
X1.302Y-0.5033
X1.325Y-0.275
X1.325Y-0.575
X1.325Y-0.825
X1.325Y-1.025
X1.325Y-1.825
X1.325Y-1.95
X1.425Y-0.2
X1.45Y-0.975
X1.45Y-2.225
X1.45Y-2.25
X1.45Y-2.275
X1.45Y-2.45
X1.45Y-2.475
X1.45Y-2.5
X1.475Y0.1
X1.475Y-0.3
X1.475Y-0.325
X1.475Y-0.35
X1.475Y-0.65
X1.475Y-0.675
X1.475Y-0.7
X1.475Y-0.875
X1.475Y-0.9
X1.475Y-0.925
X1.475Y-1.875
X1.475Y-1.9
X1.475Y-1.925
X1.475Y-2.55
X1.4789Y-2.15
X1.4831Y-0.7329
X1.5Y-1.1
X1.5Y-1.125
X1.5Y-1.15
X1.5Y-1.475
X1.5Y-1.5
X1.5Y-1.525
X1.5039Y-0.1507
X1.5929Y-2.051
X1.6Y-1.7
X1.6Y-1.775
X1.6Y-2.525
X1.6031Y-1.6719
X1.65Y-2.4
X1.675Y-2.4
X1.7Y-2.4
X1.725Y-1.65
X1.85Y0.1
X1.85Y0.075
X1.85Y0.05
X1.85Y-2.7
X1.875Y-2.675
X1.875Y-2.7
T2
X-3.6445Y-0.025
X-3.6445Y-2.55
X-3.6168Y0.0418
X-3.6168Y-0.0918
X-3.6168Y-2.4832
X-3.6168Y-2.6168
X-3.55Y0.0695
X-3.55Y-0.1195
X-3.55Y-2.4555
X-3.55Y-2.6445
X-3.4832Y0.0418
X-3.4832Y-0.0918
X-3.4832Y-2.4832
X-3.4832Y-2.6168
X-3.4555Y-0.025
X-3.4555Y-2.55
X1.9305Y-0.025
X1.9305Y-2.55
X1.9582Y0.0418
X1.9582Y-0.0918
X1.9582Y-2.4832
X1.9582Y-2.6168
X2.025Y0.0695
X2.025Y-0.1195
X2.025Y-2.4555
X2.025Y-2.6445
X2.0918Y0.0418
X2.0918Y-0.0918
X2.0918Y-2.4832
X2.0918Y-2.6168
X2.1195Y-0.025
X2.1195Y-2.55
T3
X-3.15Y-0.05
X-3.15Y-0.15
X-3.15Y-2.425
X-3.15Y-2.525
X-3.05Y-0.05
X-3.05Y-0.15
X-3.05Y-2.425
X-3.05Y-2.525
X-2.95Y-0.05
X-2.95Y-0.15
X-2.95Y-2.425
X-2.95Y-2.525
X-2.85Y-0.05
X-2.85Y-0.15
X-2.85Y-2.425
X-2.85Y-2.525
X-2.75Y-0.05
X-2.75Y-0.15
X-2.75Y-2.425
X-2.75Y-2.525
X-2.65Y-0.05
X-2.65Y-0.15
X-2.65Y-2.425
X-2.65Y-2.525
X-2.55Y-0.05
X-2.55Y-0.15
X-2.55Y-2.425
X-2.55Y-2.525
X-2.45Y-0.05
X-2.45Y-0.15
X-2.45Y-2.425
X-2.45Y-2.525
X-2.35Y-0.05
X-2.35Y-0.15
X-2.35Y-2.425
X-2.35Y-2.525
X-2.25Y-0.05
X-2.25Y-0.15
X-2.25Y-2.425
X-2.25Y-2.525
X-2.15Y-0.05
X-2.15Y-0.15
X-2.15Y-2.425
X-2.15Y-2.525
X-2.05Y-0.05
X-2.05Y-0.15
X-2.05Y-2.425
X-2.05Y-2.525
X-1.95Y-0.05
X-1.95Y-0.15
X-1.95Y-2.425
X-1.95Y-2.525
X-1.85Y-0.05
X-1.85Y-0.15
X-1.85Y-2.425
X-1.85Y-2.525
X-1.75Y-0.05
X-1.75Y-0.15
X-1.75Y-2.425
X-1.75Y-2.525
X1.675Y-0.375
X1.675Y-0.475
X1.675Y-0.575
X1.675Y-0.675
X1.675Y-0.775
X1.675Y-0.875
X1.675Y-0.975
X1.675Y-1.6
X1.675Y-1.7
X1.675Y-1.8
X1.675Y-1.9
X1.675Y-2.0
X1.675Y-2.1
X1.675Y-2.2
X1.775Y-0.375
X1.775Y-0.475
X1.775Y-0.575
X1.775Y-0.675
X1.775Y-0.775
X1.775Y-0.875
X1.775Y-0.975
X1.775Y-1.6
X1.775Y-1.7
X1.775Y-1.8
X1.775Y-1.9
X1.775Y-2.0
X1.775Y-2.1
X1.775Y-2.2
T4
X-3.55Y-0.025
X-3.55Y-2.55
X2.025Y-0.025
X2.025Y-2.55
T0
M30
