%TF.GenerationSoftware,KiCad,Pcbnew,(5.1.9)-1*%
%TF.CreationDate,2021-05-31T11:51:56+02:00*%
%TF.ProjectId,periph_gpio,70657269-7068-45f6-9770-696f2e6b6963,v1.0*%
%TF.SameCoordinates,Original*%
%TF.FileFunction,Legend,Top*%
%TF.FilePolarity,Positive*%
%FSLAX46Y46*%
G04 Gerber Fmt 4.6, Leading zero omitted, Abs format (unit mm)*
G04 Created by KiCad (PCBNEW (5.1.9)-1) date 2021-05-31 11:51:56*
%MOMM*%
%LPD*%
G01*
G04 APERTURE LIST*
%ADD10C,0.250000*%
%ADD11C,0.750000*%
%ADD12C,0.120000*%
%ADD13C,0.300000*%
%ADD14C,0.500000*%
%ADD15C,0.150000*%
G04 APERTURE END LIST*
D10*
X-65969642Y-39277857D02*
X-65969642Y-38077857D01*
X-65398214Y-38477857D02*
X-65398214Y-39277857D01*
X-65398214Y-38592142D02*
X-65341071Y-38535000D01*
X-65226785Y-38477857D01*
X-65055357Y-38477857D01*
X-64941071Y-38535000D01*
X-64883928Y-38649285D01*
X-64883928Y-39277857D01*
X-64483928Y-38477857D02*
X-64026785Y-38477857D01*
X-64312500Y-38077857D02*
X-64312500Y-39106428D01*
X-64255357Y-39220714D01*
X-64141071Y-39277857D01*
X-64026785Y-39277857D01*
X-63169642Y-39220714D02*
X-63283928Y-39277857D01*
X-63512500Y-39277857D01*
X-63626785Y-39220714D01*
X-63683928Y-39106428D01*
X-63683928Y-38649285D01*
X-63626785Y-38535000D01*
X-63512500Y-38477857D01*
X-63283928Y-38477857D01*
X-63169642Y-38535000D01*
X-63112500Y-38649285D01*
X-63112500Y-38763571D01*
X-63683928Y-38877857D01*
X-62598214Y-39277857D02*
X-62598214Y-38477857D01*
X-62598214Y-38706428D02*
X-62541071Y-38592142D01*
X-62483928Y-38535000D01*
X-62369642Y-38477857D01*
X-62255357Y-38477857D01*
X-61855357Y-39277857D02*
X-61855357Y-38477857D01*
X-61855357Y-38706428D02*
X-61798214Y-38592142D01*
X-61741071Y-38535000D01*
X-61626785Y-38477857D01*
X-61512500Y-38477857D01*
X-60598214Y-38477857D02*
X-60598214Y-39277857D01*
X-61112500Y-38477857D02*
X-61112500Y-39106428D01*
X-61055357Y-39220714D01*
X-60941071Y-39277857D01*
X-60769642Y-39277857D01*
X-60655357Y-39220714D01*
X-60598214Y-39163571D01*
X-60026785Y-38477857D02*
X-60026785Y-39677857D01*
X-60026785Y-38535000D02*
X-59912500Y-38477857D01*
X-59683928Y-38477857D01*
X-59569642Y-38535000D01*
X-59512500Y-38592142D01*
X-59455357Y-38706428D01*
X-59455357Y-39049285D01*
X-59512500Y-39163571D01*
X-59569642Y-39220714D01*
X-59683928Y-39277857D01*
X-59912500Y-39277857D01*
X-60026785Y-39220714D01*
X-59112500Y-38477857D02*
X-58655357Y-38477857D01*
X-58941071Y-38077857D02*
X-58941071Y-39106428D01*
X-58883928Y-39220714D01*
X-58769642Y-39277857D01*
X-58655357Y-39277857D01*
X-58312500Y-39220714D02*
X-58198214Y-39277857D01*
X-57969642Y-39277857D01*
X-57855357Y-39220714D01*
X-57798214Y-39106428D01*
X-57798214Y-39049285D01*
X-57855357Y-38935000D01*
X-57969642Y-38877857D01*
X-58141071Y-38877857D01*
X-58255357Y-38820714D01*
X-58312500Y-38706428D01*
X-58312500Y-38649285D01*
X-58255357Y-38535000D01*
X-58141071Y-38477857D01*
X-57969642Y-38477857D01*
X-57855357Y-38535000D01*
D11*
X-5015000Y-32155000D02*
X-5300714Y-32012142D01*
X-5729285Y-32012142D01*
X-6157857Y-32155000D01*
X-6443571Y-32440714D01*
X-6586428Y-32726428D01*
X-6729285Y-33297857D01*
X-6729285Y-33726428D01*
X-6586428Y-34297857D01*
X-6443571Y-34583571D01*
X-6157857Y-34869285D01*
X-5729285Y-35012142D01*
X-5443571Y-35012142D01*
X-5015000Y-34869285D01*
X-4872142Y-34726428D01*
X-4872142Y-33726428D01*
X-5443571Y-33726428D01*
X-3586428Y-35012142D02*
X-3586428Y-32012142D01*
X-2443571Y-32012142D01*
X-2157857Y-32155000D01*
X-2015000Y-32297857D01*
X-1872142Y-32583571D01*
X-1872142Y-33012142D01*
X-2015000Y-33297857D01*
X-2157857Y-33440714D01*
X-2443571Y-33583571D01*
X-3586428Y-33583571D01*
X-586428Y-35012142D02*
X-586428Y-32012142D01*
X1413571Y-32012142D02*
X1985000Y-32012142D01*
X2270714Y-32155000D01*
X2556428Y-32440714D01*
X2699285Y-33012142D01*
X2699285Y-34012142D01*
X2556428Y-34583571D01*
X2270714Y-34869285D01*
X1985000Y-35012142D01*
X1413571Y-35012142D01*
X1127857Y-34869285D01*
X842142Y-34583571D01*
X699285Y-34012142D01*
X699285Y-33012142D01*
X842142Y-32440714D01*
X1127857Y-32155000D01*
X1413571Y-32012142D01*
X6270714Y-35012142D02*
X6270714Y-32012142D01*
X7413571Y-32012142D01*
X7699285Y-32155000D01*
X7842142Y-32297857D01*
X7984999Y-32583571D01*
X7984999Y-33012142D01*
X7842142Y-33297857D01*
X7699285Y-33440714D01*
X7413571Y-33583571D01*
X6270714Y-33583571D01*
X10413571Y-34869285D02*
X10127857Y-35012142D01*
X9556428Y-35012142D01*
X9270714Y-34869285D01*
X9127857Y-34583571D01*
X9127857Y-33440714D01*
X9270714Y-33155000D01*
X9556428Y-33012142D01*
X10127857Y-33012142D01*
X10413571Y-33155000D01*
X10556428Y-33440714D01*
X10556428Y-33726428D01*
X9127857Y-34012142D01*
X11842142Y-35012142D02*
X11842142Y-33012142D01*
X11842142Y-33583571D02*
X11985000Y-33297857D01*
X12127857Y-33155000D01*
X12413571Y-33012142D01*
X12699285Y-33012142D01*
X13699285Y-35012142D02*
X13699285Y-33012142D01*
X13699285Y-32012142D02*
X13556428Y-32155000D01*
X13699285Y-32297857D01*
X13842142Y-32155000D01*
X13699285Y-32012142D01*
X13699285Y-32297857D01*
X15127857Y-33012142D02*
X15127857Y-36012142D01*
X15127857Y-33155000D02*
X15413571Y-33012142D01*
X15985000Y-33012142D01*
X16270714Y-33155000D01*
X16413571Y-33297857D01*
X16556428Y-33583571D01*
X16556428Y-34440714D01*
X16413571Y-34726428D01*
X16270714Y-34869285D01*
X15985000Y-35012142D01*
X15413571Y-35012142D01*
X15127857Y-34869285D01*
X17842142Y-35012142D02*
X17842142Y-32012142D01*
X19127857Y-35012142D02*
X19127857Y-33440714D01*
X18985000Y-33155000D01*
X18699285Y-33012142D01*
X18270714Y-33012142D01*
X17985000Y-33155000D01*
X17842142Y-33297857D01*
X20556428Y-34726428D02*
X20699285Y-34869285D01*
X20556428Y-35012142D01*
X20413571Y-34869285D01*
X20556428Y-34726428D01*
X20556428Y-35012142D01*
D10*
X-40405000Y-45697857D02*
X-39662142Y-45697857D01*
X-40062142Y-46155000D01*
X-39890714Y-46155000D01*
X-39776428Y-46212142D01*
X-39719285Y-46269285D01*
X-39662142Y-46383571D01*
X-39662142Y-46669285D01*
X-39719285Y-46783571D01*
X-39776428Y-46840714D01*
X-39890714Y-46897857D01*
X-40233571Y-46897857D01*
X-40347857Y-46840714D01*
X-40405000Y-46783571D01*
X-48025000Y-45697857D02*
X-47225000Y-45697857D01*
X-47739285Y-46897857D01*
X-45015000Y-46555000D02*
X-44443571Y-46555000D01*
X-45129285Y-46897857D02*
X-44729285Y-45697857D01*
X-44329285Y-46897857D01*
X-43415000Y-46897857D02*
X-43415000Y-45697857D01*
X-43415000Y-46840714D02*
X-43529285Y-46897857D01*
X-43757857Y-46897857D01*
X-43872142Y-46840714D01*
X-43929285Y-46783571D01*
X-43986428Y-46669285D01*
X-43986428Y-46326428D01*
X-43929285Y-46212142D01*
X-43872142Y-46155000D01*
X-43757857Y-46097857D01*
X-43529285Y-46097857D01*
X-43415000Y-46155000D01*
X-42843571Y-46897857D02*
X-42843571Y-46097857D01*
X-42843571Y-46326428D02*
X-42786428Y-46212142D01*
X-42729285Y-46155000D01*
X-42615000Y-46097857D01*
X-42500714Y-46097857D01*
D12*
X-69215000Y-36195000D02*
X-69215000Y-36830000D01*
X-62230000Y-36830000D02*
X-62865000Y-36830000D01*
X-62230000Y-36195000D02*
X-62230000Y-36830000D01*
X-69215000Y-36830000D02*
X-68580000Y-36830000D01*
D10*
X-59305714Y-36744285D02*
X-58905714Y-36744285D01*
X-58734285Y-37372857D02*
X-59305714Y-37372857D01*
X-59305714Y-36172857D01*
X-58734285Y-36172857D01*
X-58220000Y-37372857D02*
X-58220000Y-36172857D01*
X-57534285Y-37372857D01*
X-57534285Y-36172857D01*
X-67268571Y-36744285D02*
X-67668571Y-36744285D01*
X-67668571Y-37372857D02*
X-67668571Y-36172857D01*
X-67097142Y-36172857D01*
X-66468571Y-37372857D02*
X-66582857Y-37315714D01*
X-66640000Y-37201428D01*
X-66640000Y-36172857D01*
X-65497142Y-37372857D02*
X-65497142Y-36744285D01*
X-65554285Y-36630000D01*
X-65668571Y-36572857D01*
X-65897142Y-36572857D01*
X-66011428Y-36630000D01*
X-65497142Y-37315714D02*
X-65611428Y-37372857D01*
X-65897142Y-37372857D01*
X-66011428Y-37315714D01*
X-66068571Y-37201428D01*
X-66068571Y-37087142D01*
X-66011428Y-36972857D01*
X-65897142Y-36915714D01*
X-65611428Y-36915714D01*
X-65497142Y-36858571D01*
X-64411428Y-36572857D02*
X-64411428Y-37544285D01*
X-64468571Y-37658571D01*
X-64525714Y-37715714D01*
X-64640000Y-37772857D01*
X-64811428Y-37772857D01*
X-64925714Y-37715714D01*
X-64411428Y-37315714D02*
X-64525714Y-37372857D01*
X-64754285Y-37372857D01*
X-64868571Y-37315714D01*
X-64925714Y-37258571D01*
X-64982857Y-37144285D01*
X-64982857Y-36801428D01*
X-64925714Y-36687142D01*
X-64868571Y-36630000D01*
X-64754285Y-36572857D01*
X-64525714Y-36572857D01*
X-64411428Y-36630000D01*
D12*
X-54610000Y-36830000D02*
X-55245000Y-36830000D01*
X-54610000Y-36195000D02*
X-54610000Y-36830000D01*
X-61595000Y-36830000D02*
X-60960000Y-36830000D01*
X-61595000Y-36195000D02*
X-61595000Y-36830000D01*
D10*
X-74278928Y-37372857D02*
X-74850357Y-37372857D01*
X-74850357Y-36172857D01*
X-73364642Y-37372857D02*
X-73364642Y-36744285D01*
X-73421785Y-36630000D01*
X-73536071Y-36572857D01*
X-73764642Y-36572857D01*
X-73878928Y-36630000D01*
X-73364642Y-37315714D02*
X-73478928Y-37372857D01*
X-73764642Y-37372857D01*
X-73878928Y-37315714D01*
X-73936071Y-37201428D01*
X-73936071Y-37087142D01*
X-73878928Y-36972857D01*
X-73764642Y-36915714D01*
X-73478928Y-36915714D01*
X-73364642Y-36858571D01*
X-72964642Y-36572857D02*
X-72507500Y-36572857D01*
X-72793214Y-36172857D02*
X-72793214Y-37201428D01*
X-72736071Y-37315714D01*
X-72621785Y-37372857D01*
X-72507500Y-37372857D01*
X-71593214Y-37315714D02*
X-71707500Y-37372857D01*
X-71936071Y-37372857D01*
X-72050357Y-37315714D01*
X-72107500Y-37258571D01*
X-72164642Y-37144285D01*
X-72164642Y-36801428D01*
X-72107500Y-36687142D01*
X-72050357Y-36630000D01*
X-71936071Y-36572857D01*
X-71707500Y-36572857D01*
X-71593214Y-36630000D01*
X-71078928Y-37372857D02*
X-71078928Y-36172857D01*
X-70564642Y-37372857D02*
X-70564642Y-36744285D01*
X-70621785Y-36630000D01*
X-70736071Y-36572857D01*
X-70907500Y-36572857D01*
X-71021785Y-36630000D01*
X-71078928Y-36687142D01*
X-77238571Y-36172857D02*
X-77010000Y-36172857D01*
X-76895714Y-36230000D01*
X-76781428Y-36344285D01*
X-76724285Y-36572857D01*
X-76724285Y-36972857D01*
X-76781428Y-37201428D01*
X-76895714Y-37315714D01*
X-77010000Y-37372857D01*
X-77238571Y-37372857D01*
X-77352857Y-37315714D01*
X-77467142Y-37201428D01*
X-77524285Y-36972857D01*
X-77524285Y-36572857D01*
X-77467142Y-36344285D01*
X-77352857Y-36230000D01*
X-77238571Y-36172857D01*
X-76210000Y-36744285D02*
X-75810000Y-36744285D01*
X-75638571Y-37372857D02*
X-76210000Y-37372857D01*
X-76210000Y-36172857D01*
X-75638571Y-36172857D01*
D13*
X34516428Y-39818571D02*
X34659285Y-39818571D01*
X34802142Y-39890000D01*
X34873571Y-39961428D01*
X34945000Y-40104285D01*
X35016428Y-40390000D01*
X35016428Y-40747142D01*
X34945000Y-41032857D01*
X34873571Y-41175714D01*
X34802142Y-41247142D01*
X34659285Y-41318571D01*
X34516428Y-41318571D01*
X34373571Y-41247142D01*
X34302142Y-41175714D01*
X34230714Y-41032857D01*
X34159285Y-40747142D01*
X34159285Y-40390000D01*
X34230714Y-40104285D01*
X34302142Y-39961428D01*
X34373571Y-39890000D01*
X34516428Y-39818571D01*
X35445000Y-39818571D02*
X35945000Y-41318571D01*
X36445000Y-39818571D01*
X38373571Y-39818571D02*
X38516428Y-39818571D01*
X38659285Y-39890000D01*
X38730714Y-39961428D01*
X38802142Y-40104285D01*
X38873571Y-40390000D01*
X38873571Y-40747142D01*
X38802142Y-41032857D01*
X38730714Y-41175714D01*
X38659285Y-41247142D01*
X38516428Y-41318571D01*
X38373571Y-41318571D01*
X38230714Y-41247142D01*
X38159285Y-41175714D01*
X38087857Y-41032857D01*
X38016428Y-40747142D01*
X38016428Y-40390000D01*
X38087857Y-40104285D01*
X38159285Y-39961428D01*
X38230714Y-39890000D01*
X38373571Y-39818571D01*
X39302142Y-39818571D02*
X39802142Y-41318571D01*
X40302142Y-39818571D01*
X35817857Y-42358571D02*
X35960714Y-42358571D01*
X36103571Y-42430000D01*
X36175000Y-42501428D01*
X36246428Y-42644285D01*
X36317857Y-42930000D01*
X36317857Y-43287142D01*
X36246428Y-43572857D01*
X36175000Y-43715714D01*
X36103571Y-43787142D01*
X35960714Y-43858571D01*
X35817857Y-43858571D01*
X35675000Y-43787142D01*
X35603571Y-43715714D01*
X35532142Y-43572857D01*
X35460714Y-43287142D01*
X35460714Y-42930000D01*
X35532142Y-42644285D01*
X35603571Y-42501428D01*
X35675000Y-42430000D01*
X35817857Y-42358571D01*
X38889285Y-43858571D02*
X38032142Y-43858571D01*
X38460714Y-43858571D02*
X38460714Y-42358571D01*
X38317857Y-42572857D01*
X38175000Y-42715714D01*
X38032142Y-42787142D01*
X35460714Y-45041428D02*
X35532142Y-44970000D01*
X35675000Y-44898571D01*
X36032142Y-44898571D01*
X36175000Y-44970000D01*
X36246428Y-45041428D01*
X36317857Y-45184285D01*
X36317857Y-45327142D01*
X36246428Y-45541428D01*
X35389285Y-46398571D01*
X36317857Y-46398571D01*
X37960714Y-44898571D02*
X38889285Y-44898571D01*
X38389285Y-45470000D01*
X38603571Y-45470000D01*
X38746428Y-45541428D01*
X38817857Y-45612857D01*
X38889285Y-45755714D01*
X38889285Y-46112857D01*
X38817857Y-46255714D01*
X38746428Y-46327142D01*
X38603571Y-46398571D01*
X38175000Y-46398571D01*
X38032142Y-46327142D01*
X37960714Y-46255714D01*
X34945000Y-47438571D02*
X34230714Y-47438571D01*
X34159285Y-48152857D01*
X34230714Y-48081428D01*
X34373571Y-48010000D01*
X34730714Y-48010000D01*
X34873571Y-48081428D01*
X34945000Y-48152857D01*
X35016428Y-48295714D01*
X35016428Y-48652857D01*
X34945000Y-48795714D01*
X34873571Y-48867142D01*
X34730714Y-48938571D01*
X34373571Y-48938571D01*
X34230714Y-48867142D01*
X34159285Y-48795714D01*
X35445000Y-47438571D02*
X35945000Y-48938571D01*
X36445000Y-47438571D01*
X38373571Y-47438571D02*
X38516428Y-47438571D01*
X38659285Y-47510000D01*
X38730714Y-47581428D01*
X38802142Y-47724285D01*
X38873571Y-48010000D01*
X38873571Y-48367142D01*
X38802142Y-48652857D01*
X38730714Y-48795714D01*
X38659285Y-48867142D01*
X38516428Y-48938571D01*
X38373571Y-48938571D01*
X38230714Y-48867142D01*
X38159285Y-48795714D01*
X38087857Y-48652857D01*
X38016428Y-48367142D01*
X38016428Y-48010000D01*
X38087857Y-47724285D01*
X38159285Y-47581428D01*
X38230714Y-47510000D01*
X38373571Y-47438571D01*
X39302142Y-47438571D02*
X39802142Y-48938571D01*
X40302142Y-47438571D01*
X36175000Y-50478571D02*
X36175000Y-51478571D01*
X35817857Y-49907142D02*
X35460714Y-50978571D01*
X36389285Y-50978571D01*
X38817857Y-49978571D02*
X38103571Y-49978571D01*
X38032142Y-50692857D01*
X38103571Y-50621428D01*
X38246428Y-50550000D01*
X38603571Y-50550000D01*
X38746428Y-50621428D01*
X38817857Y-50692857D01*
X38889285Y-50835714D01*
X38889285Y-51192857D01*
X38817857Y-51335714D01*
X38746428Y-51407142D01*
X38603571Y-51478571D01*
X38246428Y-51478571D01*
X38103571Y-51407142D01*
X38032142Y-51335714D01*
X36175000Y-52518571D02*
X35889285Y-52518571D01*
X35746428Y-52590000D01*
X35675000Y-52661428D01*
X35532142Y-52875714D01*
X35460714Y-53161428D01*
X35460714Y-53732857D01*
X35532142Y-53875714D01*
X35603571Y-53947142D01*
X35746428Y-54018571D01*
X36032142Y-54018571D01*
X36175000Y-53947142D01*
X36246428Y-53875714D01*
X36317857Y-53732857D01*
X36317857Y-53375714D01*
X36246428Y-53232857D01*
X36175000Y-53161428D01*
X36032142Y-53090000D01*
X35746428Y-53090000D01*
X35603571Y-53161428D01*
X35532142Y-53232857D01*
X35460714Y-53375714D01*
X37960714Y-52518571D02*
X38960714Y-52518571D01*
X38317857Y-54018571D01*
X34945000Y-55058571D02*
X34230714Y-55058571D01*
X34159285Y-55772857D01*
X34230714Y-55701428D01*
X34373571Y-55630000D01*
X34730714Y-55630000D01*
X34873571Y-55701428D01*
X34945000Y-55772857D01*
X35016428Y-55915714D01*
X35016428Y-56272857D01*
X34945000Y-56415714D01*
X34873571Y-56487142D01*
X34730714Y-56558571D01*
X34373571Y-56558571D01*
X34230714Y-56487142D01*
X34159285Y-56415714D01*
X35445000Y-55058571D02*
X35945000Y-56558571D01*
X36445000Y-55058571D01*
X38802142Y-55058571D02*
X38087857Y-55058571D01*
X38016428Y-55772857D01*
X38087857Y-55701428D01*
X38230714Y-55630000D01*
X38587857Y-55630000D01*
X38730714Y-55701428D01*
X38802142Y-55772857D01*
X38873571Y-55915714D01*
X38873571Y-56272857D01*
X38802142Y-56415714D01*
X38730714Y-56487142D01*
X38587857Y-56558571D01*
X38230714Y-56558571D01*
X38087857Y-56487142D01*
X38016428Y-56415714D01*
X39302142Y-55058571D02*
X39802142Y-56558571D01*
X40302142Y-55058571D01*
D10*
X2041071Y-47602857D02*
X2841071Y-47602857D01*
X2326785Y-48802857D01*
X15718928Y-47602857D02*
X15833214Y-47602857D01*
X15947500Y-47660000D01*
X16004642Y-47717142D01*
X16061785Y-47831428D01*
X16118928Y-48060000D01*
X16118928Y-48345714D01*
X16061785Y-48574285D01*
X16004642Y-48688571D01*
X15947500Y-48745714D01*
X15833214Y-48802857D01*
X15718928Y-48802857D01*
X15604642Y-48745714D01*
X15547500Y-48688571D01*
X15490357Y-48574285D01*
X15433214Y-48345714D01*
X15433214Y-48060000D01*
X15490357Y-47831428D01*
X15547500Y-47717142D01*
X15604642Y-47660000D01*
X15718928Y-47602857D01*
X15718928Y-57127857D02*
X15833214Y-57127857D01*
X15947500Y-57185000D01*
X16004642Y-57242142D01*
X16061785Y-57356428D01*
X16118928Y-57585000D01*
X16118928Y-57870714D01*
X16061785Y-58099285D01*
X16004642Y-58213571D01*
X15947500Y-58270714D01*
X15833214Y-58327857D01*
X15718928Y-58327857D01*
X15604642Y-58270714D01*
X15547500Y-58213571D01*
X15490357Y-58099285D01*
X15433214Y-57870714D01*
X15433214Y-57585000D01*
X15490357Y-57356428D01*
X15547500Y-57242142D01*
X15604642Y-57185000D01*
X15718928Y-57127857D01*
X2041071Y-57127857D02*
X2841071Y-57127857D01*
X2326785Y-58327857D01*
X15718928Y-66652857D02*
X15833214Y-66652857D01*
X15947500Y-66710000D01*
X16004642Y-66767142D01*
X16061785Y-66881428D01*
X16118928Y-67110000D01*
X16118928Y-67395714D01*
X16061785Y-67624285D01*
X16004642Y-67738571D01*
X15947500Y-67795714D01*
X15833214Y-67852857D01*
X15718928Y-67852857D01*
X15604642Y-67795714D01*
X15547500Y-67738571D01*
X15490357Y-67624285D01*
X15433214Y-67395714D01*
X15433214Y-67110000D01*
X15490357Y-66881428D01*
X15547500Y-66767142D01*
X15604642Y-66710000D01*
X15718928Y-66652857D01*
X2041071Y-66652857D02*
X2841071Y-66652857D01*
X2326785Y-67852857D01*
X-5801071Y-47602857D02*
X-5572500Y-47602857D01*
X-5458214Y-47660000D01*
X-5343928Y-47774285D01*
X-5286785Y-48002857D01*
X-5286785Y-48402857D01*
X-5343928Y-48631428D01*
X-5458214Y-48745714D01*
X-5572500Y-48802857D01*
X-5801071Y-48802857D01*
X-5915357Y-48745714D01*
X-6029642Y-48631428D01*
X-6086785Y-48402857D01*
X-6086785Y-48002857D01*
X-6029642Y-47774285D01*
X-5915357Y-47660000D01*
X-5801071Y-47602857D01*
X-4772500Y-48174285D02*
X-4372500Y-48174285D01*
X-4201071Y-48802857D02*
X-4772500Y-48802857D01*
X-4772500Y-47602857D01*
X-4201071Y-47602857D01*
X-5801071Y-57127857D02*
X-5572500Y-57127857D01*
X-5458214Y-57185000D01*
X-5343928Y-57299285D01*
X-5286785Y-57527857D01*
X-5286785Y-57927857D01*
X-5343928Y-58156428D01*
X-5458214Y-58270714D01*
X-5572500Y-58327857D01*
X-5801071Y-58327857D01*
X-5915357Y-58270714D01*
X-6029642Y-58156428D01*
X-6086785Y-57927857D01*
X-6086785Y-57527857D01*
X-6029642Y-57299285D01*
X-5915357Y-57185000D01*
X-5801071Y-57127857D01*
X-4772500Y-57699285D02*
X-4372500Y-57699285D01*
X-4201071Y-58327857D02*
X-4772500Y-58327857D01*
X-4772500Y-57127857D01*
X-4201071Y-57127857D01*
X-5801071Y-66652857D02*
X-5572500Y-66652857D01*
X-5458214Y-66710000D01*
X-5343928Y-66824285D01*
X-5286785Y-67052857D01*
X-5286785Y-67452857D01*
X-5343928Y-67681428D01*
X-5458214Y-67795714D01*
X-5572500Y-67852857D01*
X-5801071Y-67852857D01*
X-5915357Y-67795714D01*
X-6029642Y-67681428D01*
X-6086785Y-67452857D01*
X-6086785Y-67052857D01*
X-6029642Y-66824285D01*
X-5915357Y-66710000D01*
X-5801071Y-66652857D01*
X-4772500Y-67224285D02*
X-4372500Y-67224285D01*
X-4201071Y-67852857D02*
X-4772500Y-67852857D01*
X-4772500Y-66652857D01*
X-4201071Y-66652857D01*
X-2841428Y-58327857D02*
X-3412857Y-58327857D01*
X-3412857Y-57127857D01*
X-1927142Y-58327857D02*
X-1927142Y-57699285D01*
X-1984285Y-57585000D01*
X-2098571Y-57527857D01*
X-2327142Y-57527857D01*
X-2441428Y-57585000D01*
X-1927142Y-58270714D02*
X-2041428Y-58327857D01*
X-2327142Y-58327857D01*
X-2441428Y-58270714D01*
X-2498571Y-58156428D01*
X-2498571Y-58042142D01*
X-2441428Y-57927857D01*
X-2327142Y-57870714D01*
X-2041428Y-57870714D01*
X-1927142Y-57813571D01*
X-1527142Y-57527857D02*
X-1070000Y-57527857D01*
X-1355714Y-57127857D02*
X-1355714Y-58156428D01*
X-1298571Y-58270714D01*
X-1184285Y-58327857D01*
X-1070000Y-58327857D01*
X-155714Y-58270714D02*
X-270000Y-58327857D01*
X-498571Y-58327857D01*
X-612857Y-58270714D01*
X-670000Y-58213571D01*
X-727142Y-58099285D01*
X-727142Y-57756428D01*
X-670000Y-57642142D01*
X-612857Y-57585000D01*
X-498571Y-57527857D01*
X-270000Y-57527857D01*
X-155714Y-57585000D01*
X358571Y-58327857D02*
X358571Y-57127857D01*
X872857Y-58327857D02*
X872857Y-57699285D01*
X815714Y-57585000D01*
X701428Y-57527857D01*
X529999Y-57527857D01*
X415714Y-57585000D01*
X358571Y-57642142D01*
X-2841428Y-67852857D02*
X-3412857Y-67852857D01*
X-3412857Y-66652857D01*
X-1927142Y-67852857D02*
X-1927142Y-67224285D01*
X-1984285Y-67110000D01*
X-2098571Y-67052857D01*
X-2327142Y-67052857D01*
X-2441428Y-67110000D01*
X-1927142Y-67795714D02*
X-2041428Y-67852857D01*
X-2327142Y-67852857D01*
X-2441428Y-67795714D01*
X-2498571Y-67681428D01*
X-2498571Y-67567142D01*
X-2441428Y-67452857D01*
X-2327142Y-67395714D01*
X-2041428Y-67395714D01*
X-1927142Y-67338571D01*
X-1527142Y-67052857D02*
X-1070000Y-67052857D01*
X-1355714Y-66652857D02*
X-1355714Y-67681428D01*
X-1298571Y-67795714D01*
X-1184285Y-67852857D01*
X-1070000Y-67852857D01*
X-155714Y-67795714D02*
X-270000Y-67852857D01*
X-498571Y-67852857D01*
X-612857Y-67795714D01*
X-670000Y-67738571D01*
X-727142Y-67624285D01*
X-727142Y-67281428D01*
X-670000Y-67167142D01*
X-612857Y-67110000D01*
X-498571Y-67052857D01*
X-270000Y-67052857D01*
X-155714Y-67110000D01*
X358571Y-67852857D02*
X358571Y-66652857D01*
X872857Y-67852857D02*
X872857Y-67224285D01*
X815714Y-67110000D01*
X701428Y-67052857D01*
X529999Y-67052857D01*
X415714Y-67110000D01*
X358571Y-67167142D01*
X7978928Y-57127857D02*
X8664642Y-57127857D01*
X8321785Y-58327857D02*
X8321785Y-57127857D01*
X9750357Y-58327857D02*
X9350357Y-57756428D01*
X9064642Y-58327857D02*
X9064642Y-57127857D01*
X9521785Y-57127857D01*
X9636071Y-57185000D01*
X9693214Y-57242142D01*
X9750357Y-57356428D01*
X9750357Y-57527857D01*
X9693214Y-57642142D01*
X9636071Y-57699285D01*
X9521785Y-57756428D01*
X9064642Y-57756428D01*
X10264642Y-58327857D02*
X10264642Y-57127857D01*
X7893214Y-66652857D02*
X8121785Y-66652857D01*
X8236071Y-66710000D01*
X8350357Y-66824285D01*
X8407500Y-67052857D01*
X8407500Y-67452857D01*
X8350357Y-67681428D01*
X8236071Y-67795714D01*
X8121785Y-67852857D01*
X7893214Y-67852857D01*
X7778928Y-67795714D01*
X7664642Y-67681428D01*
X7607500Y-67452857D01*
X7607500Y-67052857D01*
X7664642Y-66824285D01*
X7778928Y-66710000D01*
X7893214Y-66652857D01*
X8921785Y-67852857D02*
X8921785Y-66652857D01*
X9207500Y-66652857D01*
X9378928Y-66710000D01*
X9493214Y-66824285D01*
X9550357Y-66938571D01*
X9607500Y-67167142D01*
X9607500Y-67338571D01*
X9550357Y-67567142D01*
X9493214Y-67681428D01*
X9378928Y-67795714D01*
X9207500Y-67852857D01*
X8921785Y-67852857D01*
X10807500Y-67852857D02*
X10407500Y-67281428D01*
X10121785Y-67852857D02*
X10121785Y-66652857D01*
X10578928Y-66652857D01*
X10693214Y-66710000D01*
X10750357Y-66767142D01*
X10807500Y-66881428D01*
X10807500Y-67052857D01*
X10750357Y-67167142D01*
X10693214Y-67224285D01*
X10578928Y-67281428D01*
X10121785Y-67281428D01*
X8007500Y-48802857D02*
X8007500Y-47602857D01*
X8578928Y-48802857D02*
X8578928Y-47602857D01*
X8864642Y-47602857D01*
X9036071Y-47660000D01*
X9150357Y-47774285D01*
X9207500Y-47888571D01*
X9264642Y-48117142D01*
X9264642Y-48288571D01*
X9207500Y-48517142D01*
X9150357Y-48631428D01*
X9036071Y-48745714D01*
X8864642Y-48802857D01*
X8578928Y-48802857D01*
X10464642Y-48802857D02*
X10064642Y-48231428D01*
X9778928Y-48802857D02*
X9778928Y-47602857D01*
X10236071Y-47602857D01*
X10350357Y-47660000D01*
X10407500Y-47717142D01*
X10464642Y-47831428D01*
X10464642Y-48002857D01*
X10407500Y-48117142D01*
X10350357Y-48174285D01*
X10236071Y-48231428D01*
X9778928Y-48231428D01*
D14*
X34354047Y-59959761D02*
X34354047Y-57959761D01*
X35115952Y-57959761D01*
X35306428Y-58055000D01*
X35401666Y-58150238D01*
X35496904Y-58340714D01*
X35496904Y-58626428D01*
X35401666Y-58816904D01*
X35306428Y-58912142D01*
X35115952Y-59007380D01*
X34354047Y-59007380D01*
X36639761Y-59959761D02*
X36449285Y-59864523D01*
X36354047Y-59769285D01*
X36258809Y-59578809D01*
X36258809Y-59007380D01*
X36354047Y-58816904D01*
X36449285Y-58721666D01*
X36639761Y-58626428D01*
X36925476Y-58626428D01*
X37115952Y-58721666D01*
X37211190Y-58816904D01*
X37306428Y-59007380D01*
X37306428Y-59578809D01*
X37211190Y-59769285D01*
X37115952Y-59864523D01*
X36925476Y-59959761D01*
X36639761Y-59959761D01*
X38163571Y-59959761D02*
X38163571Y-58626428D01*
X38163571Y-59007380D02*
X38258809Y-58816904D01*
X38354047Y-58721666D01*
X38544523Y-58626428D01*
X38735000Y-58626428D01*
X39115952Y-58626428D02*
X39877857Y-58626428D01*
X39401666Y-57959761D02*
X39401666Y-59674047D01*
X39496904Y-59864523D01*
X39687380Y-59959761D01*
X39877857Y-59959761D01*
X42735000Y-58912142D02*
X43020714Y-59007380D01*
X43115952Y-59102619D01*
X43211190Y-59293095D01*
X43211190Y-59578809D01*
X43115952Y-59769285D01*
X43020714Y-59864523D01*
X42830238Y-59959761D01*
X42068333Y-59959761D01*
X42068333Y-57959761D01*
X42735000Y-57959761D01*
X42925476Y-58055000D01*
X43020714Y-58150238D01*
X43115952Y-58340714D01*
X43115952Y-58531190D01*
X43020714Y-58721666D01*
X42925476Y-58816904D01*
X42735000Y-58912142D01*
X42068333Y-58912142D01*
X34496904Y-7254761D02*
X34496904Y-5254761D01*
X35258809Y-5254761D01*
X35449285Y-5350000D01*
X35544523Y-5445238D01*
X35639761Y-5635714D01*
X35639761Y-5921428D01*
X35544523Y-6111904D01*
X35449285Y-6207142D01*
X35258809Y-6302380D01*
X34496904Y-6302380D01*
X36782619Y-7254761D02*
X36592142Y-7159523D01*
X36496904Y-7064285D01*
X36401666Y-6873809D01*
X36401666Y-6302380D01*
X36496904Y-6111904D01*
X36592142Y-6016666D01*
X36782619Y-5921428D01*
X37068333Y-5921428D01*
X37258809Y-6016666D01*
X37354047Y-6111904D01*
X37449285Y-6302380D01*
X37449285Y-6873809D01*
X37354047Y-7064285D01*
X37258809Y-7159523D01*
X37068333Y-7254761D01*
X36782619Y-7254761D01*
X38306428Y-7254761D02*
X38306428Y-5921428D01*
X38306428Y-6302380D02*
X38401666Y-6111904D01*
X38496904Y-6016666D01*
X38687380Y-5921428D01*
X38877857Y-5921428D01*
X39258809Y-5921428D02*
X40020714Y-5921428D01*
X39544523Y-5254761D02*
X39544523Y-6969047D01*
X39639761Y-7159523D01*
X39830238Y-7254761D01*
X40020714Y-7254761D01*
X42115952Y-6683333D02*
X43068333Y-6683333D01*
X41925476Y-7254761D02*
X42592142Y-5254761D01*
X43258809Y-7254761D01*
D10*
X8007500Y-8797857D02*
X8007500Y-7597857D01*
X8578928Y-8797857D02*
X8578928Y-7597857D01*
X8864642Y-7597857D01*
X9036071Y-7655000D01*
X9150357Y-7769285D01*
X9207500Y-7883571D01*
X9264642Y-8112142D01*
X9264642Y-8283571D01*
X9207500Y-8512142D01*
X9150357Y-8626428D01*
X9036071Y-8740714D01*
X8864642Y-8797857D01*
X8578928Y-8797857D01*
X10464642Y-8797857D02*
X10064642Y-8226428D01*
X9778928Y-8797857D02*
X9778928Y-7597857D01*
X10236071Y-7597857D01*
X10350357Y-7655000D01*
X10407500Y-7712142D01*
X10464642Y-7826428D01*
X10464642Y-7997857D01*
X10407500Y-8112142D01*
X10350357Y-8169285D01*
X10236071Y-8226428D01*
X9778928Y-8226428D01*
X7893214Y-26647857D02*
X8121785Y-26647857D01*
X8236071Y-26705000D01*
X8350357Y-26819285D01*
X8407500Y-27047857D01*
X8407500Y-27447857D01*
X8350357Y-27676428D01*
X8236071Y-27790714D01*
X8121785Y-27847857D01*
X7893214Y-27847857D01*
X7778928Y-27790714D01*
X7664642Y-27676428D01*
X7607500Y-27447857D01*
X7607500Y-27047857D01*
X7664642Y-26819285D01*
X7778928Y-26705000D01*
X7893214Y-26647857D01*
X8921785Y-27847857D02*
X8921785Y-26647857D01*
X9207500Y-26647857D01*
X9378928Y-26705000D01*
X9493214Y-26819285D01*
X9550357Y-26933571D01*
X9607500Y-27162142D01*
X9607500Y-27333571D01*
X9550357Y-27562142D01*
X9493214Y-27676428D01*
X9378928Y-27790714D01*
X9207500Y-27847857D01*
X8921785Y-27847857D01*
X10807500Y-27847857D02*
X10407500Y-27276428D01*
X10121785Y-27847857D02*
X10121785Y-26647857D01*
X10578928Y-26647857D01*
X10693214Y-26705000D01*
X10750357Y-26762142D01*
X10807500Y-26876428D01*
X10807500Y-27047857D01*
X10750357Y-27162142D01*
X10693214Y-27219285D01*
X10578928Y-27276428D01*
X10121785Y-27276428D01*
X7978928Y-17122857D02*
X8664642Y-17122857D01*
X8321785Y-18322857D02*
X8321785Y-17122857D01*
X9750357Y-18322857D02*
X9350357Y-17751428D01*
X9064642Y-18322857D02*
X9064642Y-17122857D01*
X9521785Y-17122857D01*
X9636071Y-17180000D01*
X9693214Y-17237142D01*
X9750357Y-17351428D01*
X9750357Y-17522857D01*
X9693214Y-17637142D01*
X9636071Y-17694285D01*
X9521785Y-17751428D01*
X9064642Y-17751428D01*
X10264642Y-18322857D02*
X10264642Y-17122857D01*
X-2841428Y-27847857D02*
X-3412857Y-27847857D01*
X-3412857Y-26647857D01*
X-1927142Y-27847857D02*
X-1927142Y-27219285D01*
X-1984285Y-27105000D01*
X-2098571Y-27047857D01*
X-2327142Y-27047857D01*
X-2441428Y-27105000D01*
X-1927142Y-27790714D02*
X-2041428Y-27847857D01*
X-2327142Y-27847857D01*
X-2441428Y-27790714D01*
X-2498571Y-27676428D01*
X-2498571Y-27562142D01*
X-2441428Y-27447857D01*
X-2327142Y-27390714D01*
X-2041428Y-27390714D01*
X-1927142Y-27333571D01*
X-1527142Y-27047857D02*
X-1070000Y-27047857D01*
X-1355714Y-26647857D02*
X-1355714Y-27676428D01*
X-1298571Y-27790714D01*
X-1184285Y-27847857D01*
X-1070000Y-27847857D01*
X-155714Y-27790714D02*
X-270000Y-27847857D01*
X-498571Y-27847857D01*
X-612857Y-27790714D01*
X-670000Y-27733571D01*
X-727142Y-27619285D01*
X-727142Y-27276428D01*
X-670000Y-27162142D01*
X-612857Y-27105000D01*
X-498571Y-27047857D01*
X-270000Y-27047857D01*
X-155714Y-27105000D01*
X358571Y-27847857D02*
X358571Y-26647857D01*
X872857Y-27847857D02*
X872857Y-27219285D01*
X815714Y-27105000D01*
X701428Y-27047857D01*
X529999Y-27047857D01*
X415714Y-27105000D01*
X358571Y-27162142D01*
X-2841428Y-18322857D02*
X-3412857Y-18322857D01*
X-3412857Y-17122857D01*
X-1927142Y-18322857D02*
X-1927142Y-17694285D01*
X-1984285Y-17580000D01*
X-2098571Y-17522857D01*
X-2327142Y-17522857D01*
X-2441428Y-17580000D01*
X-1927142Y-18265714D02*
X-2041428Y-18322857D01*
X-2327142Y-18322857D01*
X-2441428Y-18265714D01*
X-2498571Y-18151428D01*
X-2498571Y-18037142D01*
X-2441428Y-17922857D01*
X-2327142Y-17865714D01*
X-2041428Y-17865714D01*
X-1927142Y-17808571D01*
X-1527142Y-17522857D02*
X-1070000Y-17522857D01*
X-1355714Y-17122857D02*
X-1355714Y-18151428D01*
X-1298571Y-18265714D01*
X-1184285Y-18322857D01*
X-1070000Y-18322857D01*
X-155714Y-18265714D02*
X-270000Y-18322857D01*
X-498571Y-18322857D01*
X-612857Y-18265714D01*
X-670000Y-18208571D01*
X-727142Y-18094285D01*
X-727142Y-17751428D01*
X-670000Y-17637142D01*
X-612857Y-17580000D01*
X-498571Y-17522857D01*
X-270000Y-17522857D01*
X-155714Y-17580000D01*
X358571Y-18322857D02*
X358571Y-17122857D01*
X872857Y-18322857D02*
X872857Y-17694285D01*
X815714Y-17580000D01*
X701428Y-17522857D01*
X529999Y-17522857D01*
X415714Y-17580000D01*
X358571Y-17637142D01*
X-5801071Y-26647857D02*
X-5572500Y-26647857D01*
X-5458214Y-26705000D01*
X-5343928Y-26819285D01*
X-5286785Y-27047857D01*
X-5286785Y-27447857D01*
X-5343928Y-27676428D01*
X-5458214Y-27790714D01*
X-5572500Y-27847857D01*
X-5801071Y-27847857D01*
X-5915357Y-27790714D01*
X-6029642Y-27676428D01*
X-6086785Y-27447857D01*
X-6086785Y-27047857D01*
X-6029642Y-26819285D01*
X-5915357Y-26705000D01*
X-5801071Y-26647857D01*
X-4772500Y-27219285D02*
X-4372500Y-27219285D01*
X-4201071Y-27847857D02*
X-4772500Y-27847857D01*
X-4772500Y-26647857D01*
X-4201071Y-26647857D01*
X-5801071Y-17122857D02*
X-5572500Y-17122857D01*
X-5458214Y-17180000D01*
X-5343928Y-17294285D01*
X-5286785Y-17522857D01*
X-5286785Y-17922857D01*
X-5343928Y-18151428D01*
X-5458214Y-18265714D01*
X-5572500Y-18322857D01*
X-5801071Y-18322857D01*
X-5915357Y-18265714D01*
X-6029642Y-18151428D01*
X-6086785Y-17922857D01*
X-6086785Y-17522857D01*
X-6029642Y-17294285D01*
X-5915357Y-17180000D01*
X-5801071Y-17122857D01*
X-4772500Y-17694285D02*
X-4372500Y-17694285D01*
X-4201071Y-18322857D02*
X-4772500Y-18322857D01*
X-4772500Y-17122857D01*
X-4201071Y-17122857D01*
X-5801071Y-7597857D02*
X-5572500Y-7597857D01*
X-5458214Y-7655000D01*
X-5343928Y-7769285D01*
X-5286785Y-7997857D01*
X-5286785Y-8397857D01*
X-5343928Y-8626428D01*
X-5458214Y-8740714D01*
X-5572500Y-8797857D01*
X-5801071Y-8797857D01*
X-5915357Y-8740714D01*
X-6029642Y-8626428D01*
X-6086785Y-8397857D01*
X-6086785Y-7997857D01*
X-6029642Y-7769285D01*
X-5915357Y-7655000D01*
X-5801071Y-7597857D01*
X-4772500Y-8169285D02*
X-4372500Y-8169285D01*
X-4201071Y-8797857D02*
X-4772500Y-8797857D01*
X-4772500Y-7597857D01*
X-4201071Y-7597857D01*
X2041071Y-26647857D02*
X2841071Y-26647857D01*
X2326785Y-27847857D01*
X15718928Y-26647857D02*
X15833214Y-26647857D01*
X15947500Y-26705000D01*
X16004642Y-26762142D01*
X16061785Y-26876428D01*
X16118928Y-27105000D01*
X16118928Y-27390714D01*
X16061785Y-27619285D01*
X16004642Y-27733571D01*
X15947500Y-27790714D01*
X15833214Y-27847857D01*
X15718928Y-27847857D01*
X15604642Y-27790714D01*
X15547500Y-27733571D01*
X15490357Y-27619285D01*
X15433214Y-27390714D01*
X15433214Y-27105000D01*
X15490357Y-26876428D01*
X15547500Y-26762142D01*
X15604642Y-26705000D01*
X15718928Y-26647857D01*
X2041071Y-17122857D02*
X2841071Y-17122857D01*
X2326785Y-18322857D01*
X15718928Y-17122857D02*
X15833214Y-17122857D01*
X15947500Y-17180000D01*
X16004642Y-17237142D01*
X16061785Y-17351428D01*
X16118928Y-17580000D01*
X16118928Y-17865714D01*
X16061785Y-18094285D01*
X16004642Y-18208571D01*
X15947500Y-18265714D01*
X15833214Y-18322857D01*
X15718928Y-18322857D01*
X15604642Y-18265714D01*
X15547500Y-18208571D01*
X15490357Y-18094285D01*
X15433214Y-17865714D01*
X15433214Y-17580000D01*
X15490357Y-17351428D01*
X15547500Y-17237142D01*
X15604642Y-17180000D01*
X15718928Y-17122857D01*
X15718928Y-7597857D02*
X15833214Y-7597857D01*
X15947500Y-7655000D01*
X16004642Y-7712142D01*
X16061785Y-7826428D01*
X16118928Y-8055000D01*
X16118928Y-8340714D01*
X16061785Y-8569285D01*
X16004642Y-8683571D01*
X15947500Y-8740714D01*
X15833214Y-8797857D01*
X15718928Y-8797857D01*
X15604642Y-8740714D01*
X15547500Y-8683571D01*
X15490357Y-8569285D01*
X15433214Y-8340714D01*
X15433214Y-8055000D01*
X15490357Y-7826428D01*
X15547500Y-7712142D01*
X15604642Y-7655000D01*
X15718928Y-7597857D01*
X2041071Y-7597857D02*
X2841071Y-7597857D01*
X2326785Y-8797857D01*
D13*
X34945000Y-23943571D02*
X34230714Y-23943571D01*
X34159285Y-24657857D01*
X34230714Y-24586428D01*
X34373571Y-24515000D01*
X34730714Y-24515000D01*
X34873571Y-24586428D01*
X34945000Y-24657857D01*
X35016428Y-24800714D01*
X35016428Y-25157857D01*
X34945000Y-25300714D01*
X34873571Y-25372142D01*
X34730714Y-25443571D01*
X34373571Y-25443571D01*
X34230714Y-25372142D01*
X34159285Y-25300714D01*
X35445000Y-23943571D02*
X35945000Y-25443571D01*
X36445000Y-23943571D01*
X38802142Y-23943571D02*
X38087857Y-23943571D01*
X38016428Y-24657857D01*
X38087857Y-24586428D01*
X38230714Y-24515000D01*
X38587857Y-24515000D01*
X38730714Y-24586428D01*
X38802142Y-24657857D01*
X38873571Y-24800714D01*
X38873571Y-25157857D01*
X38802142Y-25300714D01*
X38730714Y-25372142D01*
X38587857Y-25443571D01*
X38230714Y-25443571D01*
X38087857Y-25372142D01*
X38016428Y-25300714D01*
X39302142Y-23943571D02*
X39802142Y-25443571D01*
X40302142Y-23943571D01*
X36175000Y-21403571D02*
X35889285Y-21403571D01*
X35746428Y-21475000D01*
X35675000Y-21546428D01*
X35532142Y-21760714D01*
X35460714Y-22046428D01*
X35460714Y-22617857D01*
X35532142Y-22760714D01*
X35603571Y-22832142D01*
X35746428Y-22903571D01*
X36032142Y-22903571D01*
X36175000Y-22832142D01*
X36246428Y-22760714D01*
X36317857Y-22617857D01*
X36317857Y-22260714D01*
X36246428Y-22117857D01*
X36175000Y-22046428D01*
X36032142Y-21975000D01*
X35746428Y-21975000D01*
X35603571Y-22046428D01*
X35532142Y-22117857D01*
X35460714Y-22260714D01*
X37960714Y-21403571D02*
X38960714Y-21403571D01*
X38317857Y-22903571D01*
X36175000Y-19363571D02*
X36175000Y-20363571D01*
X35817857Y-18792142D02*
X35460714Y-19863571D01*
X36389285Y-19863571D01*
X38817857Y-18863571D02*
X38103571Y-18863571D01*
X38032142Y-19577857D01*
X38103571Y-19506428D01*
X38246428Y-19435000D01*
X38603571Y-19435000D01*
X38746428Y-19506428D01*
X38817857Y-19577857D01*
X38889285Y-19720714D01*
X38889285Y-20077857D01*
X38817857Y-20220714D01*
X38746428Y-20292142D01*
X38603571Y-20363571D01*
X38246428Y-20363571D01*
X38103571Y-20292142D01*
X38032142Y-20220714D01*
X34945000Y-16323571D02*
X34230714Y-16323571D01*
X34159285Y-17037857D01*
X34230714Y-16966428D01*
X34373571Y-16895000D01*
X34730714Y-16895000D01*
X34873571Y-16966428D01*
X34945000Y-17037857D01*
X35016428Y-17180714D01*
X35016428Y-17537857D01*
X34945000Y-17680714D01*
X34873571Y-17752142D01*
X34730714Y-17823571D01*
X34373571Y-17823571D01*
X34230714Y-17752142D01*
X34159285Y-17680714D01*
X35445000Y-16323571D02*
X35945000Y-17823571D01*
X36445000Y-16323571D01*
X38373571Y-16323571D02*
X38516428Y-16323571D01*
X38659285Y-16395000D01*
X38730714Y-16466428D01*
X38802142Y-16609285D01*
X38873571Y-16895000D01*
X38873571Y-17252142D01*
X38802142Y-17537857D01*
X38730714Y-17680714D01*
X38659285Y-17752142D01*
X38516428Y-17823571D01*
X38373571Y-17823571D01*
X38230714Y-17752142D01*
X38159285Y-17680714D01*
X38087857Y-17537857D01*
X38016428Y-17252142D01*
X38016428Y-16895000D01*
X38087857Y-16609285D01*
X38159285Y-16466428D01*
X38230714Y-16395000D01*
X38373571Y-16323571D01*
X39302142Y-16323571D02*
X39802142Y-17823571D01*
X40302142Y-16323571D01*
X35460714Y-13926428D02*
X35532142Y-13855000D01*
X35675000Y-13783571D01*
X36032142Y-13783571D01*
X36175000Y-13855000D01*
X36246428Y-13926428D01*
X36317857Y-14069285D01*
X36317857Y-14212142D01*
X36246428Y-14426428D01*
X35389285Y-15283571D01*
X36317857Y-15283571D01*
X37960714Y-13783571D02*
X38889285Y-13783571D01*
X38389285Y-14355000D01*
X38603571Y-14355000D01*
X38746428Y-14426428D01*
X38817857Y-14497857D01*
X38889285Y-14640714D01*
X38889285Y-14997857D01*
X38817857Y-15140714D01*
X38746428Y-15212142D01*
X38603571Y-15283571D01*
X38175000Y-15283571D01*
X38032142Y-15212142D01*
X37960714Y-15140714D01*
X35817857Y-11243571D02*
X35960714Y-11243571D01*
X36103571Y-11315000D01*
X36175000Y-11386428D01*
X36246428Y-11529285D01*
X36317857Y-11815000D01*
X36317857Y-12172142D01*
X36246428Y-12457857D01*
X36175000Y-12600714D01*
X36103571Y-12672142D01*
X35960714Y-12743571D01*
X35817857Y-12743571D01*
X35675000Y-12672142D01*
X35603571Y-12600714D01*
X35532142Y-12457857D01*
X35460714Y-12172142D01*
X35460714Y-11815000D01*
X35532142Y-11529285D01*
X35603571Y-11386428D01*
X35675000Y-11315000D01*
X35817857Y-11243571D01*
X38889285Y-12743571D02*
X38032142Y-12743571D01*
X38460714Y-12743571D02*
X38460714Y-11243571D01*
X38317857Y-11457857D01*
X38175000Y-11600714D01*
X38032142Y-11672142D01*
X34516428Y-8703571D02*
X34659285Y-8703571D01*
X34802142Y-8775000D01*
X34873571Y-8846428D01*
X34945000Y-8989285D01*
X35016428Y-9275000D01*
X35016428Y-9632142D01*
X34945000Y-9917857D01*
X34873571Y-10060714D01*
X34802142Y-10132142D01*
X34659285Y-10203571D01*
X34516428Y-10203571D01*
X34373571Y-10132142D01*
X34302142Y-10060714D01*
X34230714Y-9917857D01*
X34159285Y-9632142D01*
X34159285Y-9275000D01*
X34230714Y-8989285D01*
X34302142Y-8846428D01*
X34373571Y-8775000D01*
X34516428Y-8703571D01*
X35445000Y-8703571D02*
X35945000Y-10203571D01*
X36445000Y-8703571D01*
X38373571Y-8703571D02*
X38516428Y-8703571D01*
X38659285Y-8775000D01*
X38730714Y-8846428D01*
X38802142Y-8989285D01*
X38873571Y-9275000D01*
X38873571Y-9632142D01*
X38802142Y-9917857D01*
X38730714Y-10060714D01*
X38659285Y-10132142D01*
X38516428Y-10203571D01*
X38373571Y-10203571D01*
X38230714Y-10132142D01*
X38159285Y-10060714D01*
X38087857Y-9917857D01*
X38016428Y-9632142D01*
X38016428Y-9275000D01*
X38087857Y-8989285D01*
X38159285Y-8846428D01*
X38230714Y-8775000D01*
X38373571Y-8703571D01*
X39302142Y-8703571D02*
X39802142Y-10203571D01*
X40302142Y-8703571D01*
D12*
%TO.C,U77*%
X-63500000Y-16070000D02*
X-61300000Y-16070000D01*
X-63500000Y-16070000D02*
X-65700000Y-16070000D01*
X-63500000Y-10600000D02*
X-61300000Y-10600000D01*
X-63500000Y-10600000D02*
X-67100000Y-10600000D01*
%TO.C,U76*%
X-43180000Y-15945000D02*
X-40980000Y-15945000D01*
X-43180000Y-15945000D02*
X-45380000Y-15945000D01*
X-43180000Y-10725000D02*
X-40980000Y-10725000D01*
X-43180000Y-10725000D02*
X-46780000Y-10725000D01*
%TO.C,U75*%
X-73660000Y-16070000D02*
X-71460000Y-16070000D01*
X-73660000Y-16070000D02*
X-75860000Y-16070000D01*
X-73660000Y-10600000D02*
X-71460000Y-10600000D01*
X-73660000Y-10600000D02*
X-77260000Y-10600000D01*
%TO.C,U74*%
X-53340000Y-15990000D02*
X-51140000Y-15990000D01*
X-53340000Y-15990000D02*
X-55540000Y-15990000D01*
X-53340000Y-10770000D02*
X-51140000Y-10770000D01*
X-53340000Y-10770000D02*
X-56940000Y-10770000D01*
%TO.C,U73*%
X-60260000Y-21700000D02*
X-62160000Y-21700000D01*
X-61660000Y-24020000D02*
X-60260000Y-24020000D01*
%TO.C,U72*%
X-65340000Y-21700000D02*
X-67240000Y-21700000D01*
X-66740000Y-24020000D02*
X-65340000Y-24020000D01*
%TO.C,U71*%
X-70420000Y-21700000D02*
X-72320000Y-21700000D01*
X-71820000Y-24020000D02*
X-70420000Y-24020000D01*
%TO.C,U70*%
X-43180000Y-37425000D02*
X-40980000Y-37425000D01*
X-43180000Y-37425000D02*
X-45380000Y-37425000D01*
X-43180000Y-30655000D02*
X-40980000Y-30655000D01*
X-43180000Y-30655000D02*
X-46780000Y-30655000D01*
%TO.C,U69*%
X-80580000Y-50275000D02*
X-82480000Y-50275000D01*
X-81980000Y-52595000D02*
X-80580000Y-52595000D01*
%TO.C,U68*%
X-90740000Y-43290000D02*
X-92640000Y-43290000D01*
X-92140000Y-45610000D02*
X-90740000Y-45610000D01*
%TO.C,U67*%
X-80580000Y-28685000D02*
X-82480000Y-28685000D01*
X-81980000Y-31005000D02*
X-80580000Y-31005000D01*
%TO.C,U66*%
X-90740000Y-21700000D02*
X-92640000Y-21700000D01*
X-92140000Y-24020000D02*
X-90740000Y-24020000D01*
%TO.C,U65*%
X-53340000Y-26230000D02*
X-51140000Y-26230000D01*
X-53340000Y-26230000D02*
X-55540000Y-26230000D01*
X-53340000Y-20760000D02*
X-51140000Y-20760000D01*
X-53340000Y-20760000D02*
X-56940000Y-20760000D01*
%TO.C,U64*%
X-85660000Y-50275000D02*
X-87560000Y-50275000D01*
X-87060000Y-52595000D02*
X-85660000Y-52595000D01*
%TO.C,U63*%
X-80580000Y-36940000D02*
X-82480000Y-36940000D01*
X-81980000Y-39260000D02*
X-80580000Y-39260000D01*
%TO.C,U62*%
X-85660000Y-28685000D02*
X-87560000Y-28685000D01*
X-87060000Y-31005000D02*
X-85660000Y-31005000D01*
%TO.C,U61*%
X-80580000Y-15350000D02*
X-82480000Y-15350000D01*
X-81980000Y-17670000D02*
X-80580000Y-17670000D01*
%TO.C,U60*%
X-80580000Y-43290000D02*
X-82480000Y-43290000D01*
X-81980000Y-45610000D02*
X-80580000Y-45610000D01*
%TO.C,U59*%
X-90740000Y-36940000D02*
X-92640000Y-36940000D01*
X-92140000Y-39260000D02*
X-90740000Y-39260000D01*
%TO.C,U58*%
X-80580000Y-21700000D02*
X-82480000Y-21700000D01*
X-81980000Y-24020000D02*
X-80580000Y-24020000D01*
%TO.C,U57*%
X-90740000Y-15350000D02*
X-92640000Y-15350000D01*
X-92140000Y-17670000D02*
X-90740000Y-17670000D01*
%TO.C,U56*%
X-90740000Y-50275000D02*
X-92640000Y-50275000D01*
X-92140000Y-52595000D02*
X-90740000Y-52595000D01*
%TO.C,U55*%
X-85660000Y-36940000D02*
X-87560000Y-36940000D01*
X-87060000Y-39260000D02*
X-85660000Y-39260000D01*
%TO.C,U54*%
X-90740000Y-28685000D02*
X-92640000Y-28685000D01*
X-92140000Y-31005000D02*
X-90740000Y-31005000D01*
%TO.C,U53*%
X-85660000Y-15350000D02*
X-87560000Y-15350000D01*
X-87060000Y-17670000D02*
X-85660000Y-17670000D01*
%TO.C,U52*%
X-43180000Y-26105000D02*
X-40980000Y-26105000D01*
X-43180000Y-26105000D02*
X-45380000Y-26105000D01*
X-43180000Y-20885000D02*
X-40980000Y-20885000D01*
X-43180000Y-20885000D02*
X-46780000Y-20885000D01*
%TO.C,U51*%
X-75500000Y-21700000D02*
X-77400000Y-21700000D01*
X-76900000Y-24020000D02*
X-75500000Y-24020000D01*
%TO.C,U50*%
X-50100000Y-31860000D02*
X-52000000Y-31860000D01*
X-51500000Y-34180000D02*
X-50100000Y-34180000D01*
%TO.C,U49*%
X-570000Y-43290000D02*
X-2470000Y-43290000D01*
X-1970000Y-45610000D02*
X-570000Y-45610000D01*
%TO.C,U48*%
X-29780000Y-43290000D02*
X-31680000Y-43290000D01*
X-31180000Y-45610000D02*
X-29780000Y-45610000D01*
%TO.C,U47*%
X-34860000Y-43290000D02*
X-36760000Y-43290000D01*
X-36260000Y-45610000D02*
X-34860000Y-45610000D01*
%TO.C,U46*%
X-24700000Y-43290000D02*
X-26600000Y-43290000D01*
X-26100000Y-45610000D02*
X-24700000Y-45610000D01*
%TO.C,U45*%
X-19620000Y-43290000D02*
X-21520000Y-43290000D01*
X-21020000Y-45610000D02*
X-19620000Y-45610000D01*
%TO.C,U44*%
X21020000Y-63610000D02*
X19120000Y-63610000D01*
X19620000Y-65930000D02*
X21020000Y-65930000D01*
%TO.C,U43*%
X26100000Y-63610000D02*
X24200000Y-63610000D01*
X24700000Y-65930000D02*
X26100000Y-65930000D01*
%TO.C,U42*%
X31180000Y-63610000D02*
X29280000Y-63610000D01*
X29780000Y-65930000D02*
X31180000Y-65930000D01*
%TO.C,U41*%
X26100000Y-56625000D02*
X24200000Y-56625000D01*
X24700000Y-58945000D02*
X26100000Y-58945000D01*
%TO.C,U40*%
X31180000Y-56625000D02*
X29280000Y-56625000D01*
X29780000Y-58945000D02*
X31180000Y-58945000D01*
%TO.C,U39*%
X31180000Y-49640000D02*
X29280000Y-49640000D01*
X29780000Y-51960000D02*
X31180000Y-51960000D01*
%TO.C,U38*%
X26100000Y-49640000D02*
X24200000Y-49640000D01*
X24700000Y-51960000D02*
X26100000Y-51960000D01*
%TO.C,U37*%
X21020000Y-49640000D02*
X19120000Y-49640000D01*
X19620000Y-51960000D02*
X21020000Y-51960000D01*
%TO.C,U36*%
X-12700000Y-47585000D02*
X-10500000Y-47585000D01*
X-12700000Y-47585000D02*
X-14900000Y-47585000D01*
X-12700000Y-40815000D02*
X-10500000Y-40815000D01*
X-12700000Y-40815000D02*
X-16300000Y-40815000D01*
%TO.C,U35*%
X-33020000Y-57745000D02*
X-30820000Y-57745000D01*
X-33020000Y-57745000D02*
X-35220000Y-57745000D01*
X-33020000Y-50975000D02*
X-30820000Y-50975000D01*
X-33020000Y-50975000D02*
X-36620000Y-50975000D01*
%TO.C,U34*%
X-33020000Y-67905000D02*
X-30820000Y-67905000D01*
X-33020000Y-67905000D02*
X-35220000Y-67905000D01*
X-33020000Y-61135000D02*
X-30820000Y-61135000D01*
X-33020000Y-61135000D02*
X-36620000Y-61135000D01*
%TO.C,U33*%
X-22860000Y-56445000D02*
X-20660000Y-56445000D01*
X-22860000Y-56445000D02*
X-25060000Y-56445000D01*
X-22860000Y-50975000D02*
X-20660000Y-50975000D01*
X-22860000Y-50975000D02*
X-26460000Y-50975000D01*
%TO.C,U32*%
X-12700000Y-56445000D02*
X-10500000Y-56445000D01*
X-12700000Y-56445000D02*
X-14900000Y-56445000D01*
X-12700000Y-50975000D02*
X-10500000Y-50975000D01*
X-12700000Y-50975000D02*
X-16300000Y-50975000D01*
%TO.C,U31*%
X-22860000Y-66605000D02*
X-20660000Y-66605000D01*
X-22860000Y-66605000D02*
X-25060000Y-66605000D01*
X-22860000Y-61135000D02*
X-20660000Y-61135000D01*
X-22860000Y-61135000D02*
X-26460000Y-61135000D01*
%TO.C,U30*%
X-12700000Y-66605000D02*
X-10500000Y-66605000D01*
X-12700000Y-66605000D02*
X-14900000Y-66605000D01*
X-12700000Y-61135000D02*
X-10500000Y-61135000D01*
X-12700000Y-61135000D02*
X-16300000Y-61135000D01*
%TO.C,U29*%
X-570000Y-3285000D02*
X-2470000Y-3285000D01*
X-1970000Y-5605000D02*
X-570000Y-5605000D01*
%TO.C,U28*%
X-29780000Y-3285000D02*
X-31680000Y-3285000D01*
X-31180000Y-5605000D02*
X-29780000Y-5605000D01*
%TO.C,U27*%
X-34860000Y-3285000D02*
X-36760000Y-3285000D01*
X-36260000Y-5605000D02*
X-34860000Y-5605000D01*
%TO.C,U26*%
X-24700000Y-3285000D02*
X-26600000Y-3285000D01*
X-26100000Y-5605000D02*
X-24700000Y-5605000D01*
%TO.C,U25*%
X-19620000Y-3285000D02*
X-21520000Y-3285000D01*
X-21020000Y-5605000D02*
X-19620000Y-5605000D01*
%TO.C,U24*%
X21020000Y-23605000D02*
X19120000Y-23605000D01*
X19620000Y-25925000D02*
X21020000Y-25925000D01*
%TO.C,U23*%
X26100000Y-23605000D02*
X24200000Y-23605000D01*
X24700000Y-25925000D02*
X26100000Y-25925000D01*
%TO.C,U22*%
X31180000Y-23605000D02*
X29280000Y-23605000D01*
X29780000Y-25925000D02*
X31180000Y-25925000D01*
%TO.C,U21*%
X26100000Y-16620000D02*
X24200000Y-16620000D01*
X24700000Y-18940000D02*
X26100000Y-18940000D01*
%TO.C,U20*%
X31180000Y-16620000D02*
X29280000Y-16620000D01*
X29780000Y-18940000D02*
X31180000Y-18940000D01*
%TO.C,U19*%
X31180000Y-9635000D02*
X29280000Y-9635000D01*
X29780000Y-11955000D02*
X31180000Y-11955000D01*
%TO.C,U18*%
X26100000Y-9635000D02*
X24200000Y-9635000D01*
X24700000Y-11955000D02*
X26100000Y-11955000D01*
%TO.C,U17*%
X21020000Y-9635000D02*
X19120000Y-9635000D01*
X19620000Y-11955000D02*
X21020000Y-11955000D01*
%TO.C,U16*%
X-12700000Y-7580000D02*
X-10500000Y-7580000D01*
X-12700000Y-7580000D02*
X-14900000Y-7580000D01*
X-12700000Y-810000D02*
X-10500000Y-810000D01*
X-12700000Y-810000D02*
X-16300000Y-810000D01*
%TO.C,U15*%
X-33020000Y-17740000D02*
X-30820000Y-17740000D01*
X-33020000Y-17740000D02*
X-35220000Y-17740000D01*
X-33020000Y-10970000D02*
X-30820000Y-10970000D01*
X-33020000Y-10970000D02*
X-36620000Y-10970000D01*
%TO.C,U14*%
X-33020000Y-27900000D02*
X-30820000Y-27900000D01*
X-33020000Y-27900000D02*
X-35220000Y-27900000D01*
X-33020000Y-21130000D02*
X-30820000Y-21130000D01*
X-33020000Y-21130000D02*
X-36620000Y-21130000D01*
%TO.C,U13*%
X-22860000Y-16440000D02*
X-20660000Y-16440000D01*
X-22860000Y-16440000D02*
X-25060000Y-16440000D01*
X-22860000Y-10970000D02*
X-20660000Y-10970000D01*
X-22860000Y-10970000D02*
X-26460000Y-10970000D01*
%TO.C,U12*%
X-12700000Y-16440000D02*
X-10500000Y-16440000D01*
X-12700000Y-16440000D02*
X-14900000Y-16440000D01*
X-12700000Y-10970000D02*
X-10500000Y-10970000D01*
X-12700000Y-10970000D02*
X-16300000Y-10970000D01*
%TO.C,U11*%
X-22860000Y-26600000D02*
X-20660000Y-26600000D01*
X-22860000Y-26600000D02*
X-25060000Y-26600000D01*
X-22860000Y-21130000D02*
X-20660000Y-21130000D01*
X-22860000Y-21130000D02*
X-26460000Y-21130000D01*
%TO.C,U10*%
X-12700000Y-26600000D02*
X-10500000Y-26600000D01*
X-12700000Y-26600000D02*
X-14900000Y-26600000D01*
X-12700000Y-21130000D02*
X-10500000Y-21130000D01*
X-12700000Y-21130000D02*
X-16300000Y-21130000D01*
%TO.C,U9*%
X-60260000Y-43290000D02*
X-62160000Y-43290000D01*
X-61660000Y-45610000D02*
X-60260000Y-45610000D01*
%TO.C,U8*%
X-55180000Y-43290000D02*
X-57080000Y-43290000D01*
X-56580000Y-45610000D02*
X-55180000Y-45610000D01*
%TO.C,U7*%
X-70420000Y-43290000D02*
X-72320000Y-43290000D01*
X-71820000Y-45610000D02*
X-70420000Y-45610000D01*
%TO.C,U6*%
X-65340000Y-43290000D02*
X-67240000Y-43290000D01*
X-66740000Y-45610000D02*
X-65340000Y-45610000D01*
%TO.C,U5*%
X-43180000Y-56445000D02*
X-40980000Y-56445000D01*
X-43180000Y-56445000D02*
X-45380000Y-56445000D01*
X-43180000Y-50975000D02*
X-40980000Y-50975000D01*
X-43180000Y-50975000D02*
X-46780000Y-50975000D01*
%TO.C,U4*%
X-73660000Y-56445000D02*
X-71460000Y-56445000D01*
X-73660000Y-56445000D02*
X-75860000Y-56445000D01*
X-73660000Y-50975000D02*
X-71460000Y-50975000D01*
X-73660000Y-50975000D02*
X-77260000Y-50975000D01*
%TO.C,U3*%
X-75500000Y-43290000D02*
X-77400000Y-43290000D01*
X-76900000Y-45610000D02*
X-75500000Y-45610000D01*
%TO.C,U2*%
X-53340000Y-56445000D02*
X-51140000Y-56445000D01*
X-53340000Y-56445000D02*
X-55540000Y-56445000D01*
X-53340000Y-50975000D02*
X-51140000Y-50975000D01*
X-53340000Y-50975000D02*
X-56940000Y-50975000D01*
%TO.C,U1*%
X-63500000Y-56445000D02*
X-61300000Y-56445000D01*
X-63500000Y-56445000D02*
X-65700000Y-56445000D01*
X-63500000Y-50975000D02*
X-61300000Y-50975000D01*
X-63500000Y-50975000D02*
X-67100000Y-50975000D01*
%TO.C,RN1*%
X-44542500Y-39505000D02*
X-44542500Y-40505000D01*
X-41182500Y-39505000D02*
X-41182500Y-40505000D01*
%TO.C,R74*%
X-68057500Y-31352258D02*
X-68057500Y-30877742D01*
X-69102500Y-31352258D02*
X-69102500Y-30877742D01*
%TO.C,R73*%
X-66152500Y-31352258D02*
X-66152500Y-30877742D01*
X-67197500Y-31352258D02*
X-67197500Y-30877742D01*
%TO.C,R72*%
X-64247500Y-31352258D02*
X-64247500Y-30877742D01*
X-65292500Y-31352258D02*
X-65292500Y-30877742D01*
%TO.C,R71*%
X-62342500Y-31352258D02*
X-62342500Y-30877742D01*
X-63387500Y-31352258D02*
X-63387500Y-30877742D01*
%TO.C,R70*%
X-60437500Y-31352258D02*
X-60437500Y-30877742D01*
X-61482500Y-31352258D02*
X-61482500Y-30877742D01*
%TO.C,R69*%
X-58532500Y-31352258D02*
X-58532500Y-30877742D01*
X-59577500Y-31352258D02*
X-59577500Y-30877742D01*
%TO.C,R68*%
X-56627500Y-31352258D02*
X-56627500Y-30877742D01*
X-57672500Y-31352258D02*
X-57672500Y-30877742D01*
%TO.C,R67*%
X-54722500Y-31352258D02*
X-54722500Y-30877742D01*
X-55767500Y-31352258D02*
X-55767500Y-30877742D01*
%TO.C,R66*%
X-75677500Y-31352258D02*
X-75677500Y-30877742D01*
X-76722500Y-31352258D02*
X-76722500Y-30877742D01*
%TO.C,R65*%
X-71867500Y-31352258D02*
X-71867500Y-30877742D01*
X-72912500Y-31352258D02*
X-72912500Y-30877742D01*
%TO.C,R64*%
X-4557500Y-42782258D02*
X-4557500Y-42307742D01*
X-5602500Y-42782258D02*
X-5602500Y-42307742D01*
%TO.C,R63*%
X-4557500Y-61832258D02*
X-4557500Y-61357742D01*
X-5602500Y-61832258D02*
X-5602500Y-61357742D01*
%TO.C,R62*%
X-4557500Y-52307258D02*
X-4557500Y-51832742D01*
X-5602500Y-52307258D02*
X-5602500Y-51832742D01*
%TO.C,R61*%
X-747500Y-52307258D02*
X-747500Y-51832742D01*
X-1792500Y-52307258D02*
X-1792500Y-51832742D01*
%TO.C,R60*%
X-747500Y-61832258D02*
X-747500Y-61357742D01*
X-1792500Y-61832258D02*
X-1792500Y-61357742D01*
%TO.C,R59*%
X16397500Y-42782258D02*
X16397500Y-42307742D01*
X15352500Y-42782258D02*
X15352500Y-42307742D01*
%TO.C,R58*%
X14492500Y-42782258D02*
X14492500Y-42307742D01*
X13447500Y-42782258D02*
X13447500Y-42307742D01*
%TO.C,R57*%
X12587500Y-42782258D02*
X12587500Y-42307742D01*
X11542500Y-42782258D02*
X11542500Y-42307742D01*
%TO.C,R56*%
X10682500Y-42782258D02*
X10682500Y-42307742D01*
X9637500Y-42782258D02*
X9637500Y-42307742D01*
%TO.C,R55*%
X8777500Y-42782258D02*
X8777500Y-42307742D01*
X7732500Y-42782258D02*
X7732500Y-42307742D01*
%TO.C,R54*%
X6872500Y-42782258D02*
X6872500Y-42307742D01*
X5827500Y-42782258D02*
X5827500Y-42307742D01*
%TO.C,R53*%
X4967500Y-42782258D02*
X4967500Y-42307742D01*
X3922500Y-42782258D02*
X3922500Y-42307742D01*
%TO.C,R52*%
X3062500Y-42782258D02*
X3062500Y-42307742D01*
X2017500Y-42782258D02*
X2017500Y-42307742D01*
%TO.C,R51*%
X16397500Y-52307258D02*
X16397500Y-51832742D01*
X15352500Y-52307258D02*
X15352500Y-51832742D01*
%TO.C,R50*%
X14492500Y-52307258D02*
X14492500Y-51832742D01*
X13447500Y-52307258D02*
X13447500Y-51832742D01*
%TO.C,R49*%
X12587500Y-52307258D02*
X12587500Y-51832742D01*
X11542500Y-52307258D02*
X11542500Y-51832742D01*
%TO.C,R48*%
X10682500Y-52307258D02*
X10682500Y-51832742D01*
X9637500Y-52307258D02*
X9637500Y-51832742D01*
%TO.C,R47*%
X8777500Y-52307258D02*
X8777500Y-51832742D01*
X7732500Y-52307258D02*
X7732500Y-51832742D01*
%TO.C,R46*%
X6872500Y-52307258D02*
X6872500Y-51832742D01*
X5827500Y-52307258D02*
X5827500Y-51832742D01*
%TO.C,R45*%
X4967500Y-52307258D02*
X4967500Y-51832742D01*
X3922500Y-52307258D02*
X3922500Y-51832742D01*
%TO.C,R44*%
X3062500Y-52307258D02*
X3062500Y-51832742D01*
X2017500Y-52307258D02*
X2017500Y-51832742D01*
%TO.C,R43*%
X3062500Y-61832258D02*
X3062500Y-61357742D01*
X2017500Y-61832258D02*
X2017500Y-61357742D01*
%TO.C,R42*%
X4967500Y-61832258D02*
X4967500Y-61357742D01*
X3922500Y-61832258D02*
X3922500Y-61357742D01*
%TO.C,R41*%
X6872500Y-61832258D02*
X6872500Y-61357742D01*
X5827500Y-61832258D02*
X5827500Y-61357742D01*
%TO.C,R40*%
X8777500Y-61832258D02*
X8777500Y-61357742D01*
X7732500Y-61832258D02*
X7732500Y-61357742D01*
%TO.C,R39*%
X10682500Y-61832258D02*
X10682500Y-61357742D01*
X9637500Y-61832258D02*
X9637500Y-61357742D01*
%TO.C,R38*%
X12587500Y-61832258D02*
X12587500Y-61357742D01*
X11542500Y-61832258D02*
X11542500Y-61357742D01*
%TO.C,R37*%
X14492500Y-61832258D02*
X14492500Y-61357742D01*
X13447500Y-61832258D02*
X13447500Y-61357742D01*
%TO.C,R36*%
X16397500Y-61832258D02*
X16397500Y-61357742D01*
X15352500Y-61832258D02*
X15352500Y-61357742D01*
%TO.C,R35*%
X-4557500Y-2777258D02*
X-4557500Y-2302742D01*
X-5602500Y-2777258D02*
X-5602500Y-2302742D01*
%TO.C,R34*%
X-4557500Y-21827258D02*
X-4557500Y-21352742D01*
X-5602500Y-21827258D02*
X-5602500Y-21352742D01*
%TO.C,R33*%
X-4557500Y-12302258D02*
X-4557500Y-11827742D01*
X-5602500Y-12302258D02*
X-5602500Y-11827742D01*
%TO.C,R32*%
X-747500Y-12302258D02*
X-747500Y-11827742D01*
X-1792500Y-12302258D02*
X-1792500Y-11827742D01*
%TO.C,R31*%
X-747500Y-21827258D02*
X-747500Y-21352742D01*
X-1792500Y-21827258D02*
X-1792500Y-21352742D01*
%TO.C,R30*%
X16397500Y-2777258D02*
X16397500Y-2302742D01*
X15352500Y-2777258D02*
X15352500Y-2302742D01*
%TO.C,R29*%
X14492500Y-2777258D02*
X14492500Y-2302742D01*
X13447500Y-2777258D02*
X13447500Y-2302742D01*
%TO.C,R28*%
X12587500Y-2777258D02*
X12587500Y-2302742D01*
X11542500Y-2777258D02*
X11542500Y-2302742D01*
%TO.C,R27*%
X10682500Y-2777258D02*
X10682500Y-2302742D01*
X9637500Y-2777258D02*
X9637500Y-2302742D01*
%TO.C,R26*%
X8777500Y-2777258D02*
X8777500Y-2302742D01*
X7732500Y-2777258D02*
X7732500Y-2302742D01*
%TO.C,R25*%
X6872500Y-2777258D02*
X6872500Y-2302742D01*
X5827500Y-2777258D02*
X5827500Y-2302742D01*
%TO.C,R24*%
X4967500Y-2777258D02*
X4967500Y-2302742D01*
X3922500Y-2777258D02*
X3922500Y-2302742D01*
%TO.C,R23*%
X3062500Y-2777258D02*
X3062500Y-2302742D01*
X2017500Y-2777258D02*
X2017500Y-2302742D01*
%TO.C,R22*%
X16397500Y-12302258D02*
X16397500Y-11827742D01*
X15352500Y-12302258D02*
X15352500Y-11827742D01*
%TO.C,R21*%
X14492500Y-12302258D02*
X14492500Y-11827742D01*
X13447500Y-12302258D02*
X13447500Y-11827742D01*
%TO.C,R20*%
X12587500Y-12302258D02*
X12587500Y-11827742D01*
X11542500Y-12302258D02*
X11542500Y-11827742D01*
%TO.C,R19*%
X10682500Y-12302258D02*
X10682500Y-11827742D01*
X9637500Y-12302258D02*
X9637500Y-11827742D01*
%TO.C,R18*%
X8777500Y-12302258D02*
X8777500Y-11827742D01*
X7732500Y-12302258D02*
X7732500Y-11827742D01*
%TO.C,R17*%
X6872500Y-12302258D02*
X6872500Y-11827742D01*
X5827500Y-12302258D02*
X5827500Y-11827742D01*
%TO.C,R16*%
X4967500Y-12302258D02*
X4967500Y-11827742D01*
X3922500Y-12302258D02*
X3922500Y-11827742D01*
%TO.C,R15*%
X3062500Y-12302258D02*
X3062500Y-11827742D01*
X2017500Y-12302258D02*
X2017500Y-11827742D01*
%TO.C,R14*%
X3062500Y-21827258D02*
X3062500Y-21352742D01*
X2017500Y-21827258D02*
X2017500Y-21352742D01*
%TO.C,R13*%
X4967500Y-21827258D02*
X4967500Y-21352742D01*
X3922500Y-21827258D02*
X3922500Y-21352742D01*
%TO.C,R12*%
X6872500Y-21827258D02*
X6872500Y-21352742D01*
X5827500Y-21827258D02*
X5827500Y-21352742D01*
%TO.C,R11*%
X8777500Y-21827258D02*
X8777500Y-21352742D01*
X7732500Y-21827258D02*
X7732500Y-21352742D01*
%TO.C,R10*%
X10682500Y-21827258D02*
X10682500Y-21352742D01*
X9637500Y-21827258D02*
X9637500Y-21352742D01*
%TO.C,R9*%
X12587500Y-21827258D02*
X12587500Y-21352742D01*
X11542500Y-21827258D02*
X11542500Y-21352742D01*
%TO.C,R8*%
X14492500Y-21827258D02*
X14492500Y-21352742D01*
X13447500Y-21827258D02*
X13447500Y-21352742D01*
%TO.C,R7*%
X16397500Y-21827258D02*
X16397500Y-21352742D01*
X15352500Y-21827258D02*
X15352500Y-21352742D01*
%TO.C,R6*%
X-47102500Y-40242258D02*
X-47102500Y-39767742D01*
X-48147500Y-40242258D02*
X-48147500Y-39767742D01*
%TO.C,R5*%
X-47102500Y-44052258D02*
X-47102500Y-43577742D01*
X-48147500Y-44052258D02*
X-48147500Y-43577742D01*
%TO.C,R4*%
X-45197500Y-44052258D02*
X-45197500Y-43577742D01*
X-46242500Y-44052258D02*
X-46242500Y-43577742D01*
%TO.C,R3*%
X-43292500Y-44052258D02*
X-43292500Y-43577742D01*
X-44337500Y-44052258D02*
X-44337500Y-43577742D01*
%TO.C,R2*%
X-41387500Y-44052258D02*
X-41387500Y-43577742D01*
X-42432500Y-44052258D02*
X-42432500Y-43577742D01*
%TO.C,R1*%
X-39482500Y-44052258D02*
X-39482500Y-43577742D01*
X-40527500Y-44052258D02*
X-40527500Y-43577742D01*
%TO.C,J4*%
X46525000Y-39310000D02*
X46525000Y-57210000D01*
X46525000Y-57210000D02*
X49185000Y-57210000D01*
X49185000Y-57210000D02*
X49185000Y-39310000D01*
X49185000Y-39310000D02*
X46525000Y-39310000D01*
X49185000Y-40260000D02*
X55185000Y-40260000D01*
X55185000Y-40260000D02*
X55185000Y-41020000D01*
X55185000Y-41020000D02*
X49185000Y-41020000D01*
X49185000Y-40320000D02*
X55185000Y-40320000D01*
X49185000Y-40440000D02*
X55185000Y-40440000D01*
X49185000Y-40560000D02*
X55185000Y-40560000D01*
X49185000Y-40680000D02*
X55185000Y-40680000D01*
X49185000Y-40800000D02*
X55185000Y-40800000D01*
X49185000Y-40920000D02*
X55185000Y-40920000D01*
X46127929Y-40260000D02*
X46525000Y-40260000D01*
X46127929Y-41020000D02*
X46525000Y-41020000D01*
X43655000Y-40260000D02*
X44042071Y-40260000D01*
X43655000Y-41020000D02*
X44042071Y-41020000D01*
X46525000Y-41910000D02*
X49185000Y-41910000D01*
X49185000Y-42800000D02*
X55185000Y-42800000D01*
X55185000Y-42800000D02*
X55185000Y-43560000D01*
X55185000Y-43560000D02*
X49185000Y-43560000D01*
X46127929Y-42800000D02*
X46525000Y-42800000D01*
X46127929Y-43560000D02*
X46525000Y-43560000D01*
X43587929Y-42800000D02*
X44042071Y-42800000D01*
X43587929Y-43560000D02*
X44042071Y-43560000D01*
X46525000Y-44450000D02*
X49185000Y-44450000D01*
X49185000Y-45340000D02*
X55185000Y-45340000D01*
X55185000Y-45340000D02*
X55185000Y-46100000D01*
X55185000Y-46100000D02*
X49185000Y-46100000D01*
X46127929Y-45340000D02*
X46525000Y-45340000D01*
X46127929Y-46100000D02*
X46525000Y-46100000D01*
X43587929Y-45340000D02*
X44042071Y-45340000D01*
X43587929Y-46100000D02*
X44042071Y-46100000D01*
X46525000Y-46990000D02*
X49185000Y-46990000D01*
X49185000Y-47880000D02*
X55185000Y-47880000D01*
X55185000Y-47880000D02*
X55185000Y-48640000D01*
X55185000Y-48640000D02*
X49185000Y-48640000D01*
X46127929Y-47880000D02*
X46525000Y-47880000D01*
X46127929Y-48640000D02*
X46525000Y-48640000D01*
X43587929Y-47880000D02*
X44042071Y-47880000D01*
X43587929Y-48640000D02*
X44042071Y-48640000D01*
X46525000Y-49530000D02*
X49185000Y-49530000D01*
X49185000Y-50420000D02*
X55185000Y-50420000D01*
X55185000Y-50420000D02*
X55185000Y-51180000D01*
X55185000Y-51180000D02*
X49185000Y-51180000D01*
X46127929Y-50420000D02*
X46525000Y-50420000D01*
X46127929Y-51180000D02*
X46525000Y-51180000D01*
X43587929Y-50420000D02*
X44042071Y-50420000D01*
X43587929Y-51180000D02*
X44042071Y-51180000D01*
X46525000Y-52070000D02*
X49185000Y-52070000D01*
X49185000Y-52960000D02*
X55185000Y-52960000D01*
X55185000Y-52960000D02*
X55185000Y-53720000D01*
X55185000Y-53720000D02*
X49185000Y-53720000D01*
X46127929Y-52960000D02*
X46525000Y-52960000D01*
X46127929Y-53720000D02*
X46525000Y-53720000D01*
X43587929Y-52960000D02*
X44042071Y-52960000D01*
X43587929Y-53720000D02*
X44042071Y-53720000D01*
X46525000Y-54610000D02*
X49185000Y-54610000D01*
X49185000Y-55500000D02*
X55185000Y-55500000D01*
X55185000Y-55500000D02*
X55185000Y-56260000D01*
X55185000Y-56260000D02*
X49185000Y-56260000D01*
X46127929Y-55500000D02*
X46525000Y-55500000D01*
X46127929Y-56260000D02*
X46525000Y-56260000D01*
X43587929Y-55500000D02*
X44042071Y-55500000D01*
X43587929Y-56260000D02*
X44042071Y-56260000D01*
X41275000Y-40640000D02*
X41275000Y-39370000D01*
X41275000Y-39370000D02*
X42545000Y-39370000D01*
%TO.C,J3*%
X46525000Y-8195000D02*
X46525000Y-26095000D01*
X46525000Y-26095000D02*
X49185000Y-26095000D01*
X49185000Y-26095000D02*
X49185000Y-8195000D01*
X49185000Y-8195000D02*
X46525000Y-8195000D01*
X49185000Y-9145000D02*
X55185000Y-9145000D01*
X55185000Y-9145000D02*
X55185000Y-9905000D01*
X55185000Y-9905000D02*
X49185000Y-9905000D01*
X49185000Y-9205000D02*
X55185000Y-9205000D01*
X49185000Y-9325000D02*
X55185000Y-9325000D01*
X49185000Y-9445000D02*
X55185000Y-9445000D01*
X49185000Y-9565000D02*
X55185000Y-9565000D01*
X49185000Y-9685000D02*
X55185000Y-9685000D01*
X49185000Y-9805000D02*
X55185000Y-9805000D01*
X46127929Y-9145000D02*
X46525000Y-9145000D01*
X46127929Y-9905000D02*
X46525000Y-9905000D01*
X43655000Y-9145000D02*
X44042071Y-9145000D01*
X43655000Y-9905000D02*
X44042071Y-9905000D01*
X46525000Y-10795000D02*
X49185000Y-10795000D01*
X49185000Y-11685000D02*
X55185000Y-11685000D01*
X55185000Y-11685000D02*
X55185000Y-12445000D01*
X55185000Y-12445000D02*
X49185000Y-12445000D01*
X46127929Y-11685000D02*
X46525000Y-11685000D01*
X46127929Y-12445000D02*
X46525000Y-12445000D01*
X43587929Y-11685000D02*
X44042071Y-11685000D01*
X43587929Y-12445000D02*
X44042071Y-12445000D01*
X46525000Y-13335000D02*
X49185000Y-13335000D01*
X49185000Y-14225000D02*
X55185000Y-14225000D01*
X55185000Y-14225000D02*
X55185000Y-14985000D01*
X55185000Y-14985000D02*
X49185000Y-14985000D01*
X46127929Y-14225000D02*
X46525000Y-14225000D01*
X46127929Y-14985000D02*
X46525000Y-14985000D01*
X43587929Y-14225000D02*
X44042071Y-14225000D01*
X43587929Y-14985000D02*
X44042071Y-14985000D01*
X46525000Y-15875000D02*
X49185000Y-15875000D01*
X49185000Y-16765000D02*
X55185000Y-16765000D01*
X55185000Y-16765000D02*
X55185000Y-17525000D01*
X55185000Y-17525000D02*
X49185000Y-17525000D01*
X46127929Y-16765000D02*
X46525000Y-16765000D01*
X46127929Y-17525000D02*
X46525000Y-17525000D01*
X43587929Y-16765000D02*
X44042071Y-16765000D01*
X43587929Y-17525000D02*
X44042071Y-17525000D01*
X46525000Y-18415000D02*
X49185000Y-18415000D01*
X49185000Y-19305000D02*
X55185000Y-19305000D01*
X55185000Y-19305000D02*
X55185000Y-20065000D01*
X55185000Y-20065000D02*
X49185000Y-20065000D01*
X46127929Y-19305000D02*
X46525000Y-19305000D01*
X46127929Y-20065000D02*
X46525000Y-20065000D01*
X43587929Y-19305000D02*
X44042071Y-19305000D01*
X43587929Y-20065000D02*
X44042071Y-20065000D01*
X46525000Y-20955000D02*
X49185000Y-20955000D01*
X49185000Y-21845000D02*
X55185000Y-21845000D01*
X55185000Y-21845000D02*
X55185000Y-22605000D01*
X55185000Y-22605000D02*
X49185000Y-22605000D01*
X46127929Y-21845000D02*
X46525000Y-21845000D01*
X46127929Y-22605000D02*
X46525000Y-22605000D01*
X43587929Y-21845000D02*
X44042071Y-21845000D01*
X43587929Y-22605000D02*
X44042071Y-22605000D01*
X46525000Y-23495000D02*
X49185000Y-23495000D01*
X49185000Y-24385000D02*
X55185000Y-24385000D01*
X55185000Y-24385000D02*
X55185000Y-25145000D01*
X55185000Y-25145000D02*
X49185000Y-25145000D01*
X46127929Y-24385000D02*
X46525000Y-24385000D01*
X46127929Y-25145000D02*
X46525000Y-25145000D01*
X43587929Y-24385000D02*
X44042071Y-24385000D01*
X43587929Y-25145000D02*
X44042071Y-25145000D01*
X41275000Y-9525000D02*
X41275000Y-8255000D01*
X41275000Y-8255000D02*
X42545000Y-8255000D01*
%TO.C,J2*%
X-85220000Y-67425000D02*
X-85220000Y-58305000D01*
X-85220000Y-58305000D02*
X-39240000Y-58305000D01*
X-39240000Y-58305000D02*
X-39240000Y-67425000D01*
X-39240000Y-67425000D02*
X-85220000Y-67425000D01*
X-64280000Y-67425000D02*
X-64280000Y-66115000D01*
X-64280000Y-66115000D02*
X-83920000Y-66115000D01*
X-83920000Y-66115000D02*
X-83920000Y-59615000D01*
X-83920000Y-59615000D02*
X-40540000Y-59615000D01*
X-40540000Y-59615000D02*
X-40540000Y-66115000D01*
X-40540000Y-66115000D02*
X-60180000Y-66115000D01*
X-60180000Y-66115000D02*
X-60180000Y-66115000D01*
X-60180000Y-66115000D02*
X-60180000Y-67425000D01*
X-80010000Y-67815000D02*
X-80510000Y-68815000D01*
X-80510000Y-68815000D02*
X-79510000Y-68815000D01*
X-79510000Y-68815000D02*
X-80010000Y-67815000D01*
%TO.C,J1*%
X-85220000Y-7100000D02*
X-85220000Y2020000D01*
X-85220000Y2020000D02*
X-39240000Y2020000D01*
X-39240000Y2020000D02*
X-39240000Y-7100000D01*
X-39240000Y-7100000D02*
X-85220000Y-7100000D01*
X-64280000Y-7100000D02*
X-64280000Y-5790000D01*
X-64280000Y-5790000D02*
X-83920000Y-5790000D01*
X-83920000Y-5790000D02*
X-83920000Y710000D01*
X-83920000Y710000D02*
X-40540000Y710000D01*
X-40540000Y710000D02*
X-40540000Y-5790000D01*
X-40540000Y-5790000D02*
X-60180000Y-5790000D01*
X-60180000Y-5790000D02*
X-60180000Y-5790000D01*
X-60180000Y-5790000D02*
X-60180000Y-7100000D01*
X-80010000Y-7490000D02*
X-80510000Y-8490000D01*
X-80510000Y-8490000D02*
X-79510000Y-8490000D01*
X-79510000Y-8490000D02*
X-80010000Y-7490000D01*
%TO.C,D68*%
X-67845000Y-35775000D02*
X-67845000Y-33490000D01*
X-69315000Y-35775000D02*
X-67845000Y-35775000D01*
X-69315000Y-33490000D02*
X-69315000Y-35775000D01*
%TO.C,D67*%
X-64035000Y-35775000D02*
X-64035000Y-33490000D01*
X-65505000Y-35775000D02*
X-64035000Y-35775000D01*
X-65505000Y-33490000D02*
X-65505000Y-35775000D01*
%TO.C,D66*%
X-60225000Y-35775000D02*
X-60225000Y-33490000D01*
X-61695000Y-35775000D02*
X-60225000Y-35775000D01*
X-61695000Y-33490000D02*
X-61695000Y-35775000D01*
%TO.C,D65*%
X-56415000Y-35790000D02*
X-56415000Y-33505000D01*
X-57885000Y-35790000D02*
X-56415000Y-35790000D01*
X-57885000Y-33505000D02*
X-57885000Y-35790000D01*
%TO.C,D64*%
X-65940000Y-35775000D02*
X-65940000Y-33490000D01*
X-67410000Y-35775000D02*
X-65940000Y-35775000D01*
X-67410000Y-33490000D02*
X-67410000Y-35775000D01*
%TO.C,D63*%
X-62130000Y-35775000D02*
X-62130000Y-33490000D01*
X-63600000Y-35775000D02*
X-62130000Y-35775000D01*
X-63600000Y-33490000D02*
X-63600000Y-35775000D01*
%TO.C,D62*%
X-58320000Y-35775000D02*
X-58320000Y-33490000D01*
X-59790000Y-35775000D02*
X-58320000Y-35775000D01*
X-59790000Y-33490000D02*
X-59790000Y-35775000D01*
%TO.C,D61*%
X-54510000Y-35775000D02*
X-54510000Y-33490000D01*
X-55980000Y-35775000D02*
X-54510000Y-35775000D01*
X-55980000Y-33490000D02*
X-55980000Y-35775000D01*
%TO.C,D60*%
X-75465000Y-35775000D02*
X-75465000Y-33490000D01*
X-76935000Y-35775000D02*
X-75465000Y-35775000D01*
X-76935000Y-33490000D02*
X-76935000Y-35775000D01*
%TO.C,D59*%
X-71655000Y-35775000D02*
X-71655000Y-33490000D01*
X-73125000Y-35775000D02*
X-71655000Y-35775000D01*
X-73125000Y-33490000D02*
X-73125000Y-35775000D01*
%TO.C,D58*%
X-4345000Y-47205000D02*
X-4345000Y-44920000D01*
X-5815000Y-47205000D02*
X-4345000Y-47205000D01*
X-5815000Y-44920000D02*
X-5815000Y-47205000D01*
%TO.C,D57*%
X-4345000Y-66255000D02*
X-4345000Y-63970000D01*
X-5815000Y-66255000D02*
X-4345000Y-66255000D01*
X-5815000Y-63970000D02*
X-5815000Y-66255000D01*
%TO.C,D56*%
X-4345000Y-56730000D02*
X-4345000Y-54445000D01*
X-5815000Y-56730000D02*
X-4345000Y-56730000D01*
X-5815000Y-54445000D02*
X-5815000Y-56730000D01*
%TO.C,D55*%
X-535000Y-56730000D02*
X-535000Y-54445000D01*
X-2005000Y-56730000D02*
X-535000Y-56730000D01*
X-2005000Y-54445000D02*
X-2005000Y-56730000D01*
%TO.C,D54*%
X-535000Y-66255000D02*
X-535000Y-63970000D01*
X-2005000Y-66255000D02*
X-535000Y-66255000D01*
X-2005000Y-63970000D02*
X-2005000Y-66255000D01*
%TO.C,D53*%
X16610000Y-47205000D02*
X16610000Y-44920000D01*
X15140000Y-47205000D02*
X16610000Y-47205000D01*
X15140000Y-44920000D02*
X15140000Y-47205000D01*
%TO.C,D52*%
X12800000Y-47205000D02*
X12800000Y-44920000D01*
X11330000Y-47205000D02*
X12800000Y-47205000D01*
X11330000Y-44920000D02*
X11330000Y-47205000D01*
%TO.C,D51*%
X8990000Y-47205000D02*
X8990000Y-44920000D01*
X7520000Y-47205000D02*
X8990000Y-47205000D01*
X7520000Y-44920000D02*
X7520000Y-47205000D01*
%TO.C,D50*%
X5180000Y-47205000D02*
X5180000Y-44920000D01*
X3710000Y-47205000D02*
X5180000Y-47205000D01*
X3710000Y-44920000D02*
X3710000Y-47205000D01*
%TO.C,D49*%
X16610000Y-56730000D02*
X16610000Y-54445000D01*
X15140000Y-56730000D02*
X16610000Y-56730000D01*
X15140000Y-54445000D02*
X15140000Y-56730000D01*
%TO.C,D48*%
X12800000Y-56730000D02*
X12800000Y-54445000D01*
X11330000Y-56730000D02*
X12800000Y-56730000D01*
X11330000Y-54445000D02*
X11330000Y-56730000D01*
%TO.C,D47*%
X8990000Y-56730000D02*
X8990000Y-54445000D01*
X7520000Y-56730000D02*
X8990000Y-56730000D01*
X7520000Y-54445000D02*
X7520000Y-56730000D01*
%TO.C,D46*%
X5180000Y-56730000D02*
X5180000Y-54445000D01*
X3710000Y-56730000D02*
X5180000Y-56730000D01*
X3710000Y-54445000D02*
X3710000Y-56730000D01*
%TO.C,D45*%
X14705000Y-47205000D02*
X14705000Y-44920000D01*
X13235000Y-47205000D02*
X14705000Y-47205000D01*
X13235000Y-44920000D02*
X13235000Y-47205000D01*
%TO.C,D44*%
X10895000Y-47205000D02*
X10895000Y-44920000D01*
X9425000Y-47205000D02*
X10895000Y-47205000D01*
X9425000Y-44920000D02*
X9425000Y-47205000D01*
%TO.C,D43*%
X7085000Y-47205000D02*
X7085000Y-44920000D01*
X5615000Y-47205000D02*
X7085000Y-47205000D01*
X5615000Y-44920000D02*
X5615000Y-47205000D01*
%TO.C,D42*%
X3275000Y-47205000D02*
X3275000Y-44920000D01*
X1805000Y-47205000D02*
X3275000Y-47205000D01*
X1805000Y-44920000D02*
X1805000Y-47205000D01*
%TO.C,D41*%
X14705000Y-56730000D02*
X14705000Y-54445000D01*
X13235000Y-56730000D02*
X14705000Y-56730000D01*
X13235000Y-54445000D02*
X13235000Y-56730000D01*
%TO.C,D40*%
X10895000Y-56730000D02*
X10895000Y-54445000D01*
X9425000Y-56730000D02*
X10895000Y-56730000D01*
X9425000Y-54445000D02*
X9425000Y-56730000D01*
%TO.C,D39*%
X7085000Y-56730000D02*
X7085000Y-54445000D01*
X5615000Y-56730000D02*
X7085000Y-56730000D01*
X5615000Y-54445000D02*
X5615000Y-56730000D01*
%TO.C,D38*%
X3275000Y-56730000D02*
X3275000Y-54445000D01*
X1805000Y-56730000D02*
X3275000Y-56730000D01*
X1805000Y-54445000D02*
X1805000Y-56730000D01*
%TO.C,D37*%
X3275000Y-66255000D02*
X3275000Y-63970000D01*
X1805000Y-66255000D02*
X3275000Y-66255000D01*
X1805000Y-63970000D02*
X1805000Y-66255000D01*
%TO.C,D36*%
X7085000Y-66255000D02*
X7085000Y-63970000D01*
X5615000Y-66255000D02*
X7085000Y-66255000D01*
X5615000Y-63970000D02*
X5615000Y-66255000D01*
%TO.C,D35*%
X10895000Y-66255000D02*
X10895000Y-63970000D01*
X9425000Y-66255000D02*
X10895000Y-66255000D01*
X9425000Y-63970000D02*
X9425000Y-66255000D01*
%TO.C,D34*%
X14705000Y-66255000D02*
X14705000Y-63970000D01*
X13235000Y-66255000D02*
X14705000Y-66255000D01*
X13235000Y-63970000D02*
X13235000Y-66255000D01*
%TO.C,D33*%
X5180000Y-66255000D02*
X5180000Y-63970000D01*
X3710000Y-66255000D02*
X5180000Y-66255000D01*
X3710000Y-63970000D02*
X3710000Y-66255000D01*
%TO.C,D32*%
X8990000Y-66255000D02*
X8990000Y-63970000D01*
X7520000Y-66255000D02*
X8990000Y-66255000D01*
X7520000Y-63970000D02*
X7520000Y-66255000D01*
%TO.C,D31*%
X12800000Y-66255000D02*
X12800000Y-63970000D01*
X11330000Y-66255000D02*
X12800000Y-66255000D01*
X11330000Y-63970000D02*
X11330000Y-66255000D01*
%TO.C,D30*%
X16610000Y-66255000D02*
X16610000Y-63970000D01*
X15140000Y-66255000D02*
X16610000Y-66255000D01*
X15140000Y-63970000D02*
X15140000Y-66255000D01*
%TO.C,D29*%
X-4345000Y-7200000D02*
X-4345000Y-4915000D01*
X-5815000Y-7200000D02*
X-4345000Y-7200000D01*
X-5815000Y-4915000D02*
X-5815000Y-7200000D01*
%TO.C,D28*%
X-4345000Y-26250000D02*
X-4345000Y-23965000D01*
X-5815000Y-26250000D02*
X-4345000Y-26250000D01*
X-5815000Y-23965000D02*
X-5815000Y-26250000D01*
%TO.C,D27*%
X-4345000Y-16725000D02*
X-4345000Y-14440000D01*
X-5815000Y-16725000D02*
X-4345000Y-16725000D01*
X-5815000Y-14440000D02*
X-5815000Y-16725000D01*
%TO.C,D26*%
X-535000Y-16725000D02*
X-535000Y-14440000D01*
X-2005000Y-16725000D02*
X-535000Y-16725000D01*
X-2005000Y-14440000D02*
X-2005000Y-16725000D01*
%TO.C,D25*%
X-535000Y-26250000D02*
X-535000Y-23965000D01*
X-2005000Y-26250000D02*
X-535000Y-26250000D01*
X-2005000Y-23965000D02*
X-2005000Y-26250000D01*
%TO.C,D24*%
X16610000Y-7200000D02*
X16610000Y-4915000D01*
X15140000Y-7200000D02*
X16610000Y-7200000D01*
X15140000Y-4915000D02*
X15140000Y-7200000D01*
%TO.C,D23*%
X12800000Y-7200000D02*
X12800000Y-4915000D01*
X11330000Y-7200000D02*
X12800000Y-7200000D01*
X11330000Y-4915000D02*
X11330000Y-7200000D01*
%TO.C,D22*%
X8990000Y-7200000D02*
X8990000Y-4915000D01*
X7520000Y-7200000D02*
X8990000Y-7200000D01*
X7520000Y-4915000D02*
X7520000Y-7200000D01*
%TO.C,D21*%
X5180000Y-7200000D02*
X5180000Y-4915000D01*
X3710000Y-7200000D02*
X5180000Y-7200000D01*
X3710000Y-4915000D02*
X3710000Y-7200000D01*
%TO.C,D20*%
X16610000Y-16725000D02*
X16610000Y-14440000D01*
X15140000Y-16725000D02*
X16610000Y-16725000D01*
X15140000Y-14440000D02*
X15140000Y-16725000D01*
%TO.C,D19*%
X12800000Y-16725000D02*
X12800000Y-14440000D01*
X11330000Y-16725000D02*
X12800000Y-16725000D01*
X11330000Y-14440000D02*
X11330000Y-16725000D01*
%TO.C,D18*%
X8990000Y-16725000D02*
X8990000Y-14440000D01*
X7520000Y-16725000D02*
X8990000Y-16725000D01*
X7520000Y-14440000D02*
X7520000Y-16725000D01*
%TO.C,D17*%
X5180000Y-16725000D02*
X5180000Y-14440000D01*
X3710000Y-16725000D02*
X5180000Y-16725000D01*
X3710000Y-14440000D02*
X3710000Y-16725000D01*
%TO.C,D16*%
X14705000Y-7200000D02*
X14705000Y-4915000D01*
X13235000Y-7200000D02*
X14705000Y-7200000D01*
X13235000Y-4915000D02*
X13235000Y-7200000D01*
%TO.C,D15*%
X10895000Y-7200000D02*
X10895000Y-4915000D01*
X9425000Y-7200000D02*
X10895000Y-7200000D01*
X9425000Y-4915000D02*
X9425000Y-7200000D01*
%TO.C,D14*%
X7085000Y-7200000D02*
X7085000Y-4915000D01*
X5615000Y-7200000D02*
X7085000Y-7200000D01*
X5615000Y-4915000D02*
X5615000Y-7200000D01*
%TO.C,D13*%
X3275000Y-7200000D02*
X3275000Y-4915000D01*
X1805000Y-7200000D02*
X3275000Y-7200000D01*
X1805000Y-4915000D02*
X1805000Y-7200000D01*
%TO.C,D12*%
X14705000Y-16725000D02*
X14705000Y-14440000D01*
X13235000Y-16725000D02*
X14705000Y-16725000D01*
X13235000Y-14440000D02*
X13235000Y-16725000D01*
%TO.C,D11*%
X10895000Y-16725000D02*
X10895000Y-14440000D01*
X9425000Y-16725000D02*
X10895000Y-16725000D01*
X9425000Y-14440000D02*
X9425000Y-16725000D01*
%TO.C,D10*%
X7085000Y-16725000D02*
X7085000Y-14440000D01*
X5615000Y-16725000D02*
X7085000Y-16725000D01*
X5615000Y-14440000D02*
X5615000Y-16725000D01*
%TO.C,D9*%
X3275000Y-16725000D02*
X3275000Y-14440000D01*
X1805000Y-16725000D02*
X3275000Y-16725000D01*
X1805000Y-14440000D02*
X1805000Y-16725000D01*
%TO.C,D8*%
X3275000Y-26250000D02*
X3275000Y-23965000D01*
X1805000Y-26250000D02*
X3275000Y-26250000D01*
X1805000Y-23965000D02*
X1805000Y-26250000D01*
%TO.C,D7*%
X7085000Y-26250000D02*
X7085000Y-23965000D01*
X5615000Y-26250000D02*
X7085000Y-26250000D01*
X5615000Y-23965000D02*
X5615000Y-26250000D01*
%TO.C,D6*%
X10895000Y-26250000D02*
X10895000Y-23965000D01*
X9425000Y-26250000D02*
X10895000Y-26250000D01*
X9425000Y-23965000D02*
X9425000Y-26250000D01*
%TO.C,D5*%
X14705000Y-26250000D02*
X14705000Y-23965000D01*
X13235000Y-26250000D02*
X14705000Y-26250000D01*
X13235000Y-23965000D02*
X13235000Y-26250000D01*
%TO.C,D4*%
X5180000Y-26250000D02*
X5180000Y-23965000D01*
X3710000Y-26250000D02*
X5180000Y-26250000D01*
X3710000Y-23965000D02*
X3710000Y-26250000D01*
%TO.C,D3*%
X8990000Y-26250000D02*
X8990000Y-23965000D01*
X7520000Y-26250000D02*
X8990000Y-26250000D01*
X7520000Y-23965000D02*
X7520000Y-26250000D01*
%TO.C,D2*%
X12800000Y-26250000D02*
X12800000Y-23965000D01*
X11330000Y-26250000D02*
X12800000Y-26250000D01*
X11330000Y-23965000D02*
X11330000Y-26250000D01*
%TO.C,D1*%
X16610000Y-26250000D02*
X16610000Y-23965000D01*
X15140000Y-26250000D02*
X16610000Y-26250000D01*
X15140000Y-23965000D02*
X15140000Y-26250000D01*
%TO.C,C77*%
X-40780580Y-10035000D02*
X-40499420Y-10035000D01*
X-40780580Y-9015000D02*
X-40499420Y-9015000D01*
%TO.C,C76*%
X-61100580Y-10035000D02*
X-60819420Y-10035000D01*
X-61100580Y-9015000D02*
X-60819420Y-9015000D01*
%TO.C,C75*%
X-50940580Y-10035000D02*
X-50659420Y-10035000D01*
X-50940580Y-9015000D02*
X-50659420Y-9015000D01*
%TO.C,C74*%
X-71260580Y-10035000D02*
X-70979420Y-10035000D01*
X-71260580Y-9015000D02*
X-70979420Y-9015000D01*
%TO.C,C73*%
X-61100580Y-20830000D02*
X-60819420Y-20830000D01*
X-61100580Y-19810000D02*
X-60819420Y-19810000D01*
%TO.C,C72*%
X-66180580Y-20830000D02*
X-65899420Y-20830000D01*
X-66180580Y-19810000D02*
X-65899420Y-19810000D01*
%TO.C,C71*%
X-71260580Y-20830000D02*
X-70979420Y-20830000D01*
X-71260580Y-19810000D02*
X-70979420Y-19810000D01*
%TO.C,C70*%
X-40780580Y-29720000D02*
X-40499420Y-29720000D01*
X-40780580Y-28700000D02*
X-40499420Y-28700000D01*
%TO.C,C69*%
X-81420580Y-49405000D02*
X-81139420Y-49405000D01*
X-81420580Y-48385000D02*
X-81139420Y-48385000D01*
%TO.C,C68*%
X-91580580Y-42420000D02*
X-91299420Y-42420000D01*
X-91580580Y-41400000D02*
X-91299420Y-41400000D01*
%TO.C,C67*%
X-81420580Y-27815000D02*
X-81139420Y-27815000D01*
X-81420580Y-26795000D02*
X-81139420Y-26795000D01*
%TO.C,C66*%
X-91580580Y-20830000D02*
X-91299420Y-20830000D01*
X-91580580Y-19810000D02*
X-91299420Y-19810000D01*
%TO.C,C65*%
X-50940580Y-20195000D02*
X-50659420Y-20195000D01*
X-50940580Y-19175000D02*
X-50659420Y-19175000D01*
%TO.C,C64*%
X-86500580Y-49405000D02*
X-86219420Y-49405000D01*
X-86500580Y-48385000D02*
X-86219420Y-48385000D01*
%TO.C,C63*%
X-81420580Y-36070000D02*
X-81139420Y-36070000D01*
X-81420580Y-35050000D02*
X-81139420Y-35050000D01*
%TO.C,C62*%
X-86500580Y-27815000D02*
X-86219420Y-27815000D01*
X-86500580Y-26795000D02*
X-86219420Y-26795000D01*
%TO.C,C61*%
X-81420580Y-14480000D02*
X-81139420Y-14480000D01*
X-81420580Y-13460000D02*
X-81139420Y-13460000D01*
%TO.C,C60*%
X-81420580Y-42420000D02*
X-81139420Y-42420000D01*
X-81420580Y-41400000D02*
X-81139420Y-41400000D01*
%TO.C,C59*%
X-91580580Y-36070000D02*
X-91299420Y-36070000D01*
X-91580580Y-35050000D02*
X-91299420Y-35050000D01*
%TO.C,C58*%
X-81420580Y-20830000D02*
X-81139420Y-20830000D01*
X-81420580Y-19810000D02*
X-81139420Y-19810000D01*
%TO.C,C57*%
X-91580580Y-14480000D02*
X-91299420Y-14480000D01*
X-91580580Y-13460000D02*
X-91299420Y-13460000D01*
%TO.C,C56*%
X-91580580Y-49405000D02*
X-91299420Y-49405000D01*
X-91580580Y-48385000D02*
X-91299420Y-48385000D01*
%TO.C,C55*%
X-86500580Y-36070000D02*
X-86219420Y-36070000D01*
X-86500580Y-35050000D02*
X-86219420Y-35050000D01*
%TO.C,C54*%
X-91580580Y-27815000D02*
X-91299420Y-27815000D01*
X-91580580Y-26795000D02*
X-91299420Y-26795000D01*
%TO.C,C53*%
X-86500580Y-14480000D02*
X-86219420Y-14480000D01*
X-86500580Y-13460000D02*
X-86219420Y-13460000D01*
%TO.C,C52*%
X-40780580Y-20195000D02*
X-40499420Y-20195000D01*
X-40780580Y-19175000D02*
X-40499420Y-19175000D01*
%TO.C,C51*%
X-76340580Y-20830000D02*
X-76059420Y-20830000D01*
X-76340580Y-19810000D02*
X-76059420Y-19810000D01*
%TO.C,C50*%
X-50940580Y-30990000D02*
X-50659420Y-30990000D01*
X-50940580Y-29970000D02*
X-50659420Y-29970000D01*
%TO.C,C49*%
X-1410580Y-42420000D02*
X-1129420Y-42420000D01*
X-1410580Y-41400000D02*
X-1129420Y-41400000D01*
%TO.C,C48*%
X-30620580Y-42420000D02*
X-30339420Y-42420000D01*
X-30620580Y-41400000D02*
X-30339420Y-41400000D01*
%TO.C,C47*%
X-35700580Y-42420000D02*
X-35419420Y-42420000D01*
X-35700580Y-41400000D02*
X-35419420Y-41400000D01*
%TO.C,C46*%
X-25540580Y-42420000D02*
X-25259420Y-42420000D01*
X-25540580Y-41400000D02*
X-25259420Y-41400000D01*
%TO.C,C45*%
X-20460580Y-42420000D02*
X-20179420Y-42420000D01*
X-20460580Y-41400000D02*
X-20179420Y-41400000D01*
%TO.C,C44*%
X20179420Y-62740000D02*
X20460580Y-62740000D01*
X20179420Y-61720000D02*
X20460580Y-61720000D01*
%TO.C,C43*%
X25259420Y-62740000D02*
X25540580Y-62740000D01*
X25259420Y-61720000D02*
X25540580Y-61720000D01*
%TO.C,C42*%
X30339420Y-62740000D02*
X30620580Y-62740000D01*
X30339420Y-61720000D02*
X30620580Y-61720000D01*
%TO.C,C41*%
X25259420Y-55755000D02*
X25540580Y-55755000D01*
X25259420Y-54735000D02*
X25540580Y-54735000D01*
%TO.C,C40*%
X30339420Y-55755000D02*
X30620580Y-55755000D01*
X30339420Y-54735000D02*
X30620580Y-54735000D01*
%TO.C,C39*%
X30339420Y-48770000D02*
X30620580Y-48770000D01*
X30339420Y-47750000D02*
X30620580Y-47750000D01*
%TO.C,C38*%
X25259420Y-48770000D02*
X25540580Y-48770000D01*
X25259420Y-47750000D02*
X25540580Y-47750000D01*
%TO.C,C37*%
X20179420Y-48770000D02*
X20460580Y-48770000D01*
X20179420Y-47750000D02*
X20460580Y-47750000D01*
%TO.C,C36*%
X-10300580Y-39880000D02*
X-10019420Y-39880000D01*
X-10300580Y-38860000D02*
X-10019420Y-38860000D01*
%TO.C,C35*%
X-30620580Y-50040000D02*
X-30339420Y-50040000D01*
X-30620580Y-49020000D02*
X-30339420Y-49020000D01*
%TO.C,C34*%
X-30620580Y-60200000D02*
X-30339420Y-60200000D01*
X-30620580Y-59180000D02*
X-30339420Y-59180000D01*
%TO.C,C33*%
X-20460580Y-50040000D02*
X-20179420Y-50040000D01*
X-20460580Y-49020000D02*
X-20179420Y-49020000D01*
%TO.C,C32*%
X-10300580Y-50040000D02*
X-10019420Y-50040000D01*
X-10300580Y-49020000D02*
X-10019420Y-49020000D01*
%TO.C,C31*%
X-20460580Y-60200000D02*
X-20179420Y-60200000D01*
X-20460580Y-59180000D02*
X-20179420Y-59180000D01*
%TO.C,C30*%
X-10300580Y-60200000D02*
X-10019420Y-60200000D01*
X-10300580Y-59180000D02*
X-10019420Y-59180000D01*
%TO.C,C29*%
X-1410580Y-2415000D02*
X-1129420Y-2415000D01*
X-1410580Y-1395000D02*
X-1129420Y-1395000D01*
%TO.C,C28*%
X-30620580Y-2415000D02*
X-30339420Y-2415000D01*
X-30620580Y-1395000D02*
X-30339420Y-1395000D01*
%TO.C,C27*%
X-35700580Y-2415000D02*
X-35419420Y-2415000D01*
X-35700580Y-1395000D02*
X-35419420Y-1395000D01*
%TO.C,C26*%
X-25540580Y-2415000D02*
X-25259420Y-2415000D01*
X-25540580Y-1395000D02*
X-25259420Y-1395000D01*
%TO.C,C25*%
X-20460580Y-2415000D02*
X-20179420Y-2415000D01*
X-20460580Y-1395000D02*
X-20179420Y-1395000D01*
%TO.C,C24*%
X20179420Y-22735000D02*
X20460580Y-22735000D01*
X20179420Y-21715000D02*
X20460580Y-21715000D01*
%TO.C,C23*%
X25259420Y-22735000D02*
X25540580Y-22735000D01*
X25259420Y-21715000D02*
X25540580Y-21715000D01*
%TO.C,C22*%
X30339420Y-22735000D02*
X30620580Y-22735000D01*
X30339420Y-21715000D02*
X30620580Y-21715000D01*
%TO.C,C21*%
X25259420Y-15750000D02*
X25540580Y-15750000D01*
X25259420Y-14730000D02*
X25540580Y-14730000D01*
%TO.C,C20*%
X30339420Y-15750000D02*
X30620580Y-15750000D01*
X30339420Y-14730000D02*
X30620580Y-14730000D01*
%TO.C,C19*%
X30339420Y-8765000D02*
X30620580Y-8765000D01*
X30339420Y-7745000D02*
X30620580Y-7745000D01*
%TO.C,C18*%
X25259420Y-8765000D02*
X25540580Y-8765000D01*
X25259420Y-7745000D02*
X25540580Y-7745000D01*
%TO.C,C17*%
X20179420Y-8765000D02*
X20460580Y-8765000D01*
X20179420Y-7745000D02*
X20460580Y-7745000D01*
%TO.C,C16*%
X-10300580Y125000D02*
X-10019420Y125000D01*
X-10300580Y1145000D02*
X-10019420Y1145000D01*
%TO.C,C15*%
X-30620580Y-10035000D02*
X-30339420Y-10035000D01*
X-30620580Y-9015000D02*
X-30339420Y-9015000D01*
%TO.C,C14*%
X-30620580Y-20195000D02*
X-30339420Y-20195000D01*
X-30620580Y-19175000D02*
X-30339420Y-19175000D01*
%TO.C,C13*%
X-20460580Y-10035000D02*
X-20179420Y-10035000D01*
X-20460580Y-9015000D02*
X-20179420Y-9015000D01*
%TO.C,C12*%
X-10300580Y-10035000D02*
X-10019420Y-10035000D01*
X-10300580Y-9015000D02*
X-10019420Y-9015000D01*
%TO.C,C11*%
X-20460580Y-20195000D02*
X-20179420Y-20195000D01*
X-20460580Y-19175000D02*
X-20179420Y-19175000D01*
%TO.C,C10*%
X-10300580Y-20195000D02*
X-10019420Y-20195000D01*
X-10300580Y-19175000D02*
X-10019420Y-19175000D01*
%TO.C,C9*%
X-61100580Y-42420000D02*
X-60819420Y-42420000D01*
X-61100580Y-41400000D02*
X-60819420Y-41400000D01*
%TO.C,C8*%
X-56020580Y-42420000D02*
X-55739420Y-42420000D01*
X-56020580Y-41400000D02*
X-55739420Y-41400000D01*
%TO.C,C7*%
X-71260580Y-42420000D02*
X-70979420Y-42420000D01*
X-71260580Y-41400000D02*
X-70979420Y-41400000D01*
%TO.C,C6*%
X-66180580Y-42420000D02*
X-65899420Y-42420000D01*
X-66180580Y-41400000D02*
X-65899420Y-41400000D01*
%TO.C,C5*%
X-40780580Y-50040000D02*
X-40499420Y-50040000D01*
X-40780580Y-49020000D02*
X-40499420Y-49020000D01*
%TO.C,C4*%
X-71260580Y-50040000D02*
X-70979420Y-50040000D01*
X-71260580Y-49020000D02*
X-70979420Y-49020000D01*
%TO.C,C3*%
X-76340580Y-42420000D02*
X-76059420Y-42420000D01*
X-76340580Y-41400000D02*
X-76059420Y-41400000D01*
%TO.C,C2*%
X-50940580Y-50040000D02*
X-50659420Y-50040000D01*
X-50940580Y-49020000D02*
X-50659420Y-49020000D01*
%TO.C,C1*%
X-61100580Y-50040000D02*
X-60819420Y-50040000D01*
X-61100580Y-49020000D02*
X-60819420Y-49020000D01*
%TO.C,U77*%
D15*
X-67278095Y-9337380D02*
X-67278095Y-10146904D01*
X-67230476Y-10242142D01*
X-67182857Y-10289761D01*
X-67087619Y-10337380D01*
X-66897142Y-10337380D01*
X-66801904Y-10289761D01*
X-66754285Y-10242142D01*
X-66706666Y-10146904D01*
X-66706666Y-9337380D01*
X-66325714Y-9337380D02*
X-65659047Y-9337380D01*
X-66087619Y-10337380D01*
X-65373333Y-9337380D02*
X-64706666Y-9337380D01*
X-65135238Y-10337380D01*
%TO.C,U76*%
X-46958095Y-9337380D02*
X-46958095Y-10146904D01*
X-46910476Y-10242142D01*
X-46862857Y-10289761D01*
X-46767619Y-10337380D01*
X-46577142Y-10337380D01*
X-46481904Y-10289761D01*
X-46434285Y-10242142D01*
X-46386666Y-10146904D01*
X-46386666Y-9337380D01*
X-46005714Y-9337380D02*
X-45339047Y-9337380D01*
X-45767619Y-10337380D01*
X-44529523Y-9337380D02*
X-44720000Y-9337380D01*
X-44815238Y-9385000D01*
X-44862857Y-9432619D01*
X-44958095Y-9575476D01*
X-45005714Y-9765952D01*
X-45005714Y-10146904D01*
X-44958095Y-10242142D01*
X-44910476Y-10289761D01*
X-44815238Y-10337380D01*
X-44624761Y-10337380D01*
X-44529523Y-10289761D01*
X-44481904Y-10242142D01*
X-44434285Y-10146904D01*
X-44434285Y-9908809D01*
X-44481904Y-9813571D01*
X-44529523Y-9765952D01*
X-44624761Y-9718333D01*
X-44815238Y-9718333D01*
X-44910476Y-9765952D01*
X-44958095Y-9813571D01*
X-45005714Y-9908809D01*
%TO.C,U75*%
X-77338095Y-9337380D02*
X-77338095Y-10146904D01*
X-77290476Y-10242142D01*
X-77242857Y-10289761D01*
X-77147619Y-10337380D01*
X-76957142Y-10337380D01*
X-76861904Y-10289761D01*
X-76814285Y-10242142D01*
X-76766666Y-10146904D01*
X-76766666Y-9337380D01*
X-76385714Y-9337380D02*
X-75719047Y-9337380D01*
X-76147619Y-10337380D01*
X-74861904Y-9337380D02*
X-75338095Y-9337380D01*
X-75385714Y-9813571D01*
X-75338095Y-9765952D01*
X-75242857Y-9718333D01*
X-75004761Y-9718333D01*
X-74909523Y-9765952D01*
X-74861904Y-9813571D01*
X-74814285Y-9908809D01*
X-74814285Y-10146904D01*
X-74861904Y-10242142D01*
X-74909523Y-10289761D01*
X-75004761Y-10337380D01*
X-75242857Y-10337380D01*
X-75338095Y-10289761D01*
X-75385714Y-10242142D01*
%TO.C,U74*%
X-57018095Y-9339880D02*
X-57018095Y-10149404D01*
X-56970476Y-10244642D01*
X-56922857Y-10292261D01*
X-56827619Y-10339880D01*
X-56637142Y-10339880D01*
X-56541904Y-10292261D01*
X-56494285Y-10244642D01*
X-56446666Y-10149404D01*
X-56446666Y-9339880D01*
X-56065714Y-9339880D02*
X-55399047Y-9339880D01*
X-55827619Y-10339880D01*
X-54589523Y-9673214D02*
X-54589523Y-10339880D01*
X-54827619Y-9292261D02*
X-55065714Y-10006547D01*
X-54446666Y-10006547D01*
%TO.C,U73*%
X-62198095Y-24217380D02*
X-62198095Y-25026904D01*
X-62150476Y-25122142D01*
X-62102857Y-25169761D01*
X-62007619Y-25217380D01*
X-61817142Y-25217380D01*
X-61721904Y-25169761D01*
X-61674285Y-25122142D01*
X-61626666Y-25026904D01*
X-61626666Y-24217380D01*
X-61245714Y-24217380D02*
X-60579047Y-24217380D01*
X-61007619Y-25217380D01*
X-60293333Y-24217380D02*
X-59674285Y-24217380D01*
X-60007619Y-24598333D01*
X-59864761Y-24598333D01*
X-59769523Y-24645952D01*
X-59721904Y-24693571D01*
X-59674285Y-24788809D01*
X-59674285Y-25026904D01*
X-59721904Y-25122142D01*
X-59769523Y-25169761D01*
X-59864761Y-25217380D01*
X-60150476Y-25217380D01*
X-60245714Y-25169761D01*
X-60293333Y-25122142D01*
%TO.C,U72*%
X-67278095Y-24217380D02*
X-67278095Y-25026904D01*
X-67230476Y-25122142D01*
X-67182857Y-25169761D01*
X-67087619Y-25217380D01*
X-66897142Y-25217380D01*
X-66801904Y-25169761D01*
X-66754285Y-25122142D01*
X-66706666Y-25026904D01*
X-66706666Y-24217380D01*
X-66325714Y-24217380D02*
X-65659047Y-24217380D01*
X-66087619Y-25217380D01*
X-65325714Y-24312619D02*
X-65278095Y-24265000D01*
X-65182857Y-24217380D01*
X-64944761Y-24217380D01*
X-64849523Y-24265000D01*
X-64801904Y-24312619D01*
X-64754285Y-24407857D01*
X-64754285Y-24503095D01*
X-64801904Y-24645952D01*
X-65373333Y-25217380D01*
X-64754285Y-25217380D01*
%TO.C,U71*%
X-72358095Y-24217380D02*
X-72358095Y-25026904D01*
X-72310476Y-25122142D01*
X-72262857Y-25169761D01*
X-72167619Y-25217380D01*
X-71977142Y-25217380D01*
X-71881904Y-25169761D01*
X-71834285Y-25122142D01*
X-71786666Y-25026904D01*
X-71786666Y-24217380D01*
X-71405714Y-24217380D02*
X-70739047Y-24217380D01*
X-71167619Y-25217380D01*
X-69834285Y-25217380D02*
X-70405714Y-25217380D01*
X-70120000Y-25217380D02*
X-70120000Y-24217380D01*
X-70215238Y-24360238D01*
X-70310476Y-24455476D01*
X-70405714Y-24503095D01*
%TO.C,U70*%
X-46635595Y-29297380D02*
X-46635595Y-30106904D01*
X-46587976Y-30202142D01*
X-46540357Y-30249761D01*
X-46445119Y-30297380D01*
X-46254642Y-30297380D01*
X-46159404Y-30249761D01*
X-46111785Y-30202142D01*
X-46064166Y-30106904D01*
X-46064166Y-29297380D01*
X-45683214Y-29297380D02*
X-45016547Y-29297380D01*
X-45445119Y-30297380D01*
X-44445119Y-29297380D02*
X-44349880Y-29297380D01*
X-44254642Y-29345000D01*
X-44207023Y-29392619D01*
X-44159404Y-29487857D01*
X-44111785Y-29678333D01*
X-44111785Y-29916428D01*
X-44159404Y-30106904D01*
X-44207023Y-30202142D01*
X-44254642Y-30249761D01*
X-44349880Y-30297380D01*
X-44445119Y-30297380D01*
X-44540357Y-30249761D01*
X-44587976Y-30202142D01*
X-44635595Y-30106904D01*
X-44683214Y-29916428D01*
X-44683214Y-29678333D01*
X-44635595Y-29487857D01*
X-44587976Y-29392619D01*
X-44540357Y-29345000D01*
X-44445119Y-29297380D01*
%TO.C,U69*%
X-82518095Y-52792380D02*
X-82518095Y-53601904D01*
X-82470476Y-53697142D01*
X-82422857Y-53744761D01*
X-82327619Y-53792380D01*
X-82137142Y-53792380D01*
X-82041904Y-53744761D01*
X-81994285Y-53697142D01*
X-81946666Y-53601904D01*
X-81946666Y-52792380D01*
X-81041904Y-52792380D02*
X-81232380Y-52792380D01*
X-81327619Y-52840000D01*
X-81375238Y-52887619D01*
X-81470476Y-53030476D01*
X-81518095Y-53220952D01*
X-81518095Y-53601904D01*
X-81470476Y-53697142D01*
X-81422857Y-53744761D01*
X-81327619Y-53792380D01*
X-81137142Y-53792380D01*
X-81041904Y-53744761D01*
X-80994285Y-53697142D01*
X-80946666Y-53601904D01*
X-80946666Y-53363809D01*
X-80994285Y-53268571D01*
X-81041904Y-53220952D01*
X-81137142Y-53173333D01*
X-81327619Y-53173333D01*
X-81422857Y-53220952D01*
X-81470476Y-53268571D01*
X-81518095Y-53363809D01*
X-80470476Y-53792380D02*
X-80280000Y-53792380D01*
X-80184761Y-53744761D01*
X-80137142Y-53697142D01*
X-80041904Y-53554285D01*
X-79994285Y-53363809D01*
X-79994285Y-52982857D01*
X-80041904Y-52887619D01*
X-80089523Y-52840000D01*
X-80184761Y-52792380D01*
X-80375238Y-52792380D01*
X-80470476Y-52840000D01*
X-80518095Y-52887619D01*
X-80565714Y-52982857D01*
X-80565714Y-53220952D01*
X-80518095Y-53316190D01*
X-80470476Y-53363809D01*
X-80375238Y-53411428D01*
X-80184761Y-53411428D01*
X-80089523Y-53363809D01*
X-80041904Y-53316190D01*
X-79994285Y-53220952D01*
%TO.C,U68*%
X-92678095Y-45807380D02*
X-92678095Y-46616904D01*
X-92630476Y-46712142D01*
X-92582857Y-46759761D01*
X-92487619Y-46807380D01*
X-92297142Y-46807380D01*
X-92201904Y-46759761D01*
X-92154285Y-46712142D01*
X-92106666Y-46616904D01*
X-92106666Y-45807380D01*
X-91201904Y-45807380D02*
X-91392380Y-45807380D01*
X-91487619Y-45855000D01*
X-91535238Y-45902619D01*
X-91630476Y-46045476D01*
X-91678095Y-46235952D01*
X-91678095Y-46616904D01*
X-91630476Y-46712142D01*
X-91582857Y-46759761D01*
X-91487619Y-46807380D01*
X-91297142Y-46807380D01*
X-91201904Y-46759761D01*
X-91154285Y-46712142D01*
X-91106666Y-46616904D01*
X-91106666Y-46378809D01*
X-91154285Y-46283571D01*
X-91201904Y-46235952D01*
X-91297142Y-46188333D01*
X-91487619Y-46188333D01*
X-91582857Y-46235952D01*
X-91630476Y-46283571D01*
X-91678095Y-46378809D01*
X-90535238Y-46235952D02*
X-90630476Y-46188333D01*
X-90678095Y-46140714D01*
X-90725714Y-46045476D01*
X-90725714Y-45997857D01*
X-90678095Y-45902619D01*
X-90630476Y-45855000D01*
X-90535238Y-45807380D01*
X-90344761Y-45807380D01*
X-90249523Y-45855000D01*
X-90201904Y-45902619D01*
X-90154285Y-45997857D01*
X-90154285Y-46045476D01*
X-90201904Y-46140714D01*
X-90249523Y-46188333D01*
X-90344761Y-46235952D01*
X-90535238Y-46235952D01*
X-90630476Y-46283571D01*
X-90678095Y-46331190D01*
X-90725714Y-46426428D01*
X-90725714Y-46616904D01*
X-90678095Y-46712142D01*
X-90630476Y-46759761D01*
X-90535238Y-46807380D01*
X-90344761Y-46807380D01*
X-90249523Y-46759761D01*
X-90201904Y-46712142D01*
X-90154285Y-46616904D01*
X-90154285Y-46426428D01*
X-90201904Y-46331190D01*
X-90249523Y-46283571D01*
X-90344761Y-46235952D01*
%TO.C,U67*%
X-82518095Y-31202380D02*
X-82518095Y-32011904D01*
X-82470476Y-32107142D01*
X-82422857Y-32154761D01*
X-82327619Y-32202380D01*
X-82137142Y-32202380D01*
X-82041904Y-32154761D01*
X-81994285Y-32107142D01*
X-81946666Y-32011904D01*
X-81946666Y-31202380D01*
X-81041904Y-31202380D02*
X-81232380Y-31202380D01*
X-81327619Y-31250000D01*
X-81375238Y-31297619D01*
X-81470476Y-31440476D01*
X-81518095Y-31630952D01*
X-81518095Y-32011904D01*
X-81470476Y-32107142D01*
X-81422857Y-32154761D01*
X-81327619Y-32202380D01*
X-81137142Y-32202380D01*
X-81041904Y-32154761D01*
X-80994285Y-32107142D01*
X-80946666Y-32011904D01*
X-80946666Y-31773809D01*
X-80994285Y-31678571D01*
X-81041904Y-31630952D01*
X-81137142Y-31583333D01*
X-81327619Y-31583333D01*
X-81422857Y-31630952D01*
X-81470476Y-31678571D01*
X-81518095Y-31773809D01*
X-80613333Y-31202380D02*
X-79946666Y-31202380D01*
X-80375238Y-32202380D01*
%TO.C,U66*%
X-92678095Y-24217380D02*
X-92678095Y-25026904D01*
X-92630476Y-25122142D01*
X-92582857Y-25169761D01*
X-92487619Y-25217380D01*
X-92297142Y-25217380D01*
X-92201904Y-25169761D01*
X-92154285Y-25122142D01*
X-92106666Y-25026904D01*
X-92106666Y-24217380D01*
X-91201904Y-24217380D02*
X-91392380Y-24217380D01*
X-91487619Y-24265000D01*
X-91535238Y-24312619D01*
X-91630476Y-24455476D01*
X-91678095Y-24645952D01*
X-91678095Y-25026904D01*
X-91630476Y-25122142D01*
X-91582857Y-25169761D01*
X-91487619Y-25217380D01*
X-91297142Y-25217380D01*
X-91201904Y-25169761D01*
X-91154285Y-25122142D01*
X-91106666Y-25026904D01*
X-91106666Y-24788809D01*
X-91154285Y-24693571D01*
X-91201904Y-24645952D01*
X-91297142Y-24598333D01*
X-91487619Y-24598333D01*
X-91582857Y-24645952D01*
X-91630476Y-24693571D01*
X-91678095Y-24788809D01*
X-90249523Y-24217380D02*
X-90440000Y-24217380D01*
X-90535238Y-24265000D01*
X-90582857Y-24312619D01*
X-90678095Y-24455476D01*
X-90725714Y-24645952D01*
X-90725714Y-25026904D01*
X-90678095Y-25122142D01*
X-90630476Y-25169761D01*
X-90535238Y-25217380D01*
X-90344761Y-25217380D01*
X-90249523Y-25169761D01*
X-90201904Y-25122142D01*
X-90154285Y-25026904D01*
X-90154285Y-24788809D01*
X-90201904Y-24693571D01*
X-90249523Y-24645952D01*
X-90344761Y-24598333D01*
X-90535238Y-24598333D01*
X-90630476Y-24645952D01*
X-90678095Y-24693571D01*
X-90725714Y-24788809D01*
%TO.C,U65*%
X-57118095Y-19497380D02*
X-57118095Y-20306904D01*
X-57070476Y-20402142D01*
X-57022857Y-20449761D01*
X-56927619Y-20497380D01*
X-56737142Y-20497380D01*
X-56641904Y-20449761D01*
X-56594285Y-20402142D01*
X-56546666Y-20306904D01*
X-56546666Y-19497380D01*
X-55641904Y-19497380D02*
X-55832380Y-19497380D01*
X-55927619Y-19545000D01*
X-55975238Y-19592619D01*
X-56070476Y-19735476D01*
X-56118095Y-19925952D01*
X-56118095Y-20306904D01*
X-56070476Y-20402142D01*
X-56022857Y-20449761D01*
X-55927619Y-20497380D01*
X-55737142Y-20497380D01*
X-55641904Y-20449761D01*
X-55594285Y-20402142D01*
X-55546666Y-20306904D01*
X-55546666Y-20068809D01*
X-55594285Y-19973571D01*
X-55641904Y-19925952D01*
X-55737142Y-19878333D01*
X-55927619Y-19878333D01*
X-56022857Y-19925952D01*
X-56070476Y-19973571D01*
X-56118095Y-20068809D01*
X-54641904Y-19497380D02*
X-55118095Y-19497380D01*
X-55165714Y-19973571D01*
X-55118095Y-19925952D01*
X-55022857Y-19878333D01*
X-54784761Y-19878333D01*
X-54689523Y-19925952D01*
X-54641904Y-19973571D01*
X-54594285Y-20068809D01*
X-54594285Y-20306904D01*
X-54641904Y-20402142D01*
X-54689523Y-20449761D01*
X-54784761Y-20497380D01*
X-55022857Y-20497380D01*
X-55118095Y-20449761D01*
X-55165714Y-20402142D01*
%TO.C,U64*%
X-87598095Y-52792380D02*
X-87598095Y-53601904D01*
X-87550476Y-53697142D01*
X-87502857Y-53744761D01*
X-87407619Y-53792380D01*
X-87217142Y-53792380D01*
X-87121904Y-53744761D01*
X-87074285Y-53697142D01*
X-87026666Y-53601904D01*
X-87026666Y-52792380D01*
X-86121904Y-52792380D02*
X-86312380Y-52792380D01*
X-86407619Y-52840000D01*
X-86455238Y-52887619D01*
X-86550476Y-53030476D01*
X-86598095Y-53220952D01*
X-86598095Y-53601904D01*
X-86550476Y-53697142D01*
X-86502857Y-53744761D01*
X-86407619Y-53792380D01*
X-86217142Y-53792380D01*
X-86121904Y-53744761D01*
X-86074285Y-53697142D01*
X-86026666Y-53601904D01*
X-86026666Y-53363809D01*
X-86074285Y-53268571D01*
X-86121904Y-53220952D01*
X-86217142Y-53173333D01*
X-86407619Y-53173333D01*
X-86502857Y-53220952D01*
X-86550476Y-53268571D01*
X-86598095Y-53363809D01*
X-85169523Y-53125714D02*
X-85169523Y-53792380D01*
X-85407619Y-52744761D02*
X-85645714Y-53459047D01*
X-85026666Y-53459047D01*
%TO.C,U63*%
X-82518095Y-39457380D02*
X-82518095Y-40266904D01*
X-82470476Y-40362142D01*
X-82422857Y-40409761D01*
X-82327619Y-40457380D01*
X-82137142Y-40457380D01*
X-82041904Y-40409761D01*
X-81994285Y-40362142D01*
X-81946666Y-40266904D01*
X-81946666Y-39457380D01*
X-81041904Y-39457380D02*
X-81232380Y-39457380D01*
X-81327619Y-39505000D01*
X-81375238Y-39552619D01*
X-81470476Y-39695476D01*
X-81518095Y-39885952D01*
X-81518095Y-40266904D01*
X-81470476Y-40362142D01*
X-81422857Y-40409761D01*
X-81327619Y-40457380D01*
X-81137142Y-40457380D01*
X-81041904Y-40409761D01*
X-80994285Y-40362142D01*
X-80946666Y-40266904D01*
X-80946666Y-40028809D01*
X-80994285Y-39933571D01*
X-81041904Y-39885952D01*
X-81137142Y-39838333D01*
X-81327619Y-39838333D01*
X-81422857Y-39885952D01*
X-81470476Y-39933571D01*
X-81518095Y-40028809D01*
X-80613333Y-39457380D02*
X-79994285Y-39457380D01*
X-80327619Y-39838333D01*
X-80184761Y-39838333D01*
X-80089523Y-39885952D01*
X-80041904Y-39933571D01*
X-79994285Y-40028809D01*
X-79994285Y-40266904D01*
X-80041904Y-40362142D01*
X-80089523Y-40409761D01*
X-80184761Y-40457380D01*
X-80470476Y-40457380D01*
X-80565714Y-40409761D01*
X-80613333Y-40362142D01*
%TO.C,U62*%
X-87598095Y-31202380D02*
X-87598095Y-32011904D01*
X-87550476Y-32107142D01*
X-87502857Y-32154761D01*
X-87407619Y-32202380D01*
X-87217142Y-32202380D01*
X-87121904Y-32154761D01*
X-87074285Y-32107142D01*
X-87026666Y-32011904D01*
X-87026666Y-31202380D01*
X-86121904Y-31202380D02*
X-86312380Y-31202380D01*
X-86407619Y-31250000D01*
X-86455238Y-31297619D01*
X-86550476Y-31440476D01*
X-86598095Y-31630952D01*
X-86598095Y-32011904D01*
X-86550476Y-32107142D01*
X-86502857Y-32154761D01*
X-86407619Y-32202380D01*
X-86217142Y-32202380D01*
X-86121904Y-32154761D01*
X-86074285Y-32107142D01*
X-86026666Y-32011904D01*
X-86026666Y-31773809D01*
X-86074285Y-31678571D01*
X-86121904Y-31630952D01*
X-86217142Y-31583333D01*
X-86407619Y-31583333D01*
X-86502857Y-31630952D01*
X-86550476Y-31678571D01*
X-86598095Y-31773809D01*
X-85645714Y-31297619D02*
X-85598095Y-31250000D01*
X-85502857Y-31202380D01*
X-85264761Y-31202380D01*
X-85169523Y-31250000D01*
X-85121904Y-31297619D01*
X-85074285Y-31392857D01*
X-85074285Y-31488095D01*
X-85121904Y-31630952D01*
X-85693333Y-32202380D01*
X-85074285Y-32202380D01*
%TO.C,U61*%
X-82518095Y-17867380D02*
X-82518095Y-18676904D01*
X-82470476Y-18772142D01*
X-82422857Y-18819761D01*
X-82327619Y-18867380D01*
X-82137142Y-18867380D01*
X-82041904Y-18819761D01*
X-81994285Y-18772142D01*
X-81946666Y-18676904D01*
X-81946666Y-17867380D01*
X-81041904Y-17867380D02*
X-81232380Y-17867380D01*
X-81327619Y-17915000D01*
X-81375238Y-17962619D01*
X-81470476Y-18105476D01*
X-81518095Y-18295952D01*
X-81518095Y-18676904D01*
X-81470476Y-18772142D01*
X-81422857Y-18819761D01*
X-81327619Y-18867380D01*
X-81137142Y-18867380D01*
X-81041904Y-18819761D01*
X-80994285Y-18772142D01*
X-80946666Y-18676904D01*
X-80946666Y-18438809D01*
X-80994285Y-18343571D01*
X-81041904Y-18295952D01*
X-81137142Y-18248333D01*
X-81327619Y-18248333D01*
X-81422857Y-18295952D01*
X-81470476Y-18343571D01*
X-81518095Y-18438809D01*
X-79994285Y-18867380D02*
X-80565714Y-18867380D01*
X-80280000Y-18867380D02*
X-80280000Y-17867380D01*
X-80375238Y-18010238D01*
X-80470476Y-18105476D01*
X-80565714Y-18153095D01*
%TO.C,U60*%
X-82518095Y-45807380D02*
X-82518095Y-46616904D01*
X-82470476Y-46712142D01*
X-82422857Y-46759761D01*
X-82327619Y-46807380D01*
X-82137142Y-46807380D01*
X-82041904Y-46759761D01*
X-81994285Y-46712142D01*
X-81946666Y-46616904D01*
X-81946666Y-45807380D01*
X-81041904Y-45807380D02*
X-81232380Y-45807380D01*
X-81327619Y-45855000D01*
X-81375238Y-45902619D01*
X-81470476Y-46045476D01*
X-81518095Y-46235952D01*
X-81518095Y-46616904D01*
X-81470476Y-46712142D01*
X-81422857Y-46759761D01*
X-81327619Y-46807380D01*
X-81137142Y-46807380D01*
X-81041904Y-46759761D01*
X-80994285Y-46712142D01*
X-80946666Y-46616904D01*
X-80946666Y-46378809D01*
X-80994285Y-46283571D01*
X-81041904Y-46235952D01*
X-81137142Y-46188333D01*
X-81327619Y-46188333D01*
X-81422857Y-46235952D01*
X-81470476Y-46283571D01*
X-81518095Y-46378809D01*
X-80327619Y-45807380D02*
X-80232380Y-45807380D01*
X-80137142Y-45855000D01*
X-80089523Y-45902619D01*
X-80041904Y-45997857D01*
X-79994285Y-46188333D01*
X-79994285Y-46426428D01*
X-80041904Y-46616904D01*
X-80089523Y-46712142D01*
X-80137142Y-46759761D01*
X-80232380Y-46807380D01*
X-80327619Y-46807380D01*
X-80422857Y-46759761D01*
X-80470476Y-46712142D01*
X-80518095Y-46616904D01*
X-80565714Y-46426428D01*
X-80565714Y-46188333D01*
X-80518095Y-45997857D01*
X-80470476Y-45902619D01*
X-80422857Y-45855000D01*
X-80327619Y-45807380D01*
%TO.C,U59*%
X-92678095Y-39457380D02*
X-92678095Y-40266904D01*
X-92630476Y-40362142D01*
X-92582857Y-40409761D01*
X-92487619Y-40457380D01*
X-92297142Y-40457380D01*
X-92201904Y-40409761D01*
X-92154285Y-40362142D01*
X-92106666Y-40266904D01*
X-92106666Y-39457380D01*
X-91154285Y-39457380D02*
X-91630476Y-39457380D01*
X-91678095Y-39933571D01*
X-91630476Y-39885952D01*
X-91535238Y-39838333D01*
X-91297142Y-39838333D01*
X-91201904Y-39885952D01*
X-91154285Y-39933571D01*
X-91106666Y-40028809D01*
X-91106666Y-40266904D01*
X-91154285Y-40362142D01*
X-91201904Y-40409761D01*
X-91297142Y-40457380D01*
X-91535238Y-40457380D01*
X-91630476Y-40409761D01*
X-91678095Y-40362142D01*
X-90630476Y-40457380D02*
X-90440000Y-40457380D01*
X-90344761Y-40409761D01*
X-90297142Y-40362142D01*
X-90201904Y-40219285D01*
X-90154285Y-40028809D01*
X-90154285Y-39647857D01*
X-90201904Y-39552619D01*
X-90249523Y-39505000D01*
X-90344761Y-39457380D01*
X-90535238Y-39457380D01*
X-90630476Y-39505000D01*
X-90678095Y-39552619D01*
X-90725714Y-39647857D01*
X-90725714Y-39885952D01*
X-90678095Y-39981190D01*
X-90630476Y-40028809D01*
X-90535238Y-40076428D01*
X-90344761Y-40076428D01*
X-90249523Y-40028809D01*
X-90201904Y-39981190D01*
X-90154285Y-39885952D01*
%TO.C,U58*%
X-82518095Y-24217380D02*
X-82518095Y-25026904D01*
X-82470476Y-25122142D01*
X-82422857Y-25169761D01*
X-82327619Y-25217380D01*
X-82137142Y-25217380D01*
X-82041904Y-25169761D01*
X-81994285Y-25122142D01*
X-81946666Y-25026904D01*
X-81946666Y-24217380D01*
X-80994285Y-24217380D02*
X-81470476Y-24217380D01*
X-81518095Y-24693571D01*
X-81470476Y-24645952D01*
X-81375238Y-24598333D01*
X-81137142Y-24598333D01*
X-81041904Y-24645952D01*
X-80994285Y-24693571D01*
X-80946666Y-24788809D01*
X-80946666Y-25026904D01*
X-80994285Y-25122142D01*
X-81041904Y-25169761D01*
X-81137142Y-25217380D01*
X-81375238Y-25217380D01*
X-81470476Y-25169761D01*
X-81518095Y-25122142D01*
X-80375238Y-24645952D02*
X-80470476Y-24598333D01*
X-80518095Y-24550714D01*
X-80565714Y-24455476D01*
X-80565714Y-24407857D01*
X-80518095Y-24312619D01*
X-80470476Y-24265000D01*
X-80375238Y-24217380D01*
X-80184761Y-24217380D01*
X-80089523Y-24265000D01*
X-80041904Y-24312619D01*
X-79994285Y-24407857D01*
X-79994285Y-24455476D01*
X-80041904Y-24550714D01*
X-80089523Y-24598333D01*
X-80184761Y-24645952D01*
X-80375238Y-24645952D01*
X-80470476Y-24693571D01*
X-80518095Y-24741190D01*
X-80565714Y-24836428D01*
X-80565714Y-25026904D01*
X-80518095Y-25122142D01*
X-80470476Y-25169761D01*
X-80375238Y-25217380D01*
X-80184761Y-25217380D01*
X-80089523Y-25169761D01*
X-80041904Y-25122142D01*
X-79994285Y-25026904D01*
X-79994285Y-24836428D01*
X-80041904Y-24741190D01*
X-80089523Y-24693571D01*
X-80184761Y-24645952D01*
%TO.C,U57*%
X-92678095Y-17867380D02*
X-92678095Y-18676904D01*
X-92630476Y-18772142D01*
X-92582857Y-18819761D01*
X-92487619Y-18867380D01*
X-92297142Y-18867380D01*
X-92201904Y-18819761D01*
X-92154285Y-18772142D01*
X-92106666Y-18676904D01*
X-92106666Y-17867380D01*
X-91154285Y-17867380D02*
X-91630476Y-17867380D01*
X-91678095Y-18343571D01*
X-91630476Y-18295952D01*
X-91535238Y-18248333D01*
X-91297142Y-18248333D01*
X-91201904Y-18295952D01*
X-91154285Y-18343571D01*
X-91106666Y-18438809D01*
X-91106666Y-18676904D01*
X-91154285Y-18772142D01*
X-91201904Y-18819761D01*
X-91297142Y-18867380D01*
X-91535238Y-18867380D01*
X-91630476Y-18819761D01*
X-91678095Y-18772142D01*
X-90773333Y-17867380D02*
X-90106666Y-17867380D01*
X-90535238Y-18867380D01*
%TO.C,U56*%
X-92678095Y-52792380D02*
X-92678095Y-53601904D01*
X-92630476Y-53697142D01*
X-92582857Y-53744761D01*
X-92487619Y-53792380D01*
X-92297142Y-53792380D01*
X-92201904Y-53744761D01*
X-92154285Y-53697142D01*
X-92106666Y-53601904D01*
X-92106666Y-52792380D01*
X-91154285Y-52792380D02*
X-91630476Y-52792380D01*
X-91678095Y-53268571D01*
X-91630476Y-53220952D01*
X-91535238Y-53173333D01*
X-91297142Y-53173333D01*
X-91201904Y-53220952D01*
X-91154285Y-53268571D01*
X-91106666Y-53363809D01*
X-91106666Y-53601904D01*
X-91154285Y-53697142D01*
X-91201904Y-53744761D01*
X-91297142Y-53792380D01*
X-91535238Y-53792380D01*
X-91630476Y-53744761D01*
X-91678095Y-53697142D01*
X-90249523Y-52792380D02*
X-90440000Y-52792380D01*
X-90535238Y-52840000D01*
X-90582857Y-52887619D01*
X-90678095Y-53030476D01*
X-90725714Y-53220952D01*
X-90725714Y-53601904D01*
X-90678095Y-53697142D01*
X-90630476Y-53744761D01*
X-90535238Y-53792380D01*
X-90344761Y-53792380D01*
X-90249523Y-53744761D01*
X-90201904Y-53697142D01*
X-90154285Y-53601904D01*
X-90154285Y-53363809D01*
X-90201904Y-53268571D01*
X-90249523Y-53220952D01*
X-90344761Y-53173333D01*
X-90535238Y-53173333D01*
X-90630476Y-53220952D01*
X-90678095Y-53268571D01*
X-90725714Y-53363809D01*
%TO.C,U55*%
X-87598095Y-39457380D02*
X-87598095Y-40266904D01*
X-87550476Y-40362142D01*
X-87502857Y-40409761D01*
X-87407619Y-40457380D01*
X-87217142Y-40457380D01*
X-87121904Y-40409761D01*
X-87074285Y-40362142D01*
X-87026666Y-40266904D01*
X-87026666Y-39457380D01*
X-86074285Y-39457380D02*
X-86550476Y-39457380D01*
X-86598095Y-39933571D01*
X-86550476Y-39885952D01*
X-86455238Y-39838333D01*
X-86217142Y-39838333D01*
X-86121904Y-39885952D01*
X-86074285Y-39933571D01*
X-86026666Y-40028809D01*
X-86026666Y-40266904D01*
X-86074285Y-40362142D01*
X-86121904Y-40409761D01*
X-86217142Y-40457380D01*
X-86455238Y-40457380D01*
X-86550476Y-40409761D01*
X-86598095Y-40362142D01*
X-85121904Y-39457380D02*
X-85598095Y-39457380D01*
X-85645714Y-39933571D01*
X-85598095Y-39885952D01*
X-85502857Y-39838333D01*
X-85264761Y-39838333D01*
X-85169523Y-39885952D01*
X-85121904Y-39933571D01*
X-85074285Y-40028809D01*
X-85074285Y-40266904D01*
X-85121904Y-40362142D01*
X-85169523Y-40409761D01*
X-85264761Y-40457380D01*
X-85502857Y-40457380D01*
X-85598095Y-40409761D01*
X-85645714Y-40362142D01*
%TO.C,U54*%
X-92678095Y-31202380D02*
X-92678095Y-32011904D01*
X-92630476Y-32107142D01*
X-92582857Y-32154761D01*
X-92487619Y-32202380D01*
X-92297142Y-32202380D01*
X-92201904Y-32154761D01*
X-92154285Y-32107142D01*
X-92106666Y-32011904D01*
X-92106666Y-31202380D01*
X-91154285Y-31202380D02*
X-91630476Y-31202380D01*
X-91678095Y-31678571D01*
X-91630476Y-31630952D01*
X-91535238Y-31583333D01*
X-91297142Y-31583333D01*
X-91201904Y-31630952D01*
X-91154285Y-31678571D01*
X-91106666Y-31773809D01*
X-91106666Y-32011904D01*
X-91154285Y-32107142D01*
X-91201904Y-32154761D01*
X-91297142Y-32202380D01*
X-91535238Y-32202380D01*
X-91630476Y-32154761D01*
X-91678095Y-32107142D01*
X-90249523Y-31535714D02*
X-90249523Y-32202380D01*
X-90487619Y-31154761D02*
X-90725714Y-31869047D01*
X-90106666Y-31869047D01*
%TO.C,U53*%
X-87598095Y-17867380D02*
X-87598095Y-18676904D01*
X-87550476Y-18772142D01*
X-87502857Y-18819761D01*
X-87407619Y-18867380D01*
X-87217142Y-18867380D01*
X-87121904Y-18819761D01*
X-87074285Y-18772142D01*
X-87026666Y-18676904D01*
X-87026666Y-17867380D01*
X-86074285Y-17867380D02*
X-86550476Y-17867380D01*
X-86598095Y-18343571D01*
X-86550476Y-18295952D01*
X-86455238Y-18248333D01*
X-86217142Y-18248333D01*
X-86121904Y-18295952D01*
X-86074285Y-18343571D01*
X-86026666Y-18438809D01*
X-86026666Y-18676904D01*
X-86074285Y-18772142D01*
X-86121904Y-18819761D01*
X-86217142Y-18867380D01*
X-86455238Y-18867380D01*
X-86550476Y-18819761D01*
X-86598095Y-18772142D01*
X-85693333Y-17867380D02*
X-85074285Y-17867380D01*
X-85407619Y-18248333D01*
X-85264761Y-18248333D01*
X-85169523Y-18295952D01*
X-85121904Y-18343571D01*
X-85074285Y-18438809D01*
X-85074285Y-18676904D01*
X-85121904Y-18772142D01*
X-85169523Y-18819761D01*
X-85264761Y-18867380D01*
X-85550476Y-18867380D01*
X-85645714Y-18819761D01*
X-85693333Y-18772142D01*
%TO.C,U52*%
X-46958095Y-19497380D02*
X-46958095Y-20306904D01*
X-46910476Y-20402142D01*
X-46862857Y-20449761D01*
X-46767619Y-20497380D01*
X-46577142Y-20497380D01*
X-46481904Y-20449761D01*
X-46434285Y-20402142D01*
X-46386666Y-20306904D01*
X-46386666Y-19497380D01*
X-45434285Y-19497380D02*
X-45910476Y-19497380D01*
X-45958095Y-19973571D01*
X-45910476Y-19925952D01*
X-45815238Y-19878333D01*
X-45577142Y-19878333D01*
X-45481904Y-19925952D01*
X-45434285Y-19973571D01*
X-45386666Y-20068809D01*
X-45386666Y-20306904D01*
X-45434285Y-20402142D01*
X-45481904Y-20449761D01*
X-45577142Y-20497380D01*
X-45815238Y-20497380D01*
X-45910476Y-20449761D01*
X-45958095Y-20402142D01*
X-45005714Y-19592619D02*
X-44958095Y-19545000D01*
X-44862857Y-19497380D01*
X-44624761Y-19497380D01*
X-44529523Y-19545000D01*
X-44481904Y-19592619D01*
X-44434285Y-19687857D01*
X-44434285Y-19783095D01*
X-44481904Y-19925952D01*
X-45053333Y-20497380D01*
X-44434285Y-20497380D01*
%TO.C,U51*%
X-77438095Y-24217380D02*
X-77438095Y-25026904D01*
X-77390476Y-25122142D01*
X-77342857Y-25169761D01*
X-77247619Y-25217380D01*
X-77057142Y-25217380D01*
X-76961904Y-25169761D01*
X-76914285Y-25122142D01*
X-76866666Y-25026904D01*
X-76866666Y-24217380D01*
X-75914285Y-24217380D02*
X-76390476Y-24217380D01*
X-76438095Y-24693571D01*
X-76390476Y-24645952D01*
X-76295238Y-24598333D01*
X-76057142Y-24598333D01*
X-75961904Y-24645952D01*
X-75914285Y-24693571D01*
X-75866666Y-24788809D01*
X-75866666Y-25026904D01*
X-75914285Y-25122142D01*
X-75961904Y-25169761D01*
X-76057142Y-25217380D01*
X-76295238Y-25217380D01*
X-76390476Y-25169761D01*
X-76438095Y-25122142D01*
X-74914285Y-25217380D02*
X-75485714Y-25217380D01*
X-75200000Y-25217380D02*
X-75200000Y-24217380D01*
X-75295238Y-24360238D01*
X-75390476Y-24455476D01*
X-75485714Y-24503095D01*
%TO.C,U50*%
X-52038095Y-34377380D02*
X-52038095Y-35186904D01*
X-51990476Y-35282142D01*
X-51942857Y-35329761D01*
X-51847619Y-35377380D01*
X-51657142Y-35377380D01*
X-51561904Y-35329761D01*
X-51514285Y-35282142D01*
X-51466666Y-35186904D01*
X-51466666Y-34377380D01*
X-50514285Y-34377380D02*
X-50990476Y-34377380D01*
X-51038095Y-34853571D01*
X-50990476Y-34805952D01*
X-50895238Y-34758333D01*
X-50657142Y-34758333D01*
X-50561904Y-34805952D01*
X-50514285Y-34853571D01*
X-50466666Y-34948809D01*
X-50466666Y-35186904D01*
X-50514285Y-35282142D01*
X-50561904Y-35329761D01*
X-50657142Y-35377380D01*
X-50895238Y-35377380D01*
X-50990476Y-35329761D01*
X-51038095Y-35282142D01*
X-49847619Y-34377380D02*
X-49752380Y-34377380D01*
X-49657142Y-34425000D01*
X-49609523Y-34472619D01*
X-49561904Y-34567857D01*
X-49514285Y-34758333D01*
X-49514285Y-34996428D01*
X-49561904Y-35186904D01*
X-49609523Y-35282142D01*
X-49657142Y-35329761D01*
X-49752380Y-35377380D01*
X-49847619Y-35377380D01*
X-49942857Y-35329761D01*
X-49990476Y-35282142D01*
X-50038095Y-35186904D01*
X-50085714Y-34996428D01*
X-50085714Y-34758333D01*
X-50038095Y-34567857D01*
X-49990476Y-34472619D01*
X-49942857Y-34425000D01*
X-49847619Y-34377380D01*
%TO.C,U49*%
X-2508095Y-45807380D02*
X-2508095Y-46616904D01*
X-2460476Y-46712142D01*
X-2412857Y-46759761D01*
X-2317619Y-46807380D01*
X-2127142Y-46807380D01*
X-2031904Y-46759761D01*
X-1984285Y-46712142D01*
X-1936666Y-46616904D01*
X-1936666Y-45807380D01*
X-1031904Y-46140714D02*
X-1031904Y-46807380D01*
X-1269999Y-45759761D02*
X-1508095Y-46474047D01*
X-889047Y-46474047D01*
X-460476Y-46807380D02*
X-270000Y-46807380D01*
X-174761Y-46759761D01*
X-127142Y-46712142D01*
X-31904Y-46569285D01*
X15714Y-46378809D01*
X15714Y-45997857D01*
X-31904Y-45902619D01*
X-79523Y-45855000D01*
X-174761Y-45807380D01*
X-365238Y-45807380D01*
X-460476Y-45855000D01*
X-508095Y-45902619D01*
X-555714Y-45997857D01*
X-555714Y-46235952D01*
X-508095Y-46331190D01*
X-460476Y-46378809D01*
X-365238Y-46426428D01*
X-174761Y-46426428D01*
X-79523Y-46378809D01*
X-31904Y-46331190D01*
X15714Y-46235952D01*
%TO.C,U48*%
X-31718095Y-45807380D02*
X-31718095Y-46616904D01*
X-31670476Y-46712142D01*
X-31622857Y-46759761D01*
X-31527619Y-46807380D01*
X-31337142Y-46807380D01*
X-31241904Y-46759761D01*
X-31194285Y-46712142D01*
X-31146666Y-46616904D01*
X-31146666Y-45807380D01*
X-30241904Y-46140714D02*
X-30241904Y-46807380D01*
X-30480000Y-45759761D02*
X-30718095Y-46474047D01*
X-30099047Y-46474047D01*
X-29575238Y-46235952D02*
X-29670476Y-46188333D01*
X-29718095Y-46140714D01*
X-29765714Y-46045476D01*
X-29765714Y-45997857D01*
X-29718095Y-45902619D01*
X-29670476Y-45855000D01*
X-29575238Y-45807380D01*
X-29384761Y-45807380D01*
X-29289523Y-45855000D01*
X-29241904Y-45902619D01*
X-29194285Y-45997857D01*
X-29194285Y-46045476D01*
X-29241904Y-46140714D01*
X-29289523Y-46188333D01*
X-29384761Y-46235952D01*
X-29575238Y-46235952D01*
X-29670476Y-46283571D01*
X-29718095Y-46331190D01*
X-29765714Y-46426428D01*
X-29765714Y-46616904D01*
X-29718095Y-46712142D01*
X-29670476Y-46759761D01*
X-29575238Y-46807380D01*
X-29384761Y-46807380D01*
X-29289523Y-46759761D01*
X-29241904Y-46712142D01*
X-29194285Y-46616904D01*
X-29194285Y-46426428D01*
X-29241904Y-46331190D01*
X-29289523Y-46283571D01*
X-29384761Y-46235952D01*
%TO.C,U47*%
X-36798095Y-45807380D02*
X-36798095Y-46616904D01*
X-36750476Y-46712142D01*
X-36702857Y-46759761D01*
X-36607619Y-46807380D01*
X-36417142Y-46807380D01*
X-36321904Y-46759761D01*
X-36274285Y-46712142D01*
X-36226666Y-46616904D01*
X-36226666Y-45807380D01*
X-35321904Y-46140714D02*
X-35321904Y-46807380D01*
X-35560000Y-45759761D02*
X-35798095Y-46474047D01*
X-35179047Y-46474047D01*
X-34893333Y-45807380D02*
X-34226666Y-45807380D01*
X-34655238Y-46807380D01*
%TO.C,U46*%
X-26638095Y-45807380D02*
X-26638095Y-46616904D01*
X-26590476Y-46712142D01*
X-26542857Y-46759761D01*
X-26447619Y-46807380D01*
X-26257142Y-46807380D01*
X-26161904Y-46759761D01*
X-26114285Y-46712142D01*
X-26066666Y-46616904D01*
X-26066666Y-45807380D01*
X-25161904Y-46140714D02*
X-25161904Y-46807380D01*
X-25400000Y-45759761D02*
X-25638095Y-46474047D01*
X-25019047Y-46474047D01*
X-24209523Y-45807380D02*
X-24400000Y-45807380D01*
X-24495238Y-45855000D01*
X-24542857Y-45902619D01*
X-24638095Y-46045476D01*
X-24685714Y-46235952D01*
X-24685714Y-46616904D01*
X-24638095Y-46712142D01*
X-24590476Y-46759761D01*
X-24495238Y-46807380D01*
X-24304761Y-46807380D01*
X-24209523Y-46759761D01*
X-24161904Y-46712142D01*
X-24114285Y-46616904D01*
X-24114285Y-46378809D01*
X-24161904Y-46283571D01*
X-24209523Y-46235952D01*
X-24304761Y-46188333D01*
X-24495238Y-46188333D01*
X-24590476Y-46235952D01*
X-24638095Y-46283571D01*
X-24685714Y-46378809D01*
%TO.C,U45*%
X-21558095Y-45807380D02*
X-21558095Y-46616904D01*
X-21510476Y-46712142D01*
X-21462857Y-46759761D01*
X-21367619Y-46807380D01*
X-21177142Y-46807380D01*
X-21081904Y-46759761D01*
X-21034285Y-46712142D01*
X-20986666Y-46616904D01*
X-20986666Y-45807380D01*
X-20081904Y-46140714D02*
X-20081904Y-46807380D01*
X-20320000Y-45759761D02*
X-20558095Y-46474047D01*
X-19939047Y-46474047D01*
X-19081904Y-45807380D02*
X-19558095Y-45807380D01*
X-19605714Y-46283571D01*
X-19558095Y-46235952D01*
X-19462857Y-46188333D01*
X-19224761Y-46188333D01*
X-19129523Y-46235952D01*
X-19081904Y-46283571D01*
X-19034285Y-46378809D01*
X-19034285Y-46616904D01*
X-19081904Y-46712142D01*
X-19129523Y-46759761D01*
X-19224761Y-46807380D01*
X-19462857Y-46807380D01*
X-19558095Y-46759761D01*
X-19605714Y-46712142D01*
%TO.C,U44*%
X19081904Y-66127380D02*
X19081904Y-66936904D01*
X19129523Y-67032142D01*
X19177142Y-67079761D01*
X19272380Y-67127380D01*
X19462857Y-67127380D01*
X19558095Y-67079761D01*
X19605714Y-67032142D01*
X19653333Y-66936904D01*
X19653333Y-66127380D01*
X20558095Y-66460714D02*
X20558095Y-67127380D01*
X20320000Y-66079761D02*
X20081904Y-66794047D01*
X20700952Y-66794047D01*
X21510476Y-66460714D02*
X21510476Y-67127380D01*
X21272380Y-66079761D02*
X21034285Y-66794047D01*
X21653333Y-66794047D01*
%TO.C,U43*%
X24161904Y-66127380D02*
X24161904Y-66936904D01*
X24209523Y-67032142D01*
X24257142Y-67079761D01*
X24352380Y-67127380D01*
X24542857Y-67127380D01*
X24638095Y-67079761D01*
X24685714Y-67032142D01*
X24733333Y-66936904D01*
X24733333Y-66127380D01*
X25638095Y-66460714D02*
X25638095Y-67127380D01*
X25400000Y-66079761D02*
X25161904Y-66794047D01*
X25780952Y-66794047D01*
X26066666Y-66127380D02*
X26685714Y-66127380D01*
X26352380Y-66508333D01*
X26495238Y-66508333D01*
X26590476Y-66555952D01*
X26638095Y-66603571D01*
X26685714Y-66698809D01*
X26685714Y-66936904D01*
X26638095Y-67032142D01*
X26590476Y-67079761D01*
X26495238Y-67127380D01*
X26209523Y-67127380D01*
X26114285Y-67079761D01*
X26066666Y-67032142D01*
%TO.C,U42*%
X29241904Y-66127380D02*
X29241904Y-66936904D01*
X29289523Y-67032142D01*
X29337142Y-67079761D01*
X29432380Y-67127380D01*
X29622857Y-67127380D01*
X29718095Y-67079761D01*
X29765714Y-67032142D01*
X29813333Y-66936904D01*
X29813333Y-66127380D01*
X30718095Y-66460714D02*
X30718095Y-67127380D01*
X30480000Y-66079761D02*
X30241904Y-66794047D01*
X30860952Y-66794047D01*
X31194285Y-66222619D02*
X31241904Y-66175000D01*
X31337142Y-66127380D01*
X31575238Y-66127380D01*
X31670476Y-66175000D01*
X31718095Y-66222619D01*
X31765714Y-66317857D01*
X31765714Y-66413095D01*
X31718095Y-66555952D01*
X31146666Y-67127380D01*
X31765714Y-67127380D01*
%TO.C,U41*%
X24161904Y-59142380D02*
X24161904Y-59951904D01*
X24209523Y-60047142D01*
X24257142Y-60094761D01*
X24352380Y-60142380D01*
X24542857Y-60142380D01*
X24638095Y-60094761D01*
X24685714Y-60047142D01*
X24733333Y-59951904D01*
X24733333Y-59142380D01*
X25638095Y-59475714D02*
X25638095Y-60142380D01*
X25400000Y-59094761D02*
X25161904Y-59809047D01*
X25780952Y-59809047D01*
X26685714Y-60142380D02*
X26114285Y-60142380D01*
X26400000Y-60142380D02*
X26400000Y-59142380D01*
X26304761Y-59285238D01*
X26209523Y-59380476D01*
X26114285Y-59428095D01*
%TO.C,U40*%
X29241904Y-59142380D02*
X29241904Y-59951904D01*
X29289523Y-60047142D01*
X29337142Y-60094761D01*
X29432380Y-60142380D01*
X29622857Y-60142380D01*
X29718095Y-60094761D01*
X29765714Y-60047142D01*
X29813333Y-59951904D01*
X29813333Y-59142380D01*
X30718095Y-59475714D02*
X30718095Y-60142380D01*
X30480000Y-59094761D02*
X30241904Y-59809047D01*
X30860952Y-59809047D01*
X31432380Y-59142380D02*
X31527619Y-59142380D01*
X31622857Y-59190000D01*
X31670476Y-59237619D01*
X31718095Y-59332857D01*
X31765714Y-59523333D01*
X31765714Y-59761428D01*
X31718095Y-59951904D01*
X31670476Y-60047142D01*
X31622857Y-60094761D01*
X31527619Y-60142380D01*
X31432380Y-60142380D01*
X31337142Y-60094761D01*
X31289523Y-60047142D01*
X31241904Y-59951904D01*
X31194285Y-59761428D01*
X31194285Y-59523333D01*
X31241904Y-59332857D01*
X31289523Y-59237619D01*
X31337142Y-59190000D01*
X31432380Y-59142380D01*
%TO.C,U39*%
X29241904Y-52157380D02*
X29241904Y-52966904D01*
X29289523Y-53062142D01*
X29337142Y-53109761D01*
X29432380Y-53157380D01*
X29622857Y-53157380D01*
X29718095Y-53109761D01*
X29765714Y-53062142D01*
X29813333Y-52966904D01*
X29813333Y-52157380D01*
X30194285Y-52157380D02*
X30813333Y-52157380D01*
X30480000Y-52538333D01*
X30622857Y-52538333D01*
X30718095Y-52585952D01*
X30765714Y-52633571D01*
X30813333Y-52728809D01*
X30813333Y-52966904D01*
X30765714Y-53062142D01*
X30718095Y-53109761D01*
X30622857Y-53157380D01*
X30337142Y-53157380D01*
X30241904Y-53109761D01*
X30194285Y-53062142D01*
X31289523Y-53157380D02*
X31480000Y-53157380D01*
X31575238Y-53109761D01*
X31622857Y-53062142D01*
X31718095Y-52919285D01*
X31765714Y-52728809D01*
X31765714Y-52347857D01*
X31718095Y-52252619D01*
X31670476Y-52205000D01*
X31575238Y-52157380D01*
X31384761Y-52157380D01*
X31289523Y-52205000D01*
X31241904Y-52252619D01*
X31194285Y-52347857D01*
X31194285Y-52585952D01*
X31241904Y-52681190D01*
X31289523Y-52728809D01*
X31384761Y-52776428D01*
X31575238Y-52776428D01*
X31670476Y-52728809D01*
X31718095Y-52681190D01*
X31765714Y-52585952D01*
%TO.C,U38*%
X24161904Y-52157380D02*
X24161904Y-52966904D01*
X24209523Y-53062142D01*
X24257142Y-53109761D01*
X24352380Y-53157380D01*
X24542857Y-53157380D01*
X24638095Y-53109761D01*
X24685714Y-53062142D01*
X24733333Y-52966904D01*
X24733333Y-52157380D01*
X25114285Y-52157380D02*
X25733333Y-52157380D01*
X25400000Y-52538333D01*
X25542857Y-52538333D01*
X25638095Y-52585952D01*
X25685714Y-52633571D01*
X25733333Y-52728809D01*
X25733333Y-52966904D01*
X25685714Y-53062142D01*
X25638095Y-53109761D01*
X25542857Y-53157380D01*
X25257142Y-53157380D01*
X25161904Y-53109761D01*
X25114285Y-53062142D01*
X26304761Y-52585952D02*
X26209523Y-52538333D01*
X26161904Y-52490714D01*
X26114285Y-52395476D01*
X26114285Y-52347857D01*
X26161904Y-52252619D01*
X26209523Y-52205000D01*
X26304761Y-52157380D01*
X26495238Y-52157380D01*
X26590476Y-52205000D01*
X26638095Y-52252619D01*
X26685714Y-52347857D01*
X26685714Y-52395476D01*
X26638095Y-52490714D01*
X26590476Y-52538333D01*
X26495238Y-52585952D01*
X26304761Y-52585952D01*
X26209523Y-52633571D01*
X26161904Y-52681190D01*
X26114285Y-52776428D01*
X26114285Y-52966904D01*
X26161904Y-53062142D01*
X26209523Y-53109761D01*
X26304761Y-53157380D01*
X26495238Y-53157380D01*
X26590476Y-53109761D01*
X26638095Y-53062142D01*
X26685714Y-52966904D01*
X26685714Y-52776428D01*
X26638095Y-52681190D01*
X26590476Y-52633571D01*
X26495238Y-52585952D01*
%TO.C,U37*%
X19081904Y-52157380D02*
X19081904Y-52966904D01*
X19129523Y-53062142D01*
X19177142Y-53109761D01*
X19272380Y-53157380D01*
X19462857Y-53157380D01*
X19558095Y-53109761D01*
X19605714Y-53062142D01*
X19653333Y-52966904D01*
X19653333Y-52157380D01*
X20034285Y-52157380D02*
X20653333Y-52157380D01*
X20320000Y-52538333D01*
X20462857Y-52538333D01*
X20558095Y-52585952D01*
X20605714Y-52633571D01*
X20653333Y-52728809D01*
X20653333Y-52966904D01*
X20605714Y-53062142D01*
X20558095Y-53109761D01*
X20462857Y-53157380D01*
X20177142Y-53157380D01*
X20081904Y-53109761D01*
X20034285Y-53062142D01*
X20986666Y-52157380D02*
X21653333Y-52157380D01*
X21224761Y-53157380D01*
%TO.C,U36*%
X-16478095Y-39207380D02*
X-16478095Y-40016904D01*
X-16430476Y-40112142D01*
X-16382857Y-40159761D01*
X-16287619Y-40207380D01*
X-16097142Y-40207380D01*
X-16001904Y-40159761D01*
X-15954285Y-40112142D01*
X-15906666Y-40016904D01*
X-15906666Y-39207380D01*
X-15525714Y-39207380D02*
X-14906666Y-39207380D01*
X-15240000Y-39588333D01*
X-15097142Y-39588333D01*
X-15001904Y-39635952D01*
X-14954285Y-39683571D01*
X-14906666Y-39778809D01*
X-14906666Y-40016904D01*
X-14954285Y-40112142D01*
X-15001904Y-40159761D01*
X-15097142Y-40207380D01*
X-15382857Y-40207380D01*
X-15478095Y-40159761D01*
X-15525714Y-40112142D01*
X-14049523Y-39207380D02*
X-14240000Y-39207380D01*
X-14335238Y-39255000D01*
X-14382857Y-39302619D01*
X-14478095Y-39445476D01*
X-14525714Y-39635952D01*
X-14525714Y-40016904D01*
X-14478095Y-40112142D01*
X-14430476Y-40159761D01*
X-14335238Y-40207380D01*
X-14144761Y-40207380D01*
X-14049523Y-40159761D01*
X-14001904Y-40112142D01*
X-13954285Y-40016904D01*
X-13954285Y-39778809D01*
X-14001904Y-39683571D01*
X-14049523Y-39635952D01*
X-14144761Y-39588333D01*
X-14335238Y-39588333D01*
X-14430476Y-39635952D01*
X-14478095Y-39683571D01*
X-14525714Y-39778809D01*
%TO.C,U35*%
X-36798095Y-49684880D02*
X-36798095Y-50494404D01*
X-36750476Y-50589642D01*
X-36702857Y-50637261D01*
X-36607619Y-50684880D01*
X-36417142Y-50684880D01*
X-36321904Y-50637261D01*
X-36274285Y-50589642D01*
X-36226666Y-50494404D01*
X-36226666Y-49684880D01*
X-35845714Y-49684880D02*
X-35226666Y-49684880D01*
X-35560000Y-50065833D01*
X-35417142Y-50065833D01*
X-35321904Y-50113452D01*
X-35274285Y-50161071D01*
X-35226666Y-50256309D01*
X-35226666Y-50494404D01*
X-35274285Y-50589642D01*
X-35321904Y-50637261D01*
X-35417142Y-50684880D01*
X-35702857Y-50684880D01*
X-35798095Y-50637261D01*
X-35845714Y-50589642D01*
X-34321904Y-49684880D02*
X-34798095Y-49684880D01*
X-34845714Y-50161071D01*
X-34798095Y-50113452D01*
X-34702857Y-50065833D01*
X-34464761Y-50065833D01*
X-34369523Y-50113452D01*
X-34321904Y-50161071D01*
X-34274285Y-50256309D01*
X-34274285Y-50494404D01*
X-34321904Y-50589642D01*
X-34369523Y-50637261D01*
X-34464761Y-50684880D01*
X-34702857Y-50684880D01*
X-34798095Y-50637261D01*
X-34845714Y-50589642D01*
%TO.C,U34*%
X-36798095Y-59844880D02*
X-36798095Y-60654404D01*
X-36750476Y-60749642D01*
X-36702857Y-60797261D01*
X-36607619Y-60844880D01*
X-36417142Y-60844880D01*
X-36321904Y-60797261D01*
X-36274285Y-60749642D01*
X-36226666Y-60654404D01*
X-36226666Y-59844880D01*
X-35845714Y-59844880D02*
X-35226666Y-59844880D01*
X-35560000Y-60225833D01*
X-35417142Y-60225833D01*
X-35321904Y-60273452D01*
X-35274285Y-60321071D01*
X-35226666Y-60416309D01*
X-35226666Y-60654404D01*
X-35274285Y-60749642D01*
X-35321904Y-60797261D01*
X-35417142Y-60844880D01*
X-35702857Y-60844880D01*
X-35798095Y-60797261D01*
X-35845714Y-60749642D01*
X-34369523Y-60178214D02*
X-34369523Y-60844880D01*
X-34607619Y-59797261D02*
X-34845714Y-60511547D01*
X-34226666Y-60511547D01*
%TO.C,U33*%
X-26638095Y-49712380D02*
X-26638095Y-50521904D01*
X-26590476Y-50617142D01*
X-26542857Y-50664761D01*
X-26447619Y-50712380D01*
X-26257142Y-50712380D01*
X-26161904Y-50664761D01*
X-26114285Y-50617142D01*
X-26066666Y-50521904D01*
X-26066666Y-49712380D01*
X-25685714Y-49712380D02*
X-25066666Y-49712380D01*
X-25400000Y-50093333D01*
X-25257142Y-50093333D01*
X-25161904Y-50140952D01*
X-25114285Y-50188571D01*
X-25066666Y-50283809D01*
X-25066666Y-50521904D01*
X-25114285Y-50617142D01*
X-25161904Y-50664761D01*
X-25257142Y-50712380D01*
X-25542857Y-50712380D01*
X-25638095Y-50664761D01*
X-25685714Y-50617142D01*
X-24733333Y-49712380D02*
X-24114285Y-49712380D01*
X-24447619Y-50093333D01*
X-24304761Y-50093333D01*
X-24209523Y-50140952D01*
X-24161904Y-50188571D01*
X-24114285Y-50283809D01*
X-24114285Y-50521904D01*
X-24161904Y-50617142D01*
X-24209523Y-50664761D01*
X-24304761Y-50712380D01*
X-24590476Y-50712380D01*
X-24685714Y-50664761D01*
X-24733333Y-50617142D01*
%TO.C,U32*%
X-16478095Y-49712380D02*
X-16478095Y-50521904D01*
X-16430476Y-50617142D01*
X-16382857Y-50664761D01*
X-16287619Y-50712380D01*
X-16097142Y-50712380D01*
X-16001904Y-50664761D01*
X-15954285Y-50617142D01*
X-15906666Y-50521904D01*
X-15906666Y-49712380D01*
X-15525714Y-49712380D02*
X-14906666Y-49712380D01*
X-15240000Y-50093333D01*
X-15097142Y-50093333D01*
X-15001904Y-50140952D01*
X-14954285Y-50188571D01*
X-14906666Y-50283809D01*
X-14906666Y-50521904D01*
X-14954285Y-50617142D01*
X-15001904Y-50664761D01*
X-15097142Y-50712380D01*
X-15382857Y-50712380D01*
X-15478095Y-50664761D01*
X-15525714Y-50617142D01*
X-14525714Y-49807619D02*
X-14478095Y-49760000D01*
X-14382857Y-49712380D01*
X-14144761Y-49712380D01*
X-14049523Y-49760000D01*
X-14001904Y-49807619D01*
X-13954285Y-49902857D01*
X-13954285Y-49998095D01*
X-14001904Y-50140952D01*
X-14573333Y-50712380D01*
X-13954285Y-50712380D01*
%TO.C,U31*%
X-26638095Y-59872380D02*
X-26638095Y-60681904D01*
X-26590476Y-60777142D01*
X-26542857Y-60824761D01*
X-26447619Y-60872380D01*
X-26257142Y-60872380D01*
X-26161904Y-60824761D01*
X-26114285Y-60777142D01*
X-26066666Y-60681904D01*
X-26066666Y-59872380D01*
X-25685714Y-59872380D02*
X-25066666Y-59872380D01*
X-25400000Y-60253333D01*
X-25257142Y-60253333D01*
X-25161904Y-60300952D01*
X-25114285Y-60348571D01*
X-25066666Y-60443809D01*
X-25066666Y-60681904D01*
X-25114285Y-60777142D01*
X-25161904Y-60824761D01*
X-25257142Y-60872380D01*
X-25542857Y-60872380D01*
X-25638095Y-60824761D01*
X-25685714Y-60777142D01*
X-24114285Y-60872380D02*
X-24685714Y-60872380D01*
X-24400000Y-60872380D02*
X-24400000Y-59872380D01*
X-24495238Y-60015238D01*
X-24590476Y-60110476D01*
X-24685714Y-60158095D01*
%TO.C,U30*%
X-16478095Y-59872380D02*
X-16478095Y-60681904D01*
X-16430476Y-60777142D01*
X-16382857Y-60824761D01*
X-16287619Y-60872380D01*
X-16097142Y-60872380D01*
X-16001904Y-60824761D01*
X-15954285Y-60777142D01*
X-15906666Y-60681904D01*
X-15906666Y-59872380D01*
X-15525714Y-59872380D02*
X-14906666Y-59872380D01*
X-15240000Y-60253333D01*
X-15097142Y-60253333D01*
X-15001904Y-60300952D01*
X-14954285Y-60348571D01*
X-14906666Y-60443809D01*
X-14906666Y-60681904D01*
X-14954285Y-60777142D01*
X-15001904Y-60824761D01*
X-15097142Y-60872380D01*
X-15382857Y-60872380D01*
X-15478095Y-60824761D01*
X-15525714Y-60777142D01*
X-14287619Y-59872380D02*
X-14192380Y-59872380D01*
X-14097142Y-59920000D01*
X-14049523Y-59967619D01*
X-14001904Y-60062857D01*
X-13954285Y-60253333D01*
X-13954285Y-60491428D01*
X-14001904Y-60681904D01*
X-14049523Y-60777142D01*
X-14097142Y-60824761D01*
X-14192380Y-60872380D01*
X-14287619Y-60872380D01*
X-14382857Y-60824761D01*
X-14430476Y-60777142D01*
X-14478095Y-60681904D01*
X-14525714Y-60491428D01*
X-14525714Y-60253333D01*
X-14478095Y-60062857D01*
X-14430476Y-59967619D01*
X-14382857Y-59920000D01*
X-14287619Y-59872380D01*
%TO.C,U29*%
X-2508095Y-5802380D02*
X-2508095Y-6611904D01*
X-2460476Y-6707142D01*
X-2412857Y-6754761D01*
X-2317619Y-6802380D01*
X-2127142Y-6802380D01*
X-2031904Y-6754761D01*
X-1984285Y-6707142D01*
X-1936666Y-6611904D01*
X-1936666Y-5802380D01*
X-1508095Y-5897619D02*
X-1460476Y-5850000D01*
X-1365238Y-5802380D01*
X-1127142Y-5802380D01*
X-1031904Y-5850000D01*
X-984285Y-5897619D01*
X-936666Y-5992857D01*
X-936666Y-6088095D01*
X-984285Y-6230952D01*
X-1555714Y-6802380D01*
X-936666Y-6802380D01*
X-460476Y-6802380D02*
X-270000Y-6802380D01*
X-174761Y-6754761D01*
X-127142Y-6707142D01*
X-31904Y-6564285D01*
X15714Y-6373809D01*
X15714Y-5992857D01*
X-31904Y-5897619D01*
X-79523Y-5850000D01*
X-174761Y-5802380D01*
X-365238Y-5802380D01*
X-460476Y-5850000D01*
X-508095Y-5897619D01*
X-555714Y-5992857D01*
X-555714Y-6230952D01*
X-508095Y-6326190D01*
X-460476Y-6373809D01*
X-365238Y-6421428D01*
X-174761Y-6421428D01*
X-79523Y-6373809D01*
X-31904Y-6326190D01*
X15714Y-6230952D01*
%TO.C,U28*%
X-31718095Y-5802380D02*
X-31718095Y-6611904D01*
X-31670476Y-6707142D01*
X-31622857Y-6754761D01*
X-31527619Y-6802380D01*
X-31337142Y-6802380D01*
X-31241904Y-6754761D01*
X-31194285Y-6707142D01*
X-31146666Y-6611904D01*
X-31146666Y-5802380D01*
X-30718095Y-5897619D02*
X-30670476Y-5850000D01*
X-30575238Y-5802380D01*
X-30337142Y-5802380D01*
X-30241904Y-5850000D01*
X-30194285Y-5897619D01*
X-30146666Y-5992857D01*
X-30146666Y-6088095D01*
X-30194285Y-6230952D01*
X-30765714Y-6802380D01*
X-30146666Y-6802380D01*
X-29575238Y-6230952D02*
X-29670476Y-6183333D01*
X-29718095Y-6135714D01*
X-29765714Y-6040476D01*
X-29765714Y-5992857D01*
X-29718095Y-5897619D01*
X-29670476Y-5850000D01*
X-29575238Y-5802380D01*
X-29384761Y-5802380D01*
X-29289523Y-5850000D01*
X-29241904Y-5897619D01*
X-29194285Y-5992857D01*
X-29194285Y-6040476D01*
X-29241904Y-6135714D01*
X-29289523Y-6183333D01*
X-29384761Y-6230952D01*
X-29575238Y-6230952D01*
X-29670476Y-6278571D01*
X-29718095Y-6326190D01*
X-29765714Y-6421428D01*
X-29765714Y-6611904D01*
X-29718095Y-6707142D01*
X-29670476Y-6754761D01*
X-29575238Y-6802380D01*
X-29384761Y-6802380D01*
X-29289523Y-6754761D01*
X-29241904Y-6707142D01*
X-29194285Y-6611904D01*
X-29194285Y-6421428D01*
X-29241904Y-6326190D01*
X-29289523Y-6278571D01*
X-29384761Y-6230952D01*
%TO.C,U27*%
X-36798095Y-5802380D02*
X-36798095Y-6611904D01*
X-36750476Y-6707142D01*
X-36702857Y-6754761D01*
X-36607619Y-6802380D01*
X-36417142Y-6802380D01*
X-36321904Y-6754761D01*
X-36274285Y-6707142D01*
X-36226666Y-6611904D01*
X-36226666Y-5802380D01*
X-35798095Y-5897619D02*
X-35750476Y-5850000D01*
X-35655238Y-5802380D01*
X-35417142Y-5802380D01*
X-35321904Y-5850000D01*
X-35274285Y-5897619D01*
X-35226666Y-5992857D01*
X-35226666Y-6088095D01*
X-35274285Y-6230952D01*
X-35845714Y-6802380D01*
X-35226666Y-6802380D01*
X-34893333Y-5802380D02*
X-34226666Y-5802380D01*
X-34655238Y-6802380D01*
%TO.C,U26*%
X-26638095Y-5802380D02*
X-26638095Y-6611904D01*
X-26590476Y-6707142D01*
X-26542857Y-6754761D01*
X-26447619Y-6802380D01*
X-26257142Y-6802380D01*
X-26161904Y-6754761D01*
X-26114285Y-6707142D01*
X-26066666Y-6611904D01*
X-26066666Y-5802380D01*
X-25638095Y-5897619D02*
X-25590476Y-5850000D01*
X-25495238Y-5802380D01*
X-25257142Y-5802380D01*
X-25161904Y-5850000D01*
X-25114285Y-5897619D01*
X-25066666Y-5992857D01*
X-25066666Y-6088095D01*
X-25114285Y-6230952D01*
X-25685714Y-6802380D01*
X-25066666Y-6802380D01*
X-24209523Y-5802380D02*
X-24400000Y-5802380D01*
X-24495238Y-5850000D01*
X-24542857Y-5897619D01*
X-24638095Y-6040476D01*
X-24685714Y-6230952D01*
X-24685714Y-6611904D01*
X-24638095Y-6707142D01*
X-24590476Y-6754761D01*
X-24495238Y-6802380D01*
X-24304761Y-6802380D01*
X-24209523Y-6754761D01*
X-24161904Y-6707142D01*
X-24114285Y-6611904D01*
X-24114285Y-6373809D01*
X-24161904Y-6278571D01*
X-24209523Y-6230952D01*
X-24304761Y-6183333D01*
X-24495238Y-6183333D01*
X-24590476Y-6230952D01*
X-24638095Y-6278571D01*
X-24685714Y-6373809D01*
%TO.C,U25*%
X-21558095Y-5802380D02*
X-21558095Y-6611904D01*
X-21510476Y-6707142D01*
X-21462857Y-6754761D01*
X-21367619Y-6802380D01*
X-21177142Y-6802380D01*
X-21081904Y-6754761D01*
X-21034285Y-6707142D01*
X-20986666Y-6611904D01*
X-20986666Y-5802380D01*
X-20558095Y-5897619D02*
X-20510476Y-5850000D01*
X-20415238Y-5802380D01*
X-20177142Y-5802380D01*
X-20081904Y-5850000D01*
X-20034285Y-5897619D01*
X-19986666Y-5992857D01*
X-19986666Y-6088095D01*
X-20034285Y-6230952D01*
X-20605714Y-6802380D01*
X-19986666Y-6802380D01*
X-19081904Y-5802380D02*
X-19558095Y-5802380D01*
X-19605714Y-6278571D01*
X-19558095Y-6230952D01*
X-19462857Y-6183333D01*
X-19224761Y-6183333D01*
X-19129523Y-6230952D01*
X-19081904Y-6278571D01*
X-19034285Y-6373809D01*
X-19034285Y-6611904D01*
X-19081904Y-6707142D01*
X-19129523Y-6754761D01*
X-19224761Y-6802380D01*
X-19462857Y-6802380D01*
X-19558095Y-6754761D01*
X-19605714Y-6707142D01*
%TO.C,U24*%
X19081904Y-26122380D02*
X19081904Y-26931904D01*
X19129523Y-27027142D01*
X19177142Y-27074761D01*
X19272380Y-27122380D01*
X19462857Y-27122380D01*
X19558095Y-27074761D01*
X19605714Y-27027142D01*
X19653333Y-26931904D01*
X19653333Y-26122380D01*
X20081904Y-26217619D02*
X20129523Y-26170000D01*
X20224761Y-26122380D01*
X20462857Y-26122380D01*
X20558095Y-26170000D01*
X20605714Y-26217619D01*
X20653333Y-26312857D01*
X20653333Y-26408095D01*
X20605714Y-26550952D01*
X20034285Y-27122380D01*
X20653333Y-27122380D01*
X21510476Y-26455714D02*
X21510476Y-27122380D01*
X21272380Y-26074761D02*
X21034285Y-26789047D01*
X21653333Y-26789047D01*
%TO.C,U23*%
X24161904Y-26122380D02*
X24161904Y-26931904D01*
X24209523Y-27027142D01*
X24257142Y-27074761D01*
X24352380Y-27122380D01*
X24542857Y-27122380D01*
X24638095Y-27074761D01*
X24685714Y-27027142D01*
X24733333Y-26931904D01*
X24733333Y-26122380D01*
X25161904Y-26217619D02*
X25209523Y-26170000D01*
X25304761Y-26122380D01*
X25542857Y-26122380D01*
X25638095Y-26170000D01*
X25685714Y-26217619D01*
X25733333Y-26312857D01*
X25733333Y-26408095D01*
X25685714Y-26550952D01*
X25114285Y-27122380D01*
X25733333Y-27122380D01*
X26066666Y-26122380D02*
X26685714Y-26122380D01*
X26352380Y-26503333D01*
X26495238Y-26503333D01*
X26590476Y-26550952D01*
X26638095Y-26598571D01*
X26685714Y-26693809D01*
X26685714Y-26931904D01*
X26638095Y-27027142D01*
X26590476Y-27074761D01*
X26495238Y-27122380D01*
X26209523Y-27122380D01*
X26114285Y-27074761D01*
X26066666Y-27027142D01*
%TO.C,U22*%
X29241904Y-26122380D02*
X29241904Y-26931904D01*
X29289523Y-27027142D01*
X29337142Y-27074761D01*
X29432380Y-27122380D01*
X29622857Y-27122380D01*
X29718095Y-27074761D01*
X29765714Y-27027142D01*
X29813333Y-26931904D01*
X29813333Y-26122380D01*
X30241904Y-26217619D02*
X30289523Y-26170000D01*
X30384761Y-26122380D01*
X30622857Y-26122380D01*
X30718095Y-26170000D01*
X30765714Y-26217619D01*
X30813333Y-26312857D01*
X30813333Y-26408095D01*
X30765714Y-26550952D01*
X30194285Y-27122380D01*
X30813333Y-27122380D01*
X31194285Y-26217619D02*
X31241904Y-26170000D01*
X31337142Y-26122380D01*
X31575238Y-26122380D01*
X31670476Y-26170000D01*
X31718095Y-26217619D01*
X31765714Y-26312857D01*
X31765714Y-26408095D01*
X31718095Y-26550952D01*
X31146666Y-27122380D01*
X31765714Y-27122380D01*
%TO.C,U21*%
X24161904Y-19137380D02*
X24161904Y-19946904D01*
X24209523Y-20042142D01*
X24257142Y-20089761D01*
X24352380Y-20137380D01*
X24542857Y-20137380D01*
X24638095Y-20089761D01*
X24685714Y-20042142D01*
X24733333Y-19946904D01*
X24733333Y-19137380D01*
X25161904Y-19232619D02*
X25209523Y-19185000D01*
X25304761Y-19137380D01*
X25542857Y-19137380D01*
X25638095Y-19185000D01*
X25685714Y-19232619D01*
X25733333Y-19327857D01*
X25733333Y-19423095D01*
X25685714Y-19565952D01*
X25114285Y-20137380D01*
X25733333Y-20137380D01*
X26685714Y-20137380D02*
X26114285Y-20137380D01*
X26400000Y-20137380D02*
X26400000Y-19137380D01*
X26304761Y-19280238D01*
X26209523Y-19375476D01*
X26114285Y-19423095D01*
%TO.C,U20*%
X29241904Y-19137380D02*
X29241904Y-19946904D01*
X29289523Y-20042142D01*
X29337142Y-20089761D01*
X29432380Y-20137380D01*
X29622857Y-20137380D01*
X29718095Y-20089761D01*
X29765714Y-20042142D01*
X29813333Y-19946904D01*
X29813333Y-19137380D01*
X30241904Y-19232619D02*
X30289523Y-19185000D01*
X30384761Y-19137380D01*
X30622857Y-19137380D01*
X30718095Y-19185000D01*
X30765714Y-19232619D01*
X30813333Y-19327857D01*
X30813333Y-19423095D01*
X30765714Y-19565952D01*
X30194285Y-20137380D01*
X30813333Y-20137380D01*
X31432380Y-19137380D02*
X31527619Y-19137380D01*
X31622857Y-19185000D01*
X31670476Y-19232619D01*
X31718095Y-19327857D01*
X31765714Y-19518333D01*
X31765714Y-19756428D01*
X31718095Y-19946904D01*
X31670476Y-20042142D01*
X31622857Y-20089761D01*
X31527619Y-20137380D01*
X31432380Y-20137380D01*
X31337142Y-20089761D01*
X31289523Y-20042142D01*
X31241904Y-19946904D01*
X31194285Y-19756428D01*
X31194285Y-19518333D01*
X31241904Y-19327857D01*
X31289523Y-19232619D01*
X31337142Y-19185000D01*
X31432380Y-19137380D01*
%TO.C,U19*%
X29241904Y-12152380D02*
X29241904Y-12961904D01*
X29289523Y-13057142D01*
X29337142Y-13104761D01*
X29432380Y-13152380D01*
X29622857Y-13152380D01*
X29718095Y-13104761D01*
X29765714Y-13057142D01*
X29813333Y-12961904D01*
X29813333Y-12152380D01*
X30813333Y-13152380D02*
X30241904Y-13152380D01*
X30527619Y-13152380D02*
X30527619Y-12152380D01*
X30432380Y-12295238D01*
X30337142Y-12390476D01*
X30241904Y-12438095D01*
X31289523Y-13152380D02*
X31480000Y-13152380D01*
X31575238Y-13104761D01*
X31622857Y-13057142D01*
X31718095Y-12914285D01*
X31765714Y-12723809D01*
X31765714Y-12342857D01*
X31718095Y-12247619D01*
X31670476Y-12200000D01*
X31575238Y-12152380D01*
X31384761Y-12152380D01*
X31289523Y-12200000D01*
X31241904Y-12247619D01*
X31194285Y-12342857D01*
X31194285Y-12580952D01*
X31241904Y-12676190D01*
X31289523Y-12723809D01*
X31384761Y-12771428D01*
X31575238Y-12771428D01*
X31670476Y-12723809D01*
X31718095Y-12676190D01*
X31765714Y-12580952D01*
%TO.C,U18*%
X24161904Y-12152380D02*
X24161904Y-12961904D01*
X24209523Y-13057142D01*
X24257142Y-13104761D01*
X24352380Y-13152380D01*
X24542857Y-13152380D01*
X24638095Y-13104761D01*
X24685714Y-13057142D01*
X24733333Y-12961904D01*
X24733333Y-12152380D01*
X25733333Y-13152380D02*
X25161904Y-13152380D01*
X25447619Y-13152380D02*
X25447619Y-12152380D01*
X25352380Y-12295238D01*
X25257142Y-12390476D01*
X25161904Y-12438095D01*
X26304761Y-12580952D02*
X26209523Y-12533333D01*
X26161904Y-12485714D01*
X26114285Y-12390476D01*
X26114285Y-12342857D01*
X26161904Y-12247619D01*
X26209523Y-12200000D01*
X26304761Y-12152380D01*
X26495238Y-12152380D01*
X26590476Y-12200000D01*
X26638095Y-12247619D01*
X26685714Y-12342857D01*
X26685714Y-12390476D01*
X26638095Y-12485714D01*
X26590476Y-12533333D01*
X26495238Y-12580952D01*
X26304761Y-12580952D01*
X26209523Y-12628571D01*
X26161904Y-12676190D01*
X26114285Y-12771428D01*
X26114285Y-12961904D01*
X26161904Y-13057142D01*
X26209523Y-13104761D01*
X26304761Y-13152380D01*
X26495238Y-13152380D01*
X26590476Y-13104761D01*
X26638095Y-13057142D01*
X26685714Y-12961904D01*
X26685714Y-12771428D01*
X26638095Y-12676190D01*
X26590476Y-12628571D01*
X26495238Y-12580952D01*
%TO.C,U17*%
X19081904Y-12152380D02*
X19081904Y-12961904D01*
X19129523Y-13057142D01*
X19177142Y-13104761D01*
X19272380Y-13152380D01*
X19462857Y-13152380D01*
X19558095Y-13104761D01*
X19605714Y-13057142D01*
X19653333Y-12961904D01*
X19653333Y-12152380D01*
X20653333Y-13152380D02*
X20081904Y-13152380D01*
X20367619Y-13152380D02*
X20367619Y-12152380D01*
X20272380Y-12295238D01*
X20177142Y-12390476D01*
X20081904Y-12438095D01*
X20986666Y-12152380D02*
X21653333Y-12152380D01*
X21224761Y-13152380D01*
%TO.C,U16*%
X-16478095Y797619D02*
X-16478095Y-11904D01*
X-16430476Y-107142D01*
X-16382857Y-154761D01*
X-16287619Y-202380D01*
X-16097142Y-202380D01*
X-16001904Y-154761D01*
X-15954285Y-107142D01*
X-15906666Y-11904D01*
X-15906666Y797619D01*
X-14906666Y-202380D02*
X-15478095Y-202380D01*
X-15192380Y-202380D02*
X-15192380Y797619D01*
X-15287619Y654761D01*
X-15382857Y559523D01*
X-15478095Y511904D01*
X-14049523Y797619D02*
X-14240000Y797619D01*
X-14335238Y750000D01*
X-14382857Y702380D01*
X-14478095Y559523D01*
X-14525714Y369047D01*
X-14525714Y-11904D01*
X-14478095Y-107142D01*
X-14430476Y-154761D01*
X-14335238Y-202380D01*
X-14144761Y-202380D01*
X-14049523Y-154761D01*
X-14001904Y-107142D01*
X-13954285Y-11904D01*
X-13954285Y226190D01*
X-14001904Y321428D01*
X-14049523Y369047D01*
X-14144761Y416666D01*
X-14335238Y416666D01*
X-14430476Y369047D01*
X-14478095Y321428D01*
X-14525714Y226190D01*
%TO.C,U15*%
X-36798095Y-9679880D02*
X-36798095Y-10489404D01*
X-36750476Y-10584642D01*
X-36702857Y-10632261D01*
X-36607619Y-10679880D01*
X-36417142Y-10679880D01*
X-36321904Y-10632261D01*
X-36274285Y-10584642D01*
X-36226666Y-10489404D01*
X-36226666Y-9679880D01*
X-35226666Y-10679880D02*
X-35798095Y-10679880D01*
X-35512380Y-10679880D02*
X-35512380Y-9679880D01*
X-35607619Y-9822738D01*
X-35702857Y-9917976D01*
X-35798095Y-9965595D01*
X-34321904Y-9679880D02*
X-34798095Y-9679880D01*
X-34845714Y-10156071D01*
X-34798095Y-10108452D01*
X-34702857Y-10060833D01*
X-34464761Y-10060833D01*
X-34369523Y-10108452D01*
X-34321904Y-10156071D01*
X-34274285Y-10251309D01*
X-34274285Y-10489404D01*
X-34321904Y-10584642D01*
X-34369523Y-10632261D01*
X-34464761Y-10679880D01*
X-34702857Y-10679880D01*
X-34798095Y-10632261D01*
X-34845714Y-10584642D01*
%TO.C,U14*%
X-36798095Y-19839880D02*
X-36798095Y-20649404D01*
X-36750476Y-20744642D01*
X-36702857Y-20792261D01*
X-36607619Y-20839880D01*
X-36417142Y-20839880D01*
X-36321904Y-20792261D01*
X-36274285Y-20744642D01*
X-36226666Y-20649404D01*
X-36226666Y-19839880D01*
X-35226666Y-20839880D02*
X-35798095Y-20839880D01*
X-35512380Y-20839880D02*
X-35512380Y-19839880D01*
X-35607619Y-19982738D01*
X-35702857Y-20077976D01*
X-35798095Y-20125595D01*
X-34369523Y-20173214D02*
X-34369523Y-20839880D01*
X-34607619Y-19792261D02*
X-34845714Y-20506547D01*
X-34226666Y-20506547D01*
%TO.C,U13*%
X-26638095Y-9707380D02*
X-26638095Y-10516904D01*
X-26590476Y-10612142D01*
X-26542857Y-10659761D01*
X-26447619Y-10707380D01*
X-26257142Y-10707380D01*
X-26161904Y-10659761D01*
X-26114285Y-10612142D01*
X-26066666Y-10516904D01*
X-26066666Y-9707380D01*
X-25066666Y-10707380D02*
X-25638095Y-10707380D01*
X-25352380Y-10707380D02*
X-25352380Y-9707380D01*
X-25447619Y-9850238D01*
X-25542857Y-9945476D01*
X-25638095Y-9993095D01*
X-24733333Y-9707380D02*
X-24114285Y-9707380D01*
X-24447619Y-10088333D01*
X-24304761Y-10088333D01*
X-24209523Y-10135952D01*
X-24161904Y-10183571D01*
X-24114285Y-10278809D01*
X-24114285Y-10516904D01*
X-24161904Y-10612142D01*
X-24209523Y-10659761D01*
X-24304761Y-10707380D01*
X-24590476Y-10707380D01*
X-24685714Y-10659761D01*
X-24733333Y-10612142D01*
%TO.C,U12*%
X-16478095Y-9707380D02*
X-16478095Y-10516904D01*
X-16430476Y-10612142D01*
X-16382857Y-10659761D01*
X-16287619Y-10707380D01*
X-16097142Y-10707380D01*
X-16001904Y-10659761D01*
X-15954285Y-10612142D01*
X-15906666Y-10516904D01*
X-15906666Y-9707380D01*
X-14906666Y-10707380D02*
X-15478095Y-10707380D01*
X-15192380Y-10707380D02*
X-15192380Y-9707380D01*
X-15287619Y-9850238D01*
X-15382857Y-9945476D01*
X-15478095Y-9993095D01*
X-14525714Y-9802619D02*
X-14478095Y-9755000D01*
X-14382857Y-9707380D01*
X-14144761Y-9707380D01*
X-14049523Y-9755000D01*
X-14001904Y-9802619D01*
X-13954285Y-9897857D01*
X-13954285Y-9993095D01*
X-14001904Y-10135952D01*
X-14573333Y-10707380D01*
X-13954285Y-10707380D01*
%TO.C,U11*%
X-26638095Y-19867380D02*
X-26638095Y-20676904D01*
X-26590476Y-20772142D01*
X-26542857Y-20819761D01*
X-26447619Y-20867380D01*
X-26257142Y-20867380D01*
X-26161904Y-20819761D01*
X-26114285Y-20772142D01*
X-26066666Y-20676904D01*
X-26066666Y-19867380D01*
X-25066666Y-20867380D02*
X-25638095Y-20867380D01*
X-25352380Y-20867380D02*
X-25352380Y-19867380D01*
X-25447619Y-20010238D01*
X-25542857Y-20105476D01*
X-25638095Y-20153095D01*
X-24114285Y-20867380D02*
X-24685714Y-20867380D01*
X-24400000Y-20867380D02*
X-24400000Y-19867380D01*
X-24495238Y-20010238D01*
X-24590476Y-20105476D01*
X-24685714Y-20153095D01*
%TO.C,U10*%
X-16478095Y-19867380D02*
X-16478095Y-20676904D01*
X-16430476Y-20772142D01*
X-16382857Y-20819761D01*
X-16287619Y-20867380D01*
X-16097142Y-20867380D01*
X-16001904Y-20819761D01*
X-15954285Y-20772142D01*
X-15906666Y-20676904D01*
X-15906666Y-19867380D01*
X-14906666Y-20867380D02*
X-15478095Y-20867380D01*
X-15192380Y-20867380D02*
X-15192380Y-19867380D01*
X-15287619Y-20010238D01*
X-15382857Y-20105476D01*
X-15478095Y-20153095D01*
X-14287619Y-19867380D02*
X-14192380Y-19867380D01*
X-14097142Y-19915000D01*
X-14049523Y-19962619D01*
X-14001904Y-20057857D01*
X-13954285Y-20248333D01*
X-13954285Y-20486428D01*
X-14001904Y-20676904D01*
X-14049523Y-20772142D01*
X-14097142Y-20819761D01*
X-14192380Y-20867380D01*
X-14287619Y-20867380D01*
X-14382857Y-20819761D01*
X-14430476Y-20772142D01*
X-14478095Y-20676904D01*
X-14525714Y-20486428D01*
X-14525714Y-20248333D01*
X-14478095Y-20057857D01*
X-14430476Y-19962619D01*
X-14382857Y-19915000D01*
X-14287619Y-19867380D01*
%TO.C,U9*%
X-61721904Y-45807380D02*
X-61721904Y-46616904D01*
X-61674285Y-46712142D01*
X-61626666Y-46759761D01*
X-61531428Y-46807380D01*
X-61340952Y-46807380D01*
X-61245714Y-46759761D01*
X-61198095Y-46712142D01*
X-61150476Y-46616904D01*
X-61150476Y-45807380D01*
X-60626666Y-46807380D02*
X-60436190Y-46807380D01*
X-60340952Y-46759761D01*
X-60293333Y-46712142D01*
X-60198095Y-46569285D01*
X-60150476Y-46378809D01*
X-60150476Y-45997857D01*
X-60198095Y-45902619D01*
X-60245714Y-45855000D01*
X-60340952Y-45807380D01*
X-60531428Y-45807380D01*
X-60626666Y-45855000D01*
X-60674285Y-45902619D01*
X-60721904Y-45997857D01*
X-60721904Y-46235952D01*
X-60674285Y-46331190D01*
X-60626666Y-46378809D01*
X-60531428Y-46426428D01*
X-60340952Y-46426428D01*
X-60245714Y-46378809D01*
X-60198095Y-46331190D01*
X-60150476Y-46235952D01*
%TO.C,U8*%
X-56641904Y-45807380D02*
X-56641904Y-46616904D01*
X-56594285Y-46712142D01*
X-56546666Y-46759761D01*
X-56451428Y-46807380D01*
X-56260952Y-46807380D01*
X-56165714Y-46759761D01*
X-56118095Y-46712142D01*
X-56070476Y-46616904D01*
X-56070476Y-45807380D01*
X-55451428Y-46235952D02*
X-55546666Y-46188333D01*
X-55594285Y-46140714D01*
X-55641904Y-46045476D01*
X-55641904Y-45997857D01*
X-55594285Y-45902619D01*
X-55546666Y-45855000D01*
X-55451428Y-45807380D01*
X-55260952Y-45807380D01*
X-55165714Y-45855000D01*
X-55118095Y-45902619D01*
X-55070476Y-45997857D01*
X-55070476Y-46045476D01*
X-55118095Y-46140714D01*
X-55165714Y-46188333D01*
X-55260952Y-46235952D01*
X-55451428Y-46235952D01*
X-55546666Y-46283571D01*
X-55594285Y-46331190D01*
X-55641904Y-46426428D01*
X-55641904Y-46616904D01*
X-55594285Y-46712142D01*
X-55546666Y-46759761D01*
X-55451428Y-46807380D01*
X-55260952Y-46807380D01*
X-55165714Y-46759761D01*
X-55118095Y-46712142D01*
X-55070476Y-46616904D01*
X-55070476Y-46426428D01*
X-55118095Y-46331190D01*
X-55165714Y-46283571D01*
X-55260952Y-46235952D01*
%TO.C,U7*%
X-71881904Y-45807380D02*
X-71881904Y-46616904D01*
X-71834285Y-46712142D01*
X-71786666Y-46759761D01*
X-71691428Y-46807380D01*
X-71500952Y-46807380D01*
X-71405714Y-46759761D01*
X-71358095Y-46712142D01*
X-71310476Y-46616904D01*
X-71310476Y-45807380D01*
X-70929523Y-45807380D02*
X-70262857Y-45807380D01*
X-70691428Y-46807380D01*
%TO.C,U6*%
X-66801904Y-45807380D02*
X-66801904Y-46616904D01*
X-66754285Y-46712142D01*
X-66706666Y-46759761D01*
X-66611428Y-46807380D01*
X-66420952Y-46807380D01*
X-66325714Y-46759761D01*
X-66278095Y-46712142D01*
X-66230476Y-46616904D01*
X-66230476Y-45807380D01*
X-65325714Y-45807380D02*
X-65516190Y-45807380D01*
X-65611428Y-45855000D01*
X-65659047Y-45902619D01*
X-65754285Y-46045476D01*
X-65801904Y-46235952D01*
X-65801904Y-46616904D01*
X-65754285Y-46712142D01*
X-65706666Y-46759761D01*
X-65611428Y-46807380D01*
X-65420952Y-46807380D01*
X-65325714Y-46759761D01*
X-65278095Y-46712142D01*
X-65230476Y-46616904D01*
X-65230476Y-46378809D01*
X-65278095Y-46283571D01*
X-65325714Y-46235952D01*
X-65420952Y-46188333D01*
X-65611428Y-46188333D01*
X-65706666Y-46235952D01*
X-65754285Y-46283571D01*
X-65801904Y-46378809D01*
%TO.C,U5*%
X-47116904Y-49712380D02*
X-47116904Y-50521904D01*
X-47069285Y-50617142D01*
X-47021666Y-50664761D01*
X-46926428Y-50712380D01*
X-46735952Y-50712380D01*
X-46640714Y-50664761D01*
X-46593095Y-50617142D01*
X-46545476Y-50521904D01*
X-46545476Y-49712380D01*
X-45593095Y-49712380D02*
X-46069285Y-49712380D01*
X-46116904Y-50188571D01*
X-46069285Y-50140952D01*
X-45974047Y-50093333D01*
X-45735952Y-50093333D01*
X-45640714Y-50140952D01*
X-45593095Y-50188571D01*
X-45545476Y-50283809D01*
X-45545476Y-50521904D01*
X-45593095Y-50617142D01*
X-45640714Y-50664761D01*
X-45735952Y-50712380D01*
X-45974047Y-50712380D01*
X-46069285Y-50664761D01*
X-46116904Y-50617142D01*
%TO.C,U4*%
X-77596904Y-49617380D02*
X-77596904Y-50426904D01*
X-77549285Y-50522142D01*
X-77501666Y-50569761D01*
X-77406428Y-50617380D01*
X-77215952Y-50617380D01*
X-77120714Y-50569761D01*
X-77073095Y-50522142D01*
X-77025476Y-50426904D01*
X-77025476Y-49617380D01*
X-76120714Y-49950714D02*
X-76120714Y-50617380D01*
X-76358809Y-49569761D02*
X-76596904Y-50284047D01*
X-75977857Y-50284047D01*
%TO.C,U3*%
X-76961904Y-45807380D02*
X-76961904Y-46616904D01*
X-76914285Y-46712142D01*
X-76866666Y-46759761D01*
X-76771428Y-46807380D01*
X-76580952Y-46807380D01*
X-76485714Y-46759761D01*
X-76438095Y-46712142D01*
X-76390476Y-46616904D01*
X-76390476Y-45807380D01*
X-76009523Y-45807380D02*
X-75390476Y-45807380D01*
X-75723809Y-46188333D01*
X-75580952Y-46188333D01*
X-75485714Y-46235952D01*
X-75438095Y-46283571D01*
X-75390476Y-46378809D01*
X-75390476Y-46616904D01*
X-75438095Y-46712142D01*
X-75485714Y-46759761D01*
X-75580952Y-46807380D01*
X-75866666Y-46807380D01*
X-75961904Y-46759761D01*
X-76009523Y-46712142D01*
%TO.C,U2*%
X-57276904Y-49712380D02*
X-57276904Y-50521904D01*
X-57229285Y-50617142D01*
X-57181666Y-50664761D01*
X-57086428Y-50712380D01*
X-56895952Y-50712380D01*
X-56800714Y-50664761D01*
X-56753095Y-50617142D01*
X-56705476Y-50521904D01*
X-56705476Y-49712380D01*
X-56276904Y-49807619D02*
X-56229285Y-49760000D01*
X-56134047Y-49712380D01*
X-55895952Y-49712380D01*
X-55800714Y-49760000D01*
X-55753095Y-49807619D01*
X-55705476Y-49902857D01*
X-55705476Y-49998095D01*
X-55753095Y-50140952D01*
X-56324523Y-50712380D01*
X-55705476Y-50712380D01*
%TO.C,U1*%
X-67436904Y-49712380D02*
X-67436904Y-50521904D01*
X-67389285Y-50617142D01*
X-67341666Y-50664761D01*
X-67246428Y-50712380D01*
X-67055952Y-50712380D01*
X-66960714Y-50664761D01*
X-66913095Y-50617142D01*
X-66865476Y-50521904D01*
X-66865476Y-49712380D01*
X-65865476Y-50712380D02*
X-66436904Y-50712380D01*
X-66151190Y-50712380D02*
X-66151190Y-49712380D01*
X-66246428Y-49855238D01*
X-66341666Y-49950476D01*
X-66436904Y-49998095D01*
%TO.C,J4*%
X41259166Y-37552380D02*
X41259166Y-38266666D01*
X41211547Y-38409523D01*
X41116309Y-38504761D01*
X40973452Y-38552380D01*
X40878214Y-38552380D01*
X42163928Y-37885714D02*
X42163928Y-38552380D01*
X41925833Y-37504761D02*
X41687738Y-38219047D01*
X42306785Y-38219047D01*
%TO.C,J3*%
X41259166Y-26757380D02*
X41259166Y-27471666D01*
X41211547Y-27614523D01*
X41116309Y-27709761D01*
X40973452Y-27757380D01*
X40878214Y-27757380D01*
X41640119Y-26757380D02*
X42259166Y-26757380D01*
X41925833Y-27138333D01*
X42068690Y-27138333D01*
X42163928Y-27185952D01*
X42211547Y-27233571D01*
X42259166Y-27328809D01*
X42259166Y-27566904D01*
X42211547Y-27662142D01*
X42163928Y-27709761D01*
X42068690Y-27757380D01*
X41782976Y-27757380D01*
X41687738Y-27709761D01*
X41640119Y-27662142D01*
%TO.C,J2*%
X-38647619Y-67008333D02*
X-37933333Y-67008333D01*
X-37790476Y-67055952D01*
X-37695238Y-67151190D01*
X-37647619Y-67294047D01*
X-37647619Y-67389285D01*
X-38552380Y-66579761D02*
X-38600000Y-66532142D01*
X-38647619Y-66436904D01*
X-38647619Y-66198809D01*
X-38600000Y-66103571D01*
X-38552380Y-66055952D01*
X-38457142Y-66008333D01*
X-38361904Y-66008333D01*
X-38219047Y-66055952D01*
X-37647619Y-66627380D01*
X-37647619Y-66008333D01*
%TO.C,J1*%
X-38330119Y1254166D02*
X-37615833Y1254166D01*
X-37472976Y1206547D01*
X-37377738Y1111309D01*
X-37330119Y968452D01*
X-37330119Y873214D01*
X-37330119Y2254166D02*
X-37330119Y1682738D01*
X-37330119Y1968452D02*
X-38330119Y1968452D01*
X-38187261Y1873214D01*
X-38092023Y1777976D01*
X-38044404Y1682738D01*
%TD*%
M02*
