%TF.GenerationSoftware,KiCad,Pcbnew,(5.1.9)-1*%
%TF.CreationDate,2021-05-31T10:48:54+02:00*%
%TF.ProjectId,Programmer,50726f67-7261-46d6-9d65-722e6b696361,v1.0*%
%TF.SameCoordinates,Original*%
%TF.FileFunction,Soldermask,Bot*%
%TF.FilePolarity,Negative*%
%FSLAX46Y46*%
G04 Gerber Fmt 4.6, Leading zero omitted, Abs format (unit mm)*
G04 Created by KiCad (PCBNEW (5.1.9)-1) date 2021-05-31 10:48:54*
%MOMM*%
%LPD*%
G01*
G04 APERTURE LIST*
%ADD10C,0.850000*%
%ADD11R,0.850000X0.850000*%
%ADD12C,1.600000*%
%ADD13R,1.600000X1.600000*%
%ADD14C,1.700000*%
%ADD15C,0.900000*%
G04 APERTURE END LIST*
D10*
%TO.C,J2*%
X156845000Y-97155000D03*
X155575000Y-97155000D03*
X156845000Y-95885000D03*
X155575000Y-95885000D03*
X156845000Y-94615000D03*
X155575000Y-94615000D03*
X156845000Y-93345000D03*
X155575000Y-93345000D03*
X156845000Y-92075000D03*
D11*
X155575000Y-92075000D03*
%TD*%
D12*
%TO.C,SW1*%
X158710000Y-87630000D03*
X156210000Y-87630000D03*
X153710000Y-87630000D03*
X158710000Y-84430000D03*
X156210000Y-84430000D03*
D13*
X153710000Y-84430000D03*
%TD*%
D14*
%TO.C,J3*%
X135890000Y-124460000D03*
X138430000Y-124460000D03*
X140970000Y-124460000D03*
X143510000Y-124460000D03*
X146050000Y-124460000D03*
X148590000Y-124460000D03*
X151130000Y-124460000D03*
X153670000Y-124460000D03*
X156210000Y-124460000D03*
X158750000Y-124460000D03*
X135890000Y-121920000D03*
X138430000Y-121920000D03*
X140970000Y-121920000D03*
X143510000Y-121920000D03*
X146050000Y-121920000D03*
X148590000Y-121920000D03*
X151130000Y-121920000D03*
X153670000Y-121920000D03*
X156210000Y-121920000D03*
G36*
G01*
X158150000Y-121070000D02*
X159350000Y-121070000D01*
G75*
G02*
X159600000Y-121320000I0J-250000D01*
G01*
X159600000Y-122520000D01*
G75*
G02*
X159350000Y-122770000I-250000J0D01*
G01*
X158150000Y-122770000D01*
G75*
G02*
X157900000Y-122520000I0J250000D01*
G01*
X157900000Y-121320000D01*
G75*
G02*
X158150000Y-121070000I250000J0D01*
G01*
G37*
%TD*%
D15*
%TO.C,J1*%
X138725000Y-73025000D03*
X134325000Y-73025000D03*
%TD*%
M02*
