%TF.GenerationSoftware,KiCad,Pcbnew,(5.1.9)-1*%
%TF.CreationDate,2021-03-30T23:32:36+02:00*%
%TF.ProjectId,Programmer,50726f67-7261-46d6-9d65-722e6b696361,v0.1*%
%TF.SameCoordinates,Original*%
%TF.FileFunction,Copper,L1,Top*%
%TF.FilePolarity,Positive*%
%FSLAX46Y46*%
G04 Gerber Fmt 4.6, Leading zero omitted, Abs format (unit mm)*
G04 Created by KiCad (PCBNEW (5.1.9)-1) date 2021-03-30 23:32:36*
%MOMM*%
%LPD*%
G01*
G04 APERTURE LIST*
%TA.AperFunction,ComponentPad*%
%ADD10C,0.850000*%
%TD*%
%TA.AperFunction,ComponentPad*%
%ADD11R,0.850000X0.850000*%
%TD*%
%TA.AperFunction,SMDPad,CuDef*%
%ADD12R,2.300000X0.740000*%
%TD*%
%TA.AperFunction,SMDPad,CuDef*%
%ADD13R,2.000000X1.200000*%
%TD*%
%TA.AperFunction,ComponentPad*%
%ADD14C,1.600000*%
%TD*%
%TA.AperFunction,ComponentPad*%
%ADD15R,1.600000X1.600000*%
%TD*%
%TA.AperFunction,SMDPad,CuDef*%
%ADD16R,1.350000X3.400000*%
%TD*%
%TA.AperFunction,SMDPad,CuDef*%
%ADD17C,0.100000*%
%TD*%
%TA.AperFunction,ComponentPad*%
%ADD18C,1.700000*%
%TD*%
%TA.AperFunction,SMDPad,CuDef*%
%ADD19R,1.750000X0.450000*%
%TD*%
%TA.AperFunction,SMDPad,CuDef*%
%ADD20R,2.000000X2.500000*%
%TD*%
%TA.AperFunction,SMDPad,CuDef*%
%ADD21R,0.500000X2.500000*%
%TD*%
%TA.AperFunction,ViaPad*%
%ADD22C,0.800000*%
%TD*%
%TA.AperFunction,Conductor*%
%ADD23C,0.250000*%
%TD*%
%TA.AperFunction,Conductor*%
%ADD24C,0.800000*%
%TD*%
%TA.AperFunction,Conductor*%
%ADD25C,0.200000*%
%TD*%
G04 APERTURE END LIST*
%TO.P,C18,2*%
%TO.N,Net-(C17-Pad2)*%
%TA.AperFunction,SMDPad,CuDef*%
G36*
G01*
X158765001Y-74030000D02*
X157464999Y-74030000D01*
G75*
G02*
X157215000Y-73780001I0J249999D01*
G01*
X157215000Y-73129999D01*
G75*
G02*
X157464999Y-72880000I249999J0D01*
G01*
X158765001Y-72880000D01*
G75*
G02*
X159015000Y-73129999I0J-249999D01*
G01*
X159015000Y-73780001D01*
G75*
G02*
X158765001Y-74030000I-249999J0D01*
G01*
G37*
%TD.AperFunction*%
%TO.P,C18,1*%
%TO.N,GND*%
%TA.AperFunction,SMDPad,CuDef*%
G36*
G01*
X158765001Y-76980000D02*
X157464999Y-76980000D01*
G75*
G02*
X157215000Y-76730001I0J249999D01*
G01*
X157215000Y-76079999D01*
G75*
G02*
X157464999Y-75830000I249999J0D01*
G01*
X158765001Y-75830000D01*
G75*
G02*
X159015000Y-76079999I0J-249999D01*
G01*
X159015000Y-76730001D01*
G75*
G02*
X158765001Y-76980000I-249999J0D01*
G01*
G37*
%TD.AperFunction*%
%TD*%
%TO.P,C17,2*%
%TO.N,Net-(C17-Pad2)*%
%TA.AperFunction,SMDPad,CuDef*%
G36*
G01*
X155590001Y-74030000D02*
X154289999Y-74030000D01*
G75*
G02*
X154040000Y-73780001I0J249999D01*
G01*
X154040000Y-73129999D01*
G75*
G02*
X154289999Y-72880000I249999J0D01*
G01*
X155590001Y-72880000D01*
G75*
G02*
X155840000Y-73129999I0J-249999D01*
G01*
X155840000Y-73780001D01*
G75*
G02*
X155590001Y-74030000I-249999J0D01*
G01*
G37*
%TD.AperFunction*%
%TO.P,C17,1*%
%TO.N,GND*%
%TA.AperFunction,SMDPad,CuDef*%
G36*
G01*
X155590001Y-76980000D02*
X154289999Y-76980000D01*
G75*
G02*
X154040000Y-76730001I0J249999D01*
G01*
X154040000Y-76079999D01*
G75*
G02*
X154289999Y-75830000I249999J0D01*
G01*
X155590001Y-75830000D01*
G75*
G02*
X155840000Y-76079999I0J-249999D01*
G01*
X155840000Y-76730001D01*
G75*
G02*
X155590001Y-76980000I-249999J0D01*
G01*
G37*
%TD.AperFunction*%
%TD*%
%TO.P,C15,2*%
%TO.N,/V_USB*%
%TA.AperFunction,SMDPad,CuDef*%
G36*
G01*
X147970001Y-74030000D02*
X146669999Y-74030000D01*
G75*
G02*
X146420000Y-73780001I0J249999D01*
G01*
X146420000Y-73129999D01*
G75*
G02*
X146669999Y-72880000I249999J0D01*
G01*
X147970001Y-72880000D01*
G75*
G02*
X148220000Y-73129999I0J-249999D01*
G01*
X148220000Y-73780001D01*
G75*
G02*
X147970001Y-74030000I-249999J0D01*
G01*
G37*
%TD.AperFunction*%
%TO.P,C15,1*%
%TO.N,GND*%
%TA.AperFunction,SMDPad,CuDef*%
G36*
G01*
X147970001Y-76980000D02*
X146669999Y-76980000D01*
G75*
G02*
X146420000Y-76730001I0J249999D01*
G01*
X146420000Y-76079999D01*
G75*
G02*
X146669999Y-75830000I249999J0D01*
G01*
X147970001Y-75830000D01*
G75*
G02*
X148220000Y-76079999I0J-249999D01*
G01*
X148220000Y-76730001D01*
G75*
G02*
X147970001Y-76980000I-249999J0D01*
G01*
G37*
%TD.AperFunction*%
%TD*%
%TO.P,R1,2*%
%TO.N,/nRST*%
%TA.AperFunction,SMDPad,CuDef*%
G36*
G01*
X153245000Y-99420000D02*
X153245000Y-99970000D01*
G75*
G02*
X153045000Y-100170000I-200000J0D01*
G01*
X152645000Y-100170000D01*
G75*
G02*
X152445000Y-99970000I0J200000D01*
G01*
X152445000Y-99420000D01*
G75*
G02*
X152645000Y-99220000I200000J0D01*
G01*
X153045000Y-99220000D01*
G75*
G02*
X153245000Y-99420000I0J-200000D01*
G01*
G37*
%TD.AperFunction*%
%TO.P,R1,1*%
%TO.N,+3V3*%
%TA.AperFunction,SMDPad,CuDef*%
G36*
G01*
X154895000Y-99420000D02*
X154895000Y-99970000D01*
G75*
G02*
X154695000Y-100170000I-200000J0D01*
G01*
X154295000Y-100170000D01*
G75*
G02*
X154095000Y-99970000I0J200000D01*
G01*
X154095000Y-99420000D01*
G75*
G02*
X154295000Y-99220000I200000J0D01*
G01*
X154695000Y-99220000D01*
G75*
G02*
X154895000Y-99420000I0J-200000D01*
G01*
G37*
%TD.AperFunction*%
%TD*%
%TO.P,C10,2*%
%TO.N,GND*%
%TA.AperFunction,SMDPad,CuDef*%
G36*
G01*
X150185000Y-99945000D02*
X150185000Y-99445000D01*
G75*
G02*
X150410000Y-99220000I225000J0D01*
G01*
X150860000Y-99220000D01*
G75*
G02*
X151085000Y-99445000I0J-225000D01*
G01*
X151085000Y-99945000D01*
G75*
G02*
X150860000Y-100170000I-225000J0D01*
G01*
X150410000Y-100170000D01*
G75*
G02*
X150185000Y-99945000I0J225000D01*
G01*
G37*
%TD.AperFunction*%
%TO.P,C10,1*%
%TO.N,/nRST*%
%TA.AperFunction,SMDPad,CuDef*%
G36*
G01*
X148635000Y-99945000D02*
X148635000Y-99445000D01*
G75*
G02*
X148860000Y-99220000I225000J0D01*
G01*
X149310000Y-99220000D01*
G75*
G02*
X149535000Y-99445000I0J-225000D01*
G01*
X149535000Y-99945000D01*
G75*
G02*
X149310000Y-100170000I-225000J0D01*
G01*
X148860000Y-100170000D01*
G75*
G02*
X148635000Y-99945000I0J225000D01*
G01*
G37*
%TD.AperFunction*%
%TD*%
%TO.P,U2,32*%
%TO.N,GND*%
%TA.AperFunction,SMDPad,CuDef*%
G36*
G01*
X142750000Y-103880000D02*
X142750000Y-105130000D01*
G75*
G02*
X142625000Y-105255000I-125000J0D01*
G01*
X142375000Y-105255000D01*
G75*
G02*
X142250000Y-105130000I0J125000D01*
G01*
X142250000Y-103880000D01*
G75*
G02*
X142375000Y-103755000I125000J0D01*
G01*
X142625000Y-103755000D01*
G75*
G02*
X142750000Y-103880000I0J-125000D01*
G01*
G37*
%TD.AperFunction*%
%TO.P,U2,31*%
%TO.N,Net-(R4-Pad1)*%
%TA.AperFunction,SMDPad,CuDef*%
G36*
G01*
X141950000Y-103880000D02*
X141950000Y-105130000D01*
G75*
G02*
X141825000Y-105255000I-125000J0D01*
G01*
X141575000Y-105255000D01*
G75*
G02*
X141450000Y-105130000I0J125000D01*
G01*
X141450000Y-103880000D01*
G75*
G02*
X141575000Y-103755000I125000J0D01*
G01*
X141825000Y-103755000D01*
G75*
G02*
X141950000Y-103880000I0J-125000D01*
G01*
G37*
%TD.AperFunction*%
%TO.P,U2,30*%
%TO.N,/LV_MEM_~PGM*%
%TA.AperFunction,SMDPad,CuDef*%
G36*
G01*
X141150000Y-103880000D02*
X141150000Y-105130000D01*
G75*
G02*
X141025000Y-105255000I-125000J0D01*
G01*
X140775000Y-105255000D01*
G75*
G02*
X140650000Y-105130000I0J125000D01*
G01*
X140650000Y-103880000D01*
G75*
G02*
X140775000Y-103755000I125000J0D01*
G01*
X141025000Y-103755000D01*
G75*
G02*
X141150000Y-103880000I0J-125000D01*
G01*
G37*
%TD.AperFunction*%
%TO.P,U2,29*%
%TO.N,/LV_BKPT_RCLK*%
%TA.AperFunction,SMDPad,CuDef*%
G36*
G01*
X140350000Y-103880000D02*
X140350000Y-105130000D01*
G75*
G02*
X140225000Y-105255000I-125000J0D01*
G01*
X139975000Y-105255000D01*
G75*
G02*
X139850000Y-105130000I0J125000D01*
G01*
X139850000Y-103880000D01*
G75*
G02*
X139975000Y-103755000I125000J0D01*
G01*
X140225000Y-103755000D01*
G75*
G02*
X140350000Y-103880000I0J-125000D01*
G01*
G37*
%TD.AperFunction*%
%TO.P,U2,28*%
%TO.N,/LV_R_RCLK*%
%TA.AperFunction,SMDPad,CuDef*%
G36*
G01*
X139550000Y-103880000D02*
X139550000Y-105130000D01*
G75*
G02*
X139425000Y-105255000I-125000J0D01*
G01*
X139175000Y-105255000D01*
G75*
G02*
X139050000Y-105130000I0J125000D01*
G01*
X139050000Y-103880000D01*
G75*
G02*
X139175000Y-103755000I125000J0D01*
G01*
X139425000Y-103755000D01*
G75*
G02*
X139550000Y-103880000I0J-125000D01*
G01*
G37*
%TD.AperFunction*%
%TO.P,U2,27*%
%TO.N,/LV_R_SER*%
%TA.AperFunction,SMDPad,CuDef*%
G36*
G01*
X138750000Y-103880000D02*
X138750000Y-105130000D01*
G75*
G02*
X138625000Y-105255000I-125000J0D01*
G01*
X138375000Y-105255000D01*
G75*
G02*
X138250000Y-105130000I0J125000D01*
G01*
X138250000Y-103880000D01*
G75*
G02*
X138375000Y-103755000I125000J0D01*
G01*
X138625000Y-103755000D01*
G75*
G02*
X138750000Y-103880000I0J-125000D01*
G01*
G37*
%TD.AperFunction*%
%TO.P,U2,26*%
%TO.N,/LV_R_SCLK*%
%TA.AperFunction,SMDPad,CuDef*%
G36*
G01*
X137950000Y-103880000D02*
X137950000Y-105130000D01*
G75*
G02*
X137825000Y-105255000I-125000J0D01*
G01*
X137575000Y-105255000D01*
G75*
G02*
X137450000Y-105130000I0J125000D01*
G01*
X137450000Y-103880000D01*
G75*
G02*
X137575000Y-103755000I125000J0D01*
G01*
X137825000Y-103755000D01*
G75*
G02*
X137950000Y-103880000I0J-125000D01*
G01*
G37*
%TD.AperFunction*%
%TO.P,U2,25*%
%TO.N,/LV_MEM_~CE*%
%TA.AperFunction,SMDPad,CuDef*%
G36*
G01*
X137150000Y-103880000D02*
X137150000Y-105130000D01*
G75*
G02*
X137025000Y-105255000I-125000J0D01*
G01*
X136775000Y-105255000D01*
G75*
G02*
X136650000Y-105130000I0J125000D01*
G01*
X136650000Y-103880000D01*
G75*
G02*
X136775000Y-103755000I125000J0D01*
G01*
X137025000Y-103755000D01*
G75*
G02*
X137150000Y-103880000I0J-125000D01*
G01*
G37*
%TD.AperFunction*%
%TO.P,U2,24*%
%TO.N,/CLK*%
%TA.AperFunction,SMDPad,CuDef*%
G36*
G01*
X136275000Y-103005000D02*
X136275000Y-103255000D01*
G75*
G02*
X136150000Y-103380000I-125000J0D01*
G01*
X134900000Y-103380000D01*
G75*
G02*
X134775000Y-103255000I0J125000D01*
G01*
X134775000Y-103005000D01*
G75*
G02*
X134900000Y-102880000I125000J0D01*
G01*
X136150000Y-102880000D01*
G75*
G02*
X136275000Y-103005000I0J-125000D01*
G01*
G37*
%TD.AperFunction*%
%TO.P,U2,23*%
%TO.N,/DIO*%
%TA.AperFunction,SMDPad,CuDef*%
G36*
G01*
X136275000Y-102205000D02*
X136275000Y-102455000D01*
G75*
G02*
X136150000Y-102580000I-125000J0D01*
G01*
X134900000Y-102580000D01*
G75*
G02*
X134775000Y-102455000I0J125000D01*
G01*
X134775000Y-102205000D01*
G75*
G02*
X134900000Y-102080000I125000J0D01*
G01*
X136150000Y-102080000D01*
G75*
G02*
X136275000Y-102205000I0J-125000D01*
G01*
G37*
%TD.AperFunction*%
%TO.P,U2,22*%
%TO.N,/LV_DTCT_Vtarget*%
%TA.AperFunction,SMDPad,CuDef*%
G36*
G01*
X136275000Y-101405000D02*
X136275000Y-101655000D01*
G75*
G02*
X136150000Y-101780000I-125000J0D01*
G01*
X134900000Y-101780000D01*
G75*
G02*
X134775000Y-101655000I0J125000D01*
G01*
X134775000Y-101405000D01*
G75*
G02*
X134900000Y-101280000I125000J0D01*
G01*
X136150000Y-101280000D01*
G75*
G02*
X136275000Y-101405000I0J-125000D01*
G01*
G37*
%TD.AperFunction*%
%TO.P,U2,21*%
%TO.N,/~5V_OE*%
%TA.AperFunction,SMDPad,CuDef*%
G36*
G01*
X136275000Y-100605000D02*
X136275000Y-100855000D01*
G75*
G02*
X136150000Y-100980000I-125000J0D01*
G01*
X134900000Y-100980000D01*
G75*
G02*
X134775000Y-100855000I0J125000D01*
G01*
X134775000Y-100605000D01*
G75*
G02*
X134900000Y-100480000I125000J0D01*
G01*
X136150000Y-100480000D01*
G75*
G02*
X136275000Y-100605000I0J-125000D01*
G01*
G37*
%TD.AperFunction*%
%TO.P,U2,20*%
%TO.N,/LV_DO_RESET*%
%TA.AperFunction,SMDPad,CuDef*%
G36*
G01*
X136275000Y-99805000D02*
X136275000Y-100055000D01*
G75*
G02*
X136150000Y-100180000I-125000J0D01*
G01*
X134900000Y-100180000D01*
G75*
G02*
X134775000Y-100055000I0J125000D01*
G01*
X134775000Y-99805000D01*
G75*
G02*
X134900000Y-99680000I125000J0D01*
G01*
X136150000Y-99680000D01*
G75*
G02*
X136275000Y-99805000I0J-125000D01*
G01*
G37*
%TD.AperFunction*%
%TO.P,U2,19*%
%TO.N,/LV_DATA_ROM\u005C~PROG~*%
%TA.AperFunction,SMDPad,CuDef*%
G36*
G01*
X136275000Y-99005000D02*
X136275000Y-99255000D01*
G75*
G02*
X136150000Y-99380000I-125000J0D01*
G01*
X134900000Y-99380000D01*
G75*
G02*
X134775000Y-99255000I0J125000D01*
G01*
X134775000Y-99005000D01*
G75*
G02*
X134900000Y-98880000I125000J0D01*
G01*
X136150000Y-98880000D01*
G75*
G02*
X136275000Y-99005000I0J-125000D01*
G01*
G37*
%TD.AperFunction*%
%TO.P,U2,18*%
%TO.N,/LV_ADR_~PC~\u005CPROG*%
%TA.AperFunction,SMDPad,CuDef*%
G36*
G01*
X136275000Y-98205000D02*
X136275000Y-98455000D01*
G75*
G02*
X136150000Y-98580000I-125000J0D01*
G01*
X134900000Y-98580000D01*
G75*
G02*
X134775000Y-98455000I0J125000D01*
G01*
X134775000Y-98205000D01*
G75*
G02*
X134900000Y-98080000I125000J0D01*
G01*
X136150000Y-98080000D01*
G75*
G02*
X136275000Y-98205000I0J-125000D01*
G01*
G37*
%TD.AperFunction*%
%TO.P,U2,17*%
%TO.N,+3V3*%
%TA.AperFunction,SMDPad,CuDef*%
G36*
G01*
X136275000Y-97405000D02*
X136275000Y-97655000D01*
G75*
G02*
X136150000Y-97780000I-125000J0D01*
G01*
X134900000Y-97780000D01*
G75*
G02*
X134775000Y-97655000I0J125000D01*
G01*
X134775000Y-97405000D01*
G75*
G02*
X134900000Y-97280000I125000J0D01*
G01*
X136150000Y-97280000D01*
G75*
G02*
X136275000Y-97405000I0J-125000D01*
G01*
G37*
%TD.AperFunction*%
%TO.P,U2,16*%
%TO.N,GND*%
%TA.AperFunction,SMDPad,CuDef*%
G36*
G01*
X137150000Y-95530000D02*
X137150000Y-96780000D01*
G75*
G02*
X137025000Y-96905000I-125000J0D01*
G01*
X136775000Y-96905000D01*
G75*
G02*
X136650000Y-96780000I0J125000D01*
G01*
X136650000Y-95530000D01*
G75*
G02*
X136775000Y-95405000I125000J0D01*
G01*
X137025000Y-95405000D01*
G75*
G02*
X137150000Y-95530000I0J-125000D01*
G01*
G37*
%TD.AperFunction*%
%TO.P,U2,15*%
%TO.N,/LED2*%
%TA.AperFunction,SMDPad,CuDef*%
G36*
G01*
X137950000Y-95530000D02*
X137950000Y-96780000D01*
G75*
G02*
X137825000Y-96905000I-125000J0D01*
G01*
X137575000Y-96905000D01*
G75*
G02*
X137450000Y-96780000I0J125000D01*
G01*
X137450000Y-95530000D01*
G75*
G02*
X137575000Y-95405000I125000J0D01*
G01*
X137825000Y-95405000D01*
G75*
G02*
X137950000Y-95530000I0J-125000D01*
G01*
G37*
%TD.AperFunction*%
%TO.P,U2,14*%
%TO.N,/LED1*%
%TA.AperFunction,SMDPad,CuDef*%
G36*
G01*
X138750000Y-95530000D02*
X138750000Y-96780000D01*
G75*
G02*
X138625000Y-96905000I-125000J0D01*
G01*
X138375000Y-96905000D01*
G75*
G02*
X138250000Y-96780000I0J125000D01*
G01*
X138250000Y-95530000D01*
G75*
G02*
X138375000Y-95405000I125000J0D01*
G01*
X138625000Y-95405000D01*
G75*
G02*
X138750000Y-95530000I0J-125000D01*
G01*
G37*
%TD.AperFunction*%
%TO.P,U2,13*%
%TO.N,/LV_W_SER*%
%TA.AperFunction,SMDPad,CuDef*%
G36*
G01*
X139550000Y-95530000D02*
X139550000Y-96780000D01*
G75*
G02*
X139425000Y-96905000I-125000J0D01*
G01*
X139175000Y-96905000D01*
G75*
G02*
X139050000Y-96780000I0J125000D01*
G01*
X139050000Y-95530000D01*
G75*
G02*
X139175000Y-95405000I125000J0D01*
G01*
X139425000Y-95405000D01*
G75*
G02*
X139550000Y-95530000I0J-125000D01*
G01*
G37*
%TD.AperFunction*%
%TO.P,U2,12*%
%TO.N,/LV_W_RCLK*%
%TA.AperFunction,SMDPad,CuDef*%
G36*
G01*
X140350000Y-95530000D02*
X140350000Y-96780000D01*
G75*
G02*
X140225000Y-96905000I-125000J0D01*
G01*
X139975000Y-96905000D01*
G75*
G02*
X139850000Y-96780000I0J125000D01*
G01*
X139850000Y-95530000D01*
G75*
G02*
X139975000Y-95405000I125000J0D01*
G01*
X140225000Y-95405000D01*
G75*
G02*
X140350000Y-95530000I0J-125000D01*
G01*
G37*
%TD.AperFunction*%
%TO.P,U2,11*%
%TO.N,/LV_W_SCLK*%
%TA.AperFunction,SMDPad,CuDef*%
G36*
G01*
X141150000Y-95530000D02*
X141150000Y-96780000D01*
G75*
G02*
X141025000Y-96905000I-125000J0D01*
G01*
X140775000Y-96905000D01*
G75*
G02*
X140650000Y-96780000I0J125000D01*
G01*
X140650000Y-95530000D01*
G75*
G02*
X140775000Y-95405000I125000J0D01*
G01*
X141025000Y-95405000D01*
G75*
G02*
X141150000Y-95530000I0J-125000D01*
G01*
G37*
%TD.AperFunction*%
%TO.P,U2,10*%
%TO.N,N/C*%
%TA.AperFunction,SMDPad,CuDef*%
G36*
G01*
X141950000Y-95530000D02*
X141950000Y-96780000D01*
G75*
G02*
X141825000Y-96905000I-125000J0D01*
G01*
X141575000Y-96905000D01*
G75*
G02*
X141450000Y-96780000I0J125000D01*
G01*
X141450000Y-95530000D01*
G75*
G02*
X141575000Y-95405000I125000J0D01*
G01*
X141825000Y-95405000D01*
G75*
G02*
X141950000Y-95530000I0J-125000D01*
G01*
G37*
%TD.AperFunction*%
%TO.P,U2,9*%
%TO.N,/UART_MCU_RX*%
%TA.AperFunction,SMDPad,CuDef*%
G36*
G01*
X142750000Y-95530000D02*
X142750000Y-96780000D01*
G75*
G02*
X142625000Y-96905000I-125000J0D01*
G01*
X142375000Y-96905000D01*
G75*
G02*
X142250000Y-96780000I0J125000D01*
G01*
X142250000Y-95530000D01*
G75*
G02*
X142375000Y-95405000I125000J0D01*
G01*
X142625000Y-95405000D01*
G75*
G02*
X142750000Y-95530000I0J-125000D01*
G01*
G37*
%TD.AperFunction*%
%TO.P,U2,8*%
%TO.N,/UART_MCU_TX*%
%TA.AperFunction,SMDPad,CuDef*%
G36*
G01*
X144625000Y-97405000D02*
X144625000Y-97655000D01*
G75*
G02*
X144500000Y-97780000I-125000J0D01*
G01*
X143250000Y-97780000D01*
G75*
G02*
X143125000Y-97655000I0J125000D01*
G01*
X143125000Y-97405000D01*
G75*
G02*
X143250000Y-97280000I125000J0D01*
G01*
X144500000Y-97280000D01*
G75*
G02*
X144625000Y-97405000I0J-125000D01*
G01*
G37*
%TD.AperFunction*%
%TO.P,U2,7*%
%TO.N,N/C*%
%TA.AperFunction,SMDPad,CuDef*%
G36*
G01*
X144625000Y-98205000D02*
X144625000Y-98455000D01*
G75*
G02*
X144500000Y-98580000I-125000J0D01*
G01*
X143250000Y-98580000D01*
G75*
G02*
X143125000Y-98455000I0J125000D01*
G01*
X143125000Y-98205000D01*
G75*
G02*
X143250000Y-98080000I125000J0D01*
G01*
X144500000Y-98080000D01*
G75*
G02*
X144625000Y-98205000I0J-125000D01*
G01*
G37*
%TD.AperFunction*%
%TO.P,U2,6*%
%TA.AperFunction,SMDPad,CuDef*%
G36*
G01*
X144625000Y-99005000D02*
X144625000Y-99255000D01*
G75*
G02*
X144500000Y-99380000I-125000J0D01*
G01*
X143250000Y-99380000D01*
G75*
G02*
X143125000Y-99255000I0J125000D01*
G01*
X143125000Y-99005000D01*
G75*
G02*
X143250000Y-98880000I125000J0D01*
G01*
X144500000Y-98880000D01*
G75*
G02*
X144625000Y-99005000I0J-125000D01*
G01*
G37*
%TD.AperFunction*%
%TO.P,U2,5*%
%TO.N,+3V3*%
%TA.AperFunction,SMDPad,CuDef*%
G36*
G01*
X144625000Y-99805000D02*
X144625000Y-100055000D01*
G75*
G02*
X144500000Y-100180000I-125000J0D01*
G01*
X143250000Y-100180000D01*
G75*
G02*
X143125000Y-100055000I0J125000D01*
G01*
X143125000Y-99805000D01*
G75*
G02*
X143250000Y-99680000I125000J0D01*
G01*
X144500000Y-99680000D01*
G75*
G02*
X144625000Y-99805000I0J-125000D01*
G01*
G37*
%TD.AperFunction*%
%TO.P,U2,4*%
%TO.N,/nRST*%
%TA.AperFunction,SMDPad,CuDef*%
G36*
G01*
X144625000Y-100605000D02*
X144625000Y-100855000D01*
G75*
G02*
X144500000Y-100980000I-125000J0D01*
G01*
X143250000Y-100980000D01*
G75*
G02*
X143125000Y-100855000I0J125000D01*
G01*
X143125000Y-100605000D01*
G75*
G02*
X143250000Y-100480000I125000J0D01*
G01*
X144500000Y-100480000D01*
G75*
G02*
X144625000Y-100605000I0J-125000D01*
G01*
G37*
%TD.AperFunction*%
%TO.P,U2,3*%
%TO.N,N/C*%
%TA.AperFunction,SMDPad,CuDef*%
G36*
G01*
X144625000Y-101405000D02*
X144625000Y-101655000D01*
G75*
G02*
X144500000Y-101780000I-125000J0D01*
G01*
X143250000Y-101780000D01*
G75*
G02*
X143125000Y-101655000I0J125000D01*
G01*
X143125000Y-101405000D01*
G75*
G02*
X143250000Y-101280000I125000J0D01*
G01*
X144500000Y-101280000D01*
G75*
G02*
X144625000Y-101405000I0J-125000D01*
G01*
G37*
%TD.AperFunction*%
%TO.P,U2,2*%
%TO.N,/LV_MEM_~OE*%
%TA.AperFunction,SMDPad,CuDef*%
G36*
G01*
X144625000Y-102205000D02*
X144625000Y-102455000D01*
G75*
G02*
X144500000Y-102580000I-125000J0D01*
G01*
X143250000Y-102580000D01*
G75*
G02*
X143125000Y-102455000I0J125000D01*
G01*
X143125000Y-102205000D01*
G75*
G02*
X143250000Y-102080000I125000J0D01*
G01*
X144500000Y-102080000D01*
G75*
G02*
X144625000Y-102205000I0J-125000D01*
G01*
G37*
%TD.AperFunction*%
%TO.P,U2,1*%
%TO.N,+3V3*%
%TA.AperFunction,SMDPad,CuDef*%
G36*
G01*
X144625000Y-103005000D02*
X144625000Y-103255000D01*
G75*
G02*
X144500000Y-103380000I-125000J0D01*
G01*
X143250000Y-103380000D01*
G75*
G02*
X143125000Y-103255000I0J125000D01*
G01*
X143125000Y-103005000D01*
G75*
G02*
X143250000Y-102880000I125000J0D01*
G01*
X144500000Y-102880000D01*
G75*
G02*
X144625000Y-103005000I0J-125000D01*
G01*
G37*
%TD.AperFunction*%
%TD*%
D10*
%TO.P,J2,10*%
%TO.N,/nRST*%
X156845000Y-97155000D03*
%TO.P,J2,9*%
%TO.N,GND*%
X155575000Y-97155000D03*
%TO.P,J2,8*%
%TO.N,Net-(J2-Pad8)*%
X156845000Y-95885000D03*
%TO.P,J2,7*%
%TO.N,Net-(J2-Pad7)*%
X155575000Y-95885000D03*
%TO.P,J2,6*%
%TO.N,Net-(J2-Pad6)*%
X156845000Y-94615000D03*
%TO.P,J2,5*%
%TO.N,GND*%
X155575000Y-94615000D03*
%TO.P,J2,4*%
%TO.N,/CLK*%
X156845000Y-93345000D03*
%TO.P,J2,3*%
%TO.N,GND*%
X155575000Y-93345000D03*
%TO.P,J2,2*%
%TO.N,/DIO*%
X156845000Y-92075000D03*
D11*
%TO.P,J2,1*%
%TO.N,+3V3*%
X155575000Y-92075000D03*
D12*
X154160000Y-92075000D03*
%TO.P,J2,2*%
%TO.N,/DIO*%
X158260000Y-92075000D03*
%TO.P,J2,3*%
%TO.N,GND*%
X154160000Y-93345000D03*
%TO.P,J2,4*%
%TO.N,/CLK*%
X158260000Y-93345000D03*
%TO.P,J2,5*%
%TO.N,GND*%
X154160000Y-94615000D03*
%TO.P,J2,6*%
%TO.N,Net-(J2-Pad6)*%
X158260000Y-94615000D03*
%TO.P,J2,7*%
%TO.N,Net-(J2-Pad7)*%
X154160000Y-95885000D03*
%TO.P,J2,8*%
%TO.N,Net-(J2-Pad8)*%
X158260000Y-95885000D03*
%TO.P,J2,9*%
%TO.N,GND*%
X154160000Y-97155000D03*
%TO.P,J2,10*%
%TO.N,/nRST*%
X158260000Y-97155000D03*
%TD*%
%TO.P,C6,2*%
%TO.N,GND*%
%TA.AperFunction,SMDPad,CuDef*%
G36*
G01*
X153345000Y-101350000D02*
X153345000Y-101850000D01*
G75*
G02*
X153120000Y-102075000I-225000J0D01*
G01*
X152670000Y-102075000D01*
G75*
G02*
X152445000Y-101850000I0J225000D01*
G01*
X152445000Y-101350000D01*
G75*
G02*
X152670000Y-101125000I225000J0D01*
G01*
X153120000Y-101125000D01*
G75*
G02*
X153345000Y-101350000I0J-225000D01*
G01*
G37*
%TD.AperFunction*%
%TO.P,C6,1*%
%TO.N,+3V3*%
%TA.AperFunction,SMDPad,CuDef*%
G36*
G01*
X154895000Y-101350000D02*
X154895000Y-101850000D01*
G75*
G02*
X154670000Y-102075000I-225000J0D01*
G01*
X154220000Y-102075000D01*
G75*
G02*
X153995000Y-101850000I0J225000D01*
G01*
X153995000Y-101350000D01*
G75*
G02*
X154220000Y-101125000I225000J0D01*
G01*
X154670000Y-101125000D01*
G75*
G02*
X154895000Y-101350000I0J-225000D01*
G01*
G37*
%TD.AperFunction*%
%TD*%
%TO.P,C4,2*%
%TO.N,GND*%
%TA.AperFunction,SMDPad,CuDef*%
G36*
G01*
X150185000Y-105660000D02*
X150185000Y-105160000D01*
G75*
G02*
X150410000Y-104935000I225000J0D01*
G01*
X150860000Y-104935000D01*
G75*
G02*
X151085000Y-105160000I0J-225000D01*
G01*
X151085000Y-105660000D01*
G75*
G02*
X150860000Y-105885000I-225000J0D01*
G01*
X150410000Y-105885000D01*
G75*
G02*
X150185000Y-105660000I0J225000D01*
G01*
G37*
%TD.AperFunction*%
%TO.P,C4,1*%
%TO.N,+3V3*%
%TA.AperFunction,SMDPad,CuDef*%
G36*
G01*
X148635000Y-105660000D02*
X148635000Y-105160000D01*
G75*
G02*
X148860000Y-104935000I225000J0D01*
G01*
X149310000Y-104935000D01*
G75*
G02*
X149535000Y-105160000I0J-225000D01*
G01*
X149535000Y-105660000D01*
G75*
G02*
X149310000Y-105885000I-225000J0D01*
G01*
X148860000Y-105885000D01*
G75*
G02*
X148635000Y-105660000I0J225000D01*
G01*
G37*
%TD.AperFunction*%
%TD*%
%TO.P,C3,2*%
%TO.N,GND*%
%TA.AperFunction,SMDPad,CuDef*%
G36*
G01*
X131830000Y-100655000D02*
X132330000Y-100655000D01*
G75*
G02*
X132555000Y-100880000I0J-225000D01*
G01*
X132555000Y-101330000D01*
G75*
G02*
X132330000Y-101555000I-225000J0D01*
G01*
X131830000Y-101555000D01*
G75*
G02*
X131605000Y-101330000I0J225000D01*
G01*
X131605000Y-100880000D01*
G75*
G02*
X131830000Y-100655000I225000J0D01*
G01*
G37*
%TD.AperFunction*%
%TO.P,C3,1*%
%TO.N,+3V3*%
%TA.AperFunction,SMDPad,CuDef*%
G36*
G01*
X131830000Y-99105000D02*
X132330000Y-99105000D01*
G75*
G02*
X132555000Y-99330000I0J-225000D01*
G01*
X132555000Y-99780000D01*
G75*
G02*
X132330000Y-100005000I-225000J0D01*
G01*
X131830000Y-100005000D01*
G75*
G02*
X131605000Y-99780000I0J225000D01*
G01*
X131605000Y-99330000D01*
G75*
G02*
X131830000Y-99105000I225000J0D01*
G01*
G37*
%TD.AperFunction*%
%TD*%
%TO.P,C2,2*%
%TO.N,GND*%
%TA.AperFunction,SMDPad,CuDef*%
G36*
G01*
X150165000Y-103755000D02*
X150165000Y-103255000D01*
G75*
G02*
X150390000Y-103030000I225000J0D01*
G01*
X150840000Y-103030000D01*
G75*
G02*
X151065000Y-103255000I0J-225000D01*
G01*
X151065000Y-103755000D01*
G75*
G02*
X150840000Y-103980000I-225000J0D01*
G01*
X150390000Y-103980000D01*
G75*
G02*
X150165000Y-103755000I0J225000D01*
G01*
G37*
%TD.AperFunction*%
%TO.P,C2,1*%
%TO.N,+3V3*%
%TA.AperFunction,SMDPad,CuDef*%
G36*
G01*
X148615000Y-103755000D02*
X148615000Y-103255000D01*
G75*
G02*
X148840000Y-103030000I225000J0D01*
G01*
X149290000Y-103030000D01*
G75*
G02*
X149515000Y-103255000I0J-225000D01*
G01*
X149515000Y-103755000D01*
G75*
G02*
X149290000Y-103980000I-225000J0D01*
G01*
X148840000Y-103980000D01*
G75*
G02*
X148615000Y-103755000I0J225000D01*
G01*
G37*
%TD.AperFunction*%
%TD*%
%TO.P,C1,2*%
%TO.N,GND*%
%TA.AperFunction,SMDPad,CuDef*%
G36*
G01*
X132330000Y-96195000D02*
X131830000Y-96195000D01*
G75*
G02*
X131605000Y-95970000I0J225000D01*
G01*
X131605000Y-95520000D01*
G75*
G02*
X131830000Y-95295000I225000J0D01*
G01*
X132330000Y-95295000D01*
G75*
G02*
X132555000Y-95520000I0J-225000D01*
G01*
X132555000Y-95970000D01*
G75*
G02*
X132330000Y-96195000I-225000J0D01*
G01*
G37*
%TD.AperFunction*%
%TO.P,C1,1*%
%TO.N,+3V3*%
%TA.AperFunction,SMDPad,CuDef*%
G36*
G01*
X132330000Y-97745000D02*
X131830000Y-97745000D01*
G75*
G02*
X131605000Y-97520000I0J225000D01*
G01*
X131605000Y-97070000D01*
G75*
G02*
X131830000Y-96845000I225000J0D01*
G01*
X132330000Y-96845000D01*
G75*
G02*
X132555000Y-97070000I0J-225000D01*
G01*
X132555000Y-97520000D01*
G75*
G02*
X132330000Y-97745000I-225000J0D01*
G01*
G37*
%TD.AperFunction*%
%TD*%
D13*
%TO.P,U5,11*%
%TO.N,GND*%
X151130000Y-74930000D03*
%TO.P,U5,10*%
%TO.N,Net-(R14-Pad2)*%
%TA.AperFunction,SMDPad,CuDef*%
G36*
G01*
X152067500Y-75730000D02*
X152192500Y-75730000D01*
G75*
G02*
X152255000Y-75792500I0J-62500D01*
G01*
X152255000Y-76492500D01*
G75*
G02*
X152192500Y-76555000I-62500J0D01*
G01*
X152067500Y-76555000D01*
G75*
G02*
X152005000Y-76492500I0J62500D01*
G01*
X152005000Y-75792500D01*
G75*
G02*
X152067500Y-75730000I62500J0D01*
G01*
G37*
%TD.AperFunction*%
%TO.P,U5,9*%
%TO.N,GND*%
%TA.AperFunction,SMDPad,CuDef*%
G36*
G01*
X151567500Y-75730000D02*
X151692500Y-75730000D01*
G75*
G02*
X151755000Y-75792500I0J-62500D01*
G01*
X151755000Y-76492500D01*
G75*
G02*
X151692500Y-76555000I-62500J0D01*
G01*
X151567500Y-76555000D01*
G75*
G02*
X151505000Y-76492500I0J62500D01*
G01*
X151505000Y-75792500D01*
G75*
G02*
X151567500Y-75730000I62500J0D01*
G01*
G37*
%TD.AperFunction*%
%TO.P,U5,8*%
%TO.N,Net-(C16-Pad1)*%
%TA.AperFunction,SMDPad,CuDef*%
G36*
G01*
X151067500Y-75730000D02*
X151192500Y-75730000D01*
G75*
G02*
X151255000Y-75792500I0J-62500D01*
G01*
X151255000Y-76492500D01*
G75*
G02*
X151192500Y-76555000I-62500J0D01*
G01*
X151067500Y-76555000D01*
G75*
G02*
X151005000Y-76492500I0J62500D01*
G01*
X151005000Y-75792500D01*
G75*
G02*
X151067500Y-75730000I62500J0D01*
G01*
G37*
%TD.AperFunction*%
%TO.P,U5,7*%
%TA.AperFunction,SMDPad,CuDef*%
G36*
G01*
X150567500Y-75730000D02*
X150692500Y-75730000D01*
G75*
G02*
X150755000Y-75792500I0J-62500D01*
G01*
X150755000Y-76492500D01*
G75*
G02*
X150692500Y-76555000I-62500J0D01*
G01*
X150567500Y-76555000D01*
G75*
G02*
X150505000Y-76492500I0J62500D01*
G01*
X150505000Y-75792500D01*
G75*
G02*
X150567500Y-75730000I62500J0D01*
G01*
G37*
%TD.AperFunction*%
%TO.P,U5,6*%
%TO.N,Net-(JP1-Pad2)*%
%TA.AperFunction,SMDPad,CuDef*%
G36*
G01*
X150067500Y-75730000D02*
X150192500Y-75730000D01*
G75*
G02*
X150255000Y-75792500I0J-62500D01*
G01*
X150255000Y-76492500D01*
G75*
G02*
X150192500Y-76555000I-62500J0D01*
G01*
X150067500Y-76555000D01*
G75*
G02*
X150005000Y-76492500I0J62500D01*
G01*
X150005000Y-75792500D01*
G75*
G02*
X150067500Y-75730000I62500J0D01*
G01*
G37*
%TD.AperFunction*%
%TO.P,U5,5*%
%TO.N,/V_USB*%
%TA.AperFunction,SMDPad,CuDef*%
G36*
G01*
X150067500Y-73305000D02*
X150192500Y-73305000D01*
G75*
G02*
X150255000Y-73367500I0J-62500D01*
G01*
X150255000Y-74067500D01*
G75*
G02*
X150192500Y-74130000I-62500J0D01*
G01*
X150067500Y-74130000D01*
G75*
G02*
X150005000Y-74067500I0J62500D01*
G01*
X150005000Y-73367500D01*
G75*
G02*
X150067500Y-73305000I62500J0D01*
G01*
G37*
%TD.AperFunction*%
%TO.P,U5,4*%
%TO.N,Net-(L1-Pad1)*%
%TA.AperFunction,SMDPad,CuDef*%
G36*
G01*
X150567500Y-73305000D02*
X150692500Y-73305000D01*
G75*
G02*
X150755000Y-73367500I0J-62500D01*
G01*
X150755000Y-74067500D01*
G75*
G02*
X150692500Y-74130000I-62500J0D01*
G01*
X150567500Y-74130000D01*
G75*
G02*
X150505000Y-74067500I0J62500D01*
G01*
X150505000Y-73367500D01*
G75*
G02*
X150567500Y-73305000I62500J0D01*
G01*
G37*
%TD.AperFunction*%
%TO.P,U5,3*%
%TO.N,GND*%
%TA.AperFunction,SMDPad,CuDef*%
G36*
G01*
X151067500Y-73305000D02*
X151192500Y-73305000D01*
G75*
G02*
X151255000Y-73367500I0J-62500D01*
G01*
X151255000Y-74067500D01*
G75*
G02*
X151192500Y-74130000I-62500J0D01*
G01*
X151067500Y-74130000D01*
G75*
G02*
X151005000Y-74067500I0J62500D01*
G01*
X151005000Y-73367500D01*
G75*
G02*
X151067500Y-73305000I62500J0D01*
G01*
G37*
%TD.AperFunction*%
%TO.P,U5,2*%
%TO.N,Net-(L1-Pad2)*%
%TA.AperFunction,SMDPad,CuDef*%
G36*
G01*
X151567500Y-73305000D02*
X151692500Y-73305000D01*
G75*
G02*
X151755000Y-73367500I0J-62500D01*
G01*
X151755000Y-74067500D01*
G75*
G02*
X151692500Y-74130000I-62500J0D01*
G01*
X151567500Y-74130000D01*
G75*
G02*
X151505000Y-74067500I0J62500D01*
G01*
X151505000Y-73367500D01*
G75*
G02*
X151567500Y-73305000I62500J0D01*
G01*
G37*
%TD.AperFunction*%
%TO.P,U5,1*%
%TO.N,Net-(C17-Pad2)*%
%TA.AperFunction,SMDPad,CuDef*%
G36*
G01*
X152067500Y-73305000D02*
X152192500Y-73305000D01*
G75*
G02*
X152255000Y-73367500I0J-62500D01*
G01*
X152255000Y-74067500D01*
G75*
G02*
X152192500Y-74130000I-62500J0D01*
G01*
X152067500Y-74130000D01*
G75*
G02*
X152005000Y-74067500I0J62500D01*
G01*
X152005000Y-73367500D01*
G75*
G02*
X152067500Y-73305000I62500J0D01*
G01*
G37*
%TD.AperFunction*%
%TD*%
D14*
%TO.P,SW1,6*%
%TO.N,N/C*%
X158710000Y-87630000D03*
%TO.P,SW1,5*%
X156210000Y-87630000D03*
%TO.P,SW1,4*%
X153710000Y-87630000D03*
%TO.P,SW1,3*%
X158710000Y-84430000D03*
%TO.P,SW1,2*%
%TO.N,+5V*%
X156210000Y-84430000D03*
D15*
%TO.P,SW1,1*%
%TO.N,Net-(C17-Pad2)*%
X153710000Y-84430000D03*
%TD*%
%TO.P,R16,2*%
%TO.N,Net-(R16-Pad2)*%
%TA.AperFunction,SMDPad,CuDef*%
G36*
G01*
X132355000Y-80855000D02*
X131805000Y-80855000D01*
G75*
G02*
X131605000Y-80655000I0J200000D01*
G01*
X131605000Y-80255000D01*
G75*
G02*
X131805000Y-80055000I200000J0D01*
G01*
X132355000Y-80055000D01*
G75*
G02*
X132555000Y-80255000I0J-200000D01*
G01*
X132555000Y-80655000D01*
G75*
G02*
X132355000Y-80855000I-200000J0D01*
G01*
G37*
%TD.AperFunction*%
%TO.P,R16,1*%
%TO.N,+3V3*%
%TA.AperFunction,SMDPad,CuDef*%
G36*
G01*
X132355000Y-82505000D02*
X131805000Y-82505000D01*
G75*
G02*
X131605000Y-82305000I0J200000D01*
G01*
X131605000Y-81905000D01*
G75*
G02*
X131805000Y-81705000I200000J0D01*
G01*
X132355000Y-81705000D01*
G75*
G02*
X132555000Y-81905000I0J-200000D01*
G01*
X132555000Y-82305000D01*
G75*
G02*
X132355000Y-82505000I-200000J0D01*
G01*
G37*
%TD.AperFunction*%
%TD*%
%TO.P,R15,2*%
%TO.N,GND*%
%TA.AperFunction,SMDPad,CuDef*%
G36*
G01*
X158540000Y-80285000D02*
X158540000Y-79735000D01*
G75*
G02*
X158740000Y-79535000I200000J0D01*
G01*
X159140000Y-79535000D01*
G75*
G02*
X159340000Y-79735000I0J-200000D01*
G01*
X159340000Y-80285000D01*
G75*
G02*
X159140000Y-80485000I-200000J0D01*
G01*
X158740000Y-80485000D01*
G75*
G02*
X158540000Y-80285000I0J200000D01*
G01*
G37*
%TD.AperFunction*%
%TO.P,R15,1*%
%TO.N,Net-(R14-Pad2)*%
%TA.AperFunction,SMDPad,CuDef*%
G36*
G01*
X156890000Y-80285000D02*
X156890000Y-79735000D01*
G75*
G02*
X157090000Y-79535000I200000J0D01*
G01*
X157490000Y-79535000D01*
G75*
G02*
X157690000Y-79735000I0J-200000D01*
G01*
X157690000Y-80285000D01*
G75*
G02*
X157490000Y-80485000I-200000J0D01*
G01*
X157090000Y-80485000D01*
G75*
G02*
X156890000Y-80285000I0J200000D01*
G01*
G37*
%TD.AperFunction*%
%TD*%
%TO.P,R14,2*%
%TO.N,Net-(R14-Pad2)*%
%TA.AperFunction,SMDPad,CuDef*%
G36*
G01*
X155365000Y-69490000D02*
X155365000Y-68940000D01*
G75*
G02*
X155565000Y-68740000I200000J0D01*
G01*
X155965000Y-68740000D01*
G75*
G02*
X156165000Y-68940000I0J-200000D01*
G01*
X156165000Y-69490000D01*
G75*
G02*
X155965000Y-69690000I-200000J0D01*
G01*
X155565000Y-69690000D01*
G75*
G02*
X155365000Y-69490000I0J200000D01*
G01*
G37*
%TD.AperFunction*%
%TO.P,R14,1*%
%TO.N,Net-(R13-Pad2)*%
%TA.AperFunction,SMDPad,CuDef*%
G36*
G01*
X153715000Y-69490000D02*
X153715000Y-68940000D01*
G75*
G02*
X153915000Y-68740000I200000J0D01*
G01*
X154315000Y-68740000D01*
G75*
G02*
X154515000Y-68940000I0J-200000D01*
G01*
X154515000Y-69490000D01*
G75*
G02*
X154315000Y-69690000I-200000J0D01*
G01*
X153915000Y-69690000D01*
G75*
G02*
X153715000Y-69490000I0J200000D01*
G01*
G37*
%TD.AperFunction*%
%TD*%
%TO.P,R13,2*%
%TO.N,Net-(R13-Pad2)*%
%TA.AperFunction,SMDPad,CuDef*%
G36*
G01*
X155365000Y-71395000D02*
X155365000Y-70845000D01*
G75*
G02*
X155565000Y-70645000I200000J0D01*
G01*
X155965000Y-70645000D01*
G75*
G02*
X156165000Y-70845000I0J-200000D01*
G01*
X156165000Y-71395000D01*
G75*
G02*
X155965000Y-71595000I-200000J0D01*
G01*
X155565000Y-71595000D01*
G75*
G02*
X155365000Y-71395000I0J200000D01*
G01*
G37*
%TD.AperFunction*%
%TO.P,R13,1*%
%TO.N,Net-(C17-Pad2)*%
%TA.AperFunction,SMDPad,CuDef*%
G36*
G01*
X153715000Y-71395000D02*
X153715000Y-70845000D01*
G75*
G02*
X153915000Y-70645000I200000J0D01*
G01*
X154315000Y-70645000D01*
G75*
G02*
X154515000Y-70845000I0J-200000D01*
G01*
X154515000Y-71395000D01*
G75*
G02*
X154315000Y-71595000I-200000J0D01*
G01*
X153915000Y-71595000D01*
G75*
G02*
X153715000Y-71395000I0J200000D01*
G01*
G37*
%TD.AperFunction*%
%TD*%
%TO.P,R7,2*%
%TO.N,Net-(JP1-Pad2)*%
%TA.AperFunction,SMDPad,CuDef*%
G36*
G01*
X150705000Y-79735000D02*
X150705000Y-80285000D01*
G75*
G02*
X150505000Y-80485000I-200000J0D01*
G01*
X150105000Y-80485000D01*
G75*
G02*
X149905000Y-80285000I0J200000D01*
G01*
X149905000Y-79735000D01*
G75*
G02*
X150105000Y-79535000I200000J0D01*
G01*
X150505000Y-79535000D01*
G75*
G02*
X150705000Y-79735000I0J-200000D01*
G01*
G37*
%TD.AperFunction*%
%TO.P,R7,1*%
%TO.N,Net-(C16-Pad1)*%
%TA.AperFunction,SMDPad,CuDef*%
G36*
G01*
X152355000Y-79735000D02*
X152355000Y-80285000D01*
G75*
G02*
X152155000Y-80485000I-200000J0D01*
G01*
X151755000Y-80485000D01*
G75*
G02*
X151555000Y-80285000I0J200000D01*
G01*
X151555000Y-79735000D01*
G75*
G02*
X151755000Y-79535000I200000J0D01*
G01*
X152155000Y-79535000D01*
G75*
G02*
X152355000Y-79735000I0J-200000D01*
G01*
G37*
%TD.AperFunction*%
%TD*%
D16*
%TO.P,L1,2*%
%TO.N,Net-(L1-Pad2)*%
X152205000Y-70485000D03*
%TO.P,L1,1*%
%TO.N,Net-(L1-Pad1)*%
X150055000Y-70485000D03*
%TD*%
%TA.AperFunction,SMDPad,CuDef*%
D17*
%TO.P,JP2,1*%
%TO.N,/V_USB*%
G36*
X147320000Y-70120000D02*
G01*
X148070000Y-70620000D01*
X148070000Y-71620000D01*
X146570000Y-71620000D01*
X146570000Y-70620000D01*
X147320000Y-70120000D01*
G37*
%TD.AperFunction*%
%TA.AperFunction,SMDPad,CuDef*%
%TO.P,JP2,2*%
%TO.N,Net-(C17-Pad2)*%
G36*
X148070000Y-69170000D02*
G01*
X148070000Y-70320000D01*
X147320000Y-69820000D01*
X146570000Y-70320000D01*
X146570000Y-69170000D01*
X148070000Y-69170000D01*
G37*
%TD.AperFunction*%
%TD*%
%TA.AperFunction,SMDPad,CuDef*%
%TO.P,JP1,1*%
%TO.N,GND*%
G36*
X147595000Y-80645000D02*
G01*
X147095000Y-81395000D01*
X146095000Y-81395000D01*
X146095000Y-79895000D01*
X147095000Y-79895000D01*
X147595000Y-80645000D01*
G37*
%TD.AperFunction*%
%TA.AperFunction,SMDPad,CuDef*%
%TO.P,JP1,2*%
%TO.N,Net-(JP1-Pad2)*%
G36*
X148545000Y-81395000D02*
G01*
X147395000Y-81395000D01*
X147895000Y-80645000D01*
X147395000Y-79895000D01*
X148545000Y-79895000D01*
X148545000Y-81395000D01*
G37*
%TD.AperFunction*%
%TD*%
%TO.P,C16,2*%
%TO.N,GND*%
%TA.AperFunction,SMDPad,CuDef*%
G36*
G01*
X151455000Y-82165000D02*
X151455000Y-81665000D01*
G75*
G02*
X151680000Y-81440000I225000J0D01*
G01*
X152130000Y-81440000D01*
G75*
G02*
X152355000Y-81665000I0J-225000D01*
G01*
X152355000Y-82165000D01*
G75*
G02*
X152130000Y-82390000I-225000J0D01*
G01*
X151680000Y-82390000D01*
G75*
G02*
X151455000Y-82165000I0J225000D01*
G01*
G37*
%TD.AperFunction*%
%TO.P,C16,1*%
%TO.N,Net-(C16-Pad1)*%
%TA.AperFunction,SMDPad,CuDef*%
G36*
G01*
X149905000Y-82165000D02*
X149905000Y-81665000D01*
G75*
G02*
X150130000Y-81440000I225000J0D01*
G01*
X150580000Y-81440000D01*
G75*
G02*
X150805000Y-81665000I0J-225000D01*
G01*
X150805000Y-82165000D01*
G75*
G02*
X150580000Y-82390000I-225000J0D01*
G01*
X150130000Y-82390000D01*
G75*
G02*
X149905000Y-82165000I0J225000D01*
G01*
G37*
%TD.AperFunction*%
%TD*%
D18*
%TO.P,J3,20*%
%TO.N,GND*%
X135890000Y-124460000D03*
%TO.P,J3,18*%
%TO.N,/DTCT_Vtarget*%
X138430000Y-124460000D03*
%TO.P,J3,16*%
%TO.N,/R_RCLK*%
X140970000Y-124460000D03*
%TO.P,J3,14*%
%TO.N,/R_SCLK*%
X143510000Y-124460000D03*
%TO.P,J3,12*%
%TO.N,/R_SER*%
X146050000Y-124460000D03*
%TO.P,J3,10*%
%TO.N,/DATA_ROM\u005C~PROG~*%
X148590000Y-124460000D03*
%TO.P,J3,8*%
%TO.N,/ADR_~PC~\u005CPROG*%
X151130000Y-124460000D03*
%TO.P,J3,6*%
%TO.N,/DO_RESET*%
X153670000Y-124460000D03*
%TO.P,J3,4*%
%TO.N,/BKPT_RCLK*%
X156210000Y-124460000D03*
%TO.P,J3,2*%
%TO.N,+5V*%
X158750000Y-124460000D03*
%TO.P,J3,19*%
%TO.N,GND*%
X135890000Y-121920000D03*
%TO.P,J3,17*%
X138430000Y-121920000D03*
%TO.P,J3,15*%
%TO.N,/W_RCLK*%
X140970000Y-121920000D03*
%TO.P,J3,13*%
%TO.N,/W_SCLK*%
X143510000Y-121920000D03*
%TO.P,J3,11*%
%TO.N,/W_SER*%
X146050000Y-121920000D03*
%TO.P,J3,9*%
%TO.N,/MEM_~OE*%
X148590000Y-121920000D03*
%TO.P,J3,7*%
%TO.N,/MEM_~PGM*%
X151130000Y-121920000D03*
%TO.P,J3,5*%
%TO.N,/MEM_~CE*%
X153670000Y-121920000D03*
%TO.P,J3,3*%
%TO.N,+5V*%
X156210000Y-121920000D03*
%TO.P,J3,1*%
%TA.AperFunction,ComponentPad*%
G36*
G01*
X158150000Y-121070000D02*
X159350000Y-121070000D01*
G75*
G02*
X159600000Y-121320000I0J-250000D01*
G01*
X159600000Y-122520000D01*
G75*
G02*
X159350000Y-122770000I-250000J0D01*
G01*
X158150000Y-122770000D01*
G75*
G02*
X157900000Y-122520000I0J250000D01*
G01*
X157900000Y-121320000D01*
G75*
G02*
X158150000Y-121070000I250000J0D01*
G01*
G37*
%TD.AperFunction*%
%TD*%
%TO.P,C14,2*%
%TO.N,GND*%
%TA.AperFunction,SMDPad,CuDef*%
G36*
G01*
X131830000Y-93035000D02*
X132330000Y-93035000D01*
G75*
G02*
X132555000Y-93260000I0J-225000D01*
G01*
X132555000Y-93710000D01*
G75*
G02*
X132330000Y-93935000I-225000J0D01*
G01*
X131830000Y-93935000D01*
G75*
G02*
X131605000Y-93710000I0J225000D01*
G01*
X131605000Y-93260000D01*
G75*
G02*
X131830000Y-93035000I225000J0D01*
G01*
G37*
%TD.AperFunction*%
%TO.P,C14,1*%
%TO.N,/V_USB*%
%TA.AperFunction,SMDPad,CuDef*%
G36*
G01*
X131830000Y-91485000D02*
X132330000Y-91485000D01*
G75*
G02*
X132555000Y-91710000I0J-225000D01*
G01*
X132555000Y-92160000D01*
G75*
G02*
X132330000Y-92385000I-225000J0D01*
G01*
X131830000Y-92385000D01*
G75*
G02*
X131605000Y-92160000I0J225000D01*
G01*
X131605000Y-91710000D01*
G75*
G02*
X131830000Y-91485000I225000J0D01*
G01*
G37*
%TD.AperFunction*%
%TD*%
%TO.P,C13,2*%
%TO.N,GND*%
%TA.AperFunction,SMDPad,CuDef*%
G36*
G01*
X132330000Y-88575000D02*
X131830000Y-88575000D01*
G75*
G02*
X131605000Y-88350000I0J225000D01*
G01*
X131605000Y-87900000D01*
G75*
G02*
X131830000Y-87675000I225000J0D01*
G01*
X132330000Y-87675000D01*
G75*
G02*
X132555000Y-87900000I0J-225000D01*
G01*
X132555000Y-88350000D01*
G75*
G02*
X132330000Y-88575000I-225000J0D01*
G01*
G37*
%TD.AperFunction*%
%TO.P,C13,1*%
%TO.N,/V_USB*%
%TA.AperFunction,SMDPad,CuDef*%
G36*
G01*
X132330000Y-90125000D02*
X131830000Y-90125000D01*
G75*
G02*
X131605000Y-89900000I0J225000D01*
G01*
X131605000Y-89450000D01*
G75*
G02*
X131830000Y-89225000I225000J0D01*
G01*
X132330000Y-89225000D01*
G75*
G02*
X132555000Y-89450000I0J-225000D01*
G01*
X132555000Y-89900000D01*
G75*
G02*
X132330000Y-90125000I-225000J0D01*
G01*
G37*
%TD.AperFunction*%
%TD*%
%TO.P,U4,1*%
%TO.N,+5V*%
%TA.AperFunction,SMDPad,CuDef*%
G36*
G01*
X136810000Y-110065000D02*
X137010000Y-110065000D01*
G75*
G02*
X137110000Y-110165000I0J-100000D01*
G01*
X137110000Y-111440000D01*
G75*
G02*
X137010000Y-111540000I-100000J0D01*
G01*
X136810000Y-111540000D01*
G75*
G02*
X136710000Y-111440000I0J100000D01*
G01*
X136710000Y-110165000D01*
G75*
G02*
X136810000Y-110065000I100000J0D01*
G01*
G37*
%TD.AperFunction*%
%TO.P,U4,2*%
%TO.N,/LV_ADR_~PC~\u005CPROG*%
%TA.AperFunction,SMDPad,CuDef*%
G36*
G01*
X136160000Y-110065000D02*
X136360000Y-110065000D01*
G75*
G02*
X136460000Y-110165000I0J-100000D01*
G01*
X136460000Y-111440000D01*
G75*
G02*
X136360000Y-111540000I-100000J0D01*
G01*
X136160000Y-111540000D01*
G75*
G02*
X136060000Y-111440000I0J100000D01*
G01*
X136060000Y-110165000D01*
G75*
G02*
X136160000Y-110065000I100000J0D01*
G01*
G37*
%TD.AperFunction*%
%TO.P,U4,3*%
%TO.N,/LV_R_SCLK*%
%TA.AperFunction,SMDPad,CuDef*%
G36*
G01*
X135510000Y-110065000D02*
X135710000Y-110065000D01*
G75*
G02*
X135810000Y-110165000I0J-100000D01*
G01*
X135810000Y-111440000D01*
G75*
G02*
X135710000Y-111540000I-100000J0D01*
G01*
X135510000Y-111540000D01*
G75*
G02*
X135410000Y-111440000I0J100000D01*
G01*
X135410000Y-110165000D01*
G75*
G02*
X135510000Y-110065000I100000J0D01*
G01*
G37*
%TD.AperFunction*%
%TO.P,U4,4*%
%TO.N,/LV_R_RCLK*%
%TA.AperFunction,SMDPad,CuDef*%
G36*
G01*
X134860000Y-110065000D02*
X135060000Y-110065000D01*
G75*
G02*
X135160000Y-110165000I0J-100000D01*
G01*
X135160000Y-111440000D01*
G75*
G02*
X135060000Y-111540000I-100000J0D01*
G01*
X134860000Y-111540000D01*
G75*
G02*
X134760000Y-111440000I0J100000D01*
G01*
X134760000Y-110165000D01*
G75*
G02*
X134860000Y-110065000I100000J0D01*
G01*
G37*
%TD.AperFunction*%
%TO.P,U4,5*%
%TO.N,/LV_BKPT_RCLK*%
%TA.AperFunction,SMDPad,CuDef*%
G36*
G01*
X134210000Y-110065000D02*
X134410000Y-110065000D01*
G75*
G02*
X134510000Y-110165000I0J-100000D01*
G01*
X134510000Y-111440000D01*
G75*
G02*
X134410000Y-111540000I-100000J0D01*
G01*
X134210000Y-111540000D01*
G75*
G02*
X134110000Y-111440000I0J100000D01*
G01*
X134110000Y-110165000D01*
G75*
G02*
X134210000Y-110065000I100000J0D01*
G01*
G37*
%TD.AperFunction*%
%TO.P,U4,6*%
%TO.N,GND*%
%TA.AperFunction,SMDPad,CuDef*%
G36*
G01*
X133560000Y-110065000D02*
X133760000Y-110065000D01*
G75*
G02*
X133860000Y-110165000I0J-100000D01*
G01*
X133860000Y-111440000D01*
G75*
G02*
X133760000Y-111540000I-100000J0D01*
G01*
X133560000Y-111540000D01*
G75*
G02*
X133460000Y-111440000I0J100000D01*
G01*
X133460000Y-110165000D01*
G75*
G02*
X133560000Y-110065000I100000J0D01*
G01*
G37*
%TD.AperFunction*%
%TO.P,U4,7*%
%TA.AperFunction,SMDPad,CuDef*%
G36*
G01*
X132910000Y-110065000D02*
X133110000Y-110065000D01*
G75*
G02*
X133210000Y-110165000I0J-100000D01*
G01*
X133210000Y-111440000D01*
G75*
G02*
X133110000Y-111540000I-100000J0D01*
G01*
X132910000Y-111540000D01*
G75*
G02*
X132810000Y-111440000I0J100000D01*
G01*
X132810000Y-110165000D01*
G75*
G02*
X132910000Y-110065000I100000J0D01*
G01*
G37*
%TD.AperFunction*%
%TO.P,U4,8*%
%TA.AperFunction,SMDPad,CuDef*%
G36*
G01*
X132260000Y-110065000D02*
X132460000Y-110065000D01*
G75*
G02*
X132560000Y-110165000I0J-100000D01*
G01*
X132560000Y-111440000D01*
G75*
G02*
X132460000Y-111540000I-100000J0D01*
G01*
X132260000Y-111540000D01*
G75*
G02*
X132160000Y-111440000I0J100000D01*
G01*
X132160000Y-110165000D01*
G75*
G02*
X132260000Y-110065000I100000J0D01*
G01*
G37*
%TD.AperFunction*%
%TO.P,U4,9*%
%TA.AperFunction,SMDPad,CuDef*%
G36*
G01*
X131610000Y-110065000D02*
X131810000Y-110065000D01*
G75*
G02*
X131910000Y-110165000I0J-100000D01*
G01*
X131910000Y-111440000D01*
G75*
G02*
X131810000Y-111540000I-100000J0D01*
G01*
X131610000Y-111540000D01*
G75*
G02*
X131510000Y-111440000I0J100000D01*
G01*
X131510000Y-110165000D01*
G75*
G02*
X131610000Y-110065000I100000J0D01*
G01*
G37*
%TD.AperFunction*%
%TO.P,U4,10*%
%TA.AperFunction,SMDPad,CuDef*%
G36*
G01*
X130960000Y-110065000D02*
X131160000Y-110065000D01*
G75*
G02*
X131260000Y-110165000I0J-100000D01*
G01*
X131260000Y-111440000D01*
G75*
G02*
X131160000Y-111540000I-100000J0D01*
G01*
X130960000Y-111540000D01*
G75*
G02*
X130860000Y-111440000I0J100000D01*
G01*
X130860000Y-110165000D01*
G75*
G02*
X130960000Y-110065000I100000J0D01*
G01*
G37*
%TD.AperFunction*%
%TO.P,U4,11*%
%TO.N,N/C*%
%TA.AperFunction,SMDPad,CuDef*%
G36*
G01*
X130960000Y-115790000D02*
X131160000Y-115790000D01*
G75*
G02*
X131260000Y-115890000I0J-100000D01*
G01*
X131260000Y-117165000D01*
G75*
G02*
X131160000Y-117265000I-100000J0D01*
G01*
X130960000Y-117265000D01*
G75*
G02*
X130860000Y-117165000I0J100000D01*
G01*
X130860000Y-115890000D01*
G75*
G02*
X130960000Y-115790000I100000J0D01*
G01*
G37*
%TD.AperFunction*%
%TO.P,U4,12*%
%TA.AperFunction,SMDPad,CuDef*%
G36*
G01*
X131610000Y-115790000D02*
X131810000Y-115790000D01*
G75*
G02*
X131910000Y-115890000I0J-100000D01*
G01*
X131910000Y-117165000D01*
G75*
G02*
X131810000Y-117265000I-100000J0D01*
G01*
X131610000Y-117265000D01*
G75*
G02*
X131510000Y-117165000I0J100000D01*
G01*
X131510000Y-115890000D01*
G75*
G02*
X131610000Y-115790000I100000J0D01*
G01*
G37*
%TD.AperFunction*%
%TO.P,U4,13*%
%TA.AperFunction,SMDPad,CuDef*%
G36*
G01*
X132260000Y-115790000D02*
X132460000Y-115790000D01*
G75*
G02*
X132560000Y-115890000I0J-100000D01*
G01*
X132560000Y-117165000D01*
G75*
G02*
X132460000Y-117265000I-100000J0D01*
G01*
X132260000Y-117265000D01*
G75*
G02*
X132160000Y-117165000I0J100000D01*
G01*
X132160000Y-115890000D01*
G75*
G02*
X132260000Y-115790000I100000J0D01*
G01*
G37*
%TD.AperFunction*%
%TO.P,U4,14*%
%TA.AperFunction,SMDPad,CuDef*%
G36*
G01*
X132910000Y-115790000D02*
X133110000Y-115790000D01*
G75*
G02*
X133210000Y-115890000I0J-100000D01*
G01*
X133210000Y-117165000D01*
G75*
G02*
X133110000Y-117265000I-100000J0D01*
G01*
X132910000Y-117265000D01*
G75*
G02*
X132810000Y-117165000I0J100000D01*
G01*
X132810000Y-115890000D01*
G75*
G02*
X132910000Y-115790000I100000J0D01*
G01*
G37*
%TD.AperFunction*%
%TO.P,U4,15*%
%TO.N,/BKPT_RCLK*%
%TA.AperFunction,SMDPad,CuDef*%
G36*
G01*
X133560000Y-115790000D02*
X133760000Y-115790000D01*
G75*
G02*
X133860000Y-115890000I0J-100000D01*
G01*
X133860000Y-117165000D01*
G75*
G02*
X133760000Y-117265000I-100000J0D01*
G01*
X133560000Y-117265000D01*
G75*
G02*
X133460000Y-117165000I0J100000D01*
G01*
X133460000Y-115890000D01*
G75*
G02*
X133560000Y-115790000I100000J0D01*
G01*
G37*
%TD.AperFunction*%
%TO.P,U4,16*%
%TO.N,/R_RCLK*%
%TA.AperFunction,SMDPad,CuDef*%
G36*
G01*
X134210000Y-115790000D02*
X134410000Y-115790000D01*
G75*
G02*
X134510000Y-115890000I0J-100000D01*
G01*
X134510000Y-117165000D01*
G75*
G02*
X134410000Y-117265000I-100000J0D01*
G01*
X134210000Y-117265000D01*
G75*
G02*
X134110000Y-117165000I0J100000D01*
G01*
X134110000Y-115890000D01*
G75*
G02*
X134210000Y-115790000I100000J0D01*
G01*
G37*
%TD.AperFunction*%
%TO.P,U4,17*%
%TO.N,/R_SCLK*%
%TA.AperFunction,SMDPad,CuDef*%
G36*
G01*
X134860000Y-115790000D02*
X135060000Y-115790000D01*
G75*
G02*
X135160000Y-115890000I0J-100000D01*
G01*
X135160000Y-117165000D01*
G75*
G02*
X135060000Y-117265000I-100000J0D01*
G01*
X134860000Y-117265000D01*
G75*
G02*
X134760000Y-117165000I0J100000D01*
G01*
X134760000Y-115890000D01*
G75*
G02*
X134860000Y-115790000I100000J0D01*
G01*
G37*
%TD.AperFunction*%
%TO.P,U4,18*%
%TO.N,/ADR_~PC~\u005CPROG*%
%TA.AperFunction,SMDPad,CuDef*%
G36*
G01*
X135510000Y-115790000D02*
X135710000Y-115790000D01*
G75*
G02*
X135810000Y-115890000I0J-100000D01*
G01*
X135810000Y-117165000D01*
G75*
G02*
X135710000Y-117265000I-100000J0D01*
G01*
X135510000Y-117265000D01*
G75*
G02*
X135410000Y-117165000I0J100000D01*
G01*
X135410000Y-115890000D01*
G75*
G02*
X135510000Y-115790000I100000J0D01*
G01*
G37*
%TD.AperFunction*%
%TO.P,U4,19*%
%TO.N,/~5V_OE*%
%TA.AperFunction,SMDPad,CuDef*%
G36*
G01*
X136160000Y-115790000D02*
X136360000Y-115790000D01*
G75*
G02*
X136460000Y-115890000I0J-100000D01*
G01*
X136460000Y-117165000D01*
G75*
G02*
X136360000Y-117265000I-100000J0D01*
G01*
X136160000Y-117265000D01*
G75*
G02*
X136060000Y-117165000I0J100000D01*
G01*
X136060000Y-115890000D01*
G75*
G02*
X136160000Y-115790000I100000J0D01*
G01*
G37*
%TD.AperFunction*%
%TO.P,U4,20*%
%TO.N,+5V*%
%TA.AperFunction,SMDPad,CuDef*%
G36*
G01*
X136810000Y-115790000D02*
X137010000Y-115790000D01*
G75*
G02*
X137110000Y-115890000I0J-100000D01*
G01*
X137110000Y-117165000D01*
G75*
G02*
X137010000Y-117265000I-100000J0D01*
G01*
X136810000Y-117265000D01*
G75*
G02*
X136710000Y-117165000I0J100000D01*
G01*
X136710000Y-115890000D01*
G75*
G02*
X136810000Y-115790000I100000J0D01*
G01*
G37*
%TD.AperFunction*%
%TD*%
%TO.P,U3,20*%
%TO.N,+5V*%
%TA.AperFunction,SMDPad,CuDef*%
G36*
G01*
X146970000Y-115790000D02*
X147170000Y-115790000D01*
G75*
G02*
X147270000Y-115890000I0J-100000D01*
G01*
X147270000Y-117165000D01*
G75*
G02*
X147170000Y-117265000I-100000J0D01*
G01*
X146970000Y-117265000D01*
G75*
G02*
X146870000Y-117165000I0J100000D01*
G01*
X146870000Y-115890000D01*
G75*
G02*
X146970000Y-115790000I100000J0D01*
G01*
G37*
%TD.AperFunction*%
%TO.P,U3,19*%
%TO.N,/~5V_OE*%
%TA.AperFunction,SMDPad,CuDef*%
G36*
G01*
X146320000Y-115790000D02*
X146520000Y-115790000D01*
G75*
G02*
X146620000Y-115890000I0J-100000D01*
G01*
X146620000Y-117165000D01*
G75*
G02*
X146520000Y-117265000I-100000J0D01*
G01*
X146320000Y-117265000D01*
G75*
G02*
X146220000Y-117165000I0J100000D01*
G01*
X146220000Y-115890000D01*
G75*
G02*
X146320000Y-115790000I100000J0D01*
G01*
G37*
%TD.AperFunction*%
%TO.P,U3,18*%
%TO.N,/MEM_~CE*%
%TA.AperFunction,SMDPad,CuDef*%
G36*
G01*
X145670000Y-115790000D02*
X145870000Y-115790000D01*
G75*
G02*
X145970000Y-115890000I0J-100000D01*
G01*
X145970000Y-117165000D01*
G75*
G02*
X145870000Y-117265000I-100000J0D01*
G01*
X145670000Y-117265000D01*
G75*
G02*
X145570000Y-117165000I0J100000D01*
G01*
X145570000Y-115890000D01*
G75*
G02*
X145670000Y-115790000I100000J0D01*
G01*
G37*
%TD.AperFunction*%
%TO.P,U3,17*%
%TO.N,/MEM_~PGM*%
%TA.AperFunction,SMDPad,CuDef*%
G36*
G01*
X145020000Y-115790000D02*
X145220000Y-115790000D01*
G75*
G02*
X145320000Y-115890000I0J-100000D01*
G01*
X145320000Y-117165000D01*
G75*
G02*
X145220000Y-117265000I-100000J0D01*
G01*
X145020000Y-117265000D01*
G75*
G02*
X144920000Y-117165000I0J100000D01*
G01*
X144920000Y-115890000D01*
G75*
G02*
X145020000Y-115790000I100000J0D01*
G01*
G37*
%TD.AperFunction*%
%TO.P,U3,16*%
%TO.N,/MEM_~OE*%
%TA.AperFunction,SMDPad,CuDef*%
G36*
G01*
X144370000Y-115790000D02*
X144570000Y-115790000D01*
G75*
G02*
X144670000Y-115890000I0J-100000D01*
G01*
X144670000Y-117165000D01*
G75*
G02*
X144570000Y-117265000I-100000J0D01*
G01*
X144370000Y-117265000D01*
G75*
G02*
X144270000Y-117165000I0J100000D01*
G01*
X144270000Y-115890000D01*
G75*
G02*
X144370000Y-115790000I100000J0D01*
G01*
G37*
%TD.AperFunction*%
%TO.P,U3,15*%
%TO.N,/W_SER*%
%TA.AperFunction,SMDPad,CuDef*%
G36*
G01*
X143720000Y-115790000D02*
X143920000Y-115790000D01*
G75*
G02*
X144020000Y-115890000I0J-100000D01*
G01*
X144020000Y-117165000D01*
G75*
G02*
X143920000Y-117265000I-100000J0D01*
G01*
X143720000Y-117265000D01*
G75*
G02*
X143620000Y-117165000I0J100000D01*
G01*
X143620000Y-115890000D01*
G75*
G02*
X143720000Y-115790000I100000J0D01*
G01*
G37*
%TD.AperFunction*%
%TO.P,U3,14*%
%TO.N,/W_SCLK*%
%TA.AperFunction,SMDPad,CuDef*%
G36*
G01*
X143070000Y-115790000D02*
X143270000Y-115790000D01*
G75*
G02*
X143370000Y-115890000I0J-100000D01*
G01*
X143370000Y-117165000D01*
G75*
G02*
X143270000Y-117265000I-100000J0D01*
G01*
X143070000Y-117265000D01*
G75*
G02*
X142970000Y-117165000I0J100000D01*
G01*
X142970000Y-115890000D01*
G75*
G02*
X143070000Y-115790000I100000J0D01*
G01*
G37*
%TD.AperFunction*%
%TO.P,U3,13*%
%TO.N,/W_RCLK*%
%TA.AperFunction,SMDPad,CuDef*%
G36*
G01*
X142420000Y-115790000D02*
X142620000Y-115790000D01*
G75*
G02*
X142720000Y-115890000I0J-100000D01*
G01*
X142720000Y-117165000D01*
G75*
G02*
X142620000Y-117265000I-100000J0D01*
G01*
X142420000Y-117265000D01*
G75*
G02*
X142320000Y-117165000I0J100000D01*
G01*
X142320000Y-115890000D01*
G75*
G02*
X142420000Y-115790000I100000J0D01*
G01*
G37*
%TD.AperFunction*%
%TO.P,U3,12*%
%TO.N,/DO_RESET*%
%TA.AperFunction,SMDPad,CuDef*%
G36*
G01*
X141770000Y-115790000D02*
X141970000Y-115790000D01*
G75*
G02*
X142070000Y-115890000I0J-100000D01*
G01*
X142070000Y-117165000D01*
G75*
G02*
X141970000Y-117265000I-100000J0D01*
G01*
X141770000Y-117265000D01*
G75*
G02*
X141670000Y-117165000I0J100000D01*
G01*
X141670000Y-115890000D01*
G75*
G02*
X141770000Y-115790000I100000J0D01*
G01*
G37*
%TD.AperFunction*%
%TO.P,U3,11*%
%TO.N,/DATA_ROM\u005C~PROG~*%
%TA.AperFunction,SMDPad,CuDef*%
G36*
G01*
X141120000Y-115790000D02*
X141320000Y-115790000D01*
G75*
G02*
X141420000Y-115890000I0J-100000D01*
G01*
X141420000Y-117165000D01*
G75*
G02*
X141320000Y-117265000I-100000J0D01*
G01*
X141120000Y-117265000D01*
G75*
G02*
X141020000Y-117165000I0J100000D01*
G01*
X141020000Y-115890000D01*
G75*
G02*
X141120000Y-115790000I100000J0D01*
G01*
G37*
%TD.AperFunction*%
%TO.P,U3,10*%
%TO.N,GND*%
%TA.AperFunction,SMDPad,CuDef*%
G36*
G01*
X141120000Y-110065000D02*
X141320000Y-110065000D01*
G75*
G02*
X141420000Y-110165000I0J-100000D01*
G01*
X141420000Y-111440000D01*
G75*
G02*
X141320000Y-111540000I-100000J0D01*
G01*
X141120000Y-111540000D01*
G75*
G02*
X141020000Y-111440000I0J100000D01*
G01*
X141020000Y-110165000D01*
G75*
G02*
X141120000Y-110065000I100000J0D01*
G01*
G37*
%TD.AperFunction*%
%TO.P,U3,9*%
%TO.N,/LV_DATA_ROM\u005C~PROG~*%
%TA.AperFunction,SMDPad,CuDef*%
G36*
G01*
X141770000Y-110065000D02*
X141970000Y-110065000D01*
G75*
G02*
X142070000Y-110165000I0J-100000D01*
G01*
X142070000Y-111440000D01*
G75*
G02*
X141970000Y-111540000I-100000J0D01*
G01*
X141770000Y-111540000D01*
G75*
G02*
X141670000Y-111440000I0J100000D01*
G01*
X141670000Y-110165000D01*
G75*
G02*
X141770000Y-110065000I100000J0D01*
G01*
G37*
%TD.AperFunction*%
%TO.P,U3,8*%
%TO.N,/LV_DO_RESET*%
%TA.AperFunction,SMDPad,CuDef*%
G36*
G01*
X142420000Y-110065000D02*
X142620000Y-110065000D01*
G75*
G02*
X142720000Y-110165000I0J-100000D01*
G01*
X142720000Y-111440000D01*
G75*
G02*
X142620000Y-111540000I-100000J0D01*
G01*
X142420000Y-111540000D01*
G75*
G02*
X142320000Y-111440000I0J100000D01*
G01*
X142320000Y-110165000D01*
G75*
G02*
X142420000Y-110065000I100000J0D01*
G01*
G37*
%TD.AperFunction*%
%TO.P,U3,7*%
%TO.N,/LV_W_RCLK*%
%TA.AperFunction,SMDPad,CuDef*%
G36*
G01*
X143070000Y-110065000D02*
X143270000Y-110065000D01*
G75*
G02*
X143370000Y-110165000I0J-100000D01*
G01*
X143370000Y-111440000D01*
G75*
G02*
X143270000Y-111540000I-100000J0D01*
G01*
X143070000Y-111540000D01*
G75*
G02*
X142970000Y-111440000I0J100000D01*
G01*
X142970000Y-110165000D01*
G75*
G02*
X143070000Y-110065000I100000J0D01*
G01*
G37*
%TD.AperFunction*%
%TO.P,U3,6*%
%TO.N,/LV_W_SCLK*%
%TA.AperFunction,SMDPad,CuDef*%
G36*
G01*
X143720000Y-110065000D02*
X143920000Y-110065000D01*
G75*
G02*
X144020000Y-110165000I0J-100000D01*
G01*
X144020000Y-111440000D01*
G75*
G02*
X143920000Y-111540000I-100000J0D01*
G01*
X143720000Y-111540000D01*
G75*
G02*
X143620000Y-111440000I0J100000D01*
G01*
X143620000Y-110165000D01*
G75*
G02*
X143720000Y-110065000I100000J0D01*
G01*
G37*
%TD.AperFunction*%
%TO.P,U3,5*%
%TO.N,/LV_W_SER*%
%TA.AperFunction,SMDPad,CuDef*%
G36*
G01*
X144370000Y-110065000D02*
X144570000Y-110065000D01*
G75*
G02*
X144670000Y-110165000I0J-100000D01*
G01*
X144670000Y-111440000D01*
G75*
G02*
X144570000Y-111540000I-100000J0D01*
G01*
X144370000Y-111540000D01*
G75*
G02*
X144270000Y-111440000I0J100000D01*
G01*
X144270000Y-110165000D01*
G75*
G02*
X144370000Y-110065000I100000J0D01*
G01*
G37*
%TD.AperFunction*%
%TO.P,U3,4*%
%TO.N,/LV_MEM_~OE*%
%TA.AperFunction,SMDPad,CuDef*%
G36*
G01*
X145020000Y-110065000D02*
X145220000Y-110065000D01*
G75*
G02*
X145320000Y-110165000I0J-100000D01*
G01*
X145320000Y-111440000D01*
G75*
G02*
X145220000Y-111540000I-100000J0D01*
G01*
X145020000Y-111540000D01*
G75*
G02*
X144920000Y-111440000I0J100000D01*
G01*
X144920000Y-110165000D01*
G75*
G02*
X145020000Y-110065000I100000J0D01*
G01*
G37*
%TD.AperFunction*%
%TO.P,U3,3*%
%TO.N,/LV_MEM_~PGM*%
%TA.AperFunction,SMDPad,CuDef*%
G36*
G01*
X145670000Y-110065000D02*
X145870000Y-110065000D01*
G75*
G02*
X145970000Y-110165000I0J-100000D01*
G01*
X145970000Y-111440000D01*
G75*
G02*
X145870000Y-111540000I-100000J0D01*
G01*
X145670000Y-111540000D01*
G75*
G02*
X145570000Y-111440000I0J100000D01*
G01*
X145570000Y-110165000D01*
G75*
G02*
X145670000Y-110065000I100000J0D01*
G01*
G37*
%TD.AperFunction*%
%TO.P,U3,2*%
%TO.N,/LV_MEM_~CE*%
%TA.AperFunction,SMDPad,CuDef*%
G36*
G01*
X146320000Y-110065000D02*
X146520000Y-110065000D01*
G75*
G02*
X146620000Y-110165000I0J-100000D01*
G01*
X146620000Y-111440000D01*
G75*
G02*
X146520000Y-111540000I-100000J0D01*
G01*
X146320000Y-111540000D01*
G75*
G02*
X146220000Y-111440000I0J100000D01*
G01*
X146220000Y-110165000D01*
G75*
G02*
X146320000Y-110065000I100000J0D01*
G01*
G37*
%TD.AperFunction*%
%TO.P,U3,1*%
%TO.N,+5V*%
%TA.AperFunction,SMDPad,CuDef*%
G36*
G01*
X146970000Y-110065000D02*
X147170000Y-110065000D01*
G75*
G02*
X147270000Y-110165000I0J-100000D01*
G01*
X147270000Y-111440000D01*
G75*
G02*
X147170000Y-111540000I-100000J0D01*
G01*
X146970000Y-111540000D01*
G75*
G02*
X146870000Y-111440000I0J100000D01*
G01*
X146870000Y-110165000D01*
G75*
G02*
X146970000Y-110065000I100000J0D01*
G01*
G37*
%TD.AperFunction*%
%TD*%
D19*
%TO.P,U1,1*%
%TO.N,/UART_MCU_RX*%
X142030000Y-89315000D03*
%TO.P,U1,2*%
%TO.N,N/C*%
X142030000Y-88665000D03*
%TO.P,U1,3*%
X142030000Y-88015000D03*
%TO.P,U1,4*%
%TO.N,+3V3*%
X142030000Y-87365000D03*
%TO.P,U1,5*%
%TO.N,/UART_MCU_TX*%
X142030000Y-86715000D03*
%TO.P,U1,6*%
%TO.N,N/C*%
X142030000Y-86065000D03*
%TO.P,U1,7*%
%TO.N,GND*%
X142030000Y-85415000D03*
%TO.P,U1,8*%
%TO.N,N/C*%
X142030000Y-84765000D03*
%TO.P,U1,9*%
X142030000Y-84115000D03*
%TO.P,U1,10*%
X142030000Y-83465000D03*
%TO.P,U1,11*%
X142030000Y-82815000D03*
%TO.P,U1,12*%
X142030000Y-82165000D03*
%TO.P,U1,13*%
X142030000Y-81515000D03*
%TO.P,U1,14*%
%TO.N,Net-(R16-Pad2)*%
X142030000Y-80865000D03*
%TO.P,U1,15*%
%TO.N,/D+*%
X134830000Y-80865000D03*
%TO.P,U1,16*%
%TO.N,/D-*%
X134830000Y-81515000D03*
%TO.P,U1,17*%
%TO.N,+3V3*%
X134830000Y-82165000D03*
%TO.P,U1,18*%
%TO.N,GND*%
X134830000Y-82815000D03*
%TO.P,U1,19*%
%TO.N,N/C*%
X134830000Y-83465000D03*
%TO.P,U1,20*%
%TO.N,/V_USB*%
X134830000Y-84115000D03*
%TO.P,U1,21*%
%TO.N,GND*%
X134830000Y-84765000D03*
%TO.P,U1,22*%
%TO.N,Net-(D2-Pad1)*%
X134830000Y-85415000D03*
%TO.P,U1,23*%
%TO.N,Net-(D1-Pad1)*%
X134830000Y-86065000D03*
%TO.P,U1,24*%
%TO.N,N/C*%
X134830000Y-86715000D03*
%TO.P,U1,25*%
%TO.N,GND*%
X134830000Y-87365000D03*
%TO.P,U1,26*%
X134830000Y-88015000D03*
%TO.P,U1,27*%
%TO.N,N/C*%
X134830000Y-88665000D03*
%TO.P,U1,28*%
X134830000Y-89315000D03*
%TD*%
%TO.P,R11,2*%
%TO.N,Net-(D6-Pad2)*%
%TA.AperFunction,SMDPad,CuDef*%
G36*
G01*
X157755000Y-111970000D02*
X157205000Y-111970000D01*
G75*
G02*
X157005000Y-111770000I0J200000D01*
G01*
X157005000Y-111370000D01*
G75*
G02*
X157205000Y-111170000I200000J0D01*
G01*
X157755000Y-111170000D01*
G75*
G02*
X157955000Y-111370000I0J-200000D01*
G01*
X157955000Y-111770000D01*
G75*
G02*
X157755000Y-111970000I-200000J0D01*
G01*
G37*
%TD.AperFunction*%
%TO.P,R11,1*%
%TO.N,/DTCT_Vtarget*%
%TA.AperFunction,SMDPad,CuDef*%
G36*
G01*
X157755000Y-113620000D02*
X157205000Y-113620000D01*
G75*
G02*
X157005000Y-113420000I0J200000D01*
G01*
X157005000Y-113020000D01*
G75*
G02*
X157205000Y-112820000I200000J0D01*
G01*
X157755000Y-112820000D01*
G75*
G02*
X157955000Y-113020000I0J-200000D01*
G01*
X157955000Y-113420000D01*
G75*
G02*
X157755000Y-113620000I-200000J0D01*
G01*
G37*
%TD.AperFunction*%
%TD*%
%TO.P,R10,2*%
%TO.N,GND*%
%TA.AperFunction,SMDPad,CuDef*%
G36*
G01*
X155850000Y-108160000D02*
X155300000Y-108160000D01*
G75*
G02*
X155100000Y-107960000I0J200000D01*
G01*
X155100000Y-107560000D01*
G75*
G02*
X155300000Y-107360000I200000J0D01*
G01*
X155850000Y-107360000D01*
G75*
G02*
X156050000Y-107560000I0J-200000D01*
G01*
X156050000Y-107960000D01*
G75*
G02*
X155850000Y-108160000I-200000J0D01*
G01*
G37*
%TD.AperFunction*%
%TO.P,R10,1*%
%TO.N,/LV_R_SER*%
%TA.AperFunction,SMDPad,CuDef*%
G36*
G01*
X155850000Y-109810000D02*
X155300000Y-109810000D01*
G75*
G02*
X155100000Y-109610000I0J200000D01*
G01*
X155100000Y-109210000D01*
G75*
G02*
X155300000Y-109010000I200000J0D01*
G01*
X155850000Y-109010000D01*
G75*
G02*
X156050000Y-109210000I0J-200000D01*
G01*
X156050000Y-109610000D01*
G75*
G02*
X155850000Y-109810000I-200000J0D01*
G01*
G37*
%TD.AperFunction*%
%TD*%
%TO.P,R9,2*%
%TO.N,GND*%
%TA.AperFunction,SMDPad,CuDef*%
G36*
G01*
X153945000Y-108160000D02*
X153395000Y-108160000D01*
G75*
G02*
X153195000Y-107960000I0J200000D01*
G01*
X153195000Y-107560000D01*
G75*
G02*
X153395000Y-107360000I200000J0D01*
G01*
X153945000Y-107360000D01*
G75*
G02*
X154145000Y-107560000I0J-200000D01*
G01*
X154145000Y-107960000D01*
G75*
G02*
X153945000Y-108160000I-200000J0D01*
G01*
G37*
%TD.AperFunction*%
%TO.P,R9,1*%
%TO.N,/LV_DTCT_Vtarget*%
%TA.AperFunction,SMDPad,CuDef*%
G36*
G01*
X153945000Y-109810000D02*
X153395000Y-109810000D01*
G75*
G02*
X153195000Y-109610000I0J200000D01*
G01*
X153195000Y-109210000D01*
G75*
G02*
X153395000Y-109010000I200000J0D01*
G01*
X153945000Y-109010000D01*
G75*
G02*
X154145000Y-109210000I0J-200000D01*
G01*
X154145000Y-109610000D01*
G75*
G02*
X153945000Y-109810000I-200000J0D01*
G01*
G37*
%TD.AperFunction*%
%TD*%
%TO.P,R8,2*%
%TO.N,/LV_DTCT_Vtarget*%
%TA.AperFunction,SMDPad,CuDef*%
G36*
G01*
X153945000Y-111970000D02*
X153395000Y-111970000D01*
G75*
G02*
X153195000Y-111770000I0J200000D01*
G01*
X153195000Y-111370000D01*
G75*
G02*
X153395000Y-111170000I200000J0D01*
G01*
X153945000Y-111170000D01*
G75*
G02*
X154145000Y-111370000I0J-200000D01*
G01*
X154145000Y-111770000D01*
G75*
G02*
X153945000Y-111970000I-200000J0D01*
G01*
G37*
%TD.AperFunction*%
%TO.P,R8,1*%
%TO.N,/DTCT_Vtarget*%
%TA.AperFunction,SMDPad,CuDef*%
G36*
G01*
X153945000Y-113620000D02*
X153395000Y-113620000D01*
G75*
G02*
X153195000Y-113420000I0J200000D01*
G01*
X153195000Y-113020000D01*
G75*
G02*
X153395000Y-112820000I200000J0D01*
G01*
X153945000Y-112820000D01*
G75*
G02*
X154145000Y-113020000I0J-200000D01*
G01*
X154145000Y-113420000D01*
G75*
G02*
X153945000Y-113620000I-200000J0D01*
G01*
G37*
%TD.AperFunction*%
%TD*%
%TO.P,R6,2*%
%TO.N,Net-(D4-Pad2)*%
%TA.AperFunction,SMDPad,CuDef*%
G36*
G01*
X162200000Y-73235000D02*
X161650000Y-73235000D01*
G75*
G02*
X161450000Y-73035000I0J200000D01*
G01*
X161450000Y-72635000D01*
G75*
G02*
X161650000Y-72435000I200000J0D01*
G01*
X162200000Y-72435000D01*
G75*
G02*
X162400000Y-72635000I0J-200000D01*
G01*
X162400000Y-73035000D01*
G75*
G02*
X162200000Y-73235000I-200000J0D01*
G01*
G37*
%TD.AperFunction*%
%TO.P,R6,1*%
%TO.N,/LED2*%
%TA.AperFunction,SMDPad,CuDef*%
G36*
G01*
X162200000Y-74885000D02*
X161650000Y-74885000D01*
G75*
G02*
X161450000Y-74685000I0J200000D01*
G01*
X161450000Y-74285000D01*
G75*
G02*
X161650000Y-74085000I200000J0D01*
G01*
X162200000Y-74085000D01*
G75*
G02*
X162400000Y-74285000I0J-200000D01*
G01*
X162400000Y-74685000D01*
G75*
G02*
X162200000Y-74885000I-200000J0D01*
G01*
G37*
%TD.AperFunction*%
%TD*%
%TO.P,R5,2*%
%TO.N,Net-(D3-Pad2)*%
%TA.AperFunction,SMDPad,CuDef*%
G36*
G01*
X164105000Y-73235000D02*
X163555000Y-73235000D01*
G75*
G02*
X163355000Y-73035000I0J200000D01*
G01*
X163355000Y-72635000D01*
G75*
G02*
X163555000Y-72435000I200000J0D01*
G01*
X164105000Y-72435000D01*
G75*
G02*
X164305000Y-72635000I0J-200000D01*
G01*
X164305000Y-73035000D01*
G75*
G02*
X164105000Y-73235000I-200000J0D01*
G01*
G37*
%TD.AperFunction*%
%TO.P,R5,1*%
%TO.N,/LED1*%
%TA.AperFunction,SMDPad,CuDef*%
G36*
G01*
X164105000Y-74885000D02*
X163555000Y-74885000D01*
G75*
G02*
X163355000Y-74685000I0J200000D01*
G01*
X163355000Y-74285000D01*
G75*
G02*
X163555000Y-74085000I200000J0D01*
G01*
X164105000Y-74085000D01*
G75*
G02*
X164305000Y-74285000I0J-200000D01*
G01*
X164305000Y-74685000D01*
G75*
G02*
X164105000Y-74885000I-200000J0D01*
G01*
G37*
%TD.AperFunction*%
%TD*%
%TO.P,R4,2*%
%TO.N,GND*%
%TA.AperFunction,SMDPad,CuDef*%
G36*
G01*
X150285000Y-101875000D02*
X150285000Y-101325000D01*
G75*
G02*
X150485000Y-101125000I200000J0D01*
G01*
X150885000Y-101125000D01*
G75*
G02*
X151085000Y-101325000I0J-200000D01*
G01*
X151085000Y-101875000D01*
G75*
G02*
X150885000Y-102075000I-200000J0D01*
G01*
X150485000Y-102075000D01*
G75*
G02*
X150285000Y-101875000I0J200000D01*
G01*
G37*
%TD.AperFunction*%
%TO.P,R4,1*%
%TO.N,Net-(R4-Pad1)*%
%TA.AperFunction,SMDPad,CuDef*%
G36*
G01*
X148635000Y-101875000D02*
X148635000Y-101325000D01*
G75*
G02*
X148835000Y-101125000I200000J0D01*
G01*
X149235000Y-101125000D01*
G75*
G02*
X149435000Y-101325000I0J-200000D01*
G01*
X149435000Y-101875000D01*
G75*
G02*
X149235000Y-102075000I-200000J0D01*
G01*
X148835000Y-102075000D01*
G75*
G02*
X148635000Y-101875000I0J200000D01*
G01*
G37*
%TD.AperFunction*%
%TD*%
%TO.P,R3,2*%
%TO.N,Net-(D2-Pad2)*%
%TA.AperFunction,SMDPad,CuDef*%
G36*
G01*
X149435000Y-91800000D02*
X149435000Y-92350000D01*
G75*
G02*
X149235000Y-92550000I-200000J0D01*
G01*
X148835000Y-92550000D01*
G75*
G02*
X148635000Y-92350000I0J200000D01*
G01*
X148635000Y-91800000D01*
G75*
G02*
X148835000Y-91600000I200000J0D01*
G01*
X149235000Y-91600000D01*
G75*
G02*
X149435000Y-91800000I0J-200000D01*
G01*
G37*
%TD.AperFunction*%
%TO.P,R3,1*%
%TO.N,+3V3*%
%TA.AperFunction,SMDPad,CuDef*%
G36*
G01*
X151085000Y-91800000D02*
X151085000Y-92350000D01*
G75*
G02*
X150885000Y-92550000I-200000J0D01*
G01*
X150485000Y-92550000D01*
G75*
G02*
X150285000Y-92350000I0J200000D01*
G01*
X150285000Y-91800000D01*
G75*
G02*
X150485000Y-91600000I200000J0D01*
G01*
X150885000Y-91600000D01*
G75*
G02*
X151085000Y-91800000I0J-200000D01*
G01*
G37*
%TD.AperFunction*%
%TD*%
%TO.P,R2,2*%
%TO.N,Net-(D1-Pad2)*%
%TA.AperFunction,SMDPad,CuDef*%
G36*
G01*
X149435000Y-93705000D02*
X149435000Y-94255000D01*
G75*
G02*
X149235000Y-94455000I-200000J0D01*
G01*
X148835000Y-94455000D01*
G75*
G02*
X148635000Y-94255000I0J200000D01*
G01*
X148635000Y-93705000D01*
G75*
G02*
X148835000Y-93505000I200000J0D01*
G01*
X149235000Y-93505000D01*
G75*
G02*
X149435000Y-93705000I0J-200000D01*
G01*
G37*
%TD.AperFunction*%
%TO.P,R2,1*%
%TO.N,+3V3*%
%TA.AperFunction,SMDPad,CuDef*%
G36*
G01*
X151085000Y-93705000D02*
X151085000Y-94255000D01*
G75*
G02*
X150885000Y-94455000I-200000J0D01*
G01*
X150485000Y-94455000D01*
G75*
G02*
X150285000Y-94255000I0J200000D01*
G01*
X150285000Y-93705000D01*
G75*
G02*
X150485000Y-93505000I200000J0D01*
G01*
X150885000Y-93505000D01*
G75*
G02*
X151085000Y-93705000I0J-200000D01*
G01*
G37*
%TD.AperFunction*%
%TD*%
D20*
%TO.P,J1,6*%
%TO.N,GND*%
X140925000Y-70125000D03*
X132125000Y-70125000D03*
X140925000Y-75625000D03*
X132125000Y-75625000D03*
D21*
%TO.P,J1,1*%
%TO.N,/V_USB*%
X138125000Y-75625000D03*
%TO.P,J1,2*%
%TO.N,/D-*%
X137325000Y-75625000D03*
%TO.P,J1,3*%
%TO.N,/D+*%
X136525000Y-75625000D03*
%TO.P,J1,4*%
%TO.N,GND*%
X135725000Y-75625000D03*
%TO.P,J1,5*%
X134925000Y-75625000D03*
%TD*%
%TO.P,D6,2*%
%TO.N,Net-(D6-Pad2)*%
%TA.AperFunction,SMDPad,CuDef*%
G36*
G01*
X157223750Y-108935000D02*
X157736250Y-108935000D01*
G75*
G02*
X157955000Y-109153750I0J-218750D01*
G01*
X157955000Y-109591250D01*
G75*
G02*
X157736250Y-109810000I-218750J0D01*
G01*
X157223750Y-109810000D01*
G75*
G02*
X157005000Y-109591250I0J218750D01*
G01*
X157005000Y-109153750D01*
G75*
G02*
X157223750Y-108935000I218750J0D01*
G01*
G37*
%TD.AperFunction*%
%TO.P,D6,1*%
%TO.N,GND*%
%TA.AperFunction,SMDPad,CuDef*%
G36*
G01*
X157223750Y-107360000D02*
X157736250Y-107360000D01*
G75*
G02*
X157955000Y-107578750I0J-218750D01*
G01*
X157955000Y-108016250D01*
G75*
G02*
X157736250Y-108235000I-218750J0D01*
G01*
X157223750Y-108235000D01*
G75*
G02*
X157005000Y-108016250I0J218750D01*
G01*
X157005000Y-107578750D01*
G75*
G02*
X157223750Y-107360000I218750J0D01*
G01*
G37*
%TD.AperFunction*%
%TD*%
%TO.P,D4,2*%
%TO.N,Net-(D4-Pad2)*%
%TA.AperFunction,SMDPad,CuDef*%
G36*
G01*
X161668750Y-70835000D02*
X162181250Y-70835000D01*
G75*
G02*
X162400000Y-71053750I0J-218750D01*
G01*
X162400000Y-71491250D01*
G75*
G02*
X162181250Y-71710000I-218750J0D01*
G01*
X161668750Y-71710000D01*
G75*
G02*
X161450000Y-71491250I0J218750D01*
G01*
X161450000Y-71053750D01*
G75*
G02*
X161668750Y-70835000I218750J0D01*
G01*
G37*
%TD.AperFunction*%
%TO.P,D4,1*%
%TO.N,GND*%
%TA.AperFunction,SMDPad,CuDef*%
G36*
G01*
X161668750Y-69260000D02*
X162181250Y-69260000D01*
G75*
G02*
X162400000Y-69478750I0J-218750D01*
G01*
X162400000Y-69916250D01*
G75*
G02*
X162181250Y-70135000I-218750J0D01*
G01*
X161668750Y-70135000D01*
G75*
G02*
X161450000Y-69916250I0J218750D01*
G01*
X161450000Y-69478750D01*
G75*
G02*
X161668750Y-69260000I218750J0D01*
G01*
G37*
%TD.AperFunction*%
%TD*%
%TO.P,D3,2*%
%TO.N,Net-(D3-Pad2)*%
%TA.AperFunction,SMDPad,CuDef*%
G36*
G01*
X163573750Y-70835000D02*
X164086250Y-70835000D01*
G75*
G02*
X164305000Y-71053750I0J-218750D01*
G01*
X164305000Y-71491250D01*
G75*
G02*
X164086250Y-71710000I-218750J0D01*
G01*
X163573750Y-71710000D01*
G75*
G02*
X163355000Y-71491250I0J218750D01*
G01*
X163355000Y-71053750D01*
G75*
G02*
X163573750Y-70835000I218750J0D01*
G01*
G37*
%TD.AperFunction*%
%TO.P,D3,1*%
%TO.N,GND*%
%TA.AperFunction,SMDPad,CuDef*%
G36*
G01*
X163573750Y-69260000D02*
X164086250Y-69260000D01*
G75*
G02*
X164305000Y-69478750I0J-218750D01*
G01*
X164305000Y-69916250D01*
G75*
G02*
X164086250Y-70135000I-218750J0D01*
G01*
X163573750Y-70135000D01*
G75*
G02*
X163355000Y-69916250I0J218750D01*
G01*
X163355000Y-69478750D01*
G75*
G02*
X163573750Y-69260000I218750J0D01*
G01*
G37*
%TD.AperFunction*%
%TD*%
%TO.P,D2,2*%
%TO.N,Net-(D2-Pad2)*%
%TA.AperFunction,SMDPad,CuDef*%
G36*
G01*
X146400000Y-92331250D02*
X146400000Y-91818750D01*
G75*
G02*
X146618750Y-91600000I218750J0D01*
G01*
X147056250Y-91600000D01*
G75*
G02*
X147275000Y-91818750I0J-218750D01*
G01*
X147275000Y-92331250D01*
G75*
G02*
X147056250Y-92550000I-218750J0D01*
G01*
X146618750Y-92550000D01*
G75*
G02*
X146400000Y-92331250I0J218750D01*
G01*
G37*
%TD.AperFunction*%
%TO.P,D2,1*%
%TO.N,Net-(D2-Pad1)*%
%TA.AperFunction,SMDPad,CuDef*%
G36*
G01*
X144825000Y-92331250D02*
X144825000Y-91818750D01*
G75*
G02*
X145043750Y-91600000I218750J0D01*
G01*
X145481250Y-91600000D01*
G75*
G02*
X145700000Y-91818750I0J-218750D01*
G01*
X145700000Y-92331250D01*
G75*
G02*
X145481250Y-92550000I-218750J0D01*
G01*
X145043750Y-92550000D01*
G75*
G02*
X144825000Y-92331250I0J218750D01*
G01*
G37*
%TD.AperFunction*%
%TD*%
%TO.P,D1,2*%
%TO.N,Net-(D1-Pad2)*%
%TA.AperFunction,SMDPad,CuDef*%
G36*
G01*
X146400000Y-94236250D02*
X146400000Y-93723750D01*
G75*
G02*
X146618750Y-93505000I218750J0D01*
G01*
X147056250Y-93505000D01*
G75*
G02*
X147275000Y-93723750I0J-218750D01*
G01*
X147275000Y-94236250D01*
G75*
G02*
X147056250Y-94455000I-218750J0D01*
G01*
X146618750Y-94455000D01*
G75*
G02*
X146400000Y-94236250I0J218750D01*
G01*
G37*
%TD.AperFunction*%
%TO.P,D1,1*%
%TO.N,Net-(D1-Pad1)*%
%TA.AperFunction,SMDPad,CuDef*%
G36*
G01*
X144825000Y-94236250D02*
X144825000Y-93723750D01*
G75*
G02*
X145043750Y-93505000I218750J0D01*
G01*
X145481250Y-93505000D01*
G75*
G02*
X145700000Y-93723750I0J-218750D01*
G01*
X145700000Y-94236250D01*
G75*
G02*
X145481250Y-94455000I-218750J0D01*
G01*
X145043750Y-94455000D01*
G75*
G02*
X144825000Y-94236250I0J218750D01*
G01*
G37*
%TD.AperFunction*%
%TD*%
%TO.P,C12,2*%
%TO.N,+5V*%
%TA.AperFunction,SMDPad,CuDef*%
G36*
G01*
X138815000Y-115895000D02*
X139315000Y-115895000D01*
G75*
G02*
X139540000Y-116120000I0J-225000D01*
G01*
X139540000Y-116570000D01*
G75*
G02*
X139315000Y-116795000I-225000J0D01*
G01*
X138815000Y-116795000D01*
G75*
G02*
X138590000Y-116570000I0J225000D01*
G01*
X138590000Y-116120000D01*
G75*
G02*
X138815000Y-115895000I225000J0D01*
G01*
G37*
%TD.AperFunction*%
%TO.P,C12,1*%
%TO.N,GND*%
%TA.AperFunction,SMDPad,CuDef*%
G36*
G01*
X138815000Y-114345000D02*
X139315000Y-114345000D01*
G75*
G02*
X139540000Y-114570000I0J-225000D01*
G01*
X139540000Y-115020000D01*
G75*
G02*
X139315000Y-115245000I-225000J0D01*
G01*
X138815000Y-115245000D01*
G75*
G02*
X138590000Y-115020000I0J225000D01*
G01*
X138590000Y-114570000D01*
G75*
G02*
X138815000Y-114345000I225000J0D01*
G01*
G37*
%TD.AperFunction*%
%TD*%
%TO.P,C11,2*%
%TO.N,+5V*%
%TA.AperFunction,SMDPad,CuDef*%
G36*
G01*
X148975000Y-115895000D02*
X149475000Y-115895000D01*
G75*
G02*
X149700000Y-116120000I0J-225000D01*
G01*
X149700000Y-116570000D01*
G75*
G02*
X149475000Y-116795000I-225000J0D01*
G01*
X148975000Y-116795000D01*
G75*
G02*
X148750000Y-116570000I0J225000D01*
G01*
X148750000Y-116120000D01*
G75*
G02*
X148975000Y-115895000I225000J0D01*
G01*
G37*
%TD.AperFunction*%
%TO.P,C11,1*%
%TO.N,GND*%
%TA.AperFunction,SMDPad,CuDef*%
G36*
G01*
X148975000Y-114345000D02*
X149475000Y-114345000D01*
G75*
G02*
X149700000Y-114570000I0J-225000D01*
G01*
X149700000Y-115020000D01*
G75*
G02*
X149475000Y-115245000I-225000J0D01*
G01*
X148975000Y-115245000D01*
G75*
G02*
X148750000Y-115020000I0J225000D01*
G01*
X148750000Y-114570000D01*
G75*
G02*
X148975000Y-114345000I225000J0D01*
G01*
G37*
%TD.AperFunction*%
%TD*%
%TO.P,C5,2*%
%TO.N,GND*%
%TA.AperFunction,SMDPad,CuDef*%
G36*
G01*
X131830000Y-85415000D02*
X132330000Y-85415000D01*
G75*
G02*
X132555000Y-85640000I0J-225000D01*
G01*
X132555000Y-86090000D01*
G75*
G02*
X132330000Y-86315000I-225000J0D01*
G01*
X131830000Y-86315000D01*
G75*
G02*
X131605000Y-86090000I0J225000D01*
G01*
X131605000Y-85640000D01*
G75*
G02*
X131830000Y-85415000I225000J0D01*
G01*
G37*
%TD.AperFunction*%
%TO.P,C5,1*%
%TO.N,+3V3*%
%TA.AperFunction,SMDPad,CuDef*%
G36*
G01*
X131830000Y-83865000D02*
X132330000Y-83865000D01*
G75*
G02*
X132555000Y-84090000I0J-225000D01*
G01*
X132555000Y-84540000D01*
G75*
G02*
X132330000Y-84765000I-225000J0D01*
G01*
X131830000Y-84765000D01*
G75*
G02*
X131605000Y-84540000I0J225000D01*
G01*
X131605000Y-84090000D01*
G75*
G02*
X131830000Y-83865000I225000J0D01*
G01*
G37*
%TD.AperFunction*%
%TD*%
%TO.P,R12,2*%
%TO.N,/LV_R_SER*%
%TA.AperFunction,SMDPad,CuDef*%
G36*
G01*
X155850000Y-111970000D02*
X155300000Y-111970000D01*
G75*
G02*
X155100000Y-111770000I0J200000D01*
G01*
X155100000Y-111370000D01*
G75*
G02*
X155300000Y-111170000I200000J0D01*
G01*
X155850000Y-111170000D01*
G75*
G02*
X156050000Y-111370000I0J-200000D01*
G01*
X156050000Y-111770000D01*
G75*
G02*
X155850000Y-111970000I-200000J0D01*
G01*
G37*
%TD.AperFunction*%
%TO.P,R12,1*%
%TO.N,/R_SER*%
%TA.AperFunction,SMDPad,CuDef*%
G36*
G01*
X155850000Y-113620000D02*
X155300000Y-113620000D01*
G75*
G02*
X155100000Y-113420000I0J200000D01*
G01*
X155100000Y-113020000D01*
G75*
G02*
X155300000Y-112820000I200000J0D01*
G01*
X155850000Y-112820000D01*
G75*
G02*
X156050000Y-113020000I0J-200000D01*
G01*
X156050000Y-113420000D01*
G75*
G02*
X155850000Y-113620000I-200000J0D01*
G01*
G37*
%TD.AperFunction*%
%TD*%
D22*
%TO.N,/LV_R_SER*%
X154305000Y-110490000D03*
X137795000Y-110490000D03*
%TO.N,GND*%
X160020000Y-72390000D03*
X144145000Y-83185000D03*
X133290132Y-83613561D03*
X133985000Y-69850000D03*
X139065000Y-69850000D03*
X131445000Y-73025000D03*
X141605000Y-73025000D03*
X149860000Y-113665000D03*
X139700000Y-113665000D03*
X146595000Y-77560000D03*
X146595000Y-78650000D03*
X145415000Y-80645000D03*
X147320000Y-74930000D03*
X154940000Y-74930000D03*
X137146186Y-85170661D03*
X136525000Y-73025000D03*
X136525000Y-71755000D03*
X136525000Y-70485000D03*
X134620000Y-78105000D03*
X133350000Y-78105000D03*
X132080000Y-78105000D03*
X130810000Y-95250000D03*
X130175000Y-110490000D03*
X137795000Y-112395000D03*
X133985000Y-112395000D03*
X152400000Y-107950000D03*
X152400000Y-105410000D03*
X160020000Y-78740000D03*
%TO.N,+3V3*%
X140335000Y-85725000D03*
X137160000Y-82550000D03*
X138430000Y-82550000D03*
X137795000Y-83185000D03*
X137160000Y-97790000D03*
X141605000Y-100330000D03*
%TO.N,/nRST*%
X155575000Y-100330000D03*
X151765000Y-100330000D03*
%TO.N,+5V*%
X150495000Y-117475000D03*
X137795000Y-118110000D03*
X147955000Y-118110000D03*
X163195000Y-119380000D03*
%TO.N,Net-(D1-Pad1)*%
X140335000Y-93980000D03*
X144780000Y-95250000D03*
%TO.N,Net-(D2-Pad1)*%
X144780000Y-90805000D03*
X140425010Y-92075000D03*
%TO.N,/CLK*%
X158750000Y-99060000D03*
X138508996Y-98655026D03*
%TO.N,/DIO*%
X160655000Y-97790000D03*
X138160010Y-97717885D03*
%TO.N,/R_SCLK*%
X134620000Y-127000000D03*
X143510000Y-127000000D03*
%TO.N,/DO_RESET*%
X141945010Y-119380000D03*
X149747839Y-120537839D03*
%TO.N,Net-(R4-Pad1)*%
X140335000Y-101600000D03*
X147955000Y-101600000D03*
%TO.N,/LED1*%
X139065000Y-93980000D03*
X164465000Y-78740000D03*
%TO.N,/LED2*%
X138339990Y-93271442D03*
X161925000Y-79919990D03*
%TO.N,/DTCT_Vtarget*%
X151765000Y-119380000D03*
%TO.N,/LV_R_RCLK*%
X139225010Y-107315000D03*
X135255000Y-107405010D03*
%TO.N,/~5V_OE*%
X135890000Y-114935000D03*
X146050000Y-114935000D03*
X133402542Y-107545829D03*
%TO.N,/LV_DO_RESET*%
X133253499Y-106095817D03*
X142420401Y-106889918D03*
%TO.N,/LV_MEM_~CE*%
X148590000Y-109220000D03*
X135274826Y-108855022D03*
%TO.N,/LV_MEM_~OE*%
X145415000Y-102325010D03*
X145288160Y-104510109D03*
%TO.N,/LV_MEM_~PGM*%
X147804845Y-108190165D03*
X140879990Y-107877885D03*
%TO.N,/LV_W_SER*%
X139065000Y-101600000D03*
X144309561Y-104715945D03*
%TO.N,/LV_W_RCLK*%
X144145000Y-106680000D03*
X140897885Y-98497115D03*
%TO.N,/LV_W_SCLK*%
X145415000Y-106680000D03*
X141605000Y-97790000D03*
%TO.N,/DATA_ROM\u005C~PROG~*%
X140970000Y-120015000D03*
%TO.N,/ADR_~PC~\u005CPROG*%
X135241540Y-125756921D03*
%TO.N,/LV_ADR_~PC~\u005CPROG*%
X137795000Y-106770010D03*
X132572325Y-106827954D03*
%TO.N,/LV_DATA_ROM\u005C~PROG~*%
X133722579Y-100267685D03*
X143534960Y-105887615D03*
%TO.N,/LV_BKPT_RCLK*%
X133824815Y-108585000D03*
X140269529Y-108669947D03*
%TO.N,/LV_DTCT_Vtarget*%
X134620000Y-105410000D03*
X149860000Y-109220000D03*
%TO.N,Net-(R14-Pad2)*%
X156210000Y-72390000D03*
X156210000Y-78740000D03*
%TO.N,Net-(R16-Pad2)*%
X142240000Y-79375000D03*
X134620000Y-79375000D03*
%TD*%
D23*
%TO.N,/LV_R_SER*%
X155575000Y-109410000D02*
X155575000Y-111570000D01*
X154495000Y-110490000D02*
X155575000Y-109410000D01*
X154305000Y-110490000D02*
X154495000Y-110490000D01*
X138500000Y-109785000D02*
X137795000Y-110490000D01*
X138520002Y-107028002D02*
X138500000Y-107048004D01*
X138500000Y-107048004D02*
X138500000Y-109785000D01*
X138520002Y-104525002D02*
X138520002Y-107028002D01*
X138500000Y-104505000D02*
X138520002Y-104525002D01*
%TO.N,/R_SER*%
X147225001Y-125635001D02*
X146050000Y-124460000D01*
X154234001Y-125635001D02*
X147225001Y-125635001D01*
X154940000Y-124929002D02*
X154234001Y-125635001D01*
X154940000Y-113855000D02*
X154940000Y-124929002D01*
X155575000Y-113220000D02*
X154940000Y-113855000D01*
%TO.N,GND*%
X151130000Y-73717500D02*
X151130000Y-74930000D01*
X151630000Y-75430000D02*
X151130000Y-74930000D01*
X151630000Y-76142500D02*
X151630000Y-75430000D01*
D24*
X148795000Y-74930000D02*
X147320000Y-76405000D01*
X153465000Y-74930000D02*
X154940000Y-76405000D01*
X151130000Y-74930000D02*
X153465000Y-74930000D01*
X158115000Y-76405000D02*
X154940000Y-76405000D01*
X151905000Y-81915000D02*
X151905000Y-83045000D01*
X151905000Y-83045000D02*
X151765000Y-83185000D01*
X151765000Y-83185000D02*
X147320000Y-83185000D01*
X146595000Y-82460000D02*
X146595000Y-80645000D01*
X147320000Y-83185000D02*
X146595000Y-82460000D01*
D23*
X139865010Y-120484990D02*
X138430000Y-121920000D01*
X139865010Y-115595010D02*
X139865010Y-120484990D01*
X139065000Y-114795000D02*
X139865010Y-115595010D01*
D24*
X138430000Y-121920000D02*
X135890000Y-121920000D01*
X135890000Y-121920000D02*
X135890000Y-124460000D01*
D23*
X163830000Y-69697500D02*
X161925000Y-69697500D01*
X133580000Y-87365000D02*
X132080000Y-85865000D01*
X134830000Y-87365000D02*
X133580000Y-87365000D01*
X134830000Y-88015000D02*
X133735000Y-88015000D01*
X132190000Y-88015000D02*
X132080000Y-88125000D01*
X134830000Y-88015000D02*
X132190000Y-88015000D01*
X157442500Y-107760000D02*
X157480000Y-107797500D01*
X153670000Y-107760000D02*
X157442500Y-107760000D01*
X134830000Y-84765000D02*
X133676410Y-84765000D01*
X133676410Y-84765000D02*
X132576410Y-85865000D01*
X132576410Y-85865000D02*
X132080000Y-85865000D01*
X158940000Y-79565000D02*
X158940000Y-80010000D01*
X158115000Y-78740000D02*
X158940000Y-79565000D01*
X160020000Y-71602500D02*
X160020000Y-72390000D01*
X161925000Y-69697500D02*
X160020000Y-71602500D01*
X158115000Y-76405000D02*
X158115000Y-78740000D01*
X144145000Y-84425000D02*
X144145000Y-83185000D01*
X143155000Y-85415000D02*
X144145000Y-84425000D01*
X142030000Y-85415000D02*
X143155000Y-85415000D01*
X133290132Y-83229868D02*
X133290132Y-83613561D01*
X133705000Y-82815000D02*
X133290132Y-83229868D01*
X134830000Y-82815000D02*
X133705000Y-82815000D01*
D24*
X133710000Y-70125000D02*
X133985000Y-69850000D01*
X132125000Y-70125000D02*
X133710000Y-70125000D01*
X139340000Y-70125000D02*
X139065000Y-69850000D01*
X140925000Y-70125000D02*
X139340000Y-70125000D01*
X132125000Y-73705000D02*
X131445000Y-73025000D01*
X132125000Y-75625000D02*
X132125000Y-73705000D01*
X140925000Y-73705000D02*
X141605000Y-73025000D01*
X140925000Y-75625000D02*
X140925000Y-73705000D01*
D23*
X135725000Y-75625000D02*
X134925000Y-75625000D01*
X132080000Y-88125000D02*
X132080000Y-85865000D01*
X149225000Y-114795000D02*
X149085000Y-114795000D01*
X149225000Y-114300000D02*
X149860000Y-113665000D01*
X149225000Y-114795000D02*
X149225000Y-114300000D01*
X139065000Y-114300000D02*
X139700000Y-113665000D01*
X139065000Y-114795000D02*
X139065000Y-114300000D01*
D24*
X147320000Y-76835000D02*
X146595000Y-77560000D01*
X147320000Y-76405000D02*
X147320000Y-76835000D01*
X146595000Y-77560000D02*
X146595000Y-78650000D01*
X146595000Y-80645000D02*
X146595000Y-78650000D01*
X146595000Y-80645000D02*
X145415000Y-80645000D01*
X149225000Y-74930000D02*
X147320000Y-74930000D01*
X151130000Y-74930000D02*
X149225000Y-74930000D01*
X149225000Y-74930000D02*
X148795000Y-74930000D01*
X154940000Y-76405000D02*
X154940000Y-74930000D01*
D23*
X134830000Y-84765000D02*
X136740525Y-84765000D01*
X136740525Y-84765000D02*
X137146186Y-85170661D01*
X135725000Y-73825000D02*
X136525000Y-73025000D01*
X135725000Y-75625000D02*
X135725000Y-73825000D01*
X136525000Y-73025000D02*
X136525000Y-71755000D01*
X136525000Y-71755000D02*
X136525000Y-70485000D01*
X133350000Y-78105000D02*
X132080000Y-78105000D01*
D24*
X134620000Y-78080000D02*
X134925000Y-77775000D01*
X134620000Y-78105000D02*
X134620000Y-78080000D01*
D23*
X134925000Y-75625000D02*
X134925000Y-77775000D01*
D24*
X132080000Y-78105000D02*
X133985000Y-78105000D01*
D23*
X133985000Y-78105000D02*
X133350000Y-78105000D01*
D24*
X134620000Y-78105000D02*
X133985000Y-78105000D01*
D23*
X133660000Y-110802500D02*
X131060000Y-110802500D01*
X136490000Y-95745000D02*
X136900000Y-96155000D01*
X132080000Y-95745000D02*
X136490000Y-95745000D01*
X131279990Y-96545010D02*
X132080000Y-95745000D01*
X131279990Y-100304990D02*
X131279990Y-96545010D01*
X132080000Y-101105000D02*
X131279990Y-100304990D01*
X131305000Y-95745000D02*
X130810000Y-95250000D01*
X132080000Y-95745000D02*
X131305000Y-95745000D01*
X132080000Y-93485000D02*
X132080000Y-95745000D01*
%TO.N,Net-(R4-Pad1)*%
X149035000Y-101600000D02*
X149035000Y-101925000D01*
%TO.N,GND*%
X150615000Y-105390000D02*
X150635000Y-105410000D01*
X150615000Y-103505000D02*
X150615000Y-105390000D01*
X150635000Y-103485000D02*
X150615000Y-103505000D01*
X150635000Y-99695000D02*
X150635000Y-103485000D01*
X152895000Y-101600000D02*
X150685000Y-101600000D01*
X154160000Y-93345000D02*
X155575000Y-93345000D01*
X155575000Y-94615000D02*
X154160000Y-94615000D01*
X154160000Y-97155000D02*
X155575000Y-97155000D01*
X154160000Y-94615000D02*
X154160000Y-93345000D01*
X130487500Y-110802500D02*
X130175000Y-110490000D01*
X131060000Y-110802500D02*
X130487500Y-110802500D01*
X141220000Y-110802500D02*
X139387500Y-110802500D01*
X139387500Y-110802500D02*
X137795000Y-112395000D01*
X133660000Y-112070000D02*
X133660000Y-110802500D01*
X133985000Y-112395000D02*
X133660000Y-112070000D01*
X152760000Y-94615000D02*
X154160000Y-94615000D01*
X152684999Y-94690001D02*
X152760000Y-94615000D01*
X152684999Y-97079999D02*
X152684999Y-94690001D01*
X152760000Y-97155000D02*
X152684999Y-97079999D01*
X154160000Y-97155000D02*
X152760000Y-97155000D01*
X152590000Y-107760000D02*
X152400000Y-107950000D01*
X153670000Y-107760000D02*
X152590000Y-107760000D01*
X150635000Y-105410000D02*
X152400000Y-105410000D01*
X148120010Y-106210010D02*
X149834990Y-106210010D01*
X145695107Y-103785107D02*
X148120010Y-106210010D01*
X149834990Y-106210010D02*
X150635000Y-105410000D01*
X143219893Y-103785107D02*
X145695107Y-103785107D01*
X142500000Y-104505000D02*
X143219893Y-103785107D01*
X158940000Y-80010000D02*
X158940000Y-79820000D01*
X158940000Y-79820000D02*
X160020000Y-78740000D01*
%TO.N,+3V3*%
X150685000Y-92075000D02*
X150685000Y-93980000D01*
X132140000Y-82165000D02*
X132080000Y-82105000D01*
X133735000Y-82165000D02*
X136275000Y-82165000D01*
X133735000Y-82165000D02*
X132140000Y-82165000D01*
X134830000Y-82165000D02*
X133735000Y-82165000D01*
X132080000Y-83750693D02*
X133665693Y-82165000D01*
X133665693Y-82165000D02*
X134830000Y-82165000D01*
X132080000Y-84315000D02*
X132080000Y-83750693D01*
X140335000Y-86795000D02*
X140335000Y-85725000D01*
X140905000Y-87365000D02*
X140335000Y-86795000D01*
X142030000Y-87365000D02*
X140905000Y-87365000D01*
D24*
X136775000Y-82165000D02*
X137160000Y-82550000D01*
X136275000Y-82165000D02*
X136775000Y-82165000D01*
X138430000Y-82550000D02*
X137160000Y-82550000D01*
X137160000Y-82550000D02*
X137795000Y-83185000D01*
D23*
X150685000Y-93980000D02*
X150685000Y-94805000D01*
X132080000Y-97295000D02*
X132080000Y-99555000D01*
X149065000Y-105390000D02*
X149085000Y-105410000D01*
X149065000Y-103505000D02*
X149065000Y-105390000D01*
X154445000Y-99745000D02*
X154495000Y-99695000D01*
X154445000Y-101600000D02*
X154445000Y-99745000D01*
X147597166Y-99930000D02*
X148846083Y-98681083D01*
X143875000Y-99930000D02*
X147597166Y-99930000D01*
X149102166Y-98425000D02*
X148846083Y-98681083D01*
X155575000Y-92075000D02*
X154160000Y-92075000D01*
X134080000Y-97530000D02*
X133845000Y-97295000D01*
X135525000Y-97530000D02*
X134080000Y-97530000D01*
X132080000Y-97295000D02*
X133845000Y-97295000D01*
X154160000Y-92075000D02*
X150685000Y-92075000D01*
X148614989Y-103054989D02*
X149065000Y-103505000D01*
X143950011Y-103054989D02*
X148614989Y-103054989D01*
X143875000Y-103130000D02*
X143950011Y-103054989D01*
X136900000Y-97530000D02*
X137160000Y-97790000D01*
X135525000Y-97530000D02*
X136900000Y-97530000D01*
X142005000Y-99930000D02*
X141605000Y-100330000D01*
X143875000Y-99930000D02*
X142005000Y-99930000D01*
X141605000Y-101610000D02*
X141605000Y-100330000D01*
X143125000Y-103130000D02*
X141605000Y-101610000D01*
X143875000Y-103130000D02*
X143125000Y-103130000D01*
X149192167Y-98515001D02*
X149102166Y-98425000D01*
X150685000Y-96842166D02*
X149102166Y-98425000D01*
X154495000Y-99695000D02*
X153244979Y-98444979D01*
X149925754Y-98515001D02*
X149192167Y-98515001D01*
X150685000Y-93980000D02*
X150685000Y-96842166D01*
X153244979Y-98444979D02*
X149995776Y-98444979D01*
X149995776Y-98444979D02*
X149925754Y-98515001D01*
%TO.N,/nRST*%
X149085000Y-99695000D02*
X147999989Y-100780011D01*
X147999989Y-100780011D02*
X143925011Y-100780011D01*
X143925011Y-100780011D02*
X143875000Y-100730000D01*
X156845000Y-97155000D02*
X158260000Y-97155000D01*
X156845000Y-99060000D02*
X155575000Y-100330000D01*
X156845000Y-97155000D02*
X156845000Y-99060000D01*
X152210000Y-100330000D02*
X152845000Y-99695000D01*
X151765000Y-100330000D02*
X152210000Y-100330000D01*
X149085000Y-99695000D02*
X149382166Y-99695000D01*
X149382166Y-99695000D02*
X150182176Y-98894990D01*
X152044990Y-98894990D02*
X152845000Y-99695000D01*
X150182176Y-98894990D02*
X152044990Y-98894990D01*
%TO.N,+5V*%
X147070000Y-110802500D02*
X147070000Y-116527500D01*
X136910000Y-115185000D02*
X136910000Y-110740000D01*
X136910000Y-116527500D02*
X136910000Y-115185000D01*
D24*
X156210000Y-84430000D02*
X156210000Y-85090000D01*
X156950001Y-85830001D02*
X161395001Y-85830001D01*
X156210000Y-85090000D02*
X156950001Y-85830001D01*
X161395001Y-85830001D02*
X163830000Y-88265000D01*
X162560000Y-121920000D02*
X158750000Y-121920000D01*
X156210000Y-121920000D02*
X158750000Y-121920000D01*
X158750000Y-121920000D02*
X158750000Y-124460000D01*
D23*
X138882500Y-116527500D02*
X139065000Y-116345000D01*
X136910000Y-116527500D02*
X138882500Y-116527500D01*
X149365000Y-116345000D02*
X150495000Y-117475000D01*
X149225000Y-116345000D02*
X149365000Y-116345000D01*
X137795000Y-117412500D02*
X136910000Y-116527500D01*
X137795000Y-118110000D02*
X137795000Y-117412500D01*
X147070000Y-117225000D02*
X147955000Y-118110000D01*
X147070000Y-116527500D02*
X147070000Y-117225000D01*
X147070000Y-116527500D02*
X147070000Y-114685000D01*
X140048002Y-112939998D02*
X139155002Y-112939998D01*
X147070000Y-114685000D02*
X145701998Y-113316998D01*
X145701998Y-113316998D02*
X140425002Y-113316998D01*
X140425002Y-113316998D02*
X140048002Y-112939998D01*
X139155002Y-112939998D02*
X136910000Y-115185000D01*
D24*
X163195000Y-121285000D02*
X162560000Y-121920000D01*
X163195000Y-119380000D02*
X163195000Y-121285000D01*
X163195000Y-119380000D02*
X163195000Y-118745000D01*
X163195000Y-118745000D02*
X163830000Y-118110000D01*
X163830000Y-118110000D02*
X163830000Y-88265000D01*
D23*
%TO.N,Net-(D1-Pad2)*%
X146837500Y-93980000D02*
X149035000Y-93980000D01*
%TO.N,Net-(D1-Pad1)*%
X135955000Y-86065000D02*
X139700000Y-89810000D01*
X134830000Y-86065000D02*
X135955000Y-86065000D01*
X139700000Y-93345000D02*
X140335000Y-93980000D01*
X139700000Y-89810000D02*
X139700000Y-93345000D01*
X144780000Y-94462500D02*
X145262500Y-93980000D01*
X144780000Y-95250000D02*
X144780000Y-94462500D01*
%TO.N,Net-(D2-Pad2)*%
X146837500Y-92075000D02*
X149035000Y-92075000D01*
%TO.N,Net-(D2-Pad1)*%
X144780000Y-91592500D02*
X145262500Y-92075000D01*
X144780000Y-90805000D02*
X144780000Y-91592500D01*
X134830000Y-85415000D02*
X135955000Y-85415000D01*
X135955000Y-85415000D02*
X140425010Y-89885010D01*
X140425010Y-89885010D02*
X140425010Y-92075000D01*
%TO.N,Net-(D3-Pad2)*%
X163830000Y-71272500D02*
X163830000Y-72835000D01*
%TO.N,Net-(D4-Pad2)*%
X161925000Y-71272500D02*
X161925000Y-72835000D01*
%TO.N,Net-(D6-Pad2)*%
X157480000Y-109372500D02*
X157480000Y-111570000D01*
%TO.N,/V_USB*%
X138125000Y-75625000D02*
X138490000Y-75625000D01*
D24*
X144985000Y-73455000D02*
X147320000Y-73455000D01*
X143510000Y-78105000D02*
X144145000Y-77470000D01*
X144145000Y-77470000D02*
X144145000Y-74295000D01*
X140074998Y-78105000D02*
X143510000Y-78105000D01*
X139065000Y-77095002D02*
X140074998Y-78105000D01*
X139065000Y-76200000D02*
X139065000Y-77095002D01*
X144145000Y-74295000D02*
X144985000Y-73455000D01*
X138490000Y-75625000D02*
X139065000Y-76200000D01*
X147320000Y-71120000D02*
X147320000Y-73455000D01*
X147320000Y-73455000D02*
X149020000Y-73455000D01*
X149020000Y-73455000D02*
X149282500Y-73717500D01*
D23*
X150130000Y-73717500D02*
X149282500Y-73717500D01*
X132080000Y-91935000D02*
X132080000Y-89675000D01*
X136230000Y-84115000D02*
X136525000Y-83820000D01*
X134830000Y-84115000D02*
X136230000Y-84115000D01*
X132080000Y-89675000D02*
X132220000Y-89675000D01*
X133629999Y-84314990D02*
X133829989Y-84115000D01*
X132715000Y-85090000D02*
X133490010Y-84314990D01*
X131445000Y-85090000D02*
X132715000Y-85090000D01*
X130810000Y-88405000D02*
X130810000Y-85725000D01*
X132080000Y-89675000D02*
X130810000Y-88405000D01*
X130810000Y-85725000D02*
X131445000Y-85090000D01*
X133829989Y-84115000D02*
X134830000Y-84115000D01*
X133490010Y-84314990D02*
X133629999Y-84314990D01*
D24*
X136949996Y-83820000D02*
X136525000Y-83820000D01*
X139065000Y-77095002D02*
X139430002Y-77460004D01*
X139430002Y-77460004D02*
X139430002Y-83030002D01*
X139430002Y-83030002D02*
X138275002Y-84185002D01*
X138275002Y-84185002D02*
X137314998Y-84185002D01*
X137314998Y-84185002D02*
X136949996Y-83820000D01*
D23*
%TO.N,Net-(J2-Pad8)*%
X156845000Y-95885000D02*
X158260000Y-95885000D01*
%TO.N,Net-(J2-Pad7)*%
X154160000Y-95885000D02*
X155575000Y-95885000D01*
%TO.N,Net-(J2-Pad6)*%
X156845000Y-94615000D02*
X158260000Y-94615000D01*
%TO.N,/CLK*%
X156845000Y-93345000D02*
X158260000Y-93345000D01*
X159660000Y-93345000D02*
X158260000Y-93345000D01*
X159735001Y-93420001D02*
X159660000Y-93345000D01*
X159735001Y-98074999D02*
X159735001Y-93420001D01*
X158750000Y-99060000D02*
X159735001Y-98074999D01*
X138508996Y-100896004D02*
X138508996Y-98655026D01*
X136275000Y-103130000D02*
X138508996Y-100896004D01*
X135525000Y-103130000D02*
X136275000Y-103130000D01*
%TO.N,/DIO*%
X156845000Y-92075000D02*
X158260000Y-92075000D01*
X159660000Y-92075000D02*
X158260000Y-92075000D01*
X160655000Y-93070000D02*
X159660000Y-92075000D01*
X160655000Y-97790000D02*
X160655000Y-93070000D01*
X137760011Y-100844989D02*
X137760011Y-98262993D01*
X137760011Y-98262993D02*
X138160010Y-97862994D01*
X135525000Y-102330000D02*
X136275000Y-102330000D01*
X136275000Y-102330000D02*
X137760011Y-100844989D01*
X138160010Y-97862994D02*
X138160010Y-97717885D01*
%TO.N,/R_RCLK*%
X137704998Y-127725002D02*
X140970000Y-124460000D01*
X134310000Y-116527500D02*
X134310000Y-119688590D01*
X134271998Y-127725002D02*
X137704998Y-127725002D01*
X132899989Y-121098600D02*
X132899989Y-126352993D01*
X134310000Y-119688590D02*
X132899989Y-121098600D01*
X132899989Y-126352993D02*
X134271998Y-127725002D01*
%TO.N,/R_SCLK*%
X134960000Y-116527500D02*
X134960000Y-119675000D01*
X134960000Y-119675000D02*
X133350000Y-121285000D01*
X133350000Y-125730000D02*
X134620000Y-127000000D01*
X133350000Y-121285000D02*
X133350000Y-125730000D01*
X143510000Y-127000000D02*
X143510000Y-124460000D01*
%TO.N,/DO_RESET*%
X141870000Y-119304990D02*
X141945010Y-119380000D01*
X141870000Y-116527500D02*
X141870000Y-119304990D01*
X149765001Y-120555001D02*
X149747839Y-120537839D01*
X149765001Y-122294003D02*
X149765001Y-120555001D01*
X150755997Y-123284999D02*
X149765001Y-122294003D01*
X152494999Y-123284999D02*
X150755997Y-123284999D01*
X153670000Y-124460000D02*
X152494999Y-123284999D01*
%TO.N,/W_RCLK*%
X142520000Y-116527500D02*
X142520000Y-118881988D01*
X142520000Y-118881988D02*
X142670011Y-119031999D01*
X142670011Y-119031999D02*
X142670011Y-120219989D01*
X142670011Y-120219989D02*
X140970000Y-121920000D01*
%TO.N,/W_SCLK*%
X143170000Y-121580000D02*
X143510000Y-121920000D01*
X143170000Y-116527500D02*
X143170000Y-121580000D01*
%TO.N,/W_SER*%
X143820000Y-116527500D02*
X143820000Y-117785000D01*
X146050000Y-120015000D02*
X146050000Y-121920000D01*
X143820000Y-117785000D02*
X146050000Y-120015000D01*
%TO.N,/MEM_~OE*%
X148590000Y-121385000D02*
X148590000Y-121920000D01*
X144470000Y-117265000D02*
X148590000Y-121385000D01*
X144470000Y-116527500D02*
X144470000Y-117265000D01*
%TO.N,/MEM_~PGM*%
X149697094Y-119285013D02*
X151130000Y-120717919D01*
X145120000Y-117265000D02*
X147140013Y-119285013D01*
X147140013Y-119285013D02*
X149697094Y-119285013D01*
X145120000Y-116527500D02*
X145120000Y-117265000D01*
X151130000Y-120717919D02*
X151130000Y-121920000D01*
%TO.N,/MEM_~CE*%
X150147000Y-118835002D02*
X153231998Y-121920000D01*
X145770000Y-116527500D02*
X145770000Y-117265000D01*
X153231998Y-121920000D02*
X153670000Y-121920000D01*
X147340002Y-118835002D02*
X150147000Y-118835002D01*
X145770000Y-117265000D02*
X147340002Y-118835002D01*
%TO.N,Net-(R4-Pad1)*%
X141700000Y-102965000D02*
X140335000Y-101600000D01*
X141700000Y-104505000D02*
X141700000Y-102965000D01*
X147955000Y-101600000D02*
X149035000Y-101600000D01*
%TO.N,/LED1*%
X138500000Y-94545000D02*
X139065000Y-93980000D01*
X138500000Y-96155000D02*
X138500000Y-94545000D01*
X163830000Y-78105000D02*
X163830000Y-74485000D01*
X164465000Y-78740000D02*
X163830000Y-78105000D01*
%TO.N,/LED2*%
X137700000Y-93911432D02*
X138339990Y-93271442D01*
X137700000Y-96155000D02*
X137700000Y-93911432D01*
X161925000Y-74485000D02*
X161925000Y-79919990D01*
%TO.N,/DTCT_Vtarget*%
X153670000Y-113220000D02*
X154495000Y-112395000D01*
X156655000Y-112395000D02*
X157480000Y-113220000D01*
X154495000Y-112395000D02*
X156655000Y-112395000D01*
X151765000Y-115125000D02*
X153670000Y-113220000D01*
X151765000Y-119380000D02*
X151765000Y-115125000D01*
%TO.N,/LV_R_RCLK*%
X139300000Y-104505000D02*
X139300000Y-107240010D01*
X139300000Y-107240010D02*
X139225010Y-107315000D01*
X134549825Y-109157855D02*
X134549825Y-108110185D01*
X134960000Y-109568030D02*
X134549825Y-109157855D01*
X134549825Y-108110185D02*
X135255000Y-107405010D01*
X134960000Y-110802500D02*
X134960000Y-109568030D01*
%TO.N,/LV_R_SCLK*%
X137700000Y-104505000D02*
X137700000Y-105701996D01*
X135610000Y-110065000D02*
X135610000Y-110802500D01*
X137069998Y-106331998D02*
X137069998Y-108605002D01*
X137069998Y-108605002D02*
X135610000Y-110065000D01*
X137700000Y-105701996D02*
X137069998Y-106331998D01*
%TO.N,/~5V_OE*%
X136260000Y-115305000D02*
X135890000Y-114935000D01*
X136260000Y-116527500D02*
X136260000Y-115305000D01*
X146420000Y-115305000D02*
X146420000Y-116527500D01*
X146050000Y-114935000D02*
X146420000Y-115305000D01*
X133894998Y-105758002D02*
X134075002Y-105938006D01*
X135525000Y-100730000D02*
X134921994Y-100730000D01*
X134921994Y-100730000D02*
X133894998Y-101756996D01*
X134075002Y-106873369D02*
X133402542Y-107545829D01*
X133894998Y-101756996D02*
X133894998Y-105758002D01*
X134075002Y-105938006D02*
X134075002Y-106873369D01*
%TO.N,/LV_DO_RESET*%
X134449990Y-100255010D02*
X134449990Y-100565594D01*
X133350000Y-105999316D02*
X133253499Y-106095817D01*
X133350000Y-101665583D02*
X133350000Y-105999316D01*
X134449990Y-100565594D02*
X133350000Y-101665583D01*
X134775000Y-99930000D02*
X134449990Y-100255010D01*
X135525000Y-99930000D02*
X134775000Y-99930000D01*
X142520000Y-106989517D02*
X142420401Y-106889918D01*
X142520000Y-110802500D02*
X142520000Y-106989517D01*
%TO.N,/LV_MEM_~CE*%
X147265000Y-109220000D02*
X148590000Y-109220000D01*
X146420000Y-110065000D02*
X147265000Y-109220000D01*
X146420000Y-110802500D02*
X146420000Y-110065000D01*
X136619987Y-104785013D02*
X136619987Y-107509861D01*
X136619987Y-107509861D02*
X135274826Y-108855022D01*
X136900000Y-104505000D02*
X136619987Y-104785013D01*
%TO.N,/LV_MEM_~OE*%
X145410010Y-102330000D02*
X145415000Y-102325010D01*
X143875000Y-102330000D02*
X145410010Y-102330000D01*
X145120000Y-110802500D02*
X145120000Y-108684415D01*
X146590013Y-105811962D02*
X145288160Y-104510109D01*
X146590013Y-107214402D02*
X146590013Y-105811962D01*
X145120000Y-108684415D02*
X146590013Y-107214402D01*
%TO.N,/LV_MEM_~PGM*%
X145770000Y-110802500D02*
X145770000Y-110065000D01*
X145770000Y-110065000D02*
X147644835Y-108190165D01*
X147644835Y-108190165D02*
X147804845Y-108190165D01*
X140900000Y-104505000D02*
X140900000Y-107857875D01*
X140900000Y-107857875D02*
X140879990Y-107877885D01*
%TO.N,/LV_W_SER*%
X139464999Y-101200001D02*
X139464999Y-96319999D01*
X139464999Y-96319999D02*
X139300000Y-96155000D01*
X139065000Y-101600000D02*
X139464999Y-101200001D01*
X145471333Y-105663329D02*
X145256945Y-105663329D01*
X146140002Y-106331998D02*
X145471333Y-105663329D01*
X145256945Y-105663329D02*
X144309561Y-104715945D01*
X144470000Y-110802500D02*
X144470000Y-108698004D01*
X146140002Y-107028002D02*
X146140002Y-106331998D01*
X144470000Y-108698004D02*
X146140002Y-107028002D01*
%TO.N,/LV_W_RCLK*%
X143170000Y-110802500D02*
X143170000Y-107655000D01*
X143170000Y-107655000D02*
X144145000Y-106680000D01*
X140100000Y-96155000D02*
X140100000Y-97699230D01*
X140100000Y-97699230D02*
X140897885Y-98497115D01*
%TO.N,/LV_W_SCLK*%
X143820000Y-108275000D02*
X145415000Y-106680000D01*
X143820000Y-110802500D02*
X143820000Y-108275000D01*
X140900000Y-97085000D02*
X140900000Y-96155000D01*
X141605000Y-97790000D02*
X140900000Y-97085000D01*
%TO.N,/DATA_ROM\u005C~PROG~*%
X141220000Y-116527500D02*
X141220000Y-119765000D01*
X141220000Y-119765000D02*
X140970000Y-120015000D01*
%TO.N,/ADR_~PC~\u005CPROG*%
X134714999Y-121355999D02*
X134714999Y-125230380D01*
X135610000Y-116527500D02*
X135705009Y-116622509D01*
X135705009Y-120365989D02*
X134714999Y-121355999D01*
X135705009Y-116622509D02*
X135705009Y-120365989D01*
X134714999Y-125230380D02*
X135241540Y-125756921D01*
%TO.N,/UART_MCU_TX*%
X143875000Y-87435000D02*
X143155000Y-86715000D01*
X143155000Y-86715000D02*
X142030000Y-86715000D01*
X143875000Y-97530000D02*
X143875000Y-87435000D01*
%TO.N,/UART_MCU_RX*%
X142500000Y-89785000D02*
X142030000Y-89315000D01*
X142500000Y-96155000D02*
X142500000Y-89785000D01*
%TO.N,/LV_ADR_~PC~\u005CPROG*%
X136260000Y-110065000D02*
X137795000Y-108530000D01*
X137795000Y-108530000D02*
X137795000Y-106770010D01*
X136260000Y-110802500D02*
X136260000Y-110065000D01*
X132172326Y-106427955D02*
X132572325Y-106827954D01*
X135525000Y-98330000D02*
X134557834Y-98330000D01*
X132880010Y-105441986D02*
X132172326Y-106149670D01*
X132172326Y-106149670D02*
X132172326Y-106427955D01*
X132624998Y-100262836D02*
X132624998Y-100397164D01*
X132624998Y-100397164D02*
X132880010Y-100652176D01*
X132880010Y-100652176D02*
X132880010Y-105441986D01*
X134557834Y-98330000D02*
X132624998Y-100262836D01*
%TO.N,/LV_DATA_ROM\u005C~PROG~*%
X134960010Y-99354990D02*
X134713598Y-99354990D01*
X135185000Y-99130000D02*
X134960010Y-99354990D01*
X135525000Y-99130000D02*
X135185000Y-99130000D01*
X134713598Y-99354990D02*
X134324990Y-99743600D01*
X134324990Y-99743600D02*
X133800905Y-100267685D01*
X133800905Y-100267685D02*
X133722579Y-100267685D01*
X141605000Y-109800000D02*
X141605000Y-106680000D01*
X141605000Y-106680000D02*
X142397385Y-105887615D01*
X141870000Y-110065000D02*
X141605000Y-109800000D01*
X141870000Y-110802500D02*
X141870000Y-110065000D01*
X142397385Y-105887615D02*
X143534960Y-105887615D01*
D25*
%TO.N,/D+*%
X135480000Y-80865000D02*
X135580000Y-80965000D01*
X135580000Y-80965000D02*
X135886800Y-80965000D01*
X134830000Y-80865000D02*
X135480000Y-80865000D01*
X136525000Y-77500001D02*
X136525000Y-75625000D01*
X136700000Y-77675001D02*
X136525000Y-77500001D01*
X136700000Y-80151800D02*
X136700000Y-77675001D01*
X135886800Y-80965000D02*
X136700000Y-80151800D01*
%TO.N,/D-*%
X135580000Y-81415000D02*
X136073200Y-81415000D01*
X135480000Y-81515000D02*
X135580000Y-81415000D01*
X134830000Y-81515000D02*
X135480000Y-81515000D01*
X137325000Y-77500001D02*
X137325000Y-75625000D01*
X137150000Y-77675001D02*
X137325000Y-77500001D01*
X137150000Y-80338200D02*
X137150000Y-77675001D01*
X136073200Y-81415000D02*
X137150000Y-80338200D01*
D23*
%TO.N,/BKPT_RCLK*%
X133660000Y-117265000D02*
X133660000Y-116527500D01*
X132449978Y-118475022D02*
X133660000Y-117265000D01*
X132449978Y-126539393D02*
X132449978Y-118475022D01*
X152494987Y-128175013D02*
X134085598Y-128175013D01*
X156210000Y-124460000D02*
X152494987Y-128175013D01*
X134085598Y-128175013D02*
X132449978Y-126539393D01*
%TO.N,/LV_BKPT_RCLK*%
X134310000Y-110802500D02*
X134310000Y-109554441D01*
X133824815Y-109069256D02*
X133824815Y-108585000D01*
X134310000Y-109554441D02*
X133824815Y-109069256D01*
X140100000Y-108500418D02*
X140269529Y-108669947D01*
X140100000Y-104505000D02*
X140100000Y-108500418D01*
%TO.N,Net-(C16-Pad1)*%
X151130000Y-79185000D02*
X151955000Y-80010000D01*
X151130000Y-76142500D02*
X151130000Y-79185000D01*
X150355000Y-81610000D02*
X151955000Y-80010000D01*
X150355000Y-81915000D02*
X150355000Y-81610000D01*
X150630000Y-76142500D02*
X151072500Y-76142500D01*
D24*
%TO.N,Net-(C17-Pad2)*%
X154940000Y-73455000D02*
X158115000Y-73455000D01*
X158115000Y-73455000D02*
X158115000Y-67945000D01*
X158115000Y-67945000D02*
X157480000Y-67310000D01*
X157480000Y-67310000D02*
X149225000Y-67310000D01*
X147320000Y-69215000D02*
X147320000Y-69519990D01*
X149225000Y-67310000D02*
X147320000Y-69215000D01*
D23*
X152130000Y-73717500D02*
X152977500Y-73717500D01*
D24*
X153240000Y-73455000D02*
X152977500Y-73717500D01*
X154940000Y-73455000D02*
X153240000Y-73455000D01*
D23*
X154940000Y-71945000D02*
X154115000Y-71120000D01*
X154940000Y-73455000D02*
X154940000Y-71945000D01*
D24*
X156225000Y-81915000D02*
X153710000Y-84430000D01*
X161020002Y-76360002D02*
X161020002Y-79220002D01*
X158115000Y-73455000D02*
X161020002Y-76360002D01*
X161020002Y-79220002D02*
X160655000Y-79585004D01*
X160655000Y-79585004D02*
X160655000Y-80645000D01*
X159385000Y-81915000D02*
X156225000Y-81915000D01*
X160655000Y-80645000D02*
X159385000Y-81915000D01*
D23*
%TO.N,Net-(JP1-Pad2)*%
X150130000Y-79835000D02*
X150305000Y-80010000D01*
X150130000Y-76142500D02*
X150130000Y-79835000D01*
D24*
X150305000Y-80010000D02*
X149225000Y-80010000D01*
X148590000Y-80645000D02*
X148195010Y-80645000D01*
X149225000Y-80010000D02*
X148590000Y-80645000D01*
D23*
%TO.N,Net-(L1-Pad2)*%
X151630000Y-73717500D02*
X151630000Y-73160000D01*
X151630000Y-73160000D02*
X152205000Y-72585000D01*
D24*
X152205000Y-70485000D02*
X152205000Y-72585000D01*
D23*
%TO.N,Net-(L1-Pad1)*%
X150630000Y-73717500D02*
X150630000Y-73160000D01*
X150630000Y-73160000D02*
X150055000Y-72585000D01*
D24*
X150055000Y-70485000D02*
X150055000Y-72585000D01*
D23*
%TO.N,/LV_DTCT_Vtarget*%
X153670000Y-109410000D02*
X153579999Y-109500001D01*
X153579999Y-109500001D02*
X153579999Y-111479999D01*
X153579999Y-111479999D02*
X153670000Y-111570000D01*
X134620000Y-103611412D02*
X134620000Y-105410000D01*
X134449990Y-103441402D02*
X134620000Y-103611412D01*
X134775000Y-101530000D02*
X134449990Y-101855010D01*
X134449990Y-101855010D02*
X134449990Y-103441402D01*
X135525000Y-101530000D02*
X134775000Y-101530000D01*
X153480000Y-109220000D02*
X153670000Y-109410000D01*
X149860000Y-109220000D02*
X153480000Y-109220000D01*
%TO.N,Net-(R13-Pad2)*%
X154115000Y-69470000D02*
X155765000Y-71120000D01*
X154115000Y-69215000D02*
X154115000Y-69470000D01*
%TO.N,Net-(R14-Pad2)*%
X156490010Y-72109990D02*
X156210000Y-72390000D01*
X156490010Y-69540010D02*
X156490010Y-72109990D01*
X156165000Y-69215000D02*
X156490010Y-69540010D01*
X155765000Y-69215000D02*
X156165000Y-69215000D01*
X156210000Y-78930000D02*
X157290000Y-80010000D01*
X156210000Y-78740000D02*
X156210000Y-78930000D01*
X152130000Y-76142500D02*
X152130000Y-78470000D01*
X152400000Y-78740000D02*
X156210000Y-78740000D01*
X152130000Y-78470000D02*
X152400000Y-78740000D01*
%TO.N,Net-(R16-Pad2)*%
X142240000Y-80655000D02*
X142030000Y-80865000D01*
X142240000Y-79375000D02*
X142240000Y-80655000D01*
X133540000Y-80455000D02*
X134620000Y-79375000D01*
X132080000Y-80455000D02*
X133540000Y-80455000D01*
%TD*%
M02*
