M48
; DRILL file {KiCad (5.1.9)-1} date 05/31/21 10:48:57
; FORMAT={-:-/ absolute / inch / decimal}
; #@! TF.CreationDate,2021-05-31T10:48:57+02:00
; #@! TF.GenerationSoftware,Kicad,Pcbnew,(5.1.9)-1
; #@! TF.FileFunction,Plated,1,2,PTH
FMAT,2
INCH
T1C0.0157
T2C0.0197
T3C0.0315
T4C0.0394
%
G90
G05
T1
X5.125Y-4.35
X5.15Y-3.75
X5.175Y-2.875
X5.175Y-4.95
X5.2Y-3.075
X5.2194Y-4.2058
X5.2462Y-4.177
X5.2476Y-3.2919
X5.25Y-3.075
X5.2521Y-4.2341
X5.2647Y-3.9475
X5.2687Y-4.275
X5.275Y-2.75
X5.275Y-4.425
X5.3Y-3.075
X5.3Y-3.125
X5.3Y-4.15
X5.3Y-5.0
X5.3245Y-4.9511
X5.325Y-4.2285
X5.3258Y-4.2856
X5.35Y-4.525
X5.375Y-2.775
X5.375Y-2.825
X5.375Y-2.875
X5.3995Y-3.3532
X5.4Y-3.25
X5.4Y-3.65
X5.4Y-3.85
X5.425Y-3.275
X5.425Y-4.2035
X5.425Y-4.35
X5.425Y-4.425
X5.425Y-4.65
X5.4394Y-3.8472
X5.45Y-3.25
X5.4531Y-3.8841
X5.475Y-2.75
X5.475Y-3.7
X5.475Y-4.0
X5.4813Y-4.225
X5.5Y-4.475
X5.5224Y-4.2783
X5.525Y-3.375
X5.525Y-3.7
X5.525Y-4.0
X5.5285Y-3.625
X5.5465Y-4.2472
X5.5472Y-3.8778
X5.55Y-4.725
X5.575Y-2.875
X5.575Y-3.85
X5.575Y-3.95
X5.5884Y-4.7
X5.6Y-3.125
X5.6071Y-4.2083
X5.65Y-5.0
X5.651Y-4.1688
X5.675Y-3.275
X5.675Y-4.2
X5.6815Y-4.1227
X5.7Y-3.575
X5.7Y-3.75
X5.72Y-4.1146
X5.725Y-2.8
X5.725Y-3.175
X5.725Y-3.5
X5.725Y-4.0285
X5.725Y-4.2
X5.75Y-4.525
X5.7715Y-3.0535
X5.7715Y-3.0965
X5.8Y-2.95
X5.8191Y-4.2595
X5.825Y-3.5
X5.825Y-4.0
X5.825Y-4.65
X5.85Y-4.3
X5.8956Y-4.7456
X5.9Y-4.2
X5.9Y-4.3
X5.9Y-4.475
X5.925Y-4.625
X5.95Y-4.4
X5.975Y-3.95
X5.975Y-4.7
X6.0Y-4.15
X6.0Y-4.25
X6.075Y-4.35
X6.1Y-2.95
X6.125Y-3.95
X6.15Y-2.85
X6.15Y-3.1
X6.25Y-3.9
X6.3Y-2.85
X6.3Y-3.1
X6.325Y-2.9
X6.325Y-3.85
X6.35Y-4.75
X6.35Y-4.925
X6.425Y-4.7
X6.475Y-3.1
T2
X6.125Y-3.625
X6.125Y-3.675
X6.125Y-3.725
X6.125Y-3.775
X6.125Y-3.825
X6.175Y-3.625
X6.175Y-3.675
X6.175Y-3.725
X6.175Y-3.775
X6.175Y-3.825
T3
X6.0516Y-3.324
X6.0516Y-3.45
X6.15Y-3.324
X6.15Y-3.45
X6.2484Y-3.324
X6.2484Y-3.45
T4
X5.35Y-4.8
X5.35Y-4.9
X5.45Y-4.8
X5.45Y-4.9
X5.55Y-4.8
X5.55Y-4.9
X5.65Y-4.8
X5.65Y-4.9
X5.75Y-4.8
X5.75Y-4.9
X5.85Y-4.8
X5.85Y-4.9
X5.95Y-4.8
X5.95Y-4.9
X6.05Y-4.8
X6.05Y-4.9
X6.15Y-4.8
X6.15Y-4.9
X6.25Y-4.8
X6.25Y-4.9
T0
M30
