%TF.GenerationSoftware,KiCad,Pcbnew,(5.1.9)-1*%
%TF.CreationDate,2021-03-30T23:32:36+02:00*%
%TF.ProjectId,Programmer,50726f67-7261-46d6-9d65-722e6b696361,v0.1*%
%TF.SameCoordinates,Original*%
%TF.FileFunction,Legend,Top*%
%TF.FilePolarity,Positive*%
%FSLAX46Y46*%
G04 Gerber Fmt 4.6, Leading zero omitted, Abs format (unit mm)*
G04 Created by KiCad (PCBNEW (5.1.9)-1) date 2021-03-30 23:32:36*
%MOMM*%
%LPD*%
G01*
G04 APERTURE LIST*
%ADD10C,0.550000*%
%ADD11C,0.250000*%
%ADD12C,0.120000*%
%ADD13C,0.150000*%
G04 APERTURE END LIST*
D10*
X162088571Y-117799523D02*
X164288571Y-117799523D01*
X162193333Y-117799523D02*
X162088571Y-117590000D01*
X162088571Y-117170952D01*
X162193333Y-116961428D01*
X162298095Y-116856666D01*
X162507619Y-116751904D01*
X163136190Y-116751904D01*
X163345714Y-116856666D01*
X163450476Y-116961428D01*
X163555238Y-117170952D01*
X163555238Y-117590000D01*
X163450476Y-117799523D01*
X163450476Y-115913809D02*
X163555238Y-115704285D01*
X163555238Y-115285238D01*
X163450476Y-115075714D01*
X163240952Y-114970952D01*
X163136190Y-114970952D01*
X162926666Y-115075714D01*
X162821904Y-115285238D01*
X162821904Y-115599523D01*
X162717142Y-115809047D01*
X162507619Y-115913809D01*
X162402857Y-115913809D01*
X162193333Y-115809047D01*
X162088571Y-115599523D01*
X162088571Y-115285238D01*
X162193333Y-115075714D01*
X163555238Y-114028095D02*
X161355238Y-114028095D01*
X162926666Y-113294761D01*
X161355238Y-112561428D01*
X163555238Y-112561428D01*
X163345714Y-110256666D02*
X163450476Y-110361428D01*
X163555238Y-110675714D01*
X163555238Y-110885238D01*
X163450476Y-111199523D01*
X163240952Y-111409047D01*
X163031428Y-111513809D01*
X162612380Y-111618571D01*
X162298095Y-111618571D01*
X161879047Y-111513809D01*
X161669523Y-111409047D01*
X161460000Y-111199523D01*
X161355238Y-110885238D01*
X161355238Y-110675714D01*
X161460000Y-110361428D01*
X161564761Y-110256666D01*
X161355238Y-109313809D02*
X163136190Y-109313809D01*
X163345714Y-109209047D01*
X163450476Y-109104285D01*
X163555238Y-108894761D01*
X163555238Y-108475714D01*
X163450476Y-108266190D01*
X163345714Y-108161428D01*
X163136190Y-108056666D01*
X161355238Y-108056666D01*
X163555238Y-105332857D02*
X161355238Y-105332857D01*
X161355238Y-104494761D01*
X161460000Y-104285238D01*
X161564761Y-104180476D01*
X161774285Y-104075714D01*
X162088571Y-104075714D01*
X162298095Y-104180476D01*
X162402857Y-104285238D01*
X162507619Y-104494761D01*
X162507619Y-105332857D01*
X163555238Y-103132857D02*
X162088571Y-103132857D01*
X162507619Y-103132857D02*
X162298095Y-103028095D01*
X162193333Y-102923333D01*
X162088571Y-102713809D01*
X162088571Y-102504285D01*
X163555238Y-101456666D02*
X163450476Y-101666190D01*
X163345714Y-101770952D01*
X163136190Y-101875714D01*
X162507619Y-101875714D01*
X162298095Y-101770952D01*
X162193333Y-101666190D01*
X162088571Y-101456666D01*
X162088571Y-101142380D01*
X162193333Y-100932857D01*
X162298095Y-100828095D01*
X162507619Y-100723333D01*
X163136190Y-100723333D01*
X163345714Y-100828095D01*
X163450476Y-100932857D01*
X163555238Y-101142380D01*
X163555238Y-101456666D01*
X162088571Y-98837619D02*
X163869523Y-98837619D01*
X164079047Y-98942380D01*
X164183809Y-99047142D01*
X164288571Y-99256666D01*
X164288571Y-99570952D01*
X164183809Y-99780476D01*
X163450476Y-98837619D02*
X163555238Y-99047142D01*
X163555238Y-99466190D01*
X163450476Y-99675714D01*
X163345714Y-99780476D01*
X163136190Y-99885238D01*
X162507619Y-99885238D01*
X162298095Y-99780476D01*
X162193333Y-99675714D01*
X162088571Y-99466190D01*
X162088571Y-99047142D01*
X162193333Y-98837619D01*
X163555238Y-97790000D02*
X162088571Y-97790000D01*
X162507619Y-97790000D02*
X162298095Y-97685238D01*
X162193333Y-97580476D01*
X162088571Y-97370952D01*
X162088571Y-97161428D01*
X163555238Y-95485238D02*
X162402857Y-95485238D01*
X162193333Y-95590000D01*
X162088571Y-95799523D01*
X162088571Y-96218571D01*
X162193333Y-96428095D01*
X163450476Y-95485238D02*
X163555238Y-95694761D01*
X163555238Y-96218571D01*
X163450476Y-96428095D01*
X163240952Y-96532857D01*
X163031428Y-96532857D01*
X162821904Y-96428095D01*
X162717142Y-96218571D01*
X162717142Y-95694761D01*
X162612380Y-95485238D01*
X163555238Y-94437619D02*
X162088571Y-94437619D01*
X162298095Y-94437619D02*
X162193333Y-94332857D01*
X162088571Y-94123333D01*
X162088571Y-93809047D01*
X162193333Y-93599523D01*
X162402857Y-93494761D01*
X163555238Y-93494761D01*
X162402857Y-93494761D02*
X162193333Y-93390000D01*
X162088571Y-93180476D01*
X162088571Y-92866190D01*
X162193333Y-92656666D01*
X162402857Y-92551904D01*
X163555238Y-92551904D01*
X163555238Y-91504285D02*
X162088571Y-91504285D01*
X162298095Y-91504285D02*
X162193333Y-91399523D01*
X162088571Y-91190000D01*
X162088571Y-90875714D01*
X162193333Y-90666190D01*
X162402857Y-90561428D01*
X163555238Y-90561428D01*
X162402857Y-90561428D02*
X162193333Y-90456666D01*
X162088571Y-90247142D01*
X162088571Y-89932857D01*
X162193333Y-89723333D01*
X162402857Y-89618571D01*
X163555238Y-89618571D01*
X163450476Y-87732857D02*
X163555238Y-87942380D01*
X163555238Y-88361428D01*
X163450476Y-88570952D01*
X163240952Y-88675714D01*
X162402857Y-88675714D01*
X162193333Y-88570952D01*
X162088571Y-88361428D01*
X162088571Y-87942380D01*
X162193333Y-87732857D01*
X162402857Y-87628095D01*
X162612380Y-87628095D01*
X162821904Y-88675714D01*
X163555238Y-86685238D02*
X162088571Y-86685238D01*
X162507619Y-86685238D02*
X162298095Y-86580476D01*
X162193333Y-86475714D01*
X162088571Y-86266190D01*
X162088571Y-86056666D01*
X162088571Y-83856666D02*
X163555238Y-83332857D01*
X162088571Y-82809047D01*
X161355238Y-81551904D02*
X161355238Y-81342380D01*
X161460000Y-81132857D01*
X161564761Y-81028095D01*
X161774285Y-80923333D01*
X162193333Y-80818571D01*
X162717142Y-80818571D01*
X163136190Y-80923333D01*
X163345714Y-81028095D01*
X163450476Y-81132857D01*
X163555238Y-81342380D01*
X163555238Y-81551904D01*
X163450476Y-81761428D01*
X163345714Y-81866190D01*
X163136190Y-81970952D01*
X162717142Y-82075714D01*
X162193333Y-82075714D01*
X161774285Y-81970952D01*
X161564761Y-81866190D01*
X161460000Y-81761428D01*
X161355238Y-81551904D01*
X163345714Y-79875714D02*
X163450476Y-79770952D01*
X163555238Y-79875714D01*
X163450476Y-79980476D01*
X163345714Y-79875714D01*
X163555238Y-79875714D01*
X163555238Y-77675714D02*
X163555238Y-78932857D01*
X163555238Y-78304285D02*
X161355238Y-78304285D01*
X161669523Y-78513809D01*
X161879047Y-78723333D01*
X161983809Y-78932857D01*
D11*
X144105714Y-84619880D02*
X144105714Y-85429404D01*
X144153333Y-85524642D01*
X144200952Y-85572261D01*
X144296190Y-85619880D01*
X144486666Y-85619880D01*
X144581904Y-85572261D01*
X144629523Y-85524642D01*
X144677142Y-85429404D01*
X144677142Y-84619880D01*
X145105714Y-85572261D02*
X145248571Y-85619880D01*
X145486666Y-85619880D01*
X145581904Y-85572261D01*
X145629523Y-85524642D01*
X145677142Y-85429404D01*
X145677142Y-85334166D01*
X145629523Y-85238928D01*
X145581904Y-85191309D01*
X145486666Y-85143690D01*
X145296190Y-85096071D01*
X145200952Y-85048452D01*
X145153333Y-85000833D01*
X145105714Y-84905595D01*
X145105714Y-84810357D01*
X145153333Y-84715119D01*
X145200952Y-84667500D01*
X145296190Y-84619880D01*
X145534285Y-84619880D01*
X145677142Y-84667500D01*
X146439047Y-85096071D02*
X146581904Y-85143690D01*
X146629523Y-85191309D01*
X146677142Y-85286547D01*
X146677142Y-85429404D01*
X146629523Y-85524642D01*
X146581904Y-85572261D01*
X146486666Y-85619880D01*
X146105714Y-85619880D01*
X146105714Y-84619880D01*
X146439047Y-84619880D01*
X146534285Y-84667500D01*
X146581904Y-84715119D01*
X146629523Y-84810357D01*
X146629523Y-84905595D01*
X146581904Y-85000833D01*
X146534285Y-85048452D01*
X146439047Y-85096071D01*
X146105714Y-85096071D01*
X147867619Y-85619880D02*
X147867619Y-84619880D01*
X148248571Y-84619880D01*
X148343809Y-84667500D01*
X148391428Y-84715119D01*
X148439047Y-84810357D01*
X148439047Y-84953214D01*
X148391428Y-85048452D01*
X148343809Y-85096071D01*
X148248571Y-85143690D01*
X147867619Y-85143690D01*
X148772380Y-84619880D02*
X149010476Y-85619880D01*
X149200952Y-84905595D01*
X149391428Y-85619880D01*
X149629523Y-84619880D01*
X150581904Y-85619880D02*
X150248571Y-85143690D01*
X150010476Y-85619880D02*
X150010476Y-84619880D01*
X150391428Y-84619880D01*
X150486666Y-84667500D01*
X150534285Y-84715119D01*
X150581904Y-84810357D01*
X150581904Y-84953214D01*
X150534285Y-85048452D01*
X150486666Y-85096071D01*
X150391428Y-85143690D01*
X150010476Y-85143690D01*
X144700952Y-86369880D02*
X144891428Y-86369880D01*
X144986666Y-86417500D01*
X145081904Y-86512738D01*
X145129523Y-86703214D01*
X145129523Y-87036547D01*
X145081904Y-87227023D01*
X144986666Y-87322261D01*
X144891428Y-87369880D01*
X144700952Y-87369880D01*
X144605714Y-87322261D01*
X144510476Y-87227023D01*
X144462857Y-87036547D01*
X144462857Y-86703214D01*
X144510476Y-86512738D01*
X144605714Y-86417500D01*
X144700952Y-86369880D01*
X145558095Y-87369880D02*
X145558095Y-86369880D01*
X146129523Y-87369880D01*
X146129523Y-86369880D01*
X146605714Y-86988928D02*
X147367619Y-86988928D01*
X148034285Y-86369880D02*
X148224761Y-86369880D01*
X148320000Y-86417500D01*
X148415238Y-86512738D01*
X148462857Y-86703214D01*
X148462857Y-87036547D01*
X148415238Y-87227023D01*
X148320000Y-87322261D01*
X148224761Y-87369880D01*
X148034285Y-87369880D01*
X147939047Y-87322261D01*
X147843809Y-87227023D01*
X147796190Y-87036547D01*
X147796190Y-86703214D01*
X147843809Y-86512738D01*
X147939047Y-86417500D01*
X148034285Y-86369880D01*
X149224761Y-86846071D02*
X148891428Y-86846071D01*
X148891428Y-87369880D02*
X148891428Y-86369880D01*
X149367619Y-86369880D01*
X150081904Y-86846071D02*
X149748571Y-86846071D01*
X149748571Y-87369880D02*
X149748571Y-86369880D01*
X150224761Y-86369880D01*
X142708333Y-94432380D02*
X142375000Y-93956190D01*
X142136904Y-94432380D02*
X142136904Y-93432380D01*
X142517857Y-93432380D01*
X142613095Y-93480000D01*
X142660714Y-93527619D01*
X142708333Y-93622857D01*
X142708333Y-93765714D01*
X142660714Y-93860952D01*
X142613095Y-93908571D01*
X142517857Y-93956190D01*
X142136904Y-93956190D01*
X143041666Y-93432380D02*
X143708333Y-94432380D01*
X143708333Y-93432380D02*
X143041666Y-94432380D01*
X142113095Y-91527380D02*
X142684523Y-91527380D01*
X142398809Y-92527380D02*
X142398809Y-91527380D01*
X142922619Y-91527380D02*
X143589285Y-92527380D01*
X143589285Y-91527380D02*
X142922619Y-92527380D01*
X159837380Y-110108809D02*
X158837380Y-110108809D01*
X158837380Y-109870714D01*
X158885000Y-109727857D01*
X158980238Y-109632619D01*
X159075476Y-109585000D01*
X159265952Y-109537380D01*
X159408809Y-109537380D01*
X159599285Y-109585000D01*
X159694523Y-109632619D01*
X159789761Y-109727857D01*
X159837380Y-109870714D01*
X159837380Y-110108809D01*
X158837380Y-109251666D02*
X158837380Y-108680238D01*
X159837380Y-108965952D02*
X158837380Y-108965952D01*
X159742142Y-107775476D02*
X159789761Y-107823095D01*
X159837380Y-107965952D01*
X159837380Y-108061190D01*
X159789761Y-108204047D01*
X159694523Y-108299285D01*
X159599285Y-108346904D01*
X159408809Y-108394523D01*
X159265952Y-108394523D01*
X159075476Y-108346904D01*
X158980238Y-108299285D01*
X158885000Y-108204047D01*
X158837380Y-108061190D01*
X158837380Y-107965952D01*
X158885000Y-107823095D01*
X158932619Y-107775476D01*
X158837380Y-107489761D02*
X158837380Y-106918333D01*
X159837380Y-107204047D02*
X158837380Y-107204047D01*
D12*
%TO.C,C18*%
X157205000Y-75641252D02*
X157205000Y-74218748D01*
X159025000Y-75641252D02*
X159025000Y-74218748D01*
%TO.C,C17*%
X154030000Y-75641252D02*
X154030000Y-74218748D01*
X155850000Y-75641252D02*
X155850000Y-74218748D01*
%TO.C,C15*%
X146410000Y-75641252D02*
X146410000Y-74218748D01*
X148230000Y-75641252D02*
X148230000Y-74218748D01*
%TO.C,R1*%
X153907258Y-99172500D02*
X153432742Y-99172500D01*
X153907258Y-100217500D02*
X153432742Y-100217500D01*
%TO.C,C10*%
X149719420Y-100205000D02*
X150000580Y-100205000D01*
X149719420Y-99185000D02*
X150000580Y-99185000D01*
%TO.C,U2*%
X136390000Y-96720000D02*
X136090000Y-96720000D01*
X136090000Y-96720000D02*
X136090000Y-97020000D01*
X143010000Y-96720000D02*
X143310000Y-96720000D01*
X143310000Y-96720000D02*
X143310000Y-97020000D01*
X136390000Y-103940000D02*
X136090000Y-103940000D01*
X136090000Y-103940000D02*
X136090000Y-103640000D01*
X143010000Y-103940000D02*
X143310000Y-103940000D01*
X143310000Y-103940000D02*
X143310000Y-103640000D01*
X143310000Y-103640000D02*
X144625000Y-103640000D01*
%TO.C,J2*%
X157975000Y-97785000D02*
X157975000Y-97850000D01*
X154445000Y-97785000D02*
X154445000Y-97850000D01*
X157975000Y-91380000D02*
X157975000Y-91445000D01*
X154445000Y-91380000D02*
X154445000Y-91445000D01*
X153120000Y-91445000D02*
X154445000Y-91445000D01*
X154445000Y-97850000D02*
X157975000Y-97850000D01*
X154445000Y-91380000D02*
X157975000Y-91380000D01*
%TO.C,C6*%
X153810580Y-102110000D02*
X153529420Y-102110000D01*
X153810580Y-101090000D02*
X153529420Y-101090000D01*
%TO.C,C4*%
X149719420Y-104900000D02*
X150000580Y-104900000D01*
X149719420Y-105920000D02*
X150000580Y-105920000D01*
%TO.C,C3*%
X132590000Y-100189420D02*
X132590000Y-100470580D01*
X131570000Y-100189420D02*
X131570000Y-100470580D01*
%TO.C,C2*%
X149699420Y-102995000D02*
X149980580Y-102995000D01*
X149699420Y-104015000D02*
X149980580Y-104015000D01*
%TO.C,C1*%
X131570000Y-96660580D02*
X131570000Y-96379420D01*
X132590000Y-96660580D02*
X132590000Y-96379420D01*
%TO.C,U5*%
X152490000Y-74930000D02*
X152490000Y-76180000D01*
X149770000Y-73680000D02*
X149770000Y-76180000D01*
%TO.C,SW1*%
X151860000Y-84180000D02*
X152710000Y-84180000D01*
X154710000Y-84180000D02*
X155240000Y-84180000D01*
X157180000Y-84180000D02*
X157740000Y-84180000D01*
X159680000Y-84180000D02*
X160560000Y-84180000D01*
X160560000Y-84180000D02*
X160560000Y-87880000D01*
X160560000Y-87880000D02*
X159690000Y-87880000D01*
X157730000Y-87880000D02*
X157180000Y-87880000D01*
X155240000Y-87880000D02*
X154680000Y-87880000D01*
X152740000Y-87880000D02*
X151860000Y-87880000D01*
X151860000Y-87880000D02*
X151860000Y-84180000D01*
X151560000Y-84880000D02*
X151560000Y-83880000D01*
X151560000Y-83880000D02*
X152560000Y-83880000D01*
%TO.C,R16*%
X131557500Y-81517258D02*
X131557500Y-81042742D01*
X132602500Y-81517258D02*
X132602500Y-81042742D01*
%TO.C,R15*%
X157877742Y-79487500D02*
X158352258Y-79487500D01*
X157877742Y-80532500D02*
X158352258Y-80532500D01*
%TO.C,R14*%
X154702742Y-68692500D02*
X155177258Y-68692500D01*
X154702742Y-69737500D02*
X155177258Y-69737500D01*
%TO.C,R13*%
X154702742Y-70597500D02*
X155177258Y-70597500D01*
X154702742Y-71642500D02*
X155177258Y-71642500D01*
%TO.C,R7*%
X151367258Y-80532500D02*
X150892742Y-80532500D01*
X151367258Y-79487500D02*
X150892742Y-79487500D01*
%TO.C,L1*%
X150930000Y-68885000D02*
X151330000Y-68885000D01*
X150930000Y-72085000D02*
X151330000Y-72085000D01*
%TO.C,JP2*%
X148320000Y-71795000D02*
X146320000Y-71795000D01*
X148320000Y-68995000D02*
X148320000Y-71795000D01*
X146320000Y-68995000D02*
X148320000Y-68995000D01*
X146320000Y-71795000D02*
X146320000Y-68995000D01*
%TO.C,JP1*%
X145920000Y-81645000D02*
X145920000Y-79645000D01*
X148720000Y-81645000D02*
X145920000Y-81645000D01*
X148720000Y-79645000D02*
X148720000Y-81645000D01*
X145920000Y-79645000D02*
X148720000Y-79645000D01*
%TO.C,C16*%
X150989420Y-81405000D02*
X151270580Y-81405000D01*
X150989420Y-82425000D02*
X151270580Y-82425000D01*
%TO.C,J3*%
X163960000Y-118630000D02*
X163960000Y-127750000D01*
X163960000Y-127750000D02*
X130680000Y-127750000D01*
X130680000Y-127750000D02*
X130680000Y-118630000D01*
X130680000Y-118630000D02*
X163960000Y-118630000D01*
X149370000Y-118630000D02*
X149370000Y-119940000D01*
X149370000Y-119940000D02*
X162660000Y-119940000D01*
X162660000Y-119940000D02*
X162660000Y-126440000D01*
X162660000Y-126440000D02*
X131980000Y-126440000D01*
X131980000Y-126440000D02*
X131980000Y-119940000D01*
X131980000Y-119940000D02*
X145270000Y-119940000D01*
X145270000Y-119940000D02*
X145270000Y-119940000D01*
X145270000Y-119940000D02*
X145270000Y-118630000D01*
X158750000Y-118240000D02*
X159250000Y-117240000D01*
X159250000Y-117240000D02*
X158250000Y-117240000D01*
X158250000Y-117240000D02*
X158750000Y-118240000D01*
%TO.C,C14*%
X131570000Y-92569420D02*
X131570000Y-92850580D01*
X132590000Y-92569420D02*
X132590000Y-92850580D01*
%TO.C,C13*%
X131570000Y-89040580D02*
X131570000Y-88759420D01*
X132590000Y-89040580D02*
X132590000Y-88759420D01*
%TO.C,U4*%
X130600000Y-113665000D02*
X130600000Y-115865000D01*
X130600000Y-113665000D02*
X130600000Y-111465000D01*
X137370000Y-113665000D02*
X137370000Y-115865000D01*
X137370000Y-113665000D02*
X137370000Y-110065000D01*
%TO.C,U3*%
X147530000Y-113665000D02*
X147530000Y-110065000D01*
X147530000Y-113665000D02*
X147530000Y-115865000D01*
X140760000Y-113665000D02*
X140760000Y-111465000D01*
X140760000Y-113665000D02*
X140760000Y-115865000D01*
D13*
%TO.C,U1*%
X141305000Y-90415000D02*
X141305000Y-89840000D01*
X135555000Y-90415000D02*
X135555000Y-89765000D01*
X135555000Y-79765000D02*
X135555000Y-80415000D01*
X141305000Y-79765000D02*
X141305000Y-80415000D01*
X141305000Y-90415000D02*
X135555000Y-90415000D01*
X141305000Y-79765000D02*
X135555000Y-79765000D01*
X141305000Y-89840000D02*
X142905000Y-89840000D01*
D12*
%TO.C,R11*%
X158002500Y-112632258D02*
X158002500Y-112157742D01*
X156957500Y-112632258D02*
X156957500Y-112157742D01*
%TO.C,R10*%
X156097500Y-108822258D02*
X156097500Y-108347742D01*
X155052500Y-108822258D02*
X155052500Y-108347742D01*
%TO.C,R9*%
X154192500Y-108822258D02*
X154192500Y-108347742D01*
X153147500Y-108822258D02*
X153147500Y-108347742D01*
%TO.C,R8*%
X154192500Y-112632258D02*
X154192500Y-112157742D01*
X153147500Y-112632258D02*
X153147500Y-112157742D01*
%TO.C,R6*%
X162447500Y-73897258D02*
X162447500Y-73422742D01*
X161402500Y-73897258D02*
X161402500Y-73422742D01*
%TO.C,R5*%
X164352500Y-73897258D02*
X164352500Y-73422742D01*
X163307500Y-73897258D02*
X163307500Y-73422742D01*
%TO.C,R4*%
X149622742Y-102122500D02*
X150097258Y-102122500D01*
X149622742Y-101077500D02*
X150097258Y-101077500D01*
%TO.C,R3*%
X150097258Y-91552500D02*
X149622742Y-91552500D01*
X150097258Y-92597500D02*
X149622742Y-92597500D01*
%TO.C,R2*%
X150097258Y-93457500D02*
X149622742Y-93457500D01*
X150097258Y-94502500D02*
X149622742Y-94502500D01*
%TO.C,J1*%
X140485000Y-71575000D02*
X140485000Y-74175000D01*
X132565000Y-74175000D02*
X132565000Y-71575000D01*
X139725000Y-76485000D02*
X138575000Y-76485000D01*
X138575000Y-76485000D02*
X138575000Y-77075000D01*
X138575000Y-77075000D02*
X137875000Y-77075000D01*
X134475000Y-76485000D02*
X133325000Y-76485000D01*
X140485000Y-68675000D02*
X140485000Y-67015000D01*
X140485000Y-67015000D02*
X132565000Y-67015000D01*
X132565000Y-67015000D02*
X132565000Y-68675000D01*
%TO.C,D6*%
X156745000Y-107100000D02*
X156745000Y-109385000D01*
X158215000Y-107100000D02*
X156745000Y-107100000D01*
X158215000Y-109385000D02*
X158215000Y-107100000D01*
%TO.C,D4*%
X161190000Y-69000000D02*
X161190000Y-71285000D01*
X162660000Y-69000000D02*
X161190000Y-69000000D01*
X162660000Y-71285000D02*
X162660000Y-69000000D01*
%TO.C,D3*%
X163095000Y-69000000D02*
X163095000Y-71285000D01*
X164565000Y-69000000D02*
X163095000Y-69000000D01*
X164565000Y-71285000D02*
X164565000Y-69000000D01*
%TO.C,D2*%
X144565000Y-92810000D02*
X146850000Y-92810000D01*
X144565000Y-91340000D02*
X144565000Y-92810000D01*
X146850000Y-91340000D02*
X144565000Y-91340000D01*
%TO.C,D1*%
X144565000Y-94715000D02*
X146850000Y-94715000D01*
X144565000Y-93245000D02*
X144565000Y-94715000D01*
X146850000Y-93245000D02*
X144565000Y-93245000D01*
%TO.C,C12*%
X138555000Y-115429420D02*
X138555000Y-115710580D01*
X139575000Y-115429420D02*
X139575000Y-115710580D01*
%TO.C,C11*%
X148715000Y-115429420D02*
X148715000Y-115710580D01*
X149735000Y-115429420D02*
X149735000Y-115710580D01*
%TO.C,C5*%
X131570000Y-84949420D02*
X131570000Y-85230580D01*
X132590000Y-84949420D02*
X132590000Y-85230580D01*
%TO.C,R12*%
X156097500Y-112632258D02*
X156097500Y-112157742D01*
X155052500Y-112632258D02*
X155052500Y-112157742D01*
%TO.C,C18*%
D13*
X157472142Y-78462142D02*
X157424523Y-78509761D01*
X157281666Y-78557380D01*
X157186428Y-78557380D01*
X157043571Y-78509761D01*
X156948333Y-78414523D01*
X156900714Y-78319285D01*
X156853095Y-78128809D01*
X156853095Y-77985952D01*
X156900714Y-77795476D01*
X156948333Y-77700238D01*
X157043571Y-77605000D01*
X157186428Y-77557380D01*
X157281666Y-77557380D01*
X157424523Y-77605000D01*
X157472142Y-77652619D01*
X158424523Y-78557380D02*
X157853095Y-78557380D01*
X158138809Y-78557380D02*
X158138809Y-77557380D01*
X158043571Y-77700238D01*
X157948333Y-77795476D01*
X157853095Y-77843095D01*
X158995952Y-77985952D02*
X158900714Y-77938333D01*
X158853095Y-77890714D01*
X158805476Y-77795476D01*
X158805476Y-77747857D01*
X158853095Y-77652619D01*
X158900714Y-77605000D01*
X158995952Y-77557380D01*
X159186428Y-77557380D01*
X159281666Y-77605000D01*
X159329285Y-77652619D01*
X159376904Y-77747857D01*
X159376904Y-77795476D01*
X159329285Y-77890714D01*
X159281666Y-77938333D01*
X159186428Y-77985952D01*
X158995952Y-77985952D01*
X158900714Y-78033571D01*
X158853095Y-78081190D01*
X158805476Y-78176428D01*
X158805476Y-78366904D01*
X158853095Y-78462142D01*
X158900714Y-78509761D01*
X158995952Y-78557380D01*
X159186428Y-78557380D01*
X159281666Y-78509761D01*
X159329285Y-78462142D01*
X159376904Y-78366904D01*
X159376904Y-78176428D01*
X159329285Y-78081190D01*
X159281666Y-78033571D01*
X159186428Y-77985952D01*
%TO.C,C17*%
X154297142Y-78462142D02*
X154249523Y-78509761D01*
X154106666Y-78557380D01*
X154011428Y-78557380D01*
X153868571Y-78509761D01*
X153773333Y-78414523D01*
X153725714Y-78319285D01*
X153678095Y-78128809D01*
X153678095Y-77985952D01*
X153725714Y-77795476D01*
X153773333Y-77700238D01*
X153868571Y-77605000D01*
X154011428Y-77557380D01*
X154106666Y-77557380D01*
X154249523Y-77605000D01*
X154297142Y-77652619D01*
X155249523Y-78557380D02*
X154678095Y-78557380D01*
X154963809Y-78557380D02*
X154963809Y-77557380D01*
X154868571Y-77700238D01*
X154773333Y-77795476D01*
X154678095Y-77843095D01*
X155582857Y-77557380D02*
X156249523Y-77557380D01*
X155820952Y-78557380D01*
%TO.C,C15*%
X145827142Y-75572857D02*
X145874761Y-75620476D01*
X145922380Y-75763333D01*
X145922380Y-75858571D01*
X145874761Y-76001428D01*
X145779523Y-76096666D01*
X145684285Y-76144285D01*
X145493809Y-76191904D01*
X145350952Y-76191904D01*
X145160476Y-76144285D01*
X145065238Y-76096666D01*
X144970000Y-76001428D01*
X144922380Y-75858571D01*
X144922380Y-75763333D01*
X144970000Y-75620476D01*
X145017619Y-75572857D01*
X145922380Y-74620476D02*
X145922380Y-75191904D01*
X145922380Y-74906190D02*
X144922380Y-74906190D01*
X145065238Y-75001428D01*
X145160476Y-75096666D01*
X145208095Y-75191904D01*
X144922380Y-73715714D02*
X144922380Y-74191904D01*
X145398571Y-74239523D01*
X145350952Y-74191904D01*
X145303333Y-74096666D01*
X145303333Y-73858571D01*
X145350952Y-73763333D01*
X145398571Y-73715714D01*
X145493809Y-73668095D01*
X145731904Y-73668095D01*
X145827142Y-73715714D01*
X145874761Y-73763333D01*
X145922380Y-73858571D01*
X145922380Y-74096666D01*
X145874761Y-74191904D01*
X145827142Y-74239523D01*
%TO.C,R1*%
X156678333Y-100147380D02*
X156345000Y-99671190D01*
X156106904Y-100147380D02*
X156106904Y-99147380D01*
X156487857Y-99147380D01*
X156583095Y-99195000D01*
X156630714Y-99242619D01*
X156678333Y-99337857D01*
X156678333Y-99480714D01*
X156630714Y-99575952D01*
X156583095Y-99623571D01*
X156487857Y-99671190D01*
X156106904Y-99671190D01*
X157630714Y-100147380D02*
X157059285Y-100147380D01*
X157345000Y-100147380D02*
X157345000Y-99147380D01*
X157249761Y-99290238D01*
X157154523Y-99385476D01*
X157059285Y-99433095D01*
%TO.C,C10*%
X146042142Y-100052142D02*
X145994523Y-100099761D01*
X145851666Y-100147380D01*
X145756428Y-100147380D01*
X145613571Y-100099761D01*
X145518333Y-100004523D01*
X145470714Y-99909285D01*
X145423095Y-99718809D01*
X145423095Y-99575952D01*
X145470714Y-99385476D01*
X145518333Y-99290238D01*
X145613571Y-99195000D01*
X145756428Y-99147380D01*
X145851666Y-99147380D01*
X145994523Y-99195000D01*
X146042142Y-99242619D01*
X146994523Y-100147380D02*
X146423095Y-100147380D01*
X146708809Y-100147380D02*
X146708809Y-99147380D01*
X146613571Y-99290238D01*
X146518333Y-99385476D01*
X146423095Y-99433095D01*
X147613571Y-99147380D02*
X147708809Y-99147380D01*
X147804047Y-99195000D01*
X147851666Y-99242619D01*
X147899285Y-99337857D01*
X147946904Y-99528333D01*
X147946904Y-99766428D01*
X147899285Y-99956904D01*
X147851666Y-100052142D01*
X147804047Y-100099761D01*
X147708809Y-100147380D01*
X147613571Y-100147380D01*
X147518333Y-100099761D01*
X147470714Y-100052142D01*
X147423095Y-99956904D01*
X147375476Y-99766428D01*
X147375476Y-99528333D01*
X147423095Y-99337857D01*
X147470714Y-99242619D01*
X147518333Y-99195000D01*
X147613571Y-99147380D01*
%TO.C,U2*%
X138938095Y-105662380D02*
X138938095Y-106471904D01*
X138985714Y-106567142D01*
X139033333Y-106614761D01*
X139128571Y-106662380D01*
X139319047Y-106662380D01*
X139414285Y-106614761D01*
X139461904Y-106567142D01*
X139509523Y-106471904D01*
X139509523Y-105662380D01*
X139938095Y-105757619D02*
X139985714Y-105710000D01*
X140080952Y-105662380D01*
X140319047Y-105662380D01*
X140414285Y-105710000D01*
X140461904Y-105757619D01*
X140509523Y-105852857D01*
X140509523Y-105948095D01*
X140461904Y-106090952D01*
X139890476Y-106662380D01*
X140509523Y-106662380D01*
%TO.C,J2*%
X159686666Y-98512380D02*
X159686666Y-99226666D01*
X159639047Y-99369523D01*
X159543809Y-99464761D01*
X159400952Y-99512380D01*
X159305714Y-99512380D01*
X160115238Y-98607619D02*
X160162857Y-98560000D01*
X160258095Y-98512380D01*
X160496190Y-98512380D01*
X160591428Y-98560000D01*
X160639047Y-98607619D01*
X160686666Y-98702857D01*
X160686666Y-98798095D01*
X160639047Y-98940952D01*
X160067619Y-99512380D01*
X160686666Y-99512380D01*
%TO.C,C6*%
X156678333Y-101957142D02*
X156630714Y-102004761D01*
X156487857Y-102052380D01*
X156392619Y-102052380D01*
X156249761Y-102004761D01*
X156154523Y-101909523D01*
X156106904Y-101814285D01*
X156059285Y-101623809D01*
X156059285Y-101480952D01*
X156106904Y-101290476D01*
X156154523Y-101195238D01*
X156249761Y-101100000D01*
X156392619Y-101052380D01*
X156487857Y-101052380D01*
X156630714Y-101100000D01*
X156678333Y-101147619D01*
X157535476Y-101052380D02*
X157345000Y-101052380D01*
X157249761Y-101100000D01*
X157202142Y-101147619D01*
X157106904Y-101290476D01*
X157059285Y-101480952D01*
X157059285Y-101861904D01*
X157106904Y-101957142D01*
X157154523Y-102004761D01*
X157249761Y-102052380D01*
X157440238Y-102052380D01*
X157535476Y-102004761D01*
X157583095Y-101957142D01*
X157630714Y-101861904D01*
X157630714Y-101623809D01*
X157583095Y-101528571D01*
X157535476Y-101480952D01*
X157440238Y-101433333D01*
X157249761Y-101433333D01*
X157154523Y-101480952D01*
X157106904Y-101528571D01*
X157059285Y-101623809D01*
%TO.C,C4*%
X146518333Y-105767142D02*
X146470714Y-105814761D01*
X146327857Y-105862380D01*
X146232619Y-105862380D01*
X146089761Y-105814761D01*
X145994523Y-105719523D01*
X145946904Y-105624285D01*
X145899285Y-105433809D01*
X145899285Y-105290952D01*
X145946904Y-105100476D01*
X145994523Y-105005238D01*
X146089761Y-104910000D01*
X146232619Y-104862380D01*
X146327857Y-104862380D01*
X146470714Y-104910000D01*
X146518333Y-104957619D01*
X147375476Y-105195714D02*
X147375476Y-105862380D01*
X147137380Y-104814761D02*
X146899285Y-105529047D01*
X147518333Y-105529047D01*
%TO.C,C3*%
X131167142Y-100296666D02*
X131214761Y-100344285D01*
X131262380Y-100487142D01*
X131262380Y-100582380D01*
X131214761Y-100725238D01*
X131119523Y-100820476D01*
X131024285Y-100868095D01*
X130833809Y-100915714D01*
X130690952Y-100915714D01*
X130500476Y-100868095D01*
X130405238Y-100820476D01*
X130310000Y-100725238D01*
X130262380Y-100582380D01*
X130262380Y-100487142D01*
X130310000Y-100344285D01*
X130357619Y-100296666D01*
X130262380Y-99963333D02*
X130262380Y-99344285D01*
X130643333Y-99677619D01*
X130643333Y-99534761D01*
X130690952Y-99439523D01*
X130738571Y-99391904D01*
X130833809Y-99344285D01*
X131071904Y-99344285D01*
X131167142Y-99391904D01*
X131214761Y-99439523D01*
X131262380Y-99534761D01*
X131262380Y-99820476D01*
X131214761Y-99915714D01*
X131167142Y-99963333D01*
%TO.C,C2*%
X146518333Y-103862142D02*
X146470714Y-103909761D01*
X146327857Y-103957380D01*
X146232619Y-103957380D01*
X146089761Y-103909761D01*
X145994523Y-103814523D01*
X145946904Y-103719285D01*
X145899285Y-103528809D01*
X145899285Y-103385952D01*
X145946904Y-103195476D01*
X145994523Y-103100238D01*
X146089761Y-103005000D01*
X146232619Y-102957380D01*
X146327857Y-102957380D01*
X146470714Y-103005000D01*
X146518333Y-103052619D01*
X146899285Y-103052619D02*
X146946904Y-103005000D01*
X147042142Y-102957380D01*
X147280238Y-102957380D01*
X147375476Y-103005000D01*
X147423095Y-103052619D01*
X147470714Y-103147857D01*
X147470714Y-103243095D01*
X147423095Y-103385952D01*
X146851666Y-103957380D01*
X147470714Y-103957380D01*
%TO.C,C1*%
X131167142Y-96686666D02*
X131214761Y-96734285D01*
X131262380Y-96877142D01*
X131262380Y-96972380D01*
X131214761Y-97115238D01*
X131119523Y-97210476D01*
X131024285Y-97258095D01*
X130833809Y-97305714D01*
X130690952Y-97305714D01*
X130500476Y-97258095D01*
X130405238Y-97210476D01*
X130310000Y-97115238D01*
X130262380Y-96972380D01*
X130262380Y-96877142D01*
X130310000Y-96734285D01*
X130357619Y-96686666D01*
X131262380Y-95734285D02*
X131262380Y-96305714D01*
X131262380Y-96020000D02*
X130262380Y-96020000D01*
X130405238Y-96115238D01*
X130500476Y-96210476D01*
X130548095Y-96305714D01*
%TO.C,U5*%
X150368095Y-77557380D02*
X150368095Y-78366904D01*
X150415714Y-78462142D01*
X150463333Y-78509761D01*
X150558571Y-78557380D01*
X150749047Y-78557380D01*
X150844285Y-78509761D01*
X150891904Y-78462142D01*
X150939523Y-78366904D01*
X150939523Y-77557380D01*
X151891904Y-77557380D02*
X151415714Y-77557380D01*
X151368095Y-78033571D01*
X151415714Y-77985952D01*
X151510952Y-77938333D01*
X151749047Y-77938333D01*
X151844285Y-77985952D01*
X151891904Y-78033571D01*
X151939523Y-78128809D01*
X151939523Y-78366904D01*
X151891904Y-78462142D01*
X151844285Y-78509761D01*
X151749047Y-78557380D01*
X151510952Y-78557380D01*
X151415714Y-78509761D01*
X151368095Y-78462142D01*
%TO.C,SW1*%
X158091666Y-89914761D02*
X158234523Y-89962380D01*
X158472619Y-89962380D01*
X158567857Y-89914761D01*
X158615476Y-89867142D01*
X158663095Y-89771904D01*
X158663095Y-89676666D01*
X158615476Y-89581428D01*
X158567857Y-89533809D01*
X158472619Y-89486190D01*
X158282142Y-89438571D01*
X158186904Y-89390952D01*
X158139285Y-89343333D01*
X158091666Y-89248095D01*
X158091666Y-89152857D01*
X158139285Y-89057619D01*
X158186904Y-89010000D01*
X158282142Y-88962380D01*
X158520238Y-88962380D01*
X158663095Y-89010000D01*
X158996428Y-88962380D02*
X159234523Y-89962380D01*
X159425000Y-89248095D01*
X159615476Y-89962380D01*
X159853571Y-88962380D01*
X160758333Y-89962380D02*
X160186904Y-89962380D01*
X160472619Y-89962380D02*
X160472619Y-88962380D01*
X160377380Y-89105238D01*
X160282142Y-89200476D01*
X160186904Y-89248095D01*
%TO.C,R16*%
X131102380Y-81922857D02*
X130626190Y-82256190D01*
X131102380Y-82494285D02*
X130102380Y-82494285D01*
X130102380Y-82113333D01*
X130150000Y-82018095D01*
X130197619Y-81970476D01*
X130292857Y-81922857D01*
X130435714Y-81922857D01*
X130530952Y-81970476D01*
X130578571Y-82018095D01*
X130626190Y-82113333D01*
X130626190Y-82494285D01*
X131102380Y-80970476D02*
X131102380Y-81541904D01*
X131102380Y-81256190D02*
X130102380Y-81256190D01*
X130245238Y-81351428D01*
X130340476Y-81446666D01*
X130388095Y-81541904D01*
X130102380Y-80113333D02*
X130102380Y-80303809D01*
X130150000Y-80399047D01*
X130197619Y-80446666D01*
X130340476Y-80541904D01*
X130530952Y-80589523D01*
X130911904Y-80589523D01*
X131007142Y-80541904D01*
X131054761Y-80494285D01*
X131102380Y-80399047D01*
X131102380Y-80208571D01*
X131054761Y-80113333D01*
X131007142Y-80065714D01*
X130911904Y-80018095D01*
X130673809Y-80018095D01*
X130578571Y-80065714D01*
X130530952Y-80113333D01*
X130483333Y-80208571D01*
X130483333Y-80399047D01*
X130530952Y-80494285D01*
X130578571Y-80541904D01*
X130673809Y-80589523D01*
%TO.C,R15*%
X157472142Y-82367380D02*
X157138809Y-81891190D01*
X156900714Y-82367380D02*
X156900714Y-81367380D01*
X157281666Y-81367380D01*
X157376904Y-81415000D01*
X157424523Y-81462619D01*
X157472142Y-81557857D01*
X157472142Y-81700714D01*
X157424523Y-81795952D01*
X157376904Y-81843571D01*
X157281666Y-81891190D01*
X156900714Y-81891190D01*
X158424523Y-82367380D02*
X157853095Y-82367380D01*
X158138809Y-82367380D02*
X158138809Y-81367380D01*
X158043571Y-81510238D01*
X157948333Y-81605476D01*
X157853095Y-81653095D01*
X159329285Y-81367380D02*
X158853095Y-81367380D01*
X158805476Y-81843571D01*
X158853095Y-81795952D01*
X158948333Y-81748333D01*
X159186428Y-81748333D01*
X159281666Y-81795952D01*
X159329285Y-81843571D01*
X159376904Y-81938809D01*
X159376904Y-82176904D01*
X159329285Y-82272142D01*
X159281666Y-82319761D01*
X159186428Y-82367380D01*
X158948333Y-82367380D01*
X158853095Y-82319761D01*
X158805476Y-82272142D01*
%TO.C,R14*%
X157472142Y-69667380D02*
X157138809Y-69191190D01*
X156900714Y-69667380D02*
X156900714Y-68667380D01*
X157281666Y-68667380D01*
X157376904Y-68715000D01*
X157424523Y-68762619D01*
X157472142Y-68857857D01*
X157472142Y-69000714D01*
X157424523Y-69095952D01*
X157376904Y-69143571D01*
X157281666Y-69191190D01*
X156900714Y-69191190D01*
X158424523Y-69667380D02*
X157853095Y-69667380D01*
X158138809Y-69667380D02*
X158138809Y-68667380D01*
X158043571Y-68810238D01*
X157948333Y-68905476D01*
X157853095Y-68953095D01*
X159281666Y-69000714D02*
X159281666Y-69667380D01*
X159043571Y-68619761D02*
X158805476Y-69334047D01*
X159424523Y-69334047D01*
%TO.C,R13*%
X157472142Y-71572380D02*
X157138809Y-71096190D01*
X156900714Y-71572380D02*
X156900714Y-70572380D01*
X157281666Y-70572380D01*
X157376904Y-70620000D01*
X157424523Y-70667619D01*
X157472142Y-70762857D01*
X157472142Y-70905714D01*
X157424523Y-71000952D01*
X157376904Y-71048571D01*
X157281666Y-71096190D01*
X156900714Y-71096190D01*
X158424523Y-71572380D02*
X157853095Y-71572380D01*
X158138809Y-71572380D02*
X158138809Y-70572380D01*
X158043571Y-70715238D01*
X157948333Y-70810476D01*
X157853095Y-70858095D01*
X158757857Y-70572380D02*
X159376904Y-70572380D01*
X159043571Y-70953333D01*
X159186428Y-70953333D01*
X159281666Y-71000952D01*
X159329285Y-71048571D01*
X159376904Y-71143809D01*
X159376904Y-71381904D01*
X159329285Y-71477142D01*
X159281666Y-71524761D01*
X159186428Y-71572380D01*
X158900714Y-71572380D01*
X158805476Y-71524761D01*
X158757857Y-71477142D01*
%TO.C,R7*%
X154138333Y-80462380D02*
X153805000Y-79986190D01*
X153566904Y-80462380D02*
X153566904Y-79462380D01*
X153947857Y-79462380D01*
X154043095Y-79510000D01*
X154090714Y-79557619D01*
X154138333Y-79652857D01*
X154138333Y-79795714D01*
X154090714Y-79890952D01*
X154043095Y-79938571D01*
X153947857Y-79986190D01*
X153566904Y-79986190D01*
X154471666Y-79462380D02*
X155138333Y-79462380D01*
X154709761Y-80462380D01*
%TO.C,L1*%
X150963333Y-68237380D02*
X150487142Y-68237380D01*
X150487142Y-67237380D01*
X151820476Y-68237380D02*
X151249047Y-68237380D01*
X151534761Y-68237380D02*
X151534761Y-67237380D01*
X151439523Y-67380238D01*
X151344285Y-67475476D01*
X151249047Y-67523095D01*
%TO.C,JP2*%
X146486666Y-67397380D02*
X146486666Y-68111666D01*
X146439047Y-68254523D01*
X146343809Y-68349761D01*
X146200952Y-68397380D01*
X146105714Y-68397380D01*
X146962857Y-68397380D02*
X146962857Y-67397380D01*
X147343809Y-67397380D01*
X147439047Y-67445000D01*
X147486666Y-67492619D01*
X147534285Y-67587857D01*
X147534285Y-67730714D01*
X147486666Y-67825952D01*
X147439047Y-67873571D01*
X147343809Y-67921190D01*
X146962857Y-67921190D01*
X147915238Y-67492619D02*
X147962857Y-67445000D01*
X148058095Y-67397380D01*
X148296190Y-67397380D01*
X148391428Y-67445000D01*
X148439047Y-67492619D01*
X148486666Y-67587857D01*
X148486666Y-67683095D01*
X148439047Y-67825952D01*
X147867619Y-68397380D01*
X148486666Y-68397380D01*
%TO.C,JP1*%
X146486666Y-82002380D02*
X146486666Y-82716666D01*
X146439047Y-82859523D01*
X146343809Y-82954761D01*
X146200952Y-83002380D01*
X146105714Y-83002380D01*
X146962857Y-83002380D02*
X146962857Y-82002380D01*
X147343809Y-82002380D01*
X147439047Y-82050000D01*
X147486666Y-82097619D01*
X147534285Y-82192857D01*
X147534285Y-82335714D01*
X147486666Y-82430952D01*
X147439047Y-82478571D01*
X147343809Y-82526190D01*
X146962857Y-82526190D01*
X148486666Y-83002380D02*
X147915238Y-83002380D01*
X148200952Y-83002380D02*
X148200952Y-82002380D01*
X148105714Y-82145238D01*
X148010476Y-82240476D01*
X147915238Y-82288095D01*
%TO.C,C16*%
X153662142Y-82272142D02*
X153614523Y-82319761D01*
X153471666Y-82367380D01*
X153376428Y-82367380D01*
X153233571Y-82319761D01*
X153138333Y-82224523D01*
X153090714Y-82129285D01*
X153043095Y-81938809D01*
X153043095Y-81795952D01*
X153090714Y-81605476D01*
X153138333Y-81510238D01*
X153233571Y-81415000D01*
X153376428Y-81367380D01*
X153471666Y-81367380D01*
X153614523Y-81415000D01*
X153662142Y-81462619D01*
X154614523Y-82367380D02*
X154043095Y-82367380D01*
X154328809Y-82367380D02*
X154328809Y-81367380D01*
X154233571Y-81510238D01*
X154138333Y-81605476D01*
X154043095Y-81653095D01*
X155471666Y-81367380D02*
X155281190Y-81367380D01*
X155185952Y-81415000D01*
X155138333Y-81462619D01*
X155043095Y-81605476D01*
X154995476Y-81795952D01*
X154995476Y-82176904D01*
X155043095Y-82272142D01*
X155090714Y-82319761D01*
X155185952Y-82367380D01*
X155376428Y-82367380D01*
X155471666Y-82319761D01*
X155519285Y-82272142D01*
X155566904Y-82176904D01*
X155566904Y-81938809D01*
X155519285Y-81843571D01*
X155471666Y-81795952D01*
X155376428Y-81748333D01*
X155185952Y-81748333D01*
X155090714Y-81795952D01*
X155043095Y-81843571D01*
X154995476Y-81938809D01*
%TO.C,J3*%
X151431666Y-117562380D02*
X151431666Y-118276666D01*
X151384047Y-118419523D01*
X151288809Y-118514761D01*
X151145952Y-118562380D01*
X151050714Y-118562380D01*
X151812619Y-117562380D02*
X152431666Y-117562380D01*
X152098333Y-117943333D01*
X152241190Y-117943333D01*
X152336428Y-117990952D01*
X152384047Y-118038571D01*
X152431666Y-118133809D01*
X152431666Y-118371904D01*
X152384047Y-118467142D01*
X152336428Y-118514761D01*
X152241190Y-118562380D01*
X151955476Y-118562380D01*
X151860238Y-118514761D01*
X151812619Y-118467142D01*
%TO.C,C14*%
X131167142Y-93352857D02*
X131214761Y-93400476D01*
X131262380Y-93543333D01*
X131262380Y-93638571D01*
X131214761Y-93781428D01*
X131119523Y-93876666D01*
X131024285Y-93924285D01*
X130833809Y-93971904D01*
X130690952Y-93971904D01*
X130500476Y-93924285D01*
X130405238Y-93876666D01*
X130310000Y-93781428D01*
X130262380Y-93638571D01*
X130262380Y-93543333D01*
X130310000Y-93400476D01*
X130357619Y-93352857D01*
X131262380Y-92400476D02*
X131262380Y-92971904D01*
X131262380Y-92686190D02*
X130262380Y-92686190D01*
X130405238Y-92781428D01*
X130500476Y-92876666D01*
X130548095Y-92971904D01*
X130595714Y-91543333D02*
X131262380Y-91543333D01*
X130214761Y-91781428D02*
X130929047Y-92019523D01*
X130929047Y-91400476D01*
%TO.C,C13*%
X131167142Y-89542857D02*
X131214761Y-89590476D01*
X131262380Y-89733333D01*
X131262380Y-89828571D01*
X131214761Y-89971428D01*
X131119523Y-90066666D01*
X131024285Y-90114285D01*
X130833809Y-90161904D01*
X130690952Y-90161904D01*
X130500476Y-90114285D01*
X130405238Y-90066666D01*
X130310000Y-89971428D01*
X130262380Y-89828571D01*
X130262380Y-89733333D01*
X130310000Y-89590476D01*
X130357619Y-89542857D01*
X131262380Y-88590476D02*
X131262380Y-89161904D01*
X131262380Y-88876190D02*
X130262380Y-88876190D01*
X130405238Y-88971428D01*
X130500476Y-89066666D01*
X130548095Y-89161904D01*
X130262380Y-88257142D02*
X130262380Y-87638095D01*
X130643333Y-87971428D01*
X130643333Y-87828571D01*
X130690952Y-87733333D01*
X130738571Y-87685714D01*
X130833809Y-87638095D01*
X131071904Y-87638095D01*
X131167142Y-87685714D01*
X131214761Y-87733333D01*
X131262380Y-87828571D01*
X131262380Y-88114285D01*
X131214761Y-88209523D01*
X131167142Y-88257142D01*
%TO.C,U4*%
X130683095Y-108672380D02*
X130683095Y-109481904D01*
X130730714Y-109577142D01*
X130778333Y-109624761D01*
X130873571Y-109672380D01*
X131064047Y-109672380D01*
X131159285Y-109624761D01*
X131206904Y-109577142D01*
X131254523Y-109481904D01*
X131254523Y-108672380D01*
X132159285Y-109005714D02*
X132159285Y-109672380D01*
X131921190Y-108624761D02*
X131683095Y-109339047D01*
X132302142Y-109339047D01*
%TO.C,U3*%
X140843095Y-108672380D02*
X140843095Y-109481904D01*
X140890714Y-109577142D01*
X140938333Y-109624761D01*
X141033571Y-109672380D01*
X141224047Y-109672380D01*
X141319285Y-109624761D01*
X141366904Y-109577142D01*
X141414523Y-109481904D01*
X141414523Y-108672380D01*
X141795476Y-108672380D02*
X142414523Y-108672380D01*
X142081190Y-109053333D01*
X142224047Y-109053333D01*
X142319285Y-109100952D01*
X142366904Y-109148571D01*
X142414523Y-109243809D01*
X142414523Y-109481904D01*
X142366904Y-109577142D01*
X142319285Y-109624761D01*
X142224047Y-109672380D01*
X141938333Y-109672380D01*
X141843095Y-109624761D01*
X141795476Y-109577142D01*
%TO.C,U1*%
X137668095Y-90792380D02*
X137668095Y-91601904D01*
X137715714Y-91697142D01*
X137763333Y-91744761D01*
X137858571Y-91792380D01*
X138049047Y-91792380D01*
X138144285Y-91744761D01*
X138191904Y-91697142D01*
X138239523Y-91601904D01*
X138239523Y-90792380D01*
X139239523Y-91792380D02*
X138668095Y-91792380D01*
X138953809Y-91792380D02*
X138953809Y-90792380D01*
X138858571Y-90935238D01*
X138763333Y-91030476D01*
X138668095Y-91078095D01*
%TO.C,R11*%
X157932380Y-116212857D02*
X157456190Y-116546190D01*
X157932380Y-116784285D02*
X156932380Y-116784285D01*
X156932380Y-116403333D01*
X156980000Y-116308095D01*
X157027619Y-116260476D01*
X157122857Y-116212857D01*
X157265714Y-116212857D01*
X157360952Y-116260476D01*
X157408571Y-116308095D01*
X157456190Y-116403333D01*
X157456190Y-116784285D01*
X157932380Y-115260476D02*
X157932380Y-115831904D01*
X157932380Y-115546190D02*
X156932380Y-115546190D01*
X157075238Y-115641428D01*
X157170476Y-115736666D01*
X157218095Y-115831904D01*
X157932380Y-114308095D02*
X157932380Y-114879523D01*
X157932380Y-114593809D02*
X156932380Y-114593809D01*
X157075238Y-114689047D01*
X157170476Y-114784285D01*
X157218095Y-114879523D01*
%TO.C,R10*%
X156027380Y-105417857D02*
X155551190Y-105751190D01*
X156027380Y-105989285D02*
X155027380Y-105989285D01*
X155027380Y-105608333D01*
X155075000Y-105513095D01*
X155122619Y-105465476D01*
X155217857Y-105417857D01*
X155360714Y-105417857D01*
X155455952Y-105465476D01*
X155503571Y-105513095D01*
X155551190Y-105608333D01*
X155551190Y-105989285D01*
X156027380Y-104465476D02*
X156027380Y-105036904D01*
X156027380Y-104751190D02*
X155027380Y-104751190D01*
X155170238Y-104846428D01*
X155265476Y-104941666D01*
X155313095Y-105036904D01*
X155027380Y-103846428D02*
X155027380Y-103751190D01*
X155075000Y-103655952D01*
X155122619Y-103608333D01*
X155217857Y-103560714D01*
X155408333Y-103513095D01*
X155646428Y-103513095D01*
X155836904Y-103560714D01*
X155932142Y-103608333D01*
X155979761Y-103655952D01*
X156027380Y-103751190D01*
X156027380Y-103846428D01*
X155979761Y-103941666D01*
X155932142Y-103989285D01*
X155836904Y-104036904D01*
X155646428Y-104084523D01*
X155408333Y-104084523D01*
X155217857Y-104036904D01*
X155122619Y-103989285D01*
X155075000Y-103941666D01*
X155027380Y-103846428D01*
%TO.C,R9*%
X154122380Y-104941666D02*
X153646190Y-105275000D01*
X154122380Y-105513095D02*
X153122380Y-105513095D01*
X153122380Y-105132142D01*
X153170000Y-105036904D01*
X153217619Y-104989285D01*
X153312857Y-104941666D01*
X153455714Y-104941666D01*
X153550952Y-104989285D01*
X153598571Y-105036904D01*
X153646190Y-105132142D01*
X153646190Y-105513095D01*
X154122380Y-104465476D02*
X154122380Y-104275000D01*
X154074761Y-104179761D01*
X154027142Y-104132142D01*
X153884285Y-104036904D01*
X153693809Y-103989285D01*
X153312857Y-103989285D01*
X153217619Y-104036904D01*
X153170000Y-104084523D01*
X153122380Y-104179761D01*
X153122380Y-104370238D01*
X153170000Y-104465476D01*
X153217619Y-104513095D01*
X153312857Y-104560714D01*
X153550952Y-104560714D01*
X153646190Y-104513095D01*
X153693809Y-104465476D01*
X153741428Y-104370238D01*
X153741428Y-104179761D01*
X153693809Y-104084523D01*
X153646190Y-104036904D01*
X153550952Y-103989285D01*
%TO.C,R8*%
X154122380Y-115736666D02*
X153646190Y-116070000D01*
X154122380Y-116308095D02*
X153122380Y-116308095D01*
X153122380Y-115927142D01*
X153170000Y-115831904D01*
X153217619Y-115784285D01*
X153312857Y-115736666D01*
X153455714Y-115736666D01*
X153550952Y-115784285D01*
X153598571Y-115831904D01*
X153646190Y-115927142D01*
X153646190Y-116308095D01*
X153550952Y-115165238D02*
X153503333Y-115260476D01*
X153455714Y-115308095D01*
X153360476Y-115355714D01*
X153312857Y-115355714D01*
X153217619Y-115308095D01*
X153170000Y-115260476D01*
X153122380Y-115165238D01*
X153122380Y-114974761D01*
X153170000Y-114879523D01*
X153217619Y-114831904D01*
X153312857Y-114784285D01*
X153360476Y-114784285D01*
X153455714Y-114831904D01*
X153503333Y-114879523D01*
X153550952Y-114974761D01*
X153550952Y-115165238D01*
X153598571Y-115260476D01*
X153646190Y-115308095D01*
X153741428Y-115355714D01*
X153931904Y-115355714D01*
X154027142Y-115308095D01*
X154074761Y-115260476D01*
X154122380Y-115165238D01*
X154122380Y-114974761D01*
X154074761Y-114879523D01*
X154027142Y-114831904D01*
X153931904Y-114784285D01*
X153741428Y-114784285D01*
X153646190Y-114831904D01*
X153598571Y-114879523D01*
X153550952Y-114974761D01*
%TO.C,R6*%
X162377380Y-76366666D02*
X161901190Y-76700000D01*
X162377380Y-76938095D02*
X161377380Y-76938095D01*
X161377380Y-76557142D01*
X161425000Y-76461904D01*
X161472619Y-76414285D01*
X161567857Y-76366666D01*
X161710714Y-76366666D01*
X161805952Y-76414285D01*
X161853571Y-76461904D01*
X161901190Y-76557142D01*
X161901190Y-76938095D01*
X161377380Y-75509523D02*
X161377380Y-75700000D01*
X161425000Y-75795238D01*
X161472619Y-75842857D01*
X161615476Y-75938095D01*
X161805952Y-75985714D01*
X162186904Y-75985714D01*
X162282142Y-75938095D01*
X162329761Y-75890476D01*
X162377380Y-75795238D01*
X162377380Y-75604761D01*
X162329761Y-75509523D01*
X162282142Y-75461904D01*
X162186904Y-75414285D01*
X161948809Y-75414285D01*
X161853571Y-75461904D01*
X161805952Y-75509523D01*
X161758333Y-75604761D01*
X161758333Y-75795238D01*
X161805952Y-75890476D01*
X161853571Y-75938095D01*
X161948809Y-75985714D01*
%TO.C,R5*%
X164282380Y-76366666D02*
X163806190Y-76700000D01*
X164282380Y-76938095D02*
X163282380Y-76938095D01*
X163282380Y-76557142D01*
X163330000Y-76461904D01*
X163377619Y-76414285D01*
X163472857Y-76366666D01*
X163615714Y-76366666D01*
X163710952Y-76414285D01*
X163758571Y-76461904D01*
X163806190Y-76557142D01*
X163806190Y-76938095D01*
X163282380Y-75461904D02*
X163282380Y-75938095D01*
X163758571Y-75985714D01*
X163710952Y-75938095D01*
X163663333Y-75842857D01*
X163663333Y-75604761D01*
X163710952Y-75509523D01*
X163758571Y-75461904D01*
X163853809Y-75414285D01*
X164091904Y-75414285D01*
X164187142Y-75461904D01*
X164234761Y-75509523D01*
X164282380Y-75604761D01*
X164282380Y-75842857D01*
X164234761Y-75938095D01*
X164187142Y-75985714D01*
%TO.C,R4*%
X146518333Y-102052380D02*
X146185000Y-101576190D01*
X145946904Y-102052380D02*
X145946904Y-101052380D01*
X146327857Y-101052380D01*
X146423095Y-101100000D01*
X146470714Y-101147619D01*
X146518333Y-101242857D01*
X146518333Y-101385714D01*
X146470714Y-101480952D01*
X146423095Y-101528571D01*
X146327857Y-101576190D01*
X145946904Y-101576190D01*
X147375476Y-101385714D02*
X147375476Y-102052380D01*
X147137380Y-101004761D02*
X146899285Y-101719047D01*
X147518333Y-101719047D01*
%TO.C,R3*%
X149693333Y-90622380D02*
X149360000Y-90146190D01*
X149121904Y-90622380D02*
X149121904Y-89622380D01*
X149502857Y-89622380D01*
X149598095Y-89670000D01*
X149645714Y-89717619D01*
X149693333Y-89812857D01*
X149693333Y-89955714D01*
X149645714Y-90050952D01*
X149598095Y-90098571D01*
X149502857Y-90146190D01*
X149121904Y-90146190D01*
X150026666Y-89622380D02*
X150645714Y-89622380D01*
X150312380Y-90003333D01*
X150455238Y-90003333D01*
X150550476Y-90050952D01*
X150598095Y-90098571D01*
X150645714Y-90193809D01*
X150645714Y-90431904D01*
X150598095Y-90527142D01*
X150550476Y-90574761D01*
X150455238Y-90622380D01*
X150169523Y-90622380D01*
X150074285Y-90574761D01*
X150026666Y-90527142D01*
%TO.C,R2*%
X149693333Y-96337380D02*
X149360000Y-95861190D01*
X149121904Y-96337380D02*
X149121904Y-95337380D01*
X149502857Y-95337380D01*
X149598095Y-95385000D01*
X149645714Y-95432619D01*
X149693333Y-95527857D01*
X149693333Y-95670714D01*
X149645714Y-95765952D01*
X149598095Y-95813571D01*
X149502857Y-95861190D01*
X149121904Y-95861190D01*
X150074285Y-95432619D02*
X150121904Y-95385000D01*
X150217142Y-95337380D01*
X150455238Y-95337380D01*
X150550476Y-95385000D01*
X150598095Y-95432619D01*
X150645714Y-95527857D01*
X150645714Y-95623095D01*
X150598095Y-95765952D01*
X150026666Y-96337380D01*
X150645714Y-96337380D01*
%TO.C,J1*%
X136191666Y-77727380D02*
X136191666Y-78441666D01*
X136144047Y-78584523D01*
X136048809Y-78679761D01*
X135905952Y-78727380D01*
X135810714Y-78727380D01*
X137191666Y-78727380D02*
X136620238Y-78727380D01*
X136905952Y-78727380D02*
X136905952Y-77727380D01*
X136810714Y-77870238D01*
X136715476Y-77965476D01*
X136620238Y-78013095D01*
%TO.C,D6*%
X157932380Y-105513095D02*
X156932380Y-105513095D01*
X156932380Y-105275000D01*
X156980000Y-105132142D01*
X157075238Y-105036904D01*
X157170476Y-104989285D01*
X157360952Y-104941666D01*
X157503809Y-104941666D01*
X157694285Y-104989285D01*
X157789523Y-105036904D01*
X157884761Y-105132142D01*
X157932380Y-105275000D01*
X157932380Y-105513095D01*
X156932380Y-104084523D02*
X156932380Y-104275000D01*
X156980000Y-104370238D01*
X157027619Y-104417857D01*
X157170476Y-104513095D01*
X157360952Y-104560714D01*
X157741904Y-104560714D01*
X157837142Y-104513095D01*
X157884761Y-104465476D01*
X157932380Y-104370238D01*
X157932380Y-104179761D01*
X157884761Y-104084523D01*
X157837142Y-104036904D01*
X157741904Y-103989285D01*
X157503809Y-103989285D01*
X157408571Y-104036904D01*
X157360952Y-104084523D01*
X157313333Y-104179761D01*
X157313333Y-104370238D01*
X157360952Y-104465476D01*
X157408571Y-104513095D01*
X157503809Y-104560714D01*
%TO.C,D4*%
X162377380Y-68683095D02*
X161377380Y-68683095D01*
X161377380Y-68445000D01*
X161425000Y-68302142D01*
X161520238Y-68206904D01*
X161615476Y-68159285D01*
X161805952Y-68111666D01*
X161948809Y-68111666D01*
X162139285Y-68159285D01*
X162234523Y-68206904D01*
X162329761Y-68302142D01*
X162377380Y-68445000D01*
X162377380Y-68683095D01*
X161710714Y-67254523D02*
X162377380Y-67254523D01*
X161329761Y-67492619D02*
X162044047Y-67730714D01*
X162044047Y-67111666D01*
%TO.C,D3*%
X164282380Y-68683095D02*
X163282380Y-68683095D01*
X163282380Y-68445000D01*
X163330000Y-68302142D01*
X163425238Y-68206904D01*
X163520476Y-68159285D01*
X163710952Y-68111666D01*
X163853809Y-68111666D01*
X164044285Y-68159285D01*
X164139523Y-68206904D01*
X164234761Y-68302142D01*
X164282380Y-68445000D01*
X164282380Y-68683095D01*
X163282380Y-67778333D02*
X163282380Y-67159285D01*
X163663333Y-67492619D01*
X163663333Y-67349761D01*
X163710952Y-67254523D01*
X163758571Y-67206904D01*
X163853809Y-67159285D01*
X164091904Y-67159285D01*
X164187142Y-67206904D01*
X164234761Y-67254523D01*
X164282380Y-67349761D01*
X164282380Y-67635476D01*
X164234761Y-67730714D01*
X164187142Y-67778333D01*
%TO.C,D2*%
X145311904Y-90622380D02*
X145311904Y-89622380D01*
X145550000Y-89622380D01*
X145692857Y-89670000D01*
X145788095Y-89765238D01*
X145835714Y-89860476D01*
X145883333Y-90050952D01*
X145883333Y-90193809D01*
X145835714Y-90384285D01*
X145788095Y-90479523D01*
X145692857Y-90574761D01*
X145550000Y-90622380D01*
X145311904Y-90622380D01*
X146264285Y-89717619D02*
X146311904Y-89670000D01*
X146407142Y-89622380D01*
X146645238Y-89622380D01*
X146740476Y-89670000D01*
X146788095Y-89717619D01*
X146835714Y-89812857D01*
X146835714Y-89908095D01*
X146788095Y-90050952D01*
X146216666Y-90622380D01*
X146835714Y-90622380D01*
%TO.C,D1*%
X145311904Y-96337380D02*
X145311904Y-95337380D01*
X145550000Y-95337380D01*
X145692857Y-95385000D01*
X145788095Y-95480238D01*
X145835714Y-95575476D01*
X145883333Y-95765952D01*
X145883333Y-95908809D01*
X145835714Y-96099285D01*
X145788095Y-96194523D01*
X145692857Y-96289761D01*
X145550000Y-96337380D01*
X145311904Y-96337380D01*
X146835714Y-96337380D02*
X146264285Y-96337380D01*
X146550000Y-96337380D02*
X146550000Y-95337380D01*
X146454761Y-95480238D01*
X146359523Y-95575476D01*
X146264285Y-95623095D01*
%TO.C,C12*%
X139422142Y-112402857D02*
X139469761Y-112450476D01*
X139517380Y-112593333D01*
X139517380Y-112688571D01*
X139469761Y-112831428D01*
X139374523Y-112926666D01*
X139279285Y-112974285D01*
X139088809Y-113021904D01*
X138945952Y-113021904D01*
X138755476Y-112974285D01*
X138660238Y-112926666D01*
X138565000Y-112831428D01*
X138517380Y-112688571D01*
X138517380Y-112593333D01*
X138565000Y-112450476D01*
X138612619Y-112402857D01*
X139517380Y-111450476D02*
X139517380Y-112021904D01*
X139517380Y-111736190D02*
X138517380Y-111736190D01*
X138660238Y-111831428D01*
X138755476Y-111926666D01*
X138803095Y-112021904D01*
X138612619Y-111069523D02*
X138565000Y-111021904D01*
X138517380Y-110926666D01*
X138517380Y-110688571D01*
X138565000Y-110593333D01*
X138612619Y-110545714D01*
X138707857Y-110498095D01*
X138803095Y-110498095D01*
X138945952Y-110545714D01*
X139517380Y-111117142D01*
X139517380Y-110498095D01*
%TO.C,C11*%
X149582142Y-112402857D02*
X149629761Y-112450476D01*
X149677380Y-112593333D01*
X149677380Y-112688571D01*
X149629761Y-112831428D01*
X149534523Y-112926666D01*
X149439285Y-112974285D01*
X149248809Y-113021904D01*
X149105952Y-113021904D01*
X148915476Y-112974285D01*
X148820238Y-112926666D01*
X148725000Y-112831428D01*
X148677380Y-112688571D01*
X148677380Y-112593333D01*
X148725000Y-112450476D01*
X148772619Y-112402857D01*
X149677380Y-111450476D02*
X149677380Y-112021904D01*
X149677380Y-111736190D02*
X148677380Y-111736190D01*
X148820238Y-111831428D01*
X148915476Y-111926666D01*
X148963095Y-112021904D01*
X149677380Y-110498095D02*
X149677380Y-111069523D01*
X149677380Y-110783809D02*
X148677380Y-110783809D01*
X148820238Y-110879047D01*
X148915476Y-110974285D01*
X148963095Y-111069523D01*
%TO.C,C5*%
X131167142Y-85256666D02*
X131214761Y-85304285D01*
X131262380Y-85447142D01*
X131262380Y-85542380D01*
X131214761Y-85685238D01*
X131119523Y-85780476D01*
X131024285Y-85828095D01*
X130833809Y-85875714D01*
X130690952Y-85875714D01*
X130500476Y-85828095D01*
X130405238Y-85780476D01*
X130310000Y-85685238D01*
X130262380Y-85542380D01*
X130262380Y-85447142D01*
X130310000Y-85304285D01*
X130357619Y-85256666D01*
X130262380Y-84351904D02*
X130262380Y-84828095D01*
X130738571Y-84875714D01*
X130690952Y-84828095D01*
X130643333Y-84732857D01*
X130643333Y-84494761D01*
X130690952Y-84399523D01*
X130738571Y-84351904D01*
X130833809Y-84304285D01*
X131071904Y-84304285D01*
X131167142Y-84351904D01*
X131214761Y-84399523D01*
X131262380Y-84494761D01*
X131262380Y-84732857D01*
X131214761Y-84828095D01*
X131167142Y-84875714D01*
%TO.C,R12*%
X156027380Y-116212857D02*
X155551190Y-116546190D01*
X156027380Y-116784285D02*
X155027380Y-116784285D01*
X155027380Y-116403333D01*
X155075000Y-116308095D01*
X155122619Y-116260476D01*
X155217857Y-116212857D01*
X155360714Y-116212857D01*
X155455952Y-116260476D01*
X155503571Y-116308095D01*
X155551190Y-116403333D01*
X155551190Y-116784285D01*
X156027380Y-115260476D02*
X156027380Y-115831904D01*
X156027380Y-115546190D02*
X155027380Y-115546190D01*
X155170238Y-115641428D01*
X155265476Y-115736666D01*
X155313095Y-115831904D01*
X155122619Y-114879523D02*
X155075000Y-114831904D01*
X155027380Y-114736666D01*
X155027380Y-114498571D01*
X155075000Y-114403333D01*
X155122619Y-114355714D01*
X155217857Y-114308095D01*
X155313095Y-114308095D01*
X155455952Y-114355714D01*
X156027380Y-114927142D01*
X156027380Y-114308095D01*
%TD*%
M02*
