M48
; DRILL file {KiCad (5.1.9)-1} date 03/30/21 20:53:46
; FORMAT={-:-/ absolute / inch / decimal}
; #@! TF.CreationDate,2021-03-30T20:53:46+02:00
; #@! TF.GenerationSoftware,Kicad,Pcbnew,(5.1.9)-1
; #@! TF.FileFunction,Plated,1,2,PTH
FMAT,2
INCH
T1C0.0118
T2C0.0157
T3C0.0197
T4C0.0394
T5C0.0433
T6C0.1260
%
G90
G05
T1
X1.4428Y-5.8835
X1.4465Y-6.075
X1.45Y-5.175
X1.45Y-8.1
X1.475Y-4.8
X1.475Y-5.15
X1.475Y-5.2
X1.475Y-5.95
X1.475Y-6.15
X1.475Y-6.35
X1.475Y-6.4
X1.475Y-6.775
X1.475Y-8.125
X1.4772Y-5.9037
X1.4843Y-5.9761
X1.4992Y-7.493
X1.5Y-4.0
X1.5Y-4.5
X1.5Y-6.075
X1.5Y-6.7
X1.5Y-7.1
X1.5Y-8.175
X1.5013Y-7.126
X1.5091Y-3.675
X1.5093Y-6.2
X1.5093Y-6.225
X1.5093Y-6.3
X1.5093Y-6.725
X1.5142Y-7.517
X1.5142Y-7.9
X1.5142Y-7.925
X1.525Y-5.075
X1.525Y-5.6
X1.525Y-8.05
X1.5285Y-6.15
X1.55Y-3.75
X1.55Y-4.05
X1.55Y-4.475
X1.55Y-5.675
X1.55Y-6.175
X1.55Y-6.575
X1.55Y-6.975
X1.55Y-7.375
X1.55Y-7.775
X1.575Y-3.4301
X1.575Y-5.925
X1.575Y-6.875
X1.6Y-6.125
X1.6Y-6.525
X1.6Y-6.925
X1.6Y-7.325
X1.6Y-7.525
X1.6Y-7.725
X1.625Y-4.425
X1.625Y-5.85
X1.625Y-6.05
X1.625Y-6.1093
X1.625Y-6.5
X1.625Y-6.725
X1.625Y-7.125
X1.625Y-7.925
X1.6366Y-6.275
X1.6457Y-5.825
X1.6457Y-5.875
X1.65Y-5.15
X1.65Y-5.225
X1.65Y-6.25
X1.65Y-7.05
X1.65Y-7.45
X1.65Y-7.85
X1.6514Y-6.3258
X1.6537Y-4.1213
X1.66Y-6.465
X1.6713Y-7.5272
X1.6713Y-7.9272
X1.675Y-3.55
X1.675Y-3.875
X1.675Y-4.075
X1.675Y-5.05
X1.675Y-5.1024
X1.675Y-5.675
X1.675Y-6.05
X1.675Y-7.125
X1.6761Y-6.0761
X1.6777Y-6.3553
X1.6955Y-7.95
X1.7Y-4.1
X1.7Y-4.425
X1.7Y-4.8
X1.7Y-4.825
X1.7Y-4.85
X1.7Y-4.875
X1.7Y-4.9
X1.7Y-4.925
X1.7Y-4.95
X1.7Y-4.975
X1.7Y-5.0
X1.7Y-5.025
X1.7Y-5.25
X1.7Y-5.275
X1.7Y-5.3
X1.7Y-5.325
X1.7Y-5.35
X1.7Y-5.375
X1.7Y-5.4
X1.7Y-5.425
X1.7Y-6.0
X1.7Y-6.725
X1.7Y-7.15
X1.7Y-7.5
X1.7Y-7.55
X1.7Y-8.225
X1.7011Y-5.1989
X1.7035Y-7.9005
X1.7045Y-6.3055
X1.7104Y-7.1
X1.725Y-4.075
X1.725Y-4.6
X1.725Y-5.075
X1.7412Y-4.1346
X1.75Y-6.575
X1.75Y-6.975
X1.75Y-7.375
X1.75Y-7.775
X1.75Y-4.0661
X1.7747Y-6.5969
X1.775Y-3.275
X1.775Y-3.4
X1.775Y-4.425
X1.775Y-4.55
X1.7877Y-3.8123
X1.8Y-5.9
X1.8Y-6.05
X1.8Y-6.525
X1.8Y-6.925
X1.8Y-7.325
X1.8Y-7.725
X1.8Y-8.175
X1.8Y-8.275
X1.8114Y-6.2295
X1.8136Y-6.3293
X1.8228Y-6.2537
X1.8239Y-5.2489
X1.825Y-4.85
X1.825Y-6.0
X1.825Y-6.35
X1.825Y-6.9
X1.8396Y-7.5
X1.8437Y-7.825
X1.8457Y-6.4657
X1.8489Y-4.0739
X1.85Y-3.5
X1.85Y-3.55
X1.85Y-3.575
X1.85Y-3.6
X1.85Y-3.625
X1.85Y-3.65
X1.85Y-3.725
X1.85Y-3.875
X1.85Y-3.9
X1.85Y-3.925
X1.85Y-3.95
X1.85Y-3.975
X1.85Y-4.2
X1.85Y-4.425
X1.85Y-4.875
X1.85Y-5.15
X1.85Y-5.675
X1.85Y-6.225
X1.85Y-6.25
X1.85Y-7.425
X1.8526Y-7.025
X1.865Y-6.31
X1.8693Y-5.2761
X1.875Y-4.9
X1.875Y-5.3
X1.875Y-5.825
X1.875Y-5.9193
X1.875Y-6.05
X1.875Y-6.425
X1.875Y-6.875
X1.875Y-7.675
X1.875Y-8.1
X1.875Y-8.325
X1.8779Y-5.9456
X1.9Y-3.25
X1.9Y-4.625
X1.9Y-4.825
X1.9Y-4.925
X1.9Y-5.325
X1.9Y-5.8
X1.9Y-6.225
X1.9Y-6.725
X1.9Y-7.025
X1.9Y-7.05
X1.9Y-7.075
X1.9Y-7.1
X1.9Y-7.125
X1.9Y-7.2
X1.9Y-7.375
X1.9Y-7.425
X1.9Y-7.45
X1.9Y-7.5
X1.9Y-7.525
X1.9Y-7.825
X1.9Y-7.85
X1.9Y-7.875
X1.9Y-7.9
X1.9Y-7.925
X1.9Y-8.175
X1.9115Y-6.3439
X1.9239Y-4.9511
X1.925Y-3.875
X1.925Y-4.1
X1.925Y-4.2
X1.925Y-4.425
X1.925Y-5.35
X1.925Y-5.45
X1.925Y-6.425
X1.925Y-7.625
X1.925Y-7.775
X1.9366Y-6.0616
X1.9456Y-4.8764
X1.9463Y-4.9006
X1.9463Y-4.9756
X1.9463Y-5.2256
X1.95Y-4.95
X1.95Y-5.375
X1.95Y-5.475
X1.95Y-6.575
X1.9511Y-4.0239
X1.9656Y-4.775
X1.975Y-3.35
X1.975Y-3.5
X1.975Y-3.725
X1.975Y-4.75
X1.975Y-4.85
X1.975Y-5.8
X1.9761Y-6.1011
X1.9769Y-6.7509
X1.9995Y-5.1255
X2.0Y-3.175
X2.0Y-3.275
X2.0Y-3.45
X2.0Y-4.075
X2.0Y-4.2
X2.0Y-4.425
X2.0Y-5.95
X2.0Y-6.4
X2.0Y-6.525
X2.0021Y-4.1165
X2.013Y-7.587
X2.0157Y-5.975
X2.025Y-5.075
X2.025Y-5.6
X2.025Y-5.65
X2.025Y-6.875
X2.025Y-7.025
X2.025Y-7.275
X2.025Y-7.425
X2.025Y-7.825
X2.025Y-7.95
X2.025Y-8.2
X2.0407Y-6.2
X2.0407Y-6.25
X2.0407Y-6.275
X2.0407Y-6.325
X2.0407Y-6.35
X2.0489Y-7.1011
X2.0489Y-7.9011
X2.05Y-6.65
X2.05Y-7.275
X2.05Y-7.5
X2.0574Y-3.9988
X2.0622Y-5.2093
X2.0739Y-4.7489
X2.0739Y-7.4761
X2.075Y-3.6
X2.075Y-3.625
X2.075Y-3.65
X2.075Y-3.675
X2.075Y-4.075
X2.075Y-4.475
X2.075Y-5.0
X2.075Y-5.3
X2.075Y-5.35
X2.075Y-5.4
X2.075Y-6.45
X2.075Y-6.725
X2.075Y-6.8657
X2.0759Y-4.8511
X2.0761Y-6.0239
X2.0761Y-7.0739
X2.0761Y-7.8739
X2.0808Y-3.995
X2.0815Y-5.2343
X2.0992Y-4.8755
X2.0999Y-7.5501
X2.1Y-3.475
X2.1Y-5.025
X2.1Y-5.425
X2.1Y-5.45
X2.1Y-5.95
X2.1Y-6.3
X2.1Y-6.325
X2.1Y-7.15
X2.1Y-7.85
X2.1Y-7.95
X2.1Y-8.05
X2.1124Y-3.2126
X2.1178Y-7.5136
X2.125Y-4.7
X2.125Y-5.8
X2.125Y-7.425
X2.125Y-7.475
X2.125Y-8.15
X2.125Y-8.25
X2.125Y-8.275
X2.1261Y-5.4739
X2.1267Y-8.2244
X2.1461Y-4.7157
X2.149Y-5.3716
X2.1494Y-4.1057
X2.15Y-3.3
X2.15Y-3.8
X2.15Y-4.475
X2.15Y-4.6
X2.15Y-4.85
X2.15Y-5.25
X2.15Y-5.325
X2.15Y-6.175
X2.15Y-6.575
X2.1513Y-4.0822
X2.1557Y-3.3307
X2.175Y-3.2843
X2.175Y-4.9
X2.175Y-4.975
X2.175Y-5.025
X2.175Y-5.35
X2.175Y-6.9093
X2.175Y-7.225
X2.175Y-7.3
X2.175Y-7.7
X2.175Y-8.025
X2.2Y-3.175
X2.2Y-3.3035
X2.2Y-5.8
X2.2Y-6.125
X2.2Y-6.525
X2.2Y-7.625
X2.2061Y-6.8258
X2.2107Y-7.8012
X2.225Y-3.4
X2.225Y-4.2
X2.225Y-4.425
X2.225Y-5.075
X2.225Y-5.95
X2.2364Y-7.5211
X2.2377Y-3.8127
X2.2407Y-7.475
X2.2407Y-7.8
X2.2463Y-7.5522
X2.2465Y-7.8808
X2.2468Y-6.3526
X2.248Y-6.0785
X2.2489Y-7.1261
X2.2489Y-7.9261
X2.25Y-4.55
X2.25Y-7.0
X2.25Y-7.05
X2.25Y-7.075
X2.25Y-7.15
X2.25Y-7.4
X2.25Y-7.45
X2.25Y-7.95
X2.25Y-8.1816
X2.2657Y-6.75
X2.2657Y-6.825
X2.2658Y-7.6658
X2.27Y-7.2465
X2.2739Y-4.8489
X2.2739Y-5.3261
X2.2739Y-6.3511
X2.275Y-4.925
X2.275Y-5.225
X2.275Y-5.3
X2.275Y-5.375
X2.275Y-5.425
X2.275Y-5.475
X2.275Y-5.85
X2.275Y-6.025
X2.275Y-6.725
X2.275Y-7.525
X2.275Y-7.6
X2.275Y-8.05
X2.275Y-8.3
X2.2785Y-6.3
X2.285Y-7.19
X2.2944Y-3.4965
X2.2947Y-3.9721
X2.2983Y-3.9477
X2.2989Y-7.9261
X2.2999Y-4.0961
X2.3Y-3.2843
X2.3Y-3.55
X2.3Y-3.575
X2.3Y-3.6
X2.3Y-3.625
X2.3Y-3.65
X2.3Y-3.725
X2.3Y-3.875
X2.3Y-3.9
X2.3Y-4.2
X2.3Y-4.425
X2.3Y-4.575
X2.3Y-4.875
X2.3Y-4.95
X2.3Y-5.525
X2.3Y-5.85
X2.3Y-7.5
X2.3001Y-3.9241
X2.3016Y-5.8792
X2.3034Y-7.6505
X2.3057Y-4.8063
X2.3066Y-8.1816
X2.3111Y-5.213
X2.3114Y-7.8693
X2.3124Y-3.2126
X2.317Y-7.1707
X2.318Y-7.9785
X2.3199Y-7.1424
X2.3233Y-3.6689
X2.3237Y-5.9303
X2.3238Y-7.7738
X2.3239Y-4.4739
X2.3239Y-7.8261
X2.324Y-6.5965
X2.3248Y-6.3449
X2.325Y-4.9762
X2.325Y-5.025
X2.325Y-5.175
X2.325Y-5.375
X2.325Y-5.5
X2.325Y-5.575
X2.325Y-6.175
X2.325Y-6.3
X2.325Y-6.375
X2.325Y-6.65
X2.325Y-6.6764
X2.325Y-6.7
X2.325Y-6.75
X2.325Y-7.025
X2.325Y-7.05
X2.325Y-7.075
X2.325Y-7.1
X2.325Y-7.425
X2.325Y-7.45
X2.325Y-7.475
X2.325Y-7.5
X2.325Y-7.8
X2.325Y-7.925
X2.3256Y-6.2744
X2.3256Y-6.7256
X2.3261Y-7.8989
X2.3285Y-6.025
X2.3293Y-5.9073
X2.3343Y-7.5539
X2.3443Y-3.518
X2.35Y-3.475
X2.35Y-5.7093
X2.35Y-6.575
X2.35Y-6.975
X2.35Y-7.375
X2.3508Y-3.8742
X2.3511Y-4.5193
X2.3511Y-5.2739
X2.3511Y-5.1012
X2.3522Y-3.6787
X2.3657Y-4.0888
X2.3723Y-3.537
X2.375Y-3.6988
X2.375Y-4.425
X2.375Y-6.125
X2.3984Y-8.152
X2.3994Y-4.0636
X2.4Y-3.175
X2.4Y-3.4
X2.4Y-3.45
X2.4Y-3.575
X2.4Y-3.8
X2.4Y-4.0
X2.4Y-5.6
X2.4Y-8.5
X2.4091Y-4.9
X2.4203Y-4.1163
X2.424Y-4.8242
X2.425Y-5.225
X2.425Y-7.3
X2.438Y-7.2465
X2.4489Y-6.6761
X2.4492Y-7.1005
X2.4499Y-5.9791
X2.45Y-4.425
X2.45Y-4.75
X2.45Y-4.95
X2.45Y-5.375
X2.45Y-5.5
X2.45Y-5.6262
X2.45Y-5.85
X2.45Y-5.875
X2.45Y-6.2843
X2.45Y-6.3443
X2.45Y-7.5
X2.45Y-7.9
X2.4504Y-4.8744
X2.4602Y-5.2443
X2.4633Y-7.9742
X2.4657Y-4.9093
X2.4718Y-7.0535
X2.4718Y-6.8807
X2.475Y-6.3
X2.475Y-7.45
X2.475Y-7.825
X2.475Y-7.8843
X2.487Y-5.25
X2.487Y-5.2886
X2.496Y-7.9843
X2.5Y-3.4
X2.5Y-4.975
X2.5Y-6.0
X2.5Y-7.025
X2.5Y-7.425
X2.5Y-7.8
X2.5Y-7.9
X2.5012Y-4.5488
X2.5018Y-4.0766
X2.5045Y-5.1011
X2.5093Y-5.65
X2.5109Y-6.6156
X2.5114Y-6.7486
X2.512Y-5.2057
X2.5124Y-3.2124
X2.5175Y-7.5443
X2.5213Y-7.4772
X2.5221Y-4.1042
X2.5234Y-5.8992
X2.525Y-3.825
X2.525Y-3.875
X2.525Y-4.425
X2.525Y-6.3
X2.525Y-6.6999
X2.5307Y-5.129
X2.533Y-7.1407
X2.5364Y-7.0886
X2.54Y-3.515
X2.54Y-7.5057
X2.5438Y-7.4616
X2.544Y-4.1212
X2.5469Y-6.327
X2.5471Y-5.8993
X2.5481Y-6.7237
X2.5489Y-7.0239
X2.5495Y-6.3511
X2.5499Y-7.4209
X2.55Y-3.25
X2.55Y-4.475
X2.55Y-5.725
X2.55Y-5.75
X2.55Y-5.875
X2.55Y-5.9529
X2.55Y-6.75
X2.55Y-7.05
X2.55Y-7.875
X2.55Y-7.9443
X2.55Y-8.225
X2.55Y-8.5
X2.5511Y-7.8261
X2.5537Y-3.8522
X2.5545Y-7.1038
X2.5558Y-6.2192
X2.5565Y-4.0829
X2.56Y-3.49
X2.5635Y-7.5388
X2.5657Y-4.8774
X2.5667Y-6.3142
X2.5693Y-7.1223
X2.5732Y-6.7768
X2.575Y-4.4
X2.575Y-4.7
X2.575Y-4.725
X2.575Y-4.775
X2.575Y-4.8
X2.575Y-4.825
X2.575Y-4.85
X2.575Y-6.075
X2.5861Y-5.3693
X2.6Y-3.175
X2.6Y-3.4
X2.6Y-3.45
X2.6Y-3.575
X2.6Y-3.675
X2.6Y-3.7
X2.6Y-4.425
X2.6Y-4.5
X2.6Y-4.675
X2.6Y-6.1
X2.6Y-6.5193
X2.6011Y-6.9011
X2.6011Y-7.3193
X2.6039Y-7.7093
X2.625Y-4.1
X2.625Y-4.125
X2.625Y-4.475
X2.625Y-4.725
X2.625Y-4.9
X2.625Y-5.5
X2.625Y-6.05
X2.625Y-8.225
X2.625Y-8.5
X2.6272Y-5.049
X2.6414Y-6.5828
X2.6489Y-4.6489
X2.65Y-4.6
X2.65Y-4.75
X2.65Y-4.95
X2.6501Y-5.6459
X2.6557Y-6.749
X2.6558Y-5.2266
X2.6655Y-7.9978
X2.6657Y-7.7807
X2.6702Y-7.9593
X2.6711Y-6.8657
X2.6713Y-7.3907
X2.6732Y-7.8254
X2.675Y-3.0
X2.675Y-4.1
X2.675Y-4.475
X2.675Y-4.725
X2.675Y-4.75
X2.675Y-4.775
X2.675Y-4.8
X2.675Y-4.825
X2.675Y-4.85
X2.675Y-4.875
X2.675Y-5.825
X2.675Y-6.2
X2.675Y-7.0
X2.675Y-7.15
X2.675Y-7.525
X2.675Y-7.5785
X2.6761Y-7.1761
X2.6772Y-5.4963
X2.6797Y-3.5709
X2.6819Y-6.6416
X2.6877Y-3.7623
X2.7Y-3.4
X2.7Y-5.05
X2.7Y-5.325
X2.7Y-5.55
X2.7Y-5.6222
X2.7Y-5.7057
X2.7Y-7.025
X2.7Y-7.425
X2.7Y-7.925
X2.7Y-8.225
X2.7Y-8.5
X2.7039Y-4.9907
X2.704Y-6.304
X2.7054Y-6.7718
X2.7124Y-3.2126
X2.7193Y-5.9166
X2.7226Y-7.4712
X2.725Y-4.125
X2.725Y-4.4
X2.725Y-5.175
X2.725Y-5.2
X2.725Y-6.35
X2.725Y-6.55
X2.725Y-7.05
X2.725Y-7.8593
X2.7287Y-5.895
X2.7294Y-6.8038
X2.7392Y-5.0443
X2.74Y-6.21
X2.7459Y-3.675
X2.7459Y-3.8001
X2.7474Y-7.4774
X2.7487Y-7.501
X2.7499Y-6.4005
X2.75Y-4.2
X2.75Y-4.55
X2.75Y-6.425
X2.75Y-6.575
X2.75Y-6.65
X2.75Y-6.675
X2.75Y-6.75
X2.75Y-6.775
X2.75Y-6.975
X2.75Y-7.2
X2.75Y-7.225
X2.75Y-7.375
X2.75Y-7.45
X2.75Y-7.55
X2.75Y-7.575
X2.75Y-7.6
X2.75Y-7.625
X2.75Y-7.775
X2.75Y-7.85
X2.75Y-7.875
X2.75Y-7.9
X2.75Y-7.925
X2.75Y-7.95
X2.75Y-7.975
X2.75Y-8.0
X2.75Y-8.025
X2.7505Y-6.6992
X2.7505Y-7.1008
X2.7505Y-7.5258
X2.7508Y-7.1245
X2.7508Y-7.1755
X2.7511Y-7.0511
X2.7526Y-6.7995
X2.7535Y-7.15
X2.7537Y-6.7228
X2.7537Y-6.3772
X2.7537Y-7.0772
X2.7548Y-5.0057
X2.7575Y-6.8315
X2.7593Y-6.225
X2.7593Y-6.299
X2.7593Y-6.3226
X2.7598Y-6.2754
X2.7611Y-6.2505
X2.7636Y-4.1178
X2.7636Y-6.3463
X2.765Y-5.0947
X2.7708Y-3.5409
X2.775Y-4.35
X2.775Y-4.925
X2.775Y-5.5
X2.7758Y-5.2255
X2.785Y-3.4459
X2.7907Y-3.5559
X2.7907Y-3.8439
X2.7934Y-8.1816
X2.7989Y-4.0985
X2.7989Y-5.6489
X2.8Y-5.225
X2.8Y-6.125
X2.8Y-6.525
X2.8Y-6.925
X2.8Y-7.725
X2.8009Y-4.0557
X2.8219Y-3.9781
X2.825Y-4.2
X2.825Y-4.9
X2.825Y-5.225
X2.825Y-6.9
X2.8261Y-4.1261
X2.8262Y-7.3261
X2.8269Y-5.1259
X2.8293Y-3.5498
X2.85Y-3.8
X2.85Y-4.125
X2.85Y-4.95
X2.85Y-8.15
X2.8511Y-5.6761
X2.8511Y-6.8989
X2.8561Y-7.8789
X2.8561Y-7.4751
X2.8661Y-7.0522
X2.8684Y-3.9684
X2.8694Y-7.929
X2.8715Y-7.5287
X2.875Y-5.225
X2.875Y-6.675
X2.8751Y-7.0757
X2.8782Y-6.3117
X2.8788Y-5.5
X2.8817Y-7.9556
X2.8961Y-7.1001
X2.8961Y-6.7001
X2.8993Y-6.3224
X2.8998Y-7.9729
X2.9Y-4.825
X2.9Y-8.0
X2.9049Y-7.5454
X2.9057Y-5.5193
X2.911Y-7.1327
X2.911Y-6.7327
X2.925Y-3.7
X2.925Y-4.075
X2.925Y-4.125
X2.925Y-5.175
X2.925Y-5.25
X2.925Y-6.0
X2.9252Y-7.1554
X2.926Y-6.756
X2.926Y-7.556
X2.9269Y-6.331
X2.9409Y-6.35
X2.9409Y-6.375
X2.9409Y-6.8115
X2.9409Y-7.175
X2.9409Y-7.6
X2.9434Y-8.1816
X2.95Y-4.35
X2.95Y-4.7
X2.95Y-4.8329
X2.95Y-5.225
X2.9557Y-3.8067
X2.9557Y-3.8842
X2.9557Y-3.8326
X2.9557Y-3.8582
X2.9614Y-4.293
X2.9657Y-3.9961
X2.9657Y-4.4
X2.9716Y-3.5635
X2.9746Y-3.4543
X2.975Y-3.5001
X2.975Y-4.025
X2.975Y-5.225
X2.975Y-5.5
X2.975Y-7.2
X2.975Y-7.6
X2.9766Y-3.5238
X2.9803Y-3.5858
X2.9807Y-3.4772
X2.9841Y-5.95
X2.9841Y-7.45
X2.9841Y-7.975
X2.9961Y-8.1157
X3.0Y-2.675
X3.0Y-3.45
X3.0Y-3.975
X3.0Y-4.25
X3.0Y-4.3
X3.0Y-5.2
X3.0Y-5.625
X3.0Y-7.7
X3.0Y-8.0
X3.0114Y-7.3193
X3.0203Y-5.075
X3.025Y-3.275
X3.025Y-4.35
X3.025Y-5.65
X3.025Y-6.0
X3.025Y-6.1
X3.025Y-6.5193
X3.025Y-6.9
X3.025Y-7.7
X3.0271Y-5.0488
X3.0392Y-3.6579
X3.0407Y-3.6273
X3.0467Y-3.6044
X3.0472Y-5.2301
X3.0477Y-3.3
X3.0489Y-4.8261
X3.05Y-2.6
X3.05Y-2.925
X3.05Y-2.95
X3.05Y-4.55
X3.05Y-4.95
X3.0598Y-3.5848
X3.0625Y-3.9571
X3.0633Y-3.9314
X3.0655Y-3.9813
X3.0671Y-3.9079
X3.075Y-3.3
X3.075Y-3.35
X3.075Y-3.5
X3.075Y-4.825
X3.075Y-5.5
X3.075Y-6.1
X3.075Y-6.6
X3.075Y-7.0
X3.075Y-8.1193
X3.075Y-8.3
X3.082Y-3.1988
X3.0869Y-4.5492
X3.0909Y-5.2247
X3.097Y-7.2203
X3.0974Y-6.1999
X3.0989Y-7.9739
X3.1Y-3.175
X3.1Y-4.95
X3.1Y-5.0
X3.1Y-6.275
X3.1Y-6.3
X3.1Y-6.325
X3.1Y-6.35
X3.1Y-6.375
X3.1Y-6.425
X3.1Y-6.45
X3.1Y-6.65
X3.1Y-6.675
X3.1Y-6.7
X3.1Y-6.725
X3.1Y-6.75
X3.1Y-6.775
X3.1Y-6.825
X3.1Y-6.85
X3.1Y-6.9
X3.1Y-7.075
X3.1Y-7.1
X3.1Y-7.125
X3.1Y-7.15
X3.1Y-7.175
X3.1Y-7.4
X3.1Y-7.475
X3.1Y-7.5
X3.1Y-7.525
X3.1Y-7.55
X3.1Y-7.575
X3.1Y-7.625
X3.1Y-7.65
X3.1Y-7.8
X3.1Y-7.875
X3.1Y-7.9
X3.1Y-7.925
X3.1Y-7.95
X3.1Y-8.025
X3.1Y-8.05
X3.1098Y-7.2402
X3.125Y-3.15
X3.125Y-3.4
X3.125Y-4.7
X3.125Y-4.775
X3.1377Y-3.7623
X3.15Y-3.125
X3.15Y-4.7593
X3.15Y-6.425
X3.15Y-6.825
X3.15Y-7.225
X3.15Y-7.625
X3.15Y-8.025
X3.15Y-8.45
X3.1511Y-4.6762
X3.1713Y-4.324
X3.1726Y-2.58
X3.1742Y-6.85
X3.175Y-2.85
X3.175Y-6.45
X3.175Y-7.25
X3.175Y-7.65
X3.175Y-8.05
X3.175Y-8.375
X3.1781Y-4.7443
X3.1832Y-4.6758
X3.1848Y-2.5598
X3.1881Y-3.4381
X3.1907Y-3.9689
X3.1911Y-3.4
X3.1935Y-6.8003
X3.1947Y-3.6213
X3.2Y-3.598
X3.2Y-2.675
X3.2Y-3.8262
X3.2Y-3.85
X3.2Y-3.875
X3.2Y-3.9
X3.2Y-4.775
X3.2Y-6.375
X3.2Y-7.825
X3.2Y-7.875
X3.2Y-8.25
X3.2017Y-4.7443
X3.2023Y-3.7687
X3.2128Y-6.8412
X3.2161Y-3.9708
X3.2177Y-3.6898
X3.2215Y-4.825
X3.2218Y-6.3519
X3.2242Y-3.9472
X3.2245Y-3.6293
X3.225Y-3.05
X3.225Y-4.975
X3.225Y-6.425
X3.225Y-7.3339
X3.225Y-7.825
X3.225Y-7.9
X3.225Y-8.275
X3.2261Y-2.6761
X3.236Y-6.775
X3.2407Y-6.1762
X3.2422Y-6.34
X3.2452Y-4.8511
X3.2461Y-4.9999
X3.2461Y-6.2896
X3.2461Y-6.3167
X3.25Y-3.9
X3.25Y-7.325
X3.25Y-7.35
X3.25Y-7.575
X3.25Y-7.925
X3.25Y-8.3
X3.251Y-6.75
X3.2557Y-3.7275
X3.2557Y-3.7511
X3.2557Y-5.9636
X3.261Y-3.3197
X3.261Y-4.8688
X3.2659Y-6.8218
X3.2659Y-7.025
X3.2681Y-5.6723
X3.2693Y-5.0155
X3.275Y-2.45
X3.275Y-2.7
X3.275Y-3.5
X3.275Y-3.875
X3.275Y-4.725
X3.275Y-4.825
X3.275Y-7.95
X3.275Y-8.325
X3.276Y-3.2958
X3.276Y-4.9301
X3.2862Y-7.9756
X3.2877Y-5.6853
X3.2886Y-5.0488
X3.2909Y-3.2361
X3.2909Y-3.8509
X3.2924Y-6.4168
X3.2946Y-3.7736
X3.3Y-3.11
X3.3Y-2.6
X3.3Y-8.35
X3.3071Y-5.5
X3.3093Y-5.2209
X3.3239Y-2.5489
X3.325Y-2.4238
X3.325Y-4.8
X3.3341Y-7.3
X3.35Y-3.075
X3.35Y-6.225
X3.35Y-7.675
X3.35Y-7.85
X3.35Y-8.325
X3.3557Y-8.0085
X3.3591Y-3.25
X3.3591Y-3.4
X3.3591Y-3.425
X3.3591Y-3.45
X3.3591Y-4.675
X3.3591Y-4.7
X3.3591Y-4.725
X3.3591Y-4.975
X3.3591Y-4.9994
X3.3591Y-5.025
X3.3591Y-5.0488
X3.3591Y-6.0
X3.3591Y-6.025
X3.3591Y-6.0488
X3.3591Y-6.2514
X3.3591Y-6.275
X3.3591Y-6.3
X3.3591Y-6.35
X3.3591Y-6.65
X3.3605Y-4.6512
X3.361Y-5.1015
X3.3611Y-4.7772
X3.3638Y-3.7009
X3.3638Y-3.7259
X3.3638Y-3.7509
X3.3661Y-3.5059
X3.374Y-6.6789
X3.375Y-2.3
X3.375Y-2.575
X3.375Y-3.05
X3.375Y-7.925
X3.3886Y-8.1364
X3.389Y-6.725
X3.3968Y-7.4026
X3.3989Y-7.7011
X3.3998Y-4.9
X3.4Y-2.55
X3.4Y-3.95
X3.4Y-4.325
X3.4Y-5.225
X3.4Y-5.6
X3.4Y-5.65
X3.4Y-5.8
X3.4Y-8.05
X3.4038Y-7.1016
X3.4039Y-6.8001
X3.4063Y-3.6108
X3.415Y-3.11
X3.425Y-4.55
X3.425Y-6.7
X3.425Y-6.8593
X3.425Y-7.375
X3.425Y-7.65
X3.425Y-8.075
X3.4261Y-5.5489
X3.4261Y-7.0511
X3.4367Y-7.9028
X3.45Y-2.675
X3.45Y-3.15
X3.45Y-4.55
X3.45Y-5.675
X3.45Y-5.775
X3.4676Y-3.528
X3.4704Y-4.8014
X3.4719Y-3.7469
X3.4738Y-3.4012
X3.4748Y-4.65
X3.4748Y-5.05
X3.4748Y-5.125
X3.475Y-3.15
X3.475Y-3.375
X3.475Y-3.775
X3.475Y-3.85
X3.475Y-4.325
X3.475Y-4.55
X3.475Y-5.6
X3.475Y-6.0488
X3.475Y-6.225
X3.475Y-6.25
X3.475Y-6.525
X3.475Y-6.9
X3.475Y-7.2
X3.475Y-7.5
X3.475Y-7.8
X3.4793Y-4.7795
X3.4795Y-3.5045
X3.4989Y-2.4489
X3.4989Y-8.1343
X3.5Y-2.4762
X3.5Y-2.5
X3.5Y-2.525
X3.5Y-6.0
X3.5Y-6.3
X3.5Y-6.8
X3.5Y-7.1
X3.5Y-7.4
X3.5Y-7.7
X3.5Y-8.0
X3.5039Y-3.5089
X3.509Y-4.7885
X3.5156Y-3.6079
X3.5156Y-4.8833
X3.5239Y-6.2739
X3.5241Y-6.0253
X3.525Y-2.5943
X3.525Y-2.6179
X3.525Y-3.375
X3.525Y-5.675
X3.525Y-6.3
X3.525Y-6.5
X3.525Y-6.625
X3.525Y-6.925
X3.525Y-7.225
X3.525Y-7.525
X3.525Y-7.825
X3.5256Y-4.9048
X3.5263Y-3.629
X3.5409Y-3.5762
X3.5432Y-4.8443
X3.5437Y-2.4958
X3.5479Y-6.3213
X3.55Y-4.325
X3.55Y-5.6
X3.55Y-6.725
X3.55Y-7.025
X3.55Y-7.325
X3.55Y-7.625
X3.55Y-7.925
X3.5509Y-2.5593
X3.5511Y-8.0989
X3.5739Y-7.1261
X3.5739Y-7.4239
X3.575Y-4.55
X3.575Y-6.35
X3.575Y-6.875
X3.575Y-7.05
X3.575Y-7.1
X3.575Y-7.4
X3.575Y-7.7
X3.575Y-7.725
X3.575Y-8.0
X3.575Y-8.1557
X3.5767Y-6.004
X3.5791Y-2.4759
X3.5791Y-2.7291
X3.5843Y-5.925
X3.5843Y-6.0461
X3.5843Y-6.1711
X3.5843Y-6.2461
X3.5843Y-6.2961
X3.5908Y-2.4005
X3.5915Y-5.9642
X3.5978Y-7.6213
X3.6Y-3.125
X3.6Y-5.675
X3.6Y-8.0407
X3.6Y-8.425
X3.625Y-2.3
X3.625Y-3.125
X3.625Y-4.325
X3.625Y-5.6
X3.625Y-5.775
X3.625Y-6.1
X3.625Y-6.65
X3.625Y-7.05
X3.625Y-7.35
X3.625Y-7.4
X3.625Y-7.65
X3.625Y-7.7
X3.625Y-7.875
X3.625Y-8.0
X3.6256Y-7.1006
X3.6291Y-6.8006
X3.6489Y-8.4011
X3.65Y-2.4907
X3.65Y-4.425
X3.65Y-8.1
X3.6577Y-3.5903
X3.6657Y-5.6843
X3.6711Y-4.8772
X3.675Y-5.225
X3.675Y-6.5
X3.675Y-6.9
X3.675Y-7.2
X3.675Y-7.5
X3.675Y-7.8
X3.6761Y-8.3739
X3.6773Y-8.3477
X3.6807Y-3.8461
X3.6861Y-6.8199
X3.6998Y-4.825
X3.6998Y-5.125
X3.7Y-2.425
X3.7Y-2.85
X3.7Y-3.55
X3.7Y-3.625
X3.7Y-3.825
X3.7Y-3.925
X3.7Y-4.325
X3.7Y-5.6
X3.7Y-6.2
X3.7Y-7.1
X3.7Y-7.4
X3.7Y-7.7
X3.7Y-8.0
X3.725Y-2.4512
X3.725Y-4.375
X3.725Y-5.05
X3.725Y-5.925
X3.725Y-6.625
X3.725Y-6.875
X3.725Y-6.925
X3.725Y-7.225
X3.725Y-7.525
X3.725Y-7.825
X3.725Y-8.075
X3.7272Y-5.8307
X3.7343Y-3.8963
X3.7498Y-5.075
X3.7498Y-5.125
X3.75Y-3.125
X3.75Y-3.725
X3.75Y-4.55
X3.75Y-6.725
X3.75Y-7.025
X3.75Y-7.325
X3.75Y-7.625
X3.75Y-7.925
X3.7508Y-3.8505
X3.7535Y-3.8
X3.7692Y-6.0663
X3.7705Y-6.4185
X3.7728Y-6.0278
X3.7739Y-7.1239
X3.7748Y-5.9892
X3.775Y-4.325
X3.775Y-5.5915
X3.775Y-5.675
X3.775Y-5.9
X3.775Y-6.25
X3.775Y-6.275
X3.775Y-6.3
X3.775Y-6.35
X3.775Y-6.875
X3.775Y-7.05
X3.775Y-7.1
X3.775Y-7.4
X3.775Y-7.425
X3.775Y-7.7
X3.775Y-7.725
X3.775Y-8.0
X3.7961Y-8.1343
X3.8Y-2.475
X3.8Y-7.3
X3.8Y-7.325
X3.819Y-3.2541
X3.8193Y-7.362
X3.8244Y-6.8006
X3.8248Y-4.65
X3.825Y-3.375
X3.825Y-4.6
X3.825Y-4.925
X3.825Y-5.225
X3.825Y-6.5
X3.825Y-6.675
X3.825Y-7.05
X3.825Y-7.625
X3.825Y-7.875
X3.8256Y-7.1006
X3.8256Y-7.4006
X3.8256Y-7.7006
X3.846Y-3.2691
X3.8461Y-8.4307
X3.85Y-2.5
X3.85Y-4.325
X3.85Y-5.6
X3.85Y-6.9
X3.85Y-7.2
X3.85Y-7.5
X3.85Y-7.8
X3.8622Y-5.0374
X3.8624Y-3.7624
X3.8727Y-3.2841
X3.8739Y-3.6511
X3.8748Y-4.925
X3.875Y-5.775
X3.8764Y-5.8236
X3.9Y-2.525
X3.9Y-4.55
X3.9Y-6.225
X3.9Y-6.5
X3.9Y-7.1
X3.9Y-7.4
X3.9Y-7.7
X3.9Y-8.0
X3.9014Y-3.6514
X3.9014Y-3.8258
X3.9079Y-6.4093
X3.9199Y-5.9936
X3.9239Y-3.9261
X3.9239Y-6.2989
X3.925Y-4.325
X3.925Y-4.375
X3.925Y-5.6
X3.925Y-6.625
X3.925Y-6.875
X3.925Y-6.925
X3.925Y-7.225
X3.925Y-7.525
X3.925Y-7.825
X3.947Y-8.1547
X3.9489Y-6.2739
X3.95Y-2.55
X3.95Y-3.075
X3.95Y-3.75
X3.95Y-3.85
X3.95Y-5.075
X3.95Y-6.725
X3.95Y-7.025
X3.95Y-7.325
X3.95Y-7.625
X3.95Y-7.925
X3.9503Y-6.0191
X3.9591Y-5.125
X3.9592Y-4.8646
X3.9598Y-8.1348
X3.9612Y-5.317
X3.9739Y-7.1011
X3.9739Y-7.3989
X3.9739Y-7.7011
X3.9745Y-6.0508
X3.975Y-4.7622
X3.975Y-3.95
X3.975Y-4.25
X3.975Y-4.375
X3.975Y-4.65
X3.975Y-4.925
X3.975Y-6.25
X3.975Y-6.775
X3.975Y-6.875
X3.975Y-7.05
X3.975Y-7.35
X3.975Y-7.975
X3.9762Y-6.3357
X3.9896Y-6.3551
X3.9905Y-3.6576
X3.9907Y-4.5258
X3.9907Y-4.1
X3.9961Y-8.1093
X3.9989Y-5.9739
X4.0Y-2.525
X4.0Y-2.625
X4.0Y-3.95
X4.0Y-4.425
X4.0Y-4.95
X4.0Y-5.3
X4.0Y-5.925
X4.0Y-5.95
X4.0Y-6.0
X4.0Y-6.05
X4.0Y-6.25
X4.0Y-7.025
X4.0Y-7.15
X4.0Y-7.45
X4.0001Y-6.3959
X4.0011Y-6.3011
X4.0024Y-5.2409
X4.0038Y-6.0233
X4.0091Y-5.4
X4.0105Y-3.5747
X4.0211Y-8.4307
X4.025Y-2.725
X4.025Y-3.125
X4.025Y-3.95
X4.025Y-4.35
X4.025Y-4.375
X4.025Y-4.475
X4.025Y-5.425
X4.025Y-6.75
X4.025Y-6.8
X4.025Y-7.05
X4.025Y-7.35
X4.025Y-7.425
X4.025Y-7.575
X4.025Y-7.95
X4.025Y-7.975
X4.0261Y-4.0239
X4.031Y-5.2366
X4.0386Y-7.1428
X4.0488Y-5.7512
X4.0498Y-4.65
X4.05Y-2.675
X4.05Y-3.375
X4.05Y-3.65
X4.05Y-6.1
X4.05Y-6.9
X4.05Y-7.2
X4.05Y-7.5
X4.05Y-7.8
X4.0622Y-5.0374
X4.0624Y-3.7624
X4.075Y-2.5012
X4.075Y-2.6
X4.075Y-3.0
X4.075Y-3.125
X4.075Y-4.325
X4.075Y-5.6
X4.075Y-6.5193
X4.0909Y-3.8
X4.1Y-2.475
X4.1Y-3.15
X4.1Y-5.7226
X4.1Y-5.775
X4.1Y-7.1
X4.1Y-7.4
X4.1Y-7.7
X4.1Y-8.5
X4.1043Y-5.06
X4.1046Y-2.8273
X4.1215Y-6.0
X4.125Y-2.3
X4.125Y-4.0
X4.125Y-4.025
X4.125Y-4.375
X4.125Y-5.175
X4.125Y-5.2
X4.125Y-6.025
X4.125Y-6.05
X4.125Y-6.2
X4.125Y-6.325
X4.125Y-6.625
X4.125Y-6.875
X4.125Y-6.925
X4.125Y-7.225
X4.125Y-7.525
X4.125Y-7.825
X4.1261Y-5.7739
X4.1343Y-5.0709
X4.1443Y-5.2791
X4.1474Y-4.125
X4.1478Y-5.4537
X4.1498Y-5.2
X4.15Y-2.75
X4.15Y-5.85
X4.15Y-6.275
X4.15Y-6.725
X4.15Y-7.025
X4.15Y-7.325
X4.15Y-7.625
X4.15Y-7.925
X4.15Y-8.1093
X4.1574Y-5.1074
X4.1636Y-8.1943
X4.1654Y-4.5616
X4.1738Y-4.899
X4.1739Y-7.1011
X4.1739Y-7.3739
X4.1739Y-7.4011
X4.1739Y-7.6693
X4.1748Y-4.6762
X4.1748Y-4.7
X4.1748Y-4.725
X4.1748Y-4.75
X4.1748Y-4.775
X4.1748Y-4.8
X4.175Y-3.125
X4.175Y-3.4012
X4.175Y-3.425
X4.175Y-3.45
X4.175Y-3.475
X4.175Y-3.5
X4.175Y-3.5238
X4.175Y-3.625
X4.175Y-3.95
X4.175Y-5.425
X4.175Y-5.725
X4.175Y-5.9465
X4.175Y-6.0
X4.175Y-6.6
X4.175Y-6.875
X4.175Y-7.05
X4.175Y-7.95
X4.1759Y-4.8739
X4.176Y-7.7079
X4.1761Y-3.5989
X4.1761Y-5.5011
X4.1909Y-4.6
X4.1989Y-5.6761
X4.2Y-6.025
X4.2Y-6.05
X4.2Y-6.25
X4.2Y-6.2736
X4.2Y-6.2972
X4.2Y-8.225
X4.2005Y-6.0008
X4.2007Y-6.3807
X4.2028Y-6.5699
X4.2221Y-2.6494
X4.2248Y-5.125
X4.225Y-2.4
X4.225Y-2.5992
X4.225Y-2.6228
X4.225Y-2.7029
X4.225Y-3.625
X4.225Y-3.65
X4.225Y-3.85
X4.225Y-3.95
X4.225Y-4.325
X4.225Y-5.225
X4.225Y-5.6
X4.225Y-5.8
X4.225Y-6.2
X4.225Y-6.775
X4.225Y-7.075
X4.225Y-7.65
X4.225Y-7.7
X4.225Y-7.975
X4.225Y-8.35
X4.225Y-8.375
X4.2256Y-7.4006
X4.2261Y-7.0489
X4.2261Y-7.3739
X4.2267Y-3.1929
X4.2313Y-6.5141
X4.2498Y-5.0988
X4.25Y-3.075
X4.25Y-3.175
X4.25Y-3.6
X4.25Y-3.8238
X4.25Y-6.4456
X4.25Y-6.9
X4.25Y-7.2
X4.25Y-7.5
X4.25Y-7.8
X4.2511Y-2.6239
X4.2593Y-2.3907
X4.261Y-4.875
X4.2622Y-5.0376
X4.2624Y-3.7626
X4.2745Y-5.4197
X4.275Y-2.75
X4.275Y-3.2
X4.275Y-3.525
X4.275Y-8.5
X4.2797Y-5.4797
X4.2807Y-4.4407
X4.2834Y-5.3025
X4.2853Y-2.4103
X4.286Y-5.5311
X4.2912Y-7.993
X4.2947Y-4.2405
X4.3Y-3.15
X4.3Y-3.225
X4.3Y-3.5
X4.3Y-3.55
X4.3Y-4.3486
X4.3Y-4.3722
X4.3Y-5.575
X4.3Y-5.775
X4.3Y-6.8
X4.3Y-7.1
X4.3Y-7.4
X4.3Y-7.7
X4.301Y-5.351
X4.301Y-5.3759
X4.302Y-3.7739
X4.3026Y-3.725
X4.3033Y-4.5094
X4.3102Y-6.2458
X4.311Y-5.7361
X4.3157Y-6.05
X4.3159Y-5.2792
X4.3169Y-4.5287
X4.3249Y-2.5507
X4.325Y-2.325
X4.325Y-2.625
X4.325Y-2.65
X4.325Y-3.075
X4.325Y-3.1
X4.325Y-3.1843
X4.325Y-3.25
X4.325Y-3.475
X4.325Y-3.6262
X4.325Y-3.675
X4.325Y-4.5
X4.325Y-6.625
X4.325Y-6.875
X4.325Y-6.925
X4.325Y-7.225
X4.325Y-7.525
X4.325Y-7.825
X4.325Y-8.375
X4.3251Y-8.2343
X4.3269Y-2.5272
X4.3304Y-3.7465
X4.3307Y-6.0008
X4.3307Y-6.2807
X4.3409Y-5.6262
X4.3486Y-3.725
X4.3495Y-8.0758
X4.35Y-2.375
X4.35Y-2.75
X4.35Y-3.275
X4.35Y-3.45
X4.35Y-3.65
X4.35Y-5.775
X4.35Y-6.5843
X4.35Y-6.725
X4.35Y-7.025
X4.35Y-7.325
X4.35Y-7.625
X4.35Y-7.925
X4.3555Y-3.775
X4.3591Y-4.85
X4.3657Y-7.875
X4.3657Y-8.0039
X4.3693Y-3.421
X4.3723Y-7.7089
X4.3733Y-7.1006
X4.3733Y-7.3483
X4.3739Y-6.2739
X4.3739Y-7.4011
X4.375Y-3.2
X4.375Y-3.675
X4.375Y-5.95
X4.375Y-6.025
X4.375Y-6.875
X4.375Y-7.05
X4.375Y-7.6843
X4.375Y-8.175
X4.3758Y-3.7951
X4.3877Y-2.4392
X4.3886Y-3.4012
X4.3927Y-5.4514
X4.3966Y-4.3466
X4.3971Y-6.2971
X4.3974Y-4.1224
X4.3977Y-4.1477
X4.3977Y-4.3727
X4.3983Y-4.1733
X4.3989Y-4.3989
X4.399Y-5.1
X4.399Y-5.1386
X4.3999Y-8.0959
X4.4Y-2.3
X4.4Y-3.075
X4.4Y-3.3
X4.4Y-4.1988
X4.4Y-4.425
X4.4Y-4.45
X4.4Y-4.475
X4.4Y-6.15
X4.4Y-6.225
X4.4Y-6.5992
X4.4Y-7.75
X4.4006Y-4.9691
X4.4006Y-5.0009
X4.4007Y-5.0261
X4.4015Y-3.6967
X4.4048Y-5.1615
X4.4071Y-6.675
X4.4183Y-5.0759
X4.425Y-2.15
X4.425Y-3.6
X4.425Y-5.65
X4.425Y-5.8
X4.425Y-5.925
X4.425Y-6.0
X4.425Y-6.05
X4.425Y-6.25
X4.425Y-7.05
X4.425Y-7.35
X4.425Y-7.775
X4.425Y-7.975
X4.425Y-8.35
X4.4251Y-3.4192
X4.4261Y-5.9739
X4.4261Y-7.6511
X4.4261Y-8.2011
X4.4264Y-6.7742
X4.4267Y-7.9994
X4.4273Y-6.3
X4.429Y-2.4327
X4.4317Y-3.7951
X4.45Y-2.5
X4.45Y-3.25
X4.45Y-5.25
X4.45Y-5.625
X4.45Y-6.6142
X4.45Y-6.9
X4.45Y-7.2
X4.45Y-7.5
X4.45Y-7.8
X4.45Y-8.5
X4.4585Y-2.3665
X4.475Y-2.15
X4.475Y-3.075
X4.475Y-3.125
X4.475Y-3.6
X4.475Y-3.85
X4.475Y-4.225
X4.475Y-4.6
X4.475Y-4.825
X4.475Y-5.775
X4.475Y-6.1
X4.4755Y-2.5535
X4.5Y-2.325
X4.5Y-2.6
X4.5Y-3.3
X4.5Y-6.45
X4.5Y-7.1
X4.5Y-7.4
X4.5Y-7.7
X4.5011Y-5.6511
X4.5174Y-2.6238
X4.5209Y-4.9512
X4.525Y-3.625
X4.525Y-4.75
X4.525Y-5.1
X4.525Y-5.35
X4.525Y-5.375
X4.525Y-5.4
X4.525Y-5.675
X4.525Y-6.2
X4.525Y-6.875
X4.525Y-6.925
X4.525Y-7.225
X4.525Y-7.525
X4.525Y-7.825
X4.5251Y-8.2209
X4.5251Y-6.6291
X4.5343Y-2.437
X4.5358Y-5.5659
X4.5407Y-6.3925
X4.5407Y-6.2973
X4.5409Y-2.5343
X4.5456Y-5.6968
X4.547Y-4.9811
X4.55Y-3.075
X4.55Y-3.5
X4.55Y-3.6498
X4.55Y-4.7
X4.55Y-4.725
X4.55Y-4.8738
X4.55Y-5.425
X4.55Y-5.875
X4.55Y-6.725
X4.55Y-7.025
X4.55Y-7.325
X4.55Y-7.925
X4.55Y-8.1
X4.55Y-8.125
X4.5511Y-7.6239
X4.5522Y-5.1287
X4.5557Y-2.6364
X4.5628Y-5.713
X4.5646Y-5.0178
X4.5652Y-2.4336
X4.5681Y-5.5779
X4.5697Y-6.5157
X4.5739Y-7.1011
X4.5739Y-7.3739
X4.5739Y-7.4011
X4.5739Y-7.6489
X4.5739Y-7.7011
X4.575Y-3.55
X4.575Y-3.6604
X4.575Y-3.6841
X4.575Y-3.95
X4.575Y-4.3541
X4.575Y-4.625
X4.575Y-4.675
X4.575Y-4.8512
X4.575Y-5.15
X4.575Y-5.2
X4.575Y-5.225
X4.575Y-5.3
X4.575Y-5.5
X4.575Y-6.8
X4.575Y-6.875
X4.575Y-7.05
X4.575Y-7.875
X4.575Y-8.0
X4.575Y-8.075
X4.575Y-8.35
X4.575Y-8.4307
X4.5761Y-3.9761
X4.5849Y-5.7035
X4.5855Y-5.0287
X4.5864Y-4.0976
X4.5935Y-2.4807
X4.5939Y-6.6502
X4.5963Y-5.1272
X4.5978Y-4.3691
X4.5989Y-5.6511
X4.6Y-3.3
X4.6Y-3.5
X4.6Y-3.625
X4.6Y-3.875
X4.6Y-4.8512
X4.6Y-5.225
X4.6Y-6.05
X4.6Y-6.825
X4.6Y-8.0157
X4.6015Y-2.4283
X4.6093Y-3.425
X4.6093Y-6.3224
X4.6093Y-6.6961
X4.6142Y-5.7585
X4.6147Y-2.7087
X4.6157Y-5.7
X4.6189Y-6.5992
X4.6193Y-5.3465
X4.6193Y-5.9877
X4.6229Y-2.6701
X4.6238Y-4.8738
X4.6243Y-5.4734
X4.6245Y-5.1272
X4.625Y-2.225
X4.625Y-2.55
X4.625Y-3.125
X4.625Y-3.675
X4.625Y-3.9
X4.625Y-4.025
X4.625Y-4.05
X4.625Y-4.075
X4.625Y-4.1
X4.625Y-5.175
X4.625Y-5.4
X4.625Y-5.425
X4.625Y-5.5
X4.625Y-7.05
X4.625Y-7.375
X4.625Y-7.65
X4.625Y-8.075
X4.625Y-8.4
X4.625Y-8.4738
X4.625Y-5.1508
X4.6261Y-4.0011
X4.6262Y-5.4499
X4.6269Y-5.5386
X4.6287Y-3.5978
X4.6295Y-5.1041
X4.6397Y-6.0088
X4.6469Y-3.7781
X4.6478Y-2.6483
X4.65Y-2.2
X4.65Y-2.425
X4.65Y-2.4657
X4.65Y-2.6
X4.65Y-2.725
X4.65Y-4.7
X4.65Y-6.9
X4.65Y-7.2
X4.65Y-7.5
X4.65Y-7.8
X4.65Y-8.1
X4.65Y-8.375
X4.65Y-8.4
X4.65Y-2.6248
X4.6511Y-4.6739
X4.6523Y-4.6477
X4.6546Y-5.7727
X4.6575Y-6.602
X4.6625Y-6.3673
X4.675Y-2.75
X4.675Y-4.825
X4.675Y-6.425
X4.675Y-6.525
X4.6761Y-5.9489
X4.6761Y-8.1761
X4.6855Y-6.6413
X4.6943Y-6.5085
X4.7Y-3.125
X4.7Y-3.3
X4.7Y-3.475
X4.7Y-4.6
X4.7Y-5.625
X4.7Y-6.275
X4.7Y-6.8
X4.7Y-7.1
X4.7Y-7.4
X4.7Y-7.7
X4.7Y-8.0
X4.7Y-8.5
X4.7091Y-6.5356
X4.7185Y-2.7685
X4.725Y-5.825
X4.725Y-6.2936
X4.725Y-6.625
X4.725Y-6.875
X4.725Y-6.925
X4.725Y-7.225
X4.725Y-7.525
X4.725Y-7.825
X4.7409Y-3.975
X4.7489Y-4.4739
X4.7496Y-5.5593
X4.75Y-2.775
X4.75Y-4.35
X4.75Y-4.375
X4.75Y-4.4
X4.75Y-4.425
X4.75Y-4.45
X4.75Y-4.925
X4.75Y-5.075
X4.75Y-6.725
X4.75Y-7.025
X4.75Y-7.325
X4.75Y-7.625
X4.75Y-7.925
X4.75Y-8.075
X4.7501Y-5.3459
X4.7511Y-4.4974
X4.7557Y-5.5978
X4.7659Y-3.85
X4.7659Y-4.225
X4.7715Y-5.2495
X4.7715Y-5.4509
X4.7734Y-5.8491
X4.7739Y-7.3465
X4.7739Y-2.7779
X4.775Y-3.075
X4.775Y-6.3209
X4.775Y-6.7
X4.775Y-6.8
X4.775Y-6.875
X4.775Y-7.05
X4.775Y-7.1
X4.775Y-7.125
X4.775Y-7.4
X4.775Y-7.425
X4.775Y-7.575
X4.775Y-7.7
X4.775Y-7.725
X4.775Y-7.9
X4.775Y-8.0
X4.775Y-8.2
X4.7761Y-2.8489
X4.7808Y-2.6977
X4.7882Y-5.5613
X4.792Y-2.5443
X4.7974Y-5.2057
X4.7989Y-5.1307
X4.7997Y-2.4605
X4.8Y-5.8593
X4.8Y-6.3
X4.8Y-6.85
X4.8Y-8.1157
X4.8004Y-4.9959
X4.8039Y-6.5407
X4.8186Y-7.362
X4.8193Y-3.2364
X4.8209Y-5.1491
X4.825Y-3.15
X4.825Y-5.45
X4.825Y-5.5
X4.825Y-6.95
X4.825Y-7.65
X4.825Y-7.7
X4.825Y-8.05
X4.8256Y-7.1006
X4.8256Y-7.4006
X4.8298Y-4.9592
X4.8341Y-4.325
X4.8402Y-5.1103
X4.8407Y-2.4157
X4.8443Y-5.3581
X4.8458Y-5.1974
X4.849Y-2.6334
X4.85Y-3.075
X4.85Y-4.3
X4.85Y-5.8593
X4.85Y-6.3343
X4.85Y-6.4028
X4.85Y-6.6
X4.85Y-6.9
X4.85Y-7.2
X4.85Y-7.5
X4.85Y-7.8
X4.8507Y-4.0459
X4.8537Y-5.0108
X4.8539Y-3.4251
X4.8661Y-8.0006
X4.8678Y-5.1574
X4.875Y-2.75
X4.875Y-4.95
X4.875Y-5.625
X4.875Y-6.3
X4.875Y-8.35
X4.876Y-2.6622
X4.8846Y-4.2904
X4.8852Y-2.8472
X4.8856Y-2.4371
X4.9Y-3.25
X4.9Y-3.85
X4.9Y-4.6
X4.9Y-5.225
X4.9Y-6.8
X4.9Y-7.1
X4.9Y-7.4
X4.9Y-7.7
X4.9205Y-6.3392
X4.9226Y-6.4001
X4.925Y-3.075
X4.925Y-5.7
X4.925Y-6.625
X4.925Y-6.875
X4.925Y-6.925
X4.925Y-7.225
X4.925Y-7.525
X4.925Y-7.825
X4.925Y-8.175
X4.9253Y-2.7269
X4.9261Y-8.0761
X4.9354Y-4.9146
X4.9379Y-5.0205
X4.9478Y-5.8213
X4.9499Y-5.0749
X4.95Y-2.3
X4.95Y-3.9
X4.95Y-5.2
X4.95Y-5.625
X4.95Y-6.2907
X4.95Y-6.725
X4.95Y-7.025
X4.95Y-7.325
X4.95Y-7.625
X4.95Y-7.925
X4.95Y-8.4738
X4.9614Y-4.1057
X4.9724Y-5.1271
X4.975Y-2.275
X4.975Y-3.125
X4.975Y-4.825
X4.975Y-5.85
X4.975Y-6.4227
X4.975Y-6.525
X4.975Y-6.95
X4.9841Y-3.275
X4.9842Y-4.9084
X4.9864Y-2.4866
X4.9911Y-8.2477
X4.9961Y-5.5211
X4.9969Y-4.3226
X4.9979Y-5.4125
X4.9989Y-8.2739
X4.9989Y-8.4011
X5.0Y-2.85
X5.0Y-3.075
X5.0Y-6.35
X5.0Y-7.875
X5.0Y-8.3
X5.0Y-8.35
X5.0Y-8.375
X5.0011Y-8.3239
X5.0039Y-2.639
X5.0039Y-2.6926
X5.0045Y-7.1795
X5.0045Y-7.2705
X5.0137Y-5.1666
X5.0208Y-3.9042
X5.0224Y-4.3518
X5.0229Y-5.5991
X5.025Y-2.4
X5.025Y-3.05
X5.025Y-3.95
X5.025Y-6.2907
X5.025Y-7.9
X5.025Y-8.425
X5.0253Y-2.5256
X5.0266Y-4.9734
X5.0277Y-5.1856
X5.0404Y-7.4541
X5.0417Y-4.369
X5.0422Y-5.2057
X5.05Y-2.65
X5.05Y-2.7762
X5.05Y-3.1
X5.05Y-3.55
X5.05Y-7.925
X5.051Y-7.1496
X5.0591Y-2.325
X5.0593Y-4.0242
X5.0623Y-3.8602
X5.0657Y-5.4405
X5.0659Y-6.65
X5.0659Y-7.625
X5.0699Y-7.975
X5.0712Y-2.7866
X5.0735Y-6.4727
X5.075Y-3.075
X5.076Y-6.4492
X5.0761Y-5.8511
X5.0929Y-6.4862
X5.1Y-2.7
X5.1Y-2.7238
X5.1Y-3.125
X5.1Y-3.475
X5.1Y-8.0051
X5.1137Y-4.4321
X5.1159Y-8.025
X5.125Y-2.5023
X5.125Y-2.7238
X5.125Y-6.4343
X5.125Y-6.475
X5.133Y-4.4486
X5.1413Y-5.3929
X5.1446Y-2.7816
X5.1488Y-7.0238
X5.1489Y-7.9372
X5.15Y-3.125
X5.15Y-3.9
X5.15Y-4.7762
X5.15Y-5.2496
X5.15Y-5.2882
X5.15Y-5.7693
X5.15Y-7.325
X5.15Y-8.5
X5.1502Y-2.4335
X5.1511Y-3.8239
X5.1543Y-3.5
X5.1577Y-5.1673
X5.1607Y-5.7943
X5.1674Y-5.4307
X5.1744Y-5.1506
X5.175Y-2.7238
X5.175Y-3.7593
X5.175Y-4.8
X5.175Y-4.875
X5.175Y-6.65
X5.175Y-7.125
X5.175Y-7.2
X5.175Y-7.325
X5.175Y-7.675
X5.1761Y-5.2511
X5.1767Y-3.3551
X5.1785Y-5.1093
X5.1789Y-5.4736
X5.1831Y-6.5729
X5.1997Y-5.0748
X5.2Y-2.275
X5.2Y-3.775
X5.2Y-4.825
X5.2Y-5.775
X5.2Y-6.6
X5.2Y-6.85
X5.2Y-6.9
X5.2Y-8.15
X5.2Y-6.05
X5.2012Y-3.3551
X5.2025Y-5.1227
X5.2038Y-5.9008
X5.2039Y-5.7986
X5.2045Y-4.0
X5.206Y-5.4233
X5.206Y-5.45
X5.2066Y-2.7446
X5.2093Y-6.075
X5.2093Y-6.3539
X5.2093Y-6.6243
X5.2161Y-3.802
X5.2191Y-2.4273
X5.2245Y-7.9715
X5.225Y-2.9
X5.225Y-4.025
X5.225Y-4.85
X5.225Y-6.3
X5.225Y-8.05
X5.225Y-8.475
X5.225Y-3.8443
X5.2251Y-2.4502
X5.2261Y-5.1047
X5.2285Y-4.875
X5.2457Y-2.8709
X5.2461Y-2.5751
X5.25Y-4.05
X5.25Y-5.3
X5.25Y-5.65
X5.25Y-5.925
X5.25Y-6.2
X5.25Y-6.475
X5.25Y-6.75
X5.25Y-8.4
X5.2535Y-5.0762
X5.2593Y-7.9907
X5.2595Y-3.3282
X5.2597Y-2.4262
X5.2673Y-2.6039
X5.268Y-3.7165
X5.275Y-4.075
X5.275Y-5.05
X5.275Y-5.475
X5.275Y-5.825
X5.275Y-6.1
X5.275Y-6.375
X5.275Y-6.65
X5.275Y-7.025
X5.2791Y-4.0999
X5.2807Y-7.2241
X5.2818Y-2.3722
X5.2872Y-2.6239
X5.2896Y-2.6474
X5.2994Y-3.6994
X5.3Y-4.15
X5.3Y-7.2
X5.3Y-8.025
X5.3Y-8.225
X5.3Y-8.5
X5.3222Y-8.0472
X5.325Y-2.225
X5.325Y-4.175
X5.325Y-4.25
X5.325Y-4.375
X5.325Y-5.575
X5.325Y-7.15
X5.325Y-3.2738
X5.3353Y-4.8074
X5.3407Y-6.525
X5.3409Y-3.1512
X5.3489Y-5.7011
X5.3489Y-7.9761
X5.35Y-2.3
X5.35Y-2.325
X5.35Y-2.4
X5.35Y-4.2
X5.35Y-4.4
X5.35Y-4.6
X5.35Y-4.75
X5.35Y-4.85
X5.35Y-4.875
X5.35Y-5.0
X5.35Y-5.35
X5.35Y-5.975
X5.35Y-6.25
X5.35Y-6.8
X5.35Y-7.85
X5.35Y-8.0
X5.3502Y-5.5001
X5.3505Y-4.8256
X5.3541Y-8.0291
X5.3557Y-4.7955
X5.3693Y-5.575
X5.3739Y-4.9761
X5.375Y-2.55
X5.375Y-3.3841
X5.375Y-3.4077
X5.375Y-3.4313
X5.375Y-3.4549
X5.375Y-3.4785
X5.375Y-3.55
X5.375Y-3.675
X5.375Y-3.85
X5.375Y-4.225
X5.375Y-4.95
X5.375Y-5.075
X5.375Y-8.15
X5.375Y-8.5
X5.3793Y-6.7
X5.3795Y-3.8045
X5.3841Y-2.4511
X5.3841Y-2.475
X5.3841Y-2.4989
X5.3841Y-2.525
X5.3841Y-3.7014
X5.3841Y-3.725
X5.3872Y-3.7821
X5.3963Y-5.1022
X5.3981Y-5.6774
X5.4Y-2.275
X5.4Y-2.7012
X5.4Y-4.75
X5.4Y-5.025
X5.4Y-5.625
X5.4Y-6.575
X5.4Y-6.85
X5.4Y-6.9
X5.4Y-7.25
X5.4011Y-7.2761
X5.4018Y-4.9982
X5.4157Y-4.7
X5.4191Y-5.7391
X5.425Y-2.675
X5.425Y-3.125
X5.425Y-3.9
X5.425Y-4.3
X5.425Y-4.675
X5.425Y-5.075
X5.425Y-7.025
X5.45Y-3.15
X5.45Y-4.6
X5.45Y-5.3
X5.45Y-5.65
X5.45Y-5.925
X5.45Y-6.2
X5.45Y-6.475
X5.45Y-6.75
X5.45Y-8.125
X5.45Y-8.5
X5.465Y-8.076
X5.4693Y-4.8
X5.4693Y-4.825
X5.4693Y-4.85
X5.4693Y-4.875
X5.4693Y-4.9
X5.4693Y-4.925
X5.4693Y-4.95
X5.4693Y-4.975
X5.4693Y-8.0443
X5.4739Y-6.3739
X5.475Y-3.2477
X5.475Y-3.125
X5.475Y-5.475
X5.475Y-5.825
X5.475Y-6.1
X5.475Y-6.65
X5.475Y-7.375
X5.475Y-7.95
X5.4759Y-7.835
X5.4907Y-2.525
X5.4915Y-8.0767
X5.4959Y-3.7274
X5.4959Y-3.475
X5.4999Y-7.9157
X5.5Y-2.2738
X5.5Y-2.5
X5.5Y-3.075
X5.5Y-3.85
X5.5Y-4.25
X5.5Y-8.0
X5.5Y-8.1
X5.5108Y-3.45
X5.5184Y-7.9005
X5.5193Y-3.75
X5.525Y-2.45
X5.525Y-2.775
X5.525Y-3.125
X5.525Y-4.525
X5.525Y-5.7557
X5.525Y-6.025
X5.525Y-6.2943
X5.525Y-6.575
X5.525Y-7.075
X5.525Y-7.4
X5.525Y-8.5
X5.5258Y-3.425
X5.5258Y-3.7012
X5.5407Y-3.3974
X5.5419Y-6.0782
X5.5419Y-6.35
X5.5489Y-5.3511
X5.5489Y-5.4511
X5.55Y-2.25
X5.55Y-2.525
X5.55Y-3.925
X5.55Y-5.7
X5.55Y-5.8
X5.55Y-5.975
X5.55Y-6.25
X5.55Y-6.525
X5.55Y-6.625
X5.55Y-6.8
X5.55Y-7.125
X5.55Y-7.425
X5.55Y-8.0
X5.55Y-8.125
X5.5569Y-6.0237
X5.5577Y-6.2943
X5.5699Y-4.7477
X5.5737Y-3.826
X5.5742Y-5.3745
X5.5745Y-2.4492
X5.575Y-3.9273
X5.575Y-2.6
X5.575Y-3.075
X5.575Y-3.15
X5.575Y-3.575
X5.575Y-4.25
X5.575Y-4.625
X5.575Y-5.4
X5.575Y-5.575
X5.575Y-5.7557
X5.575Y-6.575
X5.575Y-6.7
X5.575Y-7.275
X5.575Y-7.525
X5.5843Y-5.075
X5.5943Y-5.5136
X5.5946Y-6.4593
X5.5977Y-8.15
X5.5989Y-3.5261
X5.6Y-2.5
X5.6Y-2.525
X5.6Y-3.3012
X5.6Y-3.5
X5.6Y-4.7
X5.6Y-6.35
X5.6Y-6.625
X5.6Y-6.875
X5.6Y-6.9
X5.6Y-8.225
X5.6Y-8.5
X5.6011Y-3.4261
X5.6011Y-6.0761
X5.6079Y-5.075
X5.613Y-5.8037
X5.6193Y-5.45
X5.6239Y-8.1511
X5.625Y-2.3
X5.625Y-3.575
X5.625Y-5.4
X5.625Y-7.675
X5.6315Y-5.075
X5.65Y-2.75
X5.65Y-3.075
X5.65Y-3.25
X5.65Y-4.25
X5.65Y-5.1
X5.65Y-5.3
X5.65Y-5.65
X5.65Y-5.925
X5.65Y-6.2
X5.65Y-6.475
X5.65Y-6.75
X5.65Y-7.825
X5.6559Y-4.7441
X5.675Y-5.275
X5.675Y-8.15
X5.675Y-8.5
X5.6761Y-3.8989
X5.6761Y-8.1239
X5.6778Y-5.5722
X5.6857Y-7.176
X5.6869Y-7.2021
X5.6912Y-4.4739
X5.7Y-3.15
X5.7Y-5.05
X5.7Y-7.125
X5.7Y-7.15
X5.7Y-7.275
X5.7Y-8.15
X5.7008Y-3.393
X5.7164Y-3.3374
X5.7187Y-3.4937
X5.7194Y-3.4694
X5.7239Y-3.7489
X5.724Y-3.5502
X5.725Y-2.35
X5.725Y-2.85
X5.725Y-3.075
X5.725Y-3.675
X5.725Y-3.775
X5.725Y-4.25
X5.725Y-5.1
X5.725Y-7.95
X5.725Y-8.1
X5.725Y-8.125
X5.7324Y-2.4008
X5.7344Y-3.1261
X5.7363Y-6.4093
X5.7407Y-5.825
X5.7407Y-6.65
X5.7407Y-6.8
X5.7407Y-5.6961
X5.75Y-2.475
X5.75Y-5.35
X5.75Y-5.425
X5.75Y-5.475
X5.75Y-5.55
X5.75Y-5.975
X5.75Y-6.1
X5.75Y-6.525
X5.75Y-8.5
X5.7503Y-6.2423
X5.7511Y-2.4511
X5.7557Y-3.3606
X5.7588Y-6.2809
X5.7596Y-2.4978
X5.7596Y-2.7108
X5.7665Y-6.4323
X5.7693Y-3.4161
X5.7739Y-5.9511
X5.775Y-3.125
X5.775Y-3.925
X5.775Y-4.6
X5.775Y-6.875
X5.775Y-6.9
X5.7858Y-3.3915
X5.79Y-2.41
X5.7921Y-3.5247
X5.7943Y-4.4651
X5.7945Y-5.079
X5.8Y-2.675
X5.8Y-3.075
X5.8Y-3.7
X5.8Y-4.25
X5.8Y-5.45
X5.8Y-5.475
X5.8Y-5.8
X5.8Y-6.075
X5.8Y-7.175
X5.8Y-7.5
X5.8013Y-6.3258
X5.8093Y-6.6261
X5.825Y-3.275
X5.825Y-5.55
X5.825Y-6.9
X5.825Y-7.025
X5.825Y-8.0
X5.825Y-8.15
X5.825Y-8.5
X5.8307Y-3.5218
X5.839Y-3.7595
X5.8428Y-3.7359
X5.85Y-3.375
X5.85Y-3.65
X5.85Y-5.65
X5.85Y-5.925
X5.85Y-6.2
X5.85Y-6.475
X5.85Y-6.75
X5.85Y-7.475
X5.85Y-7.675
X5.85Y-2.6959
X5.8513Y-2.3717
X5.8535Y-3.4488
X5.8574Y-3.7173
X5.8614Y-2.3193
X5.875Y-2.575
X5.875Y-3.05
X5.875Y-3.125
X5.875Y-3.35
X5.875Y-3.9012
X5.875Y-4.3
X5.875Y-4.775
X5.875Y-4.8
X5.875Y-4.825
X5.875Y-4.85
X5.875Y-4.875
X5.875Y-4.9
X5.875Y-4.925
X5.875Y-4.95
X5.875Y-4.975
X5.875Y-5.3
X5.875Y-5.425
X5.875Y-7.0
X5.875Y-7.825
X5.875Y-8.15
X5.8989Y-2.3011
X5.9Y-2.625
X5.9Y-3.175
X5.9Y-6.45
X5.9Y-7.4
X5.925Y-2.3
X5.925Y-3.25
X5.925Y-3.9
X5.925Y-7.075
X5.925Y-7.275
X5.9255Y-6.3992
X5.9409Y-7.175
X5.9409Y-7.525
X5.9461Y-5.4343
X5.95Y-2.3
X5.95Y-2.55
X5.95Y-3.125
X5.95Y-3.25
X5.95Y-3.525
X5.95Y-4.3
X5.95Y-5.6
X5.9557Y-3.8687
X5.962Y-3.8114
X5.975Y-2.45
X5.975Y-2.5035
X5.975Y-2.55
X5.975Y-3.25
X5.975Y-3.525
X5.975Y-3.7
X5.9757Y-3.8494
X5.9807Y-3.7969
X5.9913Y-2.6311
X5.9924Y-3.5742
X5.9966Y-4.7441
X6.0Y-3.325
X6.0Y-3.85
X6.0Y-6.05
X6.0Y-6.275
X6.0Y-6.6
X6.0Y-6.725
X6.0Y-6.9
X6.0Y-8.2199
X6.0Y-8.5
X6.0011Y-4.6261
X6.0031Y-2.2531
X6.0086Y-5.7804
X6.0091Y-6.075
X6.0091Y-6.625
X6.0091Y-5.804
X6.0167Y-6.8333
X6.0184Y-3.8693
X6.0185Y-6.3858
X6.0206Y-3.4871
X6.025Y-3.075
X6.025Y-3.15
X6.025Y-4.25
X6.025Y-7.225
X6.025Y-7.25
X6.025Y-7.625
X6.0259Y-3.4641
X6.0267Y-3.9561
X6.0377Y-4.3443
X6.0468Y-3.4508
X6.05Y-2.75
X6.05Y-5.55
X6.05Y-5.65
X6.05Y-5.925
X6.05Y-6.2
X6.05Y-6.475
X6.05Y-6.75
X6.05Y-7.975
X6.0527Y-3.8
X6.0557Y-4.3595
X6.0589Y-3.3972
X6.0636Y-3.1807
X6.075Y-2.325
X6.075Y-3.35
X6.075Y-3.5406
X6.075Y-3.7
X6.075Y-4.375
X6.075Y-5.45
X6.075Y-5.825
X6.075Y-6.1
X6.075Y-6.65
X6.075Y-7.025
X6.075Y-7.975
X6.0761Y-5.3761
X6.079Y-3.621
X6.0895Y-2.6071
X6.0981Y-2.4004
X6.1Y-2.375
X6.1Y-3.075
X6.1Y-4.25
X6.1Y-4.4
X6.1Y-5.5
X6.1Y-8.0
X6.1022Y-3.5213
X6.1053Y-2.5267
X6.1199Y-6.4008
X6.1227Y-4.4227
X6.1239Y-4.4489
X6.125Y-2.45
X6.125Y-2.475
X6.125Y-3.1157
X6.125Y-4.475
X6.125Y-6.2
X6.125Y-7.075
X6.125Y-8.025
X6.1283Y-2.5952
X6.1368Y-6.5109
X6.1407Y-5.975
X6.1407Y-6.8
X6.1407Y-5.7039
X6.15Y-3.25
X6.15Y-3.928
X6.15Y-4.675
X6.15Y-5.05
X6.15Y-5.375
X6.15Y-8.125
X6.15Y-8.5
X6.1712Y-2.7443
X6.175Y-2.6508
X6.175Y-3.075
X6.175Y-4.25
X6.175Y-4.65
X6.175Y-5.55
X6.175Y-6.275
X6.175Y-6.925
X6.175Y-6.975
X6.175Y-7.05
X6.175Y-7.15
X6.175Y-7.875
X6.1764Y-3.9323
X6.1815Y-3.7737
X6.1828Y-3.6648
X6.1973Y-3.8244
X6.1989Y-4.2989
X6.2Y-3.375
X6.2Y-3.85
X6.2Y-5.375
X6.2Y-5.4
X6.2Y-5.475
X6.2Y-5.7262
X6.2Y-7.625
X6.2Y-7.675
X6.2Y-7.85
X6.2Y-7.9
X6.2Y-7.925
X6.2Y-7.95
X6.2Y-7.975
X6.2Y-8.0
X6.2Y-8.025
X6.2Y-8.1343
X6.2093Y-6.85
X6.2093Y-6.9
X6.2157Y-3.4337
X6.2203Y-5.6238
X6.2239Y-2.1489
X6.225Y-4.65
X6.225Y-5.05
X6.225Y-7.225
X6.225Y-7.4
X6.225Y-8.15
X6.225Y-8.5
X6.2261Y-7.2511
X6.2307Y-3.7235
X6.2313Y-3.1358
X6.25Y-2.625
X6.25Y-2.775
X6.25Y-3.075
X6.25Y-3.55
X6.25Y-3.7
X6.25Y-4.25
X6.25Y-5.075
X6.25Y-5.3
X6.25Y-5.65
X6.25Y-5.925
X6.25Y-6.2
X6.25Y-6.475
X6.25Y-6.75
X6.2557Y-3.8374
X6.2593Y-4.8907
X6.275Y-2.15
X6.275Y-3.225
X6.275Y-3.3
X6.275Y-3.403
X6.275Y-4.625
X6.275Y-5.825
X6.275Y-6.1
X6.275Y-6.65
X6.275Y-7.025
X6.2779Y-3.1382
X6.2815Y-6.3758
X6.2921Y-3.541
X6.3Y-3.9012
X6.3Y-8.5
X6.3066Y-2.4258
X6.3242Y-3.7188
X6.325Y-2.15
X6.325Y-2.5921
X6.325Y-2.85
X6.325Y-3.075
X6.325Y-4.25
X6.325Y-5.75
X6.325Y-6.025
X6.325Y-6.575
X6.325Y-7.25
X6.325Y-8.05
X6.3298Y-3.796
X6.3298Y-3.7574
X6.3317Y-3.6567
X6.3398Y-3.3057
X6.3399Y-3.4508
X6.3407Y-6.3608
X6.3419Y-6.0782
X6.3419Y-6.525
X6.3443Y-4.6797
X6.35Y-5.35
X6.35Y-5.475
X6.35Y-5.7
X6.35Y-5.8
X6.35Y-5.975
X6.35Y-6.25
X6.35Y-6.625
X6.35Y-6.8
X6.35Y-6.925
X6.35Y-7.075
X6.3569Y-6.5886
X6.3569Y-6.0237
X6.3624Y-6.498
X6.3648Y-4.6679
X6.375Y-5.5
X6.375Y-5.75
X6.375Y-6.65
X6.375Y-7.0488
X6.375Y-8.025
X6.375Y-8.5
X6.3776Y-3.2943
X6.3907Y-7.7843
X6.3989Y-3.1239
X6.3989Y-4.2989
X6.3995Y-2.7896
X6.4Y-2.275
X6.4Y-4.8715
X6.4Y-5.35
X6.4Y-6.625
X6.4Y-6.875
X6.4Y-7.2
X6.4Y-7.525
X6.4009Y-6.3514
X6.4011Y-6.0761
X6.4011Y-6.9011
X6.4013Y-3.1671
X6.4017Y-3.9311
X6.4066Y-4.6082
X6.4105Y-4.6332
X6.413Y-5.8037
X6.4154Y-7.9371
X6.4222Y-7.7778
X6.4241Y-7.8943
X6.4247Y-8.0494
X6.425Y-2.3
X6.425Y-2.7593
X6.425Y-5.05
X6.425Y-7.0
X6.425Y-7.275
X6.425Y-8.025
X6.4261Y-7.1261
X6.4285Y-7.9175
X6.4325Y-3.7653
X6.4402Y-3.6817
X6.4413Y-3.4817
X6.4436Y-5.3943
X6.4489Y-3.8739
X6.4489Y-3.5439
X6.45Y-2.325
X6.45Y-3.403
X6.45Y-4.125
X6.45Y-5.3
X6.45Y-5.65
X6.45Y-5.925
X6.45Y-6.2
X6.45Y-6.475
X6.45Y-6.75
X6.45Y-8.5
X6.4503Y-3.5203
X6.4504Y-3.8188
X6.4614Y-8.1307
X6.4648Y-3.7417
X6.4657Y-3.4504
X6.4693Y-4.2652
X6.4748Y-2.5758
X6.475Y-2.5286
X6.475Y-2.175
X6.475Y-2.425
X6.475Y-3.175
X6.475Y-3.275
X6.475Y-3.85
X6.475Y-4.025
X6.475Y-7.375
X6.475Y-2.505
X6.475Y-2.5522
X6.4761Y-2.8239
X6.4769Y-6.6509
X6.4769Y-2.5994
X6.5Y-3.7
X6.5Y-4.775
X6.5Y-7.675
X6.5011Y-2.4739
X6.5079Y-4.2753
X6.5096Y-3.913
X6.5136Y-4.5136
X6.5204Y-2.6758
X6.5217Y-2.6467
X6.5227Y-3.2262
X6.5238Y-3.1943
X6.525Y-4.0
X6.525Y-7.625
X6.525Y-7.825
X6.525Y-8.5
X6.5254Y-3.1258
X6.5287Y-3.7272
X6.5307Y-6.2649
X6.5307Y-6.6461
X6.5352Y-5.8123
X6.5352Y-6.1127
X6.5407Y-6.7961
X6.5407Y-6.5211
X6.5439Y-3.1108
X6.5439Y-2.6729
X6.5465Y-4.8
X6.5482Y-5.7
X6.5482Y-5.8999
X6.5482Y-5.975
X6.5489Y-3.4989
X6.5489Y-6.3943
X6.5491Y-7.6771
X6.5492Y-3.4425
X6.5498Y-3.8026
X6.55Y-4.7093
X6.55Y-5.35
X6.55Y-7.225
X6.55Y-7.7157
X6.55Y-3.8262
X6.5519Y-3.7791
X6.5539Y-8.0407
X6.5657Y-4.7657
X6.5675Y-6.0
X6.5731Y-7.6554
X6.5739Y-8.1307
X6.575Y-3.575
X6.575Y-4.025
X6.575Y-4.3
X6.575Y-4.95
X6.575Y-6.9
X6.5754Y-6.1004
X6.5772Y-7.8963
X6.5829Y-4.6307
X6.5875Y-6.3966
X6.5989Y-5.1011
X6.6Y-2.725
X6.6Y-3.25
X6.6Y-4.9057
X6.6Y-6.425
X6.6Y-6.625
X6.6Y-7.95
X6.6Y-8.5
X6.6011Y-5.3761
X6.6018Y-5.8
X6.6018Y-5.875
X6.6093Y-4.7657
X6.6097Y-6.0779
X6.6097Y-6.3443
X6.6097Y-5.8527
X6.625Y-2.45
X6.625Y-2.5
X6.625Y-2.75
X6.625Y-2.9157
X6.625Y-7.025
X6.625Y-7.375
X6.6261Y-5.0489
X6.6396Y-8.2093
X6.65Y-2.9
X6.65Y-4.15
X6.65Y-4.5
X6.65Y-5.65
X6.65Y-5.925
X6.65Y-6.2
X6.65Y-6.475
X6.65Y-6.75
X6.65Y-7.6762
X6.65Y-7.925
X6.6657Y-3.675
X6.6658Y-3.7785
X6.6696Y-5.6738
X6.6709Y-3.725
X6.6735Y-2.7177
X6.6742Y-3.4657
X6.6749Y-3.8774
X6.675Y-2.475
X6.675Y-3.35
X6.675Y-3.525
X6.675Y-3.825
X6.675Y-4.45
X6.675Y-5.4
X6.675Y-7.025
X6.675Y-8.5
X6.6794Y-3.2657
X6.6843Y-2.5552
X6.6935Y-2.705
X6.7Y-3.125
X6.7Y-4.425
X6.7Y-4.775
X6.7Y-7.65
X6.7066Y-5.6238
X6.7157Y-3.925
X6.7203Y-7.7307
X6.725Y-3.325
X6.725Y-4.3
X6.725Y-4.425
X6.725Y-5.55
X6.725Y-7.375
X6.7261Y-2.678
X6.7262Y-3.7004
X6.7276Y-2.5997
X6.7278Y-3.45
X6.7386Y-3.1557
X6.7466Y-8.1534
X6.7488Y-5.9738
X6.75Y-2.275
X6.75Y-4.375
X6.75Y-5.525
X6.75Y-5.575
X6.75Y-7.825
X6.75Y-8.5
X6.7504Y-5.6159
X6.7507Y-3.424
X6.7591Y-6.9
X6.7591Y-7.375
X6.7639Y-5.4688
X6.7693Y-3.7657
X6.7735Y-8.05
X6.775Y-3.4977
X6.775Y-3.525
X6.775Y-4.25
X6.775Y-4.425
X6.775Y-6.925
X6.775Y-7.4
X6.7772Y-3.8537
X6.7845Y-5.4
X6.7939Y-8.1043
X6.8Y-2.75
X6.8Y-2.85
X6.8Y-3.175
X6.8Y-3.7012
X6.8Y-4.45
X6.8Y-5.45
X6.8Y-6.95
X6.8Y-7.425
X6.8059Y-3.85
X6.8154Y-3.7846
X6.8246Y-5.5967
X6.825Y-2.325
X6.825Y-3.35
X6.825Y-3.525
X6.825Y-5.425
X6.825Y-6.975
X6.825Y-7.45
X6.8329Y-4.4671
X6.8439Y-5.6478
X6.8489Y-2.7307
X6.85Y-3.125
X6.85Y-5.425
X6.85Y-7.225
X6.851Y-7.75
X6.8539Y-7.4711
X6.8642Y-5.5508
X6.8645Y-4.4853
X6.8659Y-7.8017
X6.8739Y-5.5011
X6.875Y-2.725
X6.875Y-3.15
X6.875Y-3.95
X6.875Y-4.3
X6.875Y-4.4
X6.875Y-5.375
X6.875Y-5.475
X6.875Y-7.25
X6.875Y-8.125
X6.8763Y-3.1987
X6.877Y-8.0701
X6.8835Y-2.7887
X6.8872Y-4.775
X6.8907Y-2.8518
X6.896Y-7.4907
X6.8982Y-8.058
X6.8991Y-7.8947
X6.9Y-2.475
X6.9Y-7.275
X6.9017Y-8.0343
X6.9028Y-6.0443
X6.9135Y-3.698
X6.9136Y-7.875
X6.9221Y-2.7971
X6.925Y-2.275
X6.925Y-3.25
X6.925Y-3.8488
X6.925Y-5.05
X6.925Y-5.975
X6.925Y-6.125
X6.925Y-8.1
X6.9257Y-6.0502
X6.9278Y-5.6552
X6.9287Y-6.4759
X6.9291Y-7.2999
X6.9311Y-7.5057
X6.9489Y-3.388
X6.95Y-2.7
X6.95Y-2.725
X6.95Y-2.975
X6.95Y-3.0157
X6.95Y-3.175
X6.95Y-3.575
X6.95Y-3.725
X6.95Y-3.775
X6.95Y-4.325
X6.95Y-6.55
X6.95Y-6.825
X6.95Y-6.85
X6.9511Y-3.4171
X6.9523Y-2.85
X6.9638Y-7.55
X6.9679Y-6.0352
X6.971Y-7.921
X6.9713Y-3.1537
X6.975Y-6.45
X6.975Y-6.525
X6.975Y-7.425
X6.9787Y-7.5037
X6.984Y-5.4882
X6.9886Y-5.5114
X6.9943Y-3.4364
X6.9974Y-7.3724
X6.9988Y-7.3462
X6.9989Y-5.3989
X6.9991Y-5.7494
X7.0Y-2.325
X7.0Y-2.475
X7.0Y-3.125
X7.0Y-5.825
X7.0Y-6.475
X7.0Y-6.8843
X7.0Y-7.025
X7.0Y-7.15
X7.0Y-7.2
X7.0Y-7.525
X7.0093Y-3.2911
X7.0183Y-6.006
X7.0234Y-5.5091
X7.025Y-5.65
X7.025Y-5.75
X7.025Y-7.55
X7.025Y-7.975
X7.0261Y-5.4261
X7.0327Y-3.7943
X7.034Y-3.8484
X7.0341Y-4.375
X7.035Y-5.585
X7.0379Y-3.7007
X7.0409Y-2.8091
X7.043Y-3.7557
X7.0461Y-5.5157
X7.0489Y-5.6239
X7.05Y-3.125
X7.05Y-4.05
X7.05Y-4.3
X7.05Y-4.35
X7.05Y-4.425
X7.05Y-5.75
X7.05Y-5.8
X7.05Y-6.45
X7.0501Y-5.4461
X7.0727Y-5.8067
X7.075Y-3.575
X7.075Y-3.975
X7.075Y-4.1
X7.075Y-4.325
X7.075Y-6.475
X7.0764Y-5.8302
X7.0841Y-5.4075
X7.0843Y-5.876
X7.0847Y-5.8523
X7.0941Y-5.8996
X7.0941Y-5.925
X7.0986Y-3.1738
X7.1Y-2.6657
X7.1Y-4.85
X7.1Y-4.875
X7.1Y-4.8998
X7.1Y-4.9234
X7.1Y-4.947
X7.1Y-4.9707
X7.1Y-5.7
X7.1Y-7.825
X7.1007Y-5.461
X7.1013Y-3.9262
X7.1047Y-4.75
X7.1088Y-6.9486
X7.1091Y-2.775
X7.1091Y-4.8
X7.1091Y-4.825
X7.1103Y-6.9014
X7.1106Y-7.249
X7.1108Y-6.9251
X7.1109Y-7.2741
X7.1111Y-7.2991
X7.1117Y-4.7765
X7.1147Y-4.4737
X7.1239Y-7.0261
X7.125Y-6.9657
X7.125Y-7.1
X7.125Y-7.2
X7.125Y-7.225
X7.125Y-7.525
X7.125Y-8.1843
X7.1256Y-2.9508
X7.1257Y-6.8835
X7.1261Y-7.4989
X7.134Y-7.2523
X7.1462Y-3.0108
X7.15Y-2.275
X7.15Y-2.625
X7.15Y-3.1
X7.15Y-3.675
X7.15Y-5.275
X7.15Y-5.625
X7.15Y-5.975
X7.15Y-6.05
X7.15Y-6.475
X7.15Y-7.475
X7.15Y-7.275
X7.1574Y-3.3193
X7.1703Y-2.45
X7.174Y-2.9618
X7.175Y-3.025
X7.175Y-4.275
X7.175Y-4.375
X7.175Y-7.0
X7.175Y-7.225
X7.175Y-7.3
X7.175Y-7.45
X7.175Y-7.5407
X7.175Y-7.975
X7.1783Y-2.7242
X7.1814Y-4.2204
X7.2Y-2.325
X7.2Y-4.025
X7.2Y-7.325
X7.2Y-7.525
X7.2052Y-3.0179
X7.2055Y-5.3557
X7.2069Y-2.9644
X7.2134Y-4.5128
X7.2137Y-2.5844
X7.2224Y-7.4466
X7.2249Y-5.5522
X7.225Y-4.725
X7.225Y-5.5907
X7.225Y-5.725
X7.225Y-6.05
X7.225Y-6.475
X7.2274Y-4.3765
X7.2307Y-4.7774
X7.2341Y-3.1945
X7.2387Y-6.9479
X7.2392Y-6.8843
X7.2392Y-6.9996
X7.2394Y-6.976
X7.2423Y-4.4039
X7.25Y-3.45
X7.25Y-4.625
X7.25Y-6.525
X7.25Y-7.4959
X7.25Y-7.65
X7.2625Y-7.1375
X7.2731Y-6.8057
X7.275Y-2.2
X7.275Y-3.475
X7.275Y-4.6227
X7.275Y-5.725
X7.275Y-6.525
X7.276Y-7.6039
X7.2954Y-4.4978
X7.2961Y-6.0157
X7.2982Y-5.2768
X7.299Y-2.7698
X7.3Y-3.5
X7.3Y-6.475
X7.3Y-6.625
X7.3Y-6.7
X7.3011Y-4.6511
X7.3054Y-2.3659
X7.3108Y-4.3862
X7.3112Y-2.6307
X7.3114Y-4.4433
X7.3193Y-4.4943
X7.3242Y-4.7331
X7.325Y-3.525
X7.325Y-6.05
X7.325Y-7.975
X7.3388Y-3.7237
X7.3462Y-7.252
X7.3474Y-7.3724
X7.349Y-2.5508
X7.35Y-2.25
X7.35Y-3.55
X7.35Y-5.05
X7.35Y-5.625
X7.35Y-7.175
X7.35Y-7.225
X7.35Y-7.325
X7.35Y-8.1343
X7.3501Y-7.2753
X7.3507Y-6.8843
X7.351Y-7.2989
X7.3529Y-3.7557
X7.3687Y-3.7943
X7.3745Y-2.2259
X7.375Y-2.2
X7.375Y-3.575
X7.375Y-5.3012
X7.375Y-6.475
X7.375Y-6.75
X7.375Y-7.825
X7.3781Y-6.9969
X7.3842Y-3.8495
X7.388Y-6.8296
X7.3961Y-5.4093
X7.3976Y-5.9531
X7.3978Y-5.5011
X7.3998Y-3.3343
X7.4Y-2.375
X7.4Y-3.675
X7.4Y-3.775
X7.4Y-3.875
X7.4Y-3.9
X7.4Y-3.925
X7.4Y-3.95
X7.4Y-3.975
X7.4Y-3.9988
X7.4Y-4.025
X7.4Y-4.225
X7.4Y-4.25
X7.4Y-4.275
X7.4Y-4.3
X7.4Y-4.325
X7.4Y-4.35
X7.4Y-5.625
X7.4Y-5.8
X7.4Y-5.85
X7.4Y-6.025
X7.4Y-6.575
X7.4Y-6.975
X7.4Y-2.5
X7.4011Y-4.3739
X7.4011Y-5.8239
X7.4057Y-5.4788
X7.4078Y-3.8502
X7.4142Y-5.5181
X7.425Y-2.9488
X7.425Y-3.25
X7.425Y-3.425
X7.425Y-3.75
X7.425Y-6.05
X7.425Y-6.525
X7.425Y-6.95
X7.425Y-7.65
X7.425Y-7.8488
X7.4261Y-6.8739
X7.4267Y-3.0399
X7.4305Y-7.589
X7.4316Y-7.3864
X7.4442Y-7.4126
X7.4489Y-6.8239
X7.4499Y-3.2293
X7.45Y-4.45
X7.45Y-4.5
X7.45Y-5.525
X7.45Y-5.6057
X7.45Y-6.075
X7.45Y-6.7
X7.45Y-7.8488
X7.45Y-8.075
X7.4502Y-5.4242
X7.475Y-2.7
X7.475Y-5.675
X7.475Y-6.025
X7.475Y-6.7593
X7.475Y-7.1512
X7.4766Y-3.1009
X7.4797Y-3.075
X7.5Y-3.375
X7.5Y-4.075
X7.5Y-4.475
X7.5Y-5.325
X7.5Y-5.775
X7.5Y-6.625
X7.5Y-6.7
X7.5Y-7.0
X7.5Y-7.875
X7.5011Y-6.8489
X7.5088Y-7.2852
X7.5089Y-7.3282
X7.5136Y-5.4307
X7.5148Y-7.5492
X7.5189Y-7.2488
X7.5192Y-7.2213
X7.5213Y-3.9228
X7.525Y-4.8
X7.525Y-4.825
X7.525Y-4.85
X7.525Y-4.875
X7.525Y-4.9
X7.525Y-4.925
X7.525Y-4.95
X7.525Y-4.975
X7.525Y-6.05
X7.525Y-6.475
X7.525Y-7.125
X7.525Y-7.1854
X7.525Y-7.35
X7.525Y-7.975
X7.5289Y-4.7614
X7.5307Y-4.0343
X7.5434Y-3.8399
X7.5447Y-8.0449
X7.5479Y-7.3018
X7.5489Y-2.3409
X7.55Y-2.175
X7.55Y-2.2
X7.55Y-2.225
X7.55Y-2.275
X7.55Y-2.4341
X7.55Y-2.4738
X7.55Y-2.5262
X7.55Y-2.55
X7.55Y-2.575
X7.55Y-2.625
X7.55Y-2.975
X7.55Y-3.05
X7.55Y-3.95
X7.55Y-4.2
X7.55Y-4.5
X7.55Y-5.275
X7.5631Y-5.6336
X7.5693Y-4.3636
X7.5739Y-4.0739
X7.575Y-2.275
X7.575Y-3.0
X7.575Y-3.3343
X7.575Y-3.6
X7.575Y-6.075
X7.5787Y-4.1728
X7.5804Y-5.5973
X7.5949Y-7.1308
X7.5977Y-3.0981
X7.5978Y-7.2751
X7.6Y-2.7
X7.6Y-3.025
X7.6Y-6.45
X7.6Y-6.575
X7.6Y-6.85
X7.6Y-8.125
X7.6Y-7.3265
X7.6Y-3.0746
X7.6011Y-4.1011
X7.6014Y-7.3028
X7.6035Y-7.175
X7.6035Y-7.1989
X7.6094Y-3.9575
X7.6136Y-5.3557
X7.6239Y-5.5761
X7.6245Y-7.2251
X7.625Y-3.25
X7.625Y-3.725
X7.625Y-4.45
X7.625Y-5.725
X7.625Y-5.775
X7.625Y-5.8
X7.625Y-5.825
X7.625Y-5.85
X7.625Y-5.975
X7.625Y-6.1
X7.625Y-7.325
X7.6261Y-5.9489
X7.6273Y-5.9227
X7.6273Y-7.6514
X7.6287Y-5.8983
X7.6343Y-4.0343
X7.6438Y-7.2405
X7.65Y-4.2
X7.65Y-4.475
X7.65Y-4.75
X7.65Y-5.475
X7.65Y-5.875
X7.65Y-6.8
X7.65Y-7.1512
X7.6511Y-5.5489
X7.6517Y-7.9311
X7.6549Y-7.5183
X7.6591Y-7.4787
X7.6614Y-2.9193
X7.675Y-4.675
X7.675Y-5.375
X7.675Y-5.4435
X7.675Y-5.55
X7.675Y-5.575
X7.675Y-6.05
X7.675Y-6.125
X7.675Y-6.475
X7.675Y-6.6407
X7.675Y-6.75
X7.6789Y-2.2539
X7.682Y-2.8258
X7.6886Y-3.8137
X7.7Y-3.35
X7.7Y-3.725
X7.7Y-4.1
X7.7Y-6.5
X7.7Y-6.625
X7.7Y-6.725
X7.7Y-6.75
X7.7051Y-7.4843
X7.716Y-7.108
X7.7243Y-7.52
X7.725Y-2.6008
X7.735Y-4.4192
X7.735Y-3.9012
X7.7362Y-5.3557
X7.7398Y-7.1593
X7.7407Y-2.975
X7.7417Y-3.9424
X7.7488Y-4.3114
X7.7489Y-7.4761
X7.75Y-3.8262
X7.75Y-4.15
X7.75Y-4.35
X7.75Y-5.725
X7.75Y-5.875
X7.75Y-7.3
X7.75Y-7.325
X7.75Y-7.4
X7.75Y-7.9762
X7.75Y-8.4012
X7.7511Y-7.2761
X7.7512Y-7.4262
X7.7557Y-4.0557
X7.7703Y-3.2406
X7.7739Y-7.5011
X7.775Y-2.95
X7.775Y-4.175
X7.775Y-5.275
X7.775Y-6.0
X7.7756Y-7.5446
X7.7773Y-3.9
X7.7774Y-4.4807
X7.8Y-3.075
X7.8Y-3.1
X7.8Y-3.15
X7.8Y-3.175
X7.8Y-3.2
X7.8Y-3.225
X7.8Y-3.45
X7.8Y-3.475
X7.8Y-3.5
X7.8Y-3.525
X7.8Y-3.55
X7.8Y-3.575
X7.8Y-3.6
X7.8Y-3.625
X7.8Y-4.65
X7.8Y-5.05
X7.8Y-6.575
X7.8Y-6.85
X7.8Y-7.0
X7.8Y-8.075
X7.8Y-8.125
X7.8001Y-7.5751
X7.8011Y-3.1261
X7.803Y-4.4144
X7.8031Y-3.3031
X7.8093Y-3.8
X7.8219Y-7.4031
X7.8239Y-5.6239
X7.825Y-2.975
X7.825Y-3.375
X7.825Y-3.75
X7.825Y-5.775
X7.825Y-7.258
X7.825Y-7.3
X7.825Y-7.725
X7.8258Y-4.1407
X7.8263Y-5.4513
X7.8285Y-7.5
X7.8407Y-8.4012
X7.8489Y-6.7261
X7.85Y-4.45
X7.85Y-5.075
X7.85Y-7.625
X7.85Y-7.9488
X7.875Y-2.525
X7.875Y-4.6738
X7.875Y-5.05
X7.875Y-5.5
X7.875Y-7.15
X7.875Y-7.75
X7.875Y-7.95
X7.8761Y-6.6989
X7.8843Y-5.7343
X7.8943Y-5.4303
X7.9Y-8.0773
X7.9Y-4.075
X7.9Y-5.075
X7.9Y-5.7
X7.9Y-6.125
X7.9Y-6.625
X7.9Y-6.825
X7.9Y-7.025
X7.9Y-7.875
X7.903Y-5.4522
X7.9051Y-3.2421
X7.9239Y-4.2011
X7.9239Y-7.3511
X7.9245Y-7.1938
X7.925Y-2.5709
X7.925Y-3.0512
X7.925Y-3.425
X7.925Y-3.45
X7.925Y-3.6
X7.925Y-3.65
X7.925Y-3.8
X7.925Y-3.875
X7.925Y-3.9
X7.925Y-3.925
X7.925Y-3.95
X7.925Y-3.975
X7.925Y-3.9988
X7.925Y-4.025
X7.925Y-4.225
X7.925Y-4.25
X7.925Y-4.275
X7.925Y-4.3
X7.925Y-4.3571
X7.925Y-4.3807
X7.925Y-6.825
X7.925Y-7.65
X7.9261Y-3.8511
X7.9261Y-4.0739
X7.9261Y-7.1239
X7.9279Y-7.9161
X7.9384Y-7.4262
X7.9436Y-8.4016
X7.9443Y-2.9193
X7.95Y-3.2762
X7.95Y-3.85
X7.95Y-3.9
X7.95Y-4.225
X7.95Y-4.325
X7.95Y-4.35
X7.95Y-7.5
X7.95Y-7.8
X7.9526Y-4.0718
X7.9557Y-7.5636
X7.9604Y-5.3557
X7.975Y-2.7
X7.975Y-3.075
X7.975Y-3.175
X7.975Y-3.925
X7.975Y-4.1
X7.975Y-5.8
X7.975Y-7.6
X7.9761Y-7.1239
X7.9769Y-7.0259
X7.9787Y-7.4657
X7.9873Y-7.7193
X7.9903Y-7.7427
X7.9946Y-4.0566
X7.9961Y-2.6843
X7.9991Y-7.7646
X8.0Y-3.1988
X8.0Y-3.75
X8.0Y-3.95
X8.0Y-4.4
X8.0Y-4.65
X8.0Y-4.6738
X8.0Y-4.9157
X8.0Y-5.275
X8.0Y-6.575
X8.0Y-6.85
X8.0Y-7.0
X8.0Y-7.425
X8.0Y-7.45
X8.0Y-7.575
X8.0Y-7.6
X8.0Y-7.625
X8.0Y-7.65
X8.0Y-7.675
X8.0Y-7.9762
X8.007Y-7.4012
X8.0088Y-5.557
X8.0091Y-4.1607
X8.0125Y-4.0375
X8.0178Y-3.0864
X8.0239Y-5.6989
X8.0245Y-3.2768
X8.025Y-3.125
X8.025Y-3.25
X8.025Y-3.475
X8.025Y-3.5
X8.025Y-3.8
X8.025Y-3.875
X8.025Y-3.975
X8.025Y-4.25
X8.025Y-4.375
X8.0316Y-4.0196
X8.0356Y-4.2083
X8.0376Y-7.1639
X8.0424Y-7.2474
X8.0468Y-5.9206
X8.0499Y-7.286
X8.05Y-8.4016
X8.05Y-2.9343
X8.05Y-5.05
X8.05Y-5.625
X8.05Y-6.4
X8.05Y-7.8762
X8.0501Y-5.8137
X8.0516Y-7.3245
X8.0554Y-5.8383
X8.0568Y-7.126
X8.057Y-7.3488
X8.0659Y-5.9068
X8.068Y-3.4012
X8.0739Y-6.9511
X8.075Y-3.025
X8.075Y-5.1
X8.075Y-5.8
X8.075Y-6.775
X8.075Y-7.525
X8.0752Y-4.422
X8.0877Y-4.1377
X8.099Y-5.7485
X8.1Y-6.05
X8.1Y-7.0
X8.1011Y-6.7261
X8.1011Y-6.9239
X8.1148Y-6.625
X8.1215Y-7.7953
X8.1239Y-7.8248
X8.125Y-2.75
X8.125Y-2.875
X8.125Y-4.5
X8.125Y-4.75
X8.125Y-5.675
X8.125Y-7.125
X8.125Y-7.8488
X8.1319Y-3.4345
X8.1341Y-5.475
X8.1341Y-5.55
X8.1341Y-5.975
X8.1361Y-3.0512
X8.1421Y-3.975
X8.15Y-2.6907
X8.15Y-2.9
X8.15Y-3.175
X8.15Y-3.2
X8.15Y-3.375
X8.15Y-3.525
X8.15Y-3.55
X8.15Y-3.575
X8.15Y-3.6
X8.15Y-3.625
X8.15Y-3.65
X8.15Y-3.8157
X8.15Y-3.875
X8.15Y-3.9
X8.15Y-3.925
X8.15Y-3.95
X8.15Y-4.0
X8.15Y-4.1608
X8.15Y-4.775
X8.15Y-5.956
X8.15Y-7.95
X8.15Y-8.4016
X8.1511Y-6.4417
X8.1512Y-2.9843
X8.1544Y-3.4012
X8.1657Y-3.975
X8.1711Y-7.2657
X8.1715Y-4.7959
X8.175Y-3.15
X8.175Y-3.2238
X8.175Y-3.475
X8.175Y-4.675
X8.175Y-5.95
X8.175Y-7.4
X8.175Y-7.7
X8.175Y-7.8
X8.1773Y-7.525
X8.1802Y-4.4856
X8.1907Y-4.7407
X8.1953Y-4.9157
X8.1971Y-3.1947
X8.1978Y-3.5537
X8.1978Y-3.7228
X8.1986Y-4.6492
X8.1989Y-2.8239
X8.2Y-2.525
X8.2Y-2.7307
X8.2Y-2.9
X8.2Y-3.5
X8.2Y-3.525
X8.2Y-4.325
X8.2Y-5.8
X8.2Y-6.0
X8.2Y-6.575
X8.2Y-6.85
X8.2Y-7.55
X8.2001Y-2.2539
X8.201Y-2.9491
X8.201Y-4.4715
X8.202Y-5.9
X8.2035Y-3.7994
X8.2249Y-2.8747
X8.225Y-3.0242
X8.225Y-3.375
X8.225Y-3.525
X8.225Y-3.675
X8.225Y-3.95
X8.225Y-4.275
X8.225Y-4.3
X8.225Y-4.3248
X8.225Y-4.3484
X8.225Y-4.372
X8.225Y-5.05
X8.225Y-5.275
X8.225Y-5.35
X8.225Y-5.45
X8.225Y-5.7
X8.225Y-6.825
X8.225Y-7.575
X8.225Y-7.6
X8.225Y-7.625
X8.225Y-7.65
X8.225Y-7.675
X8.225Y-7.7
X8.225Y-7.725
X8.225Y-7.75
X8.225Y-7.775
X8.225Y-7.95
X8.2253Y-5.3965
X8.2261Y-2.8511
X8.2261Y-4.2511
X8.2263Y-2.8983
X8.2273Y-5.9023
X8.2305Y-2.9519
X8.2461Y-6.7636
X8.25Y-3.225
X8.25Y-3.4
X8.25Y-3.45
X8.25Y-3.525
X8.25Y-3.75
X8.25Y-6.9
X8.25Y-8.425
X8.2507Y-6.6683
X8.2513Y-7.0446
X8.2557Y-6.7068
X8.275Y-3.075
X8.275Y-3.375
X8.275Y-3.475
X8.275Y-3.9241
X8.275Y-4.75
X8.275Y-5.3
X8.275Y-5.65
X8.275Y-6.05
X8.275Y-7.4
X8.275Y-8.05
X8.2781Y-3.4222
X8.2809Y-4.4309
X8.2809Y-4.1144
X8.2886Y-3.4557
X8.2907Y-6.8593
X8.2936Y-3.9702
X8.2967Y-3.9936
X8.2988Y-3.224
X8.299Y-3.3943
X8.2991Y-4.0171
X8.2994Y-3.1986
X8.2997Y-3.7494
X8.3Y-2.525
X8.3Y-3.25
X8.3Y-3.3
X8.3Y-3.35
X8.3Y-3.725
X8.3Y-3.775
X8.3Y-3.8
X8.3Y-6.625
X8.3Y-3.175
X8.3011Y-3.9478
X8.3035Y-3.8465
X8.3039Y-3.9093
X8.3066Y-7.0
X8.3085Y-2.239
X8.3239Y-5.9511
X8.325Y-5.1
X8.325Y-5.75
X8.325Y-5.9
X8.325Y-5.925
X8.325Y-6.825
X8.325Y-8.125
X8.3309Y-7.5964
X8.3352Y-5.4807
X8.3402Y-6.4098
X8.3402Y-7.3652
X8.3411Y-7.3391
X8.342Y-5.5443
X8.3459Y-7.6151
X8.3493Y-4.4047
X8.35Y-3.5
X8.35Y-4.75
X8.35Y-5.825
X8.35Y-7.15
X8.35Y-7.175
X8.35Y-7.2
X8.35Y-7.225
X8.35Y-7.25
X8.35Y-7.275
X8.35Y-7.875
X8.3511Y-7.2989
X8.3513Y-2.7242
X8.3516Y-7.6404
X8.3557Y-4.1171
X8.3565Y-8.4185
X8.3566Y-4.0554
X8.3665Y-7.6868
X8.3739Y-5.5011
X8.3747Y-2.776
X8.375Y-4.4
X8.375Y-6.075
X8.3756Y-2.6407
X8.3769Y-7.0259
X8.3769Y-6.7509
X8.3815Y-7.7168
X8.383Y-2.5373
X8.384Y-4.1657
X8.3965Y-7.75
X8.3974Y-7.9083
X8.4Y-2.225
X8.4Y-2.7157
X8.4Y-2.85
X8.4Y-3.725
X8.4Y-4.25
X8.4Y-4.6835
X8.4Y-4.925
X8.4Y-5.5057
X8.4Y-6.1
X8.4Y-6.575
X8.4Y-6.85
X8.4Y-7.85
X8.4014Y-3.2736
X8.4014Y-3.8236
X8.4069Y-3.175
X8.4122Y-8.0907
X8.4186Y-7.7744
X8.4193Y-5.8989
X8.425Y-2.525
X8.425Y-3.75
X8.425Y-4.15
X8.425Y-4.225
X8.425Y-5.275
X8.425Y-5.4
X8.425Y-5.675
X8.425Y-5.7
X8.425Y-6.55
X8.4262Y-3.2
X8.429Y-4.7315
X8.4364Y-4.4428
X8.4386Y-5.875
X8.4489Y-2.2693
X8.45Y-2.65
X8.45Y-2.828
X8.45Y-3.225
X8.45Y-3.775
X8.45Y-4.225
X8.45Y-6.125
X8.45Y-7.5
X8.45Y-7.6
X8.45Y-7.625
X8.45Y-7.65
X8.45Y-7.675
X8.45Y-7.7
X8.45Y-7.725
X8.45Y-7.75
X8.45Y-7.775
X8.45Y-8.05
X8.45Y-8.475
X8.4593Y-3.0049
X8.4633Y-6.3225
X8.4695Y-5.6305
X8.4739Y-7.0488
X8.475Y-2.575
X8.475Y-3.075
X8.475Y-3.175
X8.475Y-3.25
X8.475Y-3.6
X8.475Y-3.8
X8.475Y-4.45
X8.475Y-4.65
X8.4761Y-4.4761
X8.4787Y-2.6787
X8.4907Y-6.8593
X8.5Y-2.625
X8.5Y-3.275
X8.5Y-3.625
X8.5Y-3.825
X8.5Y-3.85
X8.5Y-4.075
X8.5Y-4.45
X8.5Y-4.625
X8.5Y-6.625
X8.5Y-6.6876
X8.5Y-6.95
X8.5Y-7.925
X8.5Y-7.9512
X8.5011Y-2.2239
X8.5011Y-6.0739
X8.5011Y-6.9989
X8.5062Y-4.1807
X8.5127Y-5.3627
X8.5224Y-3.2907
X8.5237Y-4.4921
X8.525Y-6.4642
X8.525Y-3.4
X8.525Y-3.575
X8.525Y-4.025
X8.525Y-4.725
X8.525Y-5.6
X8.525Y-6.2
X8.5267Y-3.1307
X8.5297Y-3.9392
X8.532Y-7.125
X8.55Y-2.825
X8.55Y-3.225
X8.55Y-3.325
X8.55Y-3.425
X8.55Y-4.2
X8.55Y-5.775
X8.55Y-5.8
X8.55Y-5.875
X8.55Y-5.9
X8.55Y-6.05
X8.55Y-6.475
X8.55Y-7.4
X8.5623Y-3.958
X8.5713Y-3.0463
X8.575Y-2.9291
X8.575Y-2.9827
X8.575Y-3.325
X8.575Y-3.45
X8.575Y-4.15
X8.575Y-4.625
X8.575Y-5.05
X8.575Y-5.3
X8.575Y-5.425
X8.575Y-5.5321
X8.575Y-6.75
X8.575Y-7.775
X8.575Y-8.1057
X8.575Y-7.4961
X8.5779Y-3.9839
X8.5822Y-5.4636
X8.6Y-2.647
X8.6Y-2.8
X8.6Y-3.475
X8.6Y-3.9988
X8.6Y-4.2
X8.6Y-5.725
X8.6Y-5.95
X8.6Y-6.5
X8.6Y-6.575
X8.6Y-6.85
X8.6Y-7.475
X8.6Y-7.75
X8.6001Y-8.0749
X8.6239Y-4.8239
X8.625Y-3.075
X8.625Y-3.45
X8.625Y-3.5
X8.625Y-4.4943
X8.625Y-4.675
X8.625Y-4.7762
X8.625Y-4.8
X8.625Y-4.85
X8.625Y-4.875
X8.625Y-4.9
X8.625Y-4.925
X8.625Y-4.95
X8.625Y-5.35
X8.625Y-6.025
X8.625Y-6.4
X8.625Y-6.8
X8.625Y-7.725
X8.625Y-7.9738
X8.6262Y-4.0631
X8.6279Y-7.4303
X8.6325Y-7.1149
X8.6446Y-7.4066
X8.65Y-3.325
X8.65Y-3.35
X8.65Y-3.9093
X8.65Y-4.45
X8.65Y-4.7
X8.65Y-5.075
X8.65Y-5.75
X8.65Y-6.125
X8.65Y-6.475
X8.65Y-6.7
X8.65Y-7.7
X8.65Y-8.125
X8.6517Y-3.0756
X8.6553Y-3.1029
X8.6724Y-7.5249
X8.675Y-3.125
X8.675Y-3.275
X8.675Y-3.3
X8.675Y-3.35
X8.675Y-3.375
X8.675Y-3.65
X8.675Y-3.925
X8.675Y-3.9988
X8.675Y-4.075
X8.675Y-4.8
X8.675Y-5.1
X8.675Y-6.525
X8.675Y-7.675
X8.675Y-8.425
X8.6829Y-8.1829
X8.6945Y-5.6305
X8.6961Y-7.6501
X8.7Y-3.1
X8.7Y-3.25
X8.7Y-3.675
X8.7Y-3.725
X8.7Y-3.875
X8.7Y-3.975
X8.7Y-4.7762
X8.7Y-5.075
X8.7Y-6.3157
X8.7Y-6.5488
X8.7Y-8.275
X8.7062Y-8.2155
X8.7066Y-7.3488
X8.711Y-7.525
X8.711Y-7.6312
X8.715Y-4.2275
X8.7171Y-6.5686
X8.725Y-2.825
X8.725Y-2.875
X8.725Y-2.9
X8.725Y-2.925
X8.725Y-2.95
X8.725Y-2.975
X8.725Y-3.0
X8.725Y-3.075
X8.725Y-3.3
X8.725Y-3.325
X8.725Y-3.425
X8.725Y-3.85
X8.725Y-3.925
X8.725Y-3.95
X8.725Y-4.175
X8.725Y-4.25
X8.725Y-4.275
X8.725Y-4.3
X8.725Y-4.325
X8.725Y-4.35
X8.725Y-4.375
X8.725Y-4.6
X8.725Y-4.85
X8.725Y-4.975
X8.725Y-5.8
X8.725Y-5.9
X8.725Y-6.475
X8.726Y-7.6
X8.7261Y-2.8511
X8.7261Y-4.8761
X8.7261Y-8.1239
X8.7379Y-4.2218
X8.7384Y-5.5008
X8.7419Y-6.5711
X8.7449Y-5.0199
X8.7485Y-4.8893
X8.75Y-2.85
X8.75Y-3.4
X8.75Y-3.45
X8.75Y-3.725
X8.75Y-3.875
X8.75Y-4.3
X8.75Y-4.7762
X8.75Y-5.4
X8.75Y-5.9
X8.75Y-7.5
X8.75Y-7.9512
X8.7511Y-4.9843
X8.7605Y-5.4925
X8.7659Y-7.775
X8.7733Y-5.5157
X8.775Y-2.375
X8.775Y-2.725
X8.775Y-2.875
X8.775Y-3.375
X8.775Y-3.85
X8.775Y-3.9
X8.775Y-4.025
X8.775Y-4.275
X8.775Y-4.325
X8.775Y-4.5
X8.775Y-5.625
X8.775Y-6.325
X8.7896Y-6.694
X8.7955Y-3.3525
X8.7982Y-3.8023
X8.7998Y-3.7771
X8.8Y-2.9
X8.8Y-3.2
X8.8Y-3.275
X8.8Y-3.575
X8.8Y-3.85
X8.8Y-4.25
X8.8Y-5.75
X8.8Y-5.875
X8.8Y-6.464
X8.8001Y-3.8259
X8.8002Y-3.4943
X8.8011Y-3.1761
X8.8013Y-6.6339
X8.8061Y-6.657
X8.8091Y-2.5317
X8.8097Y-6.7065
X8.825Y-2.825
X8.825Y-2.925
X8.825Y-4.175
X8.825Y-4.35
X8.825Y-4.625
X8.825Y-5.3
X8.825Y-6.325
X8.825Y-7.55
X8.8261Y-6.9761
X8.8338Y-3.0608
X8.8341Y-7.5
X8.8341Y-7.775
X8.8489Y-3.6989
X8.85Y-4.0512
X8.85Y-7.975
X8.8511Y-5.0761
X8.875Y-4.675
X8.875Y-5.1
X8.875Y-5.875
X8.875Y-7.375
X8.875Y-7.65
X8.8754Y-2.6473
X8.8787Y-2.6787
X8.882Y-3.0758
X8.898Y-3.1508
X8.8989Y-3.7261
X8.9Y-3.3747
X8.9Y-3.2557
X8.9Y-3.3
X8.9Y-3.35
X8.9Y-3.45
X8.9Y-3.75
X8.9Y-3.875
X8.9Y-3.9
X8.9Y-4.025
X8.9Y-5.125
X8.9Y-5.6262
X8.9Y-5.9
X8.9Y-6.325
X8.9Y-7.55
X8.9Y-7.825
X8.9004Y-3.9437
X8.9006Y-3.4244
X8.9013Y-3.324
X8.9014Y-3.3982
X8.9042Y-3.2325
X8.925Y-3.075
X8.925Y-3.65
X8.925Y-3.925
X8.925Y-3.975
X8.925Y-3.9988
X8.925Y-4.4512
X8.925Y-4.525
X8.925Y-5.15
X8.925Y-5.8
X8.925Y-7.2
X8.9263Y-6.3657
X8.9313Y-3.1358
X8.9386Y-4.1745
X8.9459Y-4.15
X8.9499Y-4.2249
X8.95Y-2.8
X8.95Y-2.85
X8.95Y-2.875
X8.95Y-2.9
X8.95Y-2.925
X8.95Y-3.275
X8.95Y-3.625
X8.95Y-3.7
X8.95Y-3.85
X8.95Y-4.0512
X8.95Y-4.275
X8.95Y-4.3
X8.95Y-4.6
X8.95Y-5.175
X8.95Y-5.625
X8.95Y-5.9
X8.95Y-6.475
X8.9501Y-4.2499
X8.9595Y-3.1082
X8.9614Y-5.4364
X8.9693Y-3.9307
X8.9739Y-2.2432
X8.975Y-3.3
X8.975Y-3.6
X8.975Y-3.825
X8.975Y-5.35
X8.975Y-5.55
X8.975Y-6.625
X8.975Y-6.925
X8.975Y-7.425
X8.975Y-7.7
X8.975Y-7.925
X8.975Y-8.35
X8.9761Y-5.5761
X8.9843Y-3.9584
X8.9907Y-4.85
X9.0Y-2.925
X9.0Y-3.1843
X9.0Y-3.8
X9.0Y-5.3
X9.0Y-5.35
X9.0Y-5.825
X9.0Y-5.95
X9.0Y-6.9
X9.0Y-7.475
X9.0Y-7.575
X9.0005Y-3.9755
X9.0011Y-3.7261
X9.0011Y-7.7511
X9.0057Y-4.8291
X9.0114Y-3.2057
X9.0228Y-3.5287
X9.0239Y-4.3761
X9.025Y-2.9
X9.025Y-3.75
X9.025Y-3.775
X9.025Y-3.9988
X9.025Y-5.3
X9.025Y-5.8
X9.025Y-6.975
X9.025Y-7.5
X9.025Y-7.55
X9.025Y-7.775
X9.025Y-7.825
X9.0364Y-6.4614
X9.0392Y-3.0943
X9.04Y-3.1179
X9.0489Y-4.6989
X9.05Y-2.275
X9.05Y-3.5
X9.05Y-3.575
X9.05Y-3.675
X9.05Y-4.1
X9.05Y-5.2
X9.0511Y-4.3239
X9.0518Y-3.1563
X9.0561Y-5.6943
X9.059Y-4.8856
X9.0593Y-5.4
X9.0593Y-5.5
X9.0636Y-6.0843
X9.075Y-3.35
X9.075Y-3.425
X9.075Y-4.475
X9.075Y-6.325
X9.075Y-6.825
X9.075Y-7.1
X9.075Y-7.375
X9.075Y-7.65
X9.075Y-8.225
X9.093Y-3.75
X9.1Y-3.175
X9.1Y-3.45
X9.1Y-4.6
X9.1Y-5.05
X9.1Y-5.6262
X9.1Y-7.55
X9.1Y-7.825
X9.1Y-8.325
X9.1009Y-3.0943
X9.125Y-3.775
X9.1269Y-4.3509
X9.1297Y-5.4991
X9.1478Y-4.7
X9.15Y-4.15
X9.15Y-4.675
X9.15Y-5.35
X9.15Y-5.625
X9.15Y-6.975
X9.15Y-7.25
X9.1571Y-4.8443
X9.1635Y-4.867
X9.1636Y-6.4614
X9.1651Y-2.7057
X9.1715Y-4.7001
X9.1739Y-3.6011
X9.1739Y-3.9489
X9.1739Y-7.7011
X9.175Y-2.85
X9.175Y-3.175
X9.175Y-3.4
X9.175Y-3.625
X9.175Y-3.65
X9.175Y-3.675
X9.175Y-3.925
X9.175Y-3.975
X9.175Y-3.9988
X9.175Y-4.025
X9.175Y-4.45
X9.175Y-5.775
X9.175Y-6.75
X9.175Y-6.875
X9.175Y-7.15
X9.175Y-7.2
X9.175Y-7.425
X9.1785Y-3.5715
X9.191Y-4.2485
X9.1989Y-3.3761
X9.2Y-3.25
X9.2Y-3.275
X9.2Y-3.325
X9.2Y-5.325
X9.2Y-5.55
X9.2Y-5.7
X9.2Y-7.3
X9.2Y-7.775
X9.2Y-7.825
X9.2063Y-8.0187
X9.2148Y-3.9875
X9.2159Y-4.2097
X9.2165Y-5.2358
X9.225Y-3.125
X9.225Y-3.7488
X9.225Y-4.675
X9.225Y-5.35
X9.225Y-5.475
X9.225Y-6.4
X9.225Y-7.225
X9.2253Y-5.7747
X9.2272Y-7.8037
X9.2315Y-4.0042
X9.2343Y-7.525
X9.2495Y-4.8909
X9.25Y-3.725
X9.25Y-3.8
X9.25Y-4.5
X9.25Y-5.125
X9.25Y-6.4
X9.25Y-8.05
X9.25Y-8.1
X9.25Y-8.375
X9.25Y-8.425
X9.2511Y-5.2508
X9.2548Y-3.1798
X9.2573Y-4.0182
X9.2623Y-4.2818
X9.275Y-3.25
X9.275Y-3.35
X9.275Y-3.75
X9.275Y-3.9
X9.275Y-4.6
X9.275Y-5.05
X9.275Y-5.6262
X9.275Y-6.825
X9.275Y-7.1
X9.275Y-7.375
X9.275Y-7.65
X9.275Y-8.275
X9.2841Y-4.25
X9.2927Y-3.8632
X9.2989Y-4.0989
X9.3Y-2.825
X9.3Y-3.275
X9.3Y-4.125
X9.3Y-4.475
X9.3Y-5.125
X9.3Y-5.325
X9.3Y-6.4
X9.3Y-6.6222
X9.3Y-6.6907
X9.3138Y-3.4239
X9.319Y-4.494
X9.325Y-3.375
X9.325Y-4.35
X9.325Y-4.625
X9.325Y-5.35
X9.325Y-5.5
X9.325Y-5.775
X9.325Y-6.475
X9.325Y-6.975
X9.325Y-7.525
X9.325Y-7.8
X9.325Y-8.425
X9.3292Y-4.8301
X9.35Y-3.325
X9.35Y-3.85
X9.35Y-4.1907
X9.35Y-4.5
X9.35Y-5.6
X9.35Y-5.775
X9.35Y-6.45
X9.3524Y-3.4261
X9.3624Y-8.3374
X9.364Y-4.1384
X9.3703Y-5.7203
X9.375Y-2.525
X9.375Y-3.2
X9.375Y-3.525
X9.375Y-4.7
X9.375Y-6.875
X9.375Y-7.15
X9.375Y-7.3
X9.375Y-7.425
X9.375Y-7.7
X9.375Y-8.0
X9.3767Y-4.4494
X9.3772Y-4.2443
X9.3781Y-4.9618
X9.3831Y-5.0831
X9.3861Y-6.5289
X9.3909Y-3.95
X9.3909Y-3.975
X9.3909Y-4.0
X9.3909Y-4.025
X9.3909Y-4.0489
X9.3971Y-3.5168
X9.3973Y-3.6454
X9.3989Y-3.9261
X9.3995Y-5.031
X9.4Y-2.925
X9.4Y-3.125
X9.4Y-3.3
X9.4Y-3.475
X9.4Y-3.7238
X9.4Y-3.75
X9.4Y-4.3
X9.4Y-7.2
X9.4Y-7.525
X9.4Y-8.4
X9.4004Y-3.622
X9.4018Y-5.8442
X9.4093Y-3.6657
X9.4108Y-5.2239
X9.4159Y-3.15
X9.4161Y-3.9032
X9.4161Y-5.98
X9.4161Y-6.5579
X9.4163Y-3.5684
X9.419Y-3.7943
X9.4206Y-3.8577
X9.422Y-4.9948
X9.425Y-4.35
X9.425Y-7.35
X9.425Y-7.5
X9.425Y-7.55
X9.425Y-7.775
X9.425Y-7.825
X9.425Y-8.1
X9.4272Y-7.1713
X9.4311Y-6.0201
X9.4334Y-5.1024
X9.4421Y-3.7193
X9.4446Y-4.9736
X9.4452Y-4.9244
X9.4461Y-6.5789
X9.4489Y-5.2989
X9.45Y-4.375
X9.45Y-8.175
X9.45Y-8.375
X9.45Y-8.425
X9.4739Y-4.3989
X9.4739Y-5.3489
X9.475Y-3.35
X9.475Y-4.325
X9.475Y-4.7762
X9.475Y-6.5988
X9.475Y-6.825
X9.475Y-7.1
X9.475Y-7.375
X9.475Y-7.65
X9.475Y-8.275
X9.475Y-3.825
X9.4864Y-4.8896
X9.4888Y-4.0365
X9.4892Y-4.6999
X9.4909Y-6.4
X9.4937Y-6.4307
X9.4961Y-4.8034
X9.4988Y-3.0267
X9.5Y-3.0012
X9.5Y-3.075
X9.5Y-3.15
X9.5Y-3.3
X9.5Y-4.075
X9.5Y-4.325
X9.5Y-3.0503
X9.5003Y-3.1057
X9.5006Y-7.5272
X9.5006Y-7.8022
X9.5011Y-4.4261
X9.5042Y-4.7188
X9.5131Y-4.9963
X9.5193Y-5.1761
X9.5219Y-4.6545
X9.525Y-4.449
X9.525Y-4.4726
X9.525Y-4.525
X9.525Y-5.225
X9.525Y-6.975
X9.525Y-8.425
X9.5262Y-6.625
X9.5303Y-6.6529
X9.5368Y-4.0476
X9.539Y-3.8327
X9.541Y-5.1225
X9.5489Y-6.6739
X9.55Y-3.225
X9.55Y-7.475
X9.55Y-7.75
X9.55Y-8.0
X9.5501Y-4.6073
X9.5624Y-8.3376
X9.5634Y-5.0865
X9.5659Y-6.4
X9.5703Y-7.3917
X9.5739Y-7.7011
X9.575Y-6.875
X9.575Y-7.15
X9.5761Y-6.7011
X9.581Y-4.5943
X9.5989Y-8.3989
X9.6Y-6.9
X9.6Y-7.825
X9.6091Y-4.7907
X9.624Y-4.8703
X9.6244Y-4.2045
X9.625Y-3.5
X9.625Y-3.775
X9.625Y-3.85
X9.625Y-4.0
X9.625Y-8.4
X9.6261Y-3.7511
X9.65Y-3.125
X9.65Y-3.325
X9.65Y-5.65
X9.65Y-5.8
X9.65Y-6.4
X9.65Y-7.175
X9.65Y-7.5
X9.65Y-8.075
X9.65Y-8.15
X9.65Y-8.2488
X9.6726Y-5.1729
X9.675Y-3.925
X9.675Y-4.3
X9.675Y-4.725
X9.675Y-5.2
X9.675Y-6.025
X9.675Y-6.525
X9.675Y-6.85
X9.675Y-6.975
X9.675Y-7.55
X9.675Y-7.85
X9.675Y-7.975
X9.6761Y-5.9989
X9.6787Y-5.3037
X9.6943Y-7.3988
X9.7Y-3.525
X9.7Y-4.75
X9.7Y-5.025
X9.7Y-5.825
X9.7Y-6.5
X9.7Y-8.2
X9.702Y-4.6557
X9.7211Y-4.8407
X9.725Y-4.5
X9.725Y-5.125
X9.725Y-6.4
X9.725Y-7.65
X9.7307Y-5.6593
X9.7495Y-3.6977
X9.75Y-3.8
X9.75Y-3.95
X9.75Y-4.25
X9.75Y-5.35
X9.75Y-5.775
X9.75Y-6.9
X9.7575Y-8.3925
X9.7711Y-4.8407
X9.775Y-4.575
X9.775Y-5.6
X9.775Y-6.45
X9.775Y-6.65
X9.775Y-6.975
X9.775Y-7.975
X9.7755Y-3.7657
X9.785Y-4.96
X9.7921Y-3.9152
X9.8Y-3.3
X9.8Y-5.15
X9.8Y-5.3
X9.8Y-6.4
X9.8Y-6.725
X9.8Y-7.3988
X9.8Y-7.425
X9.8Y-7.5
X9.8Y-7.525
X9.8117Y-4.6563
X9.825Y-4.25
X9.825Y-5.3
X9.825Y-5.625
X9.825Y-6.825
X9.825Y-7.05
X9.825Y-7.5
X9.8251Y-3.7791
X9.85Y-3.475
X9.85Y-5.325
X9.85Y-7.25
X9.85Y-7.475
X9.85Y-7.975
X9.8511Y-7.3489
X9.8648Y-5.15
X9.8684Y-3.7443
X9.875Y-3.375
X9.875Y-4.3
X9.875Y-5.2
X9.875Y-5.975
X9.875Y-6.125
X9.875Y-6.4
X9.875Y-6.85
X9.875Y-7.05
X9.875Y-7.275
X9.875Y-7.45
X9.8761Y-2.9511
X9.8771Y-4.8407
X9.8931Y-5.45
X9.8993Y-3.9258
X9.9Y-2.925
X9.9Y-3.575
X9.9Y-4.25
X9.9Y-4.3
X9.9Y-5.85
X9.9Y-7.4262
X9.9159Y-4.75
X9.9179Y-7.3238
X9.925Y-3.225
X9.925Y-5.55
X9.925Y-6.0
X9.925Y-6.55
X9.925Y-7.975
X9.925Y-8.4
X9.9251Y-6.8476
X9.9261Y-7.2261
X9.944Y-8.219
X9.9485Y-3.0524
X9.9488Y-5.8554
X9.9489Y-3.0261
X9.9489Y-3.1065
X9.95Y-2.925
X9.95Y-3.0
X9.95Y-3.525
X9.95Y-4.3
X9.95Y-5.15
X9.95Y-6.125
X9.95Y-6.4
X9.9503Y-3.1301
X9.9526Y-5.8321
X9.965Y-3.7
X9.9739Y-5.0261
X9.975Y-3.45
X9.975Y-3.75
X9.975Y-3.8193
X9.975Y-3.8429
X9.975Y-4.25
X9.975Y-5.1
X9.975Y-5.175
X9.975Y-5.25
X9.975Y-7.2
X9.975Y-7.575
X9.9787Y-5.7978
X9.9822Y-5.8386
X9.986Y-3.7115
X9.9971Y-4.898
X10.0Y-4.3
X10.0Y-5.275
X10.0Y-7.9685
X10.0239Y-7.4989
X10.0242Y-4.6093
X10.025Y-3.225
X10.025Y-4.9407
X10.025Y-5.0
X10.025Y-5.35
X10.025Y-5.6
X10.025Y-5.8
X10.025Y-6.4
X10.025Y-7.0
X10.025Y-7.3762
X10.025Y-7.45
X10.025Y-7.475
X10.025Y-7.525
X10.025Y-8.4
X10.0322Y-4.9183
X10.0335Y-4.7142
X10.0489Y-5.8261
X10.0495Y-7.4297
X10.05Y-3.425
X10.05Y-4.25
X10.05Y-5.475
X10.05Y-7.175
X10.05Y-7.25
X10.075Y-3.525
X10.075Y-4.3
X10.075Y-5.2
X10.075Y-5.6
X10.075Y-6.55
X10.075Y-6.85
X10.075Y-7.0
X10.0762Y-7.9733
X10.0767Y-3.8983
X10.081Y-4.581
X10.0835Y-5.4165
X10.0874Y-8.3374
X10.0943Y-5.7864
X10.0989Y-4.7579
X10.1Y-4.3
X10.1Y-5.5
X10.1Y-6.4
X10.1Y-7.05
X10.125Y-4.25
X10.125Y-5.15
X10.125Y-5.525
X10.125Y-6.45
X10.125Y-7.0
X10.125Y-7.05
X10.1403Y-3.7293
X10.1407Y-3.8539
X10.1407Y-4.3261
X10.1407Y-4.9093
X10.1472Y-4.0215
X10.1489Y-5.0157
X10.15Y-4.975
X10.15Y-5.25
X10.15Y-7.375
X10.15Y-7.975
X10.16Y-3.7163
X10.175Y-4.35
X10.175Y-4.6
X10.175Y-5.35
X10.175Y-5.525
X10.175Y-5.85
X10.175Y-6.4
X10.1838Y-3.6943
X10.1838Y-4.9352
X10.1912Y-4.9858
X10.2Y-4.025
X10.2Y-4.3
X10.2Y-8.5
X10.225Y-4.5
X10.225Y-4.65
X10.225Y-5.075
X10.225Y-5.65
X10.225Y-5.8
X10.225Y-7.225
X10.225Y-7.375
X10.225Y-7.5
X10.225Y-7.975
X10.2253Y-4.8997
X10.2407Y-3.9407
X10.2488Y-7.2012
X10.25Y-3.475
X10.25Y-3.75
X10.25Y-4.4
X10.25Y-4.875
X10.25Y-5.125
X10.25Y-6.4
X10.25Y-7.05
X10.2537Y-5.9963
X10.275Y-3.8
X10.275Y-3.825
X10.275Y-4.025
X10.275Y-4.3
X10.275Y-4.55
X10.275Y-4.7
X10.275Y-8.2
X10.2952Y-7.0428
X10.2989Y-5.3239
X10.3Y-4.3843
X10.3Y-4.5
X10.3Y-4.575
X10.3Y-5.2
X10.3Y-5.525
X10.3Y-5.65
X10.3Y-5.8
X10.3Y-7.375
X10.3Y-7.975
X10.3001Y-5.2747
X10.3007Y-5.2989
X10.3008Y-5.4479
X10.3013Y-5.499
X10.3019Y-5.4727
X10.3094Y-2.925
X10.3215Y-3.875
X10.3224Y-3.949
X10.325Y-2.95
X10.325Y-3.575
X10.325Y-4.725
X10.325Y-5.5738
X10.325Y-6.4
X10.325Y-7.625
X10.3261Y-5.3761
X10.3261Y-6.0511
X10.3283Y-4.3992
X10.35Y-4.25
X10.35Y-5.2
X10.35Y-5.6
X10.35Y-5.8
X10.35Y-6.025
X10.3519Y-5.2253
X10.3539Y-3.8093
X10.362Y-4.8431
X10.3667Y-5.8167
X10.375Y-3.225
X10.375Y-3.875
X10.375Y-4.4
X10.375Y-4.8813
X10.375Y-4.9049
X10.375Y-4.9285
X10.375Y-4.9522
X10.375Y-6.475
X10.3807Y-5.0067
X10.381Y-3.6907
X10.4Y-3.875
X10.4Y-5.625
X10.4Y-6.0
X10.4Y-6.4
X10.4Y-6.975
X10.4Y-7.125
X10.4Y-7.3
X10.4Y-7.3262
X10.4Y-7.775
X10.4Y-7.95
X10.4Y-7.9762
X10.4Y-8.1
X10.4Y-8.275
X10.4Y-8.3012
X10.4Y-8.325
X10.4Y-8.425
X10.4026Y-2.9201
X10.406Y-5.8544
X10.4061Y-5.0407
X10.4081Y-7.625
X10.4081Y-7.6512
X10.4091Y-7.0012
X10.4091Y-7.025
X10.4091Y-7.45
X10.4093Y-4.8407
X10.4124Y-3.1149
X10.4124Y-4.5374
X10.4148Y-3.7443
X10.425Y-3.0
X10.425Y-3.05
X10.425Y-3.525
X10.425Y-4.25
X10.425Y-4.6057
X10.425Y-5.1
X10.4263Y-3.024
X10.4343Y-5.0289
X10.4386Y-3.7057
X10.4392Y-3.1257
X10.45Y-3.275
X10.45Y-5.85
X10.4501Y-4.9541
X10.4531Y-2.4969
X10.4535Y-5.0
X10.475Y-3.225
X10.475Y-3.925
X10.475Y-4.425
X10.475Y-4.625
X10.475Y-5.975
X10.475Y-6.0307
X10.475Y-6.4
X10.5Y-3.525
X10.5Y-4.25
X10.5001Y-5.9999
X10.5057Y-7.6761
X10.525Y-4.725
X10.525Y-4.7512
X10.525Y-5.15
X10.525Y-7.35
X10.525Y-7.525
X10.525Y-7.85
X10.525Y-8.0
X10.5467Y-8.0843
X10.547Y-7.3262
X10.5487Y-7.9762
X10.5488Y-7.0012
X10.55Y-7.6477
X10.55Y-3.75
X10.55Y-3.8
X10.55Y-3.825
X10.55Y-3.85
X10.55Y-3.875
X10.55Y-4.45
X10.55Y-5.325
X10.55Y-5.8
X10.55Y-5.825
X10.55Y-6.125
X10.55Y-8.3012
X10.55Y-8.4
X10.5502Y-5.1382
X10.5739Y-3.7443
X10.575Y-3.7
X10.575Y-4.25
X10.575Y-6.975
X10.575Y-7.3
X10.575Y-7.625
X10.575Y-7.95
X10.575Y-8.275
X10.5769Y-4.6258
X10.5807Y-5.5193
X10.585Y-6.035
X10.593Y-5.1488
X10.5933Y-5.0557
X10.5981Y-8.1038
X10.6Y-3.625
X10.6Y-5.2598
X10.6Y-5.5
X10.6Y-5.6
X10.6Y-5.85
X10.6Y-7.45
X10.605Y-3.7567
X10.6124Y-4.5376
X10.613Y-7.775
X10.6189Y-7.3439
X10.6232Y-8.1345
X10.625Y-3.6
X10.625Y-4.6
X10.625Y-4.975
X10.625Y-6.4
X10.625Y-7.0012
X10.625Y-7.9762
X10.625Y-8.325
X10.625Y-8.45
X10.628Y-7.6513
X10.6466Y-5.4216
X10.6478Y-5.4477
X10.6489Y-5.4739
X10.65Y-3.475
X10.65Y-4.25
X10.65Y-4.3
X10.65Y-4.475
X10.65Y-4.575
X10.65Y-5.275
X10.65Y-5.3
X10.65Y-5.325
X10.65Y-5.35
X10.65Y-5.375
X10.65Y-5.6
X10.6512Y-4.9675
X10.6539Y-4.3593
X10.6625Y-5.2375
X10.6628Y-5.0943
X10.6674Y-4.6018
X10.675Y-4.375
X10.675Y-4.75
X10.675Y-4.85
X10.6753Y-4.998
X10.6829Y-5.0258
X10.7Y-3.575
X10.7Y-3.9512
X10.7Y-4.5
X10.7Y-4.625
X10.725Y-4.25
X10.725Y-5.5738
X10.725Y-7.275
X10.7489Y-4.7239
X10.7489Y-7.1239
X10.75Y-8.0253
X10.75Y-3.525
X10.75Y-4.45
X10.75Y-5.125
X10.75Y-5.6
X10.75Y-6.975
X10.75Y-7.0512
X10.75Y-7.075
X10.75Y-7.3
X10.75Y-7.3524
X10.75Y-7.376
X10.75Y-7.4
X10.75Y-7.45
X10.75Y-7.475
X10.75Y-7.6119
X10.75Y-7.6774
X10.75Y-7.701
X10.75Y-7.725
X10.75Y-7.775
X10.75Y-7.8
X10.75Y-7.925
X10.75Y-8.275
X10.75Y-8.325
X10.75Y-8.35
X10.75Y-8.375
X10.7501Y-8.0016
X10.7511Y-8.0489
X10.7588Y-8.1242
X10.7711Y-4.7907
X10.775Y-3.875
X10.775Y-5.525
X10.775Y-6.4
X10.7762Y-7.0299
X10.7774Y-5.4978
X10.781Y-6.9776
X10.781Y-8.281
X10.7814Y-7.6246
X10.7822Y-3.4074
X10.7826Y-7.9515
X10.785Y-5.0258
X10.8Y-3.8988
X10.8Y-4.3
X10.8Y-4.8675
X10.8Y-5.4
X10.8Y-5.6
X10.8Y-5.65
X10.8011Y-2.9511
X10.8037Y-2.9213
X10.8211Y-8.1242
X10.8219Y-7.7969
X10.825Y-3.525
X10.825Y-3.7
X10.825Y-3.825
X10.825Y-4.55
X10.825Y-4.8
X10.825Y-5.075
X10.825Y-7.475
X10.825Y-8.4
X10.825Y-8.425
X10.8257Y-3.1257
X10.8305Y-6.9445
X10.8347Y-7.1597
X10.85Y-2.225
X10.85Y-3.225
X10.85Y-4.425
X10.85Y-4.625
X10.8742Y-3.0261
X10.875Y-3.05
X10.875Y-3.125
X10.875Y-3.925
X10.875Y-4.45
X10.875Y-4.65
X10.875Y-5.2762
X10.875Y-5.3
X10.875Y-5.325
X10.875Y-5.35
X10.875Y-5.375
X10.875Y-5.4
X10.875Y-5.425
X10.875Y-5.45
X10.875Y-5.475
X10.875Y-5.65
X10.875Y-5.825
X10.8761Y-3.0011
X10.8787Y-2.9213
X10.9Y-4.375
X10.9Y-4.575
X10.9Y-4.6
X10.925Y-3.225
X10.925Y-4.75
X10.925Y-5.125
X10.925Y-5.825
X10.925Y-6.4
X10.925Y-7.3
X10.9285Y-5.9942
X10.9307Y-7.6261
X10.9307Y-7.9512
X10.9307Y-8.2762
X10.9386Y-5.5307
X10.9387Y-8.4557
X10.95Y-2.25
X10.95Y-3.675
X10.95Y-3.7
X10.95Y-3.725
X10.95Y-3.85
X10.95Y-4.025
X10.95Y-4.3
X10.95Y-4.725
X10.95Y-5.65
X10.95Y-6.975
X10.95Y-5.6227
X10.9718Y-5.2762
X10.975Y-3.8988
X10.975Y-6.025
X10.975Y-7.0
X10.975Y-7.15
X10.975Y-7.325
X10.975Y-7.475
X10.975Y-7.775
X10.975Y-7.975
X10.975Y-8.1778
X10.975Y-8.3
X10.975Y-8.375
X10.975Y-8.425
X10.9773Y-8.1242
X10.9773Y-7.6523
X10.987Y-5.3
X10.9925Y-5.6581
X10.9987Y-4.9981
X11.0Y-3.15
X11.0Y-3.675
X11.0Y-3.875
X11.0Y-4.8737
X11.0Y-4.8973
X11.0Y-4.9209
X11.0Y-4.9445
X11.0Y-5.0217
X11.0Y-5.0453
X11.0Y-5.575
X11.0012Y-7.3516
X11.0012Y-8.0012
X11.0013Y-8.3248
X11.0017Y-7.6785
X11.002Y-5.3239
X11.0022Y-7.0299
X11.0114Y-7.3886
X11.0114Y-7.7136
X11.0114Y-8.0386
X11.0124Y-4.5376
X11.0169Y-5.3502
X11.0239Y-4.5989
X11.025Y-3.55
X11.025Y-3.725
X11.025Y-5.0
X11.025Y-5.85
X11.025Y-7.05
X11.025Y-7.55
X11.025Y-7.85
X11.025Y-8.2
X11.025Y-8.3
X11.025Y-8.3407
X11.0261Y-4.0761
X11.0261Y-7.2489
X11.0299Y-5.3952
X11.0461Y-4.8593
X11.0469Y-5.4254
X11.0489Y-4.0239
X11.05Y-3.475
X11.05Y-3.85
X11.05Y-4.225
X11.05Y-4.95
X11.05Y-5.45
X11.05Y-5.775
X11.05Y-7.125
X11.05Y-8.1693
X11.0615Y-7.0523
X11.0627Y-8.3511
X11.0636Y-3.6364
X11.0689Y-7.3788
X11.0689Y-7.7038
X11.0689Y-8.0288
X11.075Y-3.925
X11.075Y-4.4
X11.075Y-5.475
X11.075Y-5.65
X11.075Y-6.0
X11.075Y-6.4
X11.0761Y-4.7989
X11.1Y-4.3
X11.1Y-4.725
X11.1Y-4.775
X11.1Y-4.85
X11.1Y-5.55
X11.1138Y-3.9508
X11.125Y-3.575
X11.125Y-5.8
X11.125Y-6.05
X11.125Y-7.275
X11.125Y-7.6
X11.125Y-7.925
X11.125Y-8.25
X11.1302Y-5.1488
X11.1305Y-6.9445
X11.15Y-4.1
X11.15Y-5.6
X11.15Y-7.075
X11.1657Y-3.675
X11.1659Y-7.0
X11.1659Y-7.3341
X11.1659Y-7.4866
X11.1659Y-7.65
X11.1659Y-7.775
X11.1659Y-7.975
X11.1675Y-5.2303
X11.1678Y-8.1018
X11.175Y-3.275
X11.175Y-3.375
X11.175Y-3.7
X11.175Y-3.725
X11.175Y-5.6
X11.175Y-6.0
X11.175Y-8.3
X11.175Y-8.35
X11.175Y-8.425
X11.2Y-3.525
X11.2Y-4.45
X11.2Y-4.725
X11.2Y-5.55
X11.2Y-8.5
X11.2011Y-4.3489
X11.2124Y-4.5374
X11.2168Y-5.1847
X11.225Y-3.475
X11.225Y-4.6
X11.225Y-4.95
X11.225Y-5.6
X11.225Y-6.4
X11.225Y-6.7
X11.2463Y-2.9213
X11.249Y-7.4535
X11.25Y-2.95
X11.25Y-4.325
X11.25Y-4.975
X11.25Y-7.55
X11.25Y-8.325
X11.25Y-8.35
X11.256Y-7.431
X11.2591Y-7.0001
X11.2605Y-6.9765
X11.2713Y-2.9213
X11.275Y-4.6988
X11.275Y-5.4867
X11.275Y-7.925
X11.275Y-8.2
X11.2761Y-5.1488
X11.2943Y-5.0693
X11.3Y-2.275
X11.3Y-3.1
X11.3Y-4.925
X11.301Y-5.0988
X11.3104Y-6.9354
X11.3104Y-7.3854
X11.3159Y-5.05
X11.325Y-2.925
X11.325Y-5.5379
X11.3269Y-8.1009
X11.3315Y-3.7401
X11.3483Y-3.9483
X11.35Y-2.95
X11.35Y-3.125
X11.35Y-3.4
X11.35Y-3.9738
X11.3702Y-7.1169
X11.3739Y-2.5489
X11.375Y-2.35
X11.375Y-5.875
X11.375Y-7.55
X11.3957Y-8.3489
X11.3961Y-2.5157
X11.3988Y-7.35
X11.4Y-3.725
X11.4Y-5.475
X11.4Y-5.625
X11.4Y-5.8
X11.4Y-6.225
X11.4Y-6.425
X11.4Y-6.9
X11.4Y-7.025
X11.4Y-7.475
X11.4Y-7.975
X11.4Y-8.25
X11.4011Y-2.5761
X11.4011Y-4.0261
X11.4043Y-3.3
X11.4057Y-3.6261
X11.415Y-8.16
X11.4195Y-3.3181
X11.4239Y-3.9239
X11.425Y-2.6
X11.425Y-2.85
X11.425Y-3.95
X11.425Y-4.125
X11.425Y-5.6
X11.425Y-7.1
X11.425Y-7.275
X11.425Y-8.1
X11.425Y-8.45
X11.4285Y-4.825
X11.4285Y-5.2964
X11.4285Y-5.3229
X11.4285Y-5.3494
X11.4476Y-4.5403
X11.45Y-2.55
X11.45Y-2.7
X11.45Y-3.05
X11.45Y-3.1
X11.45Y-3.7
X11.45Y-4.0023
X11.45Y-4.0762
X11.45Y-4.45
X11.45Y-4.725
X11.45Y-5.525
X11.45Y-6.275
X11.45Y-7.0
X11.45Y-7.45
X11.45Y-8.075
X11.4517Y-4.1307
X11.4523Y-3.95
X11.4581Y-3.3236
X11.4593Y-8.3461
X11.475Y-4.375
X11.475Y-4.6512
X11.475Y-5.9
X11.475Y-7.925
X11.475Y-8.2
X11.4871Y-5.5152
X11.5Y-2.475
X11.5Y-2.9
X11.5Y-3.175
X11.5Y-3.45
X11.5Y-4.0
X11.5Y-4.275
X11.5Y-4.55
X11.5Y-4.825
X11.5Y-6.1
X11.5Y-6.375
X11.5Y-8.1738
X11.5097Y-6.9347
X11.5097Y-7.3847
X11.525Y-2.525
X11.525Y-4.825
X11.525Y-5.075
X11.525Y-5.15
X11.525Y-6.275
X11.525Y-8.1
X11.5254Y-4.4275
X11.5269Y-7.0259
X11.5269Y-7.4759
X11.5297Y-4.1657
X11.5297Y-4.675
X11.55Y-3.05
X11.55Y-3.325
X11.55Y-5.35
X11.55Y-5.9
X11.55Y-6.85
X11.575Y-4.7
X11.575Y-6.475
X11.575Y-7.125
X11.575Y-7.275
X11.575Y-8.35
X11.5909Y-6.5
X11.5909Y-7.35
X11.6Y-2.95
X11.6Y-3.225
X11.6Y-4.05
X11.6Y-4.325
X11.6Y-4.4
X11.6Y-4.6
X11.6Y-5.4
X11.6Y-5.525
X11.6Y-6.2
X11.6Y-6.2262
X11.6Y-6.25
X11.6Y-7.975
X11.6Y-8.25
X11.6239Y-4.1261
X11.625Y-2.975
X11.625Y-3.125
X11.625Y-4.075
X11.625Y-4.825
X11.625Y-5.375
X11.625Y-5.9
X11.6489Y-6.2489
X11.65Y-2.55
X11.65Y-2.575
X11.65Y-2.6
X11.65Y-2.9
X11.65Y-3.025
X11.65Y-3.05
X11.65Y-3.075
X11.65Y-3.375
X11.65Y-3.45
X11.65Y-4.25
X11.65Y-4.425
X11.65Y-4.675
X11.65Y-5.125
X11.65Y-5.325
X11.65Y-5.5
X11.65Y-6.275
X11.65Y-7.425
X11.65Y-7.475
X11.6511Y-4.0989
X11.6591Y-6.975
X11.6591Y-7.025
X11.6657Y-6.6843
X11.675Y-4.65
X11.7Y-2.5
X11.7Y-2.9
X11.7Y-3.175
X11.7Y-4.0
X11.7Y-4.55
X11.7Y-5.525
X11.7Y-5.9
X11.7Y-6.1
X11.7Y-6.375
X11.7Y-7.575
X11.7Y-8.025
X11.7039Y-4.2843
X11.7104Y-6.9354
X11.7104Y-7.3854
X11.725Y-2.525
X11.725Y-2.65
X11.725Y-4.175
X11.725Y-5.525
X11.725Y-7.025
X11.725Y-7.475
X11.7261Y-4.7239
X11.7269Y-6.2943
X11.7478Y-5.1728
X11.75Y-4.825
X11.75Y-5.075
X11.75Y-7.875
X11.75Y-8.05
X11.7555Y-2.9805
X11.775Y-3.0
X11.775Y-4.425
X11.775Y-5.35
X11.775Y-5.375
X11.775Y-5.4
X11.775Y-5.9
X11.775Y-6.475
X11.7782Y-3.3218
X11.7907Y-4.05
X11.8Y-3.225
X11.8Y-4.125
X11.8Y-4.325
X11.8Y-4.6
X11.8Y-5.325
X11.8Y-5.45
X11.8Y-5.5
X11.8Y-6.2
X11.8Y-6.425
X11.8Y-6.9
X11.8Y-7.25
X11.8Y-7.35
X11.8039Y-4.7093
X11.8224Y-3.4343
X11.825Y-2.55
X11.825Y-3.625
X11.825Y-3.925
X11.825Y-4.35
X11.825Y-4.65
X11.825Y-5.2
X11.825Y-6.625
X11.825Y-7.6238
X11.825Y-8.5
X11.8434Y-7.7391
X11.85Y-2.575
X11.85Y-2.825
X11.85Y-3.45
X11.85Y-3.825
X11.85Y-4.1
X11.85Y-4.375
X11.85Y-4.525
X11.85Y-5.2
X11.85Y-5.525
X11.85Y-5.9
X11.85Y-6.25
X11.85Y-6.425
X11.85Y-6.975
X11.85Y-7.1
X11.85Y-7.425
X11.85Y-7.55
X11.85Y-8.0
X11.8501Y-3.3253
X11.8511Y-3.4011
X11.8557Y-3.2943
X11.8593Y-4.175
X11.875Y-2.6
X11.875Y-3.0
X11.875Y-6.65
X11.875Y-7.85
X11.875Y-8.3
X11.9Y-2.9
X11.9Y-3.175
X11.9Y-4.0
X11.9Y-4.55
X11.9Y-6.1
X11.9Y-6.375
X11.9Y-7.75
X11.9Y-8.2
X11.9039Y-4.2843
X11.9104Y-6.9354
X11.9104Y-7.3854
X11.925Y-4.725
X11.925Y-5.425
X11.925Y-5.525
X11.925Y-5.9
X11.925Y-6.55
X11.9268Y-4.1761
X11.9269Y-3.0759
X11.9366Y-4.455
X11.95Y-3.325
X11.95Y-4.875
X11.95Y-5.45
X11.95Y-7.0
X11.95Y-7.45
X11.95Y-8.35
X11.9739Y-4.6489
X11.9739Y-6.4739
X11.975Y-2.275
X11.975Y-2.425
X11.975Y-5.2
X11.975Y-5.525
X11.975Y-6.2
X11.975Y-6.25
X11.975Y-7.9
X11.9907Y-4.4039
X12.0Y-2.85
X12.0Y-2.95
X12.0Y-3.025
X12.0Y-3.225
X12.0Y-3.45
X12.0Y-4.05
X12.0Y-4.325
X12.0Y-4.6
X12.0Y-5.125
X12.0Y-5.6
X12.0Y-5.9
X12.0Y-6.275
X12.0Y-6.9
X12.0Y-7.35
X12.0Y-7.8
X12.0Y-8.25
X12.0011Y-4.6761
X12.0125Y-4.4943
X12.0211Y-4.1157
X12.022Y-5.353
X12.025Y-3.05
X12.025Y-4.725
X12.025Y-4.825
X12.025Y-5.45
X12.025Y-5.95
X12.025Y-7.575
X12.0261Y-5.3239
X12.0273Y-5.2977
X12.0443Y-6.8364
X12.0489Y-4.6761
X12.0489Y-6.2489
X12.05Y-2.5
X12.05Y-2.625
X12.05Y-4.2
X12.05Y-4.7
X12.05Y-5.625
X12.05Y-7.0
X12.05Y-7.45
X12.05Y-7.9
X12.05Y-8.35
X12.0511Y-4.4261
X12.0511Y-4.5261
X12.0593Y-4.175
X12.0593Y-6.5
X12.0678Y-3.6074
X12.075Y-3.275
X12.075Y-3.825
X12.075Y-4.825
X12.075Y-5.525
X12.077Y-3.0807
X12.1Y-2.9
X12.1Y-3.175
X12.1Y-4.0
X12.1Y-4.2843
X12.1Y-4.55
X12.1Y-6.1
X12.1Y-6.375
X12.1Y-7.75
X12.1Y-8.2
X12.1022Y-5.1728
X12.1104Y-6.9354
X12.1104Y-7.3854
X12.125Y-3.075
X12.125Y-3.3407
X12.125Y-4.45
X12.125Y-6.55
X12.15Y-2.55
X12.15Y-2.575
X12.15Y-2.6
X12.15Y-5.45
X12.15Y-5.9
X12.15Y-6.25
X12.15Y-6.65
X12.15Y-7.0
X12.15Y-7.45
X12.1739Y-2.5261
X12.1739Y-6.4739
X12.175Y-2.4
X12.175Y-2.5
X12.175Y-6.2
X12.1817Y-3.0
X12.1896Y-4.425
X12.1989Y-4.2693
X12.2Y-2.225
X12.2Y-2.425
X12.2Y-2.95
X12.2Y-3.225
X12.2Y-3.35
X12.2Y-4.05
X12.2Y-4.325
X12.2Y-4.6
X12.2Y-4.725
X12.2Y-5.225
X12.2Y-5.375
X12.2Y-6.075
X12.2Y-6.225
X12.2Y-6.9
X12.2Y-7.35
X12.2Y-7.8
X12.2Y-7.85
X12.2Y-8.25
X12.2Y-8.3
X12.2045Y-4.3991
X12.225Y-2.25
X12.225Y-2.9
X12.225Y-3.3
X12.225Y-4.1157
X12.225Y-4.5093
X12.225Y-4.6593
X12.225Y-5.15
X12.225Y-7.4
X12.225Y-7.9
X12.225Y-8.0
X12.225Y-8.35
X12.2261Y-4.2239
X12.2298Y-6.9616
X12.2487Y-6.2491
X12.25Y-3.075
X12.25Y-3.25
X12.25Y-3.325
X12.25Y-4.675
X12.25Y-4.7
X12.2562Y-4.5339
X12.2583Y-2.6307
X12.2604Y-4.4407
X12.2626Y-6.2911
X12.275Y-3.75
X12.275Y-4.375
X12.275Y-8.5
X12.3Y-2.9
X12.3Y-3.175
X12.3Y-4.0
X12.3Y-4.275
X12.3Y-4.525
X12.3Y-4.55
X12.3Y-5.15
X12.3Y-5.9
X12.3Y-6.1
X12.3Y-6.375
X12.3Y-7.1
X12.3Y-7.2238
X12.3Y-7.55
X12.325Y-3.075
X12.325Y-5.375
X12.325Y-7.25
X12.325Y-7.725
X12.325Y-8.175
X12.3253Y-4.4258
X12.3261Y-5.4011
X12.35Y-4.15
X12.35Y-4.825
X12.3537Y-5.1787
X12.3739Y-2.9989
X12.375Y-2.825
X12.375Y-4.375
X12.375Y-4.525
X12.375Y-6.2
X12.375Y-6.25
X12.375Y-6.475
X12.375Y-6.675
X12.375Y-7.45
X12.375Y-7.675
X12.3791Y-7.0209
X12.3907Y-4.6
X12.4Y-2.6
X12.4Y-2.95
X12.4Y-3.225
X12.4Y-3.3
X12.4Y-3.625
X12.4Y-4.05
X12.4Y-4.325
X12.4Y-5.425
X12.4Y-6.425
X12.425Y-3.0
X12.425Y-3.05
X12.425Y-3.075
X12.425Y-3.35
X12.425Y-3.4
X12.425Y-4.225
X12.425Y-4.35
X12.425Y-4.65
X12.425Y-4.85
X12.425Y-6.675
X12.4489Y-4.4758
X12.45Y-2.9
X12.45Y-3.1
X12.45Y-3.7
X12.45Y-4.125
X12.45Y-4.4
X12.45Y-4.425
X12.45Y-4.7
X12.45Y-6.15
X12.45Y-6.375
X12.45Y-6.6
X12.4502Y-4.4498
X12.4593Y-5.4
X12.4739Y-4.9489
X12.475Y-3.0
X12.475Y-3.275
X12.475Y-3.45
X12.475Y-3.8
X12.475Y-5.0
X12.475Y-5.1
X12.475Y-5.675
X12.475Y-5.875
X12.475Y-6.0
X12.4907Y-7.1343
X12.4992Y-6.7258
X12.5Y-2.9
X12.5Y-3.175
X12.5Y-4.275
X12.5Y-4.55
X12.5Y-4.925
X12.5Y-5.15
X12.5Y-5.5157
X12.5Y-5.95
X12.5Y-7.85
X12.5239Y-3.0761
X12.525Y-3.35
X12.525Y-3.45
X12.525Y-4.2
X12.525Y-6.125
X12.525Y-6.425
X12.5269Y-4.4509
X12.55Y-2.8
X12.55Y-2.9
X12.55Y-3.625
X12.55Y-4.925
X12.55Y-4.975
X12.55Y-5.525
X12.55Y-5.575
X12.55Y-6.05
X12.55Y-6.875
X12.55Y-7.6
X12.5537Y-5.1787
X12.5617Y-4.3623
X12.575Y-2.7
X12.575Y-3.0
X12.575Y-3.275
X12.575Y-4.225
X12.575Y-4.825
X12.575Y-5.65
X12.575Y-7.45
X12.5852Y-4.3602
X12.6Y-3.225
X12.6011Y-2.6511
X12.6159Y-3.1
X12.675Y-3.5
X12.675Y-3.775
X12.675Y-4.05
X12.675Y-4.15
X12.675Y-4.2
X12.675Y-4.525
X12.675Y-4.8
X12.675Y-4.9
X12.675Y-6.025
X12.675Y-6.625
X12.6841Y-2.85
X12.6923Y-3.7021
X12.6929Y-3.6777
X12.6929Y-3.726
X12.6929Y-3.6501
X12.6965Y-3.622
X12.7Y-2.825
X12.7Y-2.9
X12.7Y-2.925
X12.7Y-2.95
X12.7Y-3.0
X12.7Y-3.025
X12.7Y-3.05
X12.7Y-3.075
X12.7Y-3.475
X12.7Y-3.55
X12.7Y-3.575
X12.7Y-4.125
X12.7Y-4.2
X12.7Y-4.225
X12.7Y-4.25
X12.7Y-4.275
X12.7Y-4.3
X12.7Y-4.325
X12.7Y-4.375
X12.7Y-4.775
X12.7Y-4.85
X12.7Y-4.875
X12.7Y-4.9
X12.7Y-4.925
X12.7Y-4.975
X12.7Y-5.425
X12.7Y-5.5
X12.7Y-5.525
X12.7Y-5.55
X12.7Y-5.575
X12.7Y-5.6
X12.7Y-5.65
X12.7Y-5.675
X12.7Y-5.9
X12.7Y-6.15
X12.7Y-6.375
X12.7002Y-3.5987
X12.7011Y-2.9761
X12.7011Y-4.3511
X12.7011Y-4.9511
X12.7011Y-5.0011
X12.7011Y-5.6261
X12.7023Y-5.0273
X12.725Y-6.525
X12.725Y-6.7
X12.744Y-4.581
X12.75Y-2.5557
X12.75Y-2.8
X12.75Y-3.45
X12.75Y-4.1
X12.75Y-4.75
X12.75Y-5.175
X12.75Y-5.4
X12.75Y-6.25
X12.75Y-6.375
X12.7511Y-5.8261
X12.756Y-3.281
X12.756Y-3.944
X12.7563Y-8.1937
X12.7816Y-8.401
X12.8Y-2.875
X12.8Y-3.525
X12.8Y-4.175
X12.8Y-4.825
X12.8Y-5.4927
X12.8Y-5.875
X12.8Y-6.925
X12.8Y-7.375
X12.8Y-7.5533
X12.8Y-7.675
X12.8Y-7.825
X12.8Y-8.0033
X12.8Y-8.25
X12.8003Y-7.1033
X12.806Y-4.581
X12.8063Y-8.1937
X12.819Y-3.944
X12.8193Y-5.8239
X12.825Y-2.925
X12.825Y-2.95
X12.825Y-4.25
X12.825Y-5.45
X12.825Y-6.25
X12.8307Y-3.281
X12.8343Y-5.725
X12.85Y-3.3657
X12.85Y-3.9
X12.85Y-4.075
X12.85Y-4.475
X12.85Y-5.15
X12.85Y-6.475
X12.85Y-6.6407
X12.85Y-7.125
X12.85Y-7.575
X12.85Y-7.6488
X12.85Y-7.9
X12.85Y-8.3512
X12.8511Y-2.9739
X12.8661Y-2.6057
X12.875Y-2.775
X12.875Y-3.0
X12.875Y-3.4
X12.875Y-3.8593
X12.875Y-4.375
X12.875Y-6.375
X12.875Y-6.925
X12.875Y-7.375
X12.875Y-7.825
X12.875Y-8.25
X12.9Y-2.9
X12.9Y-4.6407
X12.9Y-4.95
X12.9Y-5.7
X12.9Y-6.25
X12.9Y-7.15
X12.9Y-8.05
X12.9Y-8.475
X12.9011Y-7.6011
X12.9037Y-3.8864
X12.925Y-2.775
X12.925Y-3.025
X12.925Y-4.05
X12.925Y-6.5
X12.925Y-6.525
X12.925Y-6.8
X12.925Y-7.6
X12.9386Y-6.6407
X12.95Y-2.8
X12.95Y-3.45
X12.95Y-4.1
X12.95Y-4.75
X12.95Y-5.4
X12.95Y-5.85
X12.9675Y-8.401
X12.975Y-2.825
X12.975Y-3.475
X12.975Y-4.125
X12.975Y-4.7657
X12.975Y-5.35
X12.975Y-5.425
X12.975Y-5.775
X12.975Y-5.8738
X12.975Y-6.25
X12.975Y-7.5533
X12.975Y-8.0033
X12.9753Y-7.1033
X12.9989Y-4.7989
X13.0Y-2.85
X13.0Y-3.5
X13.0Y-4.15
X13.0Y-5.325
X13.0Y-5.45
X13.0022Y-5.8396
X13.025Y-2.875
X13.025Y-3.525
X13.025Y-4.175
X13.025Y-5.3
X13.025Y-5.475
X13.025Y-6.675
X13.0261Y-4.8261
X13.0291Y-7.0209
X13.0414Y-5.8203
X13.0489Y-3.8761
X13.05Y-2.85
X13.05Y-2.95
X13.05Y-3.075
X13.05Y-3.225
X13.05Y-3.5
X13.05Y-3.6
X13.05Y-3.725
X13.05Y-4.15
X13.05Y-4.25
X13.05Y-4.375
X13.05Y-4.5343
X13.05Y-4.9
X13.05Y-5.025
X13.05Y-5.175
X13.05Y-5.45
X13.05Y-5.55
X13.05Y-5.675
X13.05Y-5.8589
X13.05Y-6.25
X13.05Y-6.475
X13.05Y-6.775
X13.0511Y-4.8011
X13.075Y-2.775
X13.075Y-2.925
X13.075Y-3.05
X13.075Y-3.15
X13.075Y-3.425
X13.075Y-3.575
X13.075Y-3.7
X13.075Y-3.8
X13.075Y-4.0762
X13.075Y-4.225
X13.075Y-4.35
X13.075Y-4.45
X13.075Y-4.7262
X13.075Y-4.875
X13.075Y-5.0
X13.075Y-5.1
X13.075Y-5.375
X13.075Y-5.525
X13.075Y-5.65
X13.075Y-5.75
X13.0761Y-3.8489
X13.1Y-4.6443
X13.1Y-2.675
X13.1Y-2.9
X13.1Y-2.925
X13.1Y-2.975
X13.1Y-3.025
X13.1Y-3.075
X13.1Y-3.3512
X13.1Y-3.4
X13.1Y-3.55
X13.1Y-3.575
X13.1Y-3.625
X13.1Y-3.675
X13.1Y-3.725
X13.1Y-4.0
X13.1Y-4.2
X13.1Y-4.225
X13.1Y-4.275
X13.1Y-4.325
X13.1Y-4.375
X13.1Y-4.85
X13.1Y-4.875
X13.1Y-4.925
X13.1Y-4.975
X13.1Y-5.025
X13.1Y-5.3
X13.1Y-5.5
X13.1Y-5.525
X13.1Y-5.575
X13.1Y-5.625
X13.1Y-5.675
X13.125Y-2.525
X13.125Y-2.8
X13.125Y-3.45
X13.125Y-4.1
X13.125Y-4.75
X13.125Y-5.4
X13.125Y-5.775
X13.125Y-6.25
X13.125Y-6.3
X13.125Y-6.525
X13.15Y-2.5
X13.15Y-2.825
X13.15Y-3.475
X13.15Y-4.125
X13.15Y-4.775
X13.15Y-5.425
X13.15Y-5.7
X13.175Y-2.4
X13.175Y-2.9
X13.175Y-3.55
X13.175Y-4.2
X13.175Y-4.85
X13.175Y-5.5
X13.175Y-5.725
X13.175Y-5.8738
X13.2Y-2.425
X13.2Y-2.875
X13.2Y-3.525
X13.2Y-4.175
X13.2Y-4.8343
X13.2Y-5.475
X13.2Y-5.55
X13.2Y-5.775
X13.2Y-5.85
X13.2Y-6.25
X13.2Y-8.025
X13.25Y-2.8
X13.25Y-3.45
X13.25Y-4.1
X13.25Y-4.75
X13.25Y-5.4
X13.25Y-6.475
X13.275Y-5.8
X13.275Y-6.25
X13.325Y-2.825
X13.325Y-2.875
X13.325Y-2.9
X13.325Y-3.475
X13.325Y-3.525
X13.325Y-3.55
X13.325Y-4.125
X13.325Y-4.175
X13.325Y-4.2
X13.325Y-4.775
X13.325Y-4.8343
X13.325Y-4.8579
X13.325Y-5.425
X13.325Y-5.475
X13.325Y-5.5
X13.325Y-5.55
X13.344Y-3.281
X13.344Y-3.944
X13.344Y-4.581
X13.35Y-5.9
X13.35Y-6.35
X13.35Y-6.775
X13.356Y-5.231
X13.3959Y-7.0209
X13.4Y-5.725
X13.4Y-6.325
X13.425Y-3.05
X13.425Y-3.7
X13.425Y-4.35
X13.425Y-5.0
X13.425Y-5.65
X13.425Y-5.7
X13.425Y-6.7
X13.45Y-5.975
X13.45Y-6.825
X13.45Y-7.275
X13.45Y-7.725
X13.45Y-8.175
X13.475Y-6.3
X13.4999Y-4.6443
X13.5Y-2.7
X13.5Y-2.775
X13.5Y-2.85
X13.5Y-2.925
X13.5Y-2.9988
X13.5Y-3.075
X13.5Y-3.15
X13.5Y-3.225
X13.5Y-3.3512
X13.5Y-3.425
X13.5Y-3.5
X13.5Y-3.575
X13.5Y-3.65
X13.5Y-3.7262
X13.5Y-3.8
X13.5Y-3.875
X13.5Y-4.0
X13.5Y-4.0762
X13.5Y-4.15
X13.5Y-4.225
X13.5Y-4.3
X13.5Y-4.3762
X13.5Y-4.45
X13.5Y-4.525
X13.5Y-4.7262
X13.5Y-4.8
X13.5Y-4.875
X13.5Y-4.95
X13.5Y-5.0262
X13.5Y-5.1
X13.5Y-5.175
X13.5Y-5.3
X13.5Y-5.375
X13.5Y-5.45
X13.5Y-5.525
X13.5Y-5.6
X13.5Y-5.6762
X13.5Y-5.75
X13.5Y-5.825
X13.5Y-5.95
X13.5Y-6.375
X13.525Y-5.875
X13.525Y-6.5
X13.55Y-6.325
X13.55Y-7.175
X13.55Y-7.375
X13.575Y-7.1
X13.625Y-6.475
X13.625Y-6.55
X13.625Y-6.825
X13.625Y-7.275
X13.625Y-7.725
X13.625Y-8.175
X13.65Y-6.65
X13.65Y-7.075
X13.675Y-6.375
X13.7Y-5.825
X13.7Y-5.85
X13.7098Y-4.6443
X13.725Y-4.75
X13.725Y-5.725
X13.725Y-6.525
X13.725Y-6.875
X13.725Y-7.325
X13.725Y-7.775
X13.725Y-8.225
X13.75Y-7.075
X13.75Y-7.2
X13.75Y-7.425
X13.75Y-8.0
X13.75Y-8.125
X13.775Y-6.375
X13.775Y-6.825
X13.7835Y-7.8892
X13.8Y-6.1
X13.825Y-6.825
X13.825Y-7.275
X13.825Y-7.725
X13.825Y-8.175
X13.85Y-8.125
X13.875Y-6.05
X13.875Y-6.625
X13.875Y-7.15
X13.875Y-7.6
X13.875Y-8.325
X13.875Y-8.475
X13.9Y-5.375
X13.9Y-5.975
X13.9Y-6.525
X13.9Y-8.05
X13.925Y-5.95
X13.925Y-6.825
X13.925Y-6.875
X13.925Y-6.95
X13.925Y-7.175
X13.925Y-7.325
X13.925Y-7.775
X13.925Y-8.225
X13.95Y-4.45
X13.95Y-6.65
X13.95Y-7.575
X13.95Y-7.65
X13.95Y-8.125
X13.975Y-4.775
X13.975Y-6.7
X13.975Y-8.225
X14.0Y-6.675
X14.0Y-7.325
X14.0Y-8.0
X14.0Y-8.275
X14.025Y-6.375
X14.025Y-6.475
X14.025Y-6.775
X14.025Y-8.175
X14.05Y-4.7
X14.05Y-6.2
X14.075Y-6.29
X14.075Y-6.55
X14.0989Y-6.6511
X14.1Y-3.975
X14.1Y-8.475
X14.125Y-2.325
X14.125Y-6.65
X14.125Y-8.225
X14.15Y-2.35
X14.15Y-6.1
X14.1557Y-3.6364
X14.175Y-2.725
X14.175Y-3.55
X14.175Y-6.0
X14.175Y-6.375
X14.1983Y-5.9494
X14.1989Y-4.5989
X14.225Y-3.575
X14.225Y-4.6
X14.225Y-6.475
X14.25Y-3.775
X14.25Y-3.825
X14.25Y-4.45
X14.25Y-4.5
X14.25Y-6.025
X14.25Y-6.2
X14.25Y-6.375
X14.25Y-6.55
X14.25Y-6.775
X14.2535Y-5.9755
X14.275Y-2.65
X14.275Y-4.475
X14.275Y-5.85
X14.275Y-6.05
X14.275Y-6.4
X14.275Y-6.95
X14.3Y-2.575
X14.3Y-5.8
X14.325Y-2.625
X14.325Y-7.2
X14.375Y-3.025
X14.375Y-3.7
X14.375Y-4.35
X14.375Y-5.0
X14.375Y-5.625
X14.425Y-4.75
X14.425Y-7.15
X14.45Y-5.8
X14.45Y-8.5
T2
X1.475Y-2.65
X1.475Y-2.7
X1.475Y-2.75
X1.475Y-3.4
X1.475Y-3.775
X1.825Y-3.175
X1.875Y-3.175
X1.925Y-3.175
X1.925Y-3.4
X1.9377Y-3.7623
X2.3738Y-4.5488
X2.375Y-4.95
X2.775Y-3.175
X2.825Y-3.175
X2.85Y-3.4
X2.875Y-3.175
X2.9Y-2.75
X2.9Y-2.8
X2.9Y-2.85
X2.925Y-2.475
X2.925Y-3.225
X2.9258Y-5.0242
X2.9343Y-4.9593
X2.95Y-5.725
X2.95Y-5.775
X2.95Y-6.125
X2.95Y-7.75
X2.95Y-7.85
X2.9591Y-6.0659
X2.975Y-6.525
X2.975Y-6.9258
X2.975Y-7.325
X3.0Y-2.35
X3.0Y-2.4
X3.0Y-2.45
X3.0Y-2.725
X3.0Y-3.225
X3.0555Y-4.6593
X3.075Y-5.725
X3.075Y-5.775
X3.125Y-5.075
X3.3Y-6.8992
X3.3Y-6.975
X3.3Y-7.1992
X3.3Y-7.4
X3.3Y-7.525
X3.3Y-7.775
X3.3Y-7.8242
X3.3246Y-3.2013
X3.325Y-3.4
X3.325Y-3.5317
X3.325Y-4.3004
X3.325Y-4.35
X3.325Y-4.4557
X3.325Y-4.55
X3.325Y-4.9
X3.325Y-5.1077
X3.325Y-5.15
X3.325Y-5.6008
X3.325Y-5.825
X3.325Y-6.15
X3.325Y-6.225
X3.325Y-8.1758
X3.3252Y-5.7795
X3.3258Y-3.7
X3.3341Y-3.8341
X3.3341Y-4.0659
X3.3401Y-6.4043
X3.35Y-6.5065
X3.35Y-6.5992
X3.9Y-2.275
X3.9Y-2.425
X3.925Y-3.75
X3.925Y-5.025
X3.975Y-3.375
X4.0Y-5.775
X4.1374Y-3.7626
X4.225Y-4.6508
X4.225Y-4.825
X4.325Y-4.925
X4.35Y-3.875
X4.35Y-4.2492
X4.35Y-4.3228
X4.35Y-4.5992
X4.35Y-5.125
X4.35Y-5.25
X4.375Y-5.6
X4.375Y-5.6413
X4.7657Y-3.2907
X4.775Y-3.375
X4.775Y-3.625
X4.775Y-3.8
X4.775Y-3.8992
X4.8Y-4.825
X4.9Y-3.589
X4.9Y-3.6758
X5.0045Y-6.9258
X5.0045Y-7.2258
X5.0045Y-7.5295
X5.025Y-2.275
X5.025Y-6.525
X5.025Y-6.6258
X5.025Y-7.075
X5.025Y-7.8258
X5.0713Y-5.0315
X5.075Y-4.2492
X5.075Y-4.3008
X5.075Y-4.6008
X5.075Y-4.95
X5.0756Y-4.6506
X5.0926Y-5.2541
X5.0973Y-5.7843
X5.0992Y-6.6008
X5.1Y-5.6224
X5.1Y-5.674
X5.1Y-6.75
X5.1Y-6.9
X5.1Y-7.05
X5.1Y-7.2053
X5.1Y-7.5
X5.1Y-7.675
X5.1Y-7.7758
X5.1Y-8.5
X5.1001Y-5.3206
X5.125Y-5.925
X5.125Y-6.15
X5.125Y-6.1992
X5.125Y-6.2758
X5.325Y-3.5492
X5.35Y-3.6758
X5.35Y-3.9
X5.3685Y-2.6815
X5.375Y-2.775
X5.375Y-3.125
X5.375Y-3.35
X5.8Y-5.275
X5.8Y-5.3492
X5.825Y-4.75
X5.925Y-8.25
X5.975Y-6.0
X5.975Y-6.15
X5.975Y-6.2492
X5.975Y-6.7992
X5.975Y-7.075
X5.975Y-7.825
X5.975Y-7.875
X5.976Y-6.5295
X6.0Y-5.275
X6.0Y-5.35
X6.0Y-5.7
X6.3Y-4.775
X6.3037Y-5.2713
X6.725Y-6.7508
X6.725Y-6.975
X6.725Y-7.15
X6.725Y-7.325
X6.7488Y-5.6512
X6.7488Y-5.7327
X6.7488Y-5.9238
X6.75Y-6.2
X6.75Y-6.4742
X6.775Y-6.625
X6.8225Y-7.9539
X6.825Y-7.65
X6.828Y-8.297
X6.828Y-8.497
X6.9985Y-4.6657
X7.0Y-3.875
X7.0Y-4.3
X7.05Y-5.275
X7.0509Y-2.6259
X7.075Y-2.275
X7.075Y-2.4
X7.0961Y-3.0289
X7.15Y-4.15
X7.15Y-4.525
X7.1957Y-3.2343
X7.1991Y-3.8241
X7.2Y-3.3827
X7.2Y-3.575
X7.2155Y-8.0226
X7.25Y-2.5
X7.25Y-2.8289
X7.275Y-2.325
X7.2968Y-2.9735
X7.45Y-3.3557
X7.4632Y-3.2618
X7.725Y-4.675
X7.7459Y-4.4472
X7.75Y-2.175
X7.8Y-2.175
X7.85Y-2.175
X7.9489Y-4.5443
X7.95Y-4.75
X7.95Y-5.275
X8.0657Y-6.6157
X8.1Y-5.275
X8.1Y-5.625
X8.1Y-6.4742
X8.175Y-5.0492
X8.175Y-5.3242
X8.175Y-5.6492
X8.775Y-8.225
X8.775Y-8.275
X8.775Y-8.325
X8.8Y-7.375
X8.8Y-7.425
X8.8Y-7.65
X8.8Y-7.925
X8.85Y-6.6077
X8.8535Y-6.4727
X8.875Y-6.8
X8.875Y-7.1077
X8.9742Y-7.075
X8.9742Y-7.15
X9.075Y-2.175
X9.075Y-2.425
X9.1Y-2.8008
X9.1Y-3.0492
X9.175Y-2.175
X9.175Y-2.375
X9.225Y-4.375
X9.25Y-4.1
X9.275Y-2.175
X9.275Y-2.425
X9.4276Y-4.1657
X9.45Y-2.175
X9.45Y-2.675
X9.45Y-2.9173
X9.45Y-3.55
X9.475Y-3.2242
X9.525Y-5.4
X9.525Y-5.6
X9.5681Y-4.7157
X9.5693Y-3.7443
X9.5742Y-3.525
X9.575Y-3.375
X9.575Y-3.925
X9.596Y-5.6566
X9.5974Y-5.2077
X9.5992Y-4.1008
X9.6Y-5.025
X9.6Y-5.575
X9.6Y-6.4758
X9.6Y-6.6
X9.625Y-4.2927
X9.6364Y-4.6272
X10.0Y-2.175
X10.325Y-6.6
X10.325Y-6.8
X10.35Y-7.15
X10.35Y-7.3
X10.35Y-7.3789
X10.35Y-7.7077
X10.35Y-7.8742
X10.35Y-7.9508
X10.35Y-8.0242
X10.35Y-8.3
X10.3538Y-7.6162
X10.425Y-2.25
X10.475Y-5.4008
X10.4843Y-5.6593
X10.875Y-2.175
X11.1992Y-6.9
X11.2Y-6.95
X11.2Y-7.2758
X11.2Y-7.375
X11.2Y-7.6
X11.2Y-7.7758
X11.2Y-7.925
X11.2Y-7.9992
X11.2Y-8.2
X11.2Y-8.25
X11.225Y-6.6
X11.25Y-3.575
X11.275Y-5.7
X11.275Y-6.2
X11.275Y-6.4742
X11.3Y-3.525
X11.3Y-3.7
X11.3Y-3.925
X11.3Y-3.9992
X11.3Y-4.1
X11.3008Y-3.2492
X11.325Y-2.175
X11.325Y-5.6
X11.325Y-5.9
X11.325Y-6.1
X11.325Y-6.35
X11.325Y-6.3992
X11.35Y-4.2508
X11.35Y-4.6052
X11.35Y-4.7742
X11.35Y-5.1758
X11.375Y-4.3
X11.375Y-4.5673
X11.3945Y-4.7305
X11.3945Y-5.1242
X11.3945Y-5.2055
X11.55Y-2.175
X11.6097Y-6.7242
X11.6097Y-6.9347
X11.6153Y-7.3847
X11.6153Y-7.6097
X11.6153Y-7.7153
X11.6182Y-7.7758
X11.625Y-6.375
X11.625Y-7.175
X11.625Y-7.3
X11.65Y-3.675
X11.65Y-7.925
X11.65Y-8.1508
X11.65Y-8.2
X12.1Y-2.175
X12.225Y-3.6742
X12.6126Y-7.7049
X12.6228Y-7.0772
X12.6228Y-7.9772
X12.625Y-3.5742
X12.625Y-4.0
X12.625Y-4.05
X12.625Y-4.3248
X12.625Y-4.6
X12.625Y-4.7008
X12.625Y-4.775
X12.625Y-5.2
X12.625Y-5.25
X12.625Y-5.7008
X12.625Y-6.2
X12.625Y-6.475
X12.625Y-6.8258
X12.625Y-6.95
X12.625Y-7.2827
X12.625Y-7.4
X12.625Y-7.75
X12.625Y-8.3
X12.625Y-8.3463
X12.6272Y-7.5272
X12.6375Y-2.926
X12.65Y-3.225
X12.65Y-3.325
X12.675Y-2.475
X13.65Y-5.9
X13.656Y-3.281
X13.656Y-3.944
X13.656Y-4.581
X13.656Y-5.231
X13.675Y-2.2
X14.075Y-6.7
X14.075Y-6.825
X14.075Y-7.275
X14.075Y-7.725
X14.075Y-8.125
X14.325Y-5.9
X14.325Y-6.1
X14.325Y-6.25
X14.325Y-6.7
X14.375Y-2.475
X14.375Y-3.325
X14.375Y-4.05
X14.375Y-4.7
X14.375Y-5.25
X14.375Y-6.2
X14.375Y-6.475
X14.375Y-6.875
X14.375Y-7.95
X14.375Y-8.2
T3
X1.5055Y-2.3
X1.5055Y-8.35
X1.5332Y-2.2332
X1.5332Y-2.3668
X1.5332Y-8.2832
X1.5332Y-8.4168
X1.6Y-2.2055
X1.6Y-2.3945
X1.6Y-8.2555
X1.6Y-8.4445
X1.6668Y-2.2332
X1.6668Y-2.3668
X1.6668Y-8.2832
X1.6668Y-8.4168
X1.6945Y-2.3
X1.6945Y-8.35
X14.2055Y-2.3
X14.2055Y-8.35
X14.2332Y-2.2332
X14.2332Y-2.3668
X14.2332Y-8.2832
X14.2332Y-8.4168
X14.3Y-2.2055
X14.3Y-2.3945
X14.3Y-8.2555
X14.3Y-8.4445
X14.3668Y-2.2332
X14.3668Y-2.3668
X14.3668Y-8.2832
X14.3668Y-8.4168
X14.3945Y-2.3
X14.3945Y-8.35
T4
X2.4Y-2.25
X2.5Y-2.25
X7.2Y-8.225
X7.2Y-8.325
X7.3Y-8.225
X7.3Y-8.325
X7.4Y-8.225
X7.4Y-8.325
X7.5Y-8.225
X7.5Y-8.325
X7.6Y-8.225
X7.6Y-8.325
X7.7Y-8.225
X7.7Y-8.325
X7.8Y-2.325
X7.8Y-2.425
X7.8Y-8.225
X7.8Y-8.325
X7.9Y-2.325
X7.9Y-2.425
X7.9Y-8.225
X7.9Y-8.325
X8.0Y-2.325
X8.0Y-2.425
X8.0Y-8.225
X8.0Y-8.325
X8.1Y-2.325
X8.1Y-2.425
X8.1Y-8.225
X8.1Y-8.325
X8.2Y-2.325
X8.2Y-2.425
X8.2Y-8.225
X8.2Y-8.325
X8.3Y-2.325
X8.3Y-2.425
X8.3Y-8.225
X8.3Y-8.325
X8.4Y-2.325
X8.4Y-2.425
X8.4Y-8.225
X8.4Y-8.325
X8.5Y-2.325
X8.5Y-2.425
X8.5Y-8.225
X8.5Y-8.325
X8.6Y-2.325
X8.6Y-2.425
X8.6Y-8.225
X8.6Y-8.325
X8.7Y-2.325
X8.7Y-2.425
X10.025Y-8.075
X10.025Y-8.175
X14.175Y-7.05
X14.175Y-7.15
X14.175Y-7.25
X14.175Y-7.35
X14.175Y-7.45
X14.175Y-7.55
X14.175Y-7.65
X14.175Y-7.75
X14.175Y-7.85
X14.175Y-7.95
X14.275Y-7.05
X14.275Y-7.15
X14.275Y-7.25
X14.275Y-7.35
X14.275Y-7.45
X14.275Y-7.55
X14.275Y-7.65
X14.275Y-7.75
X14.275Y-7.85
X14.275Y-7.95
T5
X12.45Y-6.9
X12.45Y-7.0772
X12.45Y-7.35
X12.45Y-7.5272
X12.45Y-7.8
X12.45Y-7.9772
X12.45Y-8.25
X12.45Y-8.4272
X12.7059Y-6.9
X12.7059Y-7.0772
X12.7059Y-7.35
X12.7059Y-7.5272
X12.7059Y-7.8
X12.7059Y-7.9772
X12.7059Y-8.25
X12.7059Y-8.4272
X13.075Y-6.9
X13.075Y-7.0772
X13.075Y-7.35
X13.075Y-7.5272
X13.075Y-7.8
X13.075Y-7.9772
X13.075Y-8.25
X13.075Y-8.4272
X13.3309Y-6.9
X13.3309Y-7.0772
X13.3309Y-7.35
X13.3309Y-7.5272
X13.3309Y-7.8
X13.3309Y-7.9772
X13.3309Y-8.25
X13.3309Y-8.4272
T6
X1.6Y-2.3
X1.6Y-8.35
X14.3Y-2.3
X14.3Y-8.35
T4
G00X1.84Y-2.5675
M15
G01X1.84Y-2.6463
M16
G05
G00X2.0644Y-2.4888
M15
G01X1.9856Y-2.4888
M16
G05
G00X2.0644Y-2.725
M15
G01X1.9856Y-2.725
M16
G05
T0
M30
