G04 #@! TF.GenerationSoftware,KiCad,Pcbnew,(5.1.9)-1*
G04 #@! TF.CreationDate,2021-05-31T10:42:36+02:00*
G04 #@! TF.ProjectId,psMCU,70734d43-552e-46b6-9963-61645f706362,rev?*
G04 #@! TF.SameCoordinates,Original*
G04 #@! TF.FileFunction,Soldermask,Bot*
G04 #@! TF.FilePolarity,Negative*
%FSLAX46Y46*%
G04 Gerber Fmt 4.6, Leading zero omitted, Abs format (unit mm)*
G04 Created by KiCad (PCBNEW (5.1.9)-1) date 2021-05-31 10:42:36*
%MOMM*%
%LPD*%
G01*
G04 APERTURE LIST*
%ADD10O,1.700000X1.700000*%
%ADD11R,1.700000X1.700000*%
%ADD12C,1.700000*%
%ADD13C,2.000000*%
%ADD14R,3.500000X3.500000*%
%ADD15C,0.800000*%
%ADD16C,6.400000*%
G04 APERTURE END LIST*
D10*
X45720000Y-85725000D03*
D11*
X45720000Y-83185000D03*
D12*
X206375000Y-61595000D03*
X208915000Y-61595000D03*
X211455000Y-61595000D03*
X213995000Y-61595000D03*
X216535000Y-61595000D03*
X219075000Y-61595000D03*
X221615000Y-61595000D03*
X224155000Y-61595000D03*
X226695000Y-61595000D03*
X229235000Y-61595000D03*
X206375000Y-59055000D03*
X208915000Y-59055000D03*
X211455000Y-59055000D03*
X213995000Y-59055000D03*
X216535000Y-59055000D03*
X219075000Y-59055000D03*
X221615000Y-59055000D03*
X224155000Y-59055000D03*
X226695000Y-59055000D03*
G36*
G01*
X228635000Y-58205000D02*
X229835000Y-58205000D01*
G75*
G02*
X230085000Y-58455000I0J-250000D01*
G01*
X230085000Y-59655000D01*
G75*
G02*
X229835000Y-59905000I-250000J0D01*
G01*
X228635000Y-59905000D01*
G75*
G02*
X228385000Y-59655000I0J250000D01*
G01*
X228385000Y-58455000D01*
G75*
G02*
X228635000Y-58205000I250000J0D01*
G01*
G37*
D13*
X338605000Y-205740000D03*
X338605000Y-210240000D03*
X332105000Y-205740000D03*
X332105000Y-210240000D03*
X322730000Y-205740000D03*
X322730000Y-210240000D03*
X316230000Y-205740000D03*
X316230000Y-210240000D03*
X338605000Y-217170000D03*
X338605000Y-221670000D03*
X332105000Y-217170000D03*
X332105000Y-221670000D03*
X322730000Y-217170000D03*
X322730000Y-221670000D03*
X316230000Y-217170000D03*
X316230000Y-221670000D03*
X338605000Y-194310000D03*
X338605000Y-198810000D03*
X332105000Y-194310000D03*
X332105000Y-198810000D03*
X322730000Y-194310000D03*
X322730000Y-198810000D03*
X316230000Y-194310000D03*
X316230000Y-198810000D03*
X338605000Y-182880000D03*
X338605000Y-187380000D03*
X332105000Y-182880000D03*
X332105000Y-187380000D03*
X322730000Y-182880000D03*
X322730000Y-187380000D03*
X316230000Y-182880000D03*
X316230000Y-187380000D03*
D12*
X215265000Y-216535000D03*
X212725000Y-216535000D03*
X210185000Y-216535000D03*
X207645000Y-216535000D03*
X205105000Y-216535000D03*
X202565000Y-216535000D03*
X200025000Y-216535000D03*
X197485000Y-216535000D03*
X194945000Y-216535000D03*
X192405000Y-216535000D03*
X189865000Y-216535000D03*
X187325000Y-216535000D03*
X184785000Y-216535000D03*
X182245000Y-216535000D03*
X179705000Y-216535000D03*
X215265000Y-219075000D03*
X212725000Y-219075000D03*
X210185000Y-219075000D03*
X207645000Y-219075000D03*
X205105000Y-219075000D03*
X202565000Y-219075000D03*
X200025000Y-219075000D03*
X197485000Y-219075000D03*
X194945000Y-219075000D03*
X192405000Y-219075000D03*
X189865000Y-219075000D03*
X187325000Y-219075000D03*
X184785000Y-219075000D03*
X182245000Y-219075000D03*
G36*
G01*
X180305000Y-219925000D02*
X179105000Y-219925000D01*
G75*
G02*
X178855000Y-219675000I0J250000D01*
G01*
X178855000Y-218475000D01*
G75*
G02*
X179105000Y-218225000I250000J0D01*
G01*
X180305000Y-218225000D01*
G75*
G02*
X180555000Y-218475000I0J-250000D01*
G01*
X180555000Y-219675000D01*
G75*
G02*
X180305000Y-219925000I-250000J0D01*
G01*
G37*
D10*
X250825000Y-212725000D03*
D11*
X250825000Y-215265000D03*
D12*
X360045000Y-186690000D03*
X360045000Y-189230000D03*
X360045000Y-191770000D03*
X360045000Y-194310000D03*
X360045000Y-196850000D03*
X360045000Y-199390000D03*
X360045000Y-201930000D03*
X360045000Y-204470000D03*
X360045000Y-207010000D03*
X360045000Y-209550000D03*
X362585000Y-186690000D03*
X362585000Y-189230000D03*
X362585000Y-191770000D03*
X362585000Y-194310000D03*
X362585000Y-196850000D03*
X362585000Y-199390000D03*
X362585000Y-201930000D03*
X362585000Y-204470000D03*
X362585000Y-207010000D03*
G36*
G01*
X363435000Y-208950000D02*
X363435000Y-210150000D01*
G75*
G02*
X363185000Y-210400000I-250000J0D01*
G01*
X361985000Y-210400000D01*
G75*
G02*
X361735000Y-210150000I0J250000D01*
G01*
X361735000Y-208950000D01*
G75*
G02*
X361985000Y-208700000I250000J0D01*
G01*
X363185000Y-208700000D01*
G75*
G02*
X363435000Y-208950000I0J-250000D01*
G01*
G37*
G36*
G01*
X53035000Y-79235000D02*
X53035000Y-77485000D01*
G75*
G02*
X53910000Y-76610000I875000J0D01*
G01*
X55660000Y-76610000D01*
G75*
G02*
X56535000Y-77485000I0J-875000D01*
G01*
X56535000Y-79235000D01*
G75*
G02*
X55660000Y-80110000I-875000J0D01*
G01*
X53910000Y-80110000D01*
G75*
G02*
X53035000Y-79235000I0J875000D01*
G01*
G37*
G36*
G01*
X50285000Y-74660000D02*
X50285000Y-72660000D01*
G75*
G02*
X51035000Y-71910000I750000J0D01*
G01*
X52535000Y-71910000D01*
G75*
G02*
X53285000Y-72660000I0J-750000D01*
G01*
X53285000Y-74660000D01*
G75*
G02*
X52535000Y-75410000I-750000J0D01*
G01*
X51035000Y-75410000D01*
G75*
G02*
X50285000Y-74660000I0J750000D01*
G01*
G37*
D14*
X57785000Y-73660000D03*
D15*
X49322056Y-56722944D03*
X47625000Y-56020000D03*
X45927944Y-56722944D03*
X45225000Y-58420000D03*
X45927944Y-60117056D03*
X47625000Y-60820000D03*
X49322056Y-60117056D03*
X50025000Y-58420000D03*
D16*
X47625000Y-58420000D03*
D15*
X49322056Y-218012944D03*
X47625000Y-217310000D03*
X45927944Y-218012944D03*
X45225000Y-219710000D03*
X45927944Y-221407056D03*
X47625000Y-222110000D03*
X49322056Y-221407056D03*
X50025000Y-219710000D03*
D16*
X47625000Y-219710000D03*
D15*
X364917056Y-56722944D03*
X363220000Y-56020000D03*
X361522944Y-56722944D03*
X360820000Y-58420000D03*
X361522944Y-60117056D03*
X363220000Y-60820000D03*
X364917056Y-60117056D03*
X365620000Y-58420000D03*
D16*
X363220000Y-58420000D03*
D15*
X364917056Y-218012944D03*
X363220000Y-217310000D03*
X361522944Y-218012944D03*
X360820000Y-219710000D03*
X361522944Y-221407056D03*
X363220000Y-222110000D03*
X364917056Y-221407056D03*
X365620000Y-219710000D03*
D16*
X363220000Y-219710000D03*
M02*
