M48
; DRILL file {KiCad (5.1.9)-1} date 05/31/21 10:43:03
; FORMAT={-:-/ absolute / inch / decimal}
; #@! TF.CreationDate,2021-05-31T10:43:03+02:00
; #@! TF.GenerationSoftware,Kicad,Pcbnew,(5.1.9)-1
; #@! TF.FileFunction,Plated,1,2,PTH
FMAT,2
INCH
T1C0.0118
T2C0.0157
T3C0.0197
T4C0.0394
T5C0.0433
T6C0.1260
%
G90
G05
T1
X1.7157Y-3.2
X1.7157Y-4.25
X1.7157Y-4.575
X1.7239Y-6.3011
X1.725Y-4.525
X1.725Y-5.875
X1.725Y-8.4
X1.7303Y-6.575
X1.7307Y-4.4
X1.75Y-2.6
X1.75Y-4.375
X1.75Y-4.625
X1.75Y-5.625
X1.75Y-5.95
X1.75Y-5.975
X1.75Y-7.075
X1.75Y-8.425
X1.7585Y-4.4443
X1.7593Y-4.95
X1.7593Y-4.9764
X1.7593Y-5.0
X1.7593Y-5.0289
X1.7593Y-5.4039
X1.7658Y-6.2673
X1.7742Y-7.793
X1.775Y-2.675
X1.775Y-3.45
X1.775Y-6.4
X1.775Y-6.475
X1.775Y-6.775
X1.775Y-7.0
X1.775Y-7.4
X1.775Y-8.475
X1.7752Y-7.95
X1.7752Y-7.825
X1.7763Y-7.426
X1.7843Y-7.025
X1.7943Y-4.6
X1.7963Y-8.3522
X1.7992Y-6.2966
X1.8Y-5.2
X1.8Y-5.55
X1.8Y-8.175
X1.8114Y-4.682
X1.825Y-3.7
X1.825Y-4.8
X1.825Y-6.025
X1.825Y-6.875
X1.825Y-7.275
X1.825Y-7.675
X1.825Y-8.075
X1.825Y-8.325
X1.825Y-8.45
X1.8392Y-4.4244
X1.8489Y-4.7011
X1.8489Y-6.6323
X1.85Y-4.675
X1.85Y-7.175
X1.8528Y-6.609
X1.8557Y-4.8261
X1.8642Y-5.4807
X1.8696Y-6.5496
X1.874Y-6.651
X1.875Y-3.325
X1.875Y-4.625
X1.875Y-5.375
X1.875Y-6.0
X1.875Y-6.125
X1.875Y-6.525
X1.875Y-6.625
X1.875Y-6.825
X1.875Y-7.225
X1.875Y-7.625
X1.875Y-7.825
X1.875Y-8.025
X1.887Y-4.1261
X1.8926Y-4.5772
X1.895Y-6.5897
X1.9Y-5.5
X1.9Y-6.4
X1.9Y-7.025
X1.9Y-7.425
X1.9Y-7.95
X1.9Y-8.325
X1.9082Y-6.5553
X1.9102Y-7.5602
X1.9127Y-4.5648
X1.9239Y-8.1489
X1.9243Y-4.4739
X1.925Y-5.225
X1.925Y-5.375
X1.925Y-5.5512
X1.925Y-6.175
X1.925Y-6.475
X1.925Y-7.35
X1.925Y-8.325
X1.9254Y-4.4999
X1.9295Y-7.75
X1.9307Y-4.4088
X1.9307Y-6.548
X1.9307Y-6.6489
X1.9315Y-5.8008
X1.9463Y-7.8272
X1.9463Y-8.2272
X1.9483Y-4.5057
X1.95Y-4.075
X1.95Y-4.45
X1.95Y-5.4
X1.95Y-6.0
X1.95Y-6.4
X1.95Y-6.75
X1.95Y-7.425
X1.95Y-7.95
X1.9636Y-6.3386
X1.9705Y-8.25
X1.975Y-5.375
X1.975Y-5.4
X1.975Y-5.425
X1.975Y-5.45
X1.975Y-5.4988
X1.975Y-6.25
X1.975Y-6.3
X1.975Y-7.025
X1.975Y-7.45
X1.975Y-7.8
X1.975Y-7.85
X1.975Y-8.525
X1.9785Y-8.2005
X1.9843Y-6.4272
X1.9843Y-6.5758
X1.9854Y-7.4
X1.9943Y-4.9315
X1.9983Y-4.4576
X2.0Y-3.8
X2.0Y-4.175
X2.0Y-4.2
X2.0Y-4.325
X2.0Y-5.8
X2.0021Y-4.9021
X2.025Y-4.225
X2.025Y-4.25
X2.025Y-5.2
X2.025Y-5.5512
X2.025Y-6.025
X2.025Y-6.775
X2.025Y-6.875
X2.025Y-7.275
X2.025Y-7.675
X2.025Y-8.075
X2.0377Y-5.2928
X2.0497Y-6.8969
X2.05Y-6.375
X2.0597Y-3.7653
X2.075Y-4.275
X2.075Y-4.4907
X2.075Y-4.8
X2.075Y-5.975
X2.075Y-6.125
X2.075Y-6.3
X2.075Y-6.775
X2.075Y-6.825
X2.075Y-7.225
X2.075Y-7.525
X2.075Y-7.625
X2.075Y-8.025
X2.075Y-8.225
X2.075Y-8.475
X2.075Y-8.575
X2.075Y-8.675
X2.0815Y-5.8005
X2.0836Y-6.2352
X2.0967Y-6.5329
X2.0969Y-6.5864
X2.1Y-2.5
X2.1Y-4.3
X2.1Y-5.35
X2.1Y-5.55
X2.1Y-5.675
X2.1Y-6.025
X2.1Y-6.3
X2.1Y-6.625
X2.1Y-8.65
X2.1044Y-6.6566
X2.11Y-5.025
X2.1136Y-4.5057
X2.1146Y-7.8
X2.1157Y-7.175
X2.1157Y-8.125
X2.125Y-3.7
X2.125Y-3.85
X2.125Y-3.875
X2.125Y-3.9
X2.125Y-3.925
X2.125Y-3.95
X2.125Y-3.975
X2.125Y-4.0
X2.125Y-4.025
X2.125Y-4.175
X2.125Y-4.325
X2.125Y-4.55
X2.125Y-4.6
X2.125Y-4.825
X2.125Y-4.975
X2.125Y-5.0
X2.125Y-5.925
X2.125Y-6.3593
X2.125Y-6.475
X2.125Y-7.325
X2.125Y-7.725
X2.125Y-8.25
X2.125Y-8.625
X2.1302Y-6.2743
X2.1307Y-6.1943
X2.145Y-6.3717
X2.1495Y-6.2258
X2.15Y-4.125
X2.15Y-4.35
X2.15Y-4.575
X2.15Y-4.625
X2.15Y-4.875
X2.15Y-4.95
X2.15Y-6.575
X2.15Y-6.75
X2.15Y-7.55
X2.15Y-7.575
X2.15Y-7.95
X2.15Y-7.975
X2.15Y-8.1
X2.15Y-8.325
X2.1511Y-8.6157
X2.1593Y-6.6236
X2.1636Y-4.4791
X2.1739Y-5.5761
X2.1742Y-5.0739
X2.175Y-4.05
X2.175Y-4.825
X2.175Y-4.95
X2.175Y-5.1
X2.175Y-5.125
X2.175Y-6.025
X2.175Y-6.15
X2.175Y-6.575
X2.175Y-6.675
X2.175Y-7.025
X2.175Y-7.325
X2.175Y-7.35
X2.175Y-7.375
X2.175Y-7.4
X2.175Y-7.425
X2.175Y-7.5
X2.175Y-7.675
X2.175Y-7.725
X2.175Y-7.75
X2.175Y-7.8
X2.175Y-7.825
X2.175Y-8.125
X2.175Y-8.15
X2.175Y-8.175
X2.175Y-8.2
X2.175Y-8.225
X2.175Y-8.45
X2.1758Y-4.9745
X2.1761Y-6.1739
X2.1783Y-5.0496
X2.1785Y-5.0254
X2.1785Y-5.0
X2.1785Y-6.4
X2.1865Y-4.0706
X2.2Y-7.925
X2.2Y-8.075
X2.2089Y-5.849
X2.225Y-3.7
X2.225Y-4.7907
X2.225Y-5.2
X2.225Y-5.55
X2.225Y-5.6093
X2.225Y-6.3593
X2.225Y-6.875
X2.25Y-4.662
X2.25Y-6.025
X2.2519Y-7.0509
X2.2646Y-4.0854
X2.2709Y-5.4799
X2.275Y-6.025
X2.275Y-6.825
X2.2753Y-4.8864
X2.2772Y-6.272
X2.2805Y-3.8055
X2.288Y-6.6266
X2.288Y-7.887
X2.2889Y-6.2341
X2.2907Y-7.7211
X2.2907Y-7.175
X2.2909Y-7.325
X2.2963Y-6.6772
X2.2988Y-6.5488
X2.3Y-4.075
X2.3Y-4.225
X2.3Y-5.075
X2.3Y-5.375
X2.3Y-5.55
X2.3Y-8.125
X2.3Y-8.25
X2.3Y-8.5
X2.3011Y-6.6489
X2.3057Y-7.4136
X2.3095Y-4.8149
X2.3152Y-6.3098
X2.3157Y-6.2789
X2.3215Y-5.575
X2.3239Y-7.8011
X2.3239Y-8.2011
X2.3245Y-4.938
X2.325Y-3.525
X2.325Y-4.3
X2.325Y-5.1
X2.325Y-5.6
X2.325Y-6.025
X2.325Y-6.8
X2.325Y-6.95
X2.3275Y-5.3903
X2.3307Y-6.165
X2.3352Y-4.677
X2.3407Y-6.6057
X2.3407Y-6.65
X2.3466Y-6.3554
X2.3493Y-6.3996
X2.3499Y-5.3978
X2.35Y-3.525
X2.35Y-4.2
X2.35Y-4.55
X2.35Y-5.125
X2.35Y-5.15
X2.35Y-8.725
X2.3511Y-7.0261
X2.3511Y-7.7739
X2.3513Y-7.3737
X2.3657Y-4.825
X2.3693Y-8.175
X2.3745Y-6.1492
X2.375Y-3.5
X2.375Y-4.275
X2.375Y-5.575
X2.375Y-5.975
X2.375Y-7.45
X2.375Y-8.25
X2.375Y-8.35
X2.3755Y-4.8681
X2.3761Y-5.1489
X2.3761Y-5.4489
X2.3843Y-7.8501
X2.3855Y-6.55
X2.3943Y-6.2636
X2.3943Y-6.7307
X2.3943Y-6.975
X2.3989Y-4.7239
X2.3998Y-7.8126
X2.3999Y-5.4252
X2.4Y-4.5
X2.4Y-5.225
X2.4Y-5.45
X2.4Y-5.5512
X2.4Y-6.025
X2.4Y-6.2
X2.4Y-6.575
X2.4Y-7.725
X2.4Y-7.774
X2.4Y-8.375
X2.4Y-8.55
X2.4Y-8.575
X2.4006Y-5.4983
X2.4017Y-8.5244
X2.4093Y-5.4035
X2.4093Y-5.3514
X2.4093Y-5.375
X2.4242Y-6.3968
X2.425Y-6.875
X2.4281Y-4.4969
X2.4343Y-4.9
X2.45Y-5.2
X2.45Y-6.025
X2.45Y-6.4136
X2.45Y-7.2
X2.45Y-7.6
X2.45Y-8.0
X2.45Y-8.325
X2.4557Y-3.6489
X2.4568Y-8.4562
X2.4593Y-4.6988
X2.4627Y-5.2928
X2.4636Y-7.5114
X2.4637Y-4.75
X2.475Y-3.6
X2.475Y-4.25
X2.475Y-6.125
X2.475Y-6.725
X2.475Y-6.825
X2.475Y-7.1407
X2.475Y-7.925
X2.481Y-5.5557
X2.5Y-6.7305
X2.5Y-2.6
X2.5Y-3.55
X2.5Y-3.625
X2.5Y-4.5
X2.5Y-5.925
X2.5011Y-3.6761
X2.5085Y-8.1858
X2.5114Y-7.8211
X2.5157Y-7.775
X2.5157Y-8.1
X2.5209Y-8.2291
X2.5213Y-7.8522
X2.5225Y-7.4494
X2.5226Y-6.6114
X2.5234Y-5.1032
X2.5236Y-7.4258
X2.5239Y-5.6011
X2.5239Y-6.1989
X2.5239Y-6.7989
X2.5247Y-8.1407
X2.5247Y-6.5728
X2.525Y-5.1504
X2.525Y-3.175
X2.525Y-3.275
X2.525Y-3.425
X2.525Y-4.8
X2.525Y-4.95
X2.525Y-5.45
X2.525Y-6.175
X2.525Y-6.375
X2.525Y-6.5
X2.525Y-6.65
X2.525Y-7.075
X2.525Y-7.3
X2.525Y-7.35
X2.525Y-7.375
X2.525Y-7.7
X2.525Y-7.75
X2.525Y-8.4816
X2.525Y-8.775
X2.5251Y-5.1268
X2.5254Y-8.2523
X2.5338Y-5.082
X2.5382Y-7.1334
X2.5407Y-7.5407
X2.5443Y-7.05
X2.55Y-2.825
X2.55Y-3.175
X2.55Y-3.275
X2.55Y-3.525
X2.55Y-4.425
X2.55Y-4.55
X2.55Y-5.425
X2.55Y-6.025
X2.55Y-6.55
X2.55Y-7.025
X2.55Y-7.825
X2.55Y-7.9
X2.55Y-7.975
X2.55Y-8.35
X2.55Y-8.6
X2.5511Y-3.4258
X2.5511Y-5.5739
X2.56Y-7.465
X2.5615Y-6.7358
X2.571Y-8.2307
X2.575Y-2.55
X2.575Y-3.1
X2.575Y-3.175
X2.575Y-3.275
X2.575Y-3.425
X2.575Y-3.7
X2.575Y-4.075
X2.575Y-4.9262
X2.575Y-5.4
X2.575Y-6.15
X2.575Y-6.975
X2.575Y-7.175
X2.575Y-7.8
X2.576Y-7.9513
X2.5816Y-8.4816
X2.5843Y-6.1105
X2.593Y-8.2822
X2.5943Y-7.4943
X2.5979Y-5.3521
X2.5988Y-8.0738
X2.5989Y-8.1261
X2.599Y-6.8965
X2.5991Y-6.2609
X2.5995Y-8.151
X2.5998Y-8.2287
X2.6Y-2.525
X2.6Y-3.5
X2.6Y-6.625
X2.6Y-6.95
X2.6Y-6.9764
X2.6Y-7.0
X2.6Y-7.05
X2.6Y-7.175
X2.6Y-7.325
X2.6Y-7.35
X2.6Y-7.375
X2.6Y-7.4
X2.6Y-7.45
X2.6Y-7.725
X2.6Y-7.75
X2.6Y-7.775
X2.6Y-7.8
X2.6Y-8.1
X2.6006Y-7.0256
X2.6011Y-8.2051
X2.6093Y-6.55
X2.6093Y-6.5739
X2.6093Y-7.8539
X2.6142Y-6.2231
X2.6196Y-5.5316
X2.6201Y-6.1819
X2.6248Y-5.5778
X2.625Y-2.825
X2.625Y-3.0
X2.625Y-4.2
X2.625Y-4.225
X2.625Y-4.25
X2.625Y-4.275
X2.625Y-4.3
X2.625Y-4.325
X2.625Y-4.8738
X2.625Y-6.025
X2.625Y-6.875
X2.625Y-7.275
X2.625Y-7.675
X2.6263Y-5.5543
X2.643Y-6.475
X2.6489Y-3.7739
X2.65Y-2.25
X2.65Y-2.575
X2.65Y-3.525
X2.65Y-5.2
X2.65Y-5.55
X2.6739Y-3.7489
X2.6739Y-8.4511
X2.675Y-4.175
X2.675Y-4.45
X2.675Y-8.8
X2.6756Y-3.8267
X2.6813Y-6.3892
X2.6987Y-7.9908
X2.7Y-3.725
X2.7Y-4.2
X2.7Y-4.525
X2.7Y-4.9
X2.7Y-6.025
X2.7Y-7.175
X2.7011Y-5.6011
X2.7126Y-6.5739
X2.719Y-7.7075
X2.7201Y-5.0201
X2.7239Y-6.6261
X2.7239Y-6.9761
X2.7242Y-7.4005
X2.725Y-3.8
X2.725Y-5.225
X2.725Y-5.475
X2.725Y-5.6
X2.725Y-6.15
X2.725Y-6.275
X2.725Y-7.8
X2.725Y-8.2
X2.7383Y-8.2742
X2.7442Y-8.1008
X2.7452Y-7.3551
X2.7466Y-5.044
X2.75Y-4.25
X2.75Y-4.3
X2.75Y-4.325
X2.75Y-4.35
X2.75Y-4.55
X2.75Y-4.85
X2.75Y-6.225
X2.75Y-6.525
X2.75Y-7.7509
X2.75Y-7.95
X2.75Y-8.175
X2.7511Y-4.2761
X2.7511Y-5.5989
X2.7618Y-7.3132
X2.7618Y-7.3382
X2.7633Y-5.0633
X2.771Y-8.2843
X2.7733Y-7.7267
X2.775Y-3.5
X2.775Y-3.65
X2.775Y-5.5512
X2.775Y-5.675
X2.775Y-6.025
X2.775Y-6.175
X2.775Y-6.375
X2.775Y-6.6
X2.775Y-8.1
X2.775Y-8.2
X2.775Y-8.75
X2.7816Y-8.4816
X2.7843Y-5.15
X2.7859Y-6.9156
X2.7864Y-7.0486
X2.7925Y-5.2301
X2.7925Y-7.8409
X2.7933Y-6.6809
X2.7963Y-7.7772
X2.7988Y-6.6423
X2.8Y-5.45
X2.8Y-7.0085
X2.801Y-5.1285
X2.8057Y-4.6636
X2.8063Y-7.4517
X2.8114Y-7.3886
X2.815Y-7.8057
X2.8188Y-7.7616
X2.8211Y-8.1008
X2.8224Y-5.4893
X2.8231Y-7.0278
X2.8239Y-7.3239
X2.8247Y-7.7057
X2.825Y-4.425
X2.825Y-5.075
X2.825Y-6.05
X2.825Y-6.625
X2.825Y-6.8
X2.825Y-6.925
X2.825Y-7.35
X2.825Y-8.175
X2.825Y-8.2443
X2.8266Y-7.0516
X2.8294Y-5.1136
X2.8295Y-7.4041
X2.8365Y-7.4773
X2.8386Y-6.5989
X2.8425Y-7.8484
X2.8441Y-7.4227
X2.8477Y-5.5557
X2.8486Y-4.6721
X2.8489Y-3.8739
X2.8498Y-3.8266
X2.85Y-3.9
X2.85Y-3.925
X2.85Y-3.95
X2.85Y-3.975
X2.85Y-4.0
X2.85Y-4.025
X2.85Y-4.2
X2.85Y-4.225
X2.85Y-4.4
X2.85Y-6.025
X2.85Y-8.725
X2.8501Y-3.8503
X2.8531Y-5.4219
X2.8593Y-4.6934
X2.8636Y-5.0711
X2.8711Y-6.4093
X2.875Y-3.65
X2.875Y-3.7
X2.875Y-4.075
X2.875Y-4.9
X2.875Y-5.2
X2.875Y-6.8
X2.875Y-7.2
X2.875Y-7.6
X2.875Y-8.45
X2.8789Y-8.0093
X2.8877Y-5.2928
X2.9Y-3.7227
X2.9Y-4.325
X2.9Y-4.475
X2.9Y-6.125
X2.9Y-6.3407
X2.9011Y-3.9081
X2.9249Y-6.8999
X2.925Y-4.275
X2.925Y-4.375
X2.925Y-4.85
X2.925Y-5.175
X2.925Y-8.625
X2.925Y-8.7
X2.9267Y-5.5758
X2.9288Y-6.7776
X2.9307Y-7.0577
X2.9349Y-7.288
X2.9405Y-8.2978
X2.9405Y-7.6831
X2.9407Y-6.4961
X2.9407Y-6.5211
X2.9407Y-6.6406
X2.9407Y-6.6792
X2.9424Y-6.9593
X2.9452Y-8.2593
X2.9463Y-8.0858
X2.9473Y-5.3415
X2.9477Y-7.8827
X2.9495Y-7.8291
X2.95Y-3.65
X2.95Y-4.3
X2.95Y-4.4
X2.95Y-4.55
X2.95Y-4.6988
X2.95Y-5.075
X2.95Y-5.475
X2.95Y-6.025
X2.95Y-7.175
X2.9511Y-6.1693
X2.9511Y-7.464
X2.9614Y-7.7178
X2.962Y-3.8152
X2.9664Y-7.5742
X2.9679Y-8.1008
X2.9693Y-6.775
X2.9739Y-5.9511
X2.975Y-5.05
X2.975Y-5.25
X2.975Y-5.5262
X2.975Y-6.9
X2.975Y-7.1
X2.975Y-7.6
X2.975Y-8.225
X2.9797Y-3.9657
X2.9808Y-7.3215
X2.9823Y-7.0614
X2.9886Y-5.418
X3.0Y-4.425
X3.0Y-4.675
X3.0Y-5.55
X3.0Y-6.525
X3.0Y-6.775
X3.0Y-7.725
X3.0Y-7.775
X3.0001Y-6.7499
X3.0011Y-8.1693
X3.0042Y-7.3309
X3.0046Y-7.587
X3.0053Y-4.7092
X3.0093Y-6.6289
X3.0105Y-5.3841
X3.0136Y-7.1048
X3.0193Y-6.9557
X3.0226Y-7.5357
X3.0227Y-7.7817
X3.024Y-8.1284
X3.0241Y-6.9788
X3.025Y-2.65
X3.025Y-2.8
X3.025Y-3.0
X3.025Y-3.4
X3.025Y-3.8
X3.025Y-4.475
X3.025Y-4.825
X3.025Y-5.075
X3.025Y-5.1
X3.025Y-5.125
X3.025Y-5.575
X3.025Y-5.925
X3.025Y-6.275
X3.025Y-6.55
X3.025Y-6.575
X3.025Y-6.65
X3.025Y-6.675
X3.025Y-6.7
X3.025Y-6.725
X3.025Y-6.875
X3.025Y-7.05
X3.025Y-7.075
X3.025Y-7.275
X3.025Y-7.575
X3.025Y-7.75
X3.025Y-7.85
X3.025Y-7.875
X3.025Y-7.9
X3.025Y-7.925
X3.025Y-8.075
X3.025Y-8.175
X3.025Y-8.225
X3.025Y-8.25
X3.025Y-8.275
X3.025Y-8.3
X3.025Y-8.325
X3.0255Y-7.4008
X3.0255Y-7.8258
X3.0256Y-8.2006
X3.0257Y-7.0024
X3.0258Y-7.4245
X3.0261Y-7.6761
X3.0264Y-7.5124
X3.0268Y-6.6014
X3.0274Y-7.3504
X3.0285Y-5.05
X3.0285Y-7.45
X3.0287Y-7.3772
X3.0291Y-7.0258
X3.0307Y-8.1057
X3.0359Y-7.0969
X3.0386Y-5.3564
X3.0386Y-7.1356
X3.0407Y-3.925
X3.0415Y-7.4943
X3.0489Y-3.8693
X3.05Y-3.0
X3.05Y-3.4
X3.05Y-4.35
X3.05Y-4.6
X3.05Y-4.8262
X3.05Y-7.8
X3.05Y-8.525
X3.05Y-8.8
X3.0502Y-8.453
X3.0614Y-4.4943
X3.075Y-3.65
X3.075Y-3.9657
X3.075Y-4.225
X3.075Y-5.2
X3.075Y-5.55
X3.075Y-6.025
X3.075Y-6.425
X3.075Y-6.825
X3.075Y-7.225
X3.075Y-8.025
X3.0761Y-5.6011
X3.0843Y-3.875
X3.0989Y-3.6239
X3.1Y-3.5
X3.1Y-3.7
X3.1Y-3.9
X3.1Y-4.225
X3.1Y-4.825
X3.1Y-6.05
X3.1011Y-3.9511
X3.1023Y-7.6271
X3.1183Y-6.8022
X3.125Y-4.425
X3.125Y-4.9
X3.125Y-5.6
X3.125Y-7.6093
X3.125Y-8.525
X3.125Y-8.8
X3.1281Y-6.1031
X3.1297Y-4.6988
X3.1358Y-5.3422
X3.1487Y-5.0013
X3.1492Y-4.9745
X3.1494Y-4.9506
X3.15Y-3.65
X3.15Y-4.175
X3.15Y-4.55
X3.15Y-5.025
X3.15Y-5.475
X3.15Y-5.675
X3.15Y-6.025
X3.15Y-6.275
X3.15Y-6.575
X3.15Y-6.975
X3.15Y-7.375
X3.15Y-7.775
X3.15Y-7.9
X3.15Y-8.175
X3.1508Y-5.3888
X3.1511Y-6.7988
X3.1512Y-5.4274
X3.1679Y-6.5008
X3.1739Y-6.7807
X3.175Y-5.6
X3.175Y-6.15
X3.175Y-6.6
X3.175Y-7.0
X3.175Y-7.4
X3.175Y-7.8
X3.175Y-8.2
X3.1773Y-6.7421
X3.1864Y-4.088
X3.1939Y-4.9885
X3.2Y-3.8
X3.2Y-4.35
X3.2Y-4.675
X3.2Y-5.5238
X3.2Y-5.6
X3.2Y-5.95
X3.2Y-6.275
X3.2Y-6.625
X3.2Y-7.025
X3.2Y-7.425
X3.2Y-7.825
X3.2Y-8.225
X3.2Y-8.525
X3.2Y-8.8
X3.2066Y-4.8304
X3.2091Y-5.0066
X3.2092Y-3.9443
X3.2244Y-5.0261
X3.2249Y-4.8478
X3.225Y-3.625
X3.225Y-4.175
X3.225Y-4.325
X3.225Y-5.5943
X3.225Y-5.95
X3.225Y-6.375
X3.225Y-6.65
X3.225Y-7.05
X3.225Y-7.45
X3.225Y-7.85
X3.225Y-8.25
X3.2499Y-6.5008
X3.25Y-3.6
X3.25Y-3.85
X3.25Y-4.325
X3.25Y-4.375
X3.25Y-4.525
X3.25Y-4.675
X3.25Y-4.6988
X3.25Y-5.5
X3.25Y-7.075
X3.25Y-7.475
X3.25Y-7.55
X3.25Y-7.75
X3.25Y-7.875
X3.25Y-8.275
X3.2511Y-4.2489
X3.2541Y-6.6749
X3.2617Y-4.9383
X3.275Y-3.55
X3.275Y-4.2
X3.275Y-4.225
X3.275Y-6.025
X3.275Y-8.0
X3.2763Y-8.4487
X3.2992Y-3.8939
X3.3Y-4.9
X3.3Y-5.2
X3.3Y-5.5943
X3.3Y-5.675
X3.3Y-6.4
X3.3Y-7.2
X3.3Y-7.6093
X3.3Y-8.0
X3.3011Y-4.1557
X3.3039Y-6.8193
X3.3127Y-5.2928
X3.3136Y-4.1976
X3.3142Y-3.9574
X3.325Y-2.45
X3.325Y-3.275
X3.325Y-4.425
X3.325Y-4.8
X3.325Y-6.125
X3.3453Y-6.8924
X3.3463Y-7.2978
X3.3483Y-4.6983
X3.35Y-2.4
X3.35Y-3.4
X3.35Y-3.6
X3.35Y-3.65
X3.35Y-4.55
X3.35Y-6.3988
X3.35Y-8.425
X3.3587Y-5.0434
X3.3606Y-6.7173
X3.3654Y-6.9277
X3.3667Y-6.9552
X3.3716Y-6.5716
X3.3727Y-6.5977
X3.3732Y-7.0018
X3.3739Y-5.0989
X3.3739Y-6.6239
X3.3739Y-6.6489
X3.3739Y-7.3739
X3.3739Y-7.4239
X3.3739Y-7.4489
X3.3739Y-8.1761
X3.3739Y-8.2739
X3.3745Y-4.6995
X3.3746Y-7.8452
X3.375Y-7.9193
X3.375Y-7.798
X3.375Y-2.475
X3.375Y-2.725
X3.375Y-3.175
X3.375Y-3.525
X3.375Y-5.075
X3.375Y-5.125
X3.375Y-5.35
X3.375Y-5.375
X3.375Y-5.4
X3.375Y-5.425
X3.375Y-5.45
X3.375Y-5.5238
X3.375Y-6.025
X3.375Y-6.375
X3.375Y-6.5
X3.375Y-6.675
X3.375Y-7.05
X3.375Y-7.075
X3.375Y-7.125
X3.375Y-7.15
X3.375Y-7.3
X3.375Y-7.4
X3.375Y-7.475
X3.375Y-7.525
X3.375Y-7.55
X3.375Y-7.7
X3.375Y-8.1
X3.375Y-8.2
X3.375Y-8.225
X3.375Y-8.25
X3.375Y-8.325
X3.375Y-8.35
X3.375Y-7.7743
X3.375Y-7.0253
X3.3751Y-7.8216
X3.3761Y-7.9429
X3.3766Y-7.8687
X3.3769Y-6.9765
X3.3843Y-6.7209
X3.4Y-3.375
X3.4Y-3.575
X3.4Y-3.8
X3.4Y-5.175
X3.4Y-6.0
X3.4Y-6.075
X3.4Y-6.3
X3.4Y-6.4
X3.4Y-7.075
X3.4Y-7.175
X3.4Y-8.525
X3.4003Y-6.6823
X3.4101Y-4.1557
X3.4133Y-4.3557
X3.4214Y-6.7016
X3.425Y-2.575
X3.425Y-3.4
X3.425Y-3.5
X3.425Y-3.725
X3.425Y-7.125
X3.425Y-7.525
X3.425Y-7.9122
X3.425Y-8.325
X3.4379Y-6.7209
X3.4433Y-3.2964
X3.4449Y-7.15
X3.4449Y-7.5551
X3.4449Y-7.9315
X3.4449Y-8.35
X3.45Y-3.85
X3.45Y-3.9
X3.4501Y-3.7558
X3.4511Y-4.7011
X3.4689Y-4.1122
X3.4691Y-4.0736
X3.475Y-4.175
X3.4843Y-3.8157
X3.5Y-3.325
X3.5103Y-5.4998
X3.5232Y-7.3234
X3.5237Y-5.5226
X3.5244Y-2.3994
X3.525Y-3.7
X3.525Y-3.875
X3.525Y-4.025
X3.525Y-4.475
X3.5261Y-3.7739
X3.5276Y-7.2657
X3.5307Y-5.575
X3.5307Y-6.3407
X3.5453Y-4.5319
X3.5489Y-2.4307
X3.55Y-3.6
X3.55Y-4.625
X3.55Y-7.55
X3.55Y-7.65
X3.55Y-8.05
X3.55Y-8.075
X3.55Y-8.65
X3.5615Y-7.3362
X3.5636Y-4.4716
X3.5643Y-4.062
X3.5704Y-4.5296
X3.5739Y-3.2239
X3.5739Y-5.2511
X3.5739Y-7.2511
X3.5749Y-6.6501
X3.575Y-2.4
X3.575Y-3.4093
X3.575Y-3.9
X3.575Y-3.975
X3.575Y-4.0864
X3.575Y-5.05
X3.575Y-5.225
X3.575Y-7.2
X3.575Y-7.525
X3.575Y-8.6
X3.5755Y-3.5254
X3.5755Y-3.4329
X3.5761Y-3.549
X3.5788Y-5.5221
X3.5822Y-2.3614
X3.5843Y-3.875
X3.5846Y-5.7471
X3.5885Y-5.3727
X3.5886Y-2.4886
X3.5923Y-3.5089
X3.5939Y-4.4971
X3.5943Y-7.3591
X3.595Y-3.4843
X3.5989Y-8.4489
X3.5991Y-7.2218
X3.6Y-7.15
X3.6Y-3.225
X3.6Y-6.2976
X3.6Y-7.925
X3.6Y-8.675
X3.6021Y-5.6193
X3.6082Y-5.3886
X3.6108Y-7.1969
X3.6112Y-6.6308
X3.6114Y-7.9557
X3.62Y-7.3606
X3.6224Y-2.6042
X3.6242Y-6.4972
X3.6242Y-4.9278
X3.6242Y-4.9515
X3.6242Y-4.9783
X3.6242Y-5.1733
X3.6242Y-5.197
X3.625Y-3.125
X3.625Y-4.425
X3.625Y-5.45
X3.625Y-5.625
X3.625Y-6.0
X3.625Y-6.325
X3.625Y-8.625
X3.625Y-8.65
X3.6286Y-5.3536
X3.6329Y-3.7392
X3.6435Y-6.5112
X3.6443Y-5.6
X3.6448Y-2.5758
X3.65Y-4.05
X3.65Y-4.5443
X3.65Y-4.725
X3.65Y-5.675
X3.6542Y-6.7508
X3.6559Y-5.6443
X3.6605Y-3.9605
X3.6671Y-8.0
X3.675Y-2.45
X3.675Y-2.5
X3.675Y-2.65
X3.675Y-4.325
X3.675Y-6.05
X3.675Y-6.525
X3.675Y-8.175
X3.675Y-8.3907
X3.675Y-8.45
X3.6843Y-5.9657
X3.6864Y-7.9678
X3.6888Y-6.6239
X3.6895Y-8.1538
X3.6956Y-3.6264
X3.6961Y-6.7657
X3.7Y-2.375
X3.7Y-2.7
X3.7Y-3.125
X3.7Y-3.875
X3.7Y-3.95
X3.7Y-4.425
X3.7Y-4.625
X3.7Y-4.7
X3.7Y-6.1
X3.7Y-6.175
X3.7Y-6.35
X3.7Y-7.875
X3.7011Y-5.4157
X3.7018Y-6.7428
X3.7036Y-3.4786
X3.7045Y-3.6045
X3.7047Y-8.65
X3.7093Y-6.6432
X3.7108Y-5.1454
X3.7152Y-5.1715
X3.7226Y-5.3749
X3.7239Y-2.3761
X3.7239Y-2.4739
X3.7249Y-4.9751
X3.725Y-2.725
X3.725Y-3.425
X3.725Y-4.55
X3.725Y-5.05
X3.725Y-5.25
X3.725Y-7.9
X3.725Y-7.975
X3.725Y-8.35
X3.725Y-8.5
X3.7369Y-3.6154
X3.7406Y-3.7079
X3.7409Y-4.3307
X3.7462Y-5.3757
X3.7489Y-6.7989
X3.75Y-2.275
X3.75Y-2.45
X3.75Y-3.225
X3.75Y-4.925
X3.75Y-5.25
X3.75Y-6.175
X3.75Y-6.35
X3.75Y-6.6808
X3.75Y-6.875
X3.75Y-7.15
X3.75Y-7.9512
X3.75Y-8.075
X3.7509Y-3.7306
X3.7511Y-4.5193
X3.7557Y-4.95
X3.7557Y-5.1864
X3.7692Y-3.6943
X3.7694Y-5.3714
X3.7722Y-6.7001
X3.775Y-2.5
X3.775Y-3.125
X3.775Y-3.2
X3.775Y-4.425
X3.775Y-6.125
X3.775Y-6.15
X3.775Y-6.8
X3.775Y-7.725
X3.775Y-7.75
X3.775Y-7.775
X3.775Y-7.8
X3.775Y-7.825
X3.775Y-7.85
X3.775Y-8.1
X3.775Y-8.125
X3.775Y-8.15
X3.775Y-8.175
X3.775Y-8.2
X3.775Y-8.225
X3.775Y-8.25
X3.775Y-8.275
X3.775Y-8.575
X3.7754Y-7.65
X3.7754Y-7.675
X3.7754Y-7.7
X3.7761Y-7.8739
X3.7776Y-8.0468
X3.7905Y-5.4711
X3.7926Y-5.3625
X3.7967Y-6.6386
X3.7989Y-4.3761
X3.8Y-5.65
X3.8Y-5.775
X3.8Y-5.8
X3.8Y-5.825
X3.8Y-5.85
X3.8Y-5.875
X3.8Y-5.9
X3.8Y-6.075
X3.8Y-6.475
X3.8Y-6.525
X3.8Y-6.55
X3.8Y-6.575
X3.8Y-6.6
X3.8Y-7.45
X3.8Y-7.925
X3.8017Y-5.446
X3.8026Y-6.6615
X3.8041Y-5.925
X3.8041Y-5.95
X3.8047Y-6.685
X3.8079Y-5.2503
X3.8093Y-4.6055
X3.81Y-2.665
X3.825Y-3.25
X3.825Y-4.475
X3.825Y-4.6285
X3.825Y-5.45
X3.825Y-6.8
X3.825Y-7.15
X3.8343Y-5.2289
X3.8367Y-5.1807
X3.8392Y-4.8412
X3.8429Y-5.2709
X3.8492Y-4.8963
X3.8492Y-4.924
X3.85Y-2.5907
X3.85Y-2.725
X3.85Y-3.225
X3.85Y-4.425
X3.85Y-4.975
X3.85Y-5.4477
X3.85Y-7.4
X3.8627Y-5.6877
X3.875Y-2.15
X3.875Y-2.975
X3.875Y-3.35
X3.875Y-4.475
X3.875Y-4.525
X3.875Y-4.7
X3.875Y-5.025
X3.875Y-6.125
X3.875Y-6.4
X3.875Y-8.45
X3.8952Y-7.6967
X3.8977Y-8.1
X3.9Y-2.175
X3.9Y-2.4
X3.9Y-2.425
X3.9Y-2.45
X3.9Y-2.7
X3.9Y-4.525
X3.9Y-5.6
X3.9Y-6.15
X3.9Y-6.775
X3.9Y-7.15
X3.9Y-7.525
X3.9Y-7.75
X3.9Y-8.225
X3.9157Y-4.425
X3.9197Y-5.4829
X3.9239Y-2.5011
X3.9239Y-6.6989
X3.9239Y-7.7239
X3.9244Y-3.6943
X3.925Y-2.725
X3.925Y-3.425
X3.925Y-3.65
X3.925Y-3.95
X3.925Y-5.725
X3.925Y-8.5
X3.925Y-8.65
X3.9258Y-4.793
X3.9261Y-8.1261
X3.9299Y-7.5397
X3.9364Y-5.4636
X3.9407Y-5.6511
X3.95Y-2.575
X3.95Y-3.075
X3.95Y-4.375
X3.95Y-5.125
X3.95Y-6.075
X3.95Y-6.125
X3.95Y-7.35
X3.95Y-8.15
X3.95Y-8.425
X3.9511Y-7.7511
X3.9531Y-6.5531
X3.9557Y-5.2031
X3.9593Y-6.4157
X3.9656Y-6.7364
X3.9727Y-6.0546
X3.9732Y-7.6005
X3.9733Y-2.3767
X3.9742Y-4.3755
X3.975Y-2.2
X3.975Y-2.325
X3.975Y-2.3512
X3.975Y-3.9
X3.975Y-3.95
X3.975Y-4.4727
X3.975Y-6.7
X3.975Y-7.15
X3.975Y-7.775
X3.975Y-8.175
X3.975Y-8.8
X3.975Y-5.35
X3.9758Y-7.6758
X3.9774Y-7.5749
X3.9776Y-5.0728
X3.9907Y-6.4593
X3.9909Y-4.9573
X3.9961Y-8.1907
X4.0Y-2.5
X4.0Y-4.425
X4.0Y-5.1
X4.0Y-5.1693
X4.0Y-6.65
X4.0Y-6.775
X4.0Y-7.325
X4.0Y-8.3
X4.0Y-8.425
X4.0Y-8.65
X4.0011Y-8.8011
X4.0021Y-7.8079
X4.0059Y-7.7693
X4.0114Y-4.8114
X4.0149Y-4.4873
X4.0193Y-5.2858
X4.0213Y-7.8256
X4.0213Y-8.0756
X4.0239Y-6.4239
X4.0246Y-7.7223
X4.0248Y-5.1744
X4.025Y-3.05
X4.025Y-4.35
X4.025Y-4.6
X4.025Y-4.85
X4.025Y-8.325
X4.025Y-8.35
X4.025Y-8.675
X4.0261Y-8.2057
X4.0269Y-4.9762
X4.0289Y-4.9364
X4.03Y-7.6323
X4.0309Y-5.2653
X4.0343Y-5.1961
X4.0343Y-5.2211
X4.0343Y-5.3474
X4.0344Y-4.8978
X4.0355Y-7.5832
X4.037Y-3.7908
X4.0417Y-7.5333
X4.0477Y-6.8
X4.05Y-3.075
X4.05Y-3.2
X4.05Y-3.475
X4.05Y-6.0
X4.05Y-6.875
X4.05Y-7.15
X4.05Y-8.225
X4.05Y-8.4093
X4.0531Y-4.4742
X4.0598Y-7.9763
X4.0739Y-6.8011
X4.075Y-2.15
X4.075Y-3.05
X4.075Y-3.125
X4.075Y-4.425
X4.075Y-5.6
X4.075Y-5.675
X4.075Y-6.325
X4.075Y-8.45
X4.0859Y-3.8509
X4.0904Y-4.0315
X4.1Y-4.35
X4.1Y-6.475
X4.1Y-7.925
X4.1Y-8.45
X4.1117Y-3.7903
X4.1132Y-3.9985
X4.125Y-2.375
X4.125Y-4.7
X4.125Y-5.4791
X4.125Y-5.5028
X4.125Y-6.8
X4.125Y-7.15
X4.125Y-8.5
X4.1261Y-6.7739
X4.1264Y-4.7486
X4.145Y-3.7699
X4.1489Y-5.5239
X4.1498Y-3.9494
X4.15Y-2.275
X4.15Y-3.05
X4.15Y-3.825
X4.15Y-4.0157
X4.15Y-4.425
X4.15Y-5.15
X4.15Y-6.1
X4.15Y-6.55
X4.15Y-6.8
X4.15Y-7.575
X4.15Y-7.6
X4.15Y-7.85
X4.15Y-8.05
X4.15Y-8.1
X4.15Y-8.25
X4.15Y-8.6
X4.1504Y-5.7501
X4.1509Y-7.7011
X4.1514Y-3.9236
X4.1548Y-8.4928
X4.1557Y-5.3343
X4.165Y-3.5776
X4.1659Y-7.6175
X4.1693Y-8.0843
X4.1695Y-4.0008
X4.1724Y-4.9022
X4.1729Y-5.2234
X4.175Y-2.25
X4.175Y-2.425
X4.175Y-3.7
X4.175Y-3.85
X4.175Y-6.6
X4.175Y-6.775
X4.175Y-7.725
X4.175Y-7.825
X4.175Y-7.875
X4.175Y-8.275
X4.175Y-8.3
X4.1807Y-4.9407
X4.1888Y-3.95
X4.1907Y-4.325
X4.1943Y-5.547
X4.1967Y-5.1989
X4.1979Y-5.3785
X4.1989Y-4.3489
X4.1989Y-4.5239
X4.2Y-2.225
X4.2Y-6.175
X4.2Y-6.4
X4.2Y-7.15
X4.2Y-7.55
X4.2Y-8.6
X4.2011Y-8.3239
X4.2079Y-5.325
X4.2093Y-3.7892
X4.2239Y-4.0307
X4.2244Y-5.2481
X4.2245Y-4.9758
X4.225Y-2.275
X4.225Y-3.275
X4.225Y-6.125
X4.225Y-6.425
X4.225Y-7.45
X4.225Y-7.575
X4.225Y-8.175
X4.225Y-8.375
X4.2261Y-5.1739
X4.2313Y-5.2707
X4.2449Y-7.7947
X4.2489Y-4.8989
X4.2492Y-4.5742
X4.25Y-2.675
X4.25Y-2.825
X4.25Y-3.4
X4.25Y-3.725
X4.25Y-4.05
X4.25Y-4.25
X4.25Y-4.875
X4.25Y-4.925
X4.25Y-4.975
X4.25Y-5.175
X4.25Y-7.875
X4.251Y-7.8333
X4.2511Y-4.5307
X4.2511Y-4.8489
X4.2512Y-5.4042
X4.2538Y-4.9483
X4.2558Y-5.3233
X4.2593Y-5.2222
X4.2693Y-4.1191
X4.275Y-3.475
X4.275Y-4.05
X4.275Y-6.65
X4.275Y-6.8
X4.275Y-7.15
X4.275Y-8.475
X4.275Y-8.675
X4.2779Y-8.7407
X4.2864Y-3.8557
X4.2877Y-5.6877
X4.2912Y-5.3892
X4.3Y-3.35
X4.3Y-4.425
X4.3Y-4.7
X4.3Y-5.025
X4.3Y-6.325
X4.3Y-7.925
X4.3209Y-6.4749
X4.325Y-3.9
X4.325Y-5.6
X4.325Y-6.6
X4.325Y-6.825
X4.325Y-7.4
X4.3358Y-6.525
X4.3358Y-6.1412
X4.3489Y-5.7761
X4.35Y-3.8
X4.35Y-3.9
X4.35Y-3.925
X4.35Y-5.75
X4.35Y-5.8
X4.35Y-5.825
X4.35Y-5.85
X4.35Y-5.875
X4.35Y-5.9
X4.35Y-5.925
X4.35Y-5.95
X4.35Y-7.7
X4.35Y-7.775
X4.35Y-8.075
X4.35Y-8.175
X4.35Y-8.225
X4.35Y-8.275
X4.3508Y-5.25
X4.3511Y-5.411
X4.3539Y-8.3157
X4.36Y-6.725
X4.3657Y-4.7961
X4.3711Y-7.7157
X4.3715Y-4.9745
X4.3715Y-5.1245
X4.3717Y-6.0452
X4.3739Y-7.7989
X4.3739Y-8.3761
X4.375Y-2.8
X4.375Y-3.825
X4.375Y-4.025
X4.375Y-4.325
X4.375Y-7.5
X4.375Y-8.025
X4.375Y-8.175
X4.3837Y-5.3801
X4.3907Y-5.1907
X4.3943Y-7.0614
X4.3954Y-3.4978
X4.3977Y-3.5227
X4.3989Y-2.6989
X4.3989Y-3.5489
X4.3989Y-6.0739
X4.3997Y-4.4843
X4.4Y-2.275
X4.4Y-2.4
X4.4Y-3.575
X4.4Y-3.6
X4.4Y-3.625
X4.4Y-3.725
X4.4Y-4.375
X4.4Y-4.6093
X4.4Y-5.3973
X4.4Y-7.65
X4.4Y-7.875
X4.4Y-8.65
X4.4006Y-7.8267
X4.4011Y-3.7012
X4.4011Y-8.3489
X4.4038Y-4.5075
X4.415Y-8.035
X4.4237Y-5.4808
X4.425Y-2.7
X4.425Y-2.7273
X4.425Y-4.0
X4.425Y-4.0407
X4.425Y-4.95
X4.425Y-5.625
X4.425Y-6.875
X4.425Y-7.15
X4.425Y-8.125
X4.425Y-8.175
X4.4251Y-8.6709
X4.4258Y-4.5161
X4.4261Y-3.7761
X4.44Y-4.8987
X4.4476Y-6.811
X4.45Y-2.65
X4.45Y-3.775
X4.45Y-3.95
X4.45Y-4.0407
X4.45Y-4.425
X4.45Y-4.475
X4.45Y-4.925
X4.45Y-4.95
X4.45Y-4.975
X4.45Y-5.175
X4.45Y-5.1986
X4.45Y-5.2222
X4.45Y-6.65
X4.45Y-7.85
X4.4507Y-5.3057
X4.4553Y-5.4791
X4.4593Y-3.6
X4.4636Y-5.5054
X4.4657Y-7.95
X4.4709Y-3.791
X4.4738Y-3.9238
X4.4742Y-5.725
X4.475Y-2.8
X4.475Y-3.15
X4.475Y-3.625
X4.475Y-5.125
X4.475Y-7.025
X4.475Y-7.35
X4.475Y-8.45
X4.475Y-8.5512
X4.4874Y-3.8626
X4.4954Y-8.2219
X4.499Y-7.6734
X4.5Y-8.425
X4.5Y-3.275
X4.5Y-3.75
X4.5Y-4.25
X4.5Y-4.525
X4.5Y-4.725
X4.5Y-5.5
X4.5Y-5.6
X4.5Y-6.05
X4.5Y-6.625
X4.5Y-6.7
X4.5Y-7.35
X4.5Y-7.525
X4.5Y-8.175
X4.5Y-8.275
X4.5093Y-6.9
X4.5237Y-8.2491
X4.525Y-2.625
X4.525Y-3.825
X4.525Y-6.2
X4.525Y-6.65
X4.525Y-6.85
X4.525Y-7.525
X4.525Y-7.6
X4.525Y-7.7238
X4.525Y-7.9512
X4.5287Y-3.7228
X4.5338Y-8.7108
X4.55Y-2.5
X4.55Y-2.55
X4.55Y-2.575
X4.55Y-2.6
X4.55Y-2.95
X4.55Y-3.75
X4.55Y-3.875
X4.55Y-3.925
X4.55Y-4.1
X4.55Y-4.15
X4.55Y-4.7
X4.55Y-6.55
X4.55Y-6.675
X4.55Y-8.4988
X4.5657Y-6.4343
X4.575Y-2.325
X4.575Y-3.025
X4.575Y-4.45
X4.575Y-4.975
X4.575Y-5.775
X4.575Y-6.05
X4.575Y-6.575
X4.575Y-6.775
X4.575Y-7.15
X4.575Y-8.075
X4.575Y-8.4512
X4.575Y-8.425
X4.5864Y-6.5057
X4.5867Y-5.1594
X4.589Y-7.9119
X4.5943Y-4.3886
X4.5958Y-5.2059
X4.6Y-2.775
X4.6Y-3.225
X4.6Y-4.925
X4.6Y-6.125
X4.6Y-6.7
X4.6Y-8.325
X4.6Y-8.375
X4.6239Y-5.1989
X4.625Y-3.15
X4.625Y-4.95
X4.625Y-5.775
X4.625Y-5.85
X4.625Y-6.15
X4.625Y-6.325
X4.625Y-6.425
X4.625Y-6.45
X4.625Y-6.5
X4.625Y-6.55
X4.625Y-6.575
X4.625Y-6.625
X4.625Y-6.65
X4.625Y-6.675
X4.625Y-7.8
X4.625Y-8.25
X4.625Y-8.375
X4.625Y-8.55
X4.6343Y-8.1093
X4.65Y-4.075
X4.65Y-4.5593
X4.65Y-4.825
X4.65Y-6.7907
X4.65Y-7.15
X4.65Y-7.25
X4.65Y-7.55
X4.65Y-7.575
X4.65Y-7.625
X4.65Y-7.65
X4.65Y-7.675
X4.65Y-7.7
X4.65Y-7.7238
X4.6511Y-5.5511
X4.6657Y-8.275
X4.6739Y-2.6239
X4.675Y-4.675
X4.675Y-2.425
X4.675Y-2.65
X4.675Y-2.675
X4.675Y-3.6
X4.675Y-3.9
X4.675Y-4.325
X4.675Y-4.975
X4.675Y-5.175
X4.675Y-5.575
X4.675Y-5.75
X4.675Y-6.0
X4.675Y-6.175
X4.675Y-7.2
X4.675Y-7.225
X4.6795Y-7.975
X4.6843Y-4.7963
X4.6843Y-4.8481
X4.6843Y-4.8989
X4.6843Y-4.925
X4.6843Y-5.2232
X4.7Y-3.1
X4.7Y-3.175
X4.7Y-3.925
X4.7Y-4.0
X4.7Y-5.775
X4.7Y-6.3
X4.7Y-7.1
X4.7Y-7.175
X4.7Y-8.375
X4.7Y-8.55
X4.7011Y-2.6511
X4.7032Y-7.975
X4.7123Y-7.9385
X4.7136Y-2.4443
X4.7193Y-8.3057
X4.7216Y-3.5534
X4.7227Y-3.5273
X4.725Y-3.475
X4.725Y-3.5023
X4.725Y-3.7965
X4.725Y-3.825
X4.725Y-4.25
X4.725Y-5.025
X4.725Y-5.6
X4.725Y-6.05
X4.725Y-6.15
X4.725Y-7.7
X4.725Y-8.175
X4.7258Y-4.7005
X4.7258Y-3.8774
X4.7301Y-7.1492
X4.7361Y-3.6022
X4.7423Y-3.7378
X4.7438Y-2.4593
X4.7465Y-3.9035
X4.7489Y-4.6557
X4.75Y-6.625
X4.75Y-6.7
X4.75Y-7.125
X4.75Y-7.725
X4.75Y-7.75
X4.75Y-8.375
X4.7626Y-8.0624
X4.7748Y-3.725
X4.775Y-2.35
X4.775Y-2.5443
X4.775Y-2.5679
X4.775Y-2.65
X4.775Y-2.675
X4.775Y-3.1
X4.775Y-4.425
X4.775Y-5.125
X4.775Y-5.725
X4.775Y-6.35
X4.775Y-7.5
X4.775Y-8.45
X4.775Y-2.4742
X4.7807Y-5.2082
X4.7807Y-5.3011
X4.7877Y-5.6877
X4.789Y-7.9119
X4.8Y-4.8
X4.8Y-4.925
X4.8Y-6.675
X4.8Y-7.15
X4.8009Y-5.4807
X4.8019Y-7.9759
X4.8019Y-8.2759
X4.8157Y-6.4407
X4.8167Y-5.389
X4.825Y-5.3
X4.825Y-6.225
X4.825Y-6.525
X4.825Y-6.625
X4.825Y-7.4
X4.8251Y-4.6407
X4.8407Y-8.1093
X4.8454Y-3.6264
X4.8488Y-2.3326
X4.8498Y-3.475
X4.8498Y-3.875
X4.8498Y-3.95
X4.85Y-2.4769
X4.85Y-3.1
X4.85Y-4.425
X4.85Y-4.9
X4.85Y-6.35
X4.85Y-6.55
X4.85Y-6.575
X4.85Y-6.6
X4.85Y-6.675
X4.85Y-6.7
X4.85Y-7.8
X4.8511Y-5.1261
X4.8529Y-8.7407
X4.8543Y-3.6045
X4.8557Y-7.7228
X4.8614Y-2.2943
X4.868Y-5.2119
X4.875Y-5.35
X4.875Y-5.45
X4.875Y-7.15
X4.875Y-7.55
X4.875Y-7.75
X4.875Y-7.9512
X4.875Y-8.4
X4.8761Y-7.5261
X4.884Y-3.6135
X4.8906Y-3.7083
X4.8934Y-8.4196
X4.8989Y-2.5239
X4.8999Y-4.6314
X4.9Y-2.475
X4.9Y-3.175
X4.9Y-5.475
X4.9Y-6.775
X4.9Y-7.275
X4.9Y-7.875
X4.9004Y-5.6593
X4.9006Y-3.7298
X4.9011Y-2.2489
X4.9043Y-5.7116
X4.9057Y-5.2268
X4.9074Y-2.6176
X4.9093Y-6.1711
X4.9122Y-2.5791
X4.9163Y-3.6762
X4.9224Y-7.2997
X4.9242Y-4.5631
X4.925Y-3.1
X4.925Y-4.425
X4.925Y-4.475
X4.925Y-5.05
X4.925Y-6.325
X4.925Y-7.8
X4.925Y-7.9512
X4.925Y-7.975
X4.925Y-8.225
X4.925Y-8.4762
X4.9252Y-5.7263
X4.9407Y-7.15
X4.9433Y-8.375
X4.9443Y-5.1057
X4.9443Y-5.2413
X4.95Y-2.35
X4.95Y-2.625
X4.95Y-2.7
X4.95Y-6.475
X4.95Y-8.075
X4.9642Y-6.3165
X4.9738Y-8.4238
X4.975Y-2.65
X4.975Y-4.6
X4.975Y-5.225
X4.975Y-6.7
X4.975Y-7.075
X4.975Y-7.275
X4.975Y-7.45
X4.9843Y-2.4758
X4.989Y-7.9118
X4.9965Y-2.55
X4.9989Y-6.1761
X5.0Y-3.1
X5.0Y-4.425
X5.0Y-5.2
X5.0Y-6.4
X5.0003Y-6.298
X5.0029Y-8.7407
X5.0105Y-5.3564
X5.0157Y-2.4758
X5.0193Y-6.5333
X5.0193Y-6.7864
X5.0213Y-5.3213
X5.025Y-2.675
X5.025Y-2.725
X5.025Y-3.35
X5.025Y-6.4
X5.025Y-7.15
X5.025Y-7.4
X5.025Y-7.675
X5.025Y-7.8
X5.025Y-8.4738
X5.0343Y-8.1093
X5.0343Y-6.6
X5.0374Y-7.6126
X5.0461Y-3.7022
X5.0472Y-2.6972
X5.05Y-4.575
X5.05Y-5.225
X5.05Y-6.675
X5.05Y-8.375
X5.0576Y-6.7738
X5.0702Y-5.7798
X5.0748Y-3.65
X5.0748Y-3.95
X5.075Y-2.725
X5.075Y-3.15
X5.075Y-3.425
X5.075Y-4.425
X5.075Y-5.3
X5.075Y-5.625
X5.075Y-6.3238
X5.075Y-6.575
X5.075Y-7.525
X5.1Y-2.3
X5.1Y-2.475
X5.1Y-2.5
X5.1Y-2.55
X5.1Y-2.625
X5.1Y-2.65
X5.1Y-2.675
X5.1Y-5.25
X5.1Y-5.475
X5.1Y-6.2
X5.1Y-6.875
X5.1Y-7.15
X5.1Y-7.675
X5.1Y-8.7
X5.1029Y-8.7407
X5.1157Y-5.7272
X5.1219Y-4.5531
X5.1239Y-5.2239
X5.1239Y-5.5011
X5.1244Y-7.675
X5.1248Y-8.45
X5.1248Y-3.9
X5.1248Y-3.95
X5.125Y-2.2843
X5.125Y-2.775
X5.125Y-6.15
X5.125Y-6.3
X5.125Y-7.35
X5.125Y-8.2
X5.125Y-8.6
X5.1479Y-6.4012
X5.1499Y-5.6177
X5.15Y-2.4
X5.15Y-3.15
X5.15Y-4.425
X5.15Y-5.2
X5.15Y-5.7
X5.15Y-6.025
X5.15Y-6.8
X5.15Y-8.625
X5.1511Y-5.2511
X5.1572Y-2.7701
X5.1704Y-2.3142
X5.1739Y-5.7261
X5.1742Y-5.6177
X5.175Y-2.2093
X5.175Y-4.475
X5.175Y-5.275
X5.175Y-6.875
X5.175Y-7.15
X5.1761Y-6.4739
X5.1998Y-3.475
X5.2Y-2.8
X5.2Y-5.225
X5.2Y-6.175
X5.2Y-6.7
X5.2Y-8.15
X5.2Y-8.475
X5.2053Y-4.5803
X5.2059Y-4.5275
X5.2239Y-7.0489
X5.225Y-3.1
X5.225Y-4.425
X5.225Y-6.75
X5.225Y-7.15
X5.2261Y-2.7989
X5.2372Y-3.8624
X5.2477Y-8.6
X5.2482Y-5.3989
X5.2498Y-3.75
X5.25Y-2.725
X5.25Y-4.6
X5.25Y-4.725
X5.25Y-4.85
X5.25Y-5.525
X5.25Y-6.325
X5.25Y-6.475
X5.25Y-6.525
X5.25Y-6.6
X5.25Y-6.85
X5.25Y-8.65
X5.2529Y-8.7407
X5.2599Y-2.4309
X5.2642Y-7.8838
X5.2739Y-6.5739
X5.2742Y-8.375
X5.275Y-2.8
X5.275Y-4.4907
X5.275Y-5.55
X5.275Y-5.65
X5.275Y-6.175
X5.275Y-6.275
X5.275Y-7.325
X5.275Y-7.5
X5.275Y-8.025
X5.2761Y-5.7511
X5.2886Y-4.0364
X5.2892Y-8.0661
X5.2892Y-8.3988
X5.2949Y-2.4309
X5.2991Y-3.9967
X5.2992Y-6.975
X5.3Y-3.1
X5.3Y-3.775
X5.3Y-4.425
X5.3Y-7.375
X5.3Y-8.4738
X5.3011Y-2.6511
X5.3052Y-4.0195
X5.315Y-5.61
X5.3191Y-7.8236
X5.324Y-2.4159
X5.3248Y-3.7
X5.3248Y-3.85
X5.325Y-2.675
X5.325Y-2.7
X5.325Y-3.5
X5.325Y-7.975
X5.325Y-8.15
X5.325Y-8.225
X5.325Y-8.325
X5.325Y-8.575
X5.3261Y-2.6261
X5.3343Y-3.95
X5.3443Y-7.6039
X5.3443Y-7.8924
X5.35Y-8.2
X5.35Y-8.55
X5.3505Y-2.4159
X5.3538Y-2.3462
X5.375Y-2.75
X5.375Y-3.1
X5.375Y-3.525
X5.375Y-3.775
X5.375Y-4.0657
X5.375Y-4.125
X5.375Y-4.85
X5.375Y-5.375
X5.375Y-5.575
X5.375Y-5.625
X5.375Y-6.1
X5.375Y-6.275
X5.375Y-7.45
X5.375Y-7.475
X5.375Y-7.9488
X5.375Y-8.3
X5.375Y-8.35
X5.375Y-8.7407
X5.3761Y-7.5511
X5.3761Y-8.2489
X5.3761Y-8.3261
X5.3829Y-7.6028
X5.3829Y-7.9
X5.387Y-6.2546
X5.3876Y-7.825
X5.4Y-3.175
X5.4Y-4.05
X5.4Y-5.025
X5.4Y-5.45
X5.4Y-6.65
X5.4Y-6.75
X5.4Y-8.4738
X5.4093Y-6.475
X5.4248Y-3.475
X5.425Y-2.15
X5.425Y-4.05
X5.425Y-5.075
X5.425Y-5.8
X5.425Y-6.225
X5.425Y-6.45
X5.425Y-7.65
X5.425Y-8.025
X5.425Y-8.425
X5.4372Y-3.8624
X5.4491Y-2.5261
X5.45Y-2.25
X5.45Y-2.4242
X5.45Y-2.65
X5.45Y-2.8
X5.45Y-3.1
X5.45Y-3.35
X5.45Y-4.425
X5.45Y-5.2307
X5.45Y-6.35
X5.45Y-7.3
X5.4539Y-2.7157
X5.454Y-8.1307
X5.4639Y-2.5077
X5.4739Y-3.7761
X5.4739Y-3.8739
X5.4748Y-3.9
X5.475Y-2.7
X5.475Y-5.45
X5.475Y-6.15
X5.475Y-6.625
X5.475Y-7.05
X5.475Y-8.4738
X5.475Y-8.7407
X5.4787Y-2.7728
X5.4807Y-8.2261
X5.4816Y-2.2047
X5.4864Y-4.8886
X5.4874Y-6.5213
X5.4886Y-5.6478
X5.5Y-2.35
X5.5Y-2.675
X5.5Y-2.8
X5.5Y-4.0
X5.5Y-5.625
X5.5Y-5.975
X5.5Y-6.0
X5.5Y-6.025
X5.5Y-7.5
X5.5Y-7.825
X5.5Y-7.85
X5.5Y-7.975
X5.5Y-8.3
X5.5Y-8.375
X5.5102Y-3.8921
X5.5124Y-6.4368
X5.5228Y-5.6022
X5.5248Y-4.025
X5.525Y-2.625
X5.525Y-2.775
X5.525Y-3.1
X5.525Y-4.25
X5.525Y-5.05
X5.525Y-5.75
X5.525Y-5.825
X5.525Y-6.1
X5.525Y-6.325
X5.525Y-7.925
X5.525Y-8.25
X5.5261Y-2.7489
X5.5359Y-3.7429
X5.5381Y-6.475
X5.5498Y-3.5
X5.5498Y-3.525
X5.5498Y-3.55
X5.5498Y-3.575
X5.5498Y-3.6
X5.5498Y-3.625
X5.55Y-6.525
X5.55Y-8.35
X5.55Y-8.45
X5.5509Y-3.7236
X5.5593Y-8.2283
X5.5739Y-5.2489
X5.575Y-5.375
X5.575Y-6.55
X5.575Y-7.2
X5.575Y-7.525
X5.575Y-7.875
X5.575Y-8.375
X5.575Y-8.7407
X5.5751Y-8.2821
X5.5755Y-6.5258
X5.5877Y-5.7123
X5.5883Y-6.3133
X5.5899Y-8.2443
X5.5951Y-5.3034
X5.5998Y-3.95
X5.6Y-2.425
X5.6Y-2.8
X5.6Y-3.15
X5.6Y-3.5
X5.6Y-4.05
X5.6Y-4.425
X5.6Y-6.65
X5.6Y-7.375
X5.6Y-7.95
X5.6Y-8.3
X5.6011Y-7.5761
X5.6039Y-7.5311
X5.6114Y-8.3521
X5.6173Y-5.725
X5.6193Y-7.9193
X5.6232Y-3.9255
X5.6236Y-7.4014
X5.6236Y-7.7764
X5.6239Y-6.2989
X5.625Y-2.15
X5.625Y-3.775
X5.625Y-5.45
X5.625Y-6.225
X5.625Y-6.95
X5.625Y-8.052
X5.625Y-8.575
X5.625Y-8.65
X5.6262Y-5.7016
X5.6372Y-3.8626
X5.65Y-2.55
X5.65Y-3.4
X5.65Y-3.55
X5.65Y-5.0
X5.65Y-5.8
X5.65Y-6.175
X5.65Y-6.275
X5.65Y-6.35
X5.65Y-8.575
X5.6626Y-3.725
X5.6627Y-5.8928
X5.6628Y-8.052
X5.6635Y-5.5388
X5.665Y-2.215
X5.6693Y-6.1901
X5.675Y-3.375
X5.675Y-3.5
X5.675Y-4.9
X5.675Y-6.275
X5.675Y-6.525
X5.6894Y-3.6251
X5.6896Y-6.4354
X5.7Y-2.525
X5.7Y-3.225
X5.7Y-4.925
X5.7Y-5.8
X5.7Y-7.325
X5.7Y-7.7
X5.7Y-8.075
X5.7Y-8.4512
X5.715Y-2.39
X5.7228Y-6.0287
X5.7239Y-7.9011
X5.7239Y-8.3739
X5.725Y-3.275
X5.725Y-5.275
X5.725Y-6.175
X5.725Y-7.475
X5.725Y-7.975
X5.725Y-8.1843
X5.7407Y-6.95
X5.741Y-6.4807
X5.7477Y-8.0
X5.75Y-3.6
X5.75Y-4.95
X5.75Y-5.95
X5.75Y-6.0
X5.75Y-6.725
X5.7511Y-7.2739
X5.7512Y-7.8739
X5.7657Y-3.925
X5.7657Y-4.4709
X5.7739Y-7.5238
X5.775Y-3.575
X5.775Y-5.1
X5.775Y-5.175
X5.775Y-5.825
X5.775Y-6.125
X5.775Y-6.55
X5.775Y-7.075
X5.775Y-7.675
X5.775Y-8.125
X5.775Y-8.45
X5.7789Y-7.5843
X5.7807Y-6.5
X5.7974Y-6.2943
X5.7977Y-4.975
X5.8Y-2.95
X5.8Y-3.5
X5.8Y-3.7
X5.8Y-7.375
X5.8Y-7.45
X5.8Y-7.825
X5.8Y-8.3278
X5.8Y-8.3514
X5.8Y-8.7407
X5.8004Y-7.8746
X5.8014Y-8.2443
X5.8039Y-8.1843
X5.8167Y-6.2557
X5.825Y-5.1959
X5.825Y-2.5
X5.825Y-2.575
X5.825Y-2.6
X5.825Y-2.675
X5.825Y-3.225
X5.825Y-3.475
X5.825Y-3.675
X5.825Y-3.8012
X5.825Y-3.825
X5.825Y-3.95
X5.825Y-4.125
X5.825Y-4.825
X5.825Y-5.8
X5.825Y-6.225
X5.825Y-7.675
X5.825Y-5.1722
X5.8428Y-5.8928
X5.8429Y-3.9045
X5.8443Y-3.7577
X5.8458Y-3.8723
X5.8478Y-6.3585
X5.85Y-7.225
X5.85Y-7.65
X5.85Y-8.025
X5.85Y-8.125
X5.85Y-8.425
X5.8636Y-5.2062
X5.868Y-2.7512
X5.875Y-3.125
X5.875Y-4.0
X5.875Y-4.4
X5.875Y-5.125
X5.8807Y-6.0661
X5.8874Y-6.4347
X5.8965Y-5.95
X5.8989Y-6.0239
X5.8992Y-5.9755
X5.9Y-2.775
X5.9Y-5.6
X5.9Y-5.625
X5.9Y-5.65
X5.9Y-5.6951
X5.9Y-6.0
X5.9Y-6.1927
X5.9Y-6.8
X5.9Y-7.05
X5.9Y-7.55
X5.904Y-6.3358
X5.9209Y-3.6249
X5.9228Y-6.0287
X5.9245Y-6.4527
X5.9249Y-7.8557
X5.9249Y-7.8793
X5.925Y-6.325
X5.925Y-7.95
X5.925Y-7.975
X5.925Y-8.0
X5.925Y-8.35
X5.9264Y-7.5843
X5.9307Y-7.2057
X5.931Y-6.0807
X5.9352Y-3.8322
X5.9388Y-6.4123
X5.9402Y-3.9328
X5.9407Y-7.45
X5.9407Y-7.7539
X5.9457Y-7.554
X5.95Y-2.525
X5.95Y-2.55
X5.95Y-2.575
X5.95Y-3.075
X5.95Y-3.325
X5.95Y-4.05
X5.95Y-4.125
X5.95Y-4.35
X5.95Y-5.95
X5.95Y-6.0
X5.95Y-7.375
X5.95Y-7.6238
X5.95Y-7.825
X5.95Y-8.7407
X5.9675Y-6.3402
X5.9693Y-3.85
X5.9737Y-3.8172
X5.975Y-3.975
X5.975Y-4.4
X5.975Y-5.825
X5.975Y-6.6
X5.975Y-6.65
X5.975Y-7.95
X5.975Y-8.3
X5.975Y-8.4738
X5.9852Y-6.2557
X5.9899Y-4.7057
X5.9921Y-6.5329
X5.9957Y-3.5
X5.9993Y-6.2978
X5.9995Y-6.1033
X6.0Y-3.175
X6.0Y-3.225
X6.0Y-4.45
X6.0Y-5.625
X6.0Y-5.7
X6.0Y-6.625
X6.0Y-7.375
X6.0Y-7.475
X6.0Y-7.5157
X6.0Y-8.0
X6.0Y-8.15
X6.0024Y-6.0258
X6.0058Y-6.4708
X6.0059Y-6.0018
X6.0114Y-6.55
X6.0193Y-6.084
X6.0221Y-8.2671
X6.023Y-6.298
X6.0239Y-4.0262
X6.0239Y-8.1843
X6.0249Y-8.3057
X6.025Y-2.6
X6.025Y-2.65
X6.025Y-3.075
X6.025Y-3.3
X6.025Y-4.35
X6.025Y-5.45
X6.025Y-5.8
X6.025Y-8.375
X6.025Y-8.425
X6.0269Y-3.9193
X6.0293Y-7.575
X6.0293Y-7.825
X6.04Y-3.535
X6.0443Y-2.7364
X6.0463Y-7.0228
X6.0474Y-3.65
X6.0486Y-7.4014
X6.0486Y-7.7764
X6.05Y-3.9
X6.05Y-4.4
X6.05Y-4.875
X6.05Y-4.925
X6.05Y-4.95
X6.05Y-4.975
X6.05Y-5.0
X6.05Y-5.025
X6.05Y-5.05
X6.05Y-6.2
X6.05Y-6.35
X6.05Y-6.7
X6.05Y-7.925
X6.0511Y-4.9011
X6.0511Y-6.3261
X6.0627Y-5.5373
X6.0653Y-5.8903
X6.0693Y-3.5739
X6.0709Y-3.5975
X6.075Y-3.225
X6.075Y-4.025
X6.075Y-6.525
X6.075Y-6.6
X6.075Y-6.95
X6.075Y-7.05
X6.075Y-8.0488
X6.075Y-8.4738
X6.0896Y-6.4354
X6.1Y-2.35
X6.1Y-2.7738
X6.1Y-3.075
X6.1Y-3.35
X6.1Y-4.35
X6.1Y-6.975
X6.106Y-5.7443
X6.1127Y-3.7623
X6.1153Y-3.4403
X6.1162Y-4.7057
X6.1215Y-5.975
X6.125Y-4.0
X6.125Y-5.7593
X6.125Y-6.025
X6.125Y-6.2977
X6.125Y-7.3343
X6.125Y-7.7
X6.125Y-8.075
X6.125Y-8.55
X6.1357Y-7.538
X6.1396Y-7.9593
X6.1407Y-7.8961
X6.1417Y-8.2495
X6.1443Y-6.1917
X6.1465Y-8.0035
X6.1489Y-8.5739
X6.15Y-2.15
X6.15Y-5.175
X6.15Y-6.6
X6.15Y-8.3988
X6.15Y-8.4738
X6.1524Y-7.9791
X6.1613Y-2.5864
X6.1614Y-7.2614
X6.1698Y-7.4427
X6.1725Y-3.846
X6.1739Y-3.5261
X6.1739Y-6.3261
X6.1739Y-8.1307
X6.175Y-2.7
X6.175Y-3.075
X6.175Y-3.55
X6.175Y-3.775
X6.175Y-3.8709
X6.175Y-4.35
X6.175Y-4.825
X6.175Y-4.975
X6.175Y-6.975
X6.175Y-8.8
X6.1763Y-5.9279
X6.178Y-2.5697
X6.1803Y-8.2392
X6.1807Y-7.4636
X6.1907Y-4.85
X6.1963Y-3.6728
X6.1989Y-6.1511
X6.2Y-2.475
X6.2Y-3.4
X6.2Y-4.75
X6.2Y-5.075
X6.2Y-5.65
X6.2Y-5.675
X6.2Y-6.075
X6.2Y-6.6093
X6.2Y-6.9907
X6.2Y-7.9
X6.2Y-7.925
X6.2Y-8.575
X6.2011Y-2.6011
X6.2093Y-6.225
X6.2136Y-7.1693
X6.2179Y-4.5679
X6.2193Y-7.8148
X6.2208Y-3.9539
X6.2239Y-3.4739
X6.2239Y-3.8511
X6.225Y-3.7
X6.225Y-5.175
X6.225Y-7.925
X6.225Y-7.95
X6.225Y-8.275
X6.225Y-8.3
X6.225Y-8.325
X6.225Y-8.35
X6.225Y-8.375
X6.225Y-8.3988
X6.2251Y-2.4541
X6.2255Y-8.2491
X6.2273Y-7.8785
X6.2299Y-5.9231
X6.2299Y-8.0049
X6.2326Y-8.2211
X6.2343Y-7.9789
X6.2343Y-7.55
X6.2443Y-4.8102
X6.25Y-2.85
X6.25Y-3.075
X6.25Y-3.475
X6.25Y-3.7
X6.25Y-3.8
X6.25Y-4.35
X6.25Y-5.45
X6.25Y-5.8
X6.25Y-6.075
X6.25Y-6.35
X6.25Y-6.625
X6.25Y-6.975
X6.25Y-8.5
X6.2588Y-2.4392
X6.275Y-2.625
X6.275Y-2.7738
X6.275Y-3.675
X6.275Y-3.7
X6.275Y-4.0593
X6.275Y-5.075
X6.275Y-5.975
X6.275Y-6.25
X6.275Y-6.525
X6.275Y-7.65
X6.275Y-8.025
X6.2789Y-3.6157
X6.28Y-2.4259
X6.2836Y-8.6193
X6.2877Y-8.4738
X6.2896Y-5.8854
X6.2896Y-6.1604
X6.2896Y-6.4354
X6.2968Y-2.4093
X6.2989Y-3.8261
X6.2992Y-3.8532
X6.3Y-2.45
X6.3Y-2.5
X6.3Y-3.35
X6.3Y-3.8
X6.3Y-5.125
X6.3Y-5.525
X6.3Y-5.675
X6.3Y-6.325
X6.3Y-8.075
X6.3239Y-7.5011
X6.3239Y-7.5489
X6.3248Y-7.9
X6.325Y-2.75
X6.325Y-3.125
X6.325Y-4.0012
X6.325Y-4.4
X6.325Y-6.175
X6.325Y-6.625
X6.325Y-6.7
X6.325Y-6.975
X6.325Y-7.45
X6.325Y-7.525
X6.325Y-8.1157
X6.3257Y-2.3107
X6.3272Y-2.4213
X6.3354Y-8.5854
X6.3359Y-6.3339
X6.3471Y-2.4086
X6.3489Y-4.4489
X6.35Y-2.775
X6.35Y-5.925
X6.35Y-6.525
X6.35Y-8.475
X6.3557Y-6.7592
X6.3626Y-3.4374
X6.3633Y-7.8952
X6.373Y-7.498
X6.3748Y-7.5753
X6.375Y-3.5
X6.375Y-4.0
X6.375Y-4.325
X6.375Y-5.675
X6.375Y-5.9
X6.375Y-6.625
X6.375Y-7.95
X6.375Y-8.125
X6.375Y-8.5
X6.3786Y-2.2437
X6.3788Y-6.18
X6.3789Y-6.3093
X6.3816Y-2.75
X6.3923Y-4.4693
X6.3975Y-5.9248
X6.4Y-2.225
X6.4Y-2.4008
X6.4Y-2.85
X6.4Y-3.125
X6.4Y-4.4
X6.4Y-5.575
X6.4Y-5.675
X6.4Y-5.975
X6.4Y-6.2
X6.4Y-6.3285
X6.4Y-6.975
X6.4Y-7.7
X6.4Y-8.0
X6.4Y-8.2
X6.4Y-8.7
X6.4014Y-7.5255
X6.4019Y-7.9019
X6.4034Y-7.2142
X6.4037Y-3.9162
X6.4048Y-2.7545
X6.4083Y-3.9776
X6.4093Y-6.525
X6.4171Y-3.7921
X6.425Y-2.525
X6.425Y-2.55
X6.425Y-2.675
X6.425Y-6.05
X6.425Y-6.35
X6.425Y-7.075
X6.425Y-7.525
X6.425Y-8.7407
X6.4272Y-4.4522
X6.4287Y-3.947
X6.4334Y-3.9085
X6.4343Y-7.675
X6.445Y-3.6657
X6.4453Y-7.5601
X6.45Y-5.45
X6.45Y-5.8
X6.45Y-6.075
X6.45Y-7.5
X6.45Y-7.8358
X6.45Y-7.95
X6.45Y-7.975
X6.45Y-8.1
X6.45Y-8.425
X6.45Y-8.65
X6.4608Y-4.441
X6.4669Y-7.4081
X6.4694Y-3.962
X6.4727Y-5.0523
X6.4736Y-7.7764
X6.4739Y-5.0261
X6.4745Y-3.4995
X6.475Y-2.575
X6.475Y-3.075
X6.475Y-4.35
X6.475Y-4.875
X6.475Y-4.9
X6.475Y-4.925
X6.475Y-4.95
X6.475Y-4.975
X6.475Y-5.0
X6.475Y-8.65
X6.4769Y-6.2509
X6.4774Y-4.8364
X6.479Y-6.2943
X6.4799Y-4.4224
X6.4841Y-4.0593
X6.4843Y-8.0343
X6.4896Y-5.8854
X6.5Y-3.575
X6.5Y-5.525
X6.5Y-5.675
X6.5Y-5.7593
X6.5027Y-3.9
X6.5124Y-6.1626
X6.5124Y-6.4374
X6.5136Y-4.4136
X6.5224Y-3.5497
X6.525Y-2.55
X6.525Y-8.475
X6.525Y-3.7858
X6.5262Y-3.7262
X6.5354Y-8.5854
X6.5379Y-7.7061
X6.55Y-2.35
X6.55Y-2.75
X6.55Y-2.85
X6.55Y-3.075
X6.55Y-3.4
X6.55Y-4.3407
X6.55Y-5.65
X6.55Y-6.025
X6.55Y-6.25
X6.55Y-6.325
X6.55Y-6.6
X6.55Y-6.975
X6.55Y-7.3343
X6.55Y-8.075
X6.5508Y-7.5193
X6.5508Y-7.5943
X6.5508Y-7.6179
X6.5557Y-8.0044
X6.5557Y-8.2364
X6.5602Y-8.2602
X6.5606Y-8.1948
X6.5608Y-7.8358
X6.5608Y-7.944
X6.5614Y-8.2864
X6.5739Y-6.4761
X6.575Y-7.0727
X6.575Y-7.525
X6.575Y-8.05
X6.575Y-8.325
X6.575Y-8.35
X6.575Y-8.374
X6.575Y-8.3976
X6.575Y-8.5
X6.5886Y-7.9636
X6.5955Y-6.8758
X6.5972Y-3.3778
X6.5972Y-3.6778
X6.5987Y-5.6807
X6.6Y-2.15
X6.6Y-4.825
X6.6Y-5.15
X6.6Y-5.925
X6.6Y-5.95
X6.6Y-6.375
X6.6Y-8.7407
X6.6011Y-4.0261
X6.6046Y-7.2546
X6.6085Y-7.1572
X6.6232Y-7.2271
X6.6242Y-7.4821
X6.625Y-2.75
X6.625Y-3.075
X6.625Y-3.175
X6.625Y-3.525
X6.625Y-4.025
X6.625Y-4.125
X6.625Y-4.35
X6.625Y-4.55
X6.625Y-4.75
X6.625Y-4.975
X6.625Y-5.45
X6.625Y-7.625
X6.6327Y-3.915
X6.6403Y-3.873
X6.6407Y-3.7709
X6.6444Y-7.2615
X6.6474Y-7.6762
X6.6485Y-8.0018
X6.6491Y-2.7136
X6.65Y-2.6
X6.65Y-2.625
X6.65Y-2.65
X6.65Y-2.675
X6.65Y-4.0
X6.65Y-4.95
X6.65Y-5.8
X6.65Y-6.075
X6.65Y-6.35
X6.65Y-7.0
X6.65Y-7.15
X6.6531Y-4.7045
X6.6557Y-3.4057
X6.6593Y-7.5739
X6.66Y-3.86
X6.6628Y-7.4756
X6.6705Y-7.6708
X6.675Y-2.5
X6.675Y-2.625
X6.675Y-2.7738
X6.675Y-3.225
X6.675Y-3.525
X6.675Y-6.325
X6.675Y-8.15
X6.675Y-8.45
X6.6886Y-7.6943
X6.7Y-2.475
X6.7Y-2.675
X6.7Y-2.7738
X6.7Y-3.075
X6.7Y-4.35
X6.7Y-5.525
X6.7Y-5.675
X6.7Y-5.95
X6.7Y-6.625
X6.7Y-6.975
X6.7Y-7.65
X6.7Y-8.0272
X6.7005Y-3.4742
X6.7082Y-3.9374
X6.7093Y-3.825
X6.7124Y-5.8874
X6.7124Y-6.1624
X6.7124Y-6.4374
X6.725Y-3.65
X6.725Y-4.975
X6.725Y-7.025
X6.725Y-7.15
X6.725Y-8.075
X6.7326Y-6.3544
X6.7352Y-5.7898
X6.7409Y-7.9504
X6.7459Y-7.9273
X6.7463Y-7.6948
X6.7499Y-4.3764
X6.75Y-2.3
X6.75Y-3.475
X6.75Y-4.0012
X6.75Y-4.324
X6.75Y-4.4
X6.75Y-4.552
X6.75Y-5.475
X6.75Y-6.05
X6.75Y-8.05
X6.75Y-8.55
X6.7501Y-4.4236
X6.7509Y-5.6004
X6.7526Y-5.85
X6.7566Y-7.8234
X6.7591Y-7.7996
X6.7657Y-7.5
X6.7693Y-3.5443
X6.7697Y-3.7978
X6.7742Y-7.5745
X6.775Y-2.275
X6.775Y-2.85
X6.775Y-3.075
X6.775Y-3.275
X6.775Y-3.875
X6.775Y-4.125
X6.775Y-4.35
X6.775Y-4.725
X6.775Y-5.125
X6.775Y-7.45
X6.7774Y-3.8364
X6.781Y-7.8368
X6.7817Y-3.7567
X6.7859Y-8.35
X6.7907Y-7.9773
X6.8Y-2.25
X6.8Y-2.775
X6.8Y-4.4
X6.8Y-4.425
X6.8Y-7.2
X6.8Y-7.7
X6.8136Y-8.6307
X6.8141Y-7.8816
X6.8157Y-7.5289
X6.825Y-2.225
X6.825Y-6.6
X6.825Y-6.675
X6.825Y-6.775
X6.825Y-7.175
X6.825Y-7.475
X6.825Y-7.8
X6.8264Y-7.6766
X6.8289Y-7.6093
X6.8307Y-7.4989
X6.8489Y-5.6761
X6.8489Y-7.9239
X6.8489Y-8.0511
X6.85Y-2.775
X6.85Y-3.125
X6.85Y-4.4
X6.85Y-4.7488
X6.85Y-5.125
X6.85Y-6.075
X6.85Y-6.5
X6.85Y-6.65
X6.85Y-6.85
X6.85Y-7.2
X6.85Y-7.275
X6.8517Y-4.0311
X6.875Y-5.175
X6.875Y-6.2
X6.875Y-6.875
X6.875Y-7.375
X6.875Y-7.55
X6.875Y-7.925
X6.875Y-8.175
X6.8755Y-7.2242
X6.8761Y-7.9511
X6.8832Y-7.8864
X6.8834Y-3.8643
X6.8843Y-7.8
X6.8854Y-7.8629
X6.8864Y-3.5571
X6.8871Y-7.6093
X6.8907Y-3.9224
X6.8976Y-3.794
X6.8984Y-6.2516
X6.8986Y-7.4014
X6.8992Y-7.7764
X6.9Y-2.525
X6.9Y-2.55
X6.9Y-2.675
X6.9Y-3.4736
X6.9Y-3.975
X6.9Y-4.1
X6.9Y-4.2
X6.9Y-4.375
X6.9Y-4.45
X6.9Y-5.2
X6.9Y-6.225
X6.9Y-6.7
X6.9Y-6.9
X6.9Y-7.225
X6.9Y-3.6443
X6.9008Y-3.5758
X6.9123Y-5.8127
X6.9157Y-3.8407
X6.9164Y-3.4543
X6.9249Y-6.9291
X6.925Y-2.95
X6.925Y-3.275
X6.925Y-3.7
X6.925Y-4.1343
X6.925Y-6.825
X6.925Y-7.25
X6.925Y-8.125
X6.925Y-8.7
X6.95Y-3.175
X6.95Y-3.8
X6.95Y-4.425
X6.95Y-4.725
X6.95Y-4.7488
X6.95Y-5.0
X6.95Y-6.1943
X6.95Y-6.25
X6.95Y-6.325
X6.95Y-6.625
X6.95Y-6.95
X6.95Y-7.3
X6.9657Y-3.9259
X6.9706Y-4.0124
X6.9739Y-5.6011
X6.9739Y-6.0511
X6.9739Y-6.7511
X6.975Y-2.275
X6.975Y-2.725
X6.975Y-3.2
X6.975Y-5.625
X6.975Y-5.65
X6.975Y-6.35
X6.975Y-6.7
X6.975Y-7.125
X6.975Y-7.325
X6.975Y-7.7
X6.975Y-8.075
X6.9807Y-7.9114
X6.9864Y-7.5943
X6.9981Y-3.4972
X6.9989Y-7.4489
X6.9989Y-7.5011
X6.9989Y-7.9761
X7.0Y-2.25
X7.0Y-3.125
X7.0Y-4.125
X7.0Y-4.4
X7.0Y-5.125
X7.0Y-6.075
X7.0Y-7.1
X7.0Y-7.525
X7.0Y-7.55
X7.0Y-7.625
X7.0Y-7.925
X7.0Y-7.95
X7.0Y-8.0
X7.0011Y-6.7239
X7.0039Y-3.5657
X7.0093Y-3.6461
X7.0126Y-3.8851
X7.0165Y-3.5892
X7.0193Y-3.725
X7.0199Y-3.8077
X7.0218Y-3.9304
X7.025Y-2.35
X7.025Y-2.75
X7.025Y-6.1
X7.025Y-7.075
X7.025Y-7.175
X7.025Y-7.375
X7.025Y-8.375
X7.0273Y-7.475
X7.0273Y-7.5964
X7.0322Y-7.0364
X7.05Y-2.275
X7.05Y-2.3
X7.05Y-2.35
X7.05Y-3.35
X7.05Y-5.2943
X7.05Y-5.575
X7.05Y-5.975
X7.05Y-6.1
X7.05Y-6.325
X7.05Y-6.7
X7.05Y-7.15
X7.05Y-7.275
X7.05Y-7.375
X7.05Y-8.175
X7.0541Y-4.5492
X7.0557Y-3.2443
X7.0593Y-7.875
X7.0624Y-3.4374
X7.065Y-5.465
X7.0739Y-6.8239
X7.075Y-4.075
X7.075Y-4.25
X7.075Y-4.825
X7.075Y-5.75
X7.075Y-3.225
X7.0761Y-5.9989
X7.084Y-5.7057
X7.0879Y-4.5562
X7.0989Y-3.1989
X7.1Y-4.85
X7.1Y-5.2093
X7.1Y-5.45
X7.1Y-8.2
X7.1039Y-6.7907
X7.1057Y-3.555
X7.1081Y-3.8721
X7.1103Y-2.4943
X7.1103Y-2.6927
X7.114Y-3.775
X7.1162Y-2.4108
X7.1201Y-7.9457
X7.1211Y-4.0711
X7.1215Y-4.875
X7.1231Y-2.6725
X7.1239Y-2.6011
X7.1239Y-2.6261
X7.1248Y-7.3482
X7.1249Y-5.3392
X7.125Y-2.575
X7.125Y-3.175
X7.125Y-5.15
X7.125Y-5.8
X7.125Y-6.7
X7.125Y-7.2512
X7.125Y-7.275
X7.125Y-7.3
X7.125Y-7.425
X7.1257Y-3.9809
X7.1258Y-7.5
X7.1258Y-7.725
X7.1261Y-7.3999
X7.1261Y-3.2261
X7.1285Y-7.375
X7.1307Y-3.9136
X7.1377Y-5.5377
X7.1377Y-5.8928
X7.1392Y-7.6757
X7.1407Y-4.8157
X7.1451Y-7.5758
X7.1467Y-3.8776
X7.1467Y-7.6435
X7.1486Y-4.7242
X7.1486Y-4.9843
X7.15Y-2.425
X7.15Y-2.55
X7.15Y-3.125
X7.15Y-3.275
X7.15Y-4.125
X7.15Y-4.4
X7.15Y-6.175
X7.15Y-7.525
X7.15Y-7.875
X7.15Y-7.925
X7.15Y-8.45
X7.1511Y-2.3011
X7.1654Y-3.4902
X7.1679Y-2.7047
X7.1718Y-3.5129
X7.175Y-2.15
X7.175Y-2.425
X7.175Y-2.775
X7.175Y-3.8012
X7.175Y-4.025
X7.175Y-5.125
X7.175Y-5.8
X7.175Y-6.675
X7.175Y-7.8
X7.1761Y-2.5739
X7.1805Y-3.6495
X7.185Y-3.84
X7.1907Y-7.7657
X7.1978Y-5.9213
X7.1989Y-8.1739
X7.2Y-2.3238
X7.2Y-4.3
X7.2Y-5.95
X7.2Y-6.7
X7.2Y-7.95
X7.2Y-8.225
X7.2009Y-6.0226
X7.2012Y-6.1512
X7.2114Y-2.6517
X7.2116Y-2.6944
X7.2116Y-3.5907
X7.2193Y-3.8693
X7.2195Y-2.4967
X7.221Y-5.7017
X7.2211Y-3.3343
X7.224Y-6.0459
X7.2248Y-6.3093
X7.225Y-2.775
X7.225Y-3.025
X7.225Y-4.35
X7.225Y-4.825
X7.225Y-5.2
X7.225Y-5.95
X7.225Y-6.675
X7.225Y-7.175
X7.225Y-7.95
X7.225Y-7.975
X7.2272Y-3.9537
X7.229Y-3.2687
X7.2296Y-6.0689
X7.2307Y-3.0961
X7.2307Y-2.675
X7.2353Y-7.5989
X7.25Y-2.275
X7.25Y-2.3
X7.25Y-2.35
X7.25Y-2.4157
X7.25Y-2.875
X7.25Y-5.0
X7.25Y-5.2943
X7.25Y-5.525
X7.25Y-6.55
X7.25Y-7.875
X7.25Y-2.724
X7.2515Y-3.8735
X7.2556Y-3.9407
X7.2569Y-3.35
X7.2593Y-3.8052
X7.2593Y-8.1702
X7.2593Y-8.1961
X7.2604Y-7.6297
X7.2606Y-7.2512
X7.2606Y-7.3997
X7.2678Y-5.8928
X7.2682Y-3.8902
X7.2693Y-2.675
X7.2696Y-7.5628
X7.275Y-2.425
X7.275Y-6.7
X7.2756Y-7.3753
X7.2797Y-7.6593
X7.2836Y-3.5412
X7.2885Y-7.8561
X7.2907Y-7.603
X7.3Y-3.125
X7.3Y-4.4
X7.3Y-4.825
X7.3Y-5.8
X7.3Y-6.225
X7.3Y-7.175
X7.3Y-7.6836
X7.3Y-7.9157
X7.3098Y-7.832
X7.3124Y-3.4374
X7.3128Y-7.6151
X7.325Y-4.05
X7.325Y-5.225
X7.325Y-6.55
X7.325Y-7.275
X7.325Y-7.7
X7.3253Y-7.9057
X7.3348Y-6.3093
X7.3364Y-8.1864
X7.3465Y-3.5907
X7.35Y-2.825
X7.35Y-2.9
X7.35Y-3.175
X7.35Y-3.3
X7.35Y-6.7
X7.35Y-7.1
X7.35Y-7.125
X7.35Y-7.725
X7.3504Y-8.1484
X7.3511Y-8.2261
X7.3531Y-5.4719
X7.3612Y-3.7942
X7.3627Y-7.5642
X7.3673Y-3.6443
X7.3693Y-7.2512
X7.3693Y-7.3221
X7.3693Y-7.351
X7.3693Y-7.3746
X7.3693Y-7.8222
X7.37Y-8.455
X7.3709Y-5.9767
X7.3734Y-6.1246
X7.3742Y-6.0005
X7.3749Y-2.5492
X7.375Y-2.15
X7.375Y-2.3
X7.375Y-2.525
X7.375Y-2.625
X7.375Y-2.7988
X7.375Y-3.025
X7.375Y-3.95
X7.375Y-4.7
X7.375Y-4.95
X7.375Y-5.6
X7.375Y-5.625
X7.375Y-5.65
X7.375Y-6.025
X7.375Y-6.05
X7.375Y-6.075
X7.375Y-6.825
X7.375Y-7.175
X7.375Y-8.7028
X7.3761Y-2.5989
X7.3761Y-6.0989
X7.3773Y-2.5727
X7.3807Y-3.8299
X7.3863Y-3.6738
X7.3868Y-6.2118
X7.3942Y-2.8579
X7.396Y-5.2305
X7.4Y-3.05
X7.4Y-3.175
X7.4Y-3.6
X7.4Y-4.2
X7.4Y-6.675
X7.4Y-7.075
X7.4Y-7.975
X7.4Y-8.175
X7.4006Y-3.9
X7.4035Y-7.8861
X7.4051Y-6.2943
X7.4114Y-6.1386
X7.4147Y-2.6071
X7.4192Y-3.4637
X7.425Y-5.775
X7.425Y-7.075
X7.425Y-7.5
X7.425Y-8.35
X7.4259Y-5.9114
X7.4307Y-2.5443
X7.4343Y-6.7
X7.4343Y-6.9989
X7.4455Y-2.3
X7.4478Y-6.1214
X7.4489Y-6.1488
X7.45Y-2.35
X7.45Y-3.125
X7.45Y-3.175
X7.45Y-5.975
X7.45Y-8.7
X7.4501Y-6.0979
X7.4511Y-5.9489
X7.4608Y-7.5358
X7.469Y-2.7744
X7.4693Y-2.6114
X7.4722Y-7.6239
X7.4739Y-5.9739
X7.4743Y-7.6504
X7.475Y-3.9
X7.475Y-3.925
X7.475Y-3.95
X7.475Y-4.45
X7.475Y-4.55
X7.475Y-5.95
X7.475Y-6.0
X7.475Y-6.05
X7.475Y-6.075
X7.475Y-6.2012
X7.475Y-6.675
X7.475Y-6.875
X7.475Y-7.2512
X7.475Y-7.275
X7.475Y-7.7
X7.475Y-7.725
X7.4751Y-3.8751
X7.476Y-7.6739
X7.4807Y-2.7539
X7.4811Y-3.4416
X7.4843Y-2.65
X7.4989Y-5.4511
X7.4999Y-5.2459
X7.5Y-2.925
X7.5Y-3.3
X7.5Y-3.475
X7.5Y-3.6
X7.5Y-4.15
X7.5Y-4.725
X7.5Y-5.8
X7.5Y-6.375
X7.5Y-7.125
X7.5Y-7.375
X7.5Y-8.2
X7.5005Y-4.6008
X7.5205Y-2.863
X7.5239Y-2.7739
X7.525Y-2.3
X7.525Y-2.725
X7.525Y-3.175
X7.525Y-3.325
X7.525Y-3.6
X7.525Y-3.675
X7.525Y-4.075
X7.525Y-4.5093
X7.525Y-6.6
X7.525Y-6.95
X7.525Y-7.35
X7.525Y-8.7
X7.5325Y-8.2285
X7.5366Y-5.5307
X7.5403Y-5.8903
X7.5451Y-5.3951
X7.5479Y-8.4429
X7.55Y-2.4
X7.55Y-3.15
X7.55Y-3.475
X7.55Y-4.225
X7.55Y-4.875
X7.55Y-5.0343
X7.55Y-7.15
X7.55Y-7.325
X7.5501Y-4.0024
X7.5512Y-7.5262
X7.5557Y-8.2239
X7.575Y-5.075
X7.575Y-6.325
X7.575Y-6.7
X7.575Y-7.425
X7.5791Y-3.8939
X7.5814Y-2.6914
X7.5838Y-5.9938
X7.5892Y-3.828
X7.5907Y-3.7608
X7.5907Y-2.4961
X7.5907Y-2.5711
X7.5907Y-2.5961
X7.5907Y-2.6211
X7.5907Y-2.6461
X7.5907Y-2.6697
X7.5907Y-5.7039
X7.5965Y-6.1012
X7.5968Y-6.0776
X7.5983Y-6.0348
X7.5988Y-6.1248
X7.5988Y-6.1488
X7.5989Y-5.3511
X7.5989Y-5.7489
X7.6Y-2.15
X7.6Y-2.75
X7.6Y-3.025
X7.6Y-3.175
X7.6Y-3.575
X7.6Y-3.625
X7.6Y-4.4557
X7.6Y-6.275
X7.6Y-6.3
X7.6Y-7.3
X7.6Y-7.45
X7.6055Y-7.7695
X7.6057Y-5.9248
X7.6157Y-6.25
X7.619Y-8.269
X7.6219Y-7.9132
X7.6249Y-2.7251
X7.625Y-2.175
X7.625Y-2.2
X7.625Y-2.75
X7.625Y-3.475
X7.625Y-6.45
X7.625Y-6.55
X7.625Y-7.0
X7.625Y-7.0843
X7.625Y-7.225
X7.625Y-7.375
X7.625Y-8.175
X7.6261Y-2.7011
X7.6261Y-5.3057
X7.6273Y-5.9477
X7.6276Y-7.6177
X7.6307Y-6.0114
X7.6358Y-7.7016
X7.6372Y-7.6757
X7.6439Y-7.5864
X7.6489Y-6.3511
X7.649Y-2.774
X7.6492Y-7.6495
X7.6493Y-7.9987
X7.65Y-2.6943
X7.65Y-4.8
X7.65Y-4.925
X7.65Y-5.3
X7.65Y-5.7
X7.65Y-5.75
X7.65Y-6.1
X7.65Y-7.5
X7.65Y-7.55
X7.65Y-7.725
X7.65Y-8.075
X7.652Y-7.9601
X7.6644Y-6.8856
X7.6702Y-6.1866
X7.6724Y-5.278
X7.6736Y-5.926
X7.6739Y-4.3261
X7.674Y-3.8238
X7.675Y-2.45
X7.675Y-2.625
X7.675Y-4.075
X7.675Y-4.25
X7.675Y-5.65
X7.675Y-5.675
X7.675Y-6.0807
X7.675Y-6.225
X7.675Y-7.875
X7.675Y-8.25
X7.6761Y-6.0011
X7.6761Y-6.3011
X7.6772Y-5.3193
X7.6886Y-7.6278
X7.6943Y-3.9114
X7.6962Y-2.8025
X7.7Y-2.275
X7.7Y-2.95
X7.7Y-3.35
X7.7Y-3.375
X7.7Y-3.45
X7.7Y-3.575
X7.7Y-3.6
X7.7Y-4.025
X7.7Y-4.175
X7.7Y-4.275
X7.7Y-4.775
X7.7Y-7.575
X7.7Y-7.675
X7.7005Y-5.2291
X7.7035Y-7.6505
X7.7052Y-3.9323
X7.7093Y-3.9763
X7.7136Y-3.8964
X7.7147Y-7.8787
X7.7183Y-2.7941
X7.7193Y-3.2687
X7.7204Y-4.2557
X7.725Y-2.15
X7.725Y-2.575
X7.725Y-2.975
X7.725Y-5.025
X7.725Y-5.05
X7.725Y-5.45
X7.725Y-5.8
X7.725Y-6.075
X7.725Y-6.425
X7.725Y-6.7
X7.725Y-6.95
X7.725Y-7.225
X7.725Y-7.55
X7.725Y-7.6
X7.725Y-7.675
X7.725Y-7.7952
X7.7259Y-4.9988
X7.7279Y-4.0643
X7.7343Y-3.75
X7.7375Y-4.9557
X7.7379Y-4.9268
X7.75Y-2.65
X7.75Y-4.45
X7.75Y-7.625
X7.75Y-7.7
X7.75Y-8.1
X7.7511Y-2.8739
X7.7519Y-5.7009
X7.7523Y-8.0309
X7.7535Y-3.6989
X7.7585Y-5.3642
X7.7631Y-4.1193
X7.7646Y-5.8854
X7.7646Y-6.1604
X7.7716Y-5.8122
X7.775Y-3.325
X7.775Y-4.075
X7.775Y-5.125
X7.775Y-5.425
X7.775Y-5.525
X7.775Y-6.525
X7.775Y-6.55
X7.775Y-7.5262
X7.775Y-8.7
X7.775Y-8.775
X7.7761Y-7.8739
X7.7863Y-6.3557
X7.7924Y-5.2807
X7.7966Y-7.8609
X7.8Y-2.35
X7.8Y-6.275
X7.8Y-7.5
X7.8Y-8.275
X7.8051Y-3.2421
X7.8051Y-6.9199
X7.8192Y-4.1343
X7.8209Y-3.85
X7.8213Y-2.6557
X7.8226Y-3.5468
X7.8232Y-7.8577
X7.8234Y-3.3323
X7.8237Y-3.5747
X7.8237Y-3.6489
X7.825Y-3.0764
X7.825Y-3.4999
X7.825Y-2.95
X7.825Y-3.1
X7.825Y-3.125
X7.825Y-3.15
X7.825Y-3.175
X7.825Y-3.199
X7.825Y-3.2226
X7.825Y-3.275
X7.825Y-5.975
X7.825Y-6.05
X7.825Y-6.35
X7.825Y-7.0
X7.825Y-7.1
X7.825Y-7.125
X7.8255Y-3.5982
X7.8258Y-7.8343
X7.8261Y-3.4489
X7.8262Y-3.5234
X7.8262Y-3.4738
X7.8273Y-3.4227
X7.8277Y-3.0518
X7.828Y-5.2508
X7.8356Y-4.2383
X7.8423Y-4.2804
X7.843Y-3.5588
X7.8489Y-4.8489
X7.8494Y-7.9343
X7.85Y-3.525
X7.85Y-3.95
X7.85Y-4.975
X7.85Y-5.35
X7.85Y-5.775
X7.85Y-6.325
X7.85Y-6.475
X7.85Y-7.5
X7.85Y-8.15
X7.8534Y-5.3905
X7.8548Y-5.9284
X7.8614Y-3.8961
X7.8636Y-4.3193
X7.8656Y-4.2035
X7.8683Y-7.8453
X7.8724Y-6.4
X7.8727Y-2.6
X7.875Y-2.1762
X7.875Y-2.2
X7.875Y-2.225
X7.875Y-2.25
X7.875Y-2.275
X7.875Y-2.3943
X7.875Y-2.425
X7.875Y-2.45
X7.875Y-2.525
X7.875Y-2.55
X7.875Y-2.575
X7.875Y-3.075
X7.875Y-3.175
X7.875Y-3.6907
X7.875Y-4.375
X7.875Y-5.4
X7.875Y-5.625
X7.875Y-5.675
X7.875Y-5.7
X7.875Y-6.8543
X7.875Y-7.65
X7.875Y-7.675
X7.875Y-7.7
X7.875Y-8.125
X7.875Y-8.2907
X7.875Y-5.1087
X7.8789Y-7.5593
X7.8807Y-3.46
X7.8843Y-5.8985
X7.8907Y-7.9193
X7.9Y-3.1988
X7.9Y-3.225
X7.9Y-3.375
X7.9Y-3.9
X7.9Y-3.925
X7.9Y-6.35
X7.9Y-7.8
X7.9041Y-4.2163
X7.9178Y-3.0864
X7.9219Y-2.8781
X7.9221Y-3.2464
X7.9239Y-4.3989
X7.9239Y-7.9511
X7.9241Y-4.3051
X7.925Y-2.3
X7.925Y-2.675
X7.925Y-3.125
X7.925Y-3.475
X7.925Y-3.5
X7.925Y-3.6
X7.925Y-3.625
X7.925Y-3.875
X7.925Y-4.775
X7.925Y-4.95
X7.925Y-5.45
X7.925Y-5.8
X7.925Y-6.075
X7.925Y-6.95
X7.925Y-7.225
X7.925Y-7.375
X7.925Y-8.425
X7.925Y-4.3523
X7.925Y-4.3287
X7.9254Y-3.4293
X7.9281Y-4.2055
X7.9381Y-3.2638
X7.9406Y-8.2844
X7.9424Y-4.2674
X7.95Y-2.25
X7.95Y-2.375
X7.95Y-3.725
X7.95Y-4.075
X7.95Y-4.9
X7.95Y-4.925
X7.95Y-4.95
X7.95Y-4.975
X7.95Y-5.0
X7.95Y-5.025
X7.95Y-5.05
X7.95Y-5.0744
X7.95Y-6.525
X7.95Y-6.625
X7.9508Y-2.7255
X7.9547Y-6.475
X7.9598Y-8.2652
X7.9646Y-5.8854
X7.9657Y-7.1011
X7.968Y-3.3907
X7.9695Y-7.8557
X7.9739Y-2.9261
X7.975Y-3.025
X7.975Y-4.175
X7.975Y-5.525
X7.9768Y-8.3029
X7.9807Y-7.0739
X7.9874Y-6.1624
X7.99Y-7.54
X7.9909Y-5.7738
X7.995Y-5.2657
X8.0Y-2.6407
X8.0Y-2.925
X8.0Y-3.7343
X8.0Y-6.2262
X8.0Y-6.6
X8.0Y-7.425
X8.0Y-7.8
X8.0Y-8.1
X8.0012Y-2.3762
X8.0055Y-4.1945
X8.0102Y-4.8193
X8.0157Y-5.3975
X8.0171Y-8.2421
X8.025Y-2.275
X8.025Y-5.975
X8.025Y-6.35
X8.025Y-7.0
X8.025Y-7.2
X8.0261Y-3.3193
X8.0305Y-7.7723
X8.0361Y-3.0512
X8.0413Y-3.414
X8.0445Y-4.5996
X8.0481Y-3.1962
X8.0489Y-7.7261
X8.0495Y-7.5758
X8.05Y-3.525
X8.05Y-3.55
X8.05Y-3.575
X8.05Y-3.6
X8.05Y-3.6238
X8.05Y-3.6475
X8.05Y-3.8
X8.05Y-4.075
X8.05Y-4.5157
X8.05Y-5.2455
X8.05Y-5.344
X8.05Y-5.425
X8.05Y-5.675
X8.05Y-5.9
X8.05Y-5.975
X8.05Y-6.3
X8.05Y-6.325
X8.05Y-6.7457
X8.05Y-7.65
X8.05Y-8.025
X8.05Y-8.35
X8.05Y-2.725
X8.0502Y-3.1726
X8.0508Y-4.1958
X8.0509Y-3.3754
X8.0511Y-6.2739
X8.0511Y-7.4989
X8.0512Y-2.9843
X8.0557Y-7.9114
X8.0634Y-4.2381
X8.0657Y-3.4843
X8.0657Y-4.725
X8.068Y-4.6019
X8.0691Y-4.85
X8.0719Y-4.3557
X8.075Y-3.775
X8.075Y-3.925
X8.075Y-5.625
X8.075Y-5.975
X8.075Y-6.25
X8.075Y-7.525
X8.075Y-8.175
X8.075Y-8.8
X8.0761Y-3.8989
X8.0761Y-4.5157
X8.0774Y-3.2227
X8.0907Y-3.5
X8.0915Y-4.5981
X8.0949Y-6.9199
X8.0982Y-4.5755
X8.0989Y-5.9511
X8.0992Y-6.1249
X8.1Y-3.85
X8.1Y-5.475
X8.1Y-5.75
X8.1Y-6.3
X8.1Y-6.775
X8.1Y-7.5
X8.1009Y-3.6667
X8.1011Y-7.8011
X8.1011Y-7.9739
X8.1019Y-7.4009
X8.1023Y-3.1999
X8.1039Y-2.6407
X8.1039Y-5.3343
X8.1043Y-4.1193
X8.1093Y-4.2761
X8.1144Y-3.2907
X8.1216Y-8.1012
X8.1229Y-8.1248
X8.1235Y-2.8291
X8.1239Y-6.0011
X8.1239Y-8.1489
X8.125Y-3.5273
X8.125Y-2.9051
X8.125Y-2.9287
X8.125Y-2.9523
X8.125Y-2.9759
X8.125Y-3.0242
X8.125Y-3.375
X8.125Y-3.4
X8.125Y-3.727
X8.125Y-3.925
X8.125Y-5.975
X8.125Y-6.025
X8.125Y-6.05
X8.125Y-6.75
X8.125Y-6.95
X8.125Y-7.1
X8.125Y-7.225
X8.125Y-7.375
X8.125Y-7.65
X8.125Y-7.95
X8.125Y-7.975
X8.125Y-8.0
X8.125Y-8.025
X8.125Y-8.0488
X8.1252Y-2.8527
X8.1261Y-6.7261
X8.1289Y-6.2789
X8.1299Y-8.1951
X8.1328Y-4.2744
X8.1343Y-5.575
X8.1374Y-3.6846
X8.1482Y-6.2518
X8.15Y-3.225
X8.15Y-3.4
X8.15Y-3.475
X8.15Y-3.75
X8.15Y-7.825
X8.15Y-8.3384
X8.1511Y-4.5739
X8.1641Y-4.4907
X8.1715Y-3.4614
X8.1739Y-7.6489
X8.1743Y-4.4493
X8.175Y-2.15
X8.175Y-2.625
X8.175Y-3.075
X8.175Y-3.375
X8.175Y-3.7
X8.175Y-3.9241
X8.175Y-5.125
X8.175Y-6.2
X8.175Y-6.5
X8.175Y-7.5262
X8.175Y-7.675
X8.175Y-7.7
X8.175Y-7.725
X8.175Y-8.3533
X8.1773Y-3.4205
X8.1789Y-2.6943
X8.187Y-3.442
X8.1873Y-5.8123
X8.1897Y-4.1343
X8.1921Y-4.6102
X8.1949Y-3.9662
X8.1955Y-4.4907
X8.1961Y-3.2886
X8.1963Y-3.9908
X8.1978Y-3.8579
X8.1988Y-3.224
X8.1988Y-4.0143
X8.199Y-3.3957
X8.1994Y-3.7521
X8.1994Y-3.1986
X8.2Y-3.25
X8.2Y-3.3571
X8.2Y-3.8
X8.2Y-3.9
X8.2Y-7.1
X8.2Y-7.5
X8.2Y-3.175
X8.2004Y-3.7757
X8.2007Y-5.2508
X8.2012Y-3.9434
X8.2022Y-3.7287
X8.2046Y-5.3975
X8.2108Y-6.2437
X8.2193Y-7.1693
X8.2201Y-6.9049
X8.2227Y-4.1343
X8.2237Y-5.7019
X8.225Y-7.0
X8.225Y-7.275
X8.225Y-7.375
X8.2258Y-4.8233
X8.2258Y-6.2997
X8.2289Y-8.3343
X8.2315Y-5.2257
X8.2337Y-5.2508
X8.2343Y-6.1343
X8.2358Y-5.9486
X8.2364Y-5.6636
X8.2386Y-7.1057
X8.2437Y-7.8807
X8.2489Y-2.7239
X8.249Y-8.1973
X8.25Y-2.975
X8.25Y-4.1
X8.25Y-4.225
X8.25Y-4.3943
X8.25Y-6.5
X8.25Y-6.825
X8.25Y-7.5
X8.25Y-8.2209
X8.2511Y-5.3193
X8.2524Y-5.6965
X8.253Y-3.4895
X8.2557Y-6.3864
X8.2566Y-4.0554
X8.2614Y-5.673
X8.2657Y-5.75
X8.2722Y-2.525
X8.2727Y-4.2477
X8.2739Y-4.2739
X8.275Y-4.625
X8.275Y-4.65
X8.275Y-5.3321
X8.275Y-5.3557
X8.275Y-6.6
X8.275Y-8.375
X8.2751Y-4.6984
X8.2807Y-5.687
X8.2808Y-4.0784
X8.2915Y-2.4835
X8.2929Y-5.1866
X8.2943Y-7.8807
X8.2978Y-5.6185
X8.2989Y-5.5761
X8.2992Y-8.425
X8.3Y-3.5593
X8.3Y-3.725
X8.3Y-4.15
X8.3Y-4.275
X8.3Y-6.825
X8.3Y-7.8
X8.3Y-3.775
X8.3009Y-4.7807
X8.3011Y-8.1746
X8.3011Y-6.3239
X8.3014Y-3.2736
X8.3014Y-3.8236
X8.3057Y-4.0752
X8.3108Y-3.175
X8.3168Y-5.2016
X8.3193Y-3.9354
X8.3193Y-5.6443
X8.3214Y-3.5742
X8.3239Y-2.5989
X8.3249Y-6.697
X8.325Y-2.9
X8.325Y-2.975
X8.325Y-3.75
X8.325Y-4.375
X8.325Y-4.625
X8.325Y-6.95
X8.325Y-7.225
X8.325Y-7.925
X8.325Y-8.075
X8.325Y-8.325
X8.3287Y-5.7236
X8.3325Y-5.2209
X8.3343Y-6.3461
X8.3343Y-6.45
X8.3373Y-3.1889
X8.3377Y-8.1899
X8.3499Y-8.1509
X8.35Y-2.8738
X8.35Y-3.775
X8.35Y-3.95
X8.35Y-4.875
X8.35Y-4.9
X8.35Y-5.95
X8.35Y-6.05
X8.35Y-6.075
X8.35Y-6.0988
X8.35Y-6.4
X8.35Y-6.675
X8.35Y-7.95
X8.35Y-7.975
X8.35Y-8.0
X8.35Y-8.025
X8.35Y-8.05
X8.3511Y-4.9261
X8.3511Y-4.9511
X8.3511Y-4.9761
X8.3511Y-6.0261
X8.3512Y-8.075
X8.3514Y-4.2829
X8.3517Y-8.1273
X8.3532Y-5.7549
X8.3539Y-5.0025
X8.3544Y-5.0294
X8.3549Y-3.0049
X8.3553Y-8.1029
X8.3591Y-5.0547
X8.3638Y-5.0807
X8.3708Y-3.2016
X8.375Y-2.3
X8.375Y-2.7191
X8.375Y-3.075
X8.375Y-3.6
X8.375Y-3.8
X8.375Y-7.125
X8.375Y-7.425
X8.375Y-8.425
X8.3767Y-5.8049
X8.3848Y-4.1943
X8.3892Y-3.2412
X8.3999Y-3.6209
X8.4Y-3.825
X8.4Y-6.2
X8.4Y-6.275
X8.4Y-6.55
X8.4041Y-3.2749
X8.4098Y-6.778
X8.4123Y-7.7943
X8.4127Y-5.5377
X8.4157Y-7.2343
X8.425Y-3.4
X8.425Y-3.575
X8.425Y-3.9289
X8.425Y-4.025
X8.425Y-4.675
X8.425Y-5.775
X8.425Y-6.4
X8.425Y-6.6727
X8.425Y-7.0
X8.425Y-7.15
X8.425Y-7.35
X8.4251Y-5.2959
X8.4263Y-3.2886
X8.4268Y-3.1308
X8.4305Y-8.2055
X8.431Y-2.7191
X8.4316Y-7.375
X8.4468Y-7.9489
X8.45Y-3.425
X8.45Y-4.45
X8.45Y-4.725
X8.45Y-4.825
X8.45Y-6.2
X8.4502Y-3.3238
X8.4557Y-5.9674
X8.462Y-7.975
X8.4662Y-3.9693
X8.4662Y-5.7142
X8.4684Y-4.1266
X8.4713Y-3.0463
X8.472Y-6.753
X8.4737Y-4.3758
X8.4739Y-3.3239
X8.4749Y-5.7528
X8.475Y-2.275
X8.475Y-3.45
X8.475Y-4.325
X8.475Y-4.35
X8.475Y-4.875
X8.475Y-4.925
X8.475Y-5.2
X8.475Y-5.625
X8.475Y-7.525
X8.475Y-7.55
X8.475Y-7.575
X8.475Y-7.6
X8.475Y-7.625
X8.475Y-7.65
X8.475Y-7.675
X8.475Y-7.7
X8.475Y-7.725
X8.4763Y-4.2579
X8.477Y-7.9989
X8.4808Y-4.2811
X8.481Y-3.9877
X8.4867Y-5.4093
X8.4912Y-2.5431
X8.4919Y-8.0252
X8.4989Y-5.2761
X8.4999Y-2.5209
X8.5Y-3.0488
X8.5Y-3.225
X8.5Y-3.325
X8.5Y-3.475
X8.5Y-4.675
X8.5Y-4.85
X8.5Y-6.275
X8.5014Y-3.9996
X8.5017Y-4.7744
X8.5019Y-7.4009
X8.5019Y-7.1259
X8.5049Y-8.0702
X8.5079Y-2.9091
X8.5189Y-4.513
X8.5219Y-8.1004
X8.5239Y-2.2489
X8.5239Y-5.0739
X8.525Y-3.45
X8.525Y-3.5
X8.525Y-4.2579
X8.525Y-4.65
X8.525Y-4.675
X8.525Y-4.8
X8.525Y-5.15
X8.525Y-5.525
X8.525Y-5.9
X8.525Y-6.95
X8.525Y-7.225
X8.525Y-8.125
X8.5294Y-4.0508
X8.543Y-3.9136
X8.5455Y-6.0988
X8.5489Y-4.4239
X8.55Y-3.087
X8.55Y-2.5
X8.55Y-3.325
X8.55Y-3.35
X8.55Y-3.875
X8.55Y-5.425
X8.55Y-5.925
X8.55Y-6.2
X8.55Y-6.775
X8.55Y-8.15
X8.55Y-8.475
X8.5587Y-3.109
X8.5739Y-5.2261
X8.575Y-2.275
X8.575Y-3.275
X8.575Y-3.3
X8.575Y-3.35
X8.575Y-3.375
X8.575Y-3.65
X8.575Y-3.925
X8.575Y-3.95
X8.575Y-4.05
X8.575Y-7.9
X8.5756Y-3.1256
X8.5761Y-2.6657
X8.5767Y-2.9977
X8.5945Y-5.8055
X8.5978Y-3.9713
X8.5989Y-3.0239
X8.5989Y-7.4261
X8.6Y-3.1
X8.6Y-3.25
X8.6Y-3.725
X8.6Y-4.45
X8.6Y-4.925
X8.6Y-5.375
X8.6Y-7.95
X8.6Y-8.375
X8.6057Y-6.1646
X8.6057Y-7.2334
X8.6097Y-3.6565
X8.6193Y-5.1739
X8.62Y-6.07
X8.625Y-2.225
X8.625Y-2.55
X8.625Y-3.025
X8.625Y-3.1
X8.625Y-3.325
X8.625Y-3.425
X8.625Y-3.925
X8.625Y-3.95
X8.625Y-4.0
X8.625Y-4.125
X8.625Y-4.475
X8.625Y-4.5841
X8.625Y-5.975
X8.625Y-6.775
X8.625Y-7.0
X8.625Y-7.075
X8.625Y-7.175
X8.6261Y-7.3739
X8.6381Y-5.6843
X8.65Y-2.375
X8.65Y-2.875
X8.65Y-3.375
X8.65Y-3.45
X8.65Y-3.725
X8.65Y-4.025
X8.65Y-8.425
X8.6507Y-3.1343
X8.657Y-7.5
X8.6582Y-5.6693
X8.6636Y-5.7057
X8.6657Y-5.8039
X8.6726Y-3.3501
X8.673Y-5.9979
X8.6746Y-4.2794
X8.6746Y-8.2434
X8.675Y-2.225
X8.675Y-3.85
X8.675Y-4.4
X8.675Y-6.075
X8.675Y-6.3
X8.6819Y-8.0931
X8.6982Y-3.8017
X8.6989Y-3.8489
X8.6998Y-3.7771
X8.7Y-2.475
X8.7Y-2.55
X8.7Y-2.65
X8.7Y-3.175
X8.7Y-3.2
X8.7Y-3.275
X8.7Y-3.325
X8.7Y-3.35
X8.7Y-3.575
X8.7Y-4.75
X8.7Y-5.125
X8.7Y-5.175
X8.7Y-6.775
X8.7Y-7.125
X8.7Y-7.675
X8.7Y-7.8
X8.7Y-7.85
X8.7Y-8.375
X8.7Y-8.675
X8.7001Y-3.8253
X8.7002Y-3.4943
X8.7004Y-4.0777
X8.7005Y-5.9242
X8.7014Y-8.2625
X8.7029Y-4.1012
X8.7035Y-6.0241
X8.7057Y-2.95
X8.7249Y-8.2954
X8.725Y-2.2
X8.725Y-2.525
X8.725Y-2.925
X8.725Y-3.025
X8.725Y-5.15
X8.725Y-5.3
X8.725Y-5.7
X8.725Y-5.9
X8.725Y-6.125
X8.725Y-6.95
X8.725Y-7.225
X8.725Y-7.625
X8.725Y-7.775
X8.725Y-7.825
X8.725Y-8.4
X8.725Y-8.675
X8.7258Y-6.7058
X8.7261Y-8.3215
X8.75Y-2.6657
X8.75Y-3.7
X8.75Y-4.0693
X8.75Y-4.0929
X8.75Y-5.325
X8.75Y-5.75
X8.75Y-6.025
X8.75Y-6.225
X8.75Y-7.175
X8.75Y-7.65
X8.75Y-8.075
X8.75Y-8.225
X8.7511Y-6.1989
X8.7559Y-8.2
X8.7575Y-7.4899
X8.7657Y-6.775
X8.77Y-4.7335
X8.7701Y-8.125
X8.775Y-2.525
X8.775Y-4.503
X8.775Y-5.125
X8.775Y-5.9
X8.775Y-7.775
X8.775Y-8.0
X8.775Y-8.325
X8.7793Y-4.2736
X8.7794Y-6.6276
X8.786Y-4.2201
X8.7989Y-3.8761
X8.7989Y-2.6739
X8.7994Y-3.749
X8.7996Y-3.9393
X8.8Y-3.3762
X8.8Y-2.5907
X8.8Y-3.2557
X8.8Y-3.3
X8.8Y-3.35
X8.8Y-3.45
X8.8Y-3.5
X8.8Y-3.9
X8.8Y-4.025
X8.8Y-5.8012
X8.8Y-6.0
X8.8Y-7.625
X8.8Y-7.675
X8.8006Y-3.4244
X8.8011Y-6.6989
X8.8012Y-3.7255
X8.8015Y-3.3998
X8.802Y-3.1358
X8.8042Y-3.2325
X8.8057Y-6.1646
X8.8127Y-5.5373
X8.8169Y-3.9972
X8.8193Y-7.2364
X8.8212Y-4.0693
X8.8249Y-3.7997
X8.825Y-2.175
X8.825Y-2.65
X8.825Y-3.65
X8.825Y-3.925
X8.825Y-3.975
X8.825Y-5.05
X8.825Y-5.4
X8.825Y-5.975
X8.825Y-6.05
X8.8347Y-4.1903
X8.837Y-3.1059
X8.8437Y-3.8358
X8.8448Y-4.0693
X8.85Y-3.025
X8.85Y-3.275
X8.85Y-3.625
X8.85Y-4.5179
X8.85Y-5.8
X8.85Y-6.225
X8.85Y-6.35
X8.85Y-6.775
X8.85Y-8.775
X8.8511Y-3.6807
X8.86Y-5.2407
X8.8641Y-4.029
X8.8693Y-3.9307
X8.8697Y-8.2303
X8.8701Y-8.3407
X8.8742Y-6.0755
X8.875Y-3.3
X8.875Y-3.6
X8.875Y-3.825
X8.875Y-4.5329
X8.875Y-5.7
X8.875Y-7.675
X8.875Y-7.775
X8.875Y-7.9
X8.875Y-7.95
X8.875Y-8.05
X8.8813Y-4.242
X8.8832Y-3.9572
X8.8864Y-8.2136
X8.8927Y-4.2805
X8.8965Y-3.1907
X8.8978Y-3.8093
X8.8986Y-4.5329
X8.8989Y-5.7489
X8.8992Y-3.9746
X8.9Y-4.3263
X8.9Y-3.725
X8.9Y-4.35
X8.9Y-4.775
X8.9Y-5.325
X8.9Y-5.525
X8.9Y-6.125
X8.9Y-7.55
X8.9Y-7.85
X8.9Y-8.375
X8.9Y-8.525
X8.9007Y-4.3027
X8.9011Y-8.1239
X8.9114Y-4.2162
X8.9136Y-4.2693
X8.9156Y-3.2057
X8.9207Y-5.975
X8.9225Y-3.8456
X8.9228Y-3.5287
X8.9239Y-3.7489
X8.925Y-2.6
X8.925Y-2.725
X8.925Y-3.775
X8.925Y-4.3407
X8.925Y-4.6407
X8.925Y-6.05
X8.925Y-6.325
X8.925Y-6.775
X8.925Y-7.45
X8.925Y-7.65
X8.925Y-8.225
X8.925Y-8.7157
X8.9253Y-3.8221
X8.9288Y-3.1461
X8.9348Y-3.8657
X8.9371Y-4.4309
X8.9453Y-3.4261
X8.9487Y-4.2491
X8.95Y-2.525
X8.95Y-3.5
X8.95Y-3.575
X8.95Y-3.7
X8.95Y-4.0
X8.95Y-4.225
X8.95Y-4.3
X8.95Y-4.7
X8.95Y-5.025
X8.95Y-5.65
X8.95Y-5.675
X8.95Y-5.85
X8.95Y-6.2
X8.95Y-8.525
X8.9511Y-3.1693
X8.9511Y-4.7511
X8.9512Y-3.8487
X8.9648Y-5.9898
X8.9693Y-3.7886
X8.9695Y-3.4636
X8.9711Y-7.2157
X8.9737Y-4.0036
X8.975Y-2.85
X8.975Y-3.35
X8.975Y-3.425
X8.975Y-7.45
X8.975Y-7.725
X8.975Y-8.0
X8.975Y-8.625
X8.9761Y-3.1239
X8.993Y-3.75
X9.0Y-2.575
X9.0Y-5.8012
X9.0Y-6.35
X9.0Y-6.55
X9.0Y-7.75
X9.0Y-8.025
X9.0Y-8.05
X9.0011Y-7.7761
X9.0104Y-6.1646
X9.0203Y-6.25
X9.0239Y-3.4261
X9.025Y-2.875
X9.025Y-3.175
X9.025Y-3.775
X9.025Y-7.15
X9.025Y-7.275
X9.025Y-7.55
X9.025Y-7.85
X9.025Y-8.125
X9.0297Y-5.6741
X9.0342Y-4.0772
X9.0489Y-3.1693
X9.05Y-2.85
X9.05Y-4.25
X9.05Y-4.875
X9.05Y-5.525
X9.05Y-5.8
X9.05Y-7.775
X9.0624Y-4.1876
X9.0683Y-4.0227
X9.0715Y-3.6011
X9.0742Y-3.9737
X9.0742Y-3.6255
X9.075Y-3.65
X9.075Y-3.675
X9.075Y-3.925
X9.075Y-3.95
X9.075Y-4.4
X9.075Y-5.2
X9.075Y-6.075
X9.075Y-6.325
X9.075Y-6.775
X9.075Y-7.125
X9.075Y-7.4
X9.075Y-7.675
X9.075Y-7.95
X9.075Y-8.05
X9.075Y-8.225
X9.075Y-8.375
X9.0753Y-3.9975
X9.0761Y-5.9489
X9.0785Y-3.5715
X9.0859Y-3.3825
X9.0937Y-4.0953
X9.0975Y-3.9775
X9.1Y-3.25
X9.1Y-3.75
X9.1Y-4.9
X9.1Y-5.4
X9.1Y-7.85
X9.1Y-8.125
X9.1Y-8.25
X9.1Y-8.35
X9.1005Y-3.2759
X9.1008Y-3.1245
X9.1057Y-3.3695
X9.1057Y-4.0386
X9.1157Y-4.8657
X9.125Y-3.1
X9.125Y-3.8
X9.125Y-3.85
X9.125Y-4.3157
X9.125Y-4.825
X9.125Y-5.275
X9.125Y-8.3512
X9.125Y-8.4
X9.125Y-8.675
X9.125Y-8.7157
X9.1289Y-4.9593
X9.1336Y-4.6157
X9.1443Y-4.0142
X9.1486Y-4.7492
X9.1492Y-4.1252
X9.15Y-3.325
X9.15Y-4.45
X9.15Y-4.7
X9.15Y-5.525
X9.15Y-5.65
X9.15Y-5.95
X9.15Y-6.05
X9.15Y-6.125
X9.15Y-7.275
X9.15Y-7.55
X9.15Y-8.575
X9.15Y-3.725
X9.1511Y-3.1511
X9.1573Y-3.9177
X9.1593Y-3.3593
X9.1593Y-4.8657
X9.1593Y-5.0034
X9.1605Y-4.6331
X9.1636Y-4.0291
X9.1749Y-3.8984
X9.175Y-3.75
X9.175Y-4.125
X9.175Y-6.4
X9.175Y-7.175
X9.175Y-7.45
X9.175Y-7.725
X9.175Y-8.0
X9.1852Y-3.8625
X9.1864Y-7.0307
X9.1982Y-3.0732
X9.2Y-4.4
X9.2Y-5.8012
X9.2Y-7.6
X9.2Y-8.125
X9.2Y-8.725
X9.2104Y-6.1646
X9.2176Y-6.0433
X9.225Y-3.425
X9.225Y-4.525
X9.225Y-6.25
X9.225Y-6.775
X9.225Y-7.525
X9.225Y-7.825
X9.225Y-8.1
X9.2262Y-3.2785
X9.2268Y-5.0511
X9.2374Y-8.6374
X9.2377Y-3.5127
X9.2377Y-3.8377
X9.25Y-2.65
X9.25Y-3.15
X9.25Y-3.4
X9.25Y-4.375
X9.25Y-4.875
X9.25Y-5.275
X9.25Y-5.525
X9.25Y-6.35
X9.2589Y-3.2987
X9.2624Y-3.2374
X9.2726Y-3.65
X9.2742Y-2.8255
X9.275Y-3.6
X9.275Y-3.625
X9.275Y-4.125
X9.275Y-4.425
X9.275Y-5.775
X9.275Y-5.95
X9.275Y-6.075
X9.275Y-7.125
X9.275Y-7.4
X9.275Y-7.675
X9.275Y-7.95
X9.275Y-8.325
X9.275Y-8.7
X9.2876Y-3.7238
X9.2891Y-6.1202
X9.2892Y-3.7548
X9.2978Y-3.9713
X9.2989Y-4.4261
X9.2999Y-3.8984
X9.3Y-2.475
X9.3Y-3.4407
X9.3Y-4.0
X9.3Y-4.025
X9.3Y-4.0488
X9.3Y-4.225
X9.3Y-4.6
X9.3Y-4.8
X9.3Y-6.625
X9.3Y-6.65
X9.3Y-7.05
X9.3Y-8.4
X9.3011Y-2.2011
X9.3022Y-3.5713
X9.3215Y-2.7093
X9.3239Y-4.2989
X9.325Y-2.225
X9.325Y-2.8
X9.325Y-3.15
X9.325Y-3.2785
X9.325Y-3.425
X9.325Y-3.8
X9.325Y-4.0
X9.325Y-4.15
X9.325Y-4.25
X9.325Y-4.95
X9.325Y-5.475
X9.325Y-6.75
X9.325Y-7.275
X9.325Y-7.825
X9.325Y-8.1
X9.325Y-8.475
X9.325Y-8.675
X9.325Y-8.725
X9.3263Y-3.3021
X9.3343Y-5.5
X9.335Y-4.5335
X9.3407Y-2.725
X9.3443Y-4.3989
X9.35Y-2.25
X9.35Y-3.2
X9.35Y-4.3
X9.35Y-6.775
X9.35Y-8.575
X9.3557Y-2.7614
X9.3715Y-7.6
X9.375Y-2.55
X9.375Y-7.175
X9.375Y-7.45
X9.375Y-7.725
X9.375Y-8.0
X9.4Y-7.825
X9.4Y-8.725
X9.4114Y-7.4864
X9.4239Y-5.1011
X9.4242Y-3.1258
X9.425Y-2.65
X9.425Y-3.225
X9.425Y-3.525
X9.425Y-4.675
X9.425Y-4.925
X9.425Y-5.125
X9.425Y-6.65
X9.425Y-7.575
X9.425Y-7.65
X9.425Y-7.8
X9.425Y-7.85
X9.425Y-8.075
X9.425Y-8.125
X9.4289Y-6.7093
X9.4293Y-3.695
X9.4374Y-8.6376
X9.45Y-3.25
X9.45Y-3.675
X9.45Y-4.3157
X9.45Y-4.575
X9.45Y-5.025
X9.45Y-5.5
X9.45Y-6.0
X9.45Y-6.05
X9.45Y-6.125
X9.45Y-6.425
X9.4518Y-3.8
X9.4727Y-8.6977
X9.4739Y-3.1215
X9.4739Y-3.2261
X9.4739Y-4.0261
X9.4742Y-4.4992
X9.4745Y-4.2255
X9.4746Y-8.3246
X9.475Y-2.575
X9.475Y-2.625
X9.475Y-2.975
X9.475Y-3.0
X9.475Y-3.025
X9.475Y-3.05
X9.475Y-3.175
X9.475Y-3.3
X9.475Y-3.5
X9.475Y-3.55
X9.475Y-3.725
X9.475Y-3.75
X9.475Y-4.825
X9.475Y-6.15
X9.475Y-6.2
X9.475Y-6.45
X9.475Y-6.675
X9.475Y-7.125
X9.475Y-7.4
X9.475Y-7.675
X9.475Y-7.95
X9.4751Y-3.0979
X9.4756Y-6.2983
X9.4789Y-3.9657
X9.4843Y-5.85
X9.4989Y-3.7739
X9.4989Y-8.6989
X9.5Y-2.35
X9.5Y-3.7
X9.5Y-6.6
X9.5Y-8.25
X9.5Y-8.5
X9.5Y-8.775
X9.5006Y-7.8272
X9.5006Y-8.1022
X9.5011Y-3.9989
X9.5118Y-4.2407
X9.5211Y-8.8096
X9.5214Y-6.0477
X9.5249Y-3.8984
X9.525Y-2.375
X9.525Y-2.8
X9.525Y-3.2
X9.525Y-3.275
X9.525Y-3.975
X9.525Y-4.375
X9.525Y-4.75
X9.525Y-5.075
X9.525Y-5.425
X9.525Y-7.275
X9.525Y-8.375
X9.5318Y-8.7325
X9.5412Y-6.0604
X9.55Y-4.25
X9.55Y-6.225
X9.55Y-7.675
X9.55Y-7.775
X9.55Y-8.05
X9.55Y-8.4
X9.5553Y-6.623
X9.5555Y-3.6055
X9.5739Y-8.0011
X9.575Y-5.925
X9.575Y-6.325
X9.575Y-7.175
X9.575Y-7.45
X9.575Y-8.5
X9.575Y-8.8
X9.5791Y-3.937
X9.5874Y-6.0193
X9.5907Y-3.4
X9.5907Y-3.4469
X9.5907Y-3.4705
X9.5957Y-3.9538
X9.6Y-3.5
X9.6Y-4.45
X9.6Y-8.125
X9.6137Y-3.4807
X9.6157Y-6.525
X9.625Y-5.975
X9.625Y-6.125
X9.625Y-6.15
X9.625Y-6.95
X9.625Y-8.225
X9.6256Y-5.225
X9.6261Y-3.5489
X9.6325Y-8.6925
X9.6339Y-5.9411
X9.6371Y-6.0825
X9.6484Y-3.525
X9.6489Y-4.4739
X9.65Y-4.075
X9.65Y-4.725
X9.65Y-5.55
X9.65Y-5.9
X9.65Y-7.05
X9.65Y-7.35
X9.65Y-7.575
X9.65Y-7.8
X9.65Y-7.9
X9.65Y-8.275
X9.6511Y-3.2761
X9.6557Y-5.4943
X9.665Y-5.825
X9.6652Y-6.7152
X9.6693Y-4.2689
X9.6739Y-4.6511
X9.675Y-3.2157
X9.675Y-4.55
X9.675Y-4.675
X9.675Y-4.7
X9.675Y-5.15
X9.675Y-5.5093
X9.675Y-5.725
X9.675Y-5.8
X9.675Y-5.9
X9.675Y-6.275
X9.675Y-6.475
X9.675Y-7.15
X9.675Y-7.275
X9.675Y-7.85
X9.6761Y-6.5011
X9.6817Y-6.0629
X9.6886Y-3.8057
X9.6943Y-7.6988
X9.6959Y-5.2775
X9.6978Y-5.6275
X9.6983Y-5.301
X9.6989Y-3.3193
X9.699Y-5.3246
X9.699Y-5.6511
X9.7Y-4.575
X9.7Y-5.35
X9.7Y-5.7
X9.7011Y-4.6002
X9.7011Y-4.6239
X9.7024Y-3.4726
X9.7041Y-3.4981
X9.7041Y-3.5218
X9.7069Y-5.2089
X9.7072Y-4.4778
X9.7139Y-4.9259
X9.7141Y-4.9509
X9.7142Y-5.5751
X9.7142Y-4.5496
X9.7144Y-4.976
X9.7147Y-5.0011
X9.7193Y-4.5159
X9.7203Y-3.5391
X9.725Y-4.1157
X9.725Y-5.85
X9.725Y-6.2
X9.725Y-6.6
X9.725Y-6.975
X9.725Y-7.8657
X9.7257Y-4.2843
X9.7273Y-4.0622
X9.7326Y-3.2307
X9.7339Y-5.9411
X9.75Y-3.35
X9.75Y-3.7
X9.75Y-4.0185
X9.75Y-4.3657
X9.75Y-4.75
X9.75Y-5.075
X9.75Y-5.425
X9.75Y-6.25
X9.75Y-7.025
X9.75Y-7.2
X9.761Y-6.1273
X9.7736Y-6.1473
X9.775Y-3.25
X9.775Y-4.25
X9.775Y-5.9
X9.775Y-6.175
X9.775Y-7.1
X9.775Y-7.275
X9.775Y-8.275
X9.775Y-8.8
X9.7778Y-4.8278
X9.7803Y-4.4869
X9.7917Y-4.0057
X9.7977Y-4.175
X9.8Y-3.375
X9.8Y-4.0709
X9.8Y-5.1
X9.8Y-5.8
X9.8Y-6.325
X9.8Y-6.975
X9.8Y-7.6988
X9.8Y-7.725
X9.8Y-7.8
X9.8Y-7.825
X9.8Y-8.7
X9.8076Y-4.8743
X9.814Y-5.2513
X9.814Y-5.6013
X9.8157Y-3.425
X9.8157Y-6.4711
X9.8211Y-4.2593
X9.8221Y-4.5593
X9.825Y-3.15
X9.825Y-3.225
X9.825Y-4.2
X9.825Y-6.25
X9.825Y-7.125
X9.825Y-7.35
X9.825Y-7.8
X9.8462Y-4.8788
X9.8489Y-3.2489
X9.85Y-3.475
X9.85Y-4.0421
X9.85Y-5.075
X9.85Y-5.2
X9.85Y-5.575
X9.85Y-5.675
X9.85Y-5.75
X9.85Y-6.55
X9.85Y-6.623
X9.85Y-7.55
X9.85Y-7.775
X9.85Y-8.275
X9.8511Y-2.9261
X9.8552Y-4.8448
X9.8593Y-3.7211
X9.8616Y-4.3631
X9.8693Y-5.4253
X9.8722Y-8.5722
X9.8727Y-4.5593
X9.8739Y-3.2593
X9.8739Y-7.7511
X9.8741Y-4.9193
X9.875Y-2.9
X9.875Y-4.0709
X9.875Y-4.675
X9.875Y-5.25
X9.875Y-5.675
X9.875Y-6.25
X9.875Y-6.975
X9.875Y-7.35
X9.875Y-7.55
X9.875Y-7.6
X9.8753Y-3.5259
X9.8761Y-6.4459
X9.8793Y-5.9
X9.8807Y-5.7886
X9.8978Y-6.0537
X9.8981Y-3.4461
X9.8989Y-5.7261
X9.9Y-3.9907
X9.9Y-4.55
X9.9Y-4.75
X9.9Y-5.25
X9.9Y-5.45
X9.9Y-6.125
X9.9Y-6.25
X9.9Y-7.6488
X9.9Y-7.825
X9.9Y-8.7
X9.9002Y-6.6002
X9.9002Y-6.0772
X9.9003Y-6.1008
X9.9011Y-3.1989
X9.9017Y-7.7244
X9.9017Y-5.0995
X9.9032Y-5.9766
X9.9124Y-8.6376
X9.9124Y-3.8541
X9.9139Y-3.4215
X9.9233Y-7.486
X9.9235Y-3.0274
X9.9239Y-3.0815
X9.925Y-2.9
X9.925Y-3.0
X9.925Y-3.3
X9.925Y-3.725
X9.925Y-4.175
X9.925Y-4.3356
X9.925Y-4.9
X9.925Y-6.025
X9.925Y-6.075
X9.925Y-8.275
X9.9251Y-3.4751
X9.9251Y-7.1476
X9.9253Y-3.1051
X9.9261Y-2.9761
X9.9339Y-5.0041
X9.9364Y-7.5057
X9.9407Y-4.0665
X9.9417Y-4.1529
X9.9495Y-4.2285
X9.95Y-3.525
X9.95Y-4.325
X9.95Y-4.4
X9.95Y-4.475
X9.95Y-4.725
X9.95Y-6.275
X9.95Y-6.975
X9.95Y-8.4
X9.9513Y-4.2521
X9.9522Y-4.8646
X9.9593Y-3.5636
X9.9593Y-3.6963
X9.9681Y-6.075
X9.9681Y-6.3234
X9.9692Y-6.7005
X9.975Y-2.65
X9.975Y-3.9907
X9.975Y-4.3222
X9.975Y-4.575
X9.975Y-5.25
X9.975Y-5.3
X9.975Y-5.45
X9.975Y-5.6
X9.975Y-5.65
X9.975Y-7.5
X9.975Y-8.375
X9.975Y-8.425
X9.9769Y-3.8635
X9.9785Y-4.9281
X9.9785Y-4.2807
X9.9832Y-4.8895
X9.9871Y-4.3895
X9.9989Y-4.0443
X9.9989Y-5.1057
X10.0Y-2.6
X10.0Y-3.725
X10.0Y-5.575
X10.0Y-6.025
X10.0Y-8.275
X10.0Y-8.675
X10.0Y-8.7
X10.0067Y-6.1
X10.0157Y-4.5539
X10.0196Y-4.9108
X10.0249Y-4.3221
X10.025Y-2.675
X10.025Y-3.2
X10.025Y-4.0528
X10.025Y-5.775
X10.025Y-6.125
X10.025Y-6.975
X10.025Y-7.3
X10.025Y-7.675
X10.025Y-7.75
X10.025Y-7.775
X10.025Y-7.8
X10.025Y-7.825
X10.025Y-8.275
X10.025Y-8.55
X10.0252Y-4.5756
X10.0259Y-6.623
X10.0305Y-3.6055
X10.0407Y-3.725
X10.0459Y-5.4796
X10.0461Y-7.0157
X10.049Y-7.7265
X10.05Y-5.225
X10.05Y-5.65
X10.05Y-6.55
X10.0518Y-4.322
X10.0616Y-5.462
X10.0685Y-3.4425
X10.0727Y-3.5047
X10.0739Y-3.4811
X10.075Y-4.2
X10.075Y-4.425
X10.075Y-4.7226
X10.075Y-4.775
X10.075Y-5.1
X10.075Y-5.275
X10.075Y-5.8093
X10.075Y-7.1512
X10.075Y-7.3
X10.075Y-8.275
X10.0755Y-3.3889
X10.0761Y-6.2489
X10.0761Y-6.4758
X10.0795Y-4.9407
X10.0907Y-3.525
X10.0943Y-3.725
X10.0978Y-3.5728
X10.0999Y-4.3218
X10.1Y-3.125
X10.1Y-5.1
X10.1Y-5.45
X10.1Y-5.65
X10.1Y-6.175
X10.1Y-6.6
X10.1Y-6.975
X10.1Y-7.35
X10.1Y-8.425
X10.1005Y-5.3285
X10.1012Y-4.0665
X10.1054Y-3.5055
X10.1089Y-4.8882
X10.1093Y-4.5921
X10.1214Y-6.702
X10.1241Y-5.2943
X10.1242Y-4.9258
X10.1242Y-5.6057
X10.1246Y-3.172
X10.1249Y-4.1008
X10.125Y-7.3
X10.125Y-7.35
X10.125Y-8.2
X10.1303Y-4.5311
X10.1457Y-8.6989
X10.1483Y-5.4843
X10.1499Y-5.103
X10.15Y-3.275
X10.15Y-3.475
X10.15Y-4.9
X10.15Y-6.15
X10.15Y-7.675
X10.15Y-8.275
X10.15Y-8.325
X10.15Y-8.6
X10.1514Y-4.9258
X10.1547Y-6.475
X10.1548Y-4.4191
X10.165Y-8.51
X10.1726Y-4.1219
X10.1739Y-3.7989
X10.1745Y-4.5309
X10.175Y-3.2693
X10.175Y-3.525
X10.175Y-4.0534
X10.175Y-4.2
X10.175Y-4.325
X10.175Y-4.6
X10.175Y-4.775
X10.175Y-5.125
X10.175Y-6.275
X10.175Y-6.975
X10.175Y-8.2
X10.175Y-8.45
X10.175Y-4.9258
X10.1761Y-8.8011
X10.1767Y-4.9022
X10.1805Y-6.3305
X10.1818Y-4.4193
X10.1868Y-4.1407
X10.1886Y-5.4364
X10.1886Y-5.6386
X10.1999Y-4.7671
X10.2Y-5.275
X10.2Y-8.4
X10.2053Y-5.6553
X10.2093Y-8.6961
X10.2107Y-4.9108
X10.225Y-3.35
X10.225Y-3.7
X10.225Y-4.325
X10.225Y-4.425
X10.225Y-5.8
X10.225Y-6.1
X10.225Y-7.675
X10.225Y-8.275
X10.225Y-8.55
X10.2259Y-4.1108
X10.2261Y-6.5593
X10.2266Y-5.4504
X10.2287Y-5.073
X10.2295Y-5.1116
X10.25Y-3.6407
X10.25Y-4.6327
X10.25Y-6.7
X10.25Y-6.975
X10.25Y-7.35
X10.25Y-7.5
X10.25Y-8.525
X10.2594Y-4.5429
X10.2597Y-4.0666
X10.2632Y-4.7368
X10.2656Y-4.3204
X10.2663Y-5.3093
X10.275Y-5.675
X10.275Y-8.45
X10.2761Y-4.9511
X10.2774Y-4.6008
X10.2807Y-4.1193
X10.2881Y-5.0896
X10.2891Y-4.3303
X10.2942Y-5.3093
X10.2989Y-3.4157
X10.2995Y-4.6258
X10.3Y-3.475
X10.3Y-3.5
X10.3Y-3.525
X10.3Y-5.825
X10.3Y-6.6
X10.3Y-7.675
X10.3Y-7.8589
X10.3Y-8.275
X10.3011Y-7.3511
X10.3056Y-4.5391
X10.3059Y-4.4176
X10.3094Y-2.9
X10.3239Y-5.6489
X10.324Y-4.4018
X10.325Y-2.925
X10.325Y-3.4297
X10.325Y-3.475
X10.325Y-5.425
X10.325Y-5.85
X10.325Y-6.325
X10.325Y-6.625
X10.325Y-6.975
X10.325Y-8.7
X10.3253Y-5.0733
X10.3262Y-3.3761
X10.3289Y-3.2157
X10.3304Y-4.0573
X10.3331Y-4.7368
X10.3453Y-4.1108
X10.346Y-4.3675
X10.3489Y-4.5679
X10.35Y-4.425
X10.35Y-5.45
X10.35Y-7.5
X10.35Y-8.0
X10.35Y-8.325
X10.35Y-8.6
X10.3511Y-7.9739
X10.3512Y-5.3093
X10.3524Y-4.6917
X10.3543Y-3.9815
X10.3618Y-5.6193
X10.3659Y-5.85
X10.3706Y-4.7961
X10.3742Y-3.6407
X10.3742Y-4.9495
X10.375Y-5.825
X10.375Y-2.275
X10.375Y-3.2
X10.375Y-3.4535
X10.375Y-4.2093
X10.3751Y-4.1258
X10.3811Y-5.0
X10.3869Y-4.6492
X10.392Y-4.0573
X10.3943Y-4.6975
X10.3991Y-8.6278
X10.4Y-5.527
X10.4Y-3.45
X10.4Y-3.5035
X10.4Y-4.125
X10.4Y-4.3665
X10.4Y-6.7
X10.4Y-6.975
X10.4Y-7.15
X10.4Y-7.275
X10.4Y-7.3012
X10.4Y-7.325
X10.4Y-7.4
X10.4Y-7.4262
X10.4Y-7.6
X10.4Y-7.6262
X10.4Y-7.75
X10.4Y-7.925
X10.4Y-7.9512
X10.4Y-8.075
X10.4Y-8.25
X10.4Y-8.2762
X10.4Y-8.4
X10.4Y-8.575
X10.4012Y-4.7823
X10.4037Y-2.8963
X10.4057Y-4.9234
X10.4063Y-8.7108
X10.4066Y-8.6054
X10.4102Y-5.4892
X10.4111Y-4.635
X10.4124Y-3.0899
X10.4136Y-4.6827
X10.425Y-5.527
X10.425Y-2.975
X10.425Y-3.0
X10.425Y-3.025
X10.425Y-3.525
X10.425Y-3.7
X10.425Y-4.3858
X10.425Y-5.375
X10.4271Y-5.6593
X10.4364Y-3.225
X10.437Y-4.6305
X10.4392Y-3.1007
X10.4396Y-5.6793
X10.4443Y-4.9786
X10.4492Y-5.106
X10.45Y-5.225
X10.45Y-6.1
X10.45Y-6.25
X10.45Y-6.6
X10.4595Y-4.6232
X10.4602Y-5.6909
X10.4689Y-4.9813
X10.475Y-3.2
X10.475Y-4.0
X10.475Y-4.4008
X10.475Y-5.475
X10.475Y-6.15
X10.475Y-6.975
X10.475Y-7.825
X10.4752Y-5.7091
X10.4785Y-5.325
X10.4785Y-5.3489
X10.4819Y-5.1291
X10.4874Y-4.2124
X10.4888Y-5.7284
X10.4915Y-4.9881
X10.4943Y-4.05
X10.5Y-4.4008
X10.5Y-4.425
X10.5008Y-5.75
X10.5055Y-3.6055
X10.5057Y-7.9761
X10.5093Y-6.5593
X10.521Y-4.136
X10.5211Y-5.7041
X10.5239Y-5.0239
X10.525Y-3.725
X10.525Y-4.575
X10.525Y-4.7
X10.525Y-5.275
X10.525Y-6.1
X10.525Y-6.125
X10.525Y-6.45
X10.525Y-7.4
X10.525Y-7.525
X10.525Y-7.65
X10.525Y-7.725
X10.525Y-8.3
X10.525Y-8.1358
X10.5252Y-3.9904
X10.5255Y-5.5365
X10.5367Y-5.3867
X10.5461Y-8.7407
X10.547Y-7.6262
X10.5472Y-3.4386
X10.5488Y-7.3012
X10.5488Y-8.2762
X10.5492Y-4.4761
X10.55Y-3.4
X10.55Y-3.525
X10.55Y-3.55
X10.55Y-4.0341
X10.55Y-4.175
X10.55Y-4.75
X10.55Y-5.8
X10.55Y-5.925
X10.55Y-6.425
X10.55Y-6.7
X10.55Y-6.975
X10.55Y-8.6012
X10.5511Y-4.1364
X10.5511Y-7.9489
X10.575Y-4.4008
X10.575Y-5.075
X10.575Y-5.425
X10.575Y-6.2
X10.575Y-7.275
X10.575Y-7.6
X10.575Y-7.925
X10.575Y-8.25
X10.575Y-8.575
X10.5783Y-4.1475
X10.5961Y-7.7407
X10.5989Y-6.5989
X10.6Y-8.075
X10.6Y-8.4
X10.6031Y-4.1165
X10.6189Y-7.6439
X10.625Y-3.55
X10.625Y-4.033
X10.625Y-5.075
X10.625Y-5.825
X10.625Y-6.325
X10.625Y-6.975
X10.625Y-7.3012
X10.625Y-8.2762
X10.625Y-8.625
X10.6263Y-6.6329
X10.6264Y-5.512
X10.628Y-7.9513
X10.6284Y-4.4158
X10.6287Y-8.4272
X10.6307Y-4.9753
X10.6307Y-4.9517
X10.6307Y-8.7258
X10.6352Y-4.8981
X10.6358Y-5.3516
X10.637Y-6.15
X10.6458Y-5.3274
X10.6489Y-4.528
X10.65Y-5.651
X10.65Y-3.225
X10.65Y-3.35
X10.65Y-3.425
X10.65Y-4.625
X10.65Y-4.65
X10.65Y-4.675
X10.65Y-5.725
X10.65Y-5.75
X10.65Y-6.925
X10.6511Y-5.6274
X10.6512Y-5.6745
X10.6553Y-4.248
X10.6557Y-5.8958
X10.6557Y-5.5961
X10.6557Y-5.775
X10.6636Y-5.8221
X10.6729Y-4.1258
X10.6739Y-5.3511
X10.675Y-4.4
X10.6758Y-5.1005
X10.6764Y-5.4506
X10.6774Y-6.0774
X10.6807Y-5.2853
X10.6864Y-4.5886
X10.6874Y-4.2126
X10.6886Y-4.6196
X10.7Y-3.35
X10.7Y-3.7
X10.7Y-4.0358
X10.7Y-6.625
X10.7Y-6.975
X10.7009Y-6.0749
X10.7102Y-4.7129
X10.7164Y-4.3807
X10.725Y-4.225
X10.725Y-6.45
X10.725Y-6.925
X10.7295Y-4.25
X10.7299Y-5.4549
X10.7347Y-4.7795
X10.7419Y-6.348
X10.75Y-4.6525
X10.75Y-4.1407
X10.75Y-4.7
X10.75Y-5.6
X10.75Y-6.525
X10.75Y-6.6
X10.75Y-7.275
X10.75Y-7.325
X10.75Y-7.35
X10.75Y-7.375
X10.75Y-7.425
X10.75Y-7.6
X10.75Y-7.65
X10.75Y-7.675
X10.75Y-7.7
X10.75Y-7.75
X10.75Y-7.775
X10.75Y-7.925
X10.75Y-7.975
X10.75Y-8.0
X10.75Y-8.025
X10.75Y-8.075
X10.75Y-8.1
X10.75Y-8.25
X10.75Y-8.3
X10.75Y-8.325
X10.75Y-8.35
X10.75Y-8.4
X10.75Y-8.575
X10.75Y-8.625
X10.75Y-8.65
X10.75Y-8.675
X10.75Y-4.6761
X10.7501Y-4.6289
X10.7505Y-5.1348
X10.7541Y-4.9249
X10.7552Y-6.0448
X10.7555Y-4.2573
X10.7565Y-4.7886
X10.7593Y-4.6029
X10.7602Y-4.5643
X10.7642Y-5.2531
X10.7642Y-5.3344
X10.7667Y-5.9943
X10.7684Y-4.5422
X10.7692Y-5.2951
X10.7719Y-4.2031
X10.775Y-3.5233
X10.775Y-3.45
X10.775Y-3.475
X10.775Y-3.577
X10.775Y-4.375
X10.775Y-5.075
X10.775Y-6.975
X10.775Y-3.4996
X10.781Y-7.281
X10.781Y-7.606
X10.781Y-7.931
X10.781Y-8.256
X10.781Y-8.581
X10.7911Y-4.2364
X10.7934Y-5.85
X10.7982Y-4.0482
X10.8Y-5.075
X10.8011Y-2.9261
X10.8023Y-3.5142
X10.8037Y-2.8963
X10.8127Y-4.4678
X10.8157Y-6.5307
X10.8179Y-5.9223
X10.825Y-3.1
X10.825Y-3.45
X10.825Y-4.075
X10.825Y-5.425
X10.825Y-6.628
X10.825Y-6.8907
X10.825Y-7.775
X10.825Y-8.1
X10.825Y-8.4
X10.825Y-8.7
X10.8251Y-3.6508
X10.8261Y-8.7261
X10.8305Y-7.2445
X10.8307Y-3.6122
X10.8347Y-7.4597
X10.85Y-2.475
X10.85Y-2.7
X10.85Y-3.2
X10.85Y-3.475
X10.85Y-3.5
X10.85Y-5.85
X10.85Y-6.875
X10.8508Y-5.0243
X10.8511Y-3.9557
X10.8516Y-3.6516
X10.8614Y-5.3487
X10.8657Y-5.25
X10.8657Y-6.1553
X10.8739Y-4.2739
X10.8745Y-4.7008
X10.8746Y-5.4039
X10.875Y-2.975
X10.875Y-3.0
X10.875Y-3.025
X10.875Y-3.1
X10.875Y-3.7
X10.875Y-3.875
X10.875Y-4.5229
X10.875Y-4.839
X10.875Y-6.0
X10.8787Y-2.8963
X10.8807Y-4.8121
X10.8874Y-4.2124
X10.8882Y-4.4343
X10.8886Y-6.9057
X10.8919Y-4.9075
X10.8923Y-6.0248
X10.9Y-5.575
X10.9Y-6.05
X10.9Y-6.6
X10.9002Y-4.6479
X10.9045Y-4.9295
X10.9084Y-5.8007
X10.9157Y-6.075
X10.9239Y-6.0989
X10.925Y-3.2
X10.925Y-3.8
X10.925Y-4.4
X10.925Y-5.0727
X10.925Y-5.7
X10.925Y-6.975
X10.925Y-8.8
X10.925Y-4.0608
X10.9259Y-5.0256
X10.9261Y-4.3011
X10.9265Y-5.163
X10.9296Y-4.663
X10.9307Y-8.2512
X10.9307Y-7.9262
X10.9308Y-7.6012
X10.9308Y-8.5762
X10.9322Y-4.8978
X10.9337Y-4.83
X10.9405Y-5.4063
X10.9431Y-4.9204
X10.95Y-2.7
X10.95Y-4.325
X10.95Y-5.35
X10.95Y-5.6
X10.95Y-6.25
X10.95Y-7.275
X10.9508Y-5.2745
X10.9511Y-6.1261
X10.9518Y-5.0227
X10.9531Y-4.976
X10.9535Y-4.5407
X10.9555Y-3.6055
X10.9557Y-4.6807
X10.9559Y-4.9994
X10.9561Y-5.3886
X10.9595Y-4.9374
X10.9636Y-5.7018
X10.9639Y-5.2943
X10.9693Y-4.4287
X10.9693Y-5.9
X10.9733Y-4.2761
X10.975Y-3.95
X10.975Y-4.15
X10.975Y-4.825
X10.975Y-7.3
X10.975Y-7.45
X10.975Y-7.625
X10.975Y-7.775
X10.975Y-8.075
X10.975Y-8.275
X10.975Y-8.4
X10.975Y-8.475
X10.975Y-8.6
X10.975Y-8.675
X10.975Y-8.725
X10.9752Y-4.2323
X10.9773Y-7.9523
X10.9893Y-5.8127
X11.0Y-3.1
X11.0Y-3.3965
X11.0Y-3.45
X11.0Y-3.475
X11.0Y-3.5
X11.0Y-3.55
X11.0Y-4.75
X11.0Y-5.425
X11.0Y-5.85
X11.0Y-6.2
X11.0011Y-5.0761
X11.0012Y-7.325
X11.0012Y-7.65
X11.0012Y-7.975
X11.0012Y-8.3012
X11.0013Y-8.6248
X11.0178Y-4.4678
X11.0213Y-7.6728
X11.0213Y-7.9978
X11.025Y-3.875
X11.025Y-4.075
X11.025Y-6.45
X11.025Y-7.35
X11.025Y-8.325
X11.025Y-8.6407
X11.0339Y-5.7557
X11.05Y-3.475
X11.05Y-3.55
X11.05Y-6.6
X11.05Y-7.0157
X11.05Y-7.7
X11.05Y-8.025
X11.05Y-8.45
X11.05Y-8.6
X11.055Y-8.6397
X11.0559Y-5.251
X11.0615Y-7.3523
X11.0615Y-7.6773
X11.0615Y-8.0023
X11.0615Y-8.3273
X11.0622Y-4.5196
X11.075Y-3.5
X11.075Y-3.575
X11.075Y-3.7
X11.075Y-4.075
X11.075Y-4.575
X11.075Y-4.6
X11.075Y-5.125
X11.075Y-6.975
X11.075Y-8.35
X11.075Y-8.675
X11.0752Y-5.3364
X11.0752Y-5.375
X11.0858Y-4.5189
X11.0874Y-4.2057
X11.1Y-3.4
X11.1Y-4.4
X11.1018Y-3.9011
X11.1059Y-5.2844
X11.109Y-5.3343
X11.1242Y-4.7165
X11.125Y-4.075
X11.125Y-5.475
X11.125Y-6.35
X11.125Y-7.575
X11.125Y-7.9
X11.125Y-8.225
X11.125Y-8.55
X11.1271Y-5.2652
X11.1305Y-7.2445
X11.1307Y-4.4864
X11.1396Y-3.6604
X11.15Y-3.35
X11.15Y-3.7
X11.15Y-6.125
X11.15Y-6.95
X11.1508Y-5.2652
X11.1593Y-5.5224
X11.1739Y-8.2761
X11.175Y-4.625
X11.175Y-4.65
X11.175Y-4.675
X11.175Y-4.8
X11.175Y-4.925
X11.175Y-5.1
X11.175Y-5.15
X11.175Y-5.475
X11.175Y-5.6
X11.175Y-5.825
X11.175Y-6.0
X11.175Y-6.125
X11.175Y-6.75
X11.175Y-7.25
X11.175Y-7.3
X11.175Y-7.375
X11.175Y-7.525
X11.175Y-7.625
X11.175Y-7.675
X11.175Y-7.75
X11.175Y-7.95
X11.175Y-8.075
X11.175Y-8.4
X11.175Y-8.65
X11.175Y-8.725
X11.1755Y-4.5365
X11.1761Y-4.6011
X11.1761Y-5.7739
X11.1773Y-5.7477
X11.1777Y-4.6998
X11.1784Y-5.7216
X11.1796Y-5.6954
X11.1807Y-5.6693
X11.1818Y-5.6432
X11.182Y-8.1508
X11.1875Y-4.5569
X11.1892Y-5.55
X11.1938Y-5.2312
X11.1943Y-7.5069
X11.2Y-4.225
X11.2Y-6.6
X11.2Y-7.025
X11.2Y-7.725
X11.2Y-7.8
X11.2Y-8.025
X11.2Y-8.35
X11.2055Y-8.1486
X11.2222Y-5.9278
X11.225Y-3.425
X11.225Y-3.45
X11.225Y-3.475
X11.225Y-3.5
X11.225Y-3.525
X11.225Y-4.075
X11.225Y-4.375
X11.225Y-5.075
X11.225Y-6.25
X11.225Y-6.975
X11.2261Y-6.3261
X11.2458Y-4.4708
X11.2463Y-2.8963
X11.25Y-2.925
X11.25Y-3.875
X11.25Y-4.0343
X11.25Y-4.3
X11.25Y-5.85
X11.2512Y-7.275
X11.2512Y-7.3
X11.2512Y-7.75
X11.2524Y-7.725
X11.2646Y-4.2146
X11.2646Y-4.8396
X11.2665Y-5.0187
X11.2713Y-2.8963
X11.275Y-6.175
X11.275Y-6.2657
X11.275Y-6.5
X11.2817Y-4.706
X11.2864Y-6.0057
X11.2907Y-4.9279
X11.2907Y-4.9541
X11.2971Y-6.0553
X11.2978Y-6.0287
X11.2989Y-5.3261
X11.2999Y-5.5264
X11.3Y-3.075
X11.3Y-4.525
X11.3Y-4.9
X11.3Y-5.075
X11.3Y-5.25
X11.3Y-5.35
X11.3Y-5.375
X11.3Y-5.425
X11.3Y-5.55
X11.3Y-6.15
X11.3Y-6.6843
X11.3Y-6.85
X11.3Y-8.675
X11.3004Y-6.0787
X11.3026Y-8.1657
X11.3099Y-4.2483
X11.3104Y-7.2354
X11.3104Y-7.6854
X11.325Y-2.925
X11.325Y-4.2262
X11.325Y-4.4
X11.325Y-4.85
X11.325Y-6.0
X11.3287Y-2.8963
X11.3343Y-6.5711
X11.3343Y-6.7732
X11.3343Y-6.8045
X11.3386Y-5.0386
X11.3386Y-7.0307
X11.35Y-3.1
X11.35Y-3.85
X11.35Y-4.975
X11.35Y-5.1
X11.35Y-6.825
X11.35Y-8.05
X11.35Y-8.6
X11.3593Y-4.5787
X11.3664Y-6.0468
X11.3702Y-7.4169
X11.375Y-2.775
X11.375Y-3.15
X11.375Y-3.8
X11.375Y-3.825
X11.375Y-7.85
X11.375Y-8.025
X11.375Y-8.775
X11.3907Y-7.65
X11.4Y-2.625
X11.4Y-7.2
X11.4Y-7.325
X11.4011Y-7.7761
X11.4011Y-7.8511
X11.4028Y-5.0222
X11.425Y-2.425
X11.425Y-7.575
X11.4323Y-8.7515
X11.4411Y-4.4965
X11.4443Y-2.4837
X11.4489Y-6.4239
X11.45Y-4.075
X11.45Y-4.325
X11.45Y-4.8157
X11.45Y-5.275
X11.45Y-5.65
X11.45Y-5.675
X11.45Y-5.7
X11.45Y-5.775
X11.45Y-5.875
X11.45Y-6.5
X11.45Y-6.625
X11.45Y-7.0
X11.45Y-7.3
X11.45Y-7.525
X11.45Y-7.75
X11.45Y-8.175
X11.45Y-8.65
X11.4521Y-3.0754
X11.4683Y-8.325
X11.475Y-5.075
X11.475Y-5.2
X11.475Y-5.8762
X11.475Y-6.0
X11.475Y-6.025
X11.475Y-6.075
X11.475Y-7.85
X11.475Y-8.4
X11.4761Y-4.5205
X11.4843Y-4.9
X11.4898Y-3.8352
X11.5Y-2.45
X11.5Y-4.275
X11.5Y-6.45
X11.5Y-6.725
X11.5Y-8.05
X11.5Y-8.5
X11.5097Y-7.2347
X11.5097Y-7.6847
X11.5222Y-5.2301
X11.525Y-2.9238
X11.525Y-3.025
X11.525Y-3.3
X11.525Y-3.575
X11.525Y-3.85
X11.525Y-4.375
X11.525Y-4.65
X11.525Y-4.925
X11.525Y-5.85
X11.525Y-5.9
X11.525Y-6.275
X11.525Y-6.625
X11.5269Y-7.3259
X11.5269Y-7.7759
X11.5426Y-4.5665
X11.55Y-3.75
X11.55Y-8.325
X11.55Y-8.775
X11.5506Y-4.5443
X11.5646Y-3.6604
X11.5646Y-4.4646
X11.575Y-3.175
X11.575Y-3.45
X11.575Y-6.55
X11.575Y-6.825
X11.5805Y-4.7445
X11.5864Y-8.1136
X11.5874Y-3.1126
X11.5874Y-3.3876
X11.5874Y-5.0126
X11.5907Y-7.1989
X11.5989Y-7.6511
X11.6Y-2.9
X11.6Y-5.725
X11.6Y-6.275
X11.6Y-6.5762
X11.6Y-6.6
X11.6Y-6.85
X11.6Y-7.0157
X11.6Y-7.575
X11.6Y-8.55
X11.6014Y-6.8758
X11.6057Y-5.8983
X11.611Y-6.3008
X11.6157Y-3.7252
X11.6239Y-5.0761
X11.625Y-2.3
X11.625Y-2.4
X11.625Y-3.15
X11.625Y-4.5
X11.625Y-4.825
X11.625Y-5.475
X11.625Y-5.75
X11.625Y-6.675
X11.625Y-8.425
X11.6261Y-6.9989
X11.6307Y-3.8136
X11.6364Y-4.2614
X11.6473Y-6.5912
X11.65Y-2.15
X11.65Y-3.475
X11.65Y-5.2343
X11.65Y-6.6157
X11.65Y-6.875
X11.65Y-8.175
X11.6511Y-5.0489
X11.6511Y-5.5739
X11.6593Y-7.275
X11.6593Y-7.325
X11.6593Y-7.725
X11.6593Y-7.775
X11.6644Y-5.775
X11.6657Y-3.6157
X11.6711Y-6.2657
X11.6739Y-3.0239
X11.675Y-3.2
X11.675Y-3.725
X11.675Y-3.85
X11.675Y-4.025
X11.675Y-4.075
X11.675Y-4.375
X11.675Y-4.8
X11.675Y-4.825
X11.675Y-5.075
X11.675Y-8.325
X11.6827Y-4.5336
X11.6876Y-3.4911
X11.7Y-3.125
X11.7Y-3.75
X11.7Y-4.1
X11.7Y-5.525
X11.7Y-6.45
X11.7Y-6.725
X11.7Y-8.05
X11.7Y-8.5
X11.7104Y-7.2354
X11.7104Y-7.6854
X11.725Y-2.9
X11.725Y-3.3
X11.725Y-4.375
X11.725Y-4.65
X11.725Y-4.925
X11.725Y-5.9
X11.725Y-7.325
X11.725Y-7.775
X11.7261Y-3.0261
X11.7269Y-6.635
X11.7377Y-5.6123
X11.7461Y-6.2657
X11.7489Y-2.5989
X11.75Y-2.4
X11.75Y-2.625
X11.75Y-8.65
X11.7519Y-3.2009
X11.775Y-2.675
X11.775Y-4.525
X11.775Y-4.8
X11.775Y-5.075
X11.775Y-5.25
X11.775Y-5.475
X11.775Y-5.875
X11.775Y-6.55
X11.775Y-6.825
X11.775Y-8.8
X11.775Y-6.3008
X11.7805Y-4.7445
X11.7807Y-5.7114
X11.7863Y-3.3865
X11.7874Y-3.1124
X11.7874Y-4.4626
X11.7874Y-5.0126
X11.8Y-5.75
X11.8Y-6.65
X11.8Y-6.775
X11.8Y-7.2
X11.8Y-7.65
X11.8Y-8.025
X11.8Y-8.1
X11.8Y-8.55
X11.8083Y-5.8529
X11.8193Y-6.5011
X11.825Y-2.775
X11.825Y-3.475
X11.825Y-4.5
X11.825Y-4.7
X11.825Y-5.2343
X11.825Y-6.2657
X11.825Y-6.675
X11.825Y-7.1407
X11.825Y-7.925
X11.825Y-8.45
X11.825Y-8.8
X11.8261Y-3.4261
X11.8407Y-4.8727
X11.8434Y-8.0446
X11.8462Y-4.5264
X11.8466Y-4.9798
X11.85Y-2.625
X11.85Y-3.2
X11.85Y-3.2593
X11.85Y-4.125
X11.85Y-5.875
X11.85Y-6.775
X11.85Y-6.9
X11.85Y-7.275
X11.85Y-7.4
X11.85Y-7.725
X11.85Y-7.85
X11.85Y-8.3
X11.8505Y-6.5991
X11.8593Y-5.65
X11.873Y-4.5247
X11.8739Y-3.4489
X11.875Y-3.425
X11.875Y-3.725
X11.875Y-4.7
X11.875Y-4.775
X11.875Y-4.9
X11.875Y-4.9524
X11.875Y-5.075
X11.875Y-5.275
X11.875Y-5.875
X11.875Y-8.15
X11.875Y-8.6
X11.8797Y-3.1739
X11.8877Y-5.1807
X11.9Y-2.6
X11.9Y-6.2657
X11.9Y-6.45
X11.9Y-6.725
X11.9Y-8.05
X11.9Y-8.5
X11.9012Y-5.8716
X11.9104Y-7.2354
X11.9104Y-7.6854
X11.925Y-3.025
X11.925Y-3.3
X11.925Y-3.575
X11.925Y-4.375
X11.925Y-4.65
X11.925Y-4.925
X11.925Y-5.1977
X11.925Y-5.475
X11.925Y-5.85
X11.925Y-6.8907
X11.95Y-4.825
X11.95Y-7.3
X11.95Y-7.75
X11.95Y-8.65
X11.9539Y-5.2593
X11.9737Y-5.526
X11.9739Y-6.8239
X11.975Y-3.0
X11.975Y-3.175
X11.975Y-5.8
X11.975Y-5.9093
X11.975Y-6.2657
X11.975Y-6.55
X11.975Y-6.6
X11.975Y-8.2
X11.9805Y-4.7445
X11.9817Y-3.7387
X11.9864Y-3.3864
X11.9874Y-3.1124
X11.9874Y-3.6626
X11.9874Y-4.4624
X11.9874Y-5.0124
X11.9909Y-3.45
X12.0Y-2.55
X12.0Y-5.225
X12.0Y-5.875
X12.0Y-6.625
X12.0Y-7.2
X12.0Y-7.65
X12.0Y-8.1
X12.0Y-8.55
X12.0011Y-2.9761
X12.0057Y-5.325
X12.0193Y-2.5807
X12.0242Y-6.3008
X12.025Y-4.5
X12.025Y-5.275
X12.025Y-7.0157
X12.025Y-8.225
X12.0486Y-6.5986
X12.05Y-2.4397
X12.05Y-3.35
X12.05Y-5.8762
X12.05Y-6.85
X12.05Y-6.975
X12.05Y-7.3
X12.05Y-7.75
X12.05Y-8.65
X12.0503Y-6.2654
X12.0507Y-3.1516
X12.0537Y-8.1978
X12.0593Y-3.8
X12.075Y-2.9238
X12.075Y-3.125
X12.075Y-3.425
X12.075Y-4.775
X12.075Y-4.8
X12.075Y-5.075
X12.075Y-5.1
X12.075Y-5.65
X12.075Y-5.9
X12.0758Y-5.1657
X12.0868Y-4.4914
X12.1Y-5.475
X12.1Y-5.525
X12.1Y-6.05
X12.1Y-6.45
X12.1Y-6.725
X12.1Y-8.05
X12.1Y-8.5
X12.1073Y-6.3008
X12.1104Y-7.2354
X12.1104Y-7.6854
X12.125Y-3.025
X12.125Y-3.3
X12.125Y-4.375
X12.125Y-4.65
X12.125Y-4.925
X12.125Y-5.8762
X12.125Y-5.9
X12.125Y-6.8907
X12.1377Y-5.6127
X12.15Y-3.1907
X12.15Y-3.475
X12.15Y-4.825
X12.15Y-6.6
X12.15Y-7.3
X12.15Y-7.75
X12.1614Y-5.1807
X12.1646Y-3.1146
X12.1646Y-3.3896
X12.1739Y-6.8239
X12.175Y-3.625
X12.175Y-6.55
X12.1805Y-4.7445
X12.1874Y-4.4626
X12.1874Y-5.0124
X12.2Y-4.525
X12.2Y-5.75
X12.2Y-5.8
X12.2Y-6.275
X12.2Y-6.575
X12.2Y-6.7
X12.2Y-6.9
X12.2Y-7.2
X12.2Y-7.65
X12.2Y-8.1
X12.2Y-8.15
X12.2Y-8.55
X12.2Y-8.6
X12.2011Y-5.7239
X12.2023Y-5.6977
X12.2157Y-3.1834
X12.225Y-2.775
X12.225Y-3.075
X12.225Y-3.425
X12.225Y-4.075
X12.225Y-5.2
X12.225Y-6.925
X12.225Y-6.975
X12.225Y-7.15
X12.225Y-8.2
X12.225Y-8.3
X12.225Y-8.65
X12.2262Y-7.2609
X12.2298Y-7.7116
X12.2487Y-6.5991
X12.25Y-3.025
X12.25Y-3.25
X12.25Y-4.025
X12.25Y-4.375
X12.25Y-4.875
X12.25Y-5.15
X12.25Y-5.525
X12.2626Y-6.6411
X12.275Y-3.15
X12.275Y-3.175
X12.275Y-3.25
X12.275Y-3.45
X12.275Y-3.7
X12.275Y-3.725
X12.275Y-4.5
X12.275Y-4.825
X12.275Y-5.075
X12.275Y-5.575
X12.275Y-5.75
X12.275Y-8.8
X12.2761Y-4.5511
X12.3Y-5.3
X12.3Y-5.475
X12.3Y-6.45
X12.3Y-6.725
X12.3Y-7.4
X12.3Y-7.5238
X12.3Y-7.85
X12.325Y-3.025
X12.325Y-3.3
X12.325Y-3.575
X12.325Y-4.375
X12.325Y-4.65
X12.325Y-4.925
X12.325Y-5.525
X12.325Y-8.025
X12.325Y-8.475
X12.3475Y-2.5509
X12.3489Y-2.5261
X12.35Y-2.5
X12.35Y-2.6
X12.35Y-6.275
X12.3507Y-2.474
X12.3515Y-2.5742
X12.3519Y-3.4759
X12.3519Y-4.8259
X12.3563Y-7.1437
X12.3627Y-5.6123
X12.3687Y-7.5937
X12.375Y-2.7
X12.375Y-5.75
X12.375Y-5.8762
X12.375Y-6.55
X12.375Y-6.6
X12.375Y-6.825
X12.3805Y-4.7445
X12.3874Y-3.1124
X12.3874Y-3.3874
X12.3874Y-3.6626
X12.3874Y-4.4626
X12.3874Y-5.0126
X12.4Y-2.725
X12.4Y-5.2
X12.4Y-5.975
X12.4Y-6.1
X12.4Y-6.775
X12.4Y-6.9807
X12.425Y-2.9
X12.425Y-3.175
X12.425Y-3.45
X12.425Y-3.75
X12.425Y-5.075
X12.425Y-5.1
X12.425Y-6.975
X12.4495Y-2.1992
X12.45Y-2.725
X12.45Y-3.525
X12.45Y-4.85
X12.45Y-5.175
X12.475Y-2.25
X12.475Y-2.7
X12.475Y-3.175
X12.475Y-4.325
X12.475Y-4.775
X12.475Y-4.8
X12.475Y-5.05
X12.475Y-5.075
X12.475Y-5.2
X12.475Y-5.55
X12.475Y-5.7
X12.475Y-5.75
X12.475Y-5.975
X12.475Y-6.0
X12.475Y-6.35
X12.475Y-6.725
X12.4886Y-3.4057
X12.4907Y-7.4343
X12.5Y-2.25
X12.5Y-2.625
X12.5Y-5.5
X12.5Y-5.725
X12.5Y-5.8
X12.5Y-6.35
X12.5Y-8.1488
X12.5193Y-5.9614
X12.5239Y-5.7739
X12.525Y-2.225
X12.525Y-2.6
X12.525Y-3.025
X12.525Y-3.3
X12.525Y-4.65
X12.525Y-4.925
X12.525Y-5.475
X12.525Y-6.475
X12.525Y-6.775
X12.525Y-7.1
X12.55Y-2.275
X12.55Y-2.475
X12.55Y-3.475
X12.55Y-5.2
X12.55Y-5.325
X12.55Y-6.325
X12.5646Y-3.3854
X12.575Y-2.25
X12.575Y-2.5
X12.575Y-2.9
X12.575Y-3.8
X12.575Y-5.075
X12.5805Y-4.7445
X12.5874Y-3.1124
X12.5874Y-5.0126
X12.6Y-2.3
X12.6Y-2.525
X12.6239Y-4.8489
X12.625Y-2.225
X12.625Y-2.55
X12.625Y-3.25
X12.625Y-3.425
X12.625Y-3.475
X12.65Y-2.35
X12.65Y-2.575
X12.6557Y-6.6807
X12.675Y-2.5
X12.675Y-2.875
X12.675Y-4.975
X12.675Y-5.075
X12.6989Y-2.4011
X12.6989Y-6.2739
X12.7Y-2.375
X12.7Y-2.525
X12.7Y-3.875
X12.7Y-5.025
X12.7Y-5.875
X12.7Y-5.975
X12.7211Y-3.2343
X12.725Y-2.825
X12.725Y-3.075
X12.725Y-5.2
X12.725Y-5.975
X12.725Y-6.25
X12.725Y-6.725
X12.75Y-2.875
X12.75Y-3.175
X12.75Y-3.2
X12.75Y-3.45
X12.75Y-4.85
X12.75Y-5.325
X12.75Y-5.375
X12.75Y-5.75
X12.75Y-5.875
X12.75Y-6.2
X12.75Y-6.45
X12.75Y-6.675
X12.75Y-7.9
X12.75Y-8.35
X12.7739Y-6.3239
X12.775Y-4.175
X12.775Y-5.725
X12.775Y-5.9
X12.775Y-6.625
X12.775Y-6.9
X12.7813Y-8.4937
X12.7896Y-6.5396
X12.7896Y-6.8146
X12.799Y-5.4943
X12.7992Y-2.5489
X12.8Y-2.35
X12.8Y-2.375
X12.8Y-2.45
X12.8Y-2.475
X12.8Y-2.5
X12.8Y-2.525
X12.8Y-2.975
X12.8Y-3.0
X12.8Y-3.075
X12.8Y-3.1
X12.8Y-3.125
X12.8Y-3.15
X12.8Y-3.175
X12.8Y-3.2
X12.8Y-3.225
X12.8Y-3.6
X12.8Y-3.625
X12.8Y-3.7
X12.8Y-3.725
X12.8Y-3.75
X12.8Y-3.775
X12.8Y-3.8
X12.8Y-3.825
X12.8Y-3.85
X12.8Y-3.95
X12.8Y-4.025
X12.8Y-4.225
X12.8Y-4.25
X12.8Y-4.325
X12.8Y-4.35
X12.8Y-4.375
X12.8Y-4.4
X12.8Y-4.425
X12.8Y-4.45
X12.8Y-4.475
X12.8Y-4.85
X12.8Y-4.875
X12.8Y-4.95
X12.8Y-5.0
X12.8Y-5.025
X12.8Y-5.05
X12.8Y-5.075
X12.8Y-5.1
X12.8Y-5.575
X12.8Y-5.6
X12.8Y-5.625
X12.8Y-7.225
X12.8Y-7.675
X12.8Y-7.8533
X12.8Y-8.125
X12.8Y-8.55
X12.8Y-8.7238
X12.8002Y-5.4707
X12.8003Y-7.4033
X12.8012Y-8.3033
X12.8063Y-8.4937
X12.825Y-2.775
X12.825Y-5.85
X12.825Y-6.225
X12.85Y-3.325
X12.85Y-3.95
X12.85Y-4.575
X12.85Y-5.2
X12.85Y-5.8
X12.85Y-6.35
X12.85Y-6.45
X12.85Y-6.575
X12.85Y-6.85
X12.85Y-7.425
X12.85Y-7.875
X12.85Y-7.975
X12.85Y-8.2
X12.85Y-8.65
X12.875Y-6.5
X12.875Y-7.225
X12.875Y-7.675
X12.875Y-8.125
X12.875Y-8.425
X12.875Y-8.55
X12.8864Y-2.5864
X12.8953Y-2.5645
X12.8989Y-2.4118
X12.8989Y-3.0368
X12.8989Y-3.6618
X12.8989Y-4.2868
X12.8989Y-4.9118
X12.8989Y-5.5368
X12.9Y-4.975
X12.9Y-5.375
X12.9Y-6.225
X12.9Y-6.3
X12.9Y-7.45
X12.9Y-8.35
X12.9Y-8.4
X12.9Y-8.7762
X12.9011Y-7.9011
X12.9032Y-2.3886
X12.9032Y-3.0136
X12.9032Y-3.6386
X12.9032Y-4.2636
X12.9032Y-4.8886
X12.9032Y-5.5136
X12.9069Y-5.65
X12.9206Y-5.7466
X12.9239Y-6.3989
X12.925Y-2.325
X12.925Y-2.95
X12.925Y-3.575
X12.925Y-4.2
X12.925Y-4.825
X12.925Y-5.125
X12.925Y-5.4
X12.925Y-5.45
X12.925Y-5.7
X12.925Y-6.175
X12.925Y-6.325
X12.925Y-7.5
X12.9388Y-5.7617
X12.95Y-2.35
X12.95Y-2.975
X12.95Y-3.6
X12.95Y-4.225
X12.95Y-4.85
X12.95Y-5.475
X12.95Y-6.625
X12.95Y-6.9
X12.9537Y-6.3522
X12.9732Y-5.7362
X12.975Y-2.375
X12.975Y-3.0
X12.975Y-3.625
X12.975Y-4.25
X12.975Y-4.875
X12.975Y-5.5
X12.975Y-6.225
X12.975Y-6.5
X12.975Y-6.575
X12.975Y-8.7238
X12.9753Y-7.4033
X12.9753Y-7.8533
X12.9761Y-6.9011
X12.9764Y-5.7128
X12.977Y-5.7748
X12.9813Y-7.5937
X12.9813Y-8.0437
X13.0Y-2.4
X13.0Y-3.025
X13.0Y-3.65
X13.0Y-4.275
X13.0Y-4.9
X13.0Y-5.525
X13.0Y-5.825
X13.0195Y-5.9193
X13.025Y-2.425
X13.025Y-3.05
X13.025Y-3.675
X13.025Y-4.3
X13.025Y-4.925
X13.025Y-5.55
X13.025Y-6.45
X13.025Y-6.725
X13.0262Y-8.3033
X13.0304Y-5.8316
X13.0483Y-5.7439
X13.05Y-2.275
X13.05Y-2.425
X13.05Y-3.05
X13.05Y-3.675
X13.05Y-4.3
X13.05Y-4.925
X13.05Y-5.55
X13.05Y-5.675
X13.05Y-6.225
X13.05Y-6.85
X13.075Y-2.25
X13.075Y-2.4
X13.075Y-3.025
X13.075Y-3.65
X13.075Y-4.275
X13.075Y-4.9
X13.075Y-5.525
X13.075Y-5.65
X13.075Y-5.675
X13.0773Y-5.8661
X13.1Y-2.3
X13.1Y-2.375
X13.1Y-3.0
X13.1Y-3.625
X13.1Y-4.25
X13.1Y-4.875
X13.1Y-5.5
X13.1Y-5.7
X13.1Y-6.325
X13.1Y-6.6
X13.1Y-6.85
X13.125Y-2.25
X13.125Y-2.35
X13.125Y-2.975
X13.125Y-3.6
X13.125Y-4.225
X13.125Y-4.85
X13.125Y-5.475
X13.125Y-5.75
X13.125Y-5.775
X13.125Y-6.225
X13.1386Y-6.3807
X13.15Y-2.5
X13.15Y-2.575
X13.15Y-3.125
X13.15Y-3.2
X13.15Y-3.75
X13.15Y-3.825
X13.15Y-4.025
X13.15Y-4.35
X13.15Y-4.375
X13.15Y-4.45
X13.15Y-5.0
X13.15Y-5.075
X13.15Y-5.625
X13.15Y-5.7
X13.15Y-6.175
X13.15Y-6.45
X13.15Y-6.725
X13.175Y-2.525
X13.175Y-2.65
X13.175Y-3.15
X13.175Y-3.275
X13.175Y-3.775
X13.175Y-3.9
X13.175Y-3.975
X13.175Y-4.4
X13.175Y-4.525
X13.175Y-5.025
X13.175Y-5.15
X13.175Y-6.35
X13.175Y-6.425
X13.2Y-2.55
X13.2Y-2.725
X13.2Y-3.175
X13.2Y-3.35
X13.2Y-3.8
X13.2Y-4.425
X13.2Y-4.6
X13.2Y-5.05
X13.2Y-5.225
X13.2Y-5.3
X13.2Y-5.6
X13.2Y-5.725
X13.2Y-6.225
X13.2011Y-3.9739
X13.2124Y-6.5376
X13.2124Y-6.8126
X13.225Y-2.6
X13.225Y-2.8
X13.225Y-3.225
X13.225Y-3.425
X13.225Y-3.85
X13.225Y-4.0465
X13.225Y-4.1
X13.225Y-4.475
X13.225Y-4.675
X13.225Y-5.1
X13.225Y-5.3
X13.225Y-6.3
X13.225Y-6.425
X13.25Y-2.625
X13.25Y-3.25
X13.25Y-3.5
X13.25Y-3.875
X13.25Y-4.5
X13.25Y-4.75
X13.25Y-5.125
X13.25Y-5.375
X13.25Y-5.4
X13.25Y-5.575
X13.25Y-5.7
X13.25Y-6.45
X13.25Y-7.0
X13.25Y-7.5
X13.2511Y-2.8739
X13.2545Y-6.8511
X13.2593Y-4.1343
X13.2684Y-5.7946
X13.2711Y-6.2907
X13.275Y-6.225
X13.2974Y-6.5
X13.3Y-2.4
X13.3Y-2.425
X13.3Y-2.525
X13.3Y-3.025
X13.3Y-3.05
X13.3Y-3.15
X13.3Y-3.65
X13.3Y-3.675
X13.3Y-3.775
X13.3Y-4.275
X13.3Y-4.3
X13.3Y-4.4
X13.3Y-4.9
X13.3Y-4.925
X13.3Y-5.025
X13.3Y-5.525
X13.3Y-5.55
X13.3Y-5.65
X13.3Y-6.85
X13.3Y-6.875
X13.3Y-6.9
X13.3011Y-6.3511
X13.35Y-3.325
X13.35Y-3.95
X13.35Y-5.8262
X13.35Y-6.225
X13.35Y-6.45
X13.35Y-6.725
X13.35Y-7.075
X13.375Y-5.8
X13.3961Y-6.1157
X13.3989Y-6.4239
X13.4Y-2.35
X13.4Y-2.375
X13.4Y-2.7
X13.4Y-2.975
X13.4Y-3.0
X13.4Y-3.6
X13.4Y-3.625
X13.4Y-4.225
X13.4Y-4.25
X13.4Y-4.575
X13.4Y-4.85
X13.4Y-4.875
X13.4Y-5.2
X13.4Y-5.475
X13.4Y-5.5
X13.4124Y-6.5374
X13.4124Y-6.8126
X13.425Y-6.175
X13.425Y-7.05
X13.4465Y-7.0006
X13.45Y-2.7
X13.45Y-3.325
X13.45Y-3.95
X13.45Y-4.575
X13.45Y-5.2
X13.45Y-5.8
X13.45Y-5.875
X13.45Y-6.925
X13.45Y-7.075
X13.45Y-7.125
X13.45Y-7.575
X13.45Y-8.025
X13.45Y-8.475
X13.4657Y-6.05
X13.475Y-2.525
X13.475Y-2.9
X13.475Y-3.15
X13.475Y-3.775
X13.475Y-4.4
X13.475Y-5.025
X13.475Y-5.65
X13.475Y-5.975
X13.475Y-7.075
X13.4807Y-4.0761
X13.4959Y-6.2248
X13.5Y-3.9
X13.5Y-6.9843
X13.5Y-7.05
X13.525Y-7.0657
X13.55Y-5.75
X13.55Y-6.95
X13.5672Y-5.7899
X13.575Y-5.85
X13.575Y-6.925
X13.575Y-7.3988
X13.6Y-2.35
X13.6Y-2.425
X13.6Y-2.4988
X13.6Y-2.575
X13.6Y-2.65
X13.6Y-2.725
X13.6Y-2.8
X13.6Y-2.875
X13.6Y-2.975
X13.6Y-3.05
X13.6Y-3.1238
X13.6Y-3.2
X13.6Y-3.275
X13.6Y-3.35
X13.6Y-3.425
X13.6Y-3.5
X13.6Y-3.6
X13.6Y-3.675
X13.6Y-3.7488
X13.6Y-3.825
X13.6Y-3.9
X13.6Y-3.975
X13.6Y-4.05
X13.6Y-4.125
X13.6Y-4.225
X13.6Y-4.3
X13.6Y-4.3738
X13.6Y-4.45
X13.6Y-4.525
X13.6Y-4.6
X13.6Y-4.675
X13.6Y-4.75
X13.6Y-4.85
X13.6Y-4.925
X13.6Y-4.9988
X13.6Y-5.075
X13.6Y-5.15
X13.6Y-5.225
X13.6Y-5.3
X13.6Y-5.375
X13.6Y-5.475
X13.6Y-5.55
X13.6Y-5.625
X13.6Y-5.7
X13.6Y-5.9
X13.6Y-5.925
X13.6Y-6.075
X13.6Y-6.9
X13.6011Y-5.8511
X13.625Y-6.025
X13.625Y-6.9
X13.625Y-7.125
X13.625Y-7.575
X13.625Y-8.025
X13.625Y-8.475
X13.6261Y-6.1489
X13.6296Y-5.762
X13.65Y-6.075
X13.6733Y-5.7475
X13.675Y-5.95
X13.675Y-6.05
X13.675Y-6.725
X13.6876Y-6.5376
X13.7Y-5.975
X13.71Y-5.6652
X13.7136Y-5.9481
X13.725Y-6.875
X13.725Y-7.175
X13.725Y-7.625
X13.725Y-8.075
X13.725Y-8.525
X13.75Y-7.725
X13.7624Y-6.5376
X13.775Y-6.725
X13.775Y-7.125
X13.7835Y-8.1892
X13.8Y-2.7
X13.8Y-3.325
X13.8Y-3.95
X13.8Y-4.575
X13.8Y-5.2
X13.8Y-6.1
X13.8Y-6.45
X13.8193Y-6.0614
X13.825Y-7.125
X13.825Y-7.575
X13.825Y-8.025
X13.825Y-8.475
X13.8278Y-5.9278
X13.85Y-4.175
X13.85Y-5.875
X13.85Y-6.125
X13.85Y-8.425
X13.875Y-3.7
X13.875Y-4.025
X13.875Y-6.075
X13.875Y-6.1
X13.875Y-7.4512
X13.875Y-7.9
X13.875Y-8.775
X13.9Y-5.975
X13.9Y-6.875
X13.9Y-8.35
X13.9061Y-5.4061
X13.9093Y-4.8
X13.9093Y-5.9989
X13.9167Y-5.8333
X13.9239Y-7.6239
X13.925Y-7.175
X13.925Y-7.95
X13.925Y-8.075
X13.925Y-8.525
X13.925Y-8.625
X13.9445Y-5.8195
X13.95Y-6.45
X13.95Y-7.9
X13.95Y-7.95
X13.95Y-8.425
X13.975Y-6.125
X13.975Y-8.625
X13.975Y-8.8
X13.9807Y-4.1489
X13.9966Y-5.8372
X14.0Y-3.45
X14.0Y-5.675
X14.0Y-7.125
X14.0Y-7.325
X14.0Y-7.35
X14.0Y-7.375
X14.0Y-7.575
X14.0124Y-6.5376
X14.0193Y-3.9614
X14.025Y-3.75
X14.025Y-6.725
X14.025Y-8.475
X14.0261Y-5.7261
X14.0278Y-5.9278
X14.0343Y-5.25
X14.0491Y-5.8386
X14.05Y-5.8622
X14.05Y-5.8
X14.05Y-6.175
X14.075Y-2.825
X14.075Y-6.2
X14.075Y-6.225
X14.0886Y-6.9407
X14.0955Y-6.9136
X14.0989Y-5.7739
X14.1Y-2.725
X14.1Y-5.975
X14.1221Y-8.5197
X14.125Y-2.175
X14.125Y-3.6
X14.125Y-4.225
X14.125Y-6.15
X14.125Y-7.0
X14.1364Y-5.8009
X14.15Y-5.7407
X14.15Y-6.45
X14.15Y-6.9407
X14.175Y-4.0
X14.175Y-5.825
X14.175Y-6.4
X14.175Y-8.375
X14.2Y-6.1
X14.2124Y-6.5374
X14.225Y-6.7
X14.2278Y-5.9278
X14.25Y-5.875
X14.25Y-6.325
X14.25Y-6.725
X14.25Y-6.9
X14.2551Y-4.925
X14.2551Y-5.775
X14.275Y-5.975
X14.275Y-6.075
X14.275Y-6.425
X14.3Y-5.8
X14.3Y-6.175
X14.3Y-6.975
X14.3051Y-4.1
X14.3052Y-5.7546
X14.3069Y-4.8069
X14.325Y-3.35
X14.325Y-6.25
X14.325Y-6.45
X14.325Y-6.725
X14.325Y-7.0343
X14.325Y-7.0579
X14.35Y-3.275
X14.35Y-6.275
X14.35Y-7.1
X14.35Y-8.45
X14.375Y-3.2
X14.375Y-6.3
X14.375Y-7.125
X14.375Y-7.975
X14.375Y-8.375
X14.3772Y-7.0713
X14.3805Y-6.5305
X14.4Y-3.125
X14.4Y-6.325
X14.4Y-6.725
X14.425Y-3.05
X14.425Y-6.35
X14.425Y-6.4
X14.425Y-6.975
X14.425Y-8.4
X14.4261Y-7.0011
X14.45Y-2.975
X14.45Y-6.375
X14.45Y-6.425
T2
X2.025Y-4.6992
X2.0334Y-4.4065
X2.35Y-3.275
X2.35Y-3.325
X2.35Y-3.375
X2.425Y-3.7
X2.425Y-4.4258
X3.25Y-3.225
X3.25Y-3.275
X3.25Y-3.325
X3.25Y-3.375
X3.275Y-2.825
X3.425Y-2.325
X3.425Y-2.775
X3.425Y-3.15
X3.45Y-5.175
X3.45Y-5.5492
X3.45Y-6.0258
X3.45Y-6.4742
X3.4508Y-6.3193
X3.4577Y-4.7444
X3.4609Y-7.2786
X3.475Y-6.875
X3.475Y-7.45
X3.475Y-7.675
X3.475Y-7.925
X3.475Y-8.075
X3.475Y-8.4508
X3.475Y-8.525
X3.4793Y-5.0176
X3.4815Y-7.1549
X3.4943Y-4.7008
X3.4943Y-4.8024
X3.4958Y-8.4857
X3.4992Y-2.825
X3.4992Y-3.45
X3.4992Y-4.5508
X3.4992Y-5.275
X3.5Y-2.15
X3.5Y-2.2
X3.5Y-3.2258
X3.5Y-5.675
X3.5Y-6.125
X3.5Y-6.4258
X3.5119Y-8.0258
X3.5157Y-6.8343
X3.5157Y-7.2343
X3.5157Y-7.4106
X3.5157Y-7.6343
X4.6471Y-3.4615
X4.6492Y-3.8484
X4.8492Y-4.7008
X4.8508Y-4.8242
X5.1844Y-7.7008
X5.1844Y-7.8008
X5.1891Y-8.1033
X5.1923Y-8.5173
X5.1992Y-7.4008
X5.2Y-5.4508
X5.2Y-5.5919
X5.2251Y-5.8106
X5.2492Y-6.05
X5.25Y-6.225
X5.2907Y-4.8102
X5.3008Y-5.5258
X5.3182Y-5.6804
X5.325Y-7.3258
X5.3322Y-5.8928
X5.3422Y-6.4242
X5.3492Y-5.4508
X5.3492Y-5.125
X5.35Y-4.4242
X5.35Y-4.7508
X5.7195Y-3.6901
X5.7242Y-4.0
X5.7242Y-4.425
X5.725Y-3.35
X5.7593Y-3.725
X5.7673Y-3.8777
X6.775Y-6.075
X6.775Y-6.2242
X6.775Y-6.325
X6.7992Y-7.0
X6.8Y-6.7008
X6.8127Y-5.5377
X6.8178Y-5.8928
X6.8242Y-6.15
X6.825Y-6.45
X6.975Y-8.525
X6.975Y-8.7285
X6.9758Y-7.2258
X7.0492Y-8.4242
X7.0509Y-7.4051
X7.064Y-7.774
X7.0657Y-7.4998
X7.0657Y-7.6466
X7.45Y-3.4258
X7.45Y-4.85
X7.4547Y-3.6721
X7.4992Y-2.9758
X7.6Y-4.775
X7.6009Y-5.1258
X7.65Y-3.0242
X7.65Y-3.1228
X7.65Y-4.4008
X7.6503Y-3.2343
X7.6506Y-3.3557
X7.6508Y-2.3492
X7.6508Y-3.775
X7.6524Y-2.8373
X8.05Y-2.15
X8.1174Y-5.7949
X8.125Y-5.8742
X8.475Y-8.4242
X8.775Y-8.625
X8.775Y-8.725
X8.8242Y-8.675
X8.825Y-7.95
X8.825Y-8.525
X8.8292Y-8.4407
X8.8301Y-7.6758
X8.85Y-7.0
X8.85Y-7.1242
X8.85Y-7.4
X8.85Y-7.5
X8.975Y-2.15
X9.025Y-2.1992
X9.075Y-2.15
X9.3258Y-5.15
X9.3258Y-5.4449
X9.3693Y-5.5245
X9.371Y-3.7534
X9.375Y-4.3758
X9.375Y-4.8742
X9.375Y-5.775
X9.375Y-5.925
X9.375Y-6.0758
X9.375Y-6.325
X9.3758Y-3.0732
X9.3758Y-3.35
X9.3763Y-5.2513
X9.3763Y-5.6013
X9.3776Y-2.8974
X9.3807Y-4.0742
X9.4083Y-6.945
X9.4093Y-7.1843
X9.4217Y-3.5934
X9.4217Y-3.8
X9.4242Y-2.925
X9.4242Y-4.1992
X9.425Y-2.325
X10.35Y-7.275
X10.35Y-7.6
X10.35Y-7.675
X11.175Y-8.5
X11.225Y-7.575
X11.225Y-7.9008
X11.225Y-8.2258
X11.225Y-8.55
X11.2258Y-7.2008
X11.2258Y-8.125
X11.4Y-6.8134
X11.4008Y-4.2008
X11.4028Y-5.1992
X11.4028Y-5.6028
X11.4028Y-5.9278
X11.4055Y-4.7445
X11.4093Y-6.551
X11.4208Y-4.4708
X11.425Y-3.1992
X11.425Y-3.3492
X11.425Y-3.575
X11.425Y-3.6992
X11.425Y-4.0492
X11.4258Y-2.8963
X11.4258Y-3.0213
X12.5478Y-8.7272
X12.55Y-8.175
X12.55Y-8.6
X12.5522Y-7.3772
X12.5522Y-7.5772
X12.5522Y-7.8272
X12.5522Y-8.2772
X12.6063Y-8.4937
X12.6187Y-8.0437
X12.625Y-5.5242
X12.625Y-5.7992
X12.625Y-5.8508
X12.625Y-6.225
X12.625Y-6.45
X12.625Y-6.7258
X12.625Y-7.1258
X12.6313Y-7.5937
X12.675Y-2.925
X12.675Y-3.1008
X12.675Y-3.375
X12.675Y-3.65
X12.675Y-4.3758
X12.675Y-4.65
X12.675Y-4.925
X13.75Y-5.8008
X13.95Y-2.1492
X13.95Y-2.525
X14.0624Y-6.8126
X14.075Y-7.175
X14.075Y-7.425
X14.075Y-7.625
X14.075Y-7.825
X14.075Y-8.075
X14.075Y-8.225
X14.075Y-8.275
X14.125Y-8.725
X14.175Y-8.525
X14.225Y-5.025
X14.2307Y-4.4193
X14.25Y-5.65
X14.275Y-2.525
X14.275Y-3.15
X14.275Y-3.775
T3
X1.7805Y-2.3
X1.7805Y-8.65
X1.8082Y-2.2332
X1.8082Y-2.3668
X1.8082Y-8.5832
X1.8082Y-8.7168
X1.875Y-2.2055
X1.875Y-2.3945
X1.875Y-8.5555
X1.875Y-8.7445
X1.9418Y-2.2332
X1.9418Y-2.3668
X1.9418Y-8.5832
X1.9418Y-8.7168
X1.9695Y-2.3
X1.9695Y-8.65
X14.2055Y-2.3
X14.2055Y-8.65
X14.2332Y-2.2332
X14.2332Y-2.3668
X14.2332Y-8.5832
X14.2332Y-8.7168
X14.3Y-2.2055
X14.3Y-2.3945
X14.3Y-8.5555
X14.3Y-8.7445
X14.3668Y-2.2332
X14.3668Y-2.3668
X14.3668Y-8.5832
X14.3668Y-8.7168
X14.3945Y-2.3
X14.3945Y-8.65
T4
X1.8Y-3.275
X1.8Y-3.375
X7.075Y-8.525
X7.075Y-8.625
X7.175Y-8.525
X7.175Y-8.625
X7.275Y-8.525
X7.275Y-8.625
X7.375Y-8.525
X7.375Y-8.625
X7.475Y-8.525
X7.475Y-8.625
X7.575Y-8.525
X7.575Y-8.625
X7.675Y-8.525
X7.675Y-8.625
X7.775Y-8.525
X7.775Y-8.625
X7.875Y-8.525
X7.875Y-8.625
X7.975Y-8.525
X7.975Y-8.625
X8.075Y-8.525
X8.075Y-8.625
X8.125Y-2.325
X8.125Y-2.425
X8.175Y-8.525
X8.175Y-8.625
X8.225Y-2.325
X8.225Y-2.425
X8.275Y-8.525
X8.275Y-8.625
X8.325Y-2.325
X8.325Y-2.425
X8.375Y-8.525
X8.375Y-8.625
X8.425Y-2.325
X8.425Y-2.425
X8.475Y-8.525
X8.475Y-8.625
X8.525Y-2.325
X8.525Y-2.425
X8.625Y-2.325
X8.625Y-2.425
X8.725Y-2.325
X8.725Y-2.425
X8.825Y-2.325
X8.825Y-2.425
X8.925Y-2.325
X8.925Y-2.425
X9.025Y-2.325
X9.025Y-2.425
X9.875Y-8.375
X9.875Y-8.475
X14.175Y-7.35
X14.175Y-7.45
X14.175Y-7.55
X14.175Y-7.65
X14.175Y-7.75
X14.175Y-7.85
X14.175Y-7.95
X14.175Y-8.05
X14.175Y-8.15
X14.175Y-8.25
X14.275Y-7.35
X14.275Y-7.45
X14.275Y-7.55
X14.275Y-7.65
X14.275Y-7.75
X14.275Y-7.85
X14.275Y-7.95
X14.275Y-8.05
X14.275Y-8.15
X14.275Y-8.25
T5
X12.45Y-7.2
X12.45Y-7.3772
X12.45Y-7.65
X12.45Y-7.8272
X12.45Y-8.1
X12.45Y-8.2772
X12.45Y-8.55
X12.45Y-8.7272
X12.7059Y-7.2
X12.7059Y-7.3772
X12.7059Y-7.65
X12.7059Y-7.8272
X12.7059Y-8.1
X12.7059Y-8.2772
X12.7059Y-8.55
X12.7059Y-8.7272
X13.075Y-7.2
X13.075Y-7.3772
X13.075Y-7.65
X13.075Y-7.8272
X13.075Y-8.1
X13.075Y-8.2772
X13.075Y-8.55
X13.075Y-8.7272
X13.3309Y-7.2
X13.3309Y-7.3772
X13.3309Y-7.65
X13.3309Y-7.8272
X13.3309Y-8.1
X13.3309Y-8.2772
X13.3309Y-8.55
X13.3309Y-8.7272
T6
X1.875Y-2.3
X1.875Y-8.65
X14.3Y-2.3
X14.3Y-8.65
T4
G00X2.0388Y-2.8606
M15
G01X2.0388Y-2.9394
M16
G05
G00X2.1175Y-3.085
M15
G01X2.1963Y-3.085
M16
G05
G00X2.275Y-2.8606
M15
G01X2.275Y-2.9394
M16
G05
T0
M30
