G04 #@! TF.GenerationSoftware,KiCad,Pcbnew,(5.1.9)-1*
G04 #@! TF.CreationDate,2021-03-30T20:53:22+02:00*
G04 #@! TF.ProjectId,psMCU,70734d43-552e-46b6-9963-61645f706362,v0.1*
G04 #@! TF.SameCoordinates,Original*
G04 #@! TF.FileFunction,Soldermask,Bot*
G04 #@! TF.FilePolarity,Negative*
%FSLAX46Y46*%
G04 Gerber Fmt 4.6, Leading zero omitted, Abs format (unit mm)*
G04 Created by KiCad (PCBNEW (5.1.9)-1) date 2021-03-30 20:53:22*
%MOMM*%
%LPD*%
G01*
G04 APERTURE LIST*
%ADD10C,1.700000*%
%ADD11C,2.000000*%
%ADD12O,1.700000X1.700000*%
%ADD13R,1.700000X1.700000*%
%ADD14R,3.500000X3.500000*%
%ADD15C,0.800000*%
%ADD16C,6.400000*%
G04 APERTURE END LIST*
D10*
X198120000Y-61595000D03*
X200660000Y-61595000D03*
X203200000Y-61595000D03*
X205740000Y-61595000D03*
X208280000Y-61595000D03*
X210820000Y-61595000D03*
X213360000Y-61595000D03*
X215900000Y-61595000D03*
X218440000Y-61595000D03*
X220980000Y-61595000D03*
X198120000Y-59055000D03*
X200660000Y-59055000D03*
X203200000Y-59055000D03*
X205740000Y-59055000D03*
X208280000Y-59055000D03*
X210820000Y-59055000D03*
X213360000Y-59055000D03*
X215900000Y-59055000D03*
X218440000Y-59055000D03*
G36*
G01*
X220380000Y-58205000D02*
X221580000Y-58205000D01*
G75*
G02*
X221830000Y-58455000I0J-250000D01*
G01*
X221830000Y-59655000D01*
G75*
G02*
X221580000Y-59905000I-250000J0D01*
G01*
X220380000Y-59905000D01*
G75*
G02*
X220130000Y-59655000I0J250000D01*
G01*
X220130000Y-58455000D01*
G75*
G02*
X220380000Y-58205000I250000J0D01*
G01*
G37*
D11*
X338605000Y-198120000D03*
X338605000Y-202620000D03*
X332105000Y-198120000D03*
X332105000Y-202620000D03*
X322730000Y-198120000D03*
X322730000Y-202620000D03*
X316230000Y-198120000D03*
X316230000Y-202620000D03*
X338605000Y-209550000D03*
X338605000Y-214050000D03*
X332105000Y-209550000D03*
X332105000Y-214050000D03*
X322730000Y-209550000D03*
X322730000Y-214050000D03*
X316230000Y-209550000D03*
X316230000Y-214050000D03*
X338605000Y-186690000D03*
X338605000Y-191190000D03*
X332105000Y-186690000D03*
X332105000Y-191190000D03*
X322730000Y-186690000D03*
X322730000Y-191190000D03*
X316230000Y-186690000D03*
X316230000Y-191190000D03*
X338605000Y-175260000D03*
X338605000Y-179760000D03*
X332105000Y-175260000D03*
X332105000Y-179760000D03*
X322730000Y-175260000D03*
X322730000Y-179760000D03*
X316230000Y-175260000D03*
X316230000Y-179760000D03*
D10*
X218440000Y-208915000D03*
X215900000Y-208915000D03*
X213360000Y-208915000D03*
X210820000Y-208915000D03*
X208280000Y-208915000D03*
X205740000Y-208915000D03*
X203200000Y-208915000D03*
X200660000Y-208915000D03*
X198120000Y-208915000D03*
X195580000Y-208915000D03*
X193040000Y-208915000D03*
X190500000Y-208915000D03*
X187960000Y-208915000D03*
X185420000Y-208915000D03*
X182880000Y-208915000D03*
X218440000Y-211455000D03*
X215900000Y-211455000D03*
X213360000Y-211455000D03*
X210820000Y-211455000D03*
X208280000Y-211455000D03*
X205740000Y-211455000D03*
X203200000Y-211455000D03*
X200660000Y-211455000D03*
X198120000Y-211455000D03*
X195580000Y-211455000D03*
X193040000Y-211455000D03*
X190500000Y-211455000D03*
X187960000Y-211455000D03*
X185420000Y-211455000D03*
G36*
G01*
X183480000Y-212305000D02*
X182280000Y-212305000D01*
G75*
G02*
X182030000Y-212055000I0J250000D01*
G01*
X182030000Y-210855000D01*
G75*
G02*
X182280000Y-210605000I250000J0D01*
G01*
X183480000Y-210605000D01*
G75*
G02*
X183730000Y-210855000I0J-250000D01*
G01*
X183730000Y-212055000D01*
G75*
G02*
X183480000Y-212305000I-250000J0D01*
G01*
G37*
D12*
X254635000Y-205105000D03*
D13*
X254635000Y-207645000D03*
D10*
X360045000Y-179070000D03*
X360045000Y-181610000D03*
X360045000Y-184150000D03*
X360045000Y-186690000D03*
X360045000Y-189230000D03*
X360045000Y-191770000D03*
X360045000Y-194310000D03*
X360045000Y-196850000D03*
X360045000Y-199390000D03*
X360045000Y-201930000D03*
X362585000Y-179070000D03*
X362585000Y-181610000D03*
X362585000Y-184150000D03*
X362585000Y-186690000D03*
X362585000Y-189230000D03*
X362585000Y-191770000D03*
X362585000Y-194310000D03*
X362585000Y-196850000D03*
X362585000Y-199390000D03*
G36*
G01*
X363435000Y-201330000D02*
X363435000Y-202530000D01*
G75*
G02*
X363185000Y-202780000I-250000J0D01*
G01*
X361985000Y-202780000D01*
G75*
G02*
X361735000Y-202530000I0J250000D01*
G01*
X361735000Y-201330000D01*
G75*
G02*
X361985000Y-201080000I250000J0D01*
G01*
X363185000Y-201080000D01*
G75*
G02*
X363435000Y-201330000I0J-250000D01*
G01*
G37*
D12*
X63500000Y-57150000D03*
D13*
X60960000Y-57150000D03*
G36*
G01*
X45860000Y-64465000D02*
X47610000Y-64465000D01*
G75*
G02*
X48485000Y-65340000I0J-875000D01*
G01*
X48485000Y-67090000D01*
G75*
G02*
X47610000Y-67965000I-875000J0D01*
G01*
X45860000Y-67965000D01*
G75*
G02*
X44985000Y-67090000I0J875000D01*
G01*
X44985000Y-65340000D01*
G75*
G02*
X45860000Y-64465000I875000J0D01*
G01*
G37*
G36*
G01*
X50435000Y-61715000D02*
X52435000Y-61715000D01*
G75*
G02*
X53185000Y-62465000I0J-750000D01*
G01*
X53185000Y-63965000D01*
G75*
G02*
X52435000Y-64715000I-750000J0D01*
G01*
X50435000Y-64715000D01*
G75*
G02*
X49685000Y-63965000I0J750000D01*
G01*
X49685000Y-62465000D01*
G75*
G02*
X50435000Y-61715000I750000J0D01*
G01*
G37*
D14*
X51435000Y-69215000D03*
D15*
X42337056Y-56722944D03*
X40640000Y-56020000D03*
X38942944Y-56722944D03*
X38240000Y-58420000D03*
X38942944Y-60117056D03*
X40640000Y-60820000D03*
X42337056Y-60117056D03*
X43040000Y-58420000D03*
D16*
X40640000Y-58420000D03*
D15*
X42337056Y-210392944D03*
X40640000Y-209690000D03*
X38942944Y-210392944D03*
X38240000Y-212090000D03*
X38942944Y-213787056D03*
X40640000Y-214490000D03*
X42337056Y-213787056D03*
X43040000Y-212090000D03*
D16*
X40640000Y-212090000D03*
D15*
X364917056Y-56722944D03*
X363220000Y-56020000D03*
X361522944Y-56722944D03*
X360820000Y-58420000D03*
X361522944Y-60117056D03*
X363220000Y-60820000D03*
X364917056Y-60117056D03*
X365620000Y-58420000D03*
D16*
X363220000Y-58420000D03*
D15*
X364917056Y-210392944D03*
X363220000Y-209690000D03*
X361522944Y-210392944D03*
X360820000Y-212090000D03*
X361522944Y-213787056D03*
X363220000Y-214490000D03*
X364917056Y-213787056D03*
X365620000Y-212090000D03*
D16*
X363220000Y-212090000D03*
M02*
