M48
; DRILL file {KiCad (5.1.9)-1} date 03/30/21 21:11:28
; FORMAT={-:-/ absolute / inch / decimal}
; #@! TF.CreationDate,2021-03-30T21:11:28+02:00
; #@! TF.GenerationSoftware,Kicad,Pcbnew,(5.1.9)-1
; #@! TF.FileFunction,NonPlated,1,2,NPTH
FMAT,2
INCH
T1C0.0669
T2C0.1575
%
G90
G05
T1
X4.3Y-2.8
X4.3Y-3.6
X4.7Y-2.8
X4.7Y-3.6
X5.1Y-2.8
X5.1Y-3.6
X5.5Y-2.8
X5.5Y-3.6
X5.9Y-2.8
X5.9Y-3.6
X6.3Y-2.8
X6.3Y-3.6
X6.7Y-2.8
X6.7Y-3.6
X7.1Y-2.8
X7.1Y-3.6
T2
X4.5Y-2.8
X4.5Y-3.6
X5.3Y-2.8
X5.3Y-3.6
X6.1Y-2.8
X6.1Y-3.6
X6.9Y-2.8
X6.9Y-3.6
T0
M30
