%TF.GenerationSoftware,KiCad,Pcbnew,(5.1.9)-1*%
%TF.CreationDate,2021-03-30T21:11:26+02:00*%
%TF.ProjectId,RemoteCtrl,52656d6f-7465-4437-9472-6c2e6b696361,v0.1*%
%TF.SameCoordinates,Original*%
%TF.FileFunction,Legend,Bot*%
%TF.FilePolarity,Positive*%
%FSLAX46Y46*%
G04 Gerber Fmt 4.6, Leading zero omitted, Abs format (unit mm)*
G04 Created by KiCad (PCBNEW (5.1.9)-1) date 2021-03-30 21:11:26*
%MOMM*%
%LPD*%
G01*
G04 APERTURE LIST*
%ADD10C,0.300000*%
%ADD11C,0.120000*%
%ADD12C,0.150000*%
G04 APERTURE END LIST*
D10*
X183197142Y-106886428D02*
X182720952Y-108219761D01*
X182244761Y-106886428D01*
X181101904Y-106219761D02*
X180911428Y-106219761D01*
X180720952Y-106315000D01*
X180625714Y-106410238D01*
X180530476Y-106600714D01*
X180435238Y-106981666D01*
X180435238Y-107457857D01*
X180530476Y-107838809D01*
X180625714Y-108029285D01*
X180720952Y-108124523D01*
X180911428Y-108219761D01*
X181101904Y-108219761D01*
X181292380Y-108124523D01*
X181387619Y-108029285D01*
X181482857Y-107838809D01*
X181578095Y-107457857D01*
X181578095Y-106981666D01*
X181482857Y-106600714D01*
X181387619Y-106410238D01*
X181292380Y-106315000D01*
X181101904Y-106219761D01*
X179578095Y-108029285D02*
X179482857Y-108124523D01*
X179578095Y-108219761D01*
X179673333Y-108124523D01*
X179578095Y-108029285D01*
X179578095Y-108219761D01*
X177578095Y-108219761D02*
X178720952Y-108219761D01*
X178149523Y-108219761D02*
X178149523Y-106219761D01*
X178340000Y-106505476D01*
X178530476Y-106695952D01*
X178720952Y-106791190D01*
D11*
%TO.C,R2*%
X104377258Y-43702500D02*
X103902742Y-43702500D01*
X104377258Y-42657500D02*
X103902742Y-42657500D01*
%TO.C,R1*%
X104377258Y-37352500D02*
X103902742Y-37352500D01*
X104377258Y-36307500D02*
X103902742Y-36307500D01*
%TO.C,U8*%
X181545000Y-83800000D02*
X182945000Y-83800000D01*
X182945000Y-86120000D02*
X181045000Y-86120000D01*
%TO.C,U7*%
X181545000Y-63480000D02*
X182945000Y-63480000D01*
X182945000Y-65800000D02*
X181045000Y-65800000D01*
%TO.C,U6*%
X161225000Y-83800000D02*
X162625000Y-83800000D01*
X162625000Y-86120000D02*
X160725000Y-86120000D01*
%TO.C,U5*%
X161225000Y-63480000D02*
X162625000Y-63480000D01*
X162625000Y-65800000D02*
X160725000Y-65800000D01*
%TO.C,U4*%
X140905000Y-83800000D02*
X142305000Y-83800000D01*
X142305000Y-86120000D02*
X140405000Y-86120000D01*
%TO.C,U3*%
X140905000Y-63480000D02*
X142305000Y-63480000D01*
X142305000Y-65800000D02*
X140405000Y-65800000D01*
%TO.C,U2*%
X120585000Y-83800000D02*
X121985000Y-83800000D01*
X121985000Y-86120000D02*
X120085000Y-86120000D01*
%TO.C,U1*%
X120585000Y-63480000D02*
X121985000Y-63480000D01*
X121985000Y-65800000D02*
X120085000Y-65800000D01*
%TO.C,R35*%
X167402742Y-84567500D02*
X167877258Y-84567500D01*
X167402742Y-85612500D02*
X167877258Y-85612500D01*
%TO.C,R34*%
X167402742Y-86472500D02*
X167877258Y-86472500D01*
X167402742Y-87517500D02*
X167877258Y-87517500D01*
%TO.C,R33*%
X170417258Y-97042500D02*
X169942742Y-97042500D01*
X170417258Y-95997500D02*
X169942742Y-95997500D01*
%TO.C,R32*%
X167402742Y-64247500D02*
X167877258Y-64247500D01*
X167402742Y-65292500D02*
X167877258Y-65292500D01*
%TO.C,R31*%
X167402742Y-66152500D02*
X167877258Y-66152500D01*
X167402742Y-67197500D02*
X167877258Y-67197500D01*
%TO.C,R30*%
X170417258Y-76722500D02*
X169942742Y-76722500D01*
X170417258Y-75677500D02*
X169942742Y-75677500D01*
%TO.C,R29*%
X147082742Y-84567500D02*
X147557258Y-84567500D01*
X147082742Y-85612500D02*
X147557258Y-85612500D01*
%TO.C,R28*%
X147082742Y-86472500D02*
X147557258Y-86472500D01*
X147082742Y-87517500D02*
X147557258Y-87517500D01*
%TO.C,R27*%
X150097258Y-97042500D02*
X149622742Y-97042500D01*
X150097258Y-95997500D02*
X149622742Y-95997500D01*
%TO.C,R26*%
X147082742Y-64247500D02*
X147557258Y-64247500D01*
X147082742Y-65292500D02*
X147557258Y-65292500D01*
%TO.C,R25*%
X147082742Y-66152500D02*
X147557258Y-66152500D01*
X147082742Y-67197500D02*
X147557258Y-67197500D01*
%TO.C,R24*%
X150097258Y-76722500D02*
X149622742Y-76722500D01*
X150097258Y-75677500D02*
X149622742Y-75677500D01*
%TO.C,R23*%
X126762742Y-84567500D02*
X127237258Y-84567500D01*
X126762742Y-85612500D02*
X127237258Y-85612500D01*
%TO.C,R22*%
X126762742Y-86472500D02*
X127237258Y-86472500D01*
X126762742Y-87517500D02*
X127237258Y-87517500D01*
%TO.C,R21*%
X129777258Y-97042500D02*
X129302742Y-97042500D01*
X129777258Y-95997500D02*
X129302742Y-95997500D01*
%TO.C,R20*%
X126762742Y-64247500D02*
X127237258Y-64247500D01*
X126762742Y-65292500D02*
X127237258Y-65292500D01*
%TO.C,R19*%
X126762742Y-66152500D02*
X127237258Y-66152500D01*
X126762742Y-67197500D02*
X127237258Y-67197500D01*
%TO.C,R18*%
X129777258Y-76722500D02*
X129302742Y-76722500D01*
X129777258Y-75677500D02*
X129302742Y-75677500D01*
%TO.C,R17*%
X106442742Y-84567500D02*
X106917258Y-84567500D01*
X106442742Y-85612500D02*
X106917258Y-85612500D01*
%TO.C,R16*%
X106442742Y-86472500D02*
X106917258Y-86472500D01*
X106442742Y-87517500D02*
X106917258Y-87517500D01*
%TO.C,R15*%
X109457258Y-97042500D02*
X108982742Y-97042500D01*
X109457258Y-95997500D02*
X108982742Y-95997500D01*
%TO.C,R14*%
X106442742Y-64247500D02*
X106917258Y-64247500D01*
X106442742Y-65292500D02*
X106917258Y-65292500D01*
%TO.C,R13*%
X106442742Y-66152500D02*
X106917258Y-66152500D01*
X106442742Y-67197500D02*
X106917258Y-67197500D01*
%TO.C,R12*%
X109457258Y-76722500D02*
X108982742Y-76722500D01*
X109457258Y-75677500D02*
X108982742Y-75677500D01*
%TO.C,R11*%
X156447258Y-50052500D02*
X155972742Y-50052500D01*
X156447258Y-49007500D02*
X155972742Y-49007500D01*
%TO.C,R10*%
X156447258Y-43702500D02*
X155972742Y-43702500D01*
X156447258Y-42657500D02*
X155972742Y-42657500D01*
%TO.C,R9*%
X156447258Y-37352500D02*
X155972742Y-37352500D01*
X156447258Y-36307500D02*
X155972742Y-36307500D01*
%TO.C,R8*%
X131047258Y-37352500D02*
X130572742Y-37352500D01*
X131047258Y-36307500D02*
X130572742Y-36307500D01*
%TO.C,R7*%
X131047258Y-43702500D02*
X130572742Y-43702500D01*
X131047258Y-42657500D02*
X130572742Y-42657500D01*
%TO.C,C16*%
X182385580Y-87505000D02*
X182104420Y-87505000D01*
X182385580Y-86485000D02*
X182104420Y-86485000D01*
%TO.C,C15*%
X167499420Y-82675000D02*
X167780580Y-82675000D01*
X167499420Y-83695000D02*
X167780580Y-83695000D01*
%TO.C,C14*%
X182385580Y-67185000D02*
X182104420Y-67185000D01*
X182385580Y-66165000D02*
X182104420Y-66165000D01*
%TO.C,C13*%
X167499420Y-62355000D02*
X167780580Y-62355000D01*
X167499420Y-63375000D02*
X167780580Y-63375000D01*
%TO.C,C12*%
X162065580Y-87505000D02*
X161784420Y-87505000D01*
X162065580Y-86485000D02*
X161784420Y-86485000D01*
%TO.C,C11*%
X147179420Y-82675000D02*
X147460580Y-82675000D01*
X147179420Y-83695000D02*
X147460580Y-83695000D01*
%TO.C,C10*%
X162065580Y-67185000D02*
X161784420Y-67185000D01*
X162065580Y-66165000D02*
X161784420Y-66165000D01*
%TO.C,C9*%
X147179420Y-62355000D02*
X147460580Y-62355000D01*
X147179420Y-63375000D02*
X147460580Y-63375000D01*
%TO.C,C8*%
X141745580Y-87505000D02*
X141464420Y-87505000D01*
X141745580Y-86485000D02*
X141464420Y-86485000D01*
%TO.C,C7*%
X126859420Y-82675000D02*
X127140580Y-82675000D01*
X126859420Y-83695000D02*
X127140580Y-83695000D01*
%TO.C,C6*%
X141745580Y-67185000D02*
X141464420Y-67185000D01*
X141745580Y-66165000D02*
X141464420Y-66165000D01*
%TO.C,C5*%
X126859420Y-62355000D02*
X127140580Y-62355000D01*
X126859420Y-63375000D02*
X127140580Y-63375000D01*
%TO.C,C4*%
X121425580Y-87505000D02*
X121144420Y-87505000D01*
X121425580Y-86485000D02*
X121144420Y-86485000D01*
%TO.C,C3*%
X106539420Y-82675000D02*
X106820580Y-82675000D01*
X106539420Y-83695000D02*
X106820580Y-83695000D01*
%TO.C,C2*%
X121425580Y-67185000D02*
X121144420Y-67185000D01*
X121425580Y-66165000D02*
X121144420Y-66165000D01*
%TO.C,C1*%
X106539420Y-62355000D02*
X106820580Y-62355000D01*
X106539420Y-63375000D02*
X106820580Y-63375000D01*
%TO.C,R2*%
D12*
X104306666Y-42202380D02*
X104640000Y-41726190D01*
X104878095Y-42202380D02*
X104878095Y-41202380D01*
X104497142Y-41202380D01*
X104401904Y-41250000D01*
X104354285Y-41297619D01*
X104306666Y-41392857D01*
X104306666Y-41535714D01*
X104354285Y-41630952D01*
X104401904Y-41678571D01*
X104497142Y-41726190D01*
X104878095Y-41726190D01*
X103925714Y-41297619D02*
X103878095Y-41250000D01*
X103782857Y-41202380D01*
X103544761Y-41202380D01*
X103449523Y-41250000D01*
X103401904Y-41297619D01*
X103354285Y-41392857D01*
X103354285Y-41488095D01*
X103401904Y-41630952D01*
X103973333Y-42202380D01*
X103354285Y-42202380D01*
%TO.C,R1*%
X104306666Y-35852380D02*
X104640000Y-35376190D01*
X104878095Y-35852380D02*
X104878095Y-34852380D01*
X104497142Y-34852380D01*
X104401904Y-34900000D01*
X104354285Y-34947619D01*
X104306666Y-35042857D01*
X104306666Y-35185714D01*
X104354285Y-35280952D01*
X104401904Y-35328571D01*
X104497142Y-35376190D01*
X104878095Y-35376190D01*
X103354285Y-35852380D02*
X103925714Y-35852380D01*
X103640000Y-35852380D02*
X103640000Y-34852380D01*
X103735238Y-34995238D01*
X103830476Y-35090476D01*
X103925714Y-35138095D01*
%TO.C,U8*%
X183006904Y-82637380D02*
X183006904Y-83446904D01*
X182959285Y-83542142D01*
X182911666Y-83589761D01*
X182816428Y-83637380D01*
X182625952Y-83637380D01*
X182530714Y-83589761D01*
X182483095Y-83542142D01*
X182435476Y-83446904D01*
X182435476Y-82637380D01*
X181816428Y-83065952D02*
X181911666Y-83018333D01*
X181959285Y-82970714D01*
X182006904Y-82875476D01*
X182006904Y-82827857D01*
X181959285Y-82732619D01*
X181911666Y-82685000D01*
X181816428Y-82637380D01*
X181625952Y-82637380D01*
X181530714Y-82685000D01*
X181483095Y-82732619D01*
X181435476Y-82827857D01*
X181435476Y-82875476D01*
X181483095Y-82970714D01*
X181530714Y-83018333D01*
X181625952Y-83065952D01*
X181816428Y-83065952D01*
X181911666Y-83113571D01*
X181959285Y-83161190D01*
X182006904Y-83256428D01*
X182006904Y-83446904D01*
X181959285Y-83542142D01*
X181911666Y-83589761D01*
X181816428Y-83637380D01*
X181625952Y-83637380D01*
X181530714Y-83589761D01*
X181483095Y-83542142D01*
X181435476Y-83446904D01*
X181435476Y-83256428D01*
X181483095Y-83161190D01*
X181530714Y-83113571D01*
X181625952Y-83065952D01*
%TO.C,U7*%
X183006904Y-62317380D02*
X183006904Y-63126904D01*
X182959285Y-63222142D01*
X182911666Y-63269761D01*
X182816428Y-63317380D01*
X182625952Y-63317380D01*
X182530714Y-63269761D01*
X182483095Y-63222142D01*
X182435476Y-63126904D01*
X182435476Y-62317380D01*
X182054523Y-62317380D02*
X181387857Y-62317380D01*
X181816428Y-63317380D01*
%TO.C,U6*%
X162686904Y-82637380D02*
X162686904Y-83446904D01*
X162639285Y-83542142D01*
X162591666Y-83589761D01*
X162496428Y-83637380D01*
X162305952Y-83637380D01*
X162210714Y-83589761D01*
X162163095Y-83542142D01*
X162115476Y-83446904D01*
X162115476Y-82637380D01*
X161210714Y-82637380D02*
X161401190Y-82637380D01*
X161496428Y-82685000D01*
X161544047Y-82732619D01*
X161639285Y-82875476D01*
X161686904Y-83065952D01*
X161686904Y-83446904D01*
X161639285Y-83542142D01*
X161591666Y-83589761D01*
X161496428Y-83637380D01*
X161305952Y-83637380D01*
X161210714Y-83589761D01*
X161163095Y-83542142D01*
X161115476Y-83446904D01*
X161115476Y-83208809D01*
X161163095Y-83113571D01*
X161210714Y-83065952D01*
X161305952Y-83018333D01*
X161496428Y-83018333D01*
X161591666Y-83065952D01*
X161639285Y-83113571D01*
X161686904Y-83208809D01*
%TO.C,U5*%
X162686904Y-62317380D02*
X162686904Y-63126904D01*
X162639285Y-63222142D01*
X162591666Y-63269761D01*
X162496428Y-63317380D01*
X162305952Y-63317380D01*
X162210714Y-63269761D01*
X162163095Y-63222142D01*
X162115476Y-63126904D01*
X162115476Y-62317380D01*
X161163095Y-62317380D02*
X161639285Y-62317380D01*
X161686904Y-62793571D01*
X161639285Y-62745952D01*
X161544047Y-62698333D01*
X161305952Y-62698333D01*
X161210714Y-62745952D01*
X161163095Y-62793571D01*
X161115476Y-62888809D01*
X161115476Y-63126904D01*
X161163095Y-63222142D01*
X161210714Y-63269761D01*
X161305952Y-63317380D01*
X161544047Y-63317380D01*
X161639285Y-63269761D01*
X161686904Y-63222142D01*
%TO.C,U4*%
X142366904Y-82637380D02*
X142366904Y-83446904D01*
X142319285Y-83542142D01*
X142271666Y-83589761D01*
X142176428Y-83637380D01*
X141985952Y-83637380D01*
X141890714Y-83589761D01*
X141843095Y-83542142D01*
X141795476Y-83446904D01*
X141795476Y-82637380D01*
X140890714Y-82970714D02*
X140890714Y-83637380D01*
X141128809Y-82589761D02*
X141366904Y-83304047D01*
X140747857Y-83304047D01*
%TO.C,U3*%
X142366904Y-62317380D02*
X142366904Y-63126904D01*
X142319285Y-63222142D01*
X142271666Y-63269761D01*
X142176428Y-63317380D01*
X141985952Y-63317380D01*
X141890714Y-63269761D01*
X141843095Y-63222142D01*
X141795476Y-63126904D01*
X141795476Y-62317380D01*
X141414523Y-62317380D02*
X140795476Y-62317380D01*
X141128809Y-62698333D01*
X140985952Y-62698333D01*
X140890714Y-62745952D01*
X140843095Y-62793571D01*
X140795476Y-62888809D01*
X140795476Y-63126904D01*
X140843095Y-63222142D01*
X140890714Y-63269761D01*
X140985952Y-63317380D01*
X141271666Y-63317380D01*
X141366904Y-63269761D01*
X141414523Y-63222142D01*
%TO.C,U2*%
X122046904Y-82637380D02*
X122046904Y-83446904D01*
X121999285Y-83542142D01*
X121951666Y-83589761D01*
X121856428Y-83637380D01*
X121665952Y-83637380D01*
X121570714Y-83589761D01*
X121523095Y-83542142D01*
X121475476Y-83446904D01*
X121475476Y-82637380D01*
X121046904Y-82732619D02*
X120999285Y-82685000D01*
X120904047Y-82637380D01*
X120665952Y-82637380D01*
X120570714Y-82685000D01*
X120523095Y-82732619D01*
X120475476Y-82827857D01*
X120475476Y-82923095D01*
X120523095Y-83065952D01*
X121094523Y-83637380D01*
X120475476Y-83637380D01*
%TO.C,U1*%
X122046904Y-62317380D02*
X122046904Y-63126904D01*
X121999285Y-63222142D01*
X121951666Y-63269761D01*
X121856428Y-63317380D01*
X121665952Y-63317380D01*
X121570714Y-63269761D01*
X121523095Y-63222142D01*
X121475476Y-63126904D01*
X121475476Y-62317380D01*
X120475476Y-63317380D02*
X121046904Y-63317380D01*
X120761190Y-63317380D02*
X120761190Y-62317380D01*
X120856428Y-62460238D01*
X120951666Y-62555476D01*
X121046904Y-62603095D01*
%TO.C,R35*%
X171457857Y-85542380D02*
X171791190Y-85066190D01*
X172029285Y-85542380D02*
X172029285Y-84542380D01*
X171648333Y-84542380D01*
X171553095Y-84590000D01*
X171505476Y-84637619D01*
X171457857Y-84732857D01*
X171457857Y-84875714D01*
X171505476Y-84970952D01*
X171553095Y-85018571D01*
X171648333Y-85066190D01*
X172029285Y-85066190D01*
X171124523Y-84542380D02*
X170505476Y-84542380D01*
X170838809Y-84923333D01*
X170695952Y-84923333D01*
X170600714Y-84970952D01*
X170553095Y-85018571D01*
X170505476Y-85113809D01*
X170505476Y-85351904D01*
X170553095Y-85447142D01*
X170600714Y-85494761D01*
X170695952Y-85542380D01*
X170981666Y-85542380D01*
X171076904Y-85494761D01*
X171124523Y-85447142D01*
X169600714Y-84542380D02*
X170076904Y-84542380D01*
X170124523Y-85018571D01*
X170076904Y-84970952D01*
X169981666Y-84923333D01*
X169743571Y-84923333D01*
X169648333Y-84970952D01*
X169600714Y-85018571D01*
X169553095Y-85113809D01*
X169553095Y-85351904D01*
X169600714Y-85447142D01*
X169648333Y-85494761D01*
X169743571Y-85542380D01*
X169981666Y-85542380D01*
X170076904Y-85494761D01*
X170124523Y-85447142D01*
%TO.C,R34*%
X171457857Y-87447380D02*
X171791190Y-86971190D01*
X172029285Y-87447380D02*
X172029285Y-86447380D01*
X171648333Y-86447380D01*
X171553095Y-86495000D01*
X171505476Y-86542619D01*
X171457857Y-86637857D01*
X171457857Y-86780714D01*
X171505476Y-86875952D01*
X171553095Y-86923571D01*
X171648333Y-86971190D01*
X172029285Y-86971190D01*
X171124523Y-86447380D02*
X170505476Y-86447380D01*
X170838809Y-86828333D01*
X170695952Y-86828333D01*
X170600714Y-86875952D01*
X170553095Y-86923571D01*
X170505476Y-87018809D01*
X170505476Y-87256904D01*
X170553095Y-87352142D01*
X170600714Y-87399761D01*
X170695952Y-87447380D01*
X170981666Y-87447380D01*
X171076904Y-87399761D01*
X171124523Y-87352142D01*
X169648333Y-86780714D02*
X169648333Y-87447380D01*
X169886428Y-86399761D02*
X170124523Y-87114047D01*
X169505476Y-87114047D01*
%TO.C,R33*%
X170822857Y-95542380D02*
X171156190Y-95066190D01*
X171394285Y-95542380D02*
X171394285Y-94542380D01*
X171013333Y-94542380D01*
X170918095Y-94590000D01*
X170870476Y-94637619D01*
X170822857Y-94732857D01*
X170822857Y-94875714D01*
X170870476Y-94970952D01*
X170918095Y-95018571D01*
X171013333Y-95066190D01*
X171394285Y-95066190D01*
X170489523Y-94542380D02*
X169870476Y-94542380D01*
X170203809Y-94923333D01*
X170060952Y-94923333D01*
X169965714Y-94970952D01*
X169918095Y-95018571D01*
X169870476Y-95113809D01*
X169870476Y-95351904D01*
X169918095Y-95447142D01*
X169965714Y-95494761D01*
X170060952Y-95542380D01*
X170346666Y-95542380D01*
X170441904Y-95494761D01*
X170489523Y-95447142D01*
X169537142Y-94542380D02*
X168918095Y-94542380D01*
X169251428Y-94923333D01*
X169108571Y-94923333D01*
X169013333Y-94970952D01*
X168965714Y-95018571D01*
X168918095Y-95113809D01*
X168918095Y-95351904D01*
X168965714Y-95447142D01*
X169013333Y-95494761D01*
X169108571Y-95542380D01*
X169394285Y-95542380D01*
X169489523Y-95494761D01*
X169537142Y-95447142D01*
%TO.C,R32*%
X171457857Y-65222380D02*
X171791190Y-64746190D01*
X172029285Y-65222380D02*
X172029285Y-64222380D01*
X171648333Y-64222380D01*
X171553095Y-64270000D01*
X171505476Y-64317619D01*
X171457857Y-64412857D01*
X171457857Y-64555714D01*
X171505476Y-64650952D01*
X171553095Y-64698571D01*
X171648333Y-64746190D01*
X172029285Y-64746190D01*
X171124523Y-64222380D02*
X170505476Y-64222380D01*
X170838809Y-64603333D01*
X170695952Y-64603333D01*
X170600714Y-64650952D01*
X170553095Y-64698571D01*
X170505476Y-64793809D01*
X170505476Y-65031904D01*
X170553095Y-65127142D01*
X170600714Y-65174761D01*
X170695952Y-65222380D01*
X170981666Y-65222380D01*
X171076904Y-65174761D01*
X171124523Y-65127142D01*
X170124523Y-64317619D02*
X170076904Y-64270000D01*
X169981666Y-64222380D01*
X169743571Y-64222380D01*
X169648333Y-64270000D01*
X169600714Y-64317619D01*
X169553095Y-64412857D01*
X169553095Y-64508095D01*
X169600714Y-64650952D01*
X170172142Y-65222380D01*
X169553095Y-65222380D01*
%TO.C,R31*%
X171457857Y-67127380D02*
X171791190Y-66651190D01*
X172029285Y-67127380D02*
X172029285Y-66127380D01*
X171648333Y-66127380D01*
X171553095Y-66175000D01*
X171505476Y-66222619D01*
X171457857Y-66317857D01*
X171457857Y-66460714D01*
X171505476Y-66555952D01*
X171553095Y-66603571D01*
X171648333Y-66651190D01*
X172029285Y-66651190D01*
X171124523Y-66127380D02*
X170505476Y-66127380D01*
X170838809Y-66508333D01*
X170695952Y-66508333D01*
X170600714Y-66555952D01*
X170553095Y-66603571D01*
X170505476Y-66698809D01*
X170505476Y-66936904D01*
X170553095Y-67032142D01*
X170600714Y-67079761D01*
X170695952Y-67127380D01*
X170981666Y-67127380D01*
X171076904Y-67079761D01*
X171124523Y-67032142D01*
X169553095Y-67127380D02*
X170124523Y-67127380D01*
X169838809Y-67127380D02*
X169838809Y-66127380D01*
X169934047Y-66270238D01*
X170029285Y-66365476D01*
X170124523Y-66413095D01*
%TO.C,R30*%
X170822857Y-75222380D02*
X171156190Y-74746190D01*
X171394285Y-75222380D02*
X171394285Y-74222380D01*
X171013333Y-74222380D01*
X170918095Y-74270000D01*
X170870476Y-74317619D01*
X170822857Y-74412857D01*
X170822857Y-74555714D01*
X170870476Y-74650952D01*
X170918095Y-74698571D01*
X171013333Y-74746190D01*
X171394285Y-74746190D01*
X170489523Y-74222380D02*
X169870476Y-74222380D01*
X170203809Y-74603333D01*
X170060952Y-74603333D01*
X169965714Y-74650952D01*
X169918095Y-74698571D01*
X169870476Y-74793809D01*
X169870476Y-75031904D01*
X169918095Y-75127142D01*
X169965714Y-75174761D01*
X170060952Y-75222380D01*
X170346666Y-75222380D01*
X170441904Y-75174761D01*
X170489523Y-75127142D01*
X169251428Y-74222380D02*
X169156190Y-74222380D01*
X169060952Y-74270000D01*
X169013333Y-74317619D01*
X168965714Y-74412857D01*
X168918095Y-74603333D01*
X168918095Y-74841428D01*
X168965714Y-75031904D01*
X169013333Y-75127142D01*
X169060952Y-75174761D01*
X169156190Y-75222380D01*
X169251428Y-75222380D01*
X169346666Y-75174761D01*
X169394285Y-75127142D01*
X169441904Y-75031904D01*
X169489523Y-74841428D01*
X169489523Y-74603333D01*
X169441904Y-74412857D01*
X169394285Y-74317619D01*
X169346666Y-74270000D01*
X169251428Y-74222380D01*
%TO.C,R29*%
X151137857Y-85542380D02*
X151471190Y-85066190D01*
X151709285Y-85542380D02*
X151709285Y-84542380D01*
X151328333Y-84542380D01*
X151233095Y-84590000D01*
X151185476Y-84637619D01*
X151137857Y-84732857D01*
X151137857Y-84875714D01*
X151185476Y-84970952D01*
X151233095Y-85018571D01*
X151328333Y-85066190D01*
X151709285Y-85066190D01*
X150756904Y-84637619D02*
X150709285Y-84590000D01*
X150614047Y-84542380D01*
X150375952Y-84542380D01*
X150280714Y-84590000D01*
X150233095Y-84637619D01*
X150185476Y-84732857D01*
X150185476Y-84828095D01*
X150233095Y-84970952D01*
X150804523Y-85542380D01*
X150185476Y-85542380D01*
X149709285Y-85542380D02*
X149518809Y-85542380D01*
X149423571Y-85494761D01*
X149375952Y-85447142D01*
X149280714Y-85304285D01*
X149233095Y-85113809D01*
X149233095Y-84732857D01*
X149280714Y-84637619D01*
X149328333Y-84590000D01*
X149423571Y-84542380D01*
X149614047Y-84542380D01*
X149709285Y-84590000D01*
X149756904Y-84637619D01*
X149804523Y-84732857D01*
X149804523Y-84970952D01*
X149756904Y-85066190D01*
X149709285Y-85113809D01*
X149614047Y-85161428D01*
X149423571Y-85161428D01*
X149328333Y-85113809D01*
X149280714Y-85066190D01*
X149233095Y-84970952D01*
%TO.C,R28*%
X151137857Y-87447380D02*
X151471190Y-86971190D01*
X151709285Y-87447380D02*
X151709285Y-86447380D01*
X151328333Y-86447380D01*
X151233095Y-86495000D01*
X151185476Y-86542619D01*
X151137857Y-86637857D01*
X151137857Y-86780714D01*
X151185476Y-86875952D01*
X151233095Y-86923571D01*
X151328333Y-86971190D01*
X151709285Y-86971190D01*
X150756904Y-86542619D02*
X150709285Y-86495000D01*
X150614047Y-86447380D01*
X150375952Y-86447380D01*
X150280714Y-86495000D01*
X150233095Y-86542619D01*
X150185476Y-86637857D01*
X150185476Y-86733095D01*
X150233095Y-86875952D01*
X150804523Y-87447380D01*
X150185476Y-87447380D01*
X149614047Y-86875952D02*
X149709285Y-86828333D01*
X149756904Y-86780714D01*
X149804523Y-86685476D01*
X149804523Y-86637857D01*
X149756904Y-86542619D01*
X149709285Y-86495000D01*
X149614047Y-86447380D01*
X149423571Y-86447380D01*
X149328333Y-86495000D01*
X149280714Y-86542619D01*
X149233095Y-86637857D01*
X149233095Y-86685476D01*
X149280714Y-86780714D01*
X149328333Y-86828333D01*
X149423571Y-86875952D01*
X149614047Y-86875952D01*
X149709285Y-86923571D01*
X149756904Y-86971190D01*
X149804523Y-87066428D01*
X149804523Y-87256904D01*
X149756904Y-87352142D01*
X149709285Y-87399761D01*
X149614047Y-87447380D01*
X149423571Y-87447380D01*
X149328333Y-87399761D01*
X149280714Y-87352142D01*
X149233095Y-87256904D01*
X149233095Y-87066428D01*
X149280714Y-86971190D01*
X149328333Y-86923571D01*
X149423571Y-86875952D01*
%TO.C,R27*%
X150502857Y-95542380D02*
X150836190Y-95066190D01*
X151074285Y-95542380D02*
X151074285Y-94542380D01*
X150693333Y-94542380D01*
X150598095Y-94590000D01*
X150550476Y-94637619D01*
X150502857Y-94732857D01*
X150502857Y-94875714D01*
X150550476Y-94970952D01*
X150598095Y-95018571D01*
X150693333Y-95066190D01*
X151074285Y-95066190D01*
X150121904Y-94637619D02*
X150074285Y-94590000D01*
X149979047Y-94542380D01*
X149740952Y-94542380D01*
X149645714Y-94590000D01*
X149598095Y-94637619D01*
X149550476Y-94732857D01*
X149550476Y-94828095D01*
X149598095Y-94970952D01*
X150169523Y-95542380D01*
X149550476Y-95542380D01*
X149217142Y-94542380D02*
X148550476Y-94542380D01*
X148979047Y-95542380D01*
%TO.C,R26*%
X151137857Y-65222380D02*
X151471190Y-64746190D01*
X151709285Y-65222380D02*
X151709285Y-64222380D01*
X151328333Y-64222380D01*
X151233095Y-64270000D01*
X151185476Y-64317619D01*
X151137857Y-64412857D01*
X151137857Y-64555714D01*
X151185476Y-64650952D01*
X151233095Y-64698571D01*
X151328333Y-64746190D01*
X151709285Y-64746190D01*
X150756904Y-64317619D02*
X150709285Y-64270000D01*
X150614047Y-64222380D01*
X150375952Y-64222380D01*
X150280714Y-64270000D01*
X150233095Y-64317619D01*
X150185476Y-64412857D01*
X150185476Y-64508095D01*
X150233095Y-64650952D01*
X150804523Y-65222380D01*
X150185476Y-65222380D01*
X149328333Y-64222380D02*
X149518809Y-64222380D01*
X149614047Y-64270000D01*
X149661666Y-64317619D01*
X149756904Y-64460476D01*
X149804523Y-64650952D01*
X149804523Y-65031904D01*
X149756904Y-65127142D01*
X149709285Y-65174761D01*
X149614047Y-65222380D01*
X149423571Y-65222380D01*
X149328333Y-65174761D01*
X149280714Y-65127142D01*
X149233095Y-65031904D01*
X149233095Y-64793809D01*
X149280714Y-64698571D01*
X149328333Y-64650952D01*
X149423571Y-64603333D01*
X149614047Y-64603333D01*
X149709285Y-64650952D01*
X149756904Y-64698571D01*
X149804523Y-64793809D01*
%TO.C,R25*%
X151137857Y-67127380D02*
X151471190Y-66651190D01*
X151709285Y-67127380D02*
X151709285Y-66127380D01*
X151328333Y-66127380D01*
X151233095Y-66175000D01*
X151185476Y-66222619D01*
X151137857Y-66317857D01*
X151137857Y-66460714D01*
X151185476Y-66555952D01*
X151233095Y-66603571D01*
X151328333Y-66651190D01*
X151709285Y-66651190D01*
X150756904Y-66222619D02*
X150709285Y-66175000D01*
X150614047Y-66127380D01*
X150375952Y-66127380D01*
X150280714Y-66175000D01*
X150233095Y-66222619D01*
X150185476Y-66317857D01*
X150185476Y-66413095D01*
X150233095Y-66555952D01*
X150804523Y-67127380D01*
X150185476Y-67127380D01*
X149280714Y-66127380D02*
X149756904Y-66127380D01*
X149804523Y-66603571D01*
X149756904Y-66555952D01*
X149661666Y-66508333D01*
X149423571Y-66508333D01*
X149328333Y-66555952D01*
X149280714Y-66603571D01*
X149233095Y-66698809D01*
X149233095Y-66936904D01*
X149280714Y-67032142D01*
X149328333Y-67079761D01*
X149423571Y-67127380D01*
X149661666Y-67127380D01*
X149756904Y-67079761D01*
X149804523Y-67032142D01*
%TO.C,R24*%
X150502857Y-75222380D02*
X150836190Y-74746190D01*
X151074285Y-75222380D02*
X151074285Y-74222380D01*
X150693333Y-74222380D01*
X150598095Y-74270000D01*
X150550476Y-74317619D01*
X150502857Y-74412857D01*
X150502857Y-74555714D01*
X150550476Y-74650952D01*
X150598095Y-74698571D01*
X150693333Y-74746190D01*
X151074285Y-74746190D01*
X150121904Y-74317619D02*
X150074285Y-74270000D01*
X149979047Y-74222380D01*
X149740952Y-74222380D01*
X149645714Y-74270000D01*
X149598095Y-74317619D01*
X149550476Y-74412857D01*
X149550476Y-74508095D01*
X149598095Y-74650952D01*
X150169523Y-75222380D01*
X149550476Y-75222380D01*
X148693333Y-74555714D02*
X148693333Y-75222380D01*
X148931428Y-74174761D02*
X149169523Y-74889047D01*
X148550476Y-74889047D01*
%TO.C,R23*%
X130817857Y-85542380D02*
X131151190Y-85066190D01*
X131389285Y-85542380D02*
X131389285Y-84542380D01*
X131008333Y-84542380D01*
X130913095Y-84590000D01*
X130865476Y-84637619D01*
X130817857Y-84732857D01*
X130817857Y-84875714D01*
X130865476Y-84970952D01*
X130913095Y-85018571D01*
X131008333Y-85066190D01*
X131389285Y-85066190D01*
X130436904Y-84637619D02*
X130389285Y-84590000D01*
X130294047Y-84542380D01*
X130055952Y-84542380D01*
X129960714Y-84590000D01*
X129913095Y-84637619D01*
X129865476Y-84732857D01*
X129865476Y-84828095D01*
X129913095Y-84970952D01*
X130484523Y-85542380D01*
X129865476Y-85542380D01*
X129532142Y-84542380D02*
X128913095Y-84542380D01*
X129246428Y-84923333D01*
X129103571Y-84923333D01*
X129008333Y-84970952D01*
X128960714Y-85018571D01*
X128913095Y-85113809D01*
X128913095Y-85351904D01*
X128960714Y-85447142D01*
X129008333Y-85494761D01*
X129103571Y-85542380D01*
X129389285Y-85542380D01*
X129484523Y-85494761D01*
X129532142Y-85447142D01*
%TO.C,R22*%
X130817857Y-87447380D02*
X131151190Y-86971190D01*
X131389285Y-87447380D02*
X131389285Y-86447380D01*
X131008333Y-86447380D01*
X130913095Y-86495000D01*
X130865476Y-86542619D01*
X130817857Y-86637857D01*
X130817857Y-86780714D01*
X130865476Y-86875952D01*
X130913095Y-86923571D01*
X131008333Y-86971190D01*
X131389285Y-86971190D01*
X130436904Y-86542619D02*
X130389285Y-86495000D01*
X130294047Y-86447380D01*
X130055952Y-86447380D01*
X129960714Y-86495000D01*
X129913095Y-86542619D01*
X129865476Y-86637857D01*
X129865476Y-86733095D01*
X129913095Y-86875952D01*
X130484523Y-87447380D01*
X129865476Y-87447380D01*
X129484523Y-86542619D02*
X129436904Y-86495000D01*
X129341666Y-86447380D01*
X129103571Y-86447380D01*
X129008333Y-86495000D01*
X128960714Y-86542619D01*
X128913095Y-86637857D01*
X128913095Y-86733095D01*
X128960714Y-86875952D01*
X129532142Y-87447380D01*
X128913095Y-87447380D01*
%TO.C,R21*%
X130182857Y-95542380D02*
X130516190Y-95066190D01*
X130754285Y-95542380D02*
X130754285Y-94542380D01*
X130373333Y-94542380D01*
X130278095Y-94590000D01*
X130230476Y-94637619D01*
X130182857Y-94732857D01*
X130182857Y-94875714D01*
X130230476Y-94970952D01*
X130278095Y-95018571D01*
X130373333Y-95066190D01*
X130754285Y-95066190D01*
X129801904Y-94637619D02*
X129754285Y-94590000D01*
X129659047Y-94542380D01*
X129420952Y-94542380D01*
X129325714Y-94590000D01*
X129278095Y-94637619D01*
X129230476Y-94732857D01*
X129230476Y-94828095D01*
X129278095Y-94970952D01*
X129849523Y-95542380D01*
X129230476Y-95542380D01*
X128278095Y-95542380D02*
X128849523Y-95542380D01*
X128563809Y-95542380D02*
X128563809Y-94542380D01*
X128659047Y-94685238D01*
X128754285Y-94780476D01*
X128849523Y-94828095D01*
%TO.C,R20*%
X130817857Y-65222380D02*
X131151190Y-64746190D01*
X131389285Y-65222380D02*
X131389285Y-64222380D01*
X131008333Y-64222380D01*
X130913095Y-64270000D01*
X130865476Y-64317619D01*
X130817857Y-64412857D01*
X130817857Y-64555714D01*
X130865476Y-64650952D01*
X130913095Y-64698571D01*
X131008333Y-64746190D01*
X131389285Y-64746190D01*
X130436904Y-64317619D02*
X130389285Y-64270000D01*
X130294047Y-64222380D01*
X130055952Y-64222380D01*
X129960714Y-64270000D01*
X129913095Y-64317619D01*
X129865476Y-64412857D01*
X129865476Y-64508095D01*
X129913095Y-64650952D01*
X130484523Y-65222380D01*
X129865476Y-65222380D01*
X129246428Y-64222380D02*
X129151190Y-64222380D01*
X129055952Y-64270000D01*
X129008333Y-64317619D01*
X128960714Y-64412857D01*
X128913095Y-64603333D01*
X128913095Y-64841428D01*
X128960714Y-65031904D01*
X129008333Y-65127142D01*
X129055952Y-65174761D01*
X129151190Y-65222380D01*
X129246428Y-65222380D01*
X129341666Y-65174761D01*
X129389285Y-65127142D01*
X129436904Y-65031904D01*
X129484523Y-64841428D01*
X129484523Y-64603333D01*
X129436904Y-64412857D01*
X129389285Y-64317619D01*
X129341666Y-64270000D01*
X129246428Y-64222380D01*
%TO.C,R19*%
X130817857Y-67127380D02*
X131151190Y-66651190D01*
X131389285Y-67127380D02*
X131389285Y-66127380D01*
X131008333Y-66127380D01*
X130913095Y-66175000D01*
X130865476Y-66222619D01*
X130817857Y-66317857D01*
X130817857Y-66460714D01*
X130865476Y-66555952D01*
X130913095Y-66603571D01*
X131008333Y-66651190D01*
X131389285Y-66651190D01*
X129865476Y-67127380D02*
X130436904Y-67127380D01*
X130151190Y-67127380D02*
X130151190Y-66127380D01*
X130246428Y-66270238D01*
X130341666Y-66365476D01*
X130436904Y-66413095D01*
X129389285Y-67127380D02*
X129198809Y-67127380D01*
X129103571Y-67079761D01*
X129055952Y-67032142D01*
X128960714Y-66889285D01*
X128913095Y-66698809D01*
X128913095Y-66317857D01*
X128960714Y-66222619D01*
X129008333Y-66175000D01*
X129103571Y-66127380D01*
X129294047Y-66127380D01*
X129389285Y-66175000D01*
X129436904Y-66222619D01*
X129484523Y-66317857D01*
X129484523Y-66555952D01*
X129436904Y-66651190D01*
X129389285Y-66698809D01*
X129294047Y-66746428D01*
X129103571Y-66746428D01*
X129008333Y-66698809D01*
X128960714Y-66651190D01*
X128913095Y-66555952D01*
%TO.C,R18*%
X130182857Y-75222380D02*
X130516190Y-74746190D01*
X130754285Y-75222380D02*
X130754285Y-74222380D01*
X130373333Y-74222380D01*
X130278095Y-74270000D01*
X130230476Y-74317619D01*
X130182857Y-74412857D01*
X130182857Y-74555714D01*
X130230476Y-74650952D01*
X130278095Y-74698571D01*
X130373333Y-74746190D01*
X130754285Y-74746190D01*
X129230476Y-75222380D02*
X129801904Y-75222380D01*
X129516190Y-75222380D02*
X129516190Y-74222380D01*
X129611428Y-74365238D01*
X129706666Y-74460476D01*
X129801904Y-74508095D01*
X128659047Y-74650952D02*
X128754285Y-74603333D01*
X128801904Y-74555714D01*
X128849523Y-74460476D01*
X128849523Y-74412857D01*
X128801904Y-74317619D01*
X128754285Y-74270000D01*
X128659047Y-74222380D01*
X128468571Y-74222380D01*
X128373333Y-74270000D01*
X128325714Y-74317619D01*
X128278095Y-74412857D01*
X128278095Y-74460476D01*
X128325714Y-74555714D01*
X128373333Y-74603333D01*
X128468571Y-74650952D01*
X128659047Y-74650952D01*
X128754285Y-74698571D01*
X128801904Y-74746190D01*
X128849523Y-74841428D01*
X128849523Y-75031904D01*
X128801904Y-75127142D01*
X128754285Y-75174761D01*
X128659047Y-75222380D01*
X128468571Y-75222380D01*
X128373333Y-75174761D01*
X128325714Y-75127142D01*
X128278095Y-75031904D01*
X128278095Y-74841428D01*
X128325714Y-74746190D01*
X128373333Y-74698571D01*
X128468571Y-74650952D01*
%TO.C,R17*%
X110497857Y-85542380D02*
X110831190Y-85066190D01*
X111069285Y-85542380D02*
X111069285Y-84542380D01*
X110688333Y-84542380D01*
X110593095Y-84590000D01*
X110545476Y-84637619D01*
X110497857Y-84732857D01*
X110497857Y-84875714D01*
X110545476Y-84970952D01*
X110593095Y-85018571D01*
X110688333Y-85066190D01*
X111069285Y-85066190D01*
X109545476Y-85542380D02*
X110116904Y-85542380D01*
X109831190Y-85542380D02*
X109831190Y-84542380D01*
X109926428Y-84685238D01*
X110021666Y-84780476D01*
X110116904Y-84828095D01*
X109212142Y-84542380D02*
X108545476Y-84542380D01*
X108974047Y-85542380D01*
%TO.C,R16*%
X110497857Y-87447380D02*
X110831190Y-86971190D01*
X111069285Y-87447380D02*
X111069285Y-86447380D01*
X110688333Y-86447380D01*
X110593095Y-86495000D01*
X110545476Y-86542619D01*
X110497857Y-86637857D01*
X110497857Y-86780714D01*
X110545476Y-86875952D01*
X110593095Y-86923571D01*
X110688333Y-86971190D01*
X111069285Y-86971190D01*
X109545476Y-87447380D02*
X110116904Y-87447380D01*
X109831190Y-87447380D02*
X109831190Y-86447380D01*
X109926428Y-86590238D01*
X110021666Y-86685476D01*
X110116904Y-86733095D01*
X108688333Y-86447380D02*
X108878809Y-86447380D01*
X108974047Y-86495000D01*
X109021666Y-86542619D01*
X109116904Y-86685476D01*
X109164523Y-86875952D01*
X109164523Y-87256904D01*
X109116904Y-87352142D01*
X109069285Y-87399761D01*
X108974047Y-87447380D01*
X108783571Y-87447380D01*
X108688333Y-87399761D01*
X108640714Y-87352142D01*
X108593095Y-87256904D01*
X108593095Y-87018809D01*
X108640714Y-86923571D01*
X108688333Y-86875952D01*
X108783571Y-86828333D01*
X108974047Y-86828333D01*
X109069285Y-86875952D01*
X109116904Y-86923571D01*
X109164523Y-87018809D01*
%TO.C,R15*%
X109862857Y-95542380D02*
X110196190Y-95066190D01*
X110434285Y-95542380D02*
X110434285Y-94542380D01*
X110053333Y-94542380D01*
X109958095Y-94590000D01*
X109910476Y-94637619D01*
X109862857Y-94732857D01*
X109862857Y-94875714D01*
X109910476Y-94970952D01*
X109958095Y-95018571D01*
X110053333Y-95066190D01*
X110434285Y-95066190D01*
X108910476Y-95542380D02*
X109481904Y-95542380D01*
X109196190Y-95542380D02*
X109196190Y-94542380D01*
X109291428Y-94685238D01*
X109386666Y-94780476D01*
X109481904Y-94828095D01*
X108005714Y-94542380D02*
X108481904Y-94542380D01*
X108529523Y-95018571D01*
X108481904Y-94970952D01*
X108386666Y-94923333D01*
X108148571Y-94923333D01*
X108053333Y-94970952D01*
X108005714Y-95018571D01*
X107958095Y-95113809D01*
X107958095Y-95351904D01*
X108005714Y-95447142D01*
X108053333Y-95494761D01*
X108148571Y-95542380D01*
X108386666Y-95542380D01*
X108481904Y-95494761D01*
X108529523Y-95447142D01*
%TO.C,R14*%
X110497857Y-65222380D02*
X110831190Y-64746190D01*
X111069285Y-65222380D02*
X111069285Y-64222380D01*
X110688333Y-64222380D01*
X110593095Y-64270000D01*
X110545476Y-64317619D01*
X110497857Y-64412857D01*
X110497857Y-64555714D01*
X110545476Y-64650952D01*
X110593095Y-64698571D01*
X110688333Y-64746190D01*
X111069285Y-64746190D01*
X109545476Y-65222380D02*
X110116904Y-65222380D01*
X109831190Y-65222380D02*
X109831190Y-64222380D01*
X109926428Y-64365238D01*
X110021666Y-64460476D01*
X110116904Y-64508095D01*
X108688333Y-64555714D02*
X108688333Y-65222380D01*
X108926428Y-64174761D02*
X109164523Y-64889047D01*
X108545476Y-64889047D01*
%TO.C,R13*%
X110497857Y-67127380D02*
X110831190Y-66651190D01*
X111069285Y-67127380D02*
X111069285Y-66127380D01*
X110688333Y-66127380D01*
X110593095Y-66175000D01*
X110545476Y-66222619D01*
X110497857Y-66317857D01*
X110497857Y-66460714D01*
X110545476Y-66555952D01*
X110593095Y-66603571D01*
X110688333Y-66651190D01*
X111069285Y-66651190D01*
X109545476Y-67127380D02*
X110116904Y-67127380D01*
X109831190Y-67127380D02*
X109831190Y-66127380D01*
X109926428Y-66270238D01*
X110021666Y-66365476D01*
X110116904Y-66413095D01*
X109212142Y-66127380D02*
X108593095Y-66127380D01*
X108926428Y-66508333D01*
X108783571Y-66508333D01*
X108688333Y-66555952D01*
X108640714Y-66603571D01*
X108593095Y-66698809D01*
X108593095Y-66936904D01*
X108640714Y-67032142D01*
X108688333Y-67079761D01*
X108783571Y-67127380D01*
X109069285Y-67127380D01*
X109164523Y-67079761D01*
X109212142Y-67032142D01*
%TO.C,R12*%
X109862857Y-75222380D02*
X110196190Y-74746190D01*
X110434285Y-75222380D02*
X110434285Y-74222380D01*
X110053333Y-74222380D01*
X109958095Y-74270000D01*
X109910476Y-74317619D01*
X109862857Y-74412857D01*
X109862857Y-74555714D01*
X109910476Y-74650952D01*
X109958095Y-74698571D01*
X110053333Y-74746190D01*
X110434285Y-74746190D01*
X108910476Y-75222380D02*
X109481904Y-75222380D01*
X109196190Y-75222380D02*
X109196190Y-74222380D01*
X109291428Y-74365238D01*
X109386666Y-74460476D01*
X109481904Y-74508095D01*
X108529523Y-74317619D02*
X108481904Y-74270000D01*
X108386666Y-74222380D01*
X108148571Y-74222380D01*
X108053333Y-74270000D01*
X108005714Y-74317619D01*
X107958095Y-74412857D01*
X107958095Y-74508095D01*
X108005714Y-74650952D01*
X108577142Y-75222380D01*
X107958095Y-75222380D01*
%TO.C,R11*%
X156852857Y-48712380D02*
X157186190Y-48236190D01*
X157424285Y-48712380D02*
X157424285Y-47712380D01*
X157043333Y-47712380D01*
X156948095Y-47760000D01*
X156900476Y-47807619D01*
X156852857Y-47902857D01*
X156852857Y-48045714D01*
X156900476Y-48140952D01*
X156948095Y-48188571D01*
X157043333Y-48236190D01*
X157424285Y-48236190D01*
X155900476Y-48712380D02*
X156471904Y-48712380D01*
X156186190Y-48712380D02*
X156186190Y-47712380D01*
X156281428Y-47855238D01*
X156376666Y-47950476D01*
X156471904Y-47998095D01*
X154948095Y-48712380D02*
X155519523Y-48712380D01*
X155233809Y-48712380D02*
X155233809Y-47712380D01*
X155329047Y-47855238D01*
X155424285Y-47950476D01*
X155519523Y-47998095D01*
%TO.C,R10*%
X156852857Y-42202380D02*
X157186190Y-41726190D01*
X157424285Y-42202380D02*
X157424285Y-41202380D01*
X157043333Y-41202380D01*
X156948095Y-41250000D01*
X156900476Y-41297619D01*
X156852857Y-41392857D01*
X156852857Y-41535714D01*
X156900476Y-41630952D01*
X156948095Y-41678571D01*
X157043333Y-41726190D01*
X157424285Y-41726190D01*
X155900476Y-42202380D02*
X156471904Y-42202380D01*
X156186190Y-42202380D02*
X156186190Y-41202380D01*
X156281428Y-41345238D01*
X156376666Y-41440476D01*
X156471904Y-41488095D01*
X155281428Y-41202380D02*
X155186190Y-41202380D01*
X155090952Y-41250000D01*
X155043333Y-41297619D01*
X154995714Y-41392857D01*
X154948095Y-41583333D01*
X154948095Y-41821428D01*
X154995714Y-42011904D01*
X155043333Y-42107142D01*
X155090952Y-42154761D01*
X155186190Y-42202380D01*
X155281428Y-42202380D01*
X155376666Y-42154761D01*
X155424285Y-42107142D01*
X155471904Y-42011904D01*
X155519523Y-41821428D01*
X155519523Y-41583333D01*
X155471904Y-41392857D01*
X155424285Y-41297619D01*
X155376666Y-41250000D01*
X155281428Y-41202380D01*
%TO.C,R9*%
X156376666Y-36012380D02*
X156710000Y-35536190D01*
X156948095Y-36012380D02*
X156948095Y-35012380D01*
X156567142Y-35012380D01*
X156471904Y-35060000D01*
X156424285Y-35107619D01*
X156376666Y-35202857D01*
X156376666Y-35345714D01*
X156424285Y-35440952D01*
X156471904Y-35488571D01*
X156567142Y-35536190D01*
X156948095Y-35536190D01*
X155900476Y-36012380D02*
X155710000Y-36012380D01*
X155614761Y-35964761D01*
X155567142Y-35917142D01*
X155471904Y-35774285D01*
X155424285Y-35583809D01*
X155424285Y-35202857D01*
X155471904Y-35107619D01*
X155519523Y-35060000D01*
X155614761Y-35012380D01*
X155805238Y-35012380D01*
X155900476Y-35060000D01*
X155948095Y-35107619D01*
X155995714Y-35202857D01*
X155995714Y-35440952D01*
X155948095Y-35536190D01*
X155900476Y-35583809D01*
X155805238Y-35631428D01*
X155614761Y-35631428D01*
X155519523Y-35583809D01*
X155471904Y-35536190D01*
X155424285Y-35440952D01*
%TO.C,R8*%
X130976666Y-36012380D02*
X131310000Y-35536190D01*
X131548095Y-36012380D02*
X131548095Y-35012380D01*
X131167142Y-35012380D01*
X131071904Y-35060000D01*
X131024285Y-35107619D01*
X130976666Y-35202857D01*
X130976666Y-35345714D01*
X131024285Y-35440952D01*
X131071904Y-35488571D01*
X131167142Y-35536190D01*
X131548095Y-35536190D01*
X130405238Y-35440952D02*
X130500476Y-35393333D01*
X130548095Y-35345714D01*
X130595714Y-35250476D01*
X130595714Y-35202857D01*
X130548095Y-35107619D01*
X130500476Y-35060000D01*
X130405238Y-35012380D01*
X130214761Y-35012380D01*
X130119523Y-35060000D01*
X130071904Y-35107619D01*
X130024285Y-35202857D01*
X130024285Y-35250476D01*
X130071904Y-35345714D01*
X130119523Y-35393333D01*
X130214761Y-35440952D01*
X130405238Y-35440952D01*
X130500476Y-35488571D01*
X130548095Y-35536190D01*
X130595714Y-35631428D01*
X130595714Y-35821904D01*
X130548095Y-35917142D01*
X130500476Y-35964761D01*
X130405238Y-36012380D01*
X130214761Y-36012380D01*
X130119523Y-35964761D01*
X130071904Y-35917142D01*
X130024285Y-35821904D01*
X130024285Y-35631428D01*
X130071904Y-35536190D01*
X130119523Y-35488571D01*
X130214761Y-35440952D01*
%TO.C,R7*%
X130976666Y-44902380D02*
X131310000Y-44426190D01*
X131548095Y-44902380D02*
X131548095Y-43902380D01*
X131167142Y-43902380D01*
X131071904Y-43950000D01*
X131024285Y-43997619D01*
X130976666Y-44092857D01*
X130976666Y-44235714D01*
X131024285Y-44330952D01*
X131071904Y-44378571D01*
X131167142Y-44426190D01*
X131548095Y-44426190D01*
X130643333Y-43902380D02*
X129976666Y-43902380D01*
X130405238Y-44902380D01*
%TO.C,C16*%
X182887857Y-88622142D02*
X182935476Y-88669761D01*
X183078333Y-88717380D01*
X183173571Y-88717380D01*
X183316428Y-88669761D01*
X183411666Y-88574523D01*
X183459285Y-88479285D01*
X183506904Y-88288809D01*
X183506904Y-88145952D01*
X183459285Y-87955476D01*
X183411666Y-87860238D01*
X183316428Y-87765000D01*
X183173571Y-87717380D01*
X183078333Y-87717380D01*
X182935476Y-87765000D01*
X182887857Y-87812619D01*
X181935476Y-88717380D02*
X182506904Y-88717380D01*
X182221190Y-88717380D02*
X182221190Y-87717380D01*
X182316428Y-87860238D01*
X182411666Y-87955476D01*
X182506904Y-88003095D01*
X181078333Y-87717380D02*
X181268809Y-87717380D01*
X181364047Y-87765000D01*
X181411666Y-87812619D01*
X181506904Y-87955476D01*
X181554523Y-88145952D01*
X181554523Y-88526904D01*
X181506904Y-88622142D01*
X181459285Y-88669761D01*
X181364047Y-88717380D01*
X181173571Y-88717380D01*
X181078333Y-88669761D01*
X181030714Y-88622142D01*
X180983095Y-88526904D01*
X180983095Y-88288809D01*
X181030714Y-88193571D01*
X181078333Y-88145952D01*
X181173571Y-88098333D01*
X181364047Y-88098333D01*
X181459285Y-88145952D01*
X181506904Y-88193571D01*
X181554523Y-88288809D01*
%TO.C,C15*%
X170822857Y-83542142D02*
X170870476Y-83589761D01*
X171013333Y-83637380D01*
X171108571Y-83637380D01*
X171251428Y-83589761D01*
X171346666Y-83494523D01*
X171394285Y-83399285D01*
X171441904Y-83208809D01*
X171441904Y-83065952D01*
X171394285Y-82875476D01*
X171346666Y-82780238D01*
X171251428Y-82685000D01*
X171108571Y-82637380D01*
X171013333Y-82637380D01*
X170870476Y-82685000D01*
X170822857Y-82732619D01*
X169870476Y-83637380D02*
X170441904Y-83637380D01*
X170156190Y-83637380D02*
X170156190Y-82637380D01*
X170251428Y-82780238D01*
X170346666Y-82875476D01*
X170441904Y-82923095D01*
X168965714Y-82637380D02*
X169441904Y-82637380D01*
X169489523Y-83113571D01*
X169441904Y-83065952D01*
X169346666Y-83018333D01*
X169108571Y-83018333D01*
X169013333Y-83065952D01*
X168965714Y-83113571D01*
X168918095Y-83208809D01*
X168918095Y-83446904D01*
X168965714Y-83542142D01*
X169013333Y-83589761D01*
X169108571Y-83637380D01*
X169346666Y-83637380D01*
X169441904Y-83589761D01*
X169489523Y-83542142D01*
%TO.C,C14*%
X182887857Y-68302142D02*
X182935476Y-68349761D01*
X183078333Y-68397380D01*
X183173571Y-68397380D01*
X183316428Y-68349761D01*
X183411666Y-68254523D01*
X183459285Y-68159285D01*
X183506904Y-67968809D01*
X183506904Y-67825952D01*
X183459285Y-67635476D01*
X183411666Y-67540238D01*
X183316428Y-67445000D01*
X183173571Y-67397380D01*
X183078333Y-67397380D01*
X182935476Y-67445000D01*
X182887857Y-67492619D01*
X181935476Y-68397380D02*
X182506904Y-68397380D01*
X182221190Y-68397380D02*
X182221190Y-67397380D01*
X182316428Y-67540238D01*
X182411666Y-67635476D01*
X182506904Y-67683095D01*
X181078333Y-67730714D02*
X181078333Y-68397380D01*
X181316428Y-67349761D02*
X181554523Y-68064047D01*
X180935476Y-68064047D01*
%TO.C,C13*%
X170822857Y-63222142D02*
X170870476Y-63269761D01*
X171013333Y-63317380D01*
X171108571Y-63317380D01*
X171251428Y-63269761D01*
X171346666Y-63174523D01*
X171394285Y-63079285D01*
X171441904Y-62888809D01*
X171441904Y-62745952D01*
X171394285Y-62555476D01*
X171346666Y-62460238D01*
X171251428Y-62365000D01*
X171108571Y-62317380D01*
X171013333Y-62317380D01*
X170870476Y-62365000D01*
X170822857Y-62412619D01*
X169870476Y-63317380D02*
X170441904Y-63317380D01*
X170156190Y-63317380D02*
X170156190Y-62317380D01*
X170251428Y-62460238D01*
X170346666Y-62555476D01*
X170441904Y-62603095D01*
X169537142Y-62317380D02*
X168918095Y-62317380D01*
X169251428Y-62698333D01*
X169108571Y-62698333D01*
X169013333Y-62745952D01*
X168965714Y-62793571D01*
X168918095Y-62888809D01*
X168918095Y-63126904D01*
X168965714Y-63222142D01*
X169013333Y-63269761D01*
X169108571Y-63317380D01*
X169394285Y-63317380D01*
X169489523Y-63269761D01*
X169537142Y-63222142D01*
%TO.C,C12*%
X162567857Y-88622142D02*
X162615476Y-88669761D01*
X162758333Y-88717380D01*
X162853571Y-88717380D01*
X162996428Y-88669761D01*
X163091666Y-88574523D01*
X163139285Y-88479285D01*
X163186904Y-88288809D01*
X163186904Y-88145952D01*
X163139285Y-87955476D01*
X163091666Y-87860238D01*
X162996428Y-87765000D01*
X162853571Y-87717380D01*
X162758333Y-87717380D01*
X162615476Y-87765000D01*
X162567857Y-87812619D01*
X161615476Y-88717380D02*
X162186904Y-88717380D01*
X161901190Y-88717380D02*
X161901190Y-87717380D01*
X161996428Y-87860238D01*
X162091666Y-87955476D01*
X162186904Y-88003095D01*
X161234523Y-87812619D02*
X161186904Y-87765000D01*
X161091666Y-87717380D01*
X160853571Y-87717380D01*
X160758333Y-87765000D01*
X160710714Y-87812619D01*
X160663095Y-87907857D01*
X160663095Y-88003095D01*
X160710714Y-88145952D01*
X161282142Y-88717380D01*
X160663095Y-88717380D01*
%TO.C,C11*%
X150502857Y-83542142D02*
X150550476Y-83589761D01*
X150693333Y-83637380D01*
X150788571Y-83637380D01*
X150931428Y-83589761D01*
X151026666Y-83494523D01*
X151074285Y-83399285D01*
X151121904Y-83208809D01*
X151121904Y-83065952D01*
X151074285Y-82875476D01*
X151026666Y-82780238D01*
X150931428Y-82685000D01*
X150788571Y-82637380D01*
X150693333Y-82637380D01*
X150550476Y-82685000D01*
X150502857Y-82732619D01*
X149550476Y-83637380D02*
X150121904Y-83637380D01*
X149836190Y-83637380D02*
X149836190Y-82637380D01*
X149931428Y-82780238D01*
X150026666Y-82875476D01*
X150121904Y-82923095D01*
X148598095Y-83637380D02*
X149169523Y-83637380D01*
X148883809Y-83637380D02*
X148883809Y-82637380D01*
X148979047Y-82780238D01*
X149074285Y-82875476D01*
X149169523Y-82923095D01*
%TO.C,C10*%
X162567857Y-68302142D02*
X162615476Y-68349761D01*
X162758333Y-68397380D01*
X162853571Y-68397380D01*
X162996428Y-68349761D01*
X163091666Y-68254523D01*
X163139285Y-68159285D01*
X163186904Y-67968809D01*
X163186904Y-67825952D01*
X163139285Y-67635476D01*
X163091666Y-67540238D01*
X162996428Y-67445000D01*
X162853571Y-67397380D01*
X162758333Y-67397380D01*
X162615476Y-67445000D01*
X162567857Y-67492619D01*
X161615476Y-68397380D02*
X162186904Y-68397380D01*
X161901190Y-68397380D02*
X161901190Y-67397380D01*
X161996428Y-67540238D01*
X162091666Y-67635476D01*
X162186904Y-67683095D01*
X160996428Y-67397380D02*
X160901190Y-67397380D01*
X160805952Y-67445000D01*
X160758333Y-67492619D01*
X160710714Y-67587857D01*
X160663095Y-67778333D01*
X160663095Y-68016428D01*
X160710714Y-68206904D01*
X160758333Y-68302142D01*
X160805952Y-68349761D01*
X160901190Y-68397380D01*
X160996428Y-68397380D01*
X161091666Y-68349761D01*
X161139285Y-68302142D01*
X161186904Y-68206904D01*
X161234523Y-68016428D01*
X161234523Y-67778333D01*
X161186904Y-67587857D01*
X161139285Y-67492619D01*
X161091666Y-67445000D01*
X160996428Y-67397380D01*
%TO.C,C9*%
X150026666Y-63222142D02*
X150074285Y-63269761D01*
X150217142Y-63317380D01*
X150312380Y-63317380D01*
X150455238Y-63269761D01*
X150550476Y-63174523D01*
X150598095Y-63079285D01*
X150645714Y-62888809D01*
X150645714Y-62745952D01*
X150598095Y-62555476D01*
X150550476Y-62460238D01*
X150455238Y-62365000D01*
X150312380Y-62317380D01*
X150217142Y-62317380D01*
X150074285Y-62365000D01*
X150026666Y-62412619D01*
X149550476Y-63317380D02*
X149360000Y-63317380D01*
X149264761Y-63269761D01*
X149217142Y-63222142D01*
X149121904Y-63079285D01*
X149074285Y-62888809D01*
X149074285Y-62507857D01*
X149121904Y-62412619D01*
X149169523Y-62365000D01*
X149264761Y-62317380D01*
X149455238Y-62317380D01*
X149550476Y-62365000D01*
X149598095Y-62412619D01*
X149645714Y-62507857D01*
X149645714Y-62745952D01*
X149598095Y-62841190D01*
X149550476Y-62888809D01*
X149455238Y-62936428D01*
X149264761Y-62936428D01*
X149169523Y-62888809D01*
X149121904Y-62841190D01*
X149074285Y-62745952D01*
%TO.C,C8*%
X141771666Y-88622142D02*
X141819285Y-88669761D01*
X141962142Y-88717380D01*
X142057380Y-88717380D01*
X142200238Y-88669761D01*
X142295476Y-88574523D01*
X142343095Y-88479285D01*
X142390714Y-88288809D01*
X142390714Y-88145952D01*
X142343095Y-87955476D01*
X142295476Y-87860238D01*
X142200238Y-87765000D01*
X142057380Y-87717380D01*
X141962142Y-87717380D01*
X141819285Y-87765000D01*
X141771666Y-87812619D01*
X141200238Y-88145952D02*
X141295476Y-88098333D01*
X141343095Y-88050714D01*
X141390714Y-87955476D01*
X141390714Y-87907857D01*
X141343095Y-87812619D01*
X141295476Y-87765000D01*
X141200238Y-87717380D01*
X141009761Y-87717380D01*
X140914523Y-87765000D01*
X140866904Y-87812619D01*
X140819285Y-87907857D01*
X140819285Y-87955476D01*
X140866904Y-88050714D01*
X140914523Y-88098333D01*
X141009761Y-88145952D01*
X141200238Y-88145952D01*
X141295476Y-88193571D01*
X141343095Y-88241190D01*
X141390714Y-88336428D01*
X141390714Y-88526904D01*
X141343095Y-88622142D01*
X141295476Y-88669761D01*
X141200238Y-88717380D01*
X141009761Y-88717380D01*
X140914523Y-88669761D01*
X140866904Y-88622142D01*
X140819285Y-88526904D01*
X140819285Y-88336428D01*
X140866904Y-88241190D01*
X140914523Y-88193571D01*
X141009761Y-88145952D01*
%TO.C,C7*%
X129706666Y-83542142D02*
X129754285Y-83589761D01*
X129897142Y-83637380D01*
X129992380Y-83637380D01*
X130135238Y-83589761D01*
X130230476Y-83494523D01*
X130278095Y-83399285D01*
X130325714Y-83208809D01*
X130325714Y-83065952D01*
X130278095Y-82875476D01*
X130230476Y-82780238D01*
X130135238Y-82685000D01*
X129992380Y-82637380D01*
X129897142Y-82637380D01*
X129754285Y-82685000D01*
X129706666Y-82732619D01*
X129373333Y-82637380D02*
X128706666Y-82637380D01*
X129135238Y-83637380D01*
%TO.C,C6*%
X141771666Y-68302142D02*
X141819285Y-68349761D01*
X141962142Y-68397380D01*
X142057380Y-68397380D01*
X142200238Y-68349761D01*
X142295476Y-68254523D01*
X142343095Y-68159285D01*
X142390714Y-67968809D01*
X142390714Y-67825952D01*
X142343095Y-67635476D01*
X142295476Y-67540238D01*
X142200238Y-67445000D01*
X142057380Y-67397380D01*
X141962142Y-67397380D01*
X141819285Y-67445000D01*
X141771666Y-67492619D01*
X140914523Y-67397380D02*
X141105000Y-67397380D01*
X141200238Y-67445000D01*
X141247857Y-67492619D01*
X141343095Y-67635476D01*
X141390714Y-67825952D01*
X141390714Y-68206904D01*
X141343095Y-68302142D01*
X141295476Y-68349761D01*
X141200238Y-68397380D01*
X141009761Y-68397380D01*
X140914523Y-68349761D01*
X140866904Y-68302142D01*
X140819285Y-68206904D01*
X140819285Y-67968809D01*
X140866904Y-67873571D01*
X140914523Y-67825952D01*
X141009761Y-67778333D01*
X141200238Y-67778333D01*
X141295476Y-67825952D01*
X141343095Y-67873571D01*
X141390714Y-67968809D01*
%TO.C,C5*%
X129706666Y-63222142D02*
X129754285Y-63269761D01*
X129897142Y-63317380D01*
X129992380Y-63317380D01*
X130135238Y-63269761D01*
X130230476Y-63174523D01*
X130278095Y-63079285D01*
X130325714Y-62888809D01*
X130325714Y-62745952D01*
X130278095Y-62555476D01*
X130230476Y-62460238D01*
X130135238Y-62365000D01*
X129992380Y-62317380D01*
X129897142Y-62317380D01*
X129754285Y-62365000D01*
X129706666Y-62412619D01*
X128801904Y-62317380D02*
X129278095Y-62317380D01*
X129325714Y-62793571D01*
X129278095Y-62745952D01*
X129182857Y-62698333D01*
X128944761Y-62698333D01*
X128849523Y-62745952D01*
X128801904Y-62793571D01*
X128754285Y-62888809D01*
X128754285Y-63126904D01*
X128801904Y-63222142D01*
X128849523Y-63269761D01*
X128944761Y-63317380D01*
X129182857Y-63317380D01*
X129278095Y-63269761D01*
X129325714Y-63222142D01*
%TO.C,C4*%
X121451666Y-88622142D02*
X121499285Y-88669761D01*
X121642142Y-88717380D01*
X121737380Y-88717380D01*
X121880238Y-88669761D01*
X121975476Y-88574523D01*
X122023095Y-88479285D01*
X122070714Y-88288809D01*
X122070714Y-88145952D01*
X122023095Y-87955476D01*
X121975476Y-87860238D01*
X121880238Y-87765000D01*
X121737380Y-87717380D01*
X121642142Y-87717380D01*
X121499285Y-87765000D01*
X121451666Y-87812619D01*
X120594523Y-88050714D02*
X120594523Y-88717380D01*
X120832619Y-87669761D02*
X121070714Y-88384047D01*
X120451666Y-88384047D01*
%TO.C,C3*%
X109386666Y-83542142D02*
X109434285Y-83589761D01*
X109577142Y-83637380D01*
X109672380Y-83637380D01*
X109815238Y-83589761D01*
X109910476Y-83494523D01*
X109958095Y-83399285D01*
X110005714Y-83208809D01*
X110005714Y-83065952D01*
X109958095Y-82875476D01*
X109910476Y-82780238D01*
X109815238Y-82685000D01*
X109672380Y-82637380D01*
X109577142Y-82637380D01*
X109434285Y-82685000D01*
X109386666Y-82732619D01*
X109053333Y-82637380D02*
X108434285Y-82637380D01*
X108767619Y-83018333D01*
X108624761Y-83018333D01*
X108529523Y-83065952D01*
X108481904Y-83113571D01*
X108434285Y-83208809D01*
X108434285Y-83446904D01*
X108481904Y-83542142D01*
X108529523Y-83589761D01*
X108624761Y-83637380D01*
X108910476Y-83637380D01*
X109005714Y-83589761D01*
X109053333Y-83542142D01*
%TO.C,C2*%
X121451666Y-68302142D02*
X121499285Y-68349761D01*
X121642142Y-68397380D01*
X121737380Y-68397380D01*
X121880238Y-68349761D01*
X121975476Y-68254523D01*
X122023095Y-68159285D01*
X122070714Y-67968809D01*
X122070714Y-67825952D01*
X122023095Y-67635476D01*
X121975476Y-67540238D01*
X121880238Y-67445000D01*
X121737380Y-67397380D01*
X121642142Y-67397380D01*
X121499285Y-67445000D01*
X121451666Y-67492619D01*
X121070714Y-67492619D02*
X121023095Y-67445000D01*
X120927857Y-67397380D01*
X120689761Y-67397380D01*
X120594523Y-67445000D01*
X120546904Y-67492619D01*
X120499285Y-67587857D01*
X120499285Y-67683095D01*
X120546904Y-67825952D01*
X121118333Y-68397380D01*
X120499285Y-68397380D01*
%TO.C,C1*%
X109386666Y-63222142D02*
X109434285Y-63269761D01*
X109577142Y-63317380D01*
X109672380Y-63317380D01*
X109815238Y-63269761D01*
X109910476Y-63174523D01*
X109958095Y-63079285D01*
X110005714Y-62888809D01*
X110005714Y-62745952D01*
X109958095Y-62555476D01*
X109910476Y-62460238D01*
X109815238Y-62365000D01*
X109672380Y-62317380D01*
X109577142Y-62317380D01*
X109434285Y-62365000D01*
X109386666Y-62412619D01*
X108434285Y-63317380D02*
X109005714Y-63317380D01*
X108720000Y-63317380D02*
X108720000Y-62317380D01*
X108815238Y-62460238D01*
X108910476Y-62555476D01*
X109005714Y-62603095D01*
%TD*%
M02*
