%TF.GenerationSoftware,KiCad,Pcbnew,(5.1.9)-1*%
%TF.CreationDate,2021-05-31T11:25:02+02:00*%
%TF.ProjectId,RemoteCtrl,52656d6f-7465-4437-9472-6c2e6b696361,v0.1*%
%TF.SameCoordinates,Original*%
%TF.FileFunction,Legend,Bot*%
%TF.FilePolarity,Positive*%
%FSLAX46Y46*%
G04 Gerber Fmt 4.6, Leading zero omitted, Abs format (unit mm)*
G04 Created by KiCad (PCBNEW (5.1.9)-1) date 2021-05-31 11:25:02*
%MOMM*%
%LPD*%
G01*
G04 APERTURE LIST*
%ADD10C,0.300000*%
%ADD11C,0.120000*%
%ADD12C,0.150000*%
G04 APERTURE END LIST*
D10*
X181292142Y-105616428D02*
X180815952Y-106949761D01*
X180339761Y-105616428D01*
X178530238Y-106949761D02*
X179673095Y-106949761D01*
X179101666Y-106949761D02*
X179101666Y-104949761D01*
X179292142Y-105235476D01*
X179482619Y-105425952D01*
X179673095Y-105521190D01*
X177673095Y-106759285D02*
X177577857Y-106854523D01*
X177673095Y-106949761D01*
X177768333Y-106854523D01*
X177673095Y-106759285D01*
X177673095Y-106949761D01*
X176339761Y-104949761D02*
X176149285Y-104949761D01*
X175958809Y-105045000D01*
X175863571Y-105140238D01*
X175768333Y-105330714D01*
X175673095Y-105711666D01*
X175673095Y-106187857D01*
X175768333Y-106568809D01*
X175863571Y-106759285D01*
X175958809Y-106854523D01*
X176149285Y-106949761D01*
X176339761Y-106949761D01*
X176530238Y-106854523D01*
X176625476Y-106759285D01*
X176720714Y-106568809D01*
X176815952Y-106187857D01*
X176815952Y-105711666D01*
X176720714Y-105330714D01*
X176625476Y-105140238D01*
X176530238Y-105045000D01*
X176339761Y-104949761D01*
D11*
%TO.C,U2*%
X121855000Y-90150000D02*
X123255000Y-90150000D01*
X123255000Y-92470000D02*
X121355000Y-92470000D01*
%TO.C,U5*%
X159955000Y-71100000D02*
X161355000Y-71100000D01*
X161355000Y-73420000D02*
X159455000Y-73420000D01*
%TO.C,C6*%
X141745580Y-75440000D02*
X141464420Y-75440000D01*
X141745580Y-74420000D02*
X141464420Y-74420000D01*
%TO.C,R2*%
X104377258Y-57672500D02*
X103902742Y-57672500D01*
X104377258Y-56627500D02*
X103902742Y-56627500D01*
%TO.C,R1*%
X104377258Y-50687500D02*
X103902742Y-50687500D01*
X104377258Y-49642500D02*
X103902742Y-49642500D01*
%TO.C,U8*%
X179005000Y-90150000D02*
X180405000Y-90150000D01*
X180405000Y-92470000D02*
X178505000Y-92470000D01*
%TO.C,U7*%
X179005000Y-71100000D02*
X180405000Y-71100000D01*
X180405000Y-73420000D02*
X178505000Y-73420000D01*
%TO.C,U6*%
X159955000Y-90150000D02*
X161355000Y-90150000D01*
X161355000Y-92470000D02*
X159455000Y-92470000D01*
%TO.C,U4*%
X140905000Y-90150000D02*
X142305000Y-90150000D01*
X142305000Y-92470000D02*
X140405000Y-92470000D01*
%TO.C,U3*%
X140905000Y-71100000D02*
X142305000Y-71100000D01*
X142305000Y-73420000D02*
X140405000Y-73420000D01*
%TO.C,U1*%
X121855000Y-71100000D02*
X123255000Y-71100000D01*
X123255000Y-73420000D02*
X121355000Y-73420000D01*
%TO.C,R35*%
X164862742Y-90917500D02*
X165337258Y-90917500D01*
X164862742Y-91962500D02*
X165337258Y-91962500D01*
%TO.C,R34*%
X164862742Y-92822500D02*
X165337258Y-92822500D01*
X164862742Y-93867500D02*
X165337258Y-93867500D01*
%TO.C,R33*%
X167877258Y-103392500D02*
X167402742Y-103392500D01*
X167877258Y-102347500D02*
X167402742Y-102347500D01*
%TO.C,R32*%
X164862742Y-71867500D02*
X165337258Y-71867500D01*
X164862742Y-72912500D02*
X165337258Y-72912500D01*
%TO.C,R31*%
X164862742Y-73772500D02*
X165337258Y-73772500D01*
X164862742Y-74817500D02*
X165337258Y-74817500D01*
%TO.C,R30*%
X167877258Y-84342500D02*
X167402742Y-84342500D01*
X167877258Y-83297500D02*
X167402742Y-83297500D01*
%TO.C,R29*%
X145812742Y-90917500D02*
X146287258Y-90917500D01*
X145812742Y-91962500D02*
X146287258Y-91962500D01*
%TO.C,R28*%
X145812742Y-92822500D02*
X146287258Y-92822500D01*
X145812742Y-93867500D02*
X146287258Y-93867500D01*
%TO.C,R27*%
X148827258Y-103392500D02*
X148352742Y-103392500D01*
X148827258Y-102347500D02*
X148352742Y-102347500D01*
%TO.C,R26*%
X145812742Y-71867500D02*
X146287258Y-71867500D01*
X145812742Y-72912500D02*
X146287258Y-72912500D01*
%TO.C,R25*%
X145812742Y-73772500D02*
X146287258Y-73772500D01*
X145812742Y-74817500D02*
X146287258Y-74817500D01*
%TO.C,R24*%
X148827258Y-84342500D02*
X148352742Y-84342500D01*
X148827258Y-83297500D02*
X148352742Y-83297500D01*
%TO.C,R23*%
X126762742Y-90917500D02*
X127237258Y-90917500D01*
X126762742Y-91962500D02*
X127237258Y-91962500D01*
%TO.C,R22*%
X126762742Y-92822500D02*
X127237258Y-92822500D01*
X126762742Y-93867500D02*
X127237258Y-93867500D01*
%TO.C,R21*%
X129777258Y-103392500D02*
X129302742Y-103392500D01*
X129777258Y-102347500D02*
X129302742Y-102347500D01*
%TO.C,R20*%
X126762742Y-71867500D02*
X127237258Y-71867500D01*
X126762742Y-72912500D02*
X127237258Y-72912500D01*
%TO.C,R19*%
X126762742Y-73772500D02*
X127237258Y-73772500D01*
X126762742Y-74817500D02*
X127237258Y-74817500D01*
%TO.C,R18*%
X129777258Y-84342500D02*
X129302742Y-84342500D01*
X129777258Y-83297500D02*
X129302742Y-83297500D01*
%TO.C,R17*%
X107712742Y-90917500D02*
X108187258Y-90917500D01*
X107712742Y-91962500D02*
X108187258Y-91962500D01*
%TO.C,R16*%
X107712742Y-92822500D02*
X108187258Y-92822500D01*
X107712742Y-93867500D02*
X108187258Y-93867500D01*
%TO.C,R15*%
X110727258Y-103392500D02*
X110252742Y-103392500D01*
X110727258Y-102347500D02*
X110252742Y-102347500D01*
%TO.C,R14*%
X107712742Y-71867500D02*
X108187258Y-71867500D01*
X107712742Y-72912500D02*
X108187258Y-72912500D01*
%TO.C,R13*%
X107712742Y-73772500D02*
X108187258Y-73772500D01*
X107712742Y-74817500D02*
X108187258Y-74817500D01*
%TO.C,R12*%
X110727258Y-84342500D02*
X110252742Y-84342500D01*
X110727258Y-83297500D02*
X110252742Y-83297500D01*
%TO.C,R11*%
X152637258Y-64657500D02*
X152162742Y-64657500D01*
X152637258Y-63612500D02*
X152162742Y-63612500D01*
%TO.C,R10*%
X152637258Y-57672500D02*
X152162742Y-57672500D01*
X152637258Y-56627500D02*
X152162742Y-56627500D01*
%TO.C,R9*%
X152637258Y-50687500D02*
X152162742Y-50687500D01*
X152637258Y-49642500D02*
X152162742Y-49642500D01*
%TO.C,R8*%
X128507258Y-50687500D02*
X128032742Y-50687500D01*
X128507258Y-49642500D02*
X128032742Y-49642500D01*
%TO.C,R7*%
X128507258Y-57672500D02*
X128032742Y-57672500D01*
X128507258Y-56627500D02*
X128032742Y-56627500D01*
%TO.C,C16*%
X179845580Y-94490000D02*
X179564420Y-94490000D01*
X179845580Y-93470000D02*
X179564420Y-93470000D01*
%TO.C,C15*%
X164959420Y-89025000D02*
X165240580Y-89025000D01*
X164959420Y-90045000D02*
X165240580Y-90045000D01*
%TO.C,C14*%
X179845580Y-75440000D02*
X179564420Y-75440000D01*
X179845580Y-74420000D02*
X179564420Y-74420000D01*
%TO.C,C13*%
X164959420Y-69975000D02*
X165240580Y-69975000D01*
X164959420Y-70995000D02*
X165240580Y-70995000D01*
%TO.C,C12*%
X160795580Y-94490000D02*
X160514420Y-94490000D01*
X160795580Y-93470000D02*
X160514420Y-93470000D01*
%TO.C,C11*%
X145909420Y-89025000D02*
X146190580Y-89025000D01*
X145909420Y-90045000D02*
X146190580Y-90045000D01*
%TO.C,C10*%
X160795580Y-75440000D02*
X160514420Y-75440000D01*
X160795580Y-74420000D02*
X160514420Y-74420000D01*
%TO.C,C9*%
X145909420Y-69975000D02*
X146190580Y-69975000D01*
X145909420Y-70995000D02*
X146190580Y-70995000D01*
%TO.C,C8*%
X141745580Y-94490000D02*
X141464420Y-94490000D01*
X141745580Y-93470000D02*
X141464420Y-93470000D01*
%TO.C,C7*%
X126859420Y-89025000D02*
X127140580Y-89025000D01*
X126859420Y-90045000D02*
X127140580Y-90045000D01*
%TO.C,C5*%
X126859420Y-69975000D02*
X127140580Y-69975000D01*
X126859420Y-70995000D02*
X127140580Y-70995000D01*
%TO.C,C4*%
X122695580Y-94490000D02*
X122414420Y-94490000D01*
X122695580Y-93470000D02*
X122414420Y-93470000D01*
%TO.C,C3*%
X107809420Y-89025000D02*
X108090580Y-89025000D01*
X107809420Y-90045000D02*
X108090580Y-90045000D01*
%TO.C,C2*%
X122695580Y-75440000D02*
X122414420Y-75440000D01*
X122695580Y-74420000D02*
X122414420Y-74420000D01*
%TO.C,C1*%
X107809420Y-69975000D02*
X108090580Y-69975000D01*
X107809420Y-70995000D02*
X108090580Y-70995000D01*
%TO.C,U2*%
D12*
X123316904Y-88987380D02*
X123316904Y-89796904D01*
X123269285Y-89892142D01*
X123221666Y-89939761D01*
X123126428Y-89987380D01*
X122935952Y-89987380D01*
X122840714Y-89939761D01*
X122793095Y-89892142D01*
X122745476Y-89796904D01*
X122745476Y-88987380D01*
X122316904Y-89082619D02*
X122269285Y-89035000D01*
X122174047Y-88987380D01*
X121935952Y-88987380D01*
X121840714Y-89035000D01*
X121793095Y-89082619D01*
X121745476Y-89177857D01*
X121745476Y-89273095D01*
X121793095Y-89415952D01*
X122364523Y-89987380D01*
X121745476Y-89987380D01*
%TO.C,U5*%
X161416904Y-69937380D02*
X161416904Y-70746904D01*
X161369285Y-70842142D01*
X161321666Y-70889761D01*
X161226428Y-70937380D01*
X161035952Y-70937380D01*
X160940714Y-70889761D01*
X160893095Y-70842142D01*
X160845476Y-70746904D01*
X160845476Y-69937380D01*
X159893095Y-69937380D02*
X160369285Y-69937380D01*
X160416904Y-70413571D01*
X160369285Y-70365952D01*
X160274047Y-70318333D01*
X160035952Y-70318333D01*
X159940714Y-70365952D01*
X159893095Y-70413571D01*
X159845476Y-70508809D01*
X159845476Y-70746904D01*
X159893095Y-70842142D01*
X159940714Y-70889761D01*
X160035952Y-70937380D01*
X160274047Y-70937380D01*
X160369285Y-70889761D01*
X160416904Y-70842142D01*
%TO.C,C6*%
X141771666Y-76557142D02*
X141819285Y-76604761D01*
X141962142Y-76652380D01*
X142057380Y-76652380D01*
X142200238Y-76604761D01*
X142295476Y-76509523D01*
X142343095Y-76414285D01*
X142390714Y-76223809D01*
X142390714Y-76080952D01*
X142343095Y-75890476D01*
X142295476Y-75795238D01*
X142200238Y-75700000D01*
X142057380Y-75652380D01*
X141962142Y-75652380D01*
X141819285Y-75700000D01*
X141771666Y-75747619D01*
X140914523Y-75652380D02*
X141105000Y-75652380D01*
X141200238Y-75700000D01*
X141247857Y-75747619D01*
X141343095Y-75890476D01*
X141390714Y-76080952D01*
X141390714Y-76461904D01*
X141343095Y-76557142D01*
X141295476Y-76604761D01*
X141200238Y-76652380D01*
X141009761Y-76652380D01*
X140914523Y-76604761D01*
X140866904Y-76557142D01*
X140819285Y-76461904D01*
X140819285Y-76223809D01*
X140866904Y-76128571D01*
X140914523Y-76080952D01*
X141009761Y-76033333D01*
X141200238Y-76033333D01*
X141295476Y-76080952D01*
X141343095Y-76128571D01*
X141390714Y-76223809D01*
%TO.C,R2*%
X104306666Y-56172380D02*
X104640000Y-55696190D01*
X104878095Y-56172380D02*
X104878095Y-55172380D01*
X104497142Y-55172380D01*
X104401904Y-55220000D01*
X104354285Y-55267619D01*
X104306666Y-55362857D01*
X104306666Y-55505714D01*
X104354285Y-55600952D01*
X104401904Y-55648571D01*
X104497142Y-55696190D01*
X104878095Y-55696190D01*
X103925714Y-55267619D02*
X103878095Y-55220000D01*
X103782857Y-55172380D01*
X103544761Y-55172380D01*
X103449523Y-55220000D01*
X103401904Y-55267619D01*
X103354285Y-55362857D01*
X103354285Y-55458095D01*
X103401904Y-55600952D01*
X103973333Y-56172380D01*
X103354285Y-56172380D01*
%TO.C,R1*%
X104306666Y-49187380D02*
X104640000Y-48711190D01*
X104878095Y-49187380D02*
X104878095Y-48187380D01*
X104497142Y-48187380D01*
X104401904Y-48235000D01*
X104354285Y-48282619D01*
X104306666Y-48377857D01*
X104306666Y-48520714D01*
X104354285Y-48615952D01*
X104401904Y-48663571D01*
X104497142Y-48711190D01*
X104878095Y-48711190D01*
X103354285Y-49187380D02*
X103925714Y-49187380D01*
X103640000Y-49187380D02*
X103640000Y-48187380D01*
X103735238Y-48330238D01*
X103830476Y-48425476D01*
X103925714Y-48473095D01*
%TO.C,U8*%
X180466904Y-88987380D02*
X180466904Y-89796904D01*
X180419285Y-89892142D01*
X180371666Y-89939761D01*
X180276428Y-89987380D01*
X180085952Y-89987380D01*
X179990714Y-89939761D01*
X179943095Y-89892142D01*
X179895476Y-89796904D01*
X179895476Y-88987380D01*
X179276428Y-89415952D02*
X179371666Y-89368333D01*
X179419285Y-89320714D01*
X179466904Y-89225476D01*
X179466904Y-89177857D01*
X179419285Y-89082619D01*
X179371666Y-89035000D01*
X179276428Y-88987380D01*
X179085952Y-88987380D01*
X178990714Y-89035000D01*
X178943095Y-89082619D01*
X178895476Y-89177857D01*
X178895476Y-89225476D01*
X178943095Y-89320714D01*
X178990714Y-89368333D01*
X179085952Y-89415952D01*
X179276428Y-89415952D01*
X179371666Y-89463571D01*
X179419285Y-89511190D01*
X179466904Y-89606428D01*
X179466904Y-89796904D01*
X179419285Y-89892142D01*
X179371666Y-89939761D01*
X179276428Y-89987380D01*
X179085952Y-89987380D01*
X178990714Y-89939761D01*
X178943095Y-89892142D01*
X178895476Y-89796904D01*
X178895476Y-89606428D01*
X178943095Y-89511190D01*
X178990714Y-89463571D01*
X179085952Y-89415952D01*
%TO.C,U7*%
X180466904Y-69937380D02*
X180466904Y-70746904D01*
X180419285Y-70842142D01*
X180371666Y-70889761D01*
X180276428Y-70937380D01*
X180085952Y-70937380D01*
X179990714Y-70889761D01*
X179943095Y-70842142D01*
X179895476Y-70746904D01*
X179895476Y-69937380D01*
X179514523Y-69937380D02*
X178847857Y-69937380D01*
X179276428Y-70937380D01*
%TO.C,U6*%
X161416904Y-88987380D02*
X161416904Y-89796904D01*
X161369285Y-89892142D01*
X161321666Y-89939761D01*
X161226428Y-89987380D01*
X161035952Y-89987380D01*
X160940714Y-89939761D01*
X160893095Y-89892142D01*
X160845476Y-89796904D01*
X160845476Y-88987380D01*
X159940714Y-88987380D02*
X160131190Y-88987380D01*
X160226428Y-89035000D01*
X160274047Y-89082619D01*
X160369285Y-89225476D01*
X160416904Y-89415952D01*
X160416904Y-89796904D01*
X160369285Y-89892142D01*
X160321666Y-89939761D01*
X160226428Y-89987380D01*
X160035952Y-89987380D01*
X159940714Y-89939761D01*
X159893095Y-89892142D01*
X159845476Y-89796904D01*
X159845476Y-89558809D01*
X159893095Y-89463571D01*
X159940714Y-89415952D01*
X160035952Y-89368333D01*
X160226428Y-89368333D01*
X160321666Y-89415952D01*
X160369285Y-89463571D01*
X160416904Y-89558809D01*
%TO.C,U4*%
X142366904Y-88987380D02*
X142366904Y-89796904D01*
X142319285Y-89892142D01*
X142271666Y-89939761D01*
X142176428Y-89987380D01*
X141985952Y-89987380D01*
X141890714Y-89939761D01*
X141843095Y-89892142D01*
X141795476Y-89796904D01*
X141795476Y-88987380D01*
X140890714Y-89320714D02*
X140890714Y-89987380D01*
X141128809Y-88939761D02*
X141366904Y-89654047D01*
X140747857Y-89654047D01*
%TO.C,U3*%
X142366904Y-69937380D02*
X142366904Y-70746904D01*
X142319285Y-70842142D01*
X142271666Y-70889761D01*
X142176428Y-70937380D01*
X141985952Y-70937380D01*
X141890714Y-70889761D01*
X141843095Y-70842142D01*
X141795476Y-70746904D01*
X141795476Y-69937380D01*
X141414523Y-69937380D02*
X140795476Y-69937380D01*
X141128809Y-70318333D01*
X140985952Y-70318333D01*
X140890714Y-70365952D01*
X140843095Y-70413571D01*
X140795476Y-70508809D01*
X140795476Y-70746904D01*
X140843095Y-70842142D01*
X140890714Y-70889761D01*
X140985952Y-70937380D01*
X141271666Y-70937380D01*
X141366904Y-70889761D01*
X141414523Y-70842142D01*
%TO.C,U1*%
X123316904Y-69937380D02*
X123316904Y-70746904D01*
X123269285Y-70842142D01*
X123221666Y-70889761D01*
X123126428Y-70937380D01*
X122935952Y-70937380D01*
X122840714Y-70889761D01*
X122793095Y-70842142D01*
X122745476Y-70746904D01*
X122745476Y-69937380D01*
X121745476Y-70937380D02*
X122316904Y-70937380D01*
X122031190Y-70937380D02*
X122031190Y-69937380D01*
X122126428Y-70080238D01*
X122221666Y-70175476D01*
X122316904Y-70223095D01*
%TO.C,R35*%
X168917857Y-91892380D02*
X169251190Y-91416190D01*
X169489285Y-91892380D02*
X169489285Y-90892380D01*
X169108333Y-90892380D01*
X169013095Y-90940000D01*
X168965476Y-90987619D01*
X168917857Y-91082857D01*
X168917857Y-91225714D01*
X168965476Y-91320952D01*
X169013095Y-91368571D01*
X169108333Y-91416190D01*
X169489285Y-91416190D01*
X168584523Y-90892380D02*
X167965476Y-90892380D01*
X168298809Y-91273333D01*
X168155952Y-91273333D01*
X168060714Y-91320952D01*
X168013095Y-91368571D01*
X167965476Y-91463809D01*
X167965476Y-91701904D01*
X168013095Y-91797142D01*
X168060714Y-91844761D01*
X168155952Y-91892380D01*
X168441666Y-91892380D01*
X168536904Y-91844761D01*
X168584523Y-91797142D01*
X167060714Y-90892380D02*
X167536904Y-90892380D01*
X167584523Y-91368571D01*
X167536904Y-91320952D01*
X167441666Y-91273333D01*
X167203571Y-91273333D01*
X167108333Y-91320952D01*
X167060714Y-91368571D01*
X167013095Y-91463809D01*
X167013095Y-91701904D01*
X167060714Y-91797142D01*
X167108333Y-91844761D01*
X167203571Y-91892380D01*
X167441666Y-91892380D01*
X167536904Y-91844761D01*
X167584523Y-91797142D01*
%TO.C,R34*%
X168917857Y-93797380D02*
X169251190Y-93321190D01*
X169489285Y-93797380D02*
X169489285Y-92797380D01*
X169108333Y-92797380D01*
X169013095Y-92845000D01*
X168965476Y-92892619D01*
X168917857Y-92987857D01*
X168917857Y-93130714D01*
X168965476Y-93225952D01*
X169013095Y-93273571D01*
X169108333Y-93321190D01*
X169489285Y-93321190D01*
X168584523Y-92797380D02*
X167965476Y-92797380D01*
X168298809Y-93178333D01*
X168155952Y-93178333D01*
X168060714Y-93225952D01*
X168013095Y-93273571D01*
X167965476Y-93368809D01*
X167965476Y-93606904D01*
X168013095Y-93702142D01*
X168060714Y-93749761D01*
X168155952Y-93797380D01*
X168441666Y-93797380D01*
X168536904Y-93749761D01*
X168584523Y-93702142D01*
X167108333Y-93130714D02*
X167108333Y-93797380D01*
X167346428Y-92749761D02*
X167584523Y-93464047D01*
X166965476Y-93464047D01*
%TO.C,R33*%
X168282857Y-101892380D02*
X168616190Y-101416190D01*
X168854285Y-101892380D02*
X168854285Y-100892380D01*
X168473333Y-100892380D01*
X168378095Y-100940000D01*
X168330476Y-100987619D01*
X168282857Y-101082857D01*
X168282857Y-101225714D01*
X168330476Y-101320952D01*
X168378095Y-101368571D01*
X168473333Y-101416190D01*
X168854285Y-101416190D01*
X167949523Y-100892380D02*
X167330476Y-100892380D01*
X167663809Y-101273333D01*
X167520952Y-101273333D01*
X167425714Y-101320952D01*
X167378095Y-101368571D01*
X167330476Y-101463809D01*
X167330476Y-101701904D01*
X167378095Y-101797142D01*
X167425714Y-101844761D01*
X167520952Y-101892380D01*
X167806666Y-101892380D01*
X167901904Y-101844761D01*
X167949523Y-101797142D01*
X166997142Y-100892380D02*
X166378095Y-100892380D01*
X166711428Y-101273333D01*
X166568571Y-101273333D01*
X166473333Y-101320952D01*
X166425714Y-101368571D01*
X166378095Y-101463809D01*
X166378095Y-101701904D01*
X166425714Y-101797142D01*
X166473333Y-101844761D01*
X166568571Y-101892380D01*
X166854285Y-101892380D01*
X166949523Y-101844761D01*
X166997142Y-101797142D01*
%TO.C,R32*%
X168917857Y-72842380D02*
X169251190Y-72366190D01*
X169489285Y-72842380D02*
X169489285Y-71842380D01*
X169108333Y-71842380D01*
X169013095Y-71890000D01*
X168965476Y-71937619D01*
X168917857Y-72032857D01*
X168917857Y-72175714D01*
X168965476Y-72270952D01*
X169013095Y-72318571D01*
X169108333Y-72366190D01*
X169489285Y-72366190D01*
X168584523Y-71842380D02*
X167965476Y-71842380D01*
X168298809Y-72223333D01*
X168155952Y-72223333D01*
X168060714Y-72270952D01*
X168013095Y-72318571D01*
X167965476Y-72413809D01*
X167965476Y-72651904D01*
X168013095Y-72747142D01*
X168060714Y-72794761D01*
X168155952Y-72842380D01*
X168441666Y-72842380D01*
X168536904Y-72794761D01*
X168584523Y-72747142D01*
X167584523Y-71937619D02*
X167536904Y-71890000D01*
X167441666Y-71842380D01*
X167203571Y-71842380D01*
X167108333Y-71890000D01*
X167060714Y-71937619D01*
X167013095Y-72032857D01*
X167013095Y-72128095D01*
X167060714Y-72270952D01*
X167632142Y-72842380D01*
X167013095Y-72842380D01*
%TO.C,R31*%
X168917857Y-74747380D02*
X169251190Y-74271190D01*
X169489285Y-74747380D02*
X169489285Y-73747380D01*
X169108333Y-73747380D01*
X169013095Y-73795000D01*
X168965476Y-73842619D01*
X168917857Y-73937857D01*
X168917857Y-74080714D01*
X168965476Y-74175952D01*
X169013095Y-74223571D01*
X169108333Y-74271190D01*
X169489285Y-74271190D01*
X168584523Y-73747380D02*
X167965476Y-73747380D01*
X168298809Y-74128333D01*
X168155952Y-74128333D01*
X168060714Y-74175952D01*
X168013095Y-74223571D01*
X167965476Y-74318809D01*
X167965476Y-74556904D01*
X168013095Y-74652142D01*
X168060714Y-74699761D01*
X168155952Y-74747380D01*
X168441666Y-74747380D01*
X168536904Y-74699761D01*
X168584523Y-74652142D01*
X167013095Y-74747380D02*
X167584523Y-74747380D01*
X167298809Y-74747380D02*
X167298809Y-73747380D01*
X167394047Y-73890238D01*
X167489285Y-73985476D01*
X167584523Y-74033095D01*
%TO.C,R30*%
X168282857Y-82842380D02*
X168616190Y-82366190D01*
X168854285Y-82842380D02*
X168854285Y-81842380D01*
X168473333Y-81842380D01*
X168378095Y-81890000D01*
X168330476Y-81937619D01*
X168282857Y-82032857D01*
X168282857Y-82175714D01*
X168330476Y-82270952D01*
X168378095Y-82318571D01*
X168473333Y-82366190D01*
X168854285Y-82366190D01*
X167949523Y-81842380D02*
X167330476Y-81842380D01*
X167663809Y-82223333D01*
X167520952Y-82223333D01*
X167425714Y-82270952D01*
X167378095Y-82318571D01*
X167330476Y-82413809D01*
X167330476Y-82651904D01*
X167378095Y-82747142D01*
X167425714Y-82794761D01*
X167520952Y-82842380D01*
X167806666Y-82842380D01*
X167901904Y-82794761D01*
X167949523Y-82747142D01*
X166711428Y-81842380D02*
X166616190Y-81842380D01*
X166520952Y-81890000D01*
X166473333Y-81937619D01*
X166425714Y-82032857D01*
X166378095Y-82223333D01*
X166378095Y-82461428D01*
X166425714Y-82651904D01*
X166473333Y-82747142D01*
X166520952Y-82794761D01*
X166616190Y-82842380D01*
X166711428Y-82842380D01*
X166806666Y-82794761D01*
X166854285Y-82747142D01*
X166901904Y-82651904D01*
X166949523Y-82461428D01*
X166949523Y-82223333D01*
X166901904Y-82032857D01*
X166854285Y-81937619D01*
X166806666Y-81890000D01*
X166711428Y-81842380D01*
%TO.C,R29*%
X149867857Y-91892380D02*
X150201190Y-91416190D01*
X150439285Y-91892380D02*
X150439285Y-90892380D01*
X150058333Y-90892380D01*
X149963095Y-90940000D01*
X149915476Y-90987619D01*
X149867857Y-91082857D01*
X149867857Y-91225714D01*
X149915476Y-91320952D01*
X149963095Y-91368571D01*
X150058333Y-91416190D01*
X150439285Y-91416190D01*
X149486904Y-90987619D02*
X149439285Y-90940000D01*
X149344047Y-90892380D01*
X149105952Y-90892380D01*
X149010714Y-90940000D01*
X148963095Y-90987619D01*
X148915476Y-91082857D01*
X148915476Y-91178095D01*
X148963095Y-91320952D01*
X149534523Y-91892380D01*
X148915476Y-91892380D01*
X148439285Y-91892380D02*
X148248809Y-91892380D01*
X148153571Y-91844761D01*
X148105952Y-91797142D01*
X148010714Y-91654285D01*
X147963095Y-91463809D01*
X147963095Y-91082857D01*
X148010714Y-90987619D01*
X148058333Y-90940000D01*
X148153571Y-90892380D01*
X148344047Y-90892380D01*
X148439285Y-90940000D01*
X148486904Y-90987619D01*
X148534523Y-91082857D01*
X148534523Y-91320952D01*
X148486904Y-91416190D01*
X148439285Y-91463809D01*
X148344047Y-91511428D01*
X148153571Y-91511428D01*
X148058333Y-91463809D01*
X148010714Y-91416190D01*
X147963095Y-91320952D01*
%TO.C,R28*%
X149867857Y-93797380D02*
X150201190Y-93321190D01*
X150439285Y-93797380D02*
X150439285Y-92797380D01*
X150058333Y-92797380D01*
X149963095Y-92845000D01*
X149915476Y-92892619D01*
X149867857Y-92987857D01*
X149867857Y-93130714D01*
X149915476Y-93225952D01*
X149963095Y-93273571D01*
X150058333Y-93321190D01*
X150439285Y-93321190D01*
X149486904Y-92892619D02*
X149439285Y-92845000D01*
X149344047Y-92797380D01*
X149105952Y-92797380D01*
X149010714Y-92845000D01*
X148963095Y-92892619D01*
X148915476Y-92987857D01*
X148915476Y-93083095D01*
X148963095Y-93225952D01*
X149534523Y-93797380D01*
X148915476Y-93797380D01*
X148344047Y-93225952D02*
X148439285Y-93178333D01*
X148486904Y-93130714D01*
X148534523Y-93035476D01*
X148534523Y-92987857D01*
X148486904Y-92892619D01*
X148439285Y-92845000D01*
X148344047Y-92797380D01*
X148153571Y-92797380D01*
X148058333Y-92845000D01*
X148010714Y-92892619D01*
X147963095Y-92987857D01*
X147963095Y-93035476D01*
X148010714Y-93130714D01*
X148058333Y-93178333D01*
X148153571Y-93225952D01*
X148344047Y-93225952D01*
X148439285Y-93273571D01*
X148486904Y-93321190D01*
X148534523Y-93416428D01*
X148534523Y-93606904D01*
X148486904Y-93702142D01*
X148439285Y-93749761D01*
X148344047Y-93797380D01*
X148153571Y-93797380D01*
X148058333Y-93749761D01*
X148010714Y-93702142D01*
X147963095Y-93606904D01*
X147963095Y-93416428D01*
X148010714Y-93321190D01*
X148058333Y-93273571D01*
X148153571Y-93225952D01*
%TO.C,R27*%
X149232857Y-101892380D02*
X149566190Y-101416190D01*
X149804285Y-101892380D02*
X149804285Y-100892380D01*
X149423333Y-100892380D01*
X149328095Y-100940000D01*
X149280476Y-100987619D01*
X149232857Y-101082857D01*
X149232857Y-101225714D01*
X149280476Y-101320952D01*
X149328095Y-101368571D01*
X149423333Y-101416190D01*
X149804285Y-101416190D01*
X148851904Y-100987619D02*
X148804285Y-100940000D01*
X148709047Y-100892380D01*
X148470952Y-100892380D01*
X148375714Y-100940000D01*
X148328095Y-100987619D01*
X148280476Y-101082857D01*
X148280476Y-101178095D01*
X148328095Y-101320952D01*
X148899523Y-101892380D01*
X148280476Y-101892380D01*
X147947142Y-100892380D02*
X147280476Y-100892380D01*
X147709047Y-101892380D01*
%TO.C,R26*%
X149867857Y-72842380D02*
X150201190Y-72366190D01*
X150439285Y-72842380D02*
X150439285Y-71842380D01*
X150058333Y-71842380D01*
X149963095Y-71890000D01*
X149915476Y-71937619D01*
X149867857Y-72032857D01*
X149867857Y-72175714D01*
X149915476Y-72270952D01*
X149963095Y-72318571D01*
X150058333Y-72366190D01*
X150439285Y-72366190D01*
X149486904Y-71937619D02*
X149439285Y-71890000D01*
X149344047Y-71842380D01*
X149105952Y-71842380D01*
X149010714Y-71890000D01*
X148963095Y-71937619D01*
X148915476Y-72032857D01*
X148915476Y-72128095D01*
X148963095Y-72270952D01*
X149534523Y-72842380D01*
X148915476Y-72842380D01*
X148058333Y-71842380D02*
X148248809Y-71842380D01*
X148344047Y-71890000D01*
X148391666Y-71937619D01*
X148486904Y-72080476D01*
X148534523Y-72270952D01*
X148534523Y-72651904D01*
X148486904Y-72747142D01*
X148439285Y-72794761D01*
X148344047Y-72842380D01*
X148153571Y-72842380D01*
X148058333Y-72794761D01*
X148010714Y-72747142D01*
X147963095Y-72651904D01*
X147963095Y-72413809D01*
X148010714Y-72318571D01*
X148058333Y-72270952D01*
X148153571Y-72223333D01*
X148344047Y-72223333D01*
X148439285Y-72270952D01*
X148486904Y-72318571D01*
X148534523Y-72413809D01*
%TO.C,R25*%
X149867857Y-74747380D02*
X150201190Y-74271190D01*
X150439285Y-74747380D02*
X150439285Y-73747380D01*
X150058333Y-73747380D01*
X149963095Y-73795000D01*
X149915476Y-73842619D01*
X149867857Y-73937857D01*
X149867857Y-74080714D01*
X149915476Y-74175952D01*
X149963095Y-74223571D01*
X150058333Y-74271190D01*
X150439285Y-74271190D01*
X149486904Y-73842619D02*
X149439285Y-73795000D01*
X149344047Y-73747380D01*
X149105952Y-73747380D01*
X149010714Y-73795000D01*
X148963095Y-73842619D01*
X148915476Y-73937857D01*
X148915476Y-74033095D01*
X148963095Y-74175952D01*
X149534523Y-74747380D01*
X148915476Y-74747380D01*
X148010714Y-73747380D02*
X148486904Y-73747380D01*
X148534523Y-74223571D01*
X148486904Y-74175952D01*
X148391666Y-74128333D01*
X148153571Y-74128333D01*
X148058333Y-74175952D01*
X148010714Y-74223571D01*
X147963095Y-74318809D01*
X147963095Y-74556904D01*
X148010714Y-74652142D01*
X148058333Y-74699761D01*
X148153571Y-74747380D01*
X148391666Y-74747380D01*
X148486904Y-74699761D01*
X148534523Y-74652142D01*
%TO.C,R24*%
X149232857Y-82842380D02*
X149566190Y-82366190D01*
X149804285Y-82842380D02*
X149804285Y-81842380D01*
X149423333Y-81842380D01*
X149328095Y-81890000D01*
X149280476Y-81937619D01*
X149232857Y-82032857D01*
X149232857Y-82175714D01*
X149280476Y-82270952D01*
X149328095Y-82318571D01*
X149423333Y-82366190D01*
X149804285Y-82366190D01*
X148851904Y-81937619D02*
X148804285Y-81890000D01*
X148709047Y-81842380D01*
X148470952Y-81842380D01*
X148375714Y-81890000D01*
X148328095Y-81937619D01*
X148280476Y-82032857D01*
X148280476Y-82128095D01*
X148328095Y-82270952D01*
X148899523Y-82842380D01*
X148280476Y-82842380D01*
X147423333Y-82175714D02*
X147423333Y-82842380D01*
X147661428Y-81794761D02*
X147899523Y-82509047D01*
X147280476Y-82509047D01*
%TO.C,R23*%
X130817857Y-91892380D02*
X131151190Y-91416190D01*
X131389285Y-91892380D02*
X131389285Y-90892380D01*
X131008333Y-90892380D01*
X130913095Y-90940000D01*
X130865476Y-90987619D01*
X130817857Y-91082857D01*
X130817857Y-91225714D01*
X130865476Y-91320952D01*
X130913095Y-91368571D01*
X131008333Y-91416190D01*
X131389285Y-91416190D01*
X130436904Y-90987619D02*
X130389285Y-90940000D01*
X130294047Y-90892380D01*
X130055952Y-90892380D01*
X129960714Y-90940000D01*
X129913095Y-90987619D01*
X129865476Y-91082857D01*
X129865476Y-91178095D01*
X129913095Y-91320952D01*
X130484523Y-91892380D01*
X129865476Y-91892380D01*
X129532142Y-90892380D02*
X128913095Y-90892380D01*
X129246428Y-91273333D01*
X129103571Y-91273333D01*
X129008333Y-91320952D01*
X128960714Y-91368571D01*
X128913095Y-91463809D01*
X128913095Y-91701904D01*
X128960714Y-91797142D01*
X129008333Y-91844761D01*
X129103571Y-91892380D01*
X129389285Y-91892380D01*
X129484523Y-91844761D01*
X129532142Y-91797142D01*
%TO.C,R22*%
X130817857Y-93797380D02*
X131151190Y-93321190D01*
X131389285Y-93797380D02*
X131389285Y-92797380D01*
X131008333Y-92797380D01*
X130913095Y-92845000D01*
X130865476Y-92892619D01*
X130817857Y-92987857D01*
X130817857Y-93130714D01*
X130865476Y-93225952D01*
X130913095Y-93273571D01*
X131008333Y-93321190D01*
X131389285Y-93321190D01*
X130436904Y-92892619D02*
X130389285Y-92845000D01*
X130294047Y-92797380D01*
X130055952Y-92797380D01*
X129960714Y-92845000D01*
X129913095Y-92892619D01*
X129865476Y-92987857D01*
X129865476Y-93083095D01*
X129913095Y-93225952D01*
X130484523Y-93797380D01*
X129865476Y-93797380D01*
X129484523Y-92892619D02*
X129436904Y-92845000D01*
X129341666Y-92797380D01*
X129103571Y-92797380D01*
X129008333Y-92845000D01*
X128960714Y-92892619D01*
X128913095Y-92987857D01*
X128913095Y-93083095D01*
X128960714Y-93225952D01*
X129532142Y-93797380D01*
X128913095Y-93797380D01*
%TO.C,R21*%
X130182857Y-101892380D02*
X130516190Y-101416190D01*
X130754285Y-101892380D02*
X130754285Y-100892380D01*
X130373333Y-100892380D01*
X130278095Y-100940000D01*
X130230476Y-100987619D01*
X130182857Y-101082857D01*
X130182857Y-101225714D01*
X130230476Y-101320952D01*
X130278095Y-101368571D01*
X130373333Y-101416190D01*
X130754285Y-101416190D01*
X129801904Y-100987619D02*
X129754285Y-100940000D01*
X129659047Y-100892380D01*
X129420952Y-100892380D01*
X129325714Y-100940000D01*
X129278095Y-100987619D01*
X129230476Y-101082857D01*
X129230476Y-101178095D01*
X129278095Y-101320952D01*
X129849523Y-101892380D01*
X129230476Y-101892380D01*
X128278095Y-101892380D02*
X128849523Y-101892380D01*
X128563809Y-101892380D02*
X128563809Y-100892380D01*
X128659047Y-101035238D01*
X128754285Y-101130476D01*
X128849523Y-101178095D01*
%TO.C,R20*%
X130817857Y-72842380D02*
X131151190Y-72366190D01*
X131389285Y-72842380D02*
X131389285Y-71842380D01*
X131008333Y-71842380D01*
X130913095Y-71890000D01*
X130865476Y-71937619D01*
X130817857Y-72032857D01*
X130817857Y-72175714D01*
X130865476Y-72270952D01*
X130913095Y-72318571D01*
X131008333Y-72366190D01*
X131389285Y-72366190D01*
X130436904Y-71937619D02*
X130389285Y-71890000D01*
X130294047Y-71842380D01*
X130055952Y-71842380D01*
X129960714Y-71890000D01*
X129913095Y-71937619D01*
X129865476Y-72032857D01*
X129865476Y-72128095D01*
X129913095Y-72270952D01*
X130484523Y-72842380D01*
X129865476Y-72842380D01*
X129246428Y-71842380D02*
X129151190Y-71842380D01*
X129055952Y-71890000D01*
X129008333Y-71937619D01*
X128960714Y-72032857D01*
X128913095Y-72223333D01*
X128913095Y-72461428D01*
X128960714Y-72651904D01*
X129008333Y-72747142D01*
X129055952Y-72794761D01*
X129151190Y-72842380D01*
X129246428Y-72842380D01*
X129341666Y-72794761D01*
X129389285Y-72747142D01*
X129436904Y-72651904D01*
X129484523Y-72461428D01*
X129484523Y-72223333D01*
X129436904Y-72032857D01*
X129389285Y-71937619D01*
X129341666Y-71890000D01*
X129246428Y-71842380D01*
%TO.C,R19*%
X130817857Y-74747380D02*
X131151190Y-74271190D01*
X131389285Y-74747380D02*
X131389285Y-73747380D01*
X131008333Y-73747380D01*
X130913095Y-73795000D01*
X130865476Y-73842619D01*
X130817857Y-73937857D01*
X130817857Y-74080714D01*
X130865476Y-74175952D01*
X130913095Y-74223571D01*
X131008333Y-74271190D01*
X131389285Y-74271190D01*
X129865476Y-74747380D02*
X130436904Y-74747380D01*
X130151190Y-74747380D02*
X130151190Y-73747380D01*
X130246428Y-73890238D01*
X130341666Y-73985476D01*
X130436904Y-74033095D01*
X129389285Y-74747380D02*
X129198809Y-74747380D01*
X129103571Y-74699761D01*
X129055952Y-74652142D01*
X128960714Y-74509285D01*
X128913095Y-74318809D01*
X128913095Y-73937857D01*
X128960714Y-73842619D01*
X129008333Y-73795000D01*
X129103571Y-73747380D01*
X129294047Y-73747380D01*
X129389285Y-73795000D01*
X129436904Y-73842619D01*
X129484523Y-73937857D01*
X129484523Y-74175952D01*
X129436904Y-74271190D01*
X129389285Y-74318809D01*
X129294047Y-74366428D01*
X129103571Y-74366428D01*
X129008333Y-74318809D01*
X128960714Y-74271190D01*
X128913095Y-74175952D01*
%TO.C,R18*%
X130182857Y-82842380D02*
X130516190Y-82366190D01*
X130754285Y-82842380D02*
X130754285Y-81842380D01*
X130373333Y-81842380D01*
X130278095Y-81890000D01*
X130230476Y-81937619D01*
X130182857Y-82032857D01*
X130182857Y-82175714D01*
X130230476Y-82270952D01*
X130278095Y-82318571D01*
X130373333Y-82366190D01*
X130754285Y-82366190D01*
X129230476Y-82842380D02*
X129801904Y-82842380D01*
X129516190Y-82842380D02*
X129516190Y-81842380D01*
X129611428Y-81985238D01*
X129706666Y-82080476D01*
X129801904Y-82128095D01*
X128659047Y-82270952D02*
X128754285Y-82223333D01*
X128801904Y-82175714D01*
X128849523Y-82080476D01*
X128849523Y-82032857D01*
X128801904Y-81937619D01*
X128754285Y-81890000D01*
X128659047Y-81842380D01*
X128468571Y-81842380D01*
X128373333Y-81890000D01*
X128325714Y-81937619D01*
X128278095Y-82032857D01*
X128278095Y-82080476D01*
X128325714Y-82175714D01*
X128373333Y-82223333D01*
X128468571Y-82270952D01*
X128659047Y-82270952D01*
X128754285Y-82318571D01*
X128801904Y-82366190D01*
X128849523Y-82461428D01*
X128849523Y-82651904D01*
X128801904Y-82747142D01*
X128754285Y-82794761D01*
X128659047Y-82842380D01*
X128468571Y-82842380D01*
X128373333Y-82794761D01*
X128325714Y-82747142D01*
X128278095Y-82651904D01*
X128278095Y-82461428D01*
X128325714Y-82366190D01*
X128373333Y-82318571D01*
X128468571Y-82270952D01*
%TO.C,R17*%
X111767857Y-91892380D02*
X112101190Y-91416190D01*
X112339285Y-91892380D02*
X112339285Y-90892380D01*
X111958333Y-90892380D01*
X111863095Y-90940000D01*
X111815476Y-90987619D01*
X111767857Y-91082857D01*
X111767857Y-91225714D01*
X111815476Y-91320952D01*
X111863095Y-91368571D01*
X111958333Y-91416190D01*
X112339285Y-91416190D01*
X110815476Y-91892380D02*
X111386904Y-91892380D01*
X111101190Y-91892380D02*
X111101190Y-90892380D01*
X111196428Y-91035238D01*
X111291666Y-91130476D01*
X111386904Y-91178095D01*
X110482142Y-90892380D02*
X109815476Y-90892380D01*
X110244047Y-91892380D01*
%TO.C,R16*%
X111767857Y-93797380D02*
X112101190Y-93321190D01*
X112339285Y-93797380D02*
X112339285Y-92797380D01*
X111958333Y-92797380D01*
X111863095Y-92845000D01*
X111815476Y-92892619D01*
X111767857Y-92987857D01*
X111767857Y-93130714D01*
X111815476Y-93225952D01*
X111863095Y-93273571D01*
X111958333Y-93321190D01*
X112339285Y-93321190D01*
X110815476Y-93797380D02*
X111386904Y-93797380D01*
X111101190Y-93797380D02*
X111101190Y-92797380D01*
X111196428Y-92940238D01*
X111291666Y-93035476D01*
X111386904Y-93083095D01*
X109958333Y-92797380D02*
X110148809Y-92797380D01*
X110244047Y-92845000D01*
X110291666Y-92892619D01*
X110386904Y-93035476D01*
X110434523Y-93225952D01*
X110434523Y-93606904D01*
X110386904Y-93702142D01*
X110339285Y-93749761D01*
X110244047Y-93797380D01*
X110053571Y-93797380D01*
X109958333Y-93749761D01*
X109910714Y-93702142D01*
X109863095Y-93606904D01*
X109863095Y-93368809D01*
X109910714Y-93273571D01*
X109958333Y-93225952D01*
X110053571Y-93178333D01*
X110244047Y-93178333D01*
X110339285Y-93225952D01*
X110386904Y-93273571D01*
X110434523Y-93368809D01*
%TO.C,R15*%
X111132857Y-101892380D02*
X111466190Y-101416190D01*
X111704285Y-101892380D02*
X111704285Y-100892380D01*
X111323333Y-100892380D01*
X111228095Y-100940000D01*
X111180476Y-100987619D01*
X111132857Y-101082857D01*
X111132857Y-101225714D01*
X111180476Y-101320952D01*
X111228095Y-101368571D01*
X111323333Y-101416190D01*
X111704285Y-101416190D01*
X110180476Y-101892380D02*
X110751904Y-101892380D01*
X110466190Y-101892380D02*
X110466190Y-100892380D01*
X110561428Y-101035238D01*
X110656666Y-101130476D01*
X110751904Y-101178095D01*
X109275714Y-100892380D02*
X109751904Y-100892380D01*
X109799523Y-101368571D01*
X109751904Y-101320952D01*
X109656666Y-101273333D01*
X109418571Y-101273333D01*
X109323333Y-101320952D01*
X109275714Y-101368571D01*
X109228095Y-101463809D01*
X109228095Y-101701904D01*
X109275714Y-101797142D01*
X109323333Y-101844761D01*
X109418571Y-101892380D01*
X109656666Y-101892380D01*
X109751904Y-101844761D01*
X109799523Y-101797142D01*
%TO.C,R14*%
X111767857Y-72842380D02*
X112101190Y-72366190D01*
X112339285Y-72842380D02*
X112339285Y-71842380D01*
X111958333Y-71842380D01*
X111863095Y-71890000D01*
X111815476Y-71937619D01*
X111767857Y-72032857D01*
X111767857Y-72175714D01*
X111815476Y-72270952D01*
X111863095Y-72318571D01*
X111958333Y-72366190D01*
X112339285Y-72366190D01*
X110815476Y-72842380D02*
X111386904Y-72842380D01*
X111101190Y-72842380D02*
X111101190Y-71842380D01*
X111196428Y-71985238D01*
X111291666Y-72080476D01*
X111386904Y-72128095D01*
X109958333Y-72175714D02*
X109958333Y-72842380D01*
X110196428Y-71794761D02*
X110434523Y-72509047D01*
X109815476Y-72509047D01*
%TO.C,R13*%
X111767857Y-74747380D02*
X112101190Y-74271190D01*
X112339285Y-74747380D02*
X112339285Y-73747380D01*
X111958333Y-73747380D01*
X111863095Y-73795000D01*
X111815476Y-73842619D01*
X111767857Y-73937857D01*
X111767857Y-74080714D01*
X111815476Y-74175952D01*
X111863095Y-74223571D01*
X111958333Y-74271190D01*
X112339285Y-74271190D01*
X110815476Y-74747380D02*
X111386904Y-74747380D01*
X111101190Y-74747380D02*
X111101190Y-73747380D01*
X111196428Y-73890238D01*
X111291666Y-73985476D01*
X111386904Y-74033095D01*
X110482142Y-73747380D02*
X109863095Y-73747380D01*
X110196428Y-74128333D01*
X110053571Y-74128333D01*
X109958333Y-74175952D01*
X109910714Y-74223571D01*
X109863095Y-74318809D01*
X109863095Y-74556904D01*
X109910714Y-74652142D01*
X109958333Y-74699761D01*
X110053571Y-74747380D01*
X110339285Y-74747380D01*
X110434523Y-74699761D01*
X110482142Y-74652142D01*
%TO.C,R12*%
X111132857Y-82842380D02*
X111466190Y-82366190D01*
X111704285Y-82842380D02*
X111704285Y-81842380D01*
X111323333Y-81842380D01*
X111228095Y-81890000D01*
X111180476Y-81937619D01*
X111132857Y-82032857D01*
X111132857Y-82175714D01*
X111180476Y-82270952D01*
X111228095Y-82318571D01*
X111323333Y-82366190D01*
X111704285Y-82366190D01*
X110180476Y-82842380D02*
X110751904Y-82842380D01*
X110466190Y-82842380D02*
X110466190Y-81842380D01*
X110561428Y-81985238D01*
X110656666Y-82080476D01*
X110751904Y-82128095D01*
X109799523Y-81937619D02*
X109751904Y-81890000D01*
X109656666Y-81842380D01*
X109418571Y-81842380D01*
X109323333Y-81890000D01*
X109275714Y-81937619D01*
X109228095Y-82032857D01*
X109228095Y-82128095D01*
X109275714Y-82270952D01*
X109847142Y-82842380D01*
X109228095Y-82842380D01*
%TO.C,R11*%
X153042857Y-63317380D02*
X153376190Y-62841190D01*
X153614285Y-63317380D02*
X153614285Y-62317380D01*
X153233333Y-62317380D01*
X153138095Y-62365000D01*
X153090476Y-62412619D01*
X153042857Y-62507857D01*
X153042857Y-62650714D01*
X153090476Y-62745952D01*
X153138095Y-62793571D01*
X153233333Y-62841190D01*
X153614285Y-62841190D01*
X152090476Y-63317380D02*
X152661904Y-63317380D01*
X152376190Y-63317380D02*
X152376190Y-62317380D01*
X152471428Y-62460238D01*
X152566666Y-62555476D01*
X152661904Y-62603095D01*
X151138095Y-63317380D02*
X151709523Y-63317380D01*
X151423809Y-63317380D02*
X151423809Y-62317380D01*
X151519047Y-62460238D01*
X151614285Y-62555476D01*
X151709523Y-62603095D01*
%TO.C,R10*%
X153042857Y-56172380D02*
X153376190Y-55696190D01*
X153614285Y-56172380D02*
X153614285Y-55172380D01*
X153233333Y-55172380D01*
X153138095Y-55220000D01*
X153090476Y-55267619D01*
X153042857Y-55362857D01*
X153042857Y-55505714D01*
X153090476Y-55600952D01*
X153138095Y-55648571D01*
X153233333Y-55696190D01*
X153614285Y-55696190D01*
X152090476Y-56172380D02*
X152661904Y-56172380D01*
X152376190Y-56172380D02*
X152376190Y-55172380D01*
X152471428Y-55315238D01*
X152566666Y-55410476D01*
X152661904Y-55458095D01*
X151471428Y-55172380D02*
X151376190Y-55172380D01*
X151280952Y-55220000D01*
X151233333Y-55267619D01*
X151185714Y-55362857D01*
X151138095Y-55553333D01*
X151138095Y-55791428D01*
X151185714Y-55981904D01*
X151233333Y-56077142D01*
X151280952Y-56124761D01*
X151376190Y-56172380D01*
X151471428Y-56172380D01*
X151566666Y-56124761D01*
X151614285Y-56077142D01*
X151661904Y-55981904D01*
X151709523Y-55791428D01*
X151709523Y-55553333D01*
X151661904Y-55362857D01*
X151614285Y-55267619D01*
X151566666Y-55220000D01*
X151471428Y-55172380D01*
%TO.C,R9*%
X152566666Y-49347380D02*
X152900000Y-48871190D01*
X153138095Y-49347380D02*
X153138095Y-48347380D01*
X152757142Y-48347380D01*
X152661904Y-48395000D01*
X152614285Y-48442619D01*
X152566666Y-48537857D01*
X152566666Y-48680714D01*
X152614285Y-48775952D01*
X152661904Y-48823571D01*
X152757142Y-48871190D01*
X153138095Y-48871190D01*
X152090476Y-49347380D02*
X151900000Y-49347380D01*
X151804761Y-49299761D01*
X151757142Y-49252142D01*
X151661904Y-49109285D01*
X151614285Y-48918809D01*
X151614285Y-48537857D01*
X151661904Y-48442619D01*
X151709523Y-48395000D01*
X151804761Y-48347380D01*
X151995238Y-48347380D01*
X152090476Y-48395000D01*
X152138095Y-48442619D01*
X152185714Y-48537857D01*
X152185714Y-48775952D01*
X152138095Y-48871190D01*
X152090476Y-48918809D01*
X151995238Y-48966428D01*
X151804761Y-48966428D01*
X151709523Y-48918809D01*
X151661904Y-48871190D01*
X151614285Y-48775952D01*
%TO.C,R8*%
X128436666Y-49347380D02*
X128770000Y-48871190D01*
X129008095Y-49347380D02*
X129008095Y-48347380D01*
X128627142Y-48347380D01*
X128531904Y-48395000D01*
X128484285Y-48442619D01*
X128436666Y-48537857D01*
X128436666Y-48680714D01*
X128484285Y-48775952D01*
X128531904Y-48823571D01*
X128627142Y-48871190D01*
X129008095Y-48871190D01*
X127865238Y-48775952D02*
X127960476Y-48728333D01*
X128008095Y-48680714D01*
X128055714Y-48585476D01*
X128055714Y-48537857D01*
X128008095Y-48442619D01*
X127960476Y-48395000D01*
X127865238Y-48347380D01*
X127674761Y-48347380D01*
X127579523Y-48395000D01*
X127531904Y-48442619D01*
X127484285Y-48537857D01*
X127484285Y-48585476D01*
X127531904Y-48680714D01*
X127579523Y-48728333D01*
X127674761Y-48775952D01*
X127865238Y-48775952D01*
X127960476Y-48823571D01*
X128008095Y-48871190D01*
X128055714Y-48966428D01*
X128055714Y-49156904D01*
X128008095Y-49252142D01*
X127960476Y-49299761D01*
X127865238Y-49347380D01*
X127674761Y-49347380D01*
X127579523Y-49299761D01*
X127531904Y-49252142D01*
X127484285Y-49156904D01*
X127484285Y-48966428D01*
X127531904Y-48871190D01*
X127579523Y-48823571D01*
X127674761Y-48775952D01*
%TO.C,R7*%
X128436666Y-56332380D02*
X128770000Y-55856190D01*
X129008095Y-56332380D02*
X129008095Y-55332380D01*
X128627142Y-55332380D01*
X128531904Y-55380000D01*
X128484285Y-55427619D01*
X128436666Y-55522857D01*
X128436666Y-55665714D01*
X128484285Y-55760952D01*
X128531904Y-55808571D01*
X128627142Y-55856190D01*
X129008095Y-55856190D01*
X128103333Y-55332380D02*
X127436666Y-55332380D01*
X127865238Y-56332380D01*
%TO.C,C16*%
X180347857Y-95607142D02*
X180395476Y-95654761D01*
X180538333Y-95702380D01*
X180633571Y-95702380D01*
X180776428Y-95654761D01*
X180871666Y-95559523D01*
X180919285Y-95464285D01*
X180966904Y-95273809D01*
X180966904Y-95130952D01*
X180919285Y-94940476D01*
X180871666Y-94845238D01*
X180776428Y-94750000D01*
X180633571Y-94702380D01*
X180538333Y-94702380D01*
X180395476Y-94750000D01*
X180347857Y-94797619D01*
X179395476Y-95702380D02*
X179966904Y-95702380D01*
X179681190Y-95702380D02*
X179681190Y-94702380D01*
X179776428Y-94845238D01*
X179871666Y-94940476D01*
X179966904Y-94988095D01*
X178538333Y-94702380D02*
X178728809Y-94702380D01*
X178824047Y-94750000D01*
X178871666Y-94797619D01*
X178966904Y-94940476D01*
X179014523Y-95130952D01*
X179014523Y-95511904D01*
X178966904Y-95607142D01*
X178919285Y-95654761D01*
X178824047Y-95702380D01*
X178633571Y-95702380D01*
X178538333Y-95654761D01*
X178490714Y-95607142D01*
X178443095Y-95511904D01*
X178443095Y-95273809D01*
X178490714Y-95178571D01*
X178538333Y-95130952D01*
X178633571Y-95083333D01*
X178824047Y-95083333D01*
X178919285Y-95130952D01*
X178966904Y-95178571D01*
X179014523Y-95273809D01*
%TO.C,C15*%
X168917857Y-89892142D02*
X168965476Y-89939761D01*
X169108333Y-89987380D01*
X169203571Y-89987380D01*
X169346428Y-89939761D01*
X169441666Y-89844523D01*
X169489285Y-89749285D01*
X169536904Y-89558809D01*
X169536904Y-89415952D01*
X169489285Y-89225476D01*
X169441666Y-89130238D01*
X169346428Y-89035000D01*
X169203571Y-88987380D01*
X169108333Y-88987380D01*
X168965476Y-89035000D01*
X168917857Y-89082619D01*
X167965476Y-89987380D02*
X168536904Y-89987380D01*
X168251190Y-89987380D02*
X168251190Y-88987380D01*
X168346428Y-89130238D01*
X168441666Y-89225476D01*
X168536904Y-89273095D01*
X167060714Y-88987380D02*
X167536904Y-88987380D01*
X167584523Y-89463571D01*
X167536904Y-89415952D01*
X167441666Y-89368333D01*
X167203571Y-89368333D01*
X167108333Y-89415952D01*
X167060714Y-89463571D01*
X167013095Y-89558809D01*
X167013095Y-89796904D01*
X167060714Y-89892142D01*
X167108333Y-89939761D01*
X167203571Y-89987380D01*
X167441666Y-89987380D01*
X167536904Y-89939761D01*
X167584523Y-89892142D01*
%TO.C,C14*%
X180347857Y-76557142D02*
X180395476Y-76604761D01*
X180538333Y-76652380D01*
X180633571Y-76652380D01*
X180776428Y-76604761D01*
X180871666Y-76509523D01*
X180919285Y-76414285D01*
X180966904Y-76223809D01*
X180966904Y-76080952D01*
X180919285Y-75890476D01*
X180871666Y-75795238D01*
X180776428Y-75700000D01*
X180633571Y-75652380D01*
X180538333Y-75652380D01*
X180395476Y-75700000D01*
X180347857Y-75747619D01*
X179395476Y-76652380D02*
X179966904Y-76652380D01*
X179681190Y-76652380D02*
X179681190Y-75652380D01*
X179776428Y-75795238D01*
X179871666Y-75890476D01*
X179966904Y-75938095D01*
X178538333Y-75985714D02*
X178538333Y-76652380D01*
X178776428Y-75604761D02*
X179014523Y-76319047D01*
X178395476Y-76319047D01*
%TO.C,C13*%
X168917857Y-70842142D02*
X168965476Y-70889761D01*
X169108333Y-70937380D01*
X169203571Y-70937380D01*
X169346428Y-70889761D01*
X169441666Y-70794523D01*
X169489285Y-70699285D01*
X169536904Y-70508809D01*
X169536904Y-70365952D01*
X169489285Y-70175476D01*
X169441666Y-70080238D01*
X169346428Y-69985000D01*
X169203571Y-69937380D01*
X169108333Y-69937380D01*
X168965476Y-69985000D01*
X168917857Y-70032619D01*
X167965476Y-70937380D02*
X168536904Y-70937380D01*
X168251190Y-70937380D02*
X168251190Y-69937380D01*
X168346428Y-70080238D01*
X168441666Y-70175476D01*
X168536904Y-70223095D01*
X167632142Y-69937380D02*
X167013095Y-69937380D01*
X167346428Y-70318333D01*
X167203571Y-70318333D01*
X167108333Y-70365952D01*
X167060714Y-70413571D01*
X167013095Y-70508809D01*
X167013095Y-70746904D01*
X167060714Y-70842142D01*
X167108333Y-70889761D01*
X167203571Y-70937380D01*
X167489285Y-70937380D01*
X167584523Y-70889761D01*
X167632142Y-70842142D01*
%TO.C,C12*%
X161297857Y-95607142D02*
X161345476Y-95654761D01*
X161488333Y-95702380D01*
X161583571Y-95702380D01*
X161726428Y-95654761D01*
X161821666Y-95559523D01*
X161869285Y-95464285D01*
X161916904Y-95273809D01*
X161916904Y-95130952D01*
X161869285Y-94940476D01*
X161821666Y-94845238D01*
X161726428Y-94750000D01*
X161583571Y-94702380D01*
X161488333Y-94702380D01*
X161345476Y-94750000D01*
X161297857Y-94797619D01*
X160345476Y-95702380D02*
X160916904Y-95702380D01*
X160631190Y-95702380D02*
X160631190Y-94702380D01*
X160726428Y-94845238D01*
X160821666Y-94940476D01*
X160916904Y-94988095D01*
X159964523Y-94797619D02*
X159916904Y-94750000D01*
X159821666Y-94702380D01*
X159583571Y-94702380D01*
X159488333Y-94750000D01*
X159440714Y-94797619D01*
X159393095Y-94892857D01*
X159393095Y-94988095D01*
X159440714Y-95130952D01*
X160012142Y-95702380D01*
X159393095Y-95702380D01*
%TO.C,C11*%
X149867857Y-89892142D02*
X149915476Y-89939761D01*
X150058333Y-89987380D01*
X150153571Y-89987380D01*
X150296428Y-89939761D01*
X150391666Y-89844523D01*
X150439285Y-89749285D01*
X150486904Y-89558809D01*
X150486904Y-89415952D01*
X150439285Y-89225476D01*
X150391666Y-89130238D01*
X150296428Y-89035000D01*
X150153571Y-88987380D01*
X150058333Y-88987380D01*
X149915476Y-89035000D01*
X149867857Y-89082619D01*
X148915476Y-89987380D02*
X149486904Y-89987380D01*
X149201190Y-89987380D02*
X149201190Y-88987380D01*
X149296428Y-89130238D01*
X149391666Y-89225476D01*
X149486904Y-89273095D01*
X147963095Y-89987380D02*
X148534523Y-89987380D01*
X148248809Y-89987380D02*
X148248809Y-88987380D01*
X148344047Y-89130238D01*
X148439285Y-89225476D01*
X148534523Y-89273095D01*
%TO.C,C10*%
X161297857Y-76557142D02*
X161345476Y-76604761D01*
X161488333Y-76652380D01*
X161583571Y-76652380D01*
X161726428Y-76604761D01*
X161821666Y-76509523D01*
X161869285Y-76414285D01*
X161916904Y-76223809D01*
X161916904Y-76080952D01*
X161869285Y-75890476D01*
X161821666Y-75795238D01*
X161726428Y-75700000D01*
X161583571Y-75652380D01*
X161488333Y-75652380D01*
X161345476Y-75700000D01*
X161297857Y-75747619D01*
X160345476Y-76652380D02*
X160916904Y-76652380D01*
X160631190Y-76652380D02*
X160631190Y-75652380D01*
X160726428Y-75795238D01*
X160821666Y-75890476D01*
X160916904Y-75938095D01*
X159726428Y-75652380D02*
X159631190Y-75652380D01*
X159535952Y-75700000D01*
X159488333Y-75747619D01*
X159440714Y-75842857D01*
X159393095Y-76033333D01*
X159393095Y-76271428D01*
X159440714Y-76461904D01*
X159488333Y-76557142D01*
X159535952Y-76604761D01*
X159631190Y-76652380D01*
X159726428Y-76652380D01*
X159821666Y-76604761D01*
X159869285Y-76557142D01*
X159916904Y-76461904D01*
X159964523Y-76271428D01*
X159964523Y-76033333D01*
X159916904Y-75842857D01*
X159869285Y-75747619D01*
X159821666Y-75700000D01*
X159726428Y-75652380D01*
%TO.C,C9*%
X150026666Y-70842142D02*
X150074285Y-70889761D01*
X150217142Y-70937380D01*
X150312380Y-70937380D01*
X150455238Y-70889761D01*
X150550476Y-70794523D01*
X150598095Y-70699285D01*
X150645714Y-70508809D01*
X150645714Y-70365952D01*
X150598095Y-70175476D01*
X150550476Y-70080238D01*
X150455238Y-69985000D01*
X150312380Y-69937380D01*
X150217142Y-69937380D01*
X150074285Y-69985000D01*
X150026666Y-70032619D01*
X149550476Y-70937380D02*
X149360000Y-70937380D01*
X149264761Y-70889761D01*
X149217142Y-70842142D01*
X149121904Y-70699285D01*
X149074285Y-70508809D01*
X149074285Y-70127857D01*
X149121904Y-70032619D01*
X149169523Y-69985000D01*
X149264761Y-69937380D01*
X149455238Y-69937380D01*
X149550476Y-69985000D01*
X149598095Y-70032619D01*
X149645714Y-70127857D01*
X149645714Y-70365952D01*
X149598095Y-70461190D01*
X149550476Y-70508809D01*
X149455238Y-70556428D01*
X149264761Y-70556428D01*
X149169523Y-70508809D01*
X149121904Y-70461190D01*
X149074285Y-70365952D01*
%TO.C,C8*%
X141771666Y-95607142D02*
X141819285Y-95654761D01*
X141962142Y-95702380D01*
X142057380Y-95702380D01*
X142200238Y-95654761D01*
X142295476Y-95559523D01*
X142343095Y-95464285D01*
X142390714Y-95273809D01*
X142390714Y-95130952D01*
X142343095Y-94940476D01*
X142295476Y-94845238D01*
X142200238Y-94750000D01*
X142057380Y-94702380D01*
X141962142Y-94702380D01*
X141819285Y-94750000D01*
X141771666Y-94797619D01*
X141200238Y-95130952D02*
X141295476Y-95083333D01*
X141343095Y-95035714D01*
X141390714Y-94940476D01*
X141390714Y-94892857D01*
X141343095Y-94797619D01*
X141295476Y-94750000D01*
X141200238Y-94702380D01*
X141009761Y-94702380D01*
X140914523Y-94750000D01*
X140866904Y-94797619D01*
X140819285Y-94892857D01*
X140819285Y-94940476D01*
X140866904Y-95035714D01*
X140914523Y-95083333D01*
X141009761Y-95130952D01*
X141200238Y-95130952D01*
X141295476Y-95178571D01*
X141343095Y-95226190D01*
X141390714Y-95321428D01*
X141390714Y-95511904D01*
X141343095Y-95607142D01*
X141295476Y-95654761D01*
X141200238Y-95702380D01*
X141009761Y-95702380D01*
X140914523Y-95654761D01*
X140866904Y-95607142D01*
X140819285Y-95511904D01*
X140819285Y-95321428D01*
X140866904Y-95226190D01*
X140914523Y-95178571D01*
X141009761Y-95130952D01*
%TO.C,C7*%
X130976666Y-89892142D02*
X131024285Y-89939761D01*
X131167142Y-89987380D01*
X131262380Y-89987380D01*
X131405238Y-89939761D01*
X131500476Y-89844523D01*
X131548095Y-89749285D01*
X131595714Y-89558809D01*
X131595714Y-89415952D01*
X131548095Y-89225476D01*
X131500476Y-89130238D01*
X131405238Y-89035000D01*
X131262380Y-88987380D01*
X131167142Y-88987380D01*
X131024285Y-89035000D01*
X130976666Y-89082619D01*
X130643333Y-88987380D02*
X129976666Y-88987380D01*
X130405238Y-89987380D01*
%TO.C,C5*%
X130976666Y-70842142D02*
X131024285Y-70889761D01*
X131167142Y-70937380D01*
X131262380Y-70937380D01*
X131405238Y-70889761D01*
X131500476Y-70794523D01*
X131548095Y-70699285D01*
X131595714Y-70508809D01*
X131595714Y-70365952D01*
X131548095Y-70175476D01*
X131500476Y-70080238D01*
X131405238Y-69985000D01*
X131262380Y-69937380D01*
X131167142Y-69937380D01*
X131024285Y-69985000D01*
X130976666Y-70032619D01*
X130071904Y-69937380D02*
X130548095Y-69937380D01*
X130595714Y-70413571D01*
X130548095Y-70365952D01*
X130452857Y-70318333D01*
X130214761Y-70318333D01*
X130119523Y-70365952D01*
X130071904Y-70413571D01*
X130024285Y-70508809D01*
X130024285Y-70746904D01*
X130071904Y-70842142D01*
X130119523Y-70889761D01*
X130214761Y-70937380D01*
X130452857Y-70937380D01*
X130548095Y-70889761D01*
X130595714Y-70842142D01*
%TO.C,C4*%
X122721666Y-95607142D02*
X122769285Y-95654761D01*
X122912142Y-95702380D01*
X123007380Y-95702380D01*
X123150238Y-95654761D01*
X123245476Y-95559523D01*
X123293095Y-95464285D01*
X123340714Y-95273809D01*
X123340714Y-95130952D01*
X123293095Y-94940476D01*
X123245476Y-94845238D01*
X123150238Y-94750000D01*
X123007380Y-94702380D01*
X122912142Y-94702380D01*
X122769285Y-94750000D01*
X122721666Y-94797619D01*
X121864523Y-95035714D02*
X121864523Y-95702380D01*
X122102619Y-94654761D02*
X122340714Y-95369047D01*
X121721666Y-95369047D01*
%TO.C,C3*%
X111926666Y-89892142D02*
X111974285Y-89939761D01*
X112117142Y-89987380D01*
X112212380Y-89987380D01*
X112355238Y-89939761D01*
X112450476Y-89844523D01*
X112498095Y-89749285D01*
X112545714Y-89558809D01*
X112545714Y-89415952D01*
X112498095Y-89225476D01*
X112450476Y-89130238D01*
X112355238Y-89035000D01*
X112212380Y-88987380D01*
X112117142Y-88987380D01*
X111974285Y-89035000D01*
X111926666Y-89082619D01*
X111593333Y-88987380D02*
X110974285Y-88987380D01*
X111307619Y-89368333D01*
X111164761Y-89368333D01*
X111069523Y-89415952D01*
X111021904Y-89463571D01*
X110974285Y-89558809D01*
X110974285Y-89796904D01*
X111021904Y-89892142D01*
X111069523Y-89939761D01*
X111164761Y-89987380D01*
X111450476Y-89987380D01*
X111545714Y-89939761D01*
X111593333Y-89892142D01*
%TO.C,C2*%
X122721666Y-76557142D02*
X122769285Y-76604761D01*
X122912142Y-76652380D01*
X123007380Y-76652380D01*
X123150238Y-76604761D01*
X123245476Y-76509523D01*
X123293095Y-76414285D01*
X123340714Y-76223809D01*
X123340714Y-76080952D01*
X123293095Y-75890476D01*
X123245476Y-75795238D01*
X123150238Y-75700000D01*
X123007380Y-75652380D01*
X122912142Y-75652380D01*
X122769285Y-75700000D01*
X122721666Y-75747619D01*
X122340714Y-75747619D02*
X122293095Y-75700000D01*
X122197857Y-75652380D01*
X121959761Y-75652380D01*
X121864523Y-75700000D01*
X121816904Y-75747619D01*
X121769285Y-75842857D01*
X121769285Y-75938095D01*
X121816904Y-76080952D01*
X122388333Y-76652380D01*
X121769285Y-76652380D01*
%TO.C,C1*%
X111926666Y-70842142D02*
X111974285Y-70889761D01*
X112117142Y-70937380D01*
X112212380Y-70937380D01*
X112355238Y-70889761D01*
X112450476Y-70794523D01*
X112498095Y-70699285D01*
X112545714Y-70508809D01*
X112545714Y-70365952D01*
X112498095Y-70175476D01*
X112450476Y-70080238D01*
X112355238Y-69985000D01*
X112212380Y-69937380D01*
X112117142Y-69937380D01*
X111974285Y-69985000D01*
X111926666Y-70032619D01*
X110974285Y-70937380D02*
X111545714Y-70937380D01*
X111260000Y-70937380D02*
X111260000Y-69937380D01*
X111355238Y-70080238D01*
X111450476Y-70175476D01*
X111545714Y-70223095D01*
%TD*%
M02*
