%TF.GenerationSoftware,KiCad,Pcbnew,(5.1.9)-1*%
%TF.CreationDate,2021-03-30T21:11:26+02:00*%
%TF.ProjectId,RemoteCtrl,52656d6f-7465-4437-9472-6c2e6b696361,v0.1*%
%TF.SameCoordinates,Original*%
%TF.FileFunction,Legend,Top*%
%TF.FilePolarity,Positive*%
%FSLAX46Y46*%
G04 Gerber Fmt 4.6, Leading zero omitted, Abs format (unit mm)*
G04 Created by KiCad (PCBNEW (5.1.9)-1) date 2021-03-30 21:11:26*
%MOMM*%
%LPD*%
G01*
G04 APERTURE LIST*
%ADD10C,0.300000*%
%ADD11C,0.120000*%
%ADD12C,0.150000*%
G04 APERTURE END LIST*
D10*
X113701190Y-42434761D02*
X113701190Y-40434761D01*
X113701190Y-41387142D02*
X114844047Y-41387142D01*
X114844047Y-42434761D02*
X114844047Y-40434761D01*
X116653571Y-42434761D02*
X116653571Y-41387142D01*
X116558333Y-41196666D01*
X116367857Y-41101428D01*
X115986904Y-41101428D01*
X115796428Y-41196666D01*
X116653571Y-42339523D02*
X116463095Y-42434761D01*
X115986904Y-42434761D01*
X115796428Y-42339523D01*
X115701190Y-42149047D01*
X115701190Y-41958571D01*
X115796428Y-41768095D01*
X115986904Y-41672857D01*
X116463095Y-41672857D01*
X116653571Y-41577619D01*
X117605952Y-41101428D02*
X117605952Y-42434761D01*
X117605952Y-41291904D02*
X117701190Y-41196666D01*
X117891666Y-41101428D01*
X118177380Y-41101428D01*
X118367857Y-41196666D01*
X118463095Y-41387142D01*
X118463095Y-42434761D01*
X120272619Y-42434761D02*
X120272619Y-40434761D01*
X120272619Y-42339523D02*
X120082142Y-42434761D01*
X119701190Y-42434761D01*
X119510714Y-42339523D01*
X119415476Y-42244285D01*
X119320238Y-42053809D01*
X119320238Y-41482380D01*
X119415476Y-41291904D01*
X119510714Y-41196666D01*
X119701190Y-41101428D01*
X120082142Y-41101428D01*
X120272619Y-41196666D01*
X121510714Y-42434761D02*
X121320238Y-42339523D01*
X121225000Y-42149047D01*
X121225000Y-40434761D01*
X122272619Y-42434761D02*
X122272619Y-41101428D01*
X122272619Y-40434761D02*
X122177380Y-40530000D01*
X122272619Y-40625238D01*
X122367857Y-40530000D01*
X122272619Y-40434761D01*
X122272619Y-40625238D01*
X123225000Y-41101428D02*
X123225000Y-42434761D01*
X123225000Y-41291904D02*
X123320238Y-41196666D01*
X123510714Y-41101428D01*
X123796428Y-41101428D01*
X123986904Y-41196666D01*
X124082142Y-41387142D01*
X124082142Y-42434761D01*
X125891666Y-41101428D02*
X125891666Y-42720476D01*
X125796428Y-42910952D01*
X125701190Y-43006190D01*
X125510714Y-43101428D01*
X125225000Y-43101428D01*
X125034523Y-43006190D01*
X125891666Y-42339523D02*
X125701190Y-42434761D01*
X125320238Y-42434761D01*
X125129761Y-42339523D01*
X125034523Y-42244285D01*
X124939285Y-42053809D01*
X124939285Y-41482380D01*
X125034523Y-41291904D01*
X125129761Y-41196666D01*
X125320238Y-41101428D01*
X125701190Y-41101428D01*
X125891666Y-41196666D01*
X113701190Y-45734761D02*
X113701190Y-43734761D01*
X114653571Y-44401428D02*
X114653571Y-45734761D01*
X114653571Y-44591904D02*
X114748809Y-44496666D01*
X114939285Y-44401428D01*
X115225000Y-44401428D01*
X115415476Y-44496666D01*
X115510714Y-44687142D01*
X115510714Y-45734761D01*
X116177380Y-44401428D02*
X116939285Y-44401428D01*
X116463095Y-43734761D02*
X116463095Y-45449047D01*
X116558333Y-45639523D01*
X116748809Y-45734761D01*
X116939285Y-45734761D01*
X118367857Y-45639523D02*
X118177380Y-45734761D01*
X117796428Y-45734761D01*
X117605952Y-45639523D01*
X117510714Y-45449047D01*
X117510714Y-44687142D01*
X117605952Y-44496666D01*
X117796428Y-44401428D01*
X118177380Y-44401428D01*
X118367857Y-44496666D01*
X118463095Y-44687142D01*
X118463095Y-44877619D01*
X117510714Y-45068095D01*
X119320238Y-45734761D02*
X119320238Y-44401428D01*
X119320238Y-44782380D02*
X119415476Y-44591904D01*
X119510714Y-44496666D01*
X119701190Y-44401428D01*
X119891666Y-44401428D01*
X120558333Y-45734761D02*
X120558333Y-44401428D01*
X120558333Y-44782380D02*
X120653571Y-44591904D01*
X120748809Y-44496666D01*
X120939285Y-44401428D01*
X121129761Y-44401428D01*
X122653571Y-44401428D02*
X122653571Y-45734761D01*
X121796428Y-44401428D02*
X121796428Y-45449047D01*
X121891666Y-45639523D01*
X122082142Y-45734761D01*
X122367857Y-45734761D01*
X122558333Y-45639523D01*
X122653571Y-45544285D01*
X123605952Y-44401428D02*
X123605952Y-46401428D01*
X123605952Y-44496666D02*
X123796428Y-44401428D01*
X124177380Y-44401428D01*
X124367857Y-44496666D01*
X124463095Y-44591904D01*
X124558333Y-44782380D01*
X124558333Y-45353809D01*
X124463095Y-45544285D01*
X124367857Y-45639523D01*
X124177380Y-45734761D01*
X123796428Y-45734761D01*
X123605952Y-45639523D01*
X125129761Y-44401428D02*
X125891666Y-44401428D01*
X125415476Y-43734761D02*
X125415476Y-45449047D01*
X125510714Y-45639523D01*
X125701190Y-45734761D01*
X125891666Y-45734761D01*
X114844047Y-37734761D02*
X114177380Y-36782380D01*
X113701190Y-37734761D02*
X113701190Y-35734761D01*
X114463095Y-35734761D01*
X114653571Y-35830000D01*
X114748809Y-35925238D01*
X114844047Y-36115714D01*
X114844047Y-36401428D01*
X114748809Y-36591904D01*
X114653571Y-36687142D01*
X114463095Y-36782380D01*
X113701190Y-36782380D01*
X116463095Y-37639523D02*
X116272619Y-37734761D01*
X115891666Y-37734761D01*
X115701190Y-37639523D01*
X115605952Y-37449047D01*
X115605952Y-36687142D01*
X115701190Y-36496666D01*
X115891666Y-36401428D01*
X116272619Y-36401428D01*
X116463095Y-36496666D01*
X116558333Y-36687142D01*
X116558333Y-36877619D01*
X115605952Y-37068095D01*
X117320238Y-37639523D02*
X117510714Y-37734761D01*
X117891666Y-37734761D01*
X118082142Y-37639523D01*
X118177380Y-37449047D01*
X118177380Y-37353809D01*
X118082142Y-37163333D01*
X117891666Y-37068095D01*
X117605952Y-37068095D01*
X117415476Y-36972857D01*
X117320238Y-36782380D01*
X117320238Y-36687142D01*
X117415476Y-36496666D01*
X117605952Y-36401428D01*
X117891666Y-36401428D01*
X118082142Y-36496666D01*
X119796428Y-37639523D02*
X119605952Y-37734761D01*
X119225000Y-37734761D01*
X119034523Y-37639523D01*
X118939285Y-37449047D01*
X118939285Y-36687142D01*
X119034523Y-36496666D01*
X119225000Y-36401428D01*
X119605952Y-36401428D01*
X119796428Y-36496666D01*
X119891666Y-36687142D01*
X119891666Y-36877619D01*
X118939285Y-37068095D01*
X120463095Y-36401428D02*
X121225000Y-36401428D01*
X120748809Y-35734761D02*
X120748809Y-37449047D01*
X120844047Y-37639523D01*
X121034523Y-37734761D01*
X121225000Y-37734761D01*
X123320238Y-37163333D02*
X124272619Y-37163333D01*
X123129761Y-37734761D02*
X123796428Y-35734761D01*
X124463095Y-37734761D01*
X125986904Y-37639523D02*
X125796428Y-37734761D01*
X125415476Y-37734761D01*
X125225000Y-37639523D01*
X125129761Y-37544285D01*
X125034523Y-37353809D01*
X125034523Y-36782380D01*
X125129761Y-36591904D01*
X125225000Y-36496666D01*
X125415476Y-36401428D01*
X125796428Y-36401428D01*
X125986904Y-36496666D01*
X126558333Y-36401428D02*
X127320238Y-36401428D01*
X126844047Y-35734761D02*
X126844047Y-37449047D01*
X126939285Y-37639523D01*
X127129761Y-37734761D01*
X127320238Y-37734761D01*
X127986904Y-37734761D02*
X127986904Y-36401428D01*
X127986904Y-35734761D02*
X127891666Y-35830000D01*
X127986904Y-35925238D01*
X128082142Y-35830000D01*
X127986904Y-35734761D01*
X127986904Y-35925238D01*
X128748809Y-36401428D02*
X129225000Y-37734761D01*
X129701190Y-36401428D01*
X131225000Y-37639523D02*
X131034523Y-37734761D01*
X130653571Y-37734761D01*
X130463095Y-37639523D01*
X130367857Y-37449047D01*
X130367857Y-36687142D01*
X130463095Y-36496666D01*
X130653571Y-36401428D01*
X131034523Y-36401428D01*
X131225000Y-36496666D01*
X131320238Y-36687142D01*
X131320238Y-36877619D01*
X130367857Y-37068095D01*
X166437857Y-49387142D02*
X166723571Y-49482380D01*
X166818809Y-49577619D01*
X166914047Y-49768095D01*
X166914047Y-50053809D01*
X166818809Y-50244285D01*
X166723571Y-50339523D01*
X166533095Y-50434761D01*
X165771190Y-50434761D01*
X165771190Y-48434761D01*
X166437857Y-48434761D01*
X166628333Y-48530000D01*
X166723571Y-48625238D01*
X166818809Y-48815714D01*
X166818809Y-49006190D01*
X166723571Y-49196666D01*
X166628333Y-49291904D01*
X166437857Y-49387142D01*
X165771190Y-49387142D01*
X167771190Y-50434761D02*
X167771190Y-49101428D01*
X167771190Y-49482380D02*
X167866428Y-49291904D01*
X167961666Y-49196666D01*
X168152142Y-49101428D01*
X168342619Y-49101428D01*
X169771190Y-50339523D02*
X169580714Y-50434761D01*
X169199761Y-50434761D01*
X169009285Y-50339523D01*
X168914047Y-50149047D01*
X168914047Y-49387142D01*
X169009285Y-49196666D01*
X169199761Y-49101428D01*
X169580714Y-49101428D01*
X169771190Y-49196666D01*
X169866428Y-49387142D01*
X169866428Y-49577619D01*
X168914047Y-49768095D01*
X171580714Y-50434761D02*
X171580714Y-49387142D01*
X171485476Y-49196666D01*
X171295000Y-49101428D01*
X170914047Y-49101428D01*
X170723571Y-49196666D01*
X171580714Y-50339523D02*
X171390238Y-50434761D01*
X170914047Y-50434761D01*
X170723571Y-50339523D01*
X170628333Y-50149047D01*
X170628333Y-49958571D01*
X170723571Y-49768095D01*
X170914047Y-49672857D01*
X171390238Y-49672857D01*
X171580714Y-49577619D01*
X172533095Y-50434761D02*
X172533095Y-48434761D01*
X172723571Y-49672857D02*
X173295000Y-50434761D01*
X173295000Y-49101428D02*
X172533095Y-49863333D01*
X174152142Y-49101428D02*
X174152142Y-51101428D01*
X174152142Y-49196666D02*
X174342619Y-49101428D01*
X174723571Y-49101428D01*
X174914047Y-49196666D01*
X175009285Y-49291904D01*
X175104523Y-49482380D01*
X175104523Y-50053809D01*
X175009285Y-50244285D01*
X174914047Y-50339523D01*
X174723571Y-50434761D01*
X174342619Y-50434761D01*
X174152142Y-50339523D01*
X176247380Y-50434761D02*
X176056904Y-50339523D01*
X175961666Y-50244285D01*
X175866428Y-50053809D01*
X175866428Y-49482380D01*
X175961666Y-49291904D01*
X176056904Y-49196666D01*
X176247380Y-49101428D01*
X176533095Y-49101428D01*
X176723571Y-49196666D01*
X176818809Y-49291904D01*
X176914047Y-49482380D01*
X176914047Y-50053809D01*
X176818809Y-50244285D01*
X176723571Y-50339523D01*
X176533095Y-50434761D01*
X176247380Y-50434761D01*
X177771190Y-50434761D02*
X177771190Y-49101428D01*
X177771190Y-48434761D02*
X177675952Y-48530000D01*
X177771190Y-48625238D01*
X177866428Y-48530000D01*
X177771190Y-48434761D01*
X177771190Y-48625238D01*
X178723571Y-49101428D02*
X178723571Y-50434761D01*
X178723571Y-49291904D02*
X178818809Y-49196666D01*
X179009285Y-49101428D01*
X179295000Y-49101428D01*
X179485476Y-49196666D01*
X179580714Y-49387142D01*
X179580714Y-50434761D01*
X180247380Y-49101428D02*
X181009285Y-49101428D01*
X180533095Y-48434761D02*
X180533095Y-50149047D01*
X180628333Y-50339523D01*
X180818809Y-50434761D01*
X181009285Y-50434761D01*
X165675952Y-43989523D02*
X165961666Y-44084761D01*
X166437857Y-44084761D01*
X166628333Y-43989523D01*
X166723571Y-43894285D01*
X166818809Y-43703809D01*
X166818809Y-43513333D01*
X166723571Y-43322857D01*
X166628333Y-43227619D01*
X166437857Y-43132380D01*
X166056904Y-43037142D01*
X165866428Y-42941904D01*
X165771190Y-42846666D01*
X165675952Y-42656190D01*
X165675952Y-42465714D01*
X165771190Y-42275238D01*
X165866428Y-42180000D01*
X166056904Y-42084761D01*
X166533095Y-42084761D01*
X166818809Y-42180000D01*
X167390238Y-42751428D02*
X168152142Y-42751428D01*
X167675952Y-42084761D02*
X167675952Y-43799047D01*
X167771190Y-43989523D01*
X167961666Y-44084761D01*
X168152142Y-44084761D01*
X169580714Y-43989523D02*
X169390238Y-44084761D01*
X169009285Y-44084761D01*
X168818809Y-43989523D01*
X168723571Y-43799047D01*
X168723571Y-43037142D01*
X168818809Y-42846666D01*
X169009285Y-42751428D01*
X169390238Y-42751428D01*
X169580714Y-42846666D01*
X169675952Y-43037142D01*
X169675952Y-43227619D01*
X168723571Y-43418095D01*
X170533095Y-42751428D02*
X170533095Y-44751428D01*
X170533095Y-42846666D02*
X170723571Y-42751428D01*
X171104523Y-42751428D01*
X171295000Y-42846666D01*
X171390238Y-42941904D01*
X171485476Y-43132380D01*
X171485476Y-43703809D01*
X171390238Y-43894285D01*
X171295000Y-43989523D01*
X171104523Y-44084761D01*
X170723571Y-44084761D01*
X170533095Y-43989523D01*
X172342619Y-42751428D02*
X172342619Y-44751428D01*
X172342619Y-42846666D02*
X172533095Y-42751428D01*
X172914047Y-42751428D01*
X173104523Y-42846666D01*
X173199761Y-42941904D01*
X173295000Y-43132380D01*
X173295000Y-43703809D01*
X173199761Y-43894285D01*
X173104523Y-43989523D01*
X172914047Y-44084761D01*
X172533095Y-44084761D01*
X172342619Y-43989523D01*
X174152142Y-44084761D02*
X174152142Y-42751428D01*
X174152142Y-42084761D02*
X174056904Y-42180000D01*
X174152142Y-42275238D01*
X174247380Y-42180000D01*
X174152142Y-42084761D01*
X174152142Y-42275238D01*
X175104523Y-42751428D02*
X175104523Y-44084761D01*
X175104523Y-42941904D02*
X175199761Y-42846666D01*
X175390238Y-42751428D01*
X175675952Y-42751428D01*
X175866428Y-42846666D01*
X175961666Y-43037142D01*
X175961666Y-44084761D01*
X177771190Y-42751428D02*
X177771190Y-44370476D01*
X177675952Y-44560952D01*
X177580714Y-44656190D01*
X177390238Y-44751428D01*
X177104523Y-44751428D01*
X176914047Y-44656190D01*
X177771190Y-43989523D02*
X177580714Y-44084761D01*
X177199761Y-44084761D01*
X177009285Y-43989523D01*
X176914047Y-43894285D01*
X176818809Y-43703809D01*
X176818809Y-43132380D01*
X176914047Y-42941904D01*
X177009285Y-42846666D01*
X177199761Y-42751428D01*
X177580714Y-42751428D01*
X177771190Y-42846666D01*
X165771190Y-36084761D02*
X165771190Y-34084761D01*
X165771190Y-35037142D02*
X166914047Y-35037142D01*
X166914047Y-36084761D02*
X166914047Y-34084761D01*
X167771190Y-35513333D02*
X168723571Y-35513333D01*
X167580714Y-36084761D02*
X168247380Y-34084761D01*
X168914047Y-36084761D01*
X170533095Y-36084761D02*
X169580714Y-36084761D01*
X169580714Y-34084761D01*
X170914047Y-34084761D02*
X172056904Y-34084761D01*
X171485476Y-36084761D02*
X171485476Y-34084761D01*
X165771190Y-39384761D02*
X165771190Y-37384761D01*
X166723571Y-38051428D02*
X166723571Y-39384761D01*
X166723571Y-38241904D02*
X166818809Y-38146666D01*
X167009285Y-38051428D01*
X167295000Y-38051428D01*
X167485476Y-38146666D01*
X167580714Y-38337142D01*
X167580714Y-39384761D01*
X168437857Y-39289523D02*
X168628333Y-39384761D01*
X169009285Y-39384761D01*
X169199761Y-39289523D01*
X169295000Y-39099047D01*
X169295000Y-39003809D01*
X169199761Y-38813333D01*
X169009285Y-38718095D01*
X168723571Y-38718095D01*
X168533095Y-38622857D01*
X168437857Y-38432380D01*
X168437857Y-38337142D01*
X168533095Y-38146666D01*
X168723571Y-38051428D01*
X169009285Y-38051428D01*
X169199761Y-38146666D01*
X169866428Y-38051428D02*
X170628333Y-38051428D01*
X170152142Y-37384761D02*
X170152142Y-39099047D01*
X170247380Y-39289523D01*
X170437857Y-39384761D01*
X170628333Y-39384761D01*
X171295000Y-39384761D02*
X171295000Y-38051428D01*
X171295000Y-38432380D02*
X171390238Y-38241904D01*
X171485476Y-38146666D01*
X171675952Y-38051428D01*
X171866428Y-38051428D01*
X173390238Y-38051428D02*
X173390238Y-39384761D01*
X172533095Y-38051428D02*
X172533095Y-39099047D01*
X172628333Y-39289523D01*
X172818809Y-39384761D01*
X173104523Y-39384761D01*
X173295000Y-39289523D01*
X173390238Y-39194285D01*
X175199761Y-39289523D02*
X175009285Y-39384761D01*
X174628333Y-39384761D01*
X174437857Y-39289523D01*
X174342619Y-39194285D01*
X174247380Y-39003809D01*
X174247380Y-38432380D01*
X174342619Y-38241904D01*
X174437857Y-38146666D01*
X174628333Y-38051428D01*
X175009285Y-38051428D01*
X175199761Y-38146666D01*
X175771190Y-38051428D02*
X176533095Y-38051428D01*
X176056904Y-37384761D02*
X176056904Y-39099047D01*
X176152142Y-39289523D01*
X176342619Y-39384761D01*
X176533095Y-39384761D01*
X177199761Y-39384761D02*
X177199761Y-38051428D01*
X177199761Y-37384761D02*
X177104523Y-37480000D01*
X177199761Y-37575238D01*
X177295000Y-37480000D01*
X177199761Y-37384761D01*
X177199761Y-37575238D01*
X178437857Y-39384761D02*
X178247380Y-39289523D01*
X178152142Y-39194285D01*
X178056904Y-39003809D01*
X178056904Y-38432380D01*
X178152142Y-38241904D01*
X178247380Y-38146666D01*
X178437857Y-38051428D01*
X178723571Y-38051428D01*
X178914047Y-38146666D01*
X179009285Y-38241904D01*
X179104523Y-38432380D01*
X179104523Y-39003809D01*
X179009285Y-39194285D01*
X178914047Y-39289523D01*
X178723571Y-39384761D01*
X178437857Y-39384761D01*
X179961666Y-38051428D02*
X179961666Y-39384761D01*
X179961666Y-38241904D02*
X180056904Y-38146666D01*
X180247380Y-38051428D01*
X180533095Y-38051428D01*
X180723571Y-38146666D01*
X180818809Y-38337142D01*
X180818809Y-39384761D01*
X160564047Y-32654761D02*
X159897380Y-31702380D01*
X159421190Y-32654761D02*
X159421190Y-30654761D01*
X160183095Y-30654761D01*
X160373571Y-30750000D01*
X160468809Y-30845238D01*
X160564047Y-31035714D01*
X160564047Y-31321428D01*
X160468809Y-31511904D01*
X160373571Y-31607142D01*
X160183095Y-31702380D01*
X159421190Y-31702380D01*
X162183095Y-32559523D02*
X161992619Y-32654761D01*
X161611666Y-32654761D01*
X161421190Y-32559523D01*
X161325952Y-32369047D01*
X161325952Y-31607142D01*
X161421190Y-31416666D01*
X161611666Y-31321428D01*
X161992619Y-31321428D01*
X162183095Y-31416666D01*
X162278333Y-31607142D01*
X162278333Y-31797619D01*
X161325952Y-31988095D01*
X163992619Y-32654761D02*
X163992619Y-31607142D01*
X163897380Y-31416666D01*
X163706904Y-31321428D01*
X163325952Y-31321428D01*
X163135476Y-31416666D01*
X163992619Y-32559523D02*
X163802142Y-32654761D01*
X163325952Y-32654761D01*
X163135476Y-32559523D01*
X163040238Y-32369047D01*
X163040238Y-32178571D01*
X163135476Y-31988095D01*
X163325952Y-31892857D01*
X163802142Y-31892857D01*
X163992619Y-31797619D01*
X164849761Y-32559523D02*
X165040238Y-32654761D01*
X165421190Y-32654761D01*
X165611666Y-32559523D01*
X165706904Y-32369047D01*
X165706904Y-32273809D01*
X165611666Y-32083333D01*
X165421190Y-31988095D01*
X165135476Y-31988095D01*
X164945000Y-31892857D01*
X164849761Y-31702380D01*
X164849761Y-31607142D01*
X164945000Y-31416666D01*
X165135476Y-31321428D01*
X165421190Y-31321428D01*
X165611666Y-31416666D01*
X166849761Y-32654761D02*
X166659285Y-32559523D01*
X166564047Y-32464285D01*
X166468809Y-32273809D01*
X166468809Y-31702380D01*
X166564047Y-31511904D01*
X166659285Y-31416666D01*
X166849761Y-31321428D01*
X167135476Y-31321428D01*
X167325952Y-31416666D01*
X167421190Y-31511904D01*
X167516428Y-31702380D01*
X167516428Y-32273809D01*
X167421190Y-32464285D01*
X167325952Y-32559523D01*
X167135476Y-32654761D01*
X166849761Y-32654761D01*
X168373571Y-31321428D02*
X168373571Y-32654761D01*
X168373571Y-31511904D02*
X168468809Y-31416666D01*
X168659285Y-31321428D01*
X168945000Y-31321428D01*
X169135476Y-31416666D01*
X169230714Y-31607142D01*
X169230714Y-32654761D01*
X171421190Y-31321428D02*
X172183095Y-31321428D01*
X171706904Y-32654761D02*
X171706904Y-30940476D01*
X171802142Y-30750000D01*
X171992619Y-30654761D01*
X172183095Y-30654761D01*
X173135476Y-32654761D02*
X172945000Y-32559523D01*
X172849761Y-32464285D01*
X172754523Y-32273809D01*
X172754523Y-31702380D01*
X172849761Y-31511904D01*
X172945000Y-31416666D01*
X173135476Y-31321428D01*
X173421190Y-31321428D01*
X173611666Y-31416666D01*
X173706904Y-31511904D01*
X173802142Y-31702380D01*
X173802142Y-32273809D01*
X173706904Y-32464285D01*
X173611666Y-32559523D01*
X173421190Y-32654761D01*
X173135476Y-32654761D01*
X174659285Y-32654761D02*
X174659285Y-31321428D01*
X174659285Y-31702380D02*
X174754523Y-31511904D01*
X174849761Y-31416666D01*
X175040238Y-31321428D01*
X175230714Y-31321428D01*
X177421190Y-32654761D02*
X177421190Y-30654761D01*
X177421190Y-31607142D02*
X178564047Y-31607142D01*
X178564047Y-32654761D02*
X178564047Y-30654761D01*
X180373571Y-32654761D02*
X180373571Y-31607142D01*
X180278333Y-31416666D01*
X180087857Y-31321428D01*
X179706904Y-31321428D01*
X179516428Y-31416666D01*
X180373571Y-32559523D02*
X180183095Y-32654761D01*
X179706904Y-32654761D01*
X179516428Y-32559523D01*
X179421190Y-32369047D01*
X179421190Y-32178571D01*
X179516428Y-31988095D01*
X179706904Y-31892857D01*
X180183095Y-31892857D01*
X180373571Y-31797619D01*
X181611666Y-32654761D02*
X181421190Y-32559523D01*
X181325952Y-32369047D01*
X181325952Y-30654761D01*
X182087857Y-31321428D02*
X182849761Y-31321428D01*
X182373571Y-30654761D02*
X182373571Y-32369047D01*
X182468809Y-32559523D01*
X182659285Y-32654761D01*
X182849761Y-32654761D01*
X183516428Y-32464285D02*
X183611666Y-32559523D01*
X183516428Y-32654761D01*
X183421190Y-32559523D01*
X183516428Y-32464285D01*
X183516428Y-32654761D01*
X183516428Y-31416666D02*
X183611666Y-31511904D01*
X183516428Y-31607142D01*
X183421190Y-31511904D01*
X183516428Y-31416666D01*
X183516428Y-31607142D01*
X140371190Y-44084761D02*
X140371190Y-42084761D01*
X140371190Y-43037142D02*
X141514047Y-43037142D01*
X141514047Y-44084761D02*
X141514047Y-42084761D01*
X143323571Y-44084761D02*
X143323571Y-43037142D01*
X143228333Y-42846666D01*
X143037857Y-42751428D01*
X142656904Y-42751428D01*
X142466428Y-42846666D01*
X143323571Y-43989523D02*
X143133095Y-44084761D01*
X142656904Y-44084761D01*
X142466428Y-43989523D01*
X142371190Y-43799047D01*
X142371190Y-43608571D01*
X142466428Y-43418095D01*
X142656904Y-43322857D01*
X143133095Y-43322857D01*
X143323571Y-43227619D01*
X144561666Y-44084761D02*
X144371190Y-43989523D01*
X144275952Y-43799047D01*
X144275952Y-42084761D01*
X145037857Y-42751428D02*
X145799761Y-42751428D01*
X145323571Y-42084761D02*
X145323571Y-43799047D01*
X145418809Y-43989523D01*
X145609285Y-44084761D01*
X145799761Y-44084761D01*
X141514047Y-37734761D02*
X140847380Y-36782380D01*
X140371190Y-37734761D02*
X140371190Y-35734761D01*
X141133095Y-35734761D01*
X141323571Y-35830000D01*
X141418809Y-35925238D01*
X141514047Y-36115714D01*
X141514047Y-36401428D01*
X141418809Y-36591904D01*
X141323571Y-36687142D01*
X141133095Y-36782380D01*
X140371190Y-36782380D01*
X143228333Y-36401428D02*
X143228333Y-37734761D01*
X142371190Y-36401428D02*
X142371190Y-37449047D01*
X142466428Y-37639523D01*
X142656904Y-37734761D01*
X142942619Y-37734761D01*
X143133095Y-37639523D01*
X143228333Y-37544285D01*
X144180714Y-36401428D02*
X144180714Y-37734761D01*
X144180714Y-36591904D02*
X144275952Y-36496666D01*
X144466428Y-36401428D01*
X144752142Y-36401428D01*
X144942619Y-36496666D01*
X145037857Y-36687142D01*
X145037857Y-37734761D01*
X145990238Y-36401428D02*
X145990238Y-37734761D01*
X145990238Y-36591904D02*
X146085476Y-36496666D01*
X146275952Y-36401428D01*
X146561666Y-36401428D01*
X146752142Y-36496666D01*
X146847380Y-36687142D01*
X146847380Y-37734761D01*
X147799761Y-37734761D02*
X147799761Y-36401428D01*
X147799761Y-35734761D02*
X147704523Y-35830000D01*
X147799761Y-35925238D01*
X147895000Y-35830000D01*
X147799761Y-35734761D01*
X147799761Y-35925238D01*
X148752142Y-36401428D02*
X148752142Y-37734761D01*
X148752142Y-36591904D02*
X148847380Y-36496666D01*
X149037857Y-36401428D01*
X149323571Y-36401428D01*
X149514047Y-36496666D01*
X149609285Y-36687142D01*
X149609285Y-37734761D01*
X151418809Y-36401428D02*
X151418809Y-38020476D01*
X151323571Y-38210952D01*
X151228333Y-38306190D01*
X151037857Y-38401428D01*
X150752142Y-38401428D01*
X150561666Y-38306190D01*
X151418809Y-37639523D02*
X151228333Y-37734761D01*
X150847380Y-37734761D01*
X150656904Y-37639523D01*
X150561666Y-37544285D01*
X150466428Y-37353809D01*
X150466428Y-36782380D01*
X150561666Y-36591904D01*
X150656904Y-36496666D01*
X150847380Y-36401428D01*
X151228333Y-36401428D01*
X151418809Y-36496666D01*
X107351190Y-31321428D02*
X107351190Y-33321428D01*
X107351190Y-31416666D02*
X107541666Y-31321428D01*
X107922619Y-31321428D01*
X108113095Y-31416666D01*
X108208333Y-31511904D01*
X108303571Y-31702380D01*
X108303571Y-32273809D01*
X108208333Y-32464285D01*
X108113095Y-32559523D01*
X107922619Y-32654761D01*
X107541666Y-32654761D01*
X107351190Y-32559523D01*
X109065476Y-32559523D02*
X109255952Y-32654761D01*
X109636904Y-32654761D01*
X109827380Y-32559523D01*
X109922619Y-32369047D01*
X109922619Y-32273809D01*
X109827380Y-32083333D01*
X109636904Y-31988095D01*
X109351190Y-31988095D01*
X109160714Y-31892857D01*
X109065476Y-31702380D01*
X109065476Y-31607142D01*
X109160714Y-31416666D01*
X109351190Y-31321428D01*
X109636904Y-31321428D01*
X109827380Y-31416666D01*
X110779761Y-32654761D02*
X110779761Y-30654761D01*
X111446428Y-32083333D01*
X112113095Y-30654761D01*
X112113095Y-32654761D01*
X114208333Y-32464285D02*
X114113095Y-32559523D01*
X113827380Y-32654761D01*
X113636904Y-32654761D01*
X113351190Y-32559523D01*
X113160714Y-32369047D01*
X113065476Y-32178571D01*
X112970238Y-31797619D01*
X112970238Y-31511904D01*
X113065476Y-31130952D01*
X113160714Y-30940476D01*
X113351190Y-30750000D01*
X113636904Y-30654761D01*
X113827380Y-30654761D01*
X114113095Y-30750000D01*
X114208333Y-30845238D01*
X115065476Y-30654761D02*
X115065476Y-32273809D01*
X115160714Y-32464285D01*
X115255952Y-32559523D01*
X115446428Y-32654761D01*
X115827380Y-32654761D01*
X116017857Y-32559523D01*
X116113095Y-32464285D01*
X116208333Y-32273809D01*
X116208333Y-30654761D01*
X118589285Y-32559523D02*
X118875000Y-32654761D01*
X119351190Y-32654761D01*
X119541666Y-32559523D01*
X119636904Y-32464285D01*
X119732142Y-32273809D01*
X119732142Y-32083333D01*
X119636904Y-31892857D01*
X119541666Y-31797619D01*
X119351190Y-31702380D01*
X118970238Y-31607142D01*
X118779761Y-31511904D01*
X118684523Y-31416666D01*
X118589285Y-31226190D01*
X118589285Y-31035714D01*
X118684523Y-30845238D01*
X118779761Y-30750000D01*
X118970238Y-30654761D01*
X119446428Y-30654761D01*
X119732142Y-30750000D01*
X120303571Y-31321428D02*
X121065476Y-31321428D01*
X120589285Y-30654761D02*
X120589285Y-32369047D01*
X120684523Y-32559523D01*
X120875000Y-32654761D01*
X121065476Y-32654761D01*
X122589285Y-32654761D02*
X122589285Y-31607142D01*
X122494047Y-31416666D01*
X122303571Y-31321428D01*
X121922619Y-31321428D01*
X121732142Y-31416666D01*
X122589285Y-32559523D02*
X122398809Y-32654761D01*
X121922619Y-32654761D01*
X121732142Y-32559523D01*
X121636904Y-32369047D01*
X121636904Y-32178571D01*
X121732142Y-31988095D01*
X121922619Y-31892857D01*
X122398809Y-31892857D01*
X122589285Y-31797619D01*
X123255952Y-31321428D02*
X124017857Y-31321428D01*
X123541666Y-30654761D02*
X123541666Y-32369047D01*
X123636904Y-32559523D01*
X123827380Y-32654761D01*
X124017857Y-32654761D01*
X125446428Y-32559523D02*
X125255952Y-32654761D01*
X124875000Y-32654761D01*
X124684523Y-32559523D01*
X124589285Y-32369047D01*
X124589285Y-31607142D01*
X124684523Y-31416666D01*
X124875000Y-31321428D01*
X125255952Y-31321428D01*
X125446428Y-31416666D01*
X125541666Y-31607142D01*
X125541666Y-31797619D01*
X124589285Y-31988095D01*
X126398809Y-32464285D02*
X126494047Y-32559523D01*
X126398809Y-32654761D01*
X126303571Y-32559523D01*
X126398809Y-32464285D01*
X126398809Y-32654761D01*
X126398809Y-31416666D02*
X126494047Y-31511904D01*
X126398809Y-31607142D01*
X126303571Y-31511904D01*
X126398809Y-31416666D01*
X126398809Y-31607142D01*
X168307619Y-104474285D02*
X168212380Y-104569523D01*
X167926666Y-104664761D01*
X167736190Y-104664761D01*
X167450476Y-104569523D01*
X167260000Y-104379047D01*
X167164761Y-104188571D01*
X167069523Y-103807619D01*
X167069523Y-103521904D01*
X167164761Y-103140952D01*
X167260000Y-102950476D01*
X167450476Y-102760000D01*
X167736190Y-102664761D01*
X167926666Y-102664761D01*
X168212380Y-102760000D01*
X168307619Y-102855238D01*
X169450476Y-104664761D02*
X169260000Y-104569523D01*
X169164761Y-104379047D01*
X169164761Y-102664761D01*
X170498095Y-104664761D02*
X170307619Y-104569523D01*
X170212380Y-104474285D01*
X170117142Y-104283809D01*
X170117142Y-103712380D01*
X170212380Y-103521904D01*
X170307619Y-103426666D01*
X170498095Y-103331428D01*
X170783809Y-103331428D01*
X170974285Y-103426666D01*
X171069523Y-103521904D01*
X171164761Y-103712380D01*
X171164761Y-104283809D01*
X171069523Y-104474285D01*
X170974285Y-104569523D01*
X170783809Y-104664761D01*
X170498095Y-104664761D01*
X172879047Y-104569523D02*
X172688571Y-104664761D01*
X172307619Y-104664761D01*
X172117142Y-104569523D01*
X172021904Y-104474285D01*
X171926666Y-104283809D01*
X171926666Y-103712380D01*
X172021904Y-103521904D01*
X172117142Y-103426666D01*
X172307619Y-103331428D01*
X172688571Y-103331428D01*
X172879047Y-103426666D01*
X173736190Y-104664761D02*
X173736190Y-102664761D01*
X173926666Y-103902857D02*
X174498095Y-104664761D01*
X174498095Y-103331428D02*
X173736190Y-104093333D01*
X177545714Y-103617142D02*
X176879047Y-103617142D01*
X176879047Y-104664761D02*
X176879047Y-102664761D01*
X177831428Y-102664761D01*
X178593333Y-104664761D02*
X178593333Y-103331428D01*
X178593333Y-103712380D02*
X178688571Y-103521904D01*
X178783809Y-103426666D01*
X178974285Y-103331428D01*
X179164761Y-103331428D01*
X180593333Y-104569523D02*
X180402857Y-104664761D01*
X180021904Y-104664761D01*
X179831428Y-104569523D01*
X179736190Y-104379047D01*
X179736190Y-103617142D01*
X179831428Y-103426666D01*
X180021904Y-103331428D01*
X180402857Y-103331428D01*
X180593333Y-103426666D01*
X180688571Y-103617142D01*
X180688571Y-103807619D01*
X179736190Y-103998095D01*
X182402857Y-103331428D02*
X182402857Y-105331428D01*
X182402857Y-104569523D02*
X182212380Y-104664761D01*
X181831428Y-104664761D01*
X181640952Y-104569523D01*
X181545714Y-104474285D01*
X181450476Y-104283809D01*
X181450476Y-103712380D01*
X181545714Y-103521904D01*
X181640952Y-103426666D01*
X181831428Y-103331428D01*
X182212380Y-103331428D01*
X182402857Y-103426666D01*
X183355238Y-104474285D02*
X183450476Y-104569523D01*
X183355238Y-104664761D01*
X183260000Y-104569523D01*
X183355238Y-104474285D01*
X183355238Y-104664761D01*
X174498095Y-107202857D02*
X176021904Y-107202857D01*
X168307619Y-56214285D02*
X168212380Y-56309523D01*
X167926666Y-56404761D01*
X167736190Y-56404761D01*
X167450476Y-56309523D01*
X167260000Y-56119047D01*
X167164761Y-55928571D01*
X167069523Y-55547619D01*
X167069523Y-55261904D01*
X167164761Y-54880952D01*
X167260000Y-54690476D01*
X167450476Y-54500000D01*
X167736190Y-54404761D01*
X167926666Y-54404761D01*
X168212380Y-54500000D01*
X168307619Y-54595238D01*
X169450476Y-56404761D02*
X169260000Y-56309523D01*
X169164761Y-56119047D01*
X169164761Y-54404761D01*
X170498095Y-56404761D02*
X170307619Y-56309523D01*
X170212380Y-56214285D01*
X170117142Y-56023809D01*
X170117142Y-55452380D01*
X170212380Y-55261904D01*
X170307619Y-55166666D01*
X170498095Y-55071428D01*
X170783809Y-55071428D01*
X170974285Y-55166666D01*
X171069523Y-55261904D01*
X171164761Y-55452380D01*
X171164761Y-56023809D01*
X171069523Y-56214285D01*
X170974285Y-56309523D01*
X170783809Y-56404761D01*
X170498095Y-56404761D01*
X172879047Y-56309523D02*
X172688571Y-56404761D01*
X172307619Y-56404761D01*
X172117142Y-56309523D01*
X172021904Y-56214285D01*
X171926666Y-56023809D01*
X171926666Y-55452380D01*
X172021904Y-55261904D01*
X172117142Y-55166666D01*
X172307619Y-55071428D01*
X172688571Y-55071428D01*
X172879047Y-55166666D01*
X173736190Y-56404761D02*
X173736190Y-54404761D01*
X173926666Y-55642857D02*
X174498095Y-56404761D01*
X174498095Y-55071428D02*
X173736190Y-55833333D01*
X177545714Y-55357142D02*
X176879047Y-55357142D01*
X176879047Y-56404761D02*
X176879047Y-54404761D01*
X177831428Y-54404761D01*
X178593333Y-56404761D02*
X178593333Y-55071428D01*
X178593333Y-55452380D02*
X178688571Y-55261904D01*
X178783809Y-55166666D01*
X178974285Y-55071428D01*
X179164761Y-55071428D01*
X180593333Y-56309523D02*
X180402857Y-56404761D01*
X180021904Y-56404761D01*
X179831428Y-56309523D01*
X179736190Y-56119047D01*
X179736190Y-55357142D01*
X179831428Y-55166666D01*
X180021904Y-55071428D01*
X180402857Y-55071428D01*
X180593333Y-55166666D01*
X180688571Y-55357142D01*
X180688571Y-55547619D01*
X179736190Y-55738095D01*
X182402857Y-55071428D02*
X182402857Y-57071428D01*
X182402857Y-56309523D02*
X182212380Y-56404761D01*
X181831428Y-56404761D01*
X181640952Y-56309523D01*
X181545714Y-56214285D01*
X181450476Y-56023809D01*
X181450476Y-55452380D01*
X181545714Y-55261904D01*
X181640952Y-55166666D01*
X181831428Y-55071428D01*
X182212380Y-55071428D01*
X182402857Y-55166666D01*
X183355238Y-56214285D02*
X183450476Y-56309523D01*
X183355238Y-56404761D01*
X183260000Y-56309523D01*
X183355238Y-56214285D01*
X183355238Y-56404761D01*
X174498095Y-58942857D02*
X176021904Y-58942857D01*
X175260000Y-59704761D02*
X175260000Y-58180952D01*
X149368571Y-104664761D02*
X149368571Y-102664761D01*
X150035238Y-104093333D01*
X150701904Y-102664761D01*
X150701904Y-104664761D01*
X152511428Y-104664761D02*
X152511428Y-103617142D01*
X152416190Y-103426666D01*
X152225714Y-103331428D01*
X151844761Y-103331428D01*
X151654285Y-103426666D01*
X152511428Y-104569523D02*
X152320952Y-104664761D01*
X151844761Y-104664761D01*
X151654285Y-104569523D01*
X151559047Y-104379047D01*
X151559047Y-104188571D01*
X151654285Y-103998095D01*
X151844761Y-103902857D01*
X152320952Y-103902857D01*
X152511428Y-103807619D01*
X153463809Y-103331428D02*
X153463809Y-104664761D01*
X153463809Y-103521904D02*
X153559047Y-103426666D01*
X153749523Y-103331428D01*
X154035238Y-103331428D01*
X154225714Y-103426666D01*
X154320952Y-103617142D01*
X154320952Y-104664761D01*
X156130476Y-103331428D02*
X156130476Y-104664761D01*
X155273333Y-103331428D02*
X155273333Y-104379047D01*
X155368571Y-104569523D01*
X155559047Y-104664761D01*
X155844761Y-104664761D01*
X156035238Y-104569523D01*
X156130476Y-104474285D01*
X157940000Y-104664761D02*
X157940000Y-103617142D01*
X157844761Y-103426666D01*
X157654285Y-103331428D01*
X157273333Y-103331428D01*
X157082857Y-103426666D01*
X157940000Y-104569523D02*
X157749523Y-104664761D01*
X157273333Y-104664761D01*
X157082857Y-104569523D01*
X156987619Y-104379047D01*
X156987619Y-104188571D01*
X157082857Y-103998095D01*
X157273333Y-103902857D01*
X157749523Y-103902857D01*
X157940000Y-103807619D01*
X159178095Y-104664761D02*
X158987619Y-104569523D01*
X158892380Y-104379047D01*
X158892380Y-102664761D01*
X152463809Y-107774285D02*
X152368571Y-107869523D01*
X152082857Y-107964761D01*
X151892380Y-107964761D01*
X151606666Y-107869523D01*
X151416190Y-107679047D01*
X151320952Y-107488571D01*
X151225714Y-107107619D01*
X151225714Y-106821904D01*
X151320952Y-106440952D01*
X151416190Y-106250476D01*
X151606666Y-106060000D01*
X151892380Y-105964761D01*
X152082857Y-105964761D01*
X152368571Y-106060000D01*
X152463809Y-106155238D01*
X153606666Y-107964761D02*
X153416190Y-107869523D01*
X153320952Y-107679047D01*
X153320952Y-105964761D01*
X154654285Y-107964761D02*
X154463809Y-107869523D01*
X154368571Y-107774285D01*
X154273333Y-107583809D01*
X154273333Y-107012380D01*
X154368571Y-106821904D01*
X154463809Y-106726666D01*
X154654285Y-106631428D01*
X154940000Y-106631428D01*
X155130476Y-106726666D01*
X155225714Y-106821904D01*
X155320952Y-107012380D01*
X155320952Y-107583809D01*
X155225714Y-107774285D01*
X155130476Y-107869523D01*
X154940000Y-107964761D01*
X154654285Y-107964761D01*
X157035238Y-107869523D02*
X156844761Y-107964761D01*
X156463809Y-107964761D01*
X156273333Y-107869523D01*
X156178095Y-107774285D01*
X156082857Y-107583809D01*
X156082857Y-107012380D01*
X156178095Y-106821904D01*
X156273333Y-106726666D01*
X156463809Y-106631428D01*
X156844761Y-106631428D01*
X157035238Y-106726666D01*
X157892380Y-107964761D02*
X157892380Y-105964761D01*
X158082857Y-107202857D02*
X158654285Y-107964761D01*
X158654285Y-106631428D02*
X157892380Y-107393333D01*
X151701904Y-56214285D02*
X151606666Y-56309523D01*
X151320952Y-56404761D01*
X151130476Y-56404761D01*
X150844761Y-56309523D01*
X150654285Y-56119047D01*
X150559047Y-55928571D01*
X150463809Y-55547619D01*
X150463809Y-55261904D01*
X150559047Y-54880952D01*
X150654285Y-54690476D01*
X150844761Y-54500000D01*
X151130476Y-54404761D01*
X151320952Y-54404761D01*
X151606666Y-54500000D01*
X151701904Y-54595238D01*
X152844761Y-56404761D02*
X152654285Y-56309523D01*
X152559047Y-56119047D01*
X152559047Y-54404761D01*
X153892380Y-56404761D02*
X153701904Y-56309523D01*
X153606666Y-56214285D01*
X153511428Y-56023809D01*
X153511428Y-55452380D01*
X153606666Y-55261904D01*
X153701904Y-55166666D01*
X153892380Y-55071428D01*
X154178095Y-55071428D01*
X154368571Y-55166666D01*
X154463809Y-55261904D01*
X154559047Y-55452380D01*
X154559047Y-56023809D01*
X154463809Y-56214285D01*
X154368571Y-56309523D01*
X154178095Y-56404761D01*
X153892380Y-56404761D01*
X156273333Y-56309523D02*
X156082857Y-56404761D01*
X155701904Y-56404761D01*
X155511428Y-56309523D01*
X155416190Y-56214285D01*
X155320952Y-56023809D01*
X155320952Y-55452380D01*
X155416190Y-55261904D01*
X155511428Y-55166666D01*
X155701904Y-55071428D01*
X156082857Y-55071428D01*
X156273333Y-55166666D01*
X157130476Y-56404761D02*
X157130476Y-54404761D01*
X157320952Y-55642857D02*
X157892380Y-56404761D01*
X157892380Y-55071428D02*
X157130476Y-55833333D01*
X146273333Y-59609523D02*
X146559047Y-59704761D01*
X147035238Y-59704761D01*
X147225714Y-59609523D01*
X147320952Y-59514285D01*
X147416190Y-59323809D01*
X147416190Y-59133333D01*
X147320952Y-58942857D01*
X147225714Y-58847619D01*
X147035238Y-58752380D01*
X146654285Y-58657142D01*
X146463809Y-58561904D01*
X146368571Y-58466666D01*
X146273333Y-58276190D01*
X146273333Y-58085714D01*
X146368571Y-57895238D01*
X146463809Y-57800000D01*
X146654285Y-57704761D01*
X147130476Y-57704761D01*
X147416190Y-57800000D01*
X147987619Y-58371428D02*
X148749523Y-58371428D01*
X148273333Y-57704761D02*
X148273333Y-59419047D01*
X148368571Y-59609523D01*
X148559047Y-59704761D01*
X148749523Y-59704761D01*
X150178095Y-59609523D02*
X149987619Y-59704761D01*
X149606666Y-59704761D01*
X149416190Y-59609523D01*
X149320952Y-59419047D01*
X149320952Y-58657142D01*
X149416190Y-58466666D01*
X149606666Y-58371428D01*
X149987619Y-58371428D01*
X150178095Y-58466666D01*
X150273333Y-58657142D01*
X150273333Y-58847619D01*
X149320952Y-59038095D01*
X151130476Y-58371428D02*
X151130476Y-60371428D01*
X151130476Y-58466666D02*
X151320952Y-58371428D01*
X151701904Y-58371428D01*
X151892380Y-58466666D01*
X151987619Y-58561904D01*
X152082857Y-58752380D01*
X152082857Y-59323809D01*
X151987619Y-59514285D01*
X151892380Y-59609523D01*
X151701904Y-59704761D01*
X151320952Y-59704761D01*
X151130476Y-59609523D01*
X154463809Y-58657142D02*
X155130476Y-58657142D01*
X155416190Y-59704761D02*
X154463809Y-59704761D01*
X154463809Y-57704761D01*
X155416190Y-57704761D01*
X156273333Y-58371428D02*
X156273333Y-59704761D01*
X156273333Y-58561904D02*
X156368571Y-58466666D01*
X156559047Y-58371428D01*
X156844761Y-58371428D01*
X157035238Y-58466666D01*
X157130476Y-58657142D01*
X157130476Y-59704761D01*
X158940000Y-59704761D02*
X158940000Y-58657142D01*
X158844761Y-58466666D01*
X158654285Y-58371428D01*
X158273333Y-58371428D01*
X158082857Y-58466666D01*
X158940000Y-59609523D02*
X158749523Y-59704761D01*
X158273333Y-59704761D01*
X158082857Y-59609523D01*
X157987619Y-59419047D01*
X157987619Y-59228571D01*
X158082857Y-59038095D01*
X158273333Y-58942857D01*
X158749523Y-58942857D01*
X158940000Y-58847619D01*
X159892380Y-59704761D02*
X159892380Y-57704761D01*
X159892380Y-58466666D02*
X160082857Y-58371428D01*
X160463809Y-58371428D01*
X160654285Y-58466666D01*
X160749523Y-58561904D01*
X160844761Y-58752380D01*
X160844761Y-59323809D01*
X160749523Y-59514285D01*
X160654285Y-59609523D01*
X160463809Y-59704761D01*
X160082857Y-59704761D01*
X159892380Y-59609523D01*
X161987619Y-59704761D02*
X161797142Y-59609523D01*
X161701904Y-59419047D01*
X161701904Y-57704761D01*
X163511428Y-59609523D02*
X163320952Y-59704761D01*
X162940000Y-59704761D01*
X162749523Y-59609523D01*
X162654285Y-59419047D01*
X162654285Y-58657142D01*
X162749523Y-58466666D01*
X162940000Y-58371428D01*
X163320952Y-58371428D01*
X163511428Y-58466666D01*
X163606666Y-58657142D01*
X163606666Y-58847619D01*
X162654285Y-59038095D01*
X131810476Y-104664761D02*
X131810476Y-102664761D01*
X132953333Y-104664761D01*
X132953333Y-102664761D01*
X134667619Y-104569523D02*
X134477142Y-104664761D01*
X134096190Y-104664761D01*
X133905714Y-104569523D01*
X133810476Y-104379047D01*
X133810476Y-103617142D01*
X133905714Y-103426666D01*
X134096190Y-103331428D01*
X134477142Y-103331428D01*
X134667619Y-103426666D01*
X134762857Y-103617142D01*
X134762857Y-103807619D01*
X133810476Y-103998095D01*
X135429523Y-104664761D02*
X136477142Y-103331428D01*
X135429523Y-103331428D02*
X136477142Y-104664761D01*
X136953333Y-103331428D02*
X137715238Y-103331428D01*
X137239047Y-102664761D02*
X137239047Y-104379047D01*
X137334285Y-104569523D01*
X137524761Y-104664761D01*
X137715238Y-104664761D01*
X127096190Y-107964761D02*
X127096190Y-105964761D01*
X128048571Y-106631428D02*
X128048571Y-107964761D01*
X128048571Y-106821904D02*
X128143809Y-106726666D01*
X128334285Y-106631428D01*
X128620000Y-106631428D01*
X128810476Y-106726666D01*
X128905714Y-106917142D01*
X128905714Y-107964761D01*
X129762857Y-107869523D02*
X129953333Y-107964761D01*
X130334285Y-107964761D01*
X130524761Y-107869523D01*
X130620000Y-107679047D01*
X130620000Y-107583809D01*
X130524761Y-107393333D01*
X130334285Y-107298095D01*
X130048571Y-107298095D01*
X129858095Y-107202857D01*
X129762857Y-107012380D01*
X129762857Y-106917142D01*
X129858095Y-106726666D01*
X130048571Y-106631428D01*
X130334285Y-106631428D01*
X130524761Y-106726666D01*
X131191428Y-106631428D02*
X131953333Y-106631428D01*
X131477142Y-105964761D02*
X131477142Y-107679047D01*
X131572380Y-107869523D01*
X131762857Y-107964761D01*
X131953333Y-107964761D01*
X132620000Y-107964761D02*
X132620000Y-106631428D01*
X132620000Y-107012380D02*
X132715238Y-106821904D01*
X132810476Y-106726666D01*
X133000952Y-106631428D01*
X133191428Y-106631428D01*
X134715238Y-106631428D02*
X134715238Y-107964761D01*
X133858095Y-106631428D02*
X133858095Y-107679047D01*
X133953333Y-107869523D01*
X134143809Y-107964761D01*
X134429523Y-107964761D01*
X134620000Y-107869523D01*
X134715238Y-107774285D01*
X136524761Y-107869523D02*
X136334285Y-107964761D01*
X135953333Y-107964761D01*
X135762857Y-107869523D01*
X135667619Y-107774285D01*
X135572380Y-107583809D01*
X135572380Y-107012380D01*
X135667619Y-106821904D01*
X135762857Y-106726666D01*
X135953333Y-106631428D01*
X136334285Y-106631428D01*
X136524761Y-106726666D01*
X137096190Y-106631428D02*
X137858095Y-106631428D01*
X137381904Y-105964761D02*
X137381904Y-107679047D01*
X137477142Y-107869523D01*
X137667619Y-107964761D01*
X137858095Y-107964761D01*
X138524761Y-107964761D02*
X138524761Y-106631428D01*
X138524761Y-105964761D02*
X138429523Y-106060000D01*
X138524761Y-106155238D01*
X138620000Y-106060000D01*
X138524761Y-105964761D01*
X138524761Y-106155238D01*
X139762857Y-107964761D02*
X139572380Y-107869523D01*
X139477142Y-107774285D01*
X139381904Y-107583809D01*
X139381904Y-107012380D01*
X139477142Y-106821904D01*
X139572380Y-106726666D01*
X139762857Y-106631428D01*
X140048571Y-106631428D01*
X140239047Y-106726666D01*
X140334285Y-106821904D01*
X140429523Y-107012380D01*
X140429523Y-107583809D01*
X140334285Y-107774285D01*
X140239047Y-107869523D01*
X140048571Y-107964761D01*
X139762857Y-107964761D01*
X141286666Y-106631428D02*
X141286666Y-107964761D01*
X141286666Y-106821904D02*
X141381904Y-106726666D01*
X141572380Y-106631428D01*
X141858095Y-106631428D01*
X142048571Y-106726666D01*
X142143809Y-106917142D01*
X142143809Y-107964761D01*
X127096190Y-56404761D02*
X127096190Y-54404761D01*
X128048571Y-55071428D02*
X128048571Y-56404761D01*
X128048571Y-55261904D02*
X128143809Y-55166666D01*
X128334285Y-55071428D01*
X128620000Y-55071428D01*
X128810476Y-55166666D01*
X128905714Y-55357142D01*
X128905714Y-56404761D01*
X129762857Y-56309523D02*
X129953333Y-56404761D01*
X130334285Y-56404761D01*
X130524761Y-56309523D01*
X130620000Y-56119047D01*
X130620000Y-56023809D01*
X130524761Y-55833333D01*
X130334285Y-55738095D01*
X130048571Y-55738095D01*
X129858095Y-55642857D01*
X129762857Y-55452380D01*
X129762857Y-55357142D01*
X129858095Y-55166666D01*
X130048571Y-55071428D01*
X130334285Y-55071428D01*
X130524761Y-55166666D01*
X131191428Y-55071428D02*
X131953333Y-55071428D01*
X131477142Y-54404761D02*
X131477142Y-56119047D01*
X131572380Y-56309523D01*
X131762857Y-56404761D01*
X131953333Y-56404761D01*
X132620000Y-56404761D02*
X132620000Y-55071428D01*
X132620000Y-55452380D02*
X132715238Y-55261904D01*
X132810476Y-55166666D01*
X133000952Y-55071428D01*
X133191428Y-55071428D01*
X134715238Y-55071428D02*
X134715238Y-56404761D01*
X133858095Y-55071428D02*
X133858095Y-56119047D01*
X133953333Y-56309523D01*
X134143809Y-56404761D01*
X134429523Y-56404761D01*
X134620000Y-56309523D01*
X134715238Y-56214285D01*
X136524761Y-56309523D02*
X136334285Y-56404761D01*
X135953333Y-56404761D01*
X135762857Y-56309523D01*
X135667619Y-56214285D01*
X135572380Y-56023809D01*
X135572380Y-55452380D01*
X135667619Y-55261904D01*
X135762857Y-55166666D01*
X135953333Y-55071428D01*
X136334285Y-55071428D01*
X136524761Y-55166666D01*
X137096190Y-55071428D02*
X137858095Y-55071428D01*
X137381904Y-54404761D02*
X137381904Y-56119047D01*
X137477142Y-56309523D01*
X137667619Y-56404761D01*
X137858095Y-56404761D01*
X138524761Y-56404761D02*
X138524761Y-55071428D01*
X138524761Y-54404761D02*
X138429523Y-54500000D01*
X138524761Y-54595238D01*
X138620000Y-54500000D01*
X138524761Y-54404761D01*
X138524761Y-54595238D01*
X139762857Y-56404761D02*
X139572380Y-56309523D01*
X139477142Y-56214285D01*
X139381904Y-56023809D01*
X139381904Y-55452380D01*
X139477142Y-55261904D01*
X139572380Y-55166666D01*
X139762857Y-55071428D01*
X140048571Y-55071428D01*
X140239047Y-55166666D01*
X140334285Y-55261904D01*
X140429523Y-55452380D01*
X140429523Y-56023809D01*
X140334285Y-56214285D01*
X140239047Y-56309523D01*
X140048571Y-56404761D01*
X139762857Y-56404761D01*
X141286666Y-55071428D02*
X141286666Y-56404761D01*
X141286666Y-55261904D02*
X141381904Y-55166666D01*
X141572380Y-55071428D01*
X141858095Y-55071428D01*
X142048571Y-55166666D01*
X142143809Y-55357142D01*
X142143809Y-56404761D01*
X125953333Y-59609523D02*
X126239047Y-59704761D01*
X126715238Y-59704761D01*
X126905714Y-59609523D01*
X127000952Y-59514285D01*
X127096190Y-59323809D01*
X127096190Y-59133333D01*
X127000952Y-58942857D01*
X126905714Y-58847619D01*
X126715238Y-58752380D01*
X126334285Y-58657142D01*
X126143809Y-58561904D01*
X126048571Y-58466666D01*
X125953333Y-58276190D01*
X125953333Y-58085714D01*
X126048571Y-57895238D01*
X126143809Y-57800000D01*
X126334285Y-57704761D01*
X126810476Y-57704761D01*
X127096190Y-57800000D01*
X127667619Y-58371428D02*
X128429523Y-58371428D01*
X127953333Y-57704761D02*
X127953333Y-59419047D01*
X128048571Y-59609523D01*
X128239047Y-59704761D01*
X128429523Y-59704761D01*
X129858095Y-59609523D02*
X129667619Y-59704761D01*
X129286666Y-59704761D01*
X129096190Y-59609523D01*
X129000952Y-59419047D01*
X129000952Y-58657142D01*
X129096190Y-58466666D01*
X129286666Y-58371428D01*
X129667619Y-58371428D01*
X129858095Y-58466666D01*
X129953333Y-58657142D01*
X129953333Y-58847619D01*
X129000952Y-59038095D01*
X130810476Y-58371428D02*
X130810476Y-60371428D01*
X130810476Y-58466666D02*
X131000952Y-58371428D01*
X131381904Y-58371428D01*
X131572380Y-58466666D01*
X131667619Y-58561904D01*
X131762857Y-58752380D01*
X131762857Y-59323809D01*
X131667619Y-59514285D01*
X131572380Y-59609523D01*
X131381904Y-59704761D01*
X131000952Y-59704761D01*
X130810476Y-59609523D01*
X134143809Y-58657142D02*
X134810476Y-58657142D01*
X135096190Y-59704761D02*
X134143809Y-59704761D01*
X134143809Y-57704761D01*
X135096190Y-57704761D01*
X135953333Y-58371428D02*
X135953333Y-59704761D01*
X135953333Y-58561904D02*
X136048571Y-58466666D01*
X136239047Y-58371428D01*
X136524761Y-58371428D01*
X136715238Y-58466666D01*
X136810476Y-58657142D01*
X136810476Y-59704761D01*
X138620000Y-59704761D02*
X138620000Y-58657142D01*
X138524761Y-58466666D01*
X138334285Y-58371428D01*
X137953333Y-58371428D01*
X137762857Y-58466666D01*
X138620000Y-59609523D02*
X138429523Y-59704761D01*
X137953333Y-59704761D01*
X137762857Y-59609523D01*
X137667619Y-59419047D01*
X137667619Y-59228571D01*
X137762857Y-59038095D01*
X137953333Y-58942857D01*
X138429523Y-58942857D01*
X138620000Y-58847619D01*
X139572380Y-59704761D02*
X139572380Y-57704761D01*
X139572380Y-58466666D02*
X139762857Y-58371428D01*
X140143809Y-58371428D01*
X140334285Y-58466666D01*
X140429523Y-58561904D01*
X140524761Y-58752380D01*
X140524761Y-59323809D01*
X140429523Y-59514285D01*
X140334285Y-59609523D01*
X140143809Y-59704761D01*
X139762857Y-59704761D01*
X139572380Y-59609523D01*
X141667619Y-59704761D02*
X141477142Y-59609523D01*
X141381904Y-59419047D01*
X141381904Y-57704761D01*
X143191428Y-59609523D02*
X143000952Y-59704761D01*
X142620000Y-59704761D01*
X142429523Y-59609523D01*
X142334285Y-59419047D01*
X142334285Y-58657142D01*
X142429523Y-58466666D01*
X142620000Y-58371428D01*
X143000952Y-58371428D01*
X143191428Y-58466666D01*
X143286666Y-58657142D01*
X143286666Y-58847619D01*
X142334285Y-59038095D01*
X108347619Y-106314761D02*
X108347619Y-104314761D01*
X109300000Y-104981428D02*
X109300000Y-106314761D01*
X109300000Y-105171904D02*
X109395238Y-105076666D01*
X109585714Y-104981428D01*
X109871428Y-104981428D01*
X110061904Y-105076666D01*
X110157142Y-105267142D01*
X110157142Y-106314761D01*
X110823809Y-104981428D02*
X111585714Y-104981428D01*
X111109523Y-104314761D02*
X111109523Y-106029047D01*
X111204761Y-106219523D01*
X111395238Y-106314761D01*
X111585714Y-106314761D01*
X113014285Y-106219523D02*
X112823809Y-106314761D01*
X112442857Y-106314761D01*
X112252380Y-106219523D01*
X112157142Y-106029047D01*
X112157142Y-105267142D01*
X112252380Y-105076666D01*
X112442857Y-104981428D01*
X112823809Y-104981428D01*
X113014285Y-105076666D01*
X113109523Y-105267142D01*
X113109523Y-105457619D01*
X112157142Y-105648095D01*
X113966666Y-106314761D02*
X113966666Y-104981428D01*
X113966666Y-105362380D02*
X114061904Y-105171904D01*
X114157142Y-105076666D01*
X114347619Y-104981428D01*
X114538095Y-104981428D01*
X115204761Y-106314761D02*
X115204761Y-104981428D01*
X115204761Y-105362380D02*
X115300000Y-105171904D01*
X115395238Y-105076666D01*
X115585714Y-104981428D01*
X115776190Y-104981428D01*
X117300000Y-104981428D02*
X117300000Y-106314761D01*
X116442857Y-104981428D02*
X116442857Y-106029047D01*
X116538095Y-106219523D01*
X116728571Y-106314761D01*
X117014285Y-106314761D01*
X117204761Y-106219523D01*
X117300000Y-106124285D01*
X118252380Y-104981428D02*
X118252380Y-106981428D01*
X118252380Y-105076666D02*
X118442857Y-104981428D01*
X118823809Y-104981428D01*
X119014285Y-105076666D01*
X119109523Y-105171904D01*
X119204761Y-105362380D01*
X119204761Y-105933809D01*
X119109523Y-106124285D01*
X119014285Y-106219523D01*
X118823809Y-106314761D01*
X118442857Y-106314761D01*
X118252380Y-106219523D01*
X119776190Y-104981428D02*
X120538095Y-104981428D01*
X120061904Y-104314761D02*
X120061904Y-106029047D01*
X120157142Y-106219523D01*
X120347619Y-106314761D01*
X120538095Y-106314761D01*
X111395238Y-58054761D02*
X110728571Y-57102380D01*
X110252380Y-58054761D02*
X110252380Y-56054761D01*
X111014285Y-56054761D01*
X111204761Y-56150000D01*
X111300000Y-56245238D01*
X111395238Y-56435714D01*
X111395238Y-56721428D01*
X111300000Y-56911904D01*
X111204761Y-57007142D01*
X111014285Y-57102380D01*
X110252380Y-57102380D01*
X112252380Y-57007142D02*
X112919047Y-57007142D01*
X113204761Y-58054761D02*
X112252380Y-58054761D01*
X112252380Y-56054761D01*
X113204761Y-56054761D01*
X113966666Y-57959523D02*
X114252380Y-58054761D01*
X114728571Y-58054761D01*
X114919047Y-57959523D01*
X115014285Y-57864285D01*
X115109523Y-57673809D01*
X115109523Y-57483333D01*
X115014285Y-57292857D01*
X114919047Y-57197619D01*
X114728571Y-57102380D01*
X114347619Y-57007142D01*
X114157142Y-56911904D01*
X114061904Y-56816666D01*
X113966666Y-56626190D01*
X113966666Y-56435714D01*
X114061904Y-56245238D01*
X114157142Y-56150000D01*
X114347619Y-56054761D01*
X114823809Y-56054761D01*
X115109523Y-56150000D01*
X115966666Y-57007142D02*
X116633333Y-57007142D01*
X116919047Y-58054761D02*
X115966666Y-58054761D01*
X115966666Y-56054761D01*
X116919047Y-56054761D01*
X117490476Y-56054761D02*
X118633333Y-56054761D01*
X118061904Y-58054761D02*
X118061904Y-56054761D01*
D11*
%TO.C,D2*%
X107660000Y-44260000D02*
X107660000Y-44416000D01*
X107660000Y-41944000D02*
X107660000Y-42100000D01*
X110261130Y-44259837D02*
G75*
G02*
X108179039Y-44260000I-1041130J1079837D01*
G01*
X110261130Y-42100163D02*
G75*
G03*
X108179039Y-42100000I-1041130J-1079837D01*
G01*
X110892335Y-44258608D02*
G75*
G02*
X107660000Y-44415516I-1672335J1078608D01*
G01*
X110892335Y-42101392D02*
G75*
G03*
X107660000Y-41944484I-1672335J-1078608D01*
G01*
%TO.C,D1*%
X107660000Y-37910000D02*
X107660000Y-38066000D01*
X107660000Y-35594000D02*
X107660000Y-35750000D01*
X110261130Y-37909837D02*
G75*
G02*
X108179039Y-37910000I-1041130J1079837D01*
G01*
X110261130Y-35750163D02*
G75*
G03*
X108179039Y-35750000I-1041130J-1079837D01*
G01*
X110892335Y-37908608D02*
G75*
G02*
X107660000Y-38065516I-1672335J1078608D01*
G01*
X110892335Y-35751392D02*
G75*
G03*
X107660000Y-35594484I-1672335J-1078608D01*
G01*
%TO.C,SW8*%
X168275000Y-98425000D02*
X168275000Y-84455000D01*
X182245000Y-98425000D02*
X168275000Y-98425000D01*
X182245000Y-84455000D02*
X182245000Y-98425000D01*
X168275000Y-84455000D02*
X182245000Y-84455000D01*
%TO.C,SW7*%
X168275000Y-78105000D02*
X168275000Y-64135000D01*
X182245000Y-78105000D02*
X168275000Y-78105000D01*
X182245000Y-64135000D02*
X182245000Y-78105000D01*
X168275000Y-64135000D02*
X182245000Y-64135000D01*
%TO.C,SW6*%
X147955000Y-98425000D02*
X147955000Y-84455000D01*
X161925000Y-98425000D02*
X147955000Y-98425000D01*
X161925000Y-84455000D02*
X161925000Y-98425000D01*
X147955000Y-84455000D02*
X161925000Y-84455000D01*
%TO.C,SW5*%
X147955000Y-78105000D02*
X147955000Y-64135000D01*
X161925000Y-78105000D02*
X147955000Y-78105000D01*
X161925000Y-64135000D02*
X161925000Y-78105000D01*
X147955000Y-64135000D02*
X161925000Y-64135000D01*
%TO.C,SW4*%
X127635000Y-98425000D02*
X127635000Y-84455000D01*
X141605000Y-98425000D02*
X127635000Y-98425000D01*
X141605000Y-84455000D02*
X141605000Y-98425000D01*
X127635000Y-84455000D02*
X141605000Y-84455000D01*
%TO.C,SW3*%
X127635000Y-78105000D02*
X127635000Y-64135000D01*
X141605000Y-78105000D02*
X127635000Y-78105000D01*
X141605000Y-64135000D02*
X141605000Y-78105000D01*
X127635000Y-64135000D02*
X141605000Y-64135000D01*
%TO.C,SW2*%
X107315000Y-98425000D02*
X107315000Y-84455000D01*
X121285000Y-98425000D02*
X107315000Y-98425000D01*
X121285000Y-84455000D02*
X121285000Y-98425000D01*
X107315000Y-84455000D02*
X121285000Y-84455000D01*
%TO.C,SW1*%
X107315000Y-78105000D02*
X107315000Y-64135000D01*
X121285000Y-78105000D02*
X107315000Y-78105000D01*
X121285000Y-64135000D02*
X121285000Y-78105000D01*
X107315000Y-64135000D02*
X121285000Y-64135000D01*
%TO.C,J1*%
X105010000Y-92210000D02*
X104010000Y-92710000D01*
X105010000Y-93210000D02*
X105010000Y-92210000D01*
X104010000Y-92710000D02*
X105010000Y-93210000D01*
X102310000Y-79230000D02*
X103620000Y-79230000D01*
X102310000Y-79230000D02*
X102310000Y-79230000D01*
X102310000Y-65940000D02*
X102310000Y-79230000D01*
X95810000Y-65940000D02*
X102310000Y-65940000D01*
X95810000Y-96620000D02*
X95810000Y-65940000D01*
X102310000Y-96620000D02*
X95810000Y-96620000D01*
X102310000Y-83330000D02*
X102310000Y-96620000D01*
X103620000Y-83330000D02*
X102310000Y-83330000D01*
X103620000Y-64640000D02*
X103620000Y-97920000D01*
X94500000Y-64640000D02*
X103620000Y-64640000D01*
X94500000Y-97920000D02*
X94500000Y-64640000D01*
X103620000Y-97920000D02*
X94500000Y-97920000D01*
%TO.C,D19*%
X173700000Y-97600000D02*
X173700000Y-97756000D01*
X173700000Y-95284000D02*
X173700000Y-95440000D01*
X176301130Y-97599837D02*
G75*
G02*
X174219039Y-97600000I-1041130J1079837D01*
G01*
X176301130Y-95440163D02*
G75*
G03*
X174219039Y-95440000I-1041130J-1079837D01*
G01*
X176932335Y-97598608D02*
G75*
G02*
X173700000Y-97755516I-1672335J1078608D01*
G01*
X176932335Y-95441392D02*
G75*
G03*
X173700000Y-95284484I-1672335J-1078608D01*
G01*
%TO.C,D18*%
X173700000Y-77280000D02*
X173700000Y-77436000D01*
X173700000Y-74964000D02*
X173700000Y-75120000D01*
X176301130Y-77279837D02*
G75*
G02*
X174219039Y-77280000I-1041130J1079837D01*
G01*
X176301130Y-75120163D02*
G75*
G03*
X174219039Y-75120000I-1041130J-1079837D01*
G01*
X176932335Y-77278608D02*
G75*
G02*
X173700000Y-77435516I-1672335J1078608D01*
G01*
X176932335Y-75121392D02*
G75*
G03*
X173700000Y-74964484I-1672335J-1078608D01*
G01*
%TO.C,D17*%
X153380000Y-97600000D02*
X153380000Y-97756000D01*
X153380000Y-95284000D02*
X153380000Y-95440000D01*
X155981130Y-97599837D02*
G75*
G02*
X153899039Y-97600000I-1041130J1079837D01*
G01*
X155981130Y-95440163D02*
G75*
G03*
X153899039Y-95440000I-1041130J-1079837D01*
G01*
X156612335Y-97598608D02*
G75*
G02*
X153380000Y-97755516I-1672335J1078608D01*
G01*
X156612335Y-95441392D02*
G75*
G03*
X153380000Y-95284484I-1672335J-1078608D01*
G01*
%TO.C,D16*%
X153380000Y-77280000D02*
X153380000Y-77436000D01*
X153380000Y-74964000D02*
X153380000Y-75120000D01*
X155981130Y-77279837D02*
G75*
G02*
X153899039Y-77280000I-1041130J1079837D01*
G01*
X155981130Y-75120163D02*
G75*
G03*
X153899039Y-75120000I-1041130J-1079837D01*
G01*
X156612335Y-77278608D02*
G75*
G02*
X153380000Y-77435516I-1672335J1078608D01*
G01*
X156612335Y-75121392D02*
G75*
G03*
X153380000Y-74964484I-1672335J-1078608D01*
G01*
%TO.C,D15*%
X133060000Y-97600000D02*
X133060000Y-97756000D01*
X133060000Y-95284000D02*
X133060000Y-95440000D01*
X135661130Y-97599837D02*
G75*
G02*
X133579039Y-97600000I-1041130J1079837D01*
G01*
X135661130Y-95440163D02*
G75*
G03*
X133579039Y-95440000I-1041130J-1079837D01*
G01*
X136292335Y-97598608D02*
G75*
G02*
X133060000Y-97755516I-1672335J1078608D01*
G01*
X136292335Y-95441392D02*
G75*
G03*
X133060000Y-95284484I-1672335J-1078608D01*
G01*
%TO.C,D14*%
X133060000Y-77280000D02*
X133060000Y-77436000D01*
X133060000Y-74964000D02*
X133060000Y-75120000D01*
X135661130Y-77279837D02*
G75*
G02*
X133579039Y-77280000I-1041130J1079837D01*
G01*
X135661130Y-75120163D02*
G75*
G03*
X133579039Y-75120000I-1041130J-1079837D01*
G01*
X136292335Y-77278608D02*
G75*
G02*
X133060000Y-77435516I-1672335J1078608D01*
G01*
X136292335Y-75121392D02*
G75*
G03*
X133060000Y-74964484I-1672335J-1078608D01*
G01*
%TO.C,D13*%
X112740000Y-97600000D02*
X112740000Y-97756000D01*
X112740000Y-95284000D02*
X112740000Y-95440000D01*
X115341130Y-97599837D02*
G75*
G02*
X113259039Y-97600000I-1041130J1079837D01*
G01*
X115341130Y-95440163D02*
G75*
G03*
X113259039Y-95440000I-1041130J-1079837D01*
G01*
X115972335Y-97598608D02*
G75*
G02*
X112740000Y-97755516I-1672335J1078608D01*
G01*
X115972335Y-95441392D02*
G75*
G03*
X112740000Y-95284484I-1672335J-1078608D01*
G01*
%TO.C,D12*%
X112740000Y-77280000D02*
X112740000Y-77436000D01*
X112740000Y-74964000D02*
X112740000Y-75120000D01*
X115341130Y-77279837D02*
G75*
G02*
X113259039Y-77280000I-1041130J1079837D01*
G01*
X115341130Y-75120163D02*
G75*
G03*
X113259039Y-75120000I-1041130J-1079837D01*
G01*
X115972335Y-77278608D02*
G75*
G02*
X112740000Y-77435516I-1672335J1078608D01*
G01*
X115972335Y-75121392D02*
G75*
G03*
X112740000Y-74964484I-1672335J-1078608D01*
G01*
%TO.C,D11*%
X159730000Y-50610000D02*
X159730000Y-50766000D01*
X159730000Y-48294000D02*
X159730000Y-48450000D01*
X162331130Y-50609837D02*
G75*
G02*
X160249039Y-50610000I-1041130J1079837D01*
G01*
X162331130Y-48450163D02*
G75*
G03*
X160249039Y-48450000I-1041130J-1079837D01*
G01*
X162962335Y-50608608D02*
G75*
G02*
X159730000Y-50765516I-1672335J1078608D01*
G01*
X162962335Y-48451392D02*
G75*
G03*
X159730000Y-48294484I-1672335J-1078608D01*
G01*
%TO.C,D10*%
X159730000Y-44260000D02*
X159730000Y-44416000D01*
X159730000Y-41944000D02*
X159730000Y-42100000D01*
X162331130Y-44259837D02*
G75*
G02*
X160249039Y-44260000I-1041130J1079837D01*
G01*
X162331130Y-42100163D02*
G75*
G03*
X160249039Y-42100000I-1041130J-1079837D01*
G01*
X162962335Y-44258608D02*
G75*
G02*
X159730000Y-44415516I-1672335J1078608D01*
G01*
X162962335Y-42101392D02*
G75*
G03*
X159730000Y-41944484I-1672335J-1078608D01*
G01*
%TO.C,D9*%
X159730000Y-37910000D02*
X159730000Y-38066000D01*
X159730000Y-35594000D02*
X159730000Y-35750000D01*
X162331130Y-37909837D02*
G75*
G02*
X160249039Y-37910000I-1041130J1079837D01*
G01*
X162331130Y-35750163D02*
G75*
G03*
X160249039Y-35750000I-1041130J-1079837D01*
G01*
X162962335Y-37908608D02*
G75*
G02*
X159730000Y-38065516I-1672335J1078608D01*
G01*
X162962335Y-35751392D02*
G75*
G03*
X159730000Y-35594484I-1672335J-1078608D01*
G01*
%TO.C,D8*%
X134330000Y-37910000D02*
X134330000Y-38066000D01*
X134330000Y-35594000D02*
X134330000Y-35750000D01*
X136931130Y-37909837D02*
G75*
G02*
X134849039Y-37910000I-1041130J1079837D01*
G01*
X136931130Y-35750163D02*
G75*
G03*
X134849039Y-35750000I-1041130J-1079837D01*
G01*
X137562335Y-37908608D02*
G75*
G02*
X134330000Y-38065516I-1672335J1078608D01*
G01*
X137562335Y-35751392D02*
G75*
G03*
X134330000Y-35594484I-1672335J-1078608D01*
G01*
%TO.C,D7*%
X134330000Y-44260000D02*
X134330000Y-44416000D01*
X134330000Y-41944000D02*
X134330000Y-42100000D01*
X136931130Y-44259837D02*
G75*
G02*
X134849039Y-44260000I-1041130J1079837D01*
G01*
X136931130Y-42100163D02*
G75*
G03*
X134849039Y-42100000I-1041130J-1079837D01*
G01*
X137562335Y-44258608D02*
G75*
G02*
X134330000Y-44415516I-1672335J1078608D01*
G01*
X137562335Y-42101392D02*
G75*
G03*
X134330000Y-41944484I-1672335J-1078608D01*
G01*
%TO.C,SW8*%
D12*
X173926666Y-84224761D02*
X174069523Y-84272380D01*
X174307619Y-84272380D01*
X174402857Y-84224761D01*
X174450476Y-84177142D01*
X174498095Y-84081904D01*
X174498095Y-83986666D01*
X174450476Y-83891428D01*
X174402857Y-83843809D01*
X174307619Y-83796190D01*
X174117142Y-83748571D01*
X174021904Y-83700952D01*
X173974285Y-83653333D01*
X173926666Y-83558095D01*
X173926666Y-83462857D01*
X173974285Y-83367619D01*
X174021904Y-83320000D01*
X174117142Y-83272380D01*
X174355238Y-83272380D01*
X174498095Y-83320000D01*
X174831428Y-83272380D02*
X175069523Y-84272380D01*
X175260000Y-83558095D01*
X175450476Y-84272380D01*
X175688571Y-83272380D01*
X176212380Y-83700952D02*
X176117142Y-83653333D01*
X176069523Y-83605714D01*
X176021904Y-83510476D01*
X176021904Y-83462857D01*
X176069523Y-83367619D01*
X176117142Y-83320000D01*
X176212380Y-83272380D01*
X176402857Y-83272380D01*
X176498095Y-83320000D01*
X176545714Y-83367619D01*
X176593333Y-83462857D01*
X176593333Y-83510476D01*
X176545714Y-83605714D01*
X176498095Y-83653333D01*
X176402857Y-83700952D01*
X176212380Y-83700952D01*
X176117142Y-83748571D01*
X176069523Y-83796190D01*
X176021904Y-83891428D01*
X176021904Y-84081904D01*
X176069523Y-84177142D01*
X176117142Y-84224761D01*
X176212380Y-84272380D01*
X176402857Y-84272380D01*
X176498095Y-84224761D01*
X176545714Y-84177142D01*
X176593333Y-84081904D01*
X176593333Y-83891428D01*
X176545714Y-83796190D01*
X176498095Y-83748571D01*
X176402857Y-83700952D01*
%TO.C,SW7*%
X173926666Y-63904761D02*
X174069523Y-63952380D01*
X174307619Y-63952380D01*
X174402857Y-63904761D01*
X174450476Y-63857142D01*
X174498095Y-63761904D01*
X174498095Y-63666666D01*
X174450476Y-63571428D01*
X174402857Y-63523809D01*
X174307619Y-63476190D01*
X174117142Y-63428571D01*
X174021904Y-63380952D01*
X173974285Y-63333333D01*
X173926666Y-63238095D01*
X173926666Y-63142857D01*
X173974285Y-63047619D01*
X174021904Y-63000000D01*
X174117142Y-62952380D01*
X174355238Y-62952380D01*
X174498095Y-63000000D01*
X174831428Y-62952380D02*
X175069523Y-63952380D01*
X175260000Y-63238095D01*
X175450476Y-63952380D01*
X175688571Y-62952380D01*
X175974285Y-62952380D02*
X176640952Y-62952380D01*
X176212380Y-63952380D01*
%TO.C,SW6*%
X153606666Y-84224761D02*
X153749523Y-84272380D01*
X153987619Y-84272380D01*
X154082857Y-84224761D01*
X154130476Y-84177142D01*
X154178095Y-84081904D01*
X154178095Y-83986666D01*
X154130476Y-83891428D01*
X154082857Y-83843809D01*
X153987619Y-83796190D01*
X153797142Y-83748571D01*
X153701904Y-83700952D01*
X153654285Y-83653333D01*
X153606666Y-83558095D01*
X153606666Y-83462857D01*
X153654285Y-83367619D01*
X153701904Y-83320000D01*
X153797142Y-83272380D01*
X154035238Y-83272380D01*
X154178095Y-83320000D01*
X154511428Y-83272380D02*
X154749523Y-84272380D01*
X154940000Y-83558095D01*
X155130476Y-84272380D01*
X155368571Y-83272380D01*
X156178095Y-83272380D02*
X155987619Y-83272380D01*
X155892380Y-83320000D01*
X155844761Y-83367619D01*
X155749523Y-83510476D01*
X155701904Y-83700952D01*
X155701904Y-84081904D01*
X155749523Y-84177142D01*
X155797142Y-84224761D01*
X155892380Y-84272380D01*
X156082857Y-84272380D01*
X156178095Y-84224761D01*
X156225714Y-84177142D01*
X156273333Y-84081904D01*
X156273333Y-83843809D01*
X156225714Y-83748571D01*
X156178095Y-83700952D01*
X156082857Y-83653333D01*
X155892380Y-83653333D01*
X155797142Y-83700952D01*
X155749523Y-83748571D01*
X155701904Y-83843809D01*
%TO.C,SW5*%
X153606666Y-63904761D02*
X153749523Y-63952380D01*
X153987619Y-63952380D01*
X154082857Y-63904761D01*
X154130476Y-63857142D01*
X154178095Y-63761904D01*
X154178095Y-63666666D01*
X154130476Y-63571428D01*
X154082857Y-63523809D01*
X153987619Y-63476190D01*
X153797142Y-63428571D01*
X153701904Y-63380952D01*
X153654285Y-63333333D01*
X153606666Y-63238095D01*
X153606666Y-63142857D01*
X153654285Y-63047619D01*
X153701904Y-63000000D01*
X153797142Y-62952380D01*
X154035238Y-62952380D01*
X154178095Y-63000000D01*
X154511428Y-62952380D02*
X154749523Y-63952380D01*
X154940000Y-63238095D01*
X155130476Y-63952380D01*
X155368571Y-62952380D01*
X156225714Y-62952380D02*
X155749523Y-62952380D01*
X155701904Y-63428571D01*
X155749523Y-63380952D01*
X155844761Y-63333333D01*
X156082857Y-63333333D01*
X156178095Y-63380952D01*
X156225714Y-63428571D01*
X156273333Y-63523809D01*
X156273333Y-63761904D01*
X156225714Y-63857142D01*
X156178095Y-63904761D01*
X156082857Y-63952380D01*
X155844761Y-63952380D01*
X155749523Y-63904761D01*
X155701904Y-63857142D01*
%TO.C,SW4*%
X133286666Y-84224761D02*
X133429523Y-84272380D01*
X133667619Y-84272380D01*
X133762857Y-84224761D01*
X133810476Y-84177142D01*
X133858095Y-84081904D01*
X133858095Y-83986666D01*
X133810476Y-83891428D01*
X133762857Y-83843809D01*
X133667619Y-83796190D01*
X133477142Y-83748571D01*
X133381904Y-83700952D01*
X133334285Y-83653333D01*
X133286666Y-83558095D01*
X133286666Y-83462857D01*
X133334285Y-83367619D01*
X133381904Y-83320000D01*
X133477142Y-83272380D01*
X133715238Y-83272380D01*
X133858095Y-83320000D01*
X134191428Y-83272380D02*
X134429523Y-84272380D01*
X134620000Y-83558095D01*
X134810476Y-84272380D01*
X135048571Y-83272380D01*
X135858095Y-83605714D02*
X135858095Y-84272380D01*
X135620000Y-83224761D02*
X135381904Y-83939047D01*
X136000952Y-83939047D01*
%TO.C,SW3*%
X133286666Y-63904761D02*
X133429523Y-63952380D01*
X133667619Y-63952380D01*
X133762857Y-63904761D01*
X133810476Y-63857142D01*
X133858095Y-63761904D01*
X133858095Y-63666666D01*
X133810476Y-63571428D01*
X133762857Y-63523809D01*
X133667619Y-63476190D01*
X133477142Y-63428571D01*
X133381904Y-63380952D01*
X133334285Y-63333333D01*
X133286666Y-63238095D01*
X133286666Y-63142857D01*
X133334285Y-63047619D01*
X133381904Y-63000000D01*
X133477142Y-62952380D01*
X133715238Y-62952380D01*
X133858095Y-63000000D01*
X134191428Y-62952380D02*
X134429523Y-63952380D01*
X134620000Y-63238095D01*
X134810476Y-63952380D01*
X135048571Y-62952380D01*
X135334285Y-62952380D02*
X135953333Y-62952380D01*
X135620000Y-63333333D01*
X135762857Y-63333333D01*
X135858095Y-63380952D01*
X135905714Y-63428571D01*
X135953333Y-63523809D01*
X135953333Y-63761904D01*
X135905714Y-63857142D01*
X135858095Y-63904761D01*
X135762857Y-63952380D01*
X135477142Y-63952380D01*
X135381904Y-63904761D01*
X135334285Y-63857142D01*
%TO.C,SW2*%
X112966666Y-84224761D02*
X113109523Y-84272380D01*
X113347619Y-84272380D01*
X113442857Y-84224761D01*
X113490476Y-84177142D01*
X113538095Y-84081904D01*
X113538095Y-83986666D01*
X113490476Y-83891428D01*
X113442857Y-83843809D01*
X113347619Y-83796190D01*
X113157142Y-83748571D01*
X113061904Y-83700952D01*
X113014285Y-83653333D01*
X112966666Y-83558095D01*
X112966666Y-83462857D01*
X113014285Y-83367619D01*
X113061904Y-83320000D01*
X113157142Y-83272380D01*
X113395238Y-83272380D01*
X113538095Y-83320000D01*
X113871428Y-83272380D02*
X114109523Y-84272380D01*
X114300000Y-83558095D01*
X114490476Y-84272380D01*
X114728571Y-83272380D01*
X115061904Y-83367619D02*
X115109523Y-83320000D01*
X115204761Y-83272380D01*
X115442857Y-83272380D01*
X115538095Y-83320000D01*
X115585714Y-83367619D01*
X115633333Y-83462857D01*
X115633333Y-83558095D01*
X115585714Y-83700952D01*
X115014285Y-84272380D01*
X115633333Y-84272380D01*
%TO.C,SW1*%
X112966666Y-63904761D02*
X113109523Y-63952380D01*
X113347619Y-63952380D01*
X113442857Y-63904761D01*
X113490476Y-63857142D01*
X113538095Y-63761904D01*
X113538095Y-63666666D01*
X113490476Y-63571428D01*
X113442857Y-63523809D01*
X113347619Y-63476190D01*
X113157142Y-63428571D01*
X113061904Y-63380952D01*
X113014285Y-63333333D01*
X112966666Y-63238095D01*
X112966666Y-63142857D01*
X113014285Y-63047619D01*
X113061904Y-63000000D01*
X113157142Y-62952380D01*
X113395238Y-62952380D01*
X113538095Y-63000000D01*
X113871428Y-62952380D02*
X114109523Y-63952380D01*
X114300000Y-63238095D01*
X114490476Y-63952380D01*
X114728571Y-62952380D01*
X115633333Y-63952380D02*
X115061904Y-63952380D01*
X115347619Y-63952380D02*
X115347619Y-62952380D01*
X115252380Y-63095238D01*
X115157142Y-63190476D01*
X115061904Y-63238095D01*
%TO.C,J1*%
X98726666Y-98262380D02*
X98726666Y-98976666D01*
X98679047Y-99119523D01*
X98583809Y-99214761D01*
X98440952Y-99262380D01*
X98345714Y-99262380D01*
X99726666Y-99262380D02*
X99155238Y-99262380D01*
X99440952Y-99262380D02*
X99440952Y-98262380D01*
X99345714Y-98405238D01*
X99250476Y-98500476D01*
X99155238Y-98548095D01*
%TO.C,D19*%
X171902380Y-97734285D02*
X170902380Y-97734285D01*
X170902380Y-97496190D01*
X170950000Y-97353333D01*
X171045238Y-97258095D01*
X171140476Y-97210476D01*
X171330952Y-97162857D01*
X171473809Y-97162857D01*
X171664285Y-97210476D01*
X171759523Y-97258095D01*
X171854761Y-97353333D01*
X171902380Y-97496190D01*
X171902380Y-97734285D01*
X171902380Y-96210476D02*
X171902380Y-96781904D01*
X171902380Y-96496190D02*
X170902380Y-96496190D01*
X171045238Y-96591428D01*
X171140476Y-96686666D01*
X171188095Y-96781904D01*
X171902380Y-95734285D02*
X171902380Y-95543809D01*
X171854761Y-95448571D01*
X171807142Y-95400952D01*
X171664285Y-95305714D01*
X171473809Y-95258095D01*
X171092857Y-95258095D01*
X170997619Y-95305714D01*
X170950000Y-95353333D01*
X170902380Y-95448571D01*
X170902380Y-95639047D01*
X170950000Y-95734285D01*
X170997619Y-95781904D01*
X171092857Y-95829523D01*
X171330952Y-95829523D01*
X171426190Y-95781904D01*
X171473809Y-95734285D01*
X171521428Y-95639047D01*
X171521428Y-95448571D01*
X171473809Y-95353333D01*
X171426190Y-95305714D01*
X171330952Y-95258095D01*
%TO.C,D18*%
X171902380Y-77414285D02*
X170902380Y-77414285D01*
X170902380Y-77176190D01*
X170950000Y-77033333D01*
X171045238Y-76938095D01*
X171140476Y-76890476D01*
X171330952Y-76842857D01*
X171473809Y-76842857D01*
X171664285Y-76890476D01*
X171759523Y-76938095D01*
X171854761Y-77033333D01*
X171902380Y-77176190D01*
X171902380Y-77414285D01*
X171902380Y-75890476D02*
X171902380Y-76461904D01*
X171902380Y-76176190D02*
X170902380Y-76176190D01*
X171045238Y-76271428D01*
X171140476Y-76366666D01*
X171188095Y-76461904D01*
X171330952Y-75319047D02*
X171283333Y-75414285D01*
X171235714Y-75461904D01*
X171140476Y-75509523D01*
X171092857Y-75509523D01*
X170997619Y-75461904D01*
X170950000Y-75414285D01*
X170902380Y-75319047D01*
X170902380Y-75128571D01*
X170950000Y-75033333D01*
X170997619Y-74985714D01*
X171092857Y-74938095D01*
X171140476Y-74938095D01*
X171235714Y-74985714D01*
X171283333Y-75033333D01*
X171330952Y-75128571D01*
X171330952Y-75319047D01*
X171378571Y-75414285D01*
X171426190Y-75461904D01*
X171521428Y-75509523D01*
X171711904Y-75509523D01*
X171807142Y-75461904D01*
X171854761Y-75414285D01*
X171902380Y-75319047D01*
X171902380Y-75128571D01*
X171854761Y-75033333D01*
X171807142Y-74985714D01*
X171711904Y-74938095D01*
X171521428Y-74938095D01*
X171426190Y-74985714D01*
X171378571Y-75033333D01*
X171330952Y-75128571D01*
%TO.C,D17*%
X151582380Y-97734285D02*
X150582380Y-97734285D01*
X150582380Y-97496190D01*
X150630000Y-97353333D01*
X150725238Y-97258095D01*
X150820476Y-97210476D01*
X151010952Y-97162857D01*
X151153809Y-97162857D01*
X151344285Y-97210476D01*
X151439523Y-97258095D01*
X151534761Y-97353333D01*
X151582380Y-97496190D01*
X151582380Y-97734285D01*
X151582380Y-96210476D02*
X151582380Y-96781904D01*
X151582380Y-96496190D02*
X150582380Y-96496190D01*
X150725238Y-96591428D01*
X150820476Y-96686666D01*
X150868095Y-96781904D01*
X150582380Y-95877142D02*
X150582380Y-95210476D01*
X151582380Y-95639047D01*
%TO.C,D16*%
X151582380Y-77414285D02*
X150582380Y-77414285D01*
X150582380Y-77176190D01*
X150630000Y-77033333D01*
X150725238Y-76938095D01*
X150820476Y-76890476D01*
X151010952Y-76842857D01*
X151153809Y-76842857D01*
X151344285Y-76890476D01*
X151439523Y-76938095D01*
X151534761Y-77033333D01*
X151582380Y-77176190D01*
X151582380Y-77414285D01*
X151582380Y-75890476D02*
X151582380Y-76461904D01*
X151582380Y-76176190D02*
X150582380Y-76176190D01*
X150725238Y-76271428D01*
X150820476Y-76366666D01*
X150868095Y-76461904D01*
X150582380Y-75033333D02*
X150582380Y-75223809D01*
X150630000Y-75319047D01*
X150677619Y-75366666D01*
X150820476Y-75461904D01*
X151010952Y-75509523D01*
X151391904Y-75509523D01*
X151487142Y-75461904D01*
X151534761Y-75414285D01*
X151582380Y-75319047D01*
X151582380Y-75128571D01*
X151534761Y-75033333D01*
X151487142Y-74985714D01*
X151391904Y-74938095D01*
X151153809Y-74938095D01*
X151058571Y-74985714D01*
X151010952Y-75033333D01*
X150963333Y-75128571D01*
X150963333Y-75319047D01*
X151010952Y-75414285D01*
X151058571Y-75461904D01*
X151153809Y-75509523D01*
%TO.C,D15*%
X131262380Y-97734285D02*
X130262380Y-97734285D01*
X130262380Y-97496190D01*
X130310000Y-97353333D01*
X130405238Y-97258095D01*
X130500476Y-97210476D01*
X130690952Y-97162857D01*
X130833809Y-97162857D01*
X131024285Y-97210476D01*
X131119523Y-97258095D01*
X131214761Y-97353333D01*
X131262380Y-97496190D01*
X131262380Y-97734285D01*
X131262380Y-96210476D02*
X131262380Y-96781904D01*
X131262380Y-96496190D02*
X130262380Y-96496190D01*
X130405238Y-96591428D01*
X130500476Y-96686666D01*
X130548095Y-96781904D01*
X130262380Y-95305714D02*
X130262380Y-95781904D01*
X130738571Y-95829523D01*
X130690952Y-95781904D01*
X130643333Y-95686666D01*
X130643333Y-95448571D01*
X130690952Y-95353333D01*
X130738571Y-95305714D01*
X130833809Y-95258095D01*
X131071904Y-95258095D01*
X131167142Y-95305714D01*
X131214761Y-95353333D01*
X131262380Y-95448571D01*
X131262380Y-95686666D01*
X131214761Y-95781904D01*
X131167142Y-95829523D01*
%TO.C,D14*%
X131262380Y-77414285D02*
X130262380Y-77414285D01*
X130262380Y-77176190D01*
X130310000Y-77033333D01*
X130405238Y-76938095D01*
X130500476Y-76890476D01*
X130690952Y-76842857D01*
X130833809Y-76842857D01*
X131024285Y-76890476D01*
X131119523Y-76938095D01*
X131214761Y-77033333D01*
X131262380Y-77176190D01*
X131262380Y-77414285D01*
X131262380Y-75890476D02*
X131262380Y-76461904D01*
X131262380Y-76176190D02*
X130262380Y-76176190D01*
X130405238Y-76271428D01*
X130500476Y-76366666D01*
X130548095Y-76461904D01*
X130595714Y-75033333D02*
X131262380Y-75033333D01*
X130214761Y-75271428D02*
X130929047Y-75509523D01*
X130929047Y-74890476D01*
%TO.C,D13*%
X110942380Y-97734285D02*
X109942380Y-97734285D01*
X109942380Y-97496190D01*
X109990000Y-97353333D01*
X110085238Y-97258095D01*
X110180476Y-97210476D01*
X110370952Y-97162857D01*
X110513809Y-97162857D01*
X110704285Y-97210476D01*
X110799523Y-97258095D01*
X110894761Y-97353333D01*
X110942380Y-97496190D01*
X110942380Y-97734285D01*
X110942380Y-96210476D02*
X110942380Y-96781904D01*
X110942380Y-96496190D02*
X109942380Y-96496190D01*
X110085238Y-96591428D01*
X110180476Y-96686666D01*
X110228095Y-96781904D01*
X109942380Y-95877142D02*
X109942380Y-95258095D01*
X110323333Y-95591428D01*
X110323333Y-95448571D01*
X110370952Y-95353333D01*
X110418571Y-95305714D01*
X110513809Y-95258095D01*
X110751904Y-95258095D01*
X110847142Y-95305714D01*
X110894761Y-95353333D01*
X110942380Y-95448571D01*
X110942380Y-95734285D01*
X110894761Y-95829523D01*
X110847142Y-95877142D01*
%TO.C,D12*%
X110942380Y-77414285D02*
X109942380Y-77414285D01*
X109942380Y-77176190D01*
X109990000Y-77033333D01*
X110085238Y-76938095D01*
X110180476Y-76890476D01*
X110370952Y-76842857D01*
X110513809Y-76842857D01*
X110704285Y-76890476D01*
X110799523Y-76938095D01*
X110894761Y-77033333D01*
X110942380Y-77176190D01*
X110942380Y-77414285D01*
X110942380Y-75890476D02*
X110942380Y-76461904D01*
X110942380Y-76176190D02*
X109942380Y-76176190D01*
X110085238Y-76271428D01*
X110180476Y-76366666D01*
X110228095Y-76461904D01*
X110037619Y-75509523D02*
X109990000Y-75461904D01*
X109942380Y-75366666D01*
X109942380Y-75128571D01*
X109990000Y-75033333D01*
X110037619Y-74985714D01*
X110132857Y-74938095D01*
X110228095Y-74938095D01*
X110370952Y-74985714D01*
X110942380Y-75557142D01*
X110942380Y-74938095D01*
%TD*%
M02*
