%TF.GenerationSoftware,KiCad,Pcbnew,(5.1.9)-1*%
%TF.CreationDate,2021-03-30T21:11:26+02:00*%
%TF.ProjectId,RemoteCtrl,52656d6f-7465-4437-9472-6c2e6b696361,v0.1*%
%TF.SameCoordinates,Original*%
%TF.FileFunction,Paste,Bot*%
%TF.FilePolarity,Positive*%
%FSLAX46Y46*%
G04 Gerber Fmt 4.6, Leading zero omitted, Abs format (unit mm)*
G04 Created by KiCad (PCBNEW (5.1.9)-1) date 2021-03-30 21:11:26*
%MOMM*%
%LPD*%
G01*
G04 APERTURE LIST*
%ADD10R,0.650000X0.400000*%
G04 APERTURE END LIST*
%TO.C,R2*%
G36*
G01*
X103715000Y-42905000D02*
X103715000Y-43455000D01*
G75*
G02*
X103515000Y-43655000I-200000J0D01*
G01*
X103115000Y-43655000D01*
G75*
G02*
X102915000Y-43455000I0J200000D01*
G01*
X102915000Y-42905000D01*
G75*
G02*
X103115000Y-42705000I200000J0D01*
G01*
X103515000Y-42705000D01*
G75*
G02*
X103715000Y-42905000I0J-200000D01*
G01*
G37*
G36*
G01*
X105365000Y-42905000D02*
X105365000Y-43455000D01*
G75*
G02*
X105165000Y-43655000I-200000J0D01*
G01*
X104765000Y-43655000D01*
G75*
G02*
X104565000Y-43455000I0J200000D01*
G01*
X104565000Y-42905000D01*
G75*
G02*
X104765000Y-42705000I200000J0D01*
G01*
X105165000Y-42705000D01*
G75*
G02*
X105365000Y-42905000I0J-200000D01*
G01*
G37*
%TD*%
%TO.C,R1*%
G36*
G01*
X103715000Y-36555000D02*
X103715000Y-37105000D01*
G75*
G02*
X103515000Y-37305000I-200000J0D01*
G01*
X103115000Y-37305000D01*
G75*
G02*
X102915000Y-37105000I0J200000D01*
G01*
X102915000Y-36555000D01*
G75*
G02*
X103115000Y-36355000I200000J0D01*
G01*
X103515000Y-36355000D01*
G75*
G02*
X103715000Y-36555000I0J-200000D01*
G01*
G37*
G36*
G01*
X105365000Y-36555000D02*
X105365000Y-37105000D01*
G75*
G02*
X105165000Y-37305000I-200000J0D01*
G01*
X104765000Y-37305000D01*
G75*
G02*
X104565000Y-37105000I0J200000D01*
G01*
X104565000Y-36555000D01*
G75*
G02*
X104765000Y-36355000I200000J0D01*
G01*
X105165000Y-36355000D01*
G75*
G02*
X105365000Y-36555000I0J-200000D01*
G01*
G37*
%TD*%
D10*
%TO.C,U8*%
X183195000Y-85610000D03*
X183195000Y-84310000D03*
X181295000Y-84960000D03*
X181295000Y-84310000D03*
X181295000Y-85610000D03*
%TD*%
%TO.C,U7*%
X183195000Y-65290000D03*
X183195000Y-63990000D03*
X181295000Y-64640000D03*
X181295000Y-63990000D03*
X181295000Y-65290000D03*
%TD*%
%TO.C,U6*%
X162875000Y-85610000D03*
X162875000Y-84310000D03*
X160975000Y-84960000D03*
X160975000Y-84310000D03*
X160975000Y-85610000D03*
%TD*%
%TO.C,U5*%
X162875000Y-65290000D03*
X162875000Y-63990000D03*
X160975000Y-64640000D03*
X160975000Y-63990000D03*
X160975000Y-65290000D03*
%TD*%
%TO.C,U4*%
X142555000Y-85610000D03*
X142555000Y-84310000D03*
X140655000Y-84960000D03*
X140655000Y-84310000D03*
X140655000Y-85610000D03*
%TD*%
%TO.C,U3*%
X142555000Y-65290000D03*
X142555000Y-63990000D03*
X140655000Y-64640000D03*
X140655000Y-63990000D03*
X140655000Y-65290000D03*
%TD*%
%TO.C,U2*%
X122235000Y-85610000D03*
X122235000Y-84310000D03*
X120335000Y-84960000D03*
X120335000Y-84310000D03*
X120335000Y-85610000D03*
%TD*%
%TO.C,U1*%
X122235000Y-65290000D03*
X122235000Y-63990000D03*
X120335000Y-64640000D03*
X120335000Y-63990000D03*
X120335000Y-65290000D03*
%TD*%
%TO.C,R35*%
G36*
G01*
X168065000Y-85365000D02*
X168065000Y-84815000D01*
G75*
G02*
X168265000Y-84615000I200000J0D01*
G01*
X168665000Y-84615000D01*
G75*
G02*
X168865000Y-84815000I0J-200000D01*
G01*
X168865000Y-85365000D01*
G75*
G02*
X168665000Y-85565000I-200000J0D01*
G01*
X168265000Y-85565000D01*
G75*
G02*
X168065000Y-85365000I0J200000D01*
G01*
G37*
G36*
G01*
X166415000Y-85365000D02*
X166415000Y-84815000D01*
G75*
G02*
X166615000Y-84615000I200000J0D01*
G01*
X167015000Y-84615000D01*
G75*
G02*
X167215000Y-84815000I0J-200000D01*
G01*
X167215000Y-85365000D01*
G75*
G02*
X167015000Y-85565000I-200000J0D01*
G01*
X166615000Y-85565000D01*
G75*
G02*
X166415000Y-85365000I0J200000D01*
G01*
G37*
%TD*%
%TO.C,R34*%
G36*
G01*
X168065000Y-87270000D02*
X168065000Y-86720000D01*
G75*
G02*
X168265000Y-86520000I200000J0D01*
G01*
X168665000Y-86520000D01*
G75*
G02*
X168865000Y-86720000I0J-200000D01*
G01*
X168865000Y-87270000D01*
G75*
G02*
X168665000Y-87470000I-200000J0D01*
G01*
X168265000Y-87470000D01*
G75*
G02*
X168065000Y-87270000I0J200000D01*
G01*
G37*
G36*
G01*
X166415000Y-87270000D02*
X166415000Y-86720000D01*
G75*
G02*
X166615000Y-86520000I200000J0D01*
G01*
X167015000Y-86520000D01*
G75*
G02*
X167215000Y-86720000I0J-200000D01*
G01*
X167215000Y-87270000D01*
G75*
G02*
X167015000Y-87470000I-200000J0D01*
G01*
X166615000Y-87470000D01*
G75*
G02*
X166415000Y-87270000I0J200000D01*
G01*
G37*
%TD*%
%TO.C,R33*%
G36*
G01*
X169755000Y-96245000D02*
X169755000Y-96795000D01*
G75*
G02*
X169555000Y-96995000I-200000J0D01*
G01*
X169155000Y-96995000D01*
G75*
G02*
X168955000Y-96795000I0J200000D01*
G01*
X168955000Y-96245000D01*
G75*
G02*
X169155000Y-96045000I200000J0D01*
G01*
X169555000Y-96045000D01*
G75*
G02*
X169755000Y-96245000I0J-200000D01*
G01*
G37*
G36*
G01*
X171405000Y-96245000D02*
X171405000Y-96795000D01*
G75*
G02*
X171205000Y-96995000I-200000J0D01*
G01*
X170805000Y-96995000D01*
G75*
G02*
X170605000Y-96795000I0J200000D01*
G01*
X170605000Y-96245000D01*
G75*
G02*
X170805000Y-96045000I200000J0D01*
G01*
X171205000Y-96045000D01*
G75*
G02*
X171405000Y-96245000I0J-200000D01*
G01*
G37*
%TD*%
%TO.C,R32*%
G36*
G01*
X168065000Y-65045000D02*
X168065000Y-64495000D01*
G75*
G02*
X168265000Y-64295000I200000J0D01*
G01*
X168665000Y-64295000D01*
G75*
G02*
X168865000Y-64495000I0J-200000D01*
G01*
X168865000Y-65045000D01*
G75*
G02*
X168665000Y-65245000I-200000J0D01*
G01*
X168265000Y-65245000D01*
G75*
G02*
X168065000Y-65045000I0J200000D01*
G01*
G37*
G36*
G01*
X166415000Y-65045000D02*
X166415000Y-64495000D01*
G75*
G02*
X166615000Y-64295000I200000J0D01*
G01*
X167015000Y-64295000D01*
G75*
G02*
X167215000Y-64495000I0J-200000D01*
G01*
X167215000Y-65045000D01*
G75*
G02*
X167015000Y-65245000I-200000J0D01*
G01*
X166615000Y-65245000D01*
G75*
G02*
X166415000Y-65045000I0J200000D01*
G01*
G37*
%TD*%
%TO.C,R31*%
G36*
G01*
X168065000Y-66950000D02*
X168065000Y-66400000D01*
G75*
G02*
X168265000Y-66200000I200000J0D01*
G01*
X168665000Y-66200000D01*
G75*
G02*
X168865000Y-66400000I0J-200000D01*
G01*
X168865000Y-66950000D01*
G75*
G02*
X168665000Y-67150000I-200000J0D01*
G01*
X168265000Y-67150000D01*
G75*
G02*
X168065000Y-66950000I0J200000D01*
G01*
G37*
G36*
G01*
X166415000Y-66950000D02*
X166415000Y-66400000D01*
G75*
G02*
X166615000Y-66200000I200000J0D01*
G01*
X167015000Y-66200000D01*
G75*
G02*
X167215000Y-66400000I0J-200000D01*
G01*
X167215000Y-66950000D01*
G75*
G02*
X167015000Y-67150000I-200000J0D01*
G01*
X166615000Y-67150000D01*
G75*
G02*
X166415000Y-66950000I0J200000D01*
G01*
G37*
%TD*%
%TO.C,R30*%
G36*
G01*
X169755000Y-75925000D02*
X169755000Y-76475000D01*
G75*
G02*
X169555000Y-76675000I-200000J0D01*
G01*
X169155000Y-76675000D01*
G75*
G02*
X168955000Y-76475000I0J200000D01*
G01*
X168955000Y-75925000D01*
G75*
G02*
X169155000Y-75725000I200000J0D01*
G01*
X169555000Y-75725000D01*
G75*
G02*
X169755000Y-75925000I0J-200000D01*
G01*
G37*
G36*
G01*
X171405000Y-75925000D02*
X171405000Y-76475000D01*
G75*
G02*
X171205000Y-76675000I-200000J0D01*
G01*
X170805000Y-76675000D01*
G75*
G02*
X170605000Y-76475000I0J200000D01*
G01*
X170605000Y-75925000D01*
G75*
G02*
X170805000Y-75725000I200000J0D01*
G01*
X171205000Y-75725000D01*
G75*
G02*
X171405000Y-75925000I0J-200000D01*
G01*
G37*
%TD*%
%TO.C,R29*%
G36*
G01*
X147745000Y-85365000D02*
X147745000Y-84815000D01*
G75*
G02*
X147945000Y-84615000I200000J0D01*
G01*
X148345000Y-84615000D01*
G75*
G02*
X148545000Y-84815000I0J-200000D01*
G01*
X148545000Y-85365000D01*
G75*
G02*
X148345000Y-85565000I-200000J0D01*
G01*
X147945000Y-85565000D01*
G75*
G02*
X147745000Y-85365000I0J200000D01*
G01*
G37*
G36*
G01*
X146095000Y-85365000D02*
X146095000Y-84815000D01*
G75*
G02*
X146295000Y-84615000I200000J0D01*
G01*
X146695000Y-84615000D01*
G75*
G02*
X146895000Y-84815000I0J-200000D01*
G01*
X146895000Y-85365000D01*
G75*
G02*
X146695000Y-85565000I-200000J0D01*
G01*
X146295000Y-85565000D01*
G75*
G02*
X146095000Y-85365000I0J200000D01*
G01*
G37*
%TD*%
%TO.C,R28*%
G36*
G01*
X147745000Y-87270000D02*
X147745000Y-86720000D01*
G75*
G02*
X147945000Y-86520000I200000J0D01*
G01*
X148345000Y-86520000D01*
G75*
G02*
X148545000Y-86720000I0J-200000D01*
G01*
X148545000Y-87270000D01*
G75*
G02*
X148345000Y-87470000I-200000J0D01*
G01*
X147945000Y-87470000D01*
G75*
G02*
X147745000Y-87270000I0J200000D01*
G01*
G37*
G36*
G01*
X146095000Y-87270000D02*
X146095000Y-86720000D01*
G75*
G02*
X146295000Y-86520000I200000J0D01*
G01*
X146695000Y-86520000D01*
G75*
G02*
X146895000Y-86720000I0J-200000D01*
G01*
X146895000Y-87270000D01*
G75*
G02*
X146695000Y-87470000I-200000J0D01*
G01*
X146295000Y-87470000D01*
G75*
G02*
X146095000Y-87270000I0J200000D01*
G01*
G37*
%TD*%
%TO.C,R27*%
G36*
G01*
X149435000Y-96245000D02*
X149435000Y-96795000D01*
G75*
G02*
X149235000Y-96995000I-200000J0D01*
G01*
X148835000Y-96995000D01*
G75*
G02*
X148635000Y-96795000I0J200000D01*
G01*
X148635000Y-96245000D01*
G75*
G02*
X148835000Y-96045000I200000J0D01*
G01*
X149235000Y-96045000D01*
G75*
G02*
X149435000Y-96245000I0J-200000D01*
G01*
G37*
G36*
G01*
X151085000Y-96245000D02*
X151085000Y-96795000D01*
G75*
G02*
X150885000Y-96995000I-200000J0D01*
G01*
X150485000Y-96995000D01*
G75*
G02*
X150285000Y-96795000I0J200000D01*
G01*
X150285000Y-96245000D01*
G75*
G02*
X150485000Y-96045000I200000J0D01*
G01*
X150885000Y-96045000D01*
G75*
G02*
X151085000Y-96245000I0J-200000D01*
G01*
G37*
%TD*%
%TO.C,R26*%
G36*
G01*
X147745000Y-65045000D02*
X147745000Y-64495000D01*
G75*
G02*
X147945000Y-64295000I200000J0D01*
G01*
X148345000Y-64295000D01*
G75*
G02*
X148545000Y-64495000I0J-200000D01*
G01*
X148545000Y-65045000D01*
G75*
G02*
X148345000Y-65245000I-200000J0D01*
G01*
X147945000Y-65245000D01*
G75*
G02*
X147745000Y-65045000I0J200000D01*
G01*
G37*
G36*
G01*
X146095000Y-65045000D02*
X146095000Y-64495000D01*
G75*
G02*
X146295000Y-64295000I200000J0D01*
G01*
X146695000Y-64295000D01*
G75*
G02*
X146895000Y-64495000I0J-200000D01*
G01*
X146895000Y-65045000D01*
G75*
G02*
X146695000Y-65245000I-200000J0D01*
G01*
X146295000Y-65245000D01*
G75*
G02*
X146095000Y-65045000I0J200000D01*
G01*
G37*
%TD*%
%TO.C,R25*%
G36*
G01*
X147745000Y-66950000D02*
X147745000Y-66400000D01*
G75*
G02*
X147945000Y-66200000I200000J0D01*
G01*
X148345000Y-66200000D01*
G75*
G02*
X148545000Y-66400000I0J-200000D01*
G01*
X148545000Y-66950000D01*
G75*
G02*
X148345000Y-67150000I-200000J0D01*
G01*
X147945000Y-67150000D01*
G75*
G02*
X147745000Y-66950000I0J200000D01*
G01*
G37*
G36*
G01*
X146095000Y-66950000D02*
X146095000Y-66400000D01*
G75*
G02*
X146295000Y-66200000I200000J0D01*
G01*
X146695000Y-66200000D01*
G75*
G02*
X146895000Y-66400000I0J-200000D01*
G01*
X146895000Y-66950000D01*
G75*
G02*
X146695000Y-67150000I-200000J0D01*
G01*
X146295000Y-67150000D01*
G75*
G02*
X146095000Y-66950000I0J200000D01*
G01*
G37*
%TD*%
%TO.C,R24*%
G36*
G01*
X149435000Y-75925000D02*
X149435000Y-76475000D01*
G75*
G02*
X149235000Y-76675000I-200000J0D01*
G01*
X148835000Y-76675000D01*
G75*
G02*
X148635000Y-76475000I0J200000D01*
G01*
X148635000Y-75925000D01*
G75*
G02*
X148835000Y-75725000I200000J0D01*
G01*
X149235000Y-75725000D01*
G75*
G02*
X149435000Y-75925000I0J-200000D01*
G01*
G37*
G36*
G01*
X151085000Y-75925000D02*
X151085000Y-76475000D01*
G75*
G02*
X150885000Y-76675000I-200000J0D01*
G01*
X150485000Y-76675000D01*
G75*
G02*
X150285000Y-76475000I0J200000D01*
G01*
X150285000Y-75925000D01*
G75*
G02*
X150485000Y-75725000I200000J0D01*
G01*
X150885000Y-75725000D01*
G75*
G02*
X151085000Y-75925000I0J-200000D01*
G01*
G37*
%TD*%
%TO.C,R23*%
G36*
G01*
X127425000Y-85365000D02*
X127425000Y-84815000D01*
G75*
G02*
X127625000Y-84615000I200000J0D01*
G01*
X128025000Y-84615000D01*
G75*
G02*
X128225000Y-84815000I0J-200000D01*
G01*
X128225000Y-85365000D01*
G75*
G02*
X128025000Y-85565000I-200000J0D01*
G01*
X127625000Y-85565000D01*
G75*
G02*
X127425000Y-85365000I0J200000D01*
G01*
G37*
G36*
G01*
X125775000Y-85365000D02*
X125775000Y-84815000D01*
G75*
G02*
X125975000Y-84615000I200000J0D01*
G01*
X126375000Y-84615000D01*
G75*
G02*
X126575000Y-84815000I0J-200000D01*
G01*
X126575000Y-85365000D01*
G75*
G02*
X126375000Y-85565000I-200000J0D01*
G01*
X125975000Y-85565000D01*
G75*
G02*
X125775000Y-85365000I0J200000D01*
G01*
G37*
%TD*%
%TO.C,R22*%
G36*
G01*
X127425000Y-87270000D02*
X127425000Y-86720000D01*
G75*
G02*
X127625000Y-86520000I200000J0D01*
G01*
X128025000Y-86520000D01*
G75*
G02*
X128225000Y-86720000I0J-200000D01*
G01*
X128225000Y-87270000D01*
G75*
G02*
X128025000Y-87470000I-200000J0D01*
G01*
X127625000Y-87470000D01*
G75*
G02*
X127425000Y-87270000I0J200000D01*
G01*
G37*
G36*
G01*
X125775000Y-87270000D02*
X125775000Y-86720000D01*
G75*
G02*
X125975000Y-86520000I200000J0D01*
G01*
X126375000Y-86520000D01*
G75*
G02*
X126575000Y-86720000I0J-200000D01*
G01*
X126575000Y-87270000D01*
G75*
G02*
X126375000Y-87470000I-200000J0D01*
G01*
X125975000Y-87470000D01*
G75*
G02*
X125775000Y-87270000I0J200000D01*
G01*
G37*
%TD*%
%TO.C,R21*%
G36*
G01*
X129115000Y-96245000D02*
X129115000Y-96795000D01*
G75*
G02*
X128915000Y-96995000I-200000J0D01*
G01*
X128515000Y-96995000D01*
G75*
G02*
X128315000Y-96795000I0J200000D01*
G01*
X128315000Y-96245000D01*
G75*
G02*
X128515000Y-96045000I200000J0D01*
G01*
X128915000Y-96045000D01*
G75*
G02*
X129115000Y-96245000I0J-200000D01*
G01*
G37*
G36*
G01*
X130765000Y-96245000D02*
X130765000Y-96795000D01*
G75*
G02*
X130565000Y-96995000I-200000J0D01*
G01*
X130165000Y-96995000D01*
G75*
G02*
X129965000Y-96795000I0J200000D01*
G01*
X129965000Y-96245000D01*
G75*
G02*
X130165000Y-96045000I200000J0D01*
G01*
X130565000Y-96045000D01*
G75*
G02*
X130765000Y-96245000I0J-200000D01*
G01*
G37*
%TD*%
%TO.C,R20*%
G36*
G01*
X127425000Y-65045000D02*
X127425000Y-64495000D01*
G75*
G02*
X127625000Y-64295000I200000J0D01*
G01*
X128025000Y-64295000D01*
G75*
G02*
X128225000Y-64495000I0J-200000D01*
G01*
X128225000Y-65045000D01*
G75*
G02*
X128025000Y-65245000I-200000J0D01*
G01*
X127625000Y-65245000D01*
G75*
G02*
X127425000Y-65045000I0J200000D01*
G01*
G37*
G36*
G01*
X125775000Y-65045000D02*
X125775000Y-64495000D01*
G75*
G02*
X125975000Y-64295000I200000J0D01*
G01*
X126375000Y-64295000D01*
G75*
G02*
X126575000Y-64495000I0J-200000D01*
G01*
X126575000Y-65045000D01*
G75*
G02*
X126375000Y-65245000I-200000J0D01*
G01*
X125975000Y-65245000D01*
G75*
G02*
X125775000Y-65045000I0J200000D01*
G01*
G37*
%TD*%
%TO.C,R19*%
G36*
G01*
X127425000Y-66950000D02*
X127425000Y-66400000D01*
G75*
G02*
X127625000Y-66200000I200000J0D01*
G01*
X128025000Y-66200000D01*
G75*
G02*
X128225000Y-66400000I0J-200000D01*
G01*
X128225000Y-66950000D01*
G75*
G02*
X128025000Y-67150000I-200000J0D01*
G01*
X127625000Y-67150000D01*
G75*
G02*
X127425000Y-66950000I0J200000D01*
G01*
G37*
G36*
G01*
X125775000Y-66950000D02*
X125775000Y-66400000D01*
G75*
G02*
X125975000Y-66200000I200000J0D01*
G01*
X126375000Y-66200000D01*
G75*
G02*
X126575000Y-66400000I0J-200000D01*
G01*
X126575000Y-66950000D01*
G75*
G02*
X126375000Y-67150000I-200000J0D01*
G01*
X125975000Y-67150000D01*
G75*
G02*
X125775000Y-66950000I0J200000D01*
G01*
G37*
%TD*%
%TO.C,R18*%
G36*
G01*
X129115000Y-75925000D02*
X129115000Y-76475000D01*
G75*
G02*
X128915000Y-76675000I-200000J0D01*
G01*
X128515000Y-76675000D01*
G75*
G02*
X128315000Y-76475000I0J200000D01*
G01*
X128315000Y-75925000D01*
G75*
G02*
X128515000Y-75725000I200000J0D01*
G01*
X128915000Y-75725000D01*
G75*
G02*
X129115000Y-75925000I0J-200000D01*
G01*
G37*
G36*
G01*
X130765000Y-75925000D02*
X130765000Y-76475000D01*
G75*
G02*
X130565000Y-76675000I-200000J0D01*
G01*
X130165000Y-76675000D01*
G75*
G02*
X129965000Y-76475000I0J200000D01*
G01*
X129965000Y-75925000D01*
G75*
G02*
X130165000Y-75725000I200000J0D01*
G01*
X130565000Y-75725000D01*
G75*
G02*
X130765000Y-75925000I0J-200000D01*
G01*
G37*
%TD*%
%TO.C,R17*%
G36*
G01*
X107105000Y-85365000D02*
X107105000Y-84815000D01*
G75*
G02*
X107305000Y-84615000I200000J0D01*
G01*
X107705000Y-84615000D01*
G75*
G02*
X107905000Y-84815000I0J-200000D01*
G01*
X107905000Y-85365000D01*
G75*
G02*
X107705000Y-85565000I-200000J0D01*
G01*
X107305000Y-85565000D01*
G75*
G02*
X107105000Y-85365000I0J200000D01*
G01*
G37*
G36*
G01*
X105455000Y-85365000D02*
X105455000Y-84815000D01*
G75*
G02*
X105655000Y-84615000I200000J0D01*
G01*
X106055000Y-84615000D01*
G75*
G02*
X106255000Y-84815000I0J-200000D01*
G01*
X106255000Y-85365000D01*
G75*
G02*
X106055000Y-85565000I-200000J0D01*
G01*
X105655000Y-85565000D01*
G75*
G02*
X105455000Y-85365000I0J200000D01*
G01*
G37*
%TD*%
%TO.C,R16*%
G36*
G01*
X107105000Y-87270000D02*
X107105000Y-86720000D01*
G75*
G02*
X107305000Y-86520000I200000J0D01*
G01*
X107705000Y-86520000D01*
G75*
G02*
X107905000Y-86720000I0J-200000D01*
G01*
X107905000Y-87270000D01*
G75*
G02*
X107705000Y-87470000I-200000J0D01*
G01*
X107305000Y-87470000D01*
G75*
G02*
X107105000Y-87270000I0J200000D01*
G01*
G37*
G36*
G01*
X105455000Y-87270000D02*
X105455000Y-86720000D01*
G75*
G02*
X105655000Y-86520000I200000J0D01*
G01*
X106055000Y-86520000D01*
G75*
G02*
X106255000Y-86720000I0J-200000D01*
G01*
X106255000Y-87270000D01*
G75*
G02*
X106055000Y-87470000I-200000J0D01*
G01*
X105655000Y-87470000D01*
G75*
G02*
X105455000Y-87270000I0J200000D01*
G01*
G37*
%TD*%
%TO.C,R15*%
G36*
G01*
X108795000Y-96245000D02*
X108795000Y-96795000D01*
G75*
G02*
X108595000Y-96995000I-200000J0D01*
G01*
X108195000Y-96995000D01*
G75*
G02*
X107995000Y-96795000I0J200000D01*
G01*
X107995000Y-96245000D01*
G75*
G02*
X108195000Y-96045000I200000J0D01*
G01*
X108595000Y-96045000D01*
G75*
G02*
X108795000Y-96245000I0J-200000D01*
G01*
G37*
G36*
G01*
X110445000Y-96245000D02*
X110445000Y-96795000D01*
G75*
G02*
X110245000Y-96995000I-200000J0D01*
G01*
X109845000Y-96995000D01*
G75*
G02*
X109645000Y-96795000I0J200000D01*
G01*
X109645000Y-96245000D01*
G75*
G02*
X109845000Y-96045000I200000J0D01*
G01*
X110245000Y-96045000D01*
G75*
G02*
X110445000Y-96245000I0J-200000D01*
G01*
G37*
%TD*%
%TO.C,R14*%
G36*
G01*
X107105000Y-65045000D02*
X107105000Y-64495000D01*
G75*
G02*
X107305000Y-64295000I200000J0D01*
G01*
X107705000Y-64295000D01*
G75*
G02*
X107905000Y-64495000I0J-200000D01*
G01*
X107905000Y-65045000D01*
G75*
G02*
X107705000Y-65245000I-200000J0D01*
G01*
X107305000Y-65245000D01*
G75*
G02*
X107105000Y-65045000I0J200000D01*
G01*
G37*
G36*
G01*
X105455000Y-65045000D02*
X105455000Y-64495000D01*
G75*
G02*
X105655000Y-64295000I200000J0D01*
G01*
X106055000Y-64295000D01*
G75*
G02*
X106255000Y-64495000I0J-200000D01*
G01*
X106255000Y-65045000D01*
G75*
G02*
X106055000Y-65245000I-200000J0D01*
G01*
X105655000Y-65245000D01*
G75*
G02*
X105455000Y-65045000I0J200000D01*
G01*
G37*
%TD*%
%TO.C,R13*%
G36*
G01*
X107105000Y-66950000D02*
X107105000Y-66400000D01*
G75*
G02*
X107305000Y-66200000I200000J0D01*
G01*
X107705000Y-66200000D01*
G75*
G02*
X107905000Y-66400000I0J-200000D01*
G01*
X107905000Y-66950000D01*
G75*
G02*
X107705000Y-67150000I-200000J0D01*
G01*
X107305000Y-67150000D01*
G75*
G02*
X107105000Y-66950000I0J200000D01*
G01*
G37*
G36*
G01*
X105455000Y-66950000D02*
X105455000Y-66400000D01*
G75*
G02*
X105655000Y-66200000I200000J0D01*
G01*
X106055000Y-66200000D01*
G75*
G02*
X106255000Y-66400000I0J-200000D01*
G01*
X106255000Y-66950000D01*
G75*
G02*
X106055000Y-67150000I-200000J0D01*
G01*
X105655000Y-67150000D01*
G75*
G02*
X105455000Y-66950000I0J200000D01*
G01*
G37*
%TD*%
%TO.C,R12*%
G36*
G01*
X108795000Y-75925000D02*
X108795000Y-76475000D01*
G75*
G02*
X108595000Y-76675000I-200000J0D01*
G01*
X108195000Y-76675000D01*
G75*
G02*
X107995000Y-76475000I0J200000D01*
G01*
X107995000Y-75925000D01*
G75*
G02*
X108195000Y-75725000I200000J0D01*
G01*
X108595000Y-75725000D01*
G75*
G02*
X108795000Y-75925000I0J-200000D01*
G01*
G37*
G36*
G01*
X110445000Y-75925000D02*
X110445000Y-76475000D01*
G75*
G02*
X110245000Y-76675000I-200000J0D01*
G01*
X109845000Y-76675000D01*
G75*
G02*
X109645000Y-76475000I0J200000D01*
G01*
X109645000Y-75925000D01*
G75*
G02*
X109845000Y-75725000I200000J0D01*
G01*
X110245000Y-75725000D01*
G75*
G02*
X110445000Y-75925000I0J-200000D01*
G01*
G37*
%TD*%
%TO.C,R11*%
G36*
G01*
X155785000Y-49255000D02*
X155785000Y-49805000D01*
G75*
G02*
X155585000Y-50005000I-200000J0D01*
G01*
X155185000Y-50005000D01*
G75*
G02*
X154985000Y-49805000I0J200000D01*
G01*
X154985000Y-49255000D01*
G75*
G02*
X155185000Y-49055000I200000J0D01*
G01*
X155585000Y-49055000D01*
G75*
G02*
X155785000Y-49255000I0J-200000D01*
G01*
G37*
G36*
G01*
X157435000Y-49255000D02*
X157435000Y-49805000D01*
G75*
G02*
X157235000Y-50005000I-200000J0D01*
G01*
X156835000Y-50005000D01*
G75*
G02*
X156635000Y-49805000I0J200000D01*
G01*
X156635000Y-49255000D01*
G75*
G02*
X156835000Y-49055000I200000J0D01*
G01*
X157235000Y-49055000D01*
G75*
G02*
X157435000Y-49255000I0J-200000D01*
G01*
G37*
%TD*%
%TO.C,R10*%
G36*
G01*
X155785000Y-42905000D02*
X155785000Y-43455000D01*
G75*
G02*
X155585000Y-43655000I-200000J0D01*
G01*
X155185000Y-43655000D01*
G75*
G02*
X154985000Y-43455000I0J200000D01*
G01*
X154985000Y-42905000D01*
G75*
G02*
X155185000Y-42705000I200000J0D01*
G01*
X155585000Y-42705000D01*
G75*
G02*
X155785000Y-42905000I0J-200000D01*
G01*
G37*
G36*
G01*
X157435000Y-42905000D02*
X157435000Y-43455000D01*
G75*
G02*
X157235000Y-43655000I-200000J0D01*
G01*
X156835000Y-43655000D01*
G75*
G02*
X156635000Y-43455000I0J200000D01*
G01*
X156635000Y-42905000D01*
G75*
G02*
X156835000Y-42705000I200000J0D01*
G01*
X157235000Y-42705000D01*
G75*
G02*
X157435000Y-42905000I0J-200000D01*
G01*
G37*
%TD*%
%TO.C,R9*%
G36*
G01*
X155785000Y-36555000D02*
X155785000Y-37105000D01*
G75*
G02*
X155585000Y-37305000I-200000J0D01*
G01*
X155185000Y-37305000D01*
G75*
G02*
X154985000Y-37105000I0J200000D01*
G01*
X154985000Y-36555000D01*
G75*
G02*
X155185000Y-36355000I200000J0D01*
G01*
X155585000Y-36355000D01*
G75*
G02*
X155785000Y-36555000I0J-200000D01*
G01*
G37*
G36*
G01*
X157435000Y-36555000D02*
X157435000Y-37105000D01*
G75*
G02*
X157235000Y-37305000I-200000J0D01*
G01*
X156835000Y-37305000D01*
G75*
G02*
X156635000Y-37105000I0J200000D01*
G01*
X156635000Y-36555000D01*
G75*
G02*
X156835000Y-36355000I200000J0D01*
G01*
X157235000Y-36355000D01*
G75*
G02*
X157435000Y-36555000I0J-200000D01*
G01*
G37*
%TD*%
%TO.C,R8*%
G36*
G01*
X130385000Y-36555000D02*
X130385000Y-37105000D01*
G75*
G02*
X130185000Y-37305000I-200000J0D01*
G01*
X129785000Y-37305000D01*
G75*
G02*
X129585000Y-37105000I0J200000D01*
G01*
X129585000Y-36555000D01*
G75*
G02*
X129785000Y-36355000I200000J0D01*
G01*
X130185000Y-36355000D01*
G75*
G02*
X130385000Y-36555000I0J-200000D01*
G01*
G37*
G36*
G01*
X132035000Y-36555000D02*
X132035000Y-37105000D01*
G75*
G02*
X131835000Y-37305000I-200000J0D01*
G01*
X131435000Y-37305000D01*
G75*
G02*
X131235000Y-37105000I0J200000D01*
G01*
X131235000Y-36555000D01*
G75*
G02*
X131435000Y-36355000I200000J0D01*
G01*
X131835000Y-36355000D01*
G75*
G02*
X132035000Y-36555000I0J-200000D01*
G01*
G37*
%TD*%
%TO.C,R7*%
G36*
G01*
X130385000Y-42905000D02*
X130385000Y-43455000D01*
G75*
G02*
X130185000Y-43655000I-200000J0D01*
G01*
X129785000Y-43655000D01*
G75*
G02*
X129585000Y-43455000I0J200000D01*
G01*
X129585000Y-42905000D01*
G75*
G02*
X129785000Y-42705000I200000J0D01*
G01*
X130185000Y-42705000D01*
G75*
G02*
X130385000Y-42905000I0J-200000D01*
G01*
G37*
G36*
G01*
X132035000Y-42905000D02*
X132035000Y-43455000D01*
G75*
G02*
X131835000Y-43655000I-200000J0D01*
G01*
X131435000Y-43655000D01*
G75*
G02*
X131235000Y-43455000I0J200000D01*
G01*
X131235000Y-42905000D01*
G75*
G02*
X131435000Y-42705000I200000J0D01*
G01*
X131835000Y-42705000D01*
G75*
G02*
X132035000Y-42905000I0J-200000D01*
G01*
G37*
%TD*%
%TO.C,C16*%
G36*
G01*
X181920000Y-86745000D02*
X181920000Y-87245000D01*
G75*
G02*
X181695000Y-87470000I-225000J0D01*
G01*
X181245000Y-87470000D01*
G75*
G02*
X181020000Y-87245000I0J225000D01*
G01*
X181020000Y-86745000D01*
G75*
G02*
X181245000Y-86520000I225000J0D01*
G01*
X181695000Y-86520000D01*
G75*
G02*
X181920000Y-86745000I0J-225000D01*
G01*
G37*
G36*
G01*
X183470000Y-86745000D02*
X183470000Y-87245000D01*
G75*
G02*
X183245000Y-87470000I-225000J0D01*
G01*
X182795000Y-87470000D01*
G75*
G02*
X182570000Y-87245000I0J225000D01*
G01*
X182570000Y-86745000D01*
G75*
G02*
X182795000Y-86520000I225000J0D01*
G01*
X183245000Y-86520000D01*
G75*
G02*
X183470000Y-86745000I0J-225000D01*
G01*
G37*
%TD*%
%TO.C,C15*%
G36*
G01*
X167965000Y-83435000D02*
X167965000Y-82935000D01*
G75*
G02*
X168190000Y-82710000I225000J0D01*
G01*
X168640000Y-82710000D01*
G75*
G02*
X168865000Y-82935000I0J-225000D01*
G01*
X168865000Y-83435000D01*
G75*
G02*
X168640000Y-83660000I-225000J0D01*
G01*
X168190000Y-83660000D01*
G75*
G02*
X167965000Y-83435000I0J225000D01*
G01*
G37*
G36*
G01*
X166415000Y-83435000D02*
X166415000Y-82935000D01*
G75*
G02*
X166640000Y-82710000I225000J0D01*
G01*
X167090000Y-82710000D01*
G75*
G02*
X167315000Y-82935000I0J-225000D01*
G01*
X167315000Y-83435000D01*
G75*
G02*
X167090000Y-83660000I-225000J0D01*
G01*
X166640000Y-83660000D01*
G75*
G02*
X166415000Y-83435000I0J225000D01*
G01*
G37*
%TD*%
%TO.C,C14*%
G36*
G01*
X181920000Y-66425000D02*
X181920000Y-66925000D01*
G75*
G02*
X181695000Y-67150000I-225000J0D01*
G01*
X181245000Y-67150000D01*
G75*
G02*
X181020000Y-66925000I0J225000D01*
G01*
X181020000Y-66425000D01*
G75*
G02*
X181245000Y-66200000I225000J0D01*
G01*
X181695000Y-66200000D01*
G75*
G02*
X181920000Y-66425000I0J-225000D01*
G01*
G37*
G36*
G01*
X183470000Y-66425000D02*
X183470000Y-66925000D01*
G75*
G02*
X183245000Y-67150000I-225000J0D01*
G01*
X182795000Y-67150000D01*
G75*
G02*
X182570000Y-66925000I0J225000D01*
G01*
X182570000Y-66425000D01*
G75*
G02*
X182795000Y-66200000I225000J0D01*
G01*
X183245000Y-66200000D01*
G75*
G02*
X183470000Y-66425000I0J-225000D01*
G01*
G37*
%TD*%
%TO.C,C13*%
G36*
G01*
X167965000Y-63115000D02*
X167965000Y-62615000D01*
G75*
G02*
X168190000Y-62390000I225000J0D01*
G01*
X168640000Y-62390000D01*
G75*
G02*
X168865000Y-62615000I0J-225000D01*
G01*
X168865000Y-63115000D01*
G75*
G02*
X168640000Y-63340000I-225000J0D01*
G01*
X168190000Y-63340000D01*
G75*
G02*
X167965000Y-63115000I0J225000D01*
G01*
G37*
G36*
G01*
X166415000Y-63115000D02*
X166415000Y-62615000D01*
G75*
G02*
X166640000Y-62390000I225000J0D01*
G01*
X167090000Y-62390000D01*
G75*
G02*
X167315000Y-62615000I0J-225000D01*
G01*
X167315000Y-63115000D01*
G75*
G02*
X167090000Y-63340000I-225000J0D01*
G01*
X166640000Y-63340000D01*
G75*
G02*
X166415000Y-63115000I0J225000D01*
G01*
G37*
%TD*%
%TO.C,C12*%
G36*
G01*
X161600000Y-86745000D02*
X161600000Y-87245000D01*
G75*
G02*
X161375000Y-87470000I-225000J0D01*
G01*
X160925000Y-87470000D01*
G75*
G02*
X160700000Y-87245000I0J225000D01*
G01*
X160700000Y-86745000D01*
G75*
G02*
X160925000Y-86520000I225000J0D01*
G01*
X161375000Y-86520000D01*
G75*
G02*
X161600000Y-86745000I0J-225000D01*
G01*
G37*
G36*
G01*
X163150000Y-86745000D02*
X163150000Y-87245000D01*
G75*
G02*
X162925000Y-87470000I-225000J0D01*
G01*
X162475000Y-87470000D01*
G75*
G02*
X162250000Y-87245000I0J225000D01*
G01*
X162250000Y-86745000D01*
G75*
G02*
X162475000Y-86520000I225000J0D01*
G01*
X162925000Y-86520000D01*
G75*
G02*
X163150000Y-86745000I0J-225000D01*
G01*
G37*
%TD*%
%TO.C,C11*%
G36*
G01*
X147645000Y-83435000D02*
X147645000Y-82935000D01*
G75*
G02*
X147870000Y-82710000I225000J0D01*
G01*
X148320000Y-82710000D01*
G75*
G02*
X148545000Y-82935000I0J-225000D01*
G01*
X148545000Y-83435000D01*
G75*
G02*
X148320000Y-83660000I-225000J0D01*
G01*
X147870000Y-83660000D01*
G75*
G02*
X147645000Y-83435000I0J225000D01*
G01*
G37*
G36*
G01*
X146095000Y-83435000D02*
X146095000Y-82935000D01*
G75*
G02*
X146320000Y-82710000I225000J0D01*
G01*
X146770000Y-82710000D01*
G75*
G02*
X146995000Y-82935000I0J-225000D01*
G01*
X146995000Y-83435000D01*
G75*
G02*
X146770000Y-83660000I-225000J0D01*
G01*
X146320000Y-83660000D01*
G75*
G02*
X146095000Y-83435000I0J225000D01*
G01*
G37*
%TD*%
%TO.C,C10*%
G36*
G01*
X161600000Y-66425000D02*
X161600000Y-66925000D01*
G75*
G02*
X161375000Y-67150000I-225000J0D01*
G01*
X160925000Y-67150000D01*
G75*
G02*
X160700000Y-66925000I0J225000D01*
G01*
X160700000Y-66425000D01*
G75*
G02*
X160925000Y-66200000I225000J0D01*
G01*
X161375000Y-66200000D01*
G75*
G02*
X161600000Y-66425000I0J-225000D01*
G01*
G37*
G36*
G01*
X163150000Y-66425000D02*
X163150000Y-66925000D01*
G75*
G02*
X162925000Y-67150000I-225000J0D01*
G01*
X162475000Y-67150000D01*
G75*
G02*
X162250000Y-66925000I0J225000D01*
G01*
X162250000Y-66425000D01*
G75*
G02*
X162475000Y-66200000I225000J0D01*
G01*
X162925000Y-66200000D01*
G75*
G02*
X163150000Y-66425000I0J-225000D01*
G01*
G37*
%TD*%
%TO.C,C9*%
G36*
G01*
X147645000Y-63115000D02*
X147645000Y-62615000D01*
G75*
G02*
X147870000Y-62390000I225000J0D01*
G01*
X148320000Y-62390000D01*
G75*
G02*
X148545000Y-62615000I0J-225000D01*
G01*
X148545000Y-63115000D01*
G75*
G02*
X148320000Y-63340000I-225000J0D01*
G01*
X147870000Y-63340000D01*
G75*
G02*
X147645000Y-63115000I0J225000D01*
G01*
G37*
G36*
G01*
X146095000Y-63115000D02*
X146095000Y-62615000D01*
G75*
G02*
X146320000Y-62390000I225000J0D01*
G01*
X146770000Y-62390000D01*
G75*
G02*
X146995000Y-62615000I0J-225000D01*
G01*
X146995000Y-63115000D01*
G75*
G02*
X146770000Y-63340000I-225000J0D01*
G01*
X146320000Y-63340000D01*
G75*
G02*
X146095000Y-63115000I0J225000D01*
G01*
G37*
%TD*%
%TO.C,C8*%
G36*
G01*
X141280000Y-86745000D02*
X141280000Y-87245000D01*
G75*
G02*
X141055000Y-87470000I-225000J0D01*
G01*
X140605000Y-87470000D01*
G75*
G02*
X140380000Y-87245000I0J225000D01*
G01*
X140380000Y-86745000D01*
G75*
G02*
X140605000Y-86520000I225000J0D01*
G01*
X141055000Y-86520000D01*
G75*
G02*
X141280000Y-86745000I0J-225000D01*
G01*
G37*
G36*
G01*
X142830000Y-86745000D02*
X142830000Y-87245000D01*
G75*
G02*
X142605000Y-87470000I-225000J0D01*
G01*
X142155000Y-87470000D01*
G75*
G02*
X141930000Y-87245000I0J225000D01*
G01*
X141930000Y-86745000D01*
G75*
G02*
X142155000Y-86520000I225000J0D01*
G01*
X142605000Y-86520000D01*
G75*
G02*
X142830000Y-86745000I0J-225000D01*
G01*
G37*
%TD*%
%TO.C,C7*%
G36*
G01*
X127325000Y-83435000D02*
X127325000Y-82935000D01*
G75*
G02*
X127550000Y-82710000I225000J0D01*
G01*
X128000000Y-82710000D01*
G75*
G02*
X128225000Y-82935000I0J-225000D01*
G01*
X128225000Y-83435000D01*
G75*
G02*
X128000000Y-83660000I-225000J0D01*
G01*
X127550000Y-83660000D01*
G75*
G02*
X127325000Y-83435000I0J225000D01*
G01*
G37*
G36*
G01*
X125775000Y-83435000D02*
X125775000Y-82935000D01*
G75*
G02*
X126000000Y-82710000I225000J0D01*
G01*
X126450000Y-82710000D01*
G75*
G02*
X126675000Y-82935000I0J-225000D01*
G01*
X126675000Y-83435000D01*
G75*
G02*
X126450000Y-83660000I-225000J0D01*
G01*
X126000000Y-83660000D01*
G75*
G02*
X125775000Y-83435000I0J225000D01*
G01*
G37*
%TD*%
%TO.C,C6*%
G36*
G01*
X141280000Y-66425000D02*
X141280000Y-66925000D01*
G75*
G02*
X141055000Y-67150000I-225000J0D01*
G01*
X140605000Y-67150000D01*
G75*
G02*
X140380000Y-66925000I0J225000D01*
G01*
X140380000Y-66425000D01*
G75*
G02*
X140605000Y-66200000I225000J0D01*
G01*
X141055000Y-66200000D01*
G75*
G02*
X141280000Y-66425000I0J-225000D01*
G01*
G37*
G36*
G01*
X142830000Y-66425000D02*
X142830000Y-66925000D01*
G75*
G02*
X142605000Y-67150000I-225000J0D01*
G01*
X142155000Y-67150000D01*
G75*
G02*
X141930000Y-66925000I0J225000D01*
G01*
X141930000Y-66425000D01*
G75*
G02*
X142155000Y-66200000I225000J0D01*
G01*
X142605000Y-66200000D01*
G75*
G02*
X142830000Y-66425000I0J-225000D01*
G01*
G37*
%TD*%
%TO.C,C5*%
G36*
G01*
X127325000Y-63115000D02*
X127325000Y-62615000D01*
G75*
G02*
X127550000Y-62390000I225000J0D01*
G01*
X128000000Y-62390000D01*
G75*
G02*
X128225000Y-62615000I0J-225000D01*
G01*
X128225000Y-63115000D01*
G75*
G02*
X128000000Y-63340000I-225000J0D01*
G01*
X127550000Y-63340000D01*
G75*
G02*
X127325000Y-63115000I0J225000D01*
G01*
G37*
G36*
G01*
X125775000Y-63115000D02*
X125775000Y-62615000D01*
G75*
G02*
X126000000Y-62390000I225000J0D01*
G01*
X126450000Y-62390000D01*
G75*
G02*
X126675000Y-62615000I0J-225000D01*
G01*
X126675000Y-63115000D01*
G75*
G02*
X126450000Y-63340000I-225000J0D01*
G01*
X126000000Y-63340000D01*
G75*
G02*
X125775000Y-63115000I0J225000D01*
G01*
G37*
%TD*%
%TO.C,C4*%
G36*
G01*
X120960000Y-86745000D02*
X120960000Y-87245000D01*
G75*
G02*
X120735000Y-87470000I-225000J0D01*
G01*
X120285000Y-87470000D01*
G75*
G02*
X120060000Y-87245000I0J225000D01*
G01*
X120060000Y-86745000D01*
G75*
G02*
X120285000Y-86520000I225000J0D01*
G01*
X120735000Y-86520000D01*
G75*
G02*
X120960000Y-86745000I0J-225000D01*
G01*
G37*
G36*
G01*
X122510000Y-86745000D02*
X122510000Y-87245000D01*
G75*
G02*
X122285000Y-87470000I-225000J0D01*
G01*
X121835000Y-87470000D01*
G75*
G02*
X121610000Y-87245000I0J225000D01*
G01*
X121610000Y-86745000D01*
G75*
G02*
X121835000Y-86520000I225000J0D01*
G01*
X122285000Y-86520000D01*
G75*
G02*
X122510000Y-86745000I0J-225000D01*
G01*
G37*
%TD*%
%TO.C,C3*%
G36*
G01*
X107005000Y-83435000D02*
X107005000Y-82935000D01*
G75*
G02*
X107230000Y-82710000I225000J0D01*
G01*
X107680000Y-82710000D01*
G75*
G02*
X107905000Y-82935000I0J-225000D01*
G01*
X107905000Y-83435000D01*
G75*
G02*
X107680000Y-83660000I-225000J0D01*
G01*
X107230000Y-83660000D01*
G75*
G02*
X107005000Y-83435000I0J225000D01*
G01*
G37*
G36*
G01*
X105455000Y-83435000D02*
X105455000Y-82935000D01*
G75*
G02*
X105680000Y-82710000I225000J0D01*
G01*
X106130000Y-82710000D01*
G75*
G02*
X106355000Y-82935000I0J-225000D01*
G01*
X106355000Y-83435000D01*
G75*
G02*
X106130000Y-83660000I-225000J0D01*
G01*
X105680000Y-83660000D01*
G75*
G02*
X105455000Y-83435000I0J225000D01*
G01*
G37*
%TD*%
%TO.C,C2*%
G36*
G01*
X120960000Y-66425000D02*
X120960000Y-66925000D01*
G75*
G02*
X120735000Y-67150000I-225000J0D01*
G01*
X120285000Y-67150000D01*
G75*
G02*
X120060000Y-66925000I0J225000D01*
G01*
X120060000Y-66425000D01*
G75*
G02*
X120285000Y-66200000I225000J0D01*
G01*
X120735000Y-66200000D01*
G75*
G02*
X120960000Y-66425000I0J-225000D01*
G01*
G37*
G36*
G01*
X122510000Y-66425000D02*
X122510000Y-66925000D01*
G75*
G02*
X122285000Y-67150000I-225000J0D01*
G01*
X121835000Y-67150000D01*
G75*
G02*
X121610000Y-66925000I0J225000D01*
G01*
X121610000Y-66425000D01*
G75*
G02*
X121835000Y-66200000I225000J0D01*
G01*
X122285000Y-66200000D01*
G75*
G02*
X122510000Y-66425000I0J-225000D01*
G01*
G37*
%TD*%
%TO.C,C1*%
G36*
G01*
X107005000Y-63115000D02*
X107005000Y-62615000D01*
G75*
G02*
X107230000Y-62390000I225000J0D01*
G01*
X107680000Y-62390000D01*
G75*
G02*
X107905000Y-62615000I0J-225000D01*
G01*
X107905000Y-63115000D01*
G75*
G02*
X107680000Y-63340000I-225000J0D01*
G01*
X107230000Y-63340000D01*
G75*
G02*
X107005000Y-63115000I0J225000D01*
G01*
G37*
G36*
G01*
X105455000Y-63115000D02*
X105455000Y-62615000D01*
G75*
G02*
X105680000Y-62390000I225000J0D01*
G01*
X106130000Y-62390000D01*
G75*
G02*
X106355000Y-62615000I0J-225000D01*
G01*
X106355000Y-63115000D01*
G75*
G02*
X106130000Y-63340000I-225000J0D01*
G01*
X105680000Y-63340000D01*
G75*
G02*
X105455000Y-63115000I0J225000D01*
G01*
G37*
%TD*%
M02*
