%TF.GenerationSoftware,KiCad,Pcbnew,(5.1.9)-1*%
%TF.CreationDate,2021-05-31T11:25:02+02:00*%
%TF.ProjectId,RemoteCtrl,52656d6f-7465-4437-9472-6c2e6b696361,v0.1*%
%TF.SameCoordinates,Original*%
%TF.FileFunction,Soldermask,Bot*%
%TF.FilePolarity,Negative*%
%FSLAX46Y46*%
G04 Gerber Fmt 4.6, Leading zero omitted, Abs format (unit mm)*
G04 Created by KiCad (PCBNEW (5.1.9)-1) date 2021-05-31 11:25:02*
%MOMM*%
%LPD*%
G01*
G04 APERTURE LIST*
%ADD10R,0.650000X0.400000*%
%ADD11C,1.800000*%
%ADD12R,1.800000X1.800000*%
%ADD13C,1.700000*%
%ADD14C,4.000000*%
%ADD15C,2.200000*%
%ADD16C,0.800000*%
%ADD17C,6.400000*%
G04 APERTURE END LIST*
D10*
%TO.C,U2*%
X123505000Y-91960000D03*
X123505000Y-90660000D03*
X121605000Y-91310000D03*
X121605000Y-90660000D03*
X121605000Y-91960000D03*
%TD*%
%TO.C,U5*%
X161605000Y-72910000D03*
X161605000Y-71610000D03*
X159705000Y-72260000D03*
X159705000Y-71610000D03*
X159705000Y-72910000D03*
%TD*%
%TO.C,C6*%
G36*
G01*
X141280000Y-74680000D02*
X141280000Y-75180000D01*
G75*
G02*
X141055000Y-75405000I-225000J0D01*
G01*
X140605000Y-75405000D01*
G75*
G02*
X140380000Y-75180000I0J225000D01*
G01*
X140380000Y-74680000D01*
G75*
G02*
X140605000Y-74455000I225000J0D01*
G01*
X141055000Y-74455000D01*
G75*
G02*
X141280000Y-74680000I0J-225000D01*
G01*
G37*
G36*
G01*
X142830000Y-74680000D02*
X142830000Y-75180000D01*
G75*
G02*
X142605000Y-75405000I-225000J0D01*
G01*
X142155000Y-75405000D01*
G75*
G02*
X141930000Y-75180000I0J225000D01*
G01*
X141930000Y-74680000D01*
G75*
G02*
X142155000Y-74455000I225000J0D01*
G01*
X142605000Y-74455000D01*
G75*
G02*
X142830000Y-74680000I0J-225000D01*
G01*
G37*
%TD*%
D11*
%TO.C,D11*%
X158750000Y-64135000D03*
D12*
X156210000Y-64135000D03*
%TD*%
D11*
%TO.C,D10*%
X158750000Y-57150000D03*
D12*
X156210000Y-57150000D03*
%TD*%
D11*
%TO.C,D9*%
X158750000Y-50165000D03*
D12*
X156210000Y-50165000D03*
%TD*%
D11*
%TO.C,D8*%
X134620000Y-50165000D03*
D12*
X132080000Y-50165000D03*
%TD*%
D11*
%TO.C,D7*%
X134620000Y-57150000D03*
D12*
X132080000Y-57150000D03*
%TD*%
D11*
%TO.C,D2*%
X110490000Y-57150000D03*
D12*
X107950000Y-57150000D03*
%TD*%
D11*
%TO.C,D1*%
X110490000Y-50165000D03*
D12*
X107950000Y-50165000D03*
%TD*%
D13*
%TO.C,J1*%
X97790000Y-71755000D03*
X97790000Y-74295000D03*
X97790000Y-76835000D03*
X97790000Y-79375000D03*
X97790000Y-81915000D03*
X97790000Y-84455000D03*
X97790000Y-86995000D03*
X97790000Y-89535000D03*
X97790000Y-92075000D03*
X97790000Y-94615000D03*
X100330000Y-71755000D03*
X100330000Y-74295000D03*
X100330000Y-76835000D03*
X100330000Y-79375000D03*
X100330000Y-81915000D03*
X100330000Y-84455000D03*
X100330000Y-86995000D03*
X100330000Y-89535000D03*
X100330000Y-92075000D03*
G36*
G01*
X101180000Y-94015000D02*
X101180000Y-95215000D01*
G75*
G02*
X100930000Y-95465000I-250000J0D01*
G01*
X99730000Y-95465000D01*
G75*
G02*
X99480000Y-95215000I0J250000D01*
G01*
X99480000Y-94015000D01*
G75*
G02*
X99730000Y-93765000I250000J0D01*
G01*
X100930000Y-93765000D01*
G75*
G02*
X101180000Y-94015000I0J-250000D01*
G01*
G37*
%TD*%
%TO.C,R2*%
G36*
G01*
X103715000Y-56875000D02*
X103715000Y-57425000D01*
G75*
G02*
X103515000Y-57625000I-200000J0D01*
G01*
X103115000Y-57625000D01*
G75*
G02*
X102915000Y-57425000I0J200000D01*
G01*
X102915000Y-56875000D01*
G75*
G02*
X103115000Y-56675000I200000J0D01*
G01*
X103515000Y-56675000D01*
G75*
G02*
X103715000Y-56875000I0J-200000D01*
G01*
G37*
G36*
G01*
X105365000Y-56875000D02*
X105365000Y-57425000D01*
G75*
G02*
X105165000Y-57625000I-200000J0D01*
G01*
X104765000Y-57625000D01*
G75*
G02*
X104565000Y-57425000I0J200000D01*
G01*
X104565000Y-56875000D01*
G75*
G02*
X104765000Y-56675000I200000J0D01*
G01*
X105165000Y-56675000D01*
G75*
G02*
X105365000Y-56875000I0J-200000D01*
G01*
G37*
%TD*%
%TO.C,R1*%
G36*
G01*
X103715000Y-49890000D02*
X103715000Y-50440000D01*
G75*
G02*
X103515000Y-50640000I-200000J0D01*
G01*
X103115000Y-50640000D01*
G75*
G02*
X102915000Y-50440000I0J200000D01*
G01*
X102915000Y-49890000D01*
G75*
G02*
X103115000Y-49690000I200000J0D01*
G01*
X103515000Y-49690000D01*
G75*
G02*
X103715000Y-49890000I0J-200000D01*
G01*
G37*
G36*
G01*
X105365000Y-49890000D02*
X105365000Y-50440000D01*
G75*
G02*
X105165000Y-50640000I-200000J0D01*
G01*
X104765000Y-50640000D01*
G75*
G02*
X104565000Y-50440000I0J200000D01*
G01*
X104565000Y-49890000D01*
G75*
G02*
X104765000Y-49690000I200000J0D01*
G01*
X105165000Y-49690000D01*
G75*
G02*
X105365000Y-49890000I0J-200000D01*
G01*
G37*
%TD*%
D10*
%TO.C,U8*%
X180655000Y-91960000D03*
X180655000Y-90660000D03*
X178755000Y-91310000D03*
X178755000Y-90660000D03*
X178755000Y-91960000D03*
%TD*%
%TO.C,U7*%
X180655000Y-72910000D03*
X180655000Y-71610000D03*
X178755000Y-72260000D03*
X178755000Y-71610000D03*
X178755000Y-72910000D03*
%TD*%
%TO.C,U6*%
X161605000Y-91960000D03*
X161605000Y-90660000D03*
X159705000Y-91310000D03*
X159705000Y-90660000D03*
X159705000Y-91960000D03*
%TD*%
%TO.C,U4*%
X142555000Y-91960000D03*
X142555000Y-90660000D03*
X140655000Y-91310000D03*
X140655000Y-90660000D03*
X140655000Y-91960000D03*
%TD*%
%TO.C,U3*%
X142555000Y-72910000D03*
X142555000Y-71610000D03*
X140655000Y-72260000D03*
X140655000Y-71610000D03*
X140655000Y-72910000D03*
%TD*%
%TO.C,U1*%
X123505000Y-72910000D03*
X123505000Y-71610000D03*
X121605000Y-72260000D03*
X121605000Y-71610000D03*
X121605000Y-72910000D03*
%TD*%
D13*
%TO.C,SW8*%
X177800000Y-97790000D03*
X167640000Y-97790000D03*
D14*
X172720000Y-97790000D03*
D15*
X168910000Y-95250000D03*
X175260000Y-92710000D03*
%TD*%
D13*
%TO.C,SW7*%
X177800000Y-78740000D03*
X167640000Y-78740000D03*
D14*
X172720000Y-78740000D03*
D15*
X168910000Y-76200000D03*
X175260000Y-73660000D03*
%TD*%
D13*
%TO.C,SW6*%
X158750000Y-97790000D03*
X148590000Y-97790000D03*
D14*
X153670000Y-97790000D03*
D15*
X149860000Y-95250000D03*
X156210000Y-92710000D03*
%TD*%
D13*
%TO.C,SW5*%
X158750000Y-78740000D03*
X148590000Y-78740000D03*
D14*
X153670000Y-78740000D03*
D15*
X149860000Y-76200000D03*
X156210000Y-73660000D03*
%TD*%
D13*
%TO.C,SW4*%
X139700000Y-97790000D03*
X129540000Y-97790000D03*
D14*
X134620000Y-97790000D03*
D15*
X130810000Y-95250000D03*
X137160000Y-92710000D03*
%TD*%
D13*
%TO.C,SW3*%
X139700000Y-78740000D03*
X129540000Y-78740000D03*
D14*
X134620000Y-78740000D03*
D15*
X130810000Y-76200000D03*
X137160000Y-73660000D03*
%TD*%
D13*
%TO.C,SW2*%
X120650000Y-97790000D03*
X110490000Y-97790000D03*
D14*
X115570000Y-97790000D03*
D15*
X111760000Y-95250000D03*
X118110000Y-92710000D03*
%TD*%
D13*
%TO.C,SW1*%
X120650000Y-78740000D03*
X110490000Y-78740000D03*
D14*
X115570000Y-78740000D03*
D15*
X111760000Y-76200000D03*
X118110000Y-73660000D03*
%TD*%
%TO.C,R35*%
G36*
G01*
X165525000Y-91715000D02*
X165525000Y-91165000D01*
G75*
G02*
X165725000Y-90965000I200000J0D01*
G01*
X166125000Y-90965000D01*
G75*
G02*
X166325000Y-91165000I0J-200000D01*
G01*
X166325000Y-91715000D01*
G75*
G02*
X166125000Y-91915000I-200000J0D01*
G01*
X165725000Y-91915000D01*
G75*
G02*
X165525000Y-91715000I0J200000D01*
G01*
G37*
G36*
G01*
X163875000Y-91715000D02*
X163875000Y-91165000D01*
G75*
G02*
X164075000Y-90965000I200000J0D01*
G01*
X164475000Y-90965000D01*
G75*
G02*
X164675000Y-91165000I0J-200000D01*
G01*
X164675000Y-91715000D01*
G75*
G02*
X164475000Y-91915000I-200000J0D01*
G01*
X164075000Y-91915000D01*
G75*
G02*
X163875000Y-91715000I0J200000D01*
G01*
G37*
%TD*%
%TO.C,R34*%
G36*
G01*
X165525000Y-93620000D02*
X165525000Y-93070000D01*
G75*
G02*
X165725000Y-92870000I200000J0D01*
G01*
X166125000Y-92870000D01*
G75*
G02*
X166325000Y-93070000I0J-200000D01*
G01*
X166325000Y-93620000D01*
G75*
G02*
X166125000Y-93820000I-200000J0D01*
G01*
X165725000Y-93820000D01*
G75*
G02*
X165525000Y-93620000I0J200000D01*
G01*
G37*
G36*
G01*
X163875000Y-93620000D02*
X163875000Y-93070000D01*
G75*
G02*
X164075000Y-92870000I200000J0D01*
G01*
X164475000Y-92870000D01*
G75*
G02*
X164675000Y-93070000I0J-200000D01*
G01*
X164675000Y-93620000D01*
G75*
G02*
X164475000Y-93820000I-200000J0D01*
G01*
X164075000Y-93820000D01*
G75*
G02*
X163875000Y-93620000I0J200000D01*
G01*
G37*
%TD*%
%TO.C,R33*%
G36*
G01*
X167215000Y-102595000D02*
X167215000Y-103145000D01*
G75*
G02*
X167015000Y-103345000I-200000J0D01*
G01*
X166615000Y-103345000D01*
G75*
G02*
X166415000Y-103145000I0J200000D01*
G01*
X166415000Y-102595000D01*
G75*
G02*
X166615000Y-102395000I200000J0D01*
G01*
X167015000Y-102395000D01*
G75*
G02*
X167215000Y-102595000I0J-200000D01*
G01*
G37*
G36*
G01*
X168865000Y-102595000D02*
X168865000Y-103145000D01*
G75*
G02*
X168665000Y-103345000I-200000J0D01*
G01*
X168265000Y-103345000D01*
G75*
G02*
X168065000Y-103145000I0J200000D01*
G01*
X168065000Y-102595000D01*
G75*
G02*
X168265000Y-102395000I200000J0D01*
G01*
X168665000Y-102395000D01*
G75*
G02*
X168865000Y-102595000I0J-200000D01*
G01*
G37*
%TD*%
%TO.C,R32*%
G36*
G01*
X165525000Y-72665000D02*
X165525000Y-72115000D01*
G75*
G02*
X165725000Y-71915000I200000J0D01*
G01*
X166125000Y-71915000D01*
G75*
G02*
X166325000Y-72115000I0J-200000D01*
G01*
X166325000Y-72665000D01*
G75*
G02*
X166125000Y-72865000I-200000J0D01*
G01*
X165725000Y-72865000D01*
G75*
G02*
X165525000Y-72665000I0J200000D01*
G01*
G37*
G36*
G01*
X163875000Y-72665000D02*
X163875000Y-72115000D01*
G75*
G02*
X164075000Y-71915000I200000J0D01*
G01*
X164475000Y-71915000D01*
G75*
G02*
X164675000Y-72115000I0J-200000D01*
G01*
X164675000Y-72665000D01*
G75*
G02*
X164475000Y-72865000I-200000J0D01*
G01*
X164075000Y-72865000D01*
G75*
G02*
X163875000Y-72665000I0J200000D01*
G01*
G37*
%TD*%
%TO.C,R31*%
G36*
G01*
X165525000Y-74570000D02*
X165525000Y-74020000D01*
G75*
G02*
X165725000Y-73820000I200000J0D01*
G01*
X166125000Y-73820000D01*
G75*
G02*
X166325000Y-74020000I0J-200000D01*
G01*
X166325000Y-74570000D01*
G75*
G02*
X166125000Y-74770000I-200000J0D01*
G01*
X165725000Y-74770000D01*
G75*
G02*
X165525000Y-74570000I0J200000D01*
G01*
G37*
G36*
G01*
X163875000Y-74570000D02*
X163875000Y-74020000D01*
G75*
G02*
X164075000Y-73820000I200000J0D01*
G01*
X164475000Y-73820000D01*
G75*
G02*
X164675000Y-74020000I0J-200000D01*
G01*
X164675000Y-74570000D01*
G75*
G02*
X164475000Y-74770000I-200000J0D01*
G01*
X164075000Y-74770000D01*
G75*
G02*
X163875000Y-74570000I0J200000D01*
G01*
G37*
%TD*%
%TO.C,R30*%
G36*
G01*
X167215000Y-83545000D02*
X167215000Y-84095000D01*
G75*
G02*
X167015000Y-84295000I-200000J0D01*
G01*
X166615000Y-84295000D01*
G75*
G02*
X166415000Y-84095000I0J200000D01*
G01*
X166415000Y-83545000D01*
G75*
G02*
X166615000Y-83345000I200000J0D01*
G01*
X167015000Y-83345000D01*
G75*
G02*
X167215000Y-83545000I0J-200000D01*
G01*
G37*
G36*
G01*
X168865000Y-83545000D02*
X168865000Y-84095000D01*
G75*
G02*
X168665000Y-84295000I-200000J0D01*
G01*
X168265000Y-84295000D01*
G75*
G02*
X168065000Y-84095000I0J200000D01*
G01*
X168065000Y-83545000D01*
G75*
G02*
X168265000Y-83345000I200000J0D01*
G01*
X168665000Y-83345000D01*
G75*
G02*
X168865000Y-83545000I0J-200000D01*
G01*
G37*
%TD*%
%TO.C,R29*%
G36*
G01*
X146475000Y-91715000D02*
X146475000Y-91165000D01*
G75*
G02*
X146675000Y-90965000I200000J0D01*
G01*
X147075000Y-90965000D01*
G75*
G02*
X147275000Y-91165000I0J-200000D01*
G01*
X147275000Y-91715000D01*
G75*
G02*
X147075000Y-91915000I-200000J0D01*
G01*
X146675000Y-91915000D01*
G75*
G02*
X146475000Y-91715000I0J200000D01*
G01*
G37*
G36*
G01*
X144825000Y-91715000D02*
X144825000Y-91165000D01*
G75*
G02*
X145025000Y-90965000I200000J0D01*
G01*
X145425000Y-90965000D01*
G75*
G02*
X145625000Y-91165000I0J-200000D01*
G01*
X145625000Y-91715000D01*
G75*
G02*
X145425000Y-91915000I-200000J0D01*
G01*
X145025000Y-91915000D01*
G75*
G02*
X144825000Y-91715000I0J200000D01*
G01*
G37*
%TD*%
%TO.C,R28*%
G36*
G01*
X146475000Y-93620000D02*
X146475000Y-93070000D01*
G75*
G02*
X146675000Y-92870000I200000J0D01*
G01*
X147075000Y-92870000D01*
G75*
G02*
X147275000Y-93070000I0J-200000D01*
G01*
X147275000Y-93620000D01*
G75*
G02*
X147075000Y-93820000I-200000J0D01*
G01*
X146675000Y-93820000D01*
G75*
G02*
X146475000Y-93620000I0J200000D01*
G01*
G37*
G36*
G01*
X144825000Y-93620000D02*
X144825000Y-93070000D01*
G75*
G02*
X145025000Y-92870000I200000J0D01*
G01*
X145425000Y-92870000D01*
G75*
G02*
X145625000Y-93070000I0J-200000D01*
G01*
X145625000Y-93620000D01*
G75*
G02*
X145425000Y-93820000I-200000J0D01*
G01*
X145025000Y-93820000D01*
G75*
G02*
X144825000Y-93620000I0J200000D01*
G01*
G37*
%TD*%
%TO.C,R27*%
G36*
G01*
X148165000Y-102595000D02*
X148165000Y-103145000D01*
G75*
G02*
X147965000Y-103345000I-200000J0D01*
G01*
X147565000Y-103345000D01*
G75*
G02*
X147365000Y-103145000I0J200000D01*
G01*
X147365000Y-102595000D01*
G75*
G02*
X147565000Y-102395000I200000J0D01*
G01*
X147965000Y-102395000D01*
G75*
G02*
X148165000Y-102595000I0J-200000D01*
G01*
G37*
G36*
G01*
X149815000Y-102595000D02*
X149815000Y-103145000D01*
G75*
G02*
X149615000Y-103345000I-200000J0D01*
G01*
X149215000Y-103345000D01*
G75*
G02*
X149015000Y-103145000I0J200000D01*
G01*
X149015000Y-102595000D01*
G75*
G02*
X149215000Y-102395000I200000J0D01*
G01*
X149615000Y-102395000D01*
G75*
G02*
X149815000Y-102595000I0J-200000D01*
G01*
G37*
%TD*%
%TO.C,R26*%
G36*
G01*
X146475000Y-72665000D02*
X146475000Y-72115000D01*
G75*
G02*
X146675000Y-71915000I200000J0D01*
G01*
X147075000Y-71915000D01*
G75*
G02*
X147275000Y-72115000I0J-200000D01*
G01*
X147275000Y-72665000D01*
G75*
G02*
X147075000Y-72865000I-200000J0D01*
G01*
X146675000Y-72865000D01*
G75*
G02*
X146475000Y-72665000I0J200000D01*
G01*
G37*
G36*
G01*
X144825000Y-72665000D02*
X144825000Y-72115000D01*
G75*
G02*
X145025000Y-71915000I200000J0D01*
G01*
X145425000Y-71915000D01*
G75*
G02*
X145625000Y-72115000I0J-200000D01*
G01*
X145625000Y-72665000D01*
G75*
G02*
X145425000Y-72865000I-200000J0D01*
G01*
X145025000Y-72865000D01*
G75*
G02*
X144825000Y-72665000I0J200000D01*
G01*
G37*
%TD*%
%TO.C,R25*%
G36*
G01*
X146475000Y-74570000D02*
X146475000Y-74020000D01*
G75*
G02*
X146675000Y-73820000I200000J0D01*
G01*
X147075000Y-73820000D01*
G75*
G02*
X147275000Y-74020000I0J-200000D01*
G01*
X147275000Y-74570000D01*
G75*
G02*
X147075000Y-74770000I-200000J0D01*
G01*
X146675000Y-74770000D01*
G75*
G02*
X146475000Y-74570000I0J200000D01*
G01*
G37*
G36*
G01*
X144825000Y-74570000D02*
X144825000Y-74020000D01*
G75*
G02*
X145025000Y-73820000I200000J0D01*
G01*
X145425000Y-73820000D01*
G75*
G02*
X145625000Y-74020000I0J-200000D01*
G01*
X145625000Y-74570000D01*
G75*
G02*
X145425000Y-74770000I-200000J0D01*
G01*
X145025000Y-74770000D01*
G75*
G02*
X144825000Y-74570000I0J200000D01*
G01*
G37*
%TD*%
%TO.C,R24*%
G36*
G01*
X148165000Y-83545000D02*
X148165000Y-84095000D01*
G75*
G02*
X147965000Y-84295000I-200000J0D01*
G01*
X147565000Y-84295000D01*
G75*
G02*
X147365000Y-84095000I0J200000D01*
G01*
X147365000Y-83545000D01*
G75*
G02*
X147565000Y-83345000I200000J0D01*
G01*
X147965000Y-83345000D01*
G75*
G02*
X148165000Y-83545000I0J-200000D01*
G01*
G37*
G36*
G01*
X149815000Y-83545000D02*
X149815000Y-84095000D01*
G75*
G02*
X149615000Y-84295000I-200000J0D01*
G01*
X149215000Y-84295000D01*
G75*
G02*
X149015000Y-84095000I0J200000D01*
G01*
X149015000Y-83545000D01*
G75*
G02*
X149215000Y-83345000I200000J0D01*
G01*
X149615000Y-83345000D01*
G75*
G02*
X149815000Y-83545000I0J-200000D01*
G01*
G37*
%TD*%
%TO.C,R23*%
G36*
G01*
X127425000Y-91715000D02*
X127425000Y-91165000D01*
G75*
G02*
X127625000Y-90965000I200000J0D01*
G01*
X128025000Y-90965000D01*
G75*
G02*
X128225000Y-91165000I0J-200000D01*
G01*
X128225000Y-91715000D01*
G75*
G02*
X128025000Y-91915000I-200000J0D01*
G01*
X127625000Y-91915000D01*
G75*
G02*
X127425000Y-91715000I0J200000D01*
G01*
G37*
G36*
G01*
X125775000Y-91715000D02*
X125775000Y-91165000D01*
G75*
G02*
X125975000Y-90965000I200000J0D01*
G01*
X126375000Y-90965000D01*
G75*
G02*
X126575000Y-91165000I0J-200000D01*
G01*
X126575000Y-91715000D01*
G75*
G02*
X126375000Y-91915000I-200000J0D01*
G01*
X125975000Y-91915000D01*
G75*
G02*
X125775000Y-91715000I0J200000D01*
G01*
G37*
%TD*%
%TO.C,R22*%
G36*
G01*
X127425000Y-93620000D02*
X127425000Y-93070000D01*
G75*
G02*
X127625000Y-92870000I200000J0D01*
G01*
X128025000Y-92870000D01*
G75*
G02*
X128225000Y-93070000I0J-200000D01*
G01*
X128225000Y-93620000D01*
G75*
G02*
X128025000Y-93820000I-200000J0D01*
G01*
X127625000Y-93820000D01*
G75*
G02*
X127425000Y-93620000I0J200000D01*
G01*
G37*
G36*
G01*
X125775000Y-93620000D02*
X125775000Y-93070000D01*
G75*
G02*
X125975000Y-92870000I200000J0D01*
G01*
X126375000Y-92870000D01*
G75*
G02*
X126575000Y-93070000I0J-200000D01*
G01*
X126575000Y-93620000D01*
G75*
G02*
X126375000Y-93820000I-200000J0D01*
G01*
X125975000Y-93820000D01*
G75*
G02*
X125775000Y-93620000I0J200000D01*
G01*
G37*
%TD*%
%TO.C,R21*%
G36*
G01*
X129115000Y-102595000D02*
X129115000Y-103145000D01*
G75*
G02*
X128915000Y-103345000I-200000J0D01*
G01*
X128515000Y-103345000D01*
G75*
G02*
X128315000Y-103145000I0J200000D01*
G01*
X128315000Y-102595000D01*
G75*
G02*
X128515000Y-102395000I200000J0D01*
G01*
X128915000Y-102395000D01*
G75*
G02*
X129115000Y-102595000I0J-200000D01*
G01*
G37*
G36*
G01*
X130765000Y-102595000D02*
X130765000Y-103145000D01*
G75*
G02*
X130565000Y-103345000I-200000J0D01*
G01*
X130165000Y-103345000D01*
G75*
G02*
X129965000Y-103145000I0J200000D01*
G01*
X129965000Y-102595000D01*
G75*
G02*
X130165000Y-102395000I200000J0D01*
G01*
X130565000Y-102395000D01*
G75*
G02*
X130765000Y-102595000I0J-200000D01*
G01*
G37*
%TD*%
%TO.C,R20*%
G36*
G01*
X127425000Y-72665000D02*
X127425000Y-72115000D01*
G75*
G02*
X127625000Y-71915000I200000J0D01*
G01*
X128025000Y-71915000D01*
G75*
G02*
X128225000Y-72115000I0J-200000D01*
G01*
X128225000Y-72665000D01*
G75*
G02*
X128025000Y-72865000I-200000J0D01*
G01*
X127625000Y-72865000D01*
G75*
G02*
X127425000Y-72665000I0J200000D01*
G01*
G37*
G36*
G01*
X125775000Y-72665000D02*
X125775000Y-72115000D01*
G75*
G02*
X125975000Y-71915000I200000J0D01*
G01*
X126375000Y-71915000D01*
G75*
G02*
X126575000Y-72115000I0J-200000D01*
G01*
X126575000Y-72665000D01*
G75*
G02*
X126375000Y-72865000I-200000J0D01*
G01*
X125975000Y-72865000D01*
G75*
G02*
X125775000Y-72665000I0J200000D01*
G01*
G37*
%TD*%
%TO.C,R19*%
G36*
G01*
X127425000Y-74570000D02*
X127425000Y-74020000D01*
G75*
G02*
X127625000Y-73820000I200000J0D01*
G01*
X128025000Y-73820000D01*
G75*
G02*
X128225000Y-74020000I0J-200000D01*
G01*
X128225000Y-74570000D01*
G75*
G02*
X128025000Y-74770000I-200000J0D01*
G01*
X127625000Y-74770000D01*
G75*
G02*
X127425000Y-74570000I0J200000D01*
G01*
G37*
G36*
G01*
X125775000Y-74570000D02*
X125775000Y-74020000D01*
G75*
G02*
X125975000Y-73820000I200000J0D01*
G01*
X126375000Y-73820000D01*
G75*
G02*
X126575000Y-74020000I0J-200000D01*
G01*
X126575000Y-74570000D01*
G75*
G02*
X126375000Y-74770000I-200000J0D01*
G01*
X125975000Y-74770000D01*
G75*
G02*
X125775000Y-74570000I0J200000D01*
G01*
G37*
%TD*%
%TO.C,R18*%
G36*
G01*
X129115000Y-83545000D02*
X129115000Y-84095000D01*
G75*
G02*
X128915000Y-84295000I-200000J0D01*
G01*
X128515000Y-84295000D01*
G75*
G02*
X128315000Y-84095000I0J200000D01*
G01*
X128315000Y-83545000D01*
G75*
G02*
X128515000Y-83345000I200000J0D01*
G01*
X128915000Y-83345000D01*
G75*
G02*
X129115000Y-83545000I0J-200000D01*
G01*
G37*
G36*
G01*
X130765000Y-83545000D02*
X130765000Y-84095000D01*
G75*
G02*
X130565000Y-84295000I-200000J0D01*
G01*
X130165000Y-84295000D01*
G75*
G02*
X129965000Y-84095000I0J200000D01*
G01*
X129965000Y-83545000D01*
G75*
G02*
X130165000Y-83345000I200000J0D01*
G01*
X130565000Y-83345000D01*
G75*
G02*
X130765000Y-83545000I0J-200000D01*
G01*
G37*
%TD*%
%TO.C,R17*%
G36*
G01*
X108375000Y-91715000D02*
X108375000Y-91165000D01*
G75*
G02*
X108575000Y-90965000I200000J0D01*
G01*
X108975000Y-90965000D01*
G75*
G02*
X109175000Y-91165000I0J-200000D01*
G01*
X109175000Y-91715000D01*
G75*
G02*
X108975000Y-91915000I-200000J0D01*
G01*
X108575000Y-91915000D01*
G75*
G02*
X108375000Y-91715000I0J200000D01*
G01*
G37*
G36*
G01*
X106725000Y-91715000D02*
X106725000Y-91165000D01*
G75*
G02*
X106925000Y-90965000I200000J0D01*
G01*
X107325000Y-90965000D01*
G75*
G02*
X107525000Y-91165000I0J-200000D01*
G01*
X107525000Y-91715000D01*
G75*
G02*
X107325000Y-91915000I-200000J0D01*
G01*
X106925000Y-91915000D01*
G75*
G02*
X106725000Y-91715000I0J200000D01*
G01*
G37*
%TD*%
%TO.C,R16*%
G36*
G01*
X108375000Y-93620000D02*
X108375000Y-93070000D01*
G75*
G02*
X108575000Y-92870000I200000J0D01*
G01*
X108975000Y-92870000D01*
G75*
G02*
X109175000Y-93070000I0J-200000D01*
G01*
X109175000Y-93620000D01*
G75*
G02*
X108975000Y-93820000I-200000J0D01*
G01*
X108575000Y-93820000D01*
G75*
G02*
X108375000Y-93620000I0J200000D01*
G01*
G37*
G36*
G01*
X106725000Y-93620000D02*
X106725000Y-93070000D01*
G75*
G02*
X106925000Y-92870000I200000J0D01*
G01*
X107325000Y-92870000D01*
G75*
G02*
X107525000Y-93070000I0J-200000D01*
G01*
X107525000Y-93620000D01*
G75*
G02*
X107325000Y-93820000I-200000J0D01*
G01*
X106925000Y-93820000D01*
G75*
G02*
X106725000Y-93620000I0J200000D01*
G01*
G37*
%TD*%
%TO.C,R15*%
G36*
G01*
X110065000Y-102595000D02*
X110065000Y-103145000D01*
G75*
G02*
X109865000Y-103345000I-200000J0D01*
G01*
X109465000Y-103345000D01*
G75*
G02*
X109265000Y-103145000I0J200000D01*
G01*
X109265000Y-102595000D01*
G75*
G02*
X109465000Y-102395000I200000J0D01*
G01*
X109865000Y-102395000D01*
G75*
G02*
X110065000Y-102595000I0J-200000D01*
G01*
G37*
G36*
G01*
X111715000Y-102595000D02*
X111715000Y-103145000D01*
G75*
G02*
X111515000Y-103345000I-200000J0D01*
G01*
X111115000Y-103345000D01*
G75*
G02*
X110915000Y-103145000I0J200000D01*
G01*
X110915000Y-102595000D01*
G75*
G02*
X111115000Y-102395000I200000J0D01*
G01*
X111515000Y-102395000D01*
G75*
G02*
X111715000Y-102595000I0J-200000D01*
G01*
G37*
%TD*%
%TO.C,R14*%
G36*
G01*
X108375000Y-72665000D02*
X108375000Y-72115000D01*
G75*
G02*
X108575000Y-71915000I200000J0D01*
G01*
X108975000Y-71915000D01*
G75*
G02*
X109175000Y-72115000I0J-200000D01*
G01*
X109175000Y-72665000D01*
G75*
G02*
X108975000Y-72865000I-200000J0D01*
G01*
X108575000Y-72865000D01*
G75*
G02*
X108375000Y-72665000I0J200000D01*
G01*
G37*
G36*
G01*
X106725000Y-72665000D02*
X106725000Y-72115000D01*
G75*
G02*
X106925000Y-71915000I200000J0D01*
G01*
X107325000Y-71915000D01*
G75*
G02*
X107525000Y-72115000I0J-200000D01*
G01*
X107525000Y-72665000D01*
G75*
G02*
X107325000Y-72865000I-200000J0D01*
G01*
X106925000Y-72865000D01*
G75*
G02*
X106725000Y-72665000I0J200000D01*
G01*
G37*
%TD*%
%TO.C,R13*%
G36*
G01*
X108375000Y-74570000D02*
X108375000Y-74020000D01*
G75*
G02*
X108575000Y-73820000I200000J0D01*
G01*
X108975000Y-73820000D01*
G75*
G02*
X109175000Y-74020000I0J-200000D01*
G01*
X109175000Y-74570000D01*
G75*
G02*
X108975000Y-74770000I-200000J0D01*
G01*
X108575000Y-74770000D01*
G75*
G02*
X108375000Y-74570000I0J200000D01*
G01*
G37*
G36*
G01*
X106725000Y-74570000D02*
X106725000Y-74020000D01*
G75*
G02*
X106925000Y-73820000I200000J0D01*
G01*
X107325000Y-73820000D01*
G75*
G02*
X107525000Y-74020000I0J-200000D01*
G01*
X107525000Y-74570000D01*
G75*
G02*
X107325000Y-74770000I-200000J0D01*
G01*
X106925000Y-74770000D01*
G75*
G02*
X106725000Y-74570000I0J200000D01*
G01*
G37*
%TD*%
%TO.C,R12*%
G36*
G01*
X110065000Y-83545000D02*
X110065000Y-84095000D01*
G75*
G02*
X109865000Y-84295000I-200000J0D01*
G01*
X109465000Y-84295000D01*
G75*
G02*
X109265000Y-84095000I0J200000D01*
G01*
X109265000Y-83545000D01*
G75*
G02*
X109465000Y-83345000I200000J0D01*
G01*
X109865000Y-83345000D01*
G75*
G02*
X110065000Y-83545000I0J-200000D01*
G01*
G37*
G36*
G01*
X111715000Y-83545000D02*
X111715000Y-84095000D01*
G75*
G02*
X111515000Y-84295000I-200000J0D01*
G01*
X111115000Y-84295000D01*
G75*
G02*
X110915000Y-84095000I0J200000D01*
G01*
X110915000Y-83545000D01*
G75*
G02*
X111115000Y-83345000I200000J0D01*
G01*
X111515000Y-83345000D01*
G75*
G02*
X111715000Y-83545000I0J-200000D01*
G01*
G37*
%TD*%
%TO.C,R11*%
G36*
G01*
X151975000Y-63860000D02*
X151975000Y-64410000D01*
G75*
G02*
X151775000Y-64610000I-200000J0D01*
G01*
X151375000Y-64610000D01*
G75*
G02*
X151175000Y-64410000I0J200000D01*
G01*
X151175000Y-63860000D01*
G75*
G02*
X151375000Y-63660000I200000J0D01*
G01*
X151775000Y-63660000D01*
G75*
G02*
X151975000Y-63860000I0J-200000D01*
G01*
G37*
G36*
G01*
X153625000Y-63860000D02*
X153625000Y-64410000D01*
G75*
G02*
X153425000Y-64610000I-200000J0D01*
G01*
X153025000Y-64610000D01*
G75*
G02*
X152825000Y-64410000I0J200000D01*
G01*
X152825000Y-63860000D01*
G75*
G02*
X153025000Y-63660000I200000J0D01*
G01*
X153425000Y-63660000D01*
G75*
G02*
X153625000Y-63860000I0J-200000D01*
G01*
G37*
%TD*%
%TO.C,R10*%
G36*
G01*
X151975000Y-56875000D02*
X151975000Y-57425000D01*
G75*
G02*
X151775000Y-57625000I-200000J0D01*
G01*
X151375000Y-57625000D01*
G75*
G02*
X151175000Y-57425000I0J200000D01*
G01*
X151175000Y-56875000D01*
G75*
G02*
X151375000Y-56675000I200000J0D01*
G01*
X151775000Y-56675000D01*
G75*
G02*
X151975000Y-56875000I0J-200000D01*
G01*
G37*
G36*
G01*
X153625000Y-56875000D02*
X153625000Y-57425000D01*
G75*
G02*
X153425000Y-57625000I-200000J0D01*
G01*
X153025000Y-57625000D01*
G75*
G02*
X152825000Y-57425000I0J200000D01*
G01*
X152825000Y-56875000D01*
G75*
G02*
X153025000Y-56675000I200000J0D01*
G01*
X153425000Y-56675000D01*
G75*
G02*
X153625000Y-56875000I0J-200000D01*
G01*
G37*
%TD*%
%TO.C,R9*%
G36*
G01*
X151975000Y-49890000D02*
X151975000Y-50440000D01*
G75*
G02*
X151775000Y-50640000I-200000J0D01*
G01*
X151375000Y-50640000D01*
G75*
G02*
X151175000Y-50440000I0J200000D01*
G01*
X151175000Y-49890000D01*
G75*
G02*
X151375000Y-49690000I200000J0D01*
G01*
X151775000Y-49690000D01*
G75*
G02*
X151975000Y-49890000I0J-200000D01*
G01*
G37*
G36*
G01*
X153625000Y-49890000D02*
X153625000Y-50440000D01*
G75*
G02*
X153425000Y-50640000I-200000J0D01*
G01*
X153025000Y-50640000D01*
G75*
G02*
X152825000Y-50440000I0J200000D01*
G01*
X152825000Y-49890000D01*
G75*
G02*
X153025000Y-49690000I200000J0D01*
G01*
X153425000Y-49690000D01*
G75*
G02*
X153625000Y-49890000I0J-200000D01*
G01*
G37*
%TD*%
%TO.C,R8*%
G36*
G01*
X127845000Y-49890000D02*
X127845000Y-50440000D01*
G75*
G02*
X127645000Y-50640000I-200000J0D01*
G01*
X127245000Y-50640000D01*
G75*
G02*
X127045000Y-50440000I0J200000D01*
G01*
X127045000Y-49890000D01*
G75*
G02*
X127245000Y-49690000I200000J0D01*
G01*
X127645000Y-49690000D01*
G75*
G02*
X127845000Y-49890000I0J-200000D01*
G01*
G37*
G36*
G01*
X129495000Y-49890000D02*
X129495000Y-50440000D01*
G75*
G02*
X129295000Y-50640000I-200000J0D01*
G01*
X128895000Y-50640000D01*
G75*
G02*
X128695000Y-50440000I0J200000D01*
G01*
X128695000Y-49890000D01*
G75*
G02*
X128895000Y-49690000I200000J0D01*
G01*
X129295000Y-49690000D01*
G75*
G02*
X129495000Y-49890000I0J-200000D01*
G01*
G37*
%TD*%
%TO.C,R7*%
G36*
G01*
X127845000Y-56875000D02*
X127845000Y-57425000D01*
G75*
G02*
X127645000Y-57625000I-200000J0D01*
G01*
X127245000Y-57625000D01*
G75*
G02*
X127045000Y-57425000I0J200000D01*
G01*
X127045000Y-56875000D01*
G75*
G02*
X127245000Y-56675000I200000J0D01*
G01*
X127645000Y-56675000D01*
G75*
G02*
X127845000Y-56875000I0J-200000D01*
G01*
G37*
G36*
G01*
X129495000Y-56875000D02*
X129495000Y-57425000D01*
G75*
G02*
X129295000Y-57625000I-200000J0D01*
G01*
X128895000Y-57625000D01*
G75*
G02*
X128695000Y-57425000I0J200000D01*
G01*
X128695000Y-56875000D01*
G75*
G02*
X128895000Y-56675000I200000J0D01*
G01*
X129295000Y-56675000D01*
G75*
G02*
X129495000Y-56875000I0J-200000D01*
G01*
G37*
%TD*%
D16*
%TO.C,H4*%
X98852056Y-103077944D03*
X97155000Y-102375000D03*
X95457944Y-103077944D03*
X94755000Y-104775000D03*
X95457944Y-106472056D03*
X97155000Y-107175000D03*
X98852056Y-106472056D03*
X99555000Y-104775000D03*
D17*
X97155000Y-104775000D03*
%TD*%
D16*
%TO.C,H3*%
X189022056Y-103077944D03*
X187325000Y-102375000D03*
X185627944Y-103077944D03*
X184925000Y-104775000D03*
X185627944Y-106472056D03*
X187325000Y-107175000D03*
X189022056Y-106472056D03*
X189725000Y-104775000D03*
D17*
X187325000Y-104775000D03*
%TD*%
D16*
%TO.C,H2*%
X189022056Y-44657944D03*
X187325000Y-43955000D03*
X185627944Y-44657944D03*
X184925000Y-46355000D03*
X185627944Y-48052056D03*
X187325000Y-48755000D03*
X189022056Y-48052056D03*
X189725000Y-46355000D03*
D17*
X187325000Y-46355000D03*
%TD*%
D16*
%TO.C,H1*%
X98852056Y-44657944D03*
X97155000Y-43955000D03*
X95457944Y-44657944D03*
X94755000Y-46355000D03*
X95457944Y-48052056D03*
X97155000Y-48755000D03*
X98852056Y-48052056D03*
X99555000Y-46355000D03*
D17*
X97155000Y-46355000D03*
%TD*%
D11*
%TO.C,D19*%
X173990000Y-102870000D03*
D12*
X171450000Y-102870000D03*
%TD*%
D11*
%TO.C,D18*%
X173990000Y-83820000D03*
D12*
X171450000Y-83820000D03*
%TD*%
D11*
%TO.C,D17*%
X154940000Y-102870000D03*
D12*
X152400000Y-102870000D03*
%TD*%
D11*
%TO.C,D16*%
X154940000Y-83820000D03*
D12*
X152400000Y-83820000D03*
%TD*%
D11*
%TO.C,D15*%
X135890000Y-102870000D03*
D12*
X133350000Y-102870000D03*
%TD*%
D11*
%TO.C,D14*%
X135890000Y-83820000D03*
D12*
X133350000Y-83820000D03*
%TD*%
D11*
%TO.C,D13*%
X116840000Y-102870000D03*
D12*
X114300000Y-102870000D03*
%TD*%
D11*
%TO.C,D12*%
X116840000Y-83820000D03*
D12*
X114300000Y-83820000D03*
%TD*%
%TO.C,C16*%
G36*
G01*
X179380000Y-93730000D02*
X179380000Y-94230000D01*
G75*
G02*
X179155000Y-94455000I-225000J0D01*
G01*
X178705000Y-94455000D01*
G75*
G02*
X178480000Y-94230000I0J225000D01*
G01*
X178480000Y-93730000D01*
G75*
G02*
X178705000Y-93505000I225000J0D01*
G01*
X179155000Y-93505000D01*
G75*
G02*
X179380000Y-93730000I0J-225000D01*
G01*
G37*
G36*
G01*
X180930000Y-93730000D02*
X180930000Y-94230000D01*
G75*
G02*
X180705000Y-94455000I-225000J0D01*
G01*
X180255000Y-94455000D01*
G75*
G02*
X180030000Y-94230000I0J225000D01*
G01*
X180030000Y-93730000D01*
G75*
G02*
X180255000Y-93505000I225000J0D01*
G01*
X180705000Y-93505000D01*
G75*
G02*
X180930000Y-93730000I0J-225000D01*
G01*
G37*
%TD*%
%TO.C,C15*%
G36*
G01*
X165425000Y-89785000D02*
X165425000Y-89285000D01*
G75*
G02*
X165650000Y-89060000I225000J0D01*
G01*
X166100000Y-89060000D01*
G75*
G02*
X166325000Y-89285000I0J-225000D01*
G01*
X166325000Y-89785000D01*
G75*
G02*
X166100000Y-90010000I-225000J0D01*
G01*
X165650000Y-90010000D01*
G75*
G02*
X165425000Y-89785000I0J225000D01*
G01*
G37*
G36*
G01*
X163875000Y-89785000D02*
X163875000Y-89285000D01*
G75*
G02*
X164100000Y-89060000I225000J0D01*
G01*
X164550000Y-89060000D01*
G75*
G02*
X164775000Y-89285000I0J-225000D01*
G01*
X164775000Y-89785000D01*
G75*
G02*
X164550000Y-90010000I-225000J0D01*
G01*
X164100000Y-90010000D01*
G75*
G02*
X163875000Y-89785000I0J225000D01*
G01*
G37*
%TD*%
%TO.C,C14*%
G36*
G01*
X179380000Y-74680000D02*
X179380000Y-75180000D01*
G75*
G02*
X179155000Y-75405000I-225000J0D01*
G01*
X178705000Y-75405000D01*
G75*
G02*
X178480000Y-75180000I0J225000D01*
G01*
X178480000Y-74680000D01*
G75*
G02*
X178705000Y-74455000I225000J0D01*
G01*
X179155000Y-74455000D01*
G75*
G02*
X179380000Y-74680000I0J-225000D01*
G01*
G37*
G36*
G01*
X180930000Y-74680000D02*
X180930000Y-75180000D01*
G75*
G02*
X180705000Y-75405000I-225000J0D01*
G01*
X180255000Y-75405000D01*
G75*
G02*
X180030000Y-75180000I0J225000D01*
G01*
X180030000Y-74680000D01*
G75*
G02*
X180255000Y-74455000I225000J0D01*
G01*
X180705000Y-74455000D01*
G75*
G02*
X180930000Y-74680000I0J-225000D01*
G01*
G37*
%TD*%
%TO.C,C13*%
G36*
G01*
X165425000Y-70735000D02*
X165425000Y-70235000D01*
G75*
G02*
X165650000Y-70010000I225000J0D01*
G01*
X166100000Y-70010000D01*
G75*
G02*
X166325000Y-70235000I0J-225000D01*
G01*
X166325000Y-70735000D01*
G75*
G02*
X166100000Y-70960000I-225000J0D01*
G01*
X165650000Y-70960000D01*
G75*
G02*
X165425000Y-70735000I0J225000D01*
G01*
G37*
G36*
G01*
X163875000Y-70735000D02*
X163875000Y-70235000D01*
G75*
G02*
X164100000Y-70010000I225000J0D01*
G01*
X164550000Y-70010000D01*
G75*
G02*
X164775000Y-70235000I0J-225000D01*
G01*
X164775000Y-70735000D01*
G75*
G02*
X164550000Y-70960000I-225000J0D01*
G01*
X164100000Y-70960000D01*
G75*
G02*
X163875000Y-70735000I0J225000D01*
G01*
G37*
%TD*%
%TO.C,C12*%
G36*
G01*
X160330000Y-93730000D02*
X160330000Y-94230000D01*
G75*
G02*
X160105000Y-94455000I-225000J0D01*
G01*
X159655000Y-94455000D01*
G75*
G02*
X159430000Y-94230000I0J225000D01*
G01*
X159430000Y-93730000D01*
G75*
G02*
X159655000Y-93505000I225000J0D01*
G01*
X160105000Y-93505000D01*
G75*
G02*
X160330000Y-93730000I0J-225000D01*
G01*
G37*
G36*
G01*
X161880000Y-93730000D02*
X161880000Y-94230000D01*
G75*
G02*
X161655000Y-94455000I-225000J0D01*
G01*
X161205000Y-94455000D01*
G75*
G02*
X160980000Y-94230000I0J225000D01*
G01*
X160980000Y-93730000D01*
G75*
G02*
X161205000Y-93505000I225000J0D01*
G01*
X161655000Y-93505000D01*
G75*
G02*
X161880000Y-93730000I0J-225000D01*
G01*
G37*
%TD*%
%TO.C,C11*%
G36*
G01*
X146375000Y-89785000D02*
X146375000Y-89285000D01*
G75*
G02*
X146600000Y-89060000I225000J0D01*
G01*
X147050000Y-89060000D01*
G75*
G02*
X147275000Y-89285000I0J-225000D01*
G01*
X147275000Y-89785000D01*
G75*
G02*
X147050000Y-90010000I-225000J0D01*
G01*
X146600000Y-90010000D01*
G75*
G02*
X146375000Y-89785000I0J225000D01*
G01*
G37*
G36*
G01*
X144825000Y-89785000D02*
X144825000Y-89285000D01*
G75*
G02*
X145050000Y-89060000I225000J0D01*
G01*
X145500000Y-89060000D01*
G75*
G02*
X145725000Y-89285000I0J-225000D01*
G01*
X145725000Y-89785000D01*
G75*
G02*
X145500000Y-90010000I-225000J0D01*
G01*
X145050000Y-90010000D01*
G75*
G02*
X144825000Y-89785000I0J225000D01*
G01*
G37*
%TD*%
%TO.C,C10*%
G36*
G01*
X160330000Y-74680000D02*
X160330000Y-75180000D01*
G75*
G02*
X160105000Y-75405000I-225000J0D01*
G01*
X159655000Y-75405000D01*
G75*
G02*
X159430000Y-75180000I0J225000D01*
G01*
X159430000Y-74680000D01*
G75*
G02*
X159655000Y-74455000I225000J0D01*
G01*
X160105000Y-74455000D01*
G75*
G02*
X160330000Y-74680000I0J-225000D01*
G01*
G37*
G36*
G01*
X161880000Y-74680000D02*
X161880000Y-75180000D01*
G75*
G02*
X161655000Y-75405000I-225000J0D01*
G01*
X161205000Y-75405000D01*
G75*
G02*
X160980000Y-75180000I0J225000D01*
G01*
X160980000Y-74680000D01*
G75*
G02*
X161205000Y-74455000I225000J0D01*
G01*
X161655000Y-74455000D01*
G75*
G02*
X161880000Y-74680000I0J-225000D01*
G01*
G37*
%TD*%
%TO.C,C9*%
G36*
G01*
X146375000Y-70735000D02*
X146375000Y-70235000D01*
G75*
G02*
X146600000Y-70010000I225000J0D01*
G01*
X147050000Y-70010000D01*
G75*
G02*
X147275000Y-70235000I0J-225000D01*
G01*
X147275000Y-70735000D01*
G75*
G02*
X147050000Y-70960000I-225000J0D01*
G01*
X146600000Y-70960000D01*
G75*
G02*
X146375000Y-70735000I0J225000D01*
G01*
G37*
G36*
G01*
X144825000Y-70735000D02*
X144825000Y-70235000D01*
G75*
G02*
X145050000Y-70010000I225000J0D01*
G01*
X145500000Y-70010000D01*
G75*
G02*
X145725000Y-70235000I0J-225000D01*
G01*
X145725000Y-70735000D01*
G75*
G02*
X145500000Y-70960000I-225000J0D01*
G01*
X145050000Y-70960000D01*
G75*
G02*
X144825000Y-70735000I0J225000D01*
G01*
G37*
%TD*%
%TO.C,C8*%
G36*
G01*
X141280000Y-93730000D02*
X141280000Y-94230000D01*
G75*
G02*
X141055000Y-94455000I-225000J0D01*
G01*
X140605000Y-94455000D01*
G75*
G02*
X140380000Y-94230000I0J225000D01*
G01*
X140380000Y-93730000D01*
G75*
G02*
X140605000Y-93505000I225000J0D01*
G01*
X141055000Y-93505000D01*
G75*
G02*
X141280000Y-93730000I0J-225000D01*
G01*
G37*
G36*
G01*
X142830000Y-93730000D02*
X142830000Y-94230000D01*
G75*
G02*
X142605000Y-94455000I-225000J0D01*
G01*
X142155000Y-94455000D01*
G75*
G02*
X141930000Y-94230000I0J225000D01*
G01*
X141930000Y-93730000D01*
G75*
G02*
X142155000Y-93505000I225000J0D01*
G01*
X142605000Y-93505000D01*
G75*
G02*
X142830000Y-93730000I0J-225000D01*
G01*
G37*
%TD*%
%TO.C,C7*%
G36*
G01*
X127325000Y-89785000D02*
X127325000Y-89285000D01*
G75*
G02*
X127550000Y-89060000I225000J0D01*
G01*
X128000000Y-89060000D01*
G75*
G02*
X128225000Y-89285000I0J-225000D01*
G01*
X128225000Y-89785000D01*
G75*
G02*
X128000000Y-90010000I-225000J0D01*
G01*
X127550000Y-90010000D01*
G75*
G02*
X127325000Y-89785000I0J225000D01*
G01*
G37*
G36*
G01*
X125775000Y-89785000D02*
X125775000Y-89285000D01*
G75*
G02*
X126000000Y-89060000I225000J0D01*
G01*
X126450000Y-89060000D01*
G75*
G02*
X126675000Y-89285000I0J-225000D01*
G01*
X126675000Y-89785000D01*
G75*
G02*
X126450000Y-90010000I-225000J0D01*
G01*
X126000000Y-90010000D01*
G75*
G02*
X125775000Y-89785000I0J225000D01*
G01*
G37*
%TD*%
%TO.C,C5*%
G36*
G01*
X127325000Y-70735000D02*
X127325000Y-70235000D01*
G75*
G02*
X127550000Y-70010000I225000J0D01*
G01*
X128000000Y-70010000D01*
G75*
G02*
X128225000Y-70235000I0J-225000D01*
G01*
X128225000Y-70735000D01*
G75*
G02*
X128000000Y-70960000I-225000J0D01*
G01*
X127550000Y-70960000D01*
G75*
G02*
X127325000Y-70735000I0J225000D01*
G01*
G37*
G36*
G01*
X125775000Y-70735000D02*
X125775000Y-70235000D01*
G75*
G02*
X126000000Y-70010000I225000J0D01*
G01*
X126450000Y-70010000D01*
G75*
G02*
X126675000Y-70235000I0J-225000D01*
G01*
X126675000Y-70735000D01*
G75*
G02*
X126450000Y-70960000I-225000J0D01*
G01*
X126000000Y-70960000D01*
G75*
G02*
X125775000Y-70735000I0J225000D01*
G01*
G37*
%TD*%
%TO.C,C4*%
G36*
G01*
X122230000Y-93730000D02*
X122230000Y-94230000D01*
G75*
G02*
X122005000Y-94455000I-225000J0D01*
G01*
X121555000Y-94455000D01*
G75*
G02*
X121330000Y-94230000I0J225000D01*
G01*
X121330000Y-93730000D01*
G75*
G02*
X121555000Y-93505000I225000J0D01*
G01*
X122005000Y-93505000D01*
G75*
G02*
X122230000Y-93730000I0J-225000D01*
G01*
G37*
G36*
G01*
X123780000Y-93730000D02*
X123780000Y-94230000D01*
G75*
G02*
X123555000Y-94455000I-225000J0D01*
G01*
X123105000Y-94455000D01*
G75*
G02*
X122880000Y-94230000I0J225000D01*
G01*
X122880000Y-93730000D01*
G75*
G02*
X123105000Y-93505000I225000J0D01*
G01*
X123555000Y-93505000D01*
G75*
G02*
X123780000Y-93730000I0J-225000D01*
G01*
G37*
%TD*%
%TO.C,C3*%
G36*
G01*
X108275000Y-89785000D02*
X108275000Y-89285000D01*
G75*
G02*
X108500000Y-89060000I225000J0D01*
G01*
X108950000Y-89060000D01*
G75*
G02*
X109175000Y-89285000I0J-225000D01*
G01*
X109175000Y-89785000D01*
G75*
G02*
X108950000Y-90010000I-225000J0D01*
G01*
X108500000Y-90010000D01*
G75*
G02*
X108275000Y-89785000I0J225000D01*
G01*
G37*
G36*
G01*
X106725000Y-89785000D02*
X106725000Y-89285000D01*
G75*
G02*
X106950000Y-89060000I225000J0D01*
G01*
X107400000Y-89060000D01*
G75*
G02*
X107625000Y-89285000I0J-225000D01*
G01*
X107625000Y-89785000D01*
G75*
G02*
X107400000Y-90010000I-225000J0D01*
G01*
X106950000Y-90010000D01*
G75*
G02*
X106725000Y-89785000I0J225000D01*
G01*
G37*
%TD*%
%TO.C,C2*%
G36*
G01*
X122230000Y-74680000D02*
X122230000Y-75180000D01*
G75*
G02*
X122005000Y-75405000I-225000J0D01*
G01*
X121555000Y-75405000D01*
G75*
G02*
X121330000Y-75180000I0J225000D01*
G01*
X121330000Y-74680000D01*
G75*
G02*
X121555000Y-74455000I225000J0D01*
G01*
X122005000Y-74455000D01*
G75*
G02*
X122230000Y-74680000I0J-225000D01*
G01*
G37*
G36*
G01*
X123780000Y-74680000D02*
X123780000Y-75180000D01*
G75*
G02*
X123555000Y-75405000I-225000J0D01*
G01*
X123105000Y-75405000D01*
G75*
G02*
X122880000Y-75180000I0J225000D01*
G01*
X122880000Y-74680000D01*
G75*
G02*
X123105000Y-74455000I225000J0D01*
G01*
X123555000Y-74455000D01*
G75*
G02*
X123780000Y-74680000I0J-225000D01*
G01*
G37*
%TD*%
%TO.C,C1*%
G36*
G01*
X108275000Y-70735000D02*
X108275000Y-70235000D01*
G75*
G02*
X108500000Y-70010000I225000J0D01*
G01*
X108950000Y-70010000D01*
G75*
G02*
X109175000Y-70235000I0J-225000D01*
G01*
X109175000Y-70735000D01*
G75*
G02*
X108950000Y-70960000I-225000J0D01*
G01*
X108500000Y-70960000D01*
G75*
G02*
X108275000Y-70735000I0J225000D01*
G01*
G37*
G36*
G01*
X106725000Y-70735000D02*
X106725000Y-70235000D01*
G75*
G02*
X106950000Y-70010000I225000J0D01*
G01*
X107400000Y-70010000D01*
G75*
G02*
X107625000Y-70235000I0J-225000D01*
G01*
X107625000Y-70735000D01*
G75*
G02*
X107400000Y-70960000I-225000J0D01*
G01*
X106950000Y-70960000D01*
G75*
G02*
X106725000Y-70735000I0J225000D01*
G01*
G37*
%TD*%
M02*
