M48
; DRILL file {KiCad (5.1.9)-1} date 03/30/21 21:11:28
; FORMAT={-:-/ absolute / inch / decimal}
; #@! TF.CreationDate,2021-03-30T21:11:28+02:00
; #@! TF.GenerationSoftware,Kicad,Pcbnew,(5.1.9)-1
; #@! TF.FileFunction,Plated,1,2,PTH
FMAT,2
INCH
T1C0.0157
T2C0.0197
T3C0.0354
T4C0.0394
T5C0.0591
T6C0.1260
%
G90
G05
T1
X4.4Y-3.3
X4.525Y-2.45
X4.525Y-2.675
X4.525Y-3.4
X4.5285Y-2.6
X4.55Y-3.1965
X4.6Y-2.475
X4.7Y-3.75
X4.725Y-3.7
X4.775Y-3.2
X4.775Y-3.525
X4.775Y-3.575
X4.85Y-3.7
X4.85Y-3.75
X4.95Y-3.1465
X5.025Y-3.55
X5.3Y-3.375
X5.375Y-3.275
X5.425Y-3.75
X5.6345Y-3.1059
X5.6535Y-2.925
X6.1Y-3.35
X6.125Y-3.475
X6.275Y-3.275
X6.375Y-3.175
X6.425Y-3.075
X6.425Y-3.25
X6.4288Y-3.148
X6.4338Y-2.8566
X6.9Y-3.375
X6.9Y-3.45
X7.0Y-3.275
T2
X3.7555Y-1.3
X3.7555Y-4.1
X3.7832Y-1.2332
X3.7832Y-1.3668
X3.7832Y-4.0332
X3.7832Y-4.1668
X3.85Y-1.2055
X3.85Y-1.3945
X3.85Y-4.0055
X3.85Y-4.1945
X3.9168Y-1.2332
X3.9168Y-1.3668
X3.9168Y-4.0332
X3.9168Y-4.1668
X3.9445Y-1.3
X3.9445Y-4.1
X7.3555Y-1.3
X7.3555Y-4.1
X7.3832Y-1.2332
X7.3832Y-1.3668
X7.3832Y-4.0332
X7.3832Y-4.1668
X7.45Y-1.2055
X7.45Y-1.3945
X7.45Y-4.0055
X7.45Y-4.1945
X7.5168Y-1.2332
X7.5168Y-1.3668
X7.5168Y-4.0332
X7.5168Y-4.1668
X7.5445Y-1.3
X7.5445Y-4.1
T3
X4.25Y-1.45
X4.25Y-1.7
X4.35Y-1.45
X4.35Y-1.7
X4.45Y-3.0
X4.45Y-3.8
X4.55Y-3.0
X4.55Y-3.8
X5.25Y-3.0
X5.25Y-3.8
X5.3Y-1.45
X5.3Y-1.7
X5.35Y-3.0
X5.35Y-3.8
X5.4Y-1.45
X5.4Y-1.7
X6.05Y-3.0
X6.05Y-3.8
X6.15Y-3.0
X6.15Y-3.8
X6.3Y-1.45
X6.3Y-1.7
X6.3Y-1.95
X6.4Y-1.45
X6.4Y-1.7
X6.4Y-1.95
X6.85Y-3.0
X6.85Y-3.8
X6.95Y-3.0
X6.95Y-3.8
T4
X3.85Y-2.75
X3.85Y-2.85
X3.85Y-2.95
X3.85Y-3.05
X3.85Y-3.15
X3.85Y-3.25
X3.85Y-3.35
X3.85Y-3.45
X3.85Y-3.55
X3.85Y-3.65
X3.95Y-2.75
X3.95Y-2.85
X3.95Y-2.95
X3.95Y-3.05
X3.95Y-3.15
X3.95Y-3.25
X3.95Y-3.35
X3.95Y-3.45
X3.95Y-3.55
X3.95Y-3.65
T5
X4.35Y-2.7
X4.35Y-3.5
X4.6Y-2.6
X4.6Y-3.4
X5.15Y-2.7
X5.15Y-3.5
X5.4Y-2.6
X5.4Y-3.4
X5.95Y-2.7
X5.95Y-3.5
X6.2Y-2.6
X6.2Y-3.4
X6.75Y-2.7
X6.75Y-3.5
X7.0Y-2.6
X7.0Y-3.4
T6
X3.85Y-1.3
X3.85Y-4.1
X7.45Y-1.3
X7.45Y-4.1
T0
M30
