%TF.GenerationSoftware,KiCad,Pcbnew,(5.1.9)-1*%
%TF.CreationDate,2021-03-30T21:11:26+02:00*%
%TF.ProjectId,RemoteCtrl,52656d6f-7465-4437-9472-6c2e6b696361,v0.1*%
%TF.SameCoordinates,Original*%
%TF.FileFunction,Copper,L1,Top*%
%TF.FilePolarity,Positive*%
%FSLAX46Y46*%
G04 Gerber Fmt 4.6, Leading zero omitted, Abs format (unit mm)*
G04 Created by KiCad (PCBNEW (5.1.9)-1) date 2021-03-30 21:11:26*
%MOMM*%
%LPD*%
G01*
G04 APERTURE LIST*
%TA.AperFunction,ComponentPad*%
%ADD10C,1.800000*%
%TD*%
%TA.AperFunction,ComponentPad*%
%ADD11R,1.800000X1.800000*%
%TD*%
%TA.AperFunction,ComponentPad*%
%ADD12C,2.200000*%
%TD*%
%TA.AperFunction,ComponentPad*%
%ADD13C,1.700000*%
%TD*%
%TA.AperFunction,ComponentPad*%
%ADD14C,0.800000*%
%TD*%
%TA.AperFunction,ComponentPad*%
%ADD15C,6.400000*%
%TD*%
%TA.AperFunction,ViaPad*%
%ADD16C,0.800000*%
%TD*%
%TA.AperFunction,Conductor*%
%ADD17C,0.500000*%
%TD*%
%TA.AperFunction,Conductor*%
%ADD18C,0.250000*%
%TD*%
G04 APERTURE END LIST*
D10*
%TO.P,D2,2*%
%TO.N,/LED_INT_Active*%
X110490000Y-43180000D03*
D11*
%TO.P,D2,1*%
%TO.N,Net-(D2-Pad1)*%
X107950000Y-43180000D03*
%TD*%
D10*
%TO.P,D1,2*%
%TO.N,/RESET*%
X110490000Y-36830000D03*
D11*
%TO.P,D1,1*%
%TO.N,Net-(D1-Pad1)*%
X107950000Y-36830000D03*
%TD*%
D12*
%TO.P,SW8,2*%
%TO.N,Net-(R34-Pad1)*%
X171450000Y-88900000D03*
%TO.P,SW8,1*%
%TO.N,+5V*%
X177800000Y-86360000D03*
%TD*%
%TO.P,SW7,2*%
%TO.N,Net-(R31-Pad1)*%
X171450000Y-68580000D03*
%TO.P,SW7,1*%
%TO.N,+5V*%
X177800000Y-66040000D03*
%TD*%
%TO.P,SW6,2*%
%TO.N,Net-(R28-Pad1)*%
X151130000Y-88900000D03*
%TO.P,SW6,1*%
%TO.N,+5V*%
X157480000Y-86360000D03*
%TD*%
%TO.P,SW5,2*%
%TO.N,Net-(R25-Pad1)*%
X151130000Y-68580000D03*
%TO.P,SW5,1*%
%TO.N,+5V*%
X157480000Y-66040000D03*
%TD*%
%TO.P,SW4,2*%
%TO.N,Net-(R22-Pad1)*%
X130810000Y-88900000D03*
%TO.P,SW4,1*%
%TO.N,+5V*%
X137160000Y-86360000D03*
%TD*%
%TO.P,SW3,2*%
%TO.N,Net-(R19-Pad1)*%
X130810000Y-68580000D03*
%TO.P,SW3,1*%
%TO.N,+5V*%
X137160000Y-66040000D03*
%TD*%
%TO.P,SW2,2*%
%TO.N,Net-(R16-Pad1)*%
X110490000Y-88900000D03*
%TO.P,SW2,1*%
%TO.N,+5V*%
X116840000Y-86360000D03*
%TD*%
%TO.P,SW1,2*%
%TO.N,Net-(R13-Pad1)*%
X110490000Y-68580000D03*
%TO.P,SW1,1*%
%TO.N,+5V*%
X116840000Y-66040000D03*
%TD*%
D13*
%TO.P,J1,20*%
%TO.N,GND*%
X97790000Y-69850000D03*
%TO.P,J1,18*%
%TO.N,/BTN_INST_STEP*%
X97790000Y-72390000D03*
%TO.P,J1,16*%
%TO.N,/BTN_INST_STEP_EN*%
X97790000Y-74930000D03*
%TO.P,J1,14*%
%TO.N,/BTN_CLK_STEP*%
X97790000Y-77470000D03*
%TO.P,J1,12*%
%TO.N,/BTN_CLK_STEP_EN*%
X97790000Y-80010000D03*
%TO.P,J1,10*%
%TO.N,/BTN_RESET*%
X97790000Y-82550000D03*
%TO.P,J1,8*%
%TO.N,/BTN_INT*%
X97790000Y-85090000D03*
%TO.P,J1,6*%
%TO.N,/BTN_INC_CLK_F*%
X97790000Y-87630000D03*
%TO.P,J1,4*%
%TO.N,/BTN_DEC_CLK_F*%
X97790000Y-90170000D03*
%TO.P,J1,2*%
%TO.N,+5V*%
X97790000Y-92710000D03*
%TO.P,J1,19*%
%TO.N,GND*%
X100330000Y-69850000D03*
%TO.P,J1,17*%
%TO.N,/LED_Halted_Bkpt*%
X100330000Y-72390000D03*
%TO.P,J1,15*%
%TO.N,/LED_Halted_Step*%
X100330000Y-74930000D03*
%TO.P,J1,13*%
%TO.N,/LED_Halted_Inst*%
X100330000Y-77470000D03*
%TO.P,J1,11*%
%TO.N,/LED_Halted*%
X100330000Y-80010000D03*
%TO.P,J1,9*%
%TO.N,/RESET*%
X100330000Y-82550000D03*
%TO.P,J1,7*%
%TO.N,/LED_INT_Active*%
X100330000Y-85090000D03*
%TO.P,J1,5*%
%TO.N,/LED_CLK_STEP_EN*%
X100330000Y-87630000D03*
%TO.P,J1,3*%
%TO.N,/LED_INST_STEP_EN*%
X100330000Y-90170000D03*
%TO.P,J1,1*%
%TO.N,+5V*%
%TA.AperFunction,ComponentPad*%
G36*
G01*
X101180000Y-92110000D02*
X101180000Y-93310000D01*
G75*
G02*
X100930000Y-93560000I-250000J0D01*
G01*
X99730000Y-93560000D01*
G75*
G02*
X99480000Y-93310000I0J250000D01*
G01*
X99480000Y-92110000D01*
G75*
G02*
X99730000Y-91860000I250000J0D01*
G01*
X100930000Y-91860000D01*
G75*
G02*
X101180000Y-92110000I0J-250000D01*
G01*
G37*
%TD.AperFunction*%
%TD*%
D14*
%TO.P,H4,1*%
%TO.N,N/C*%
X99487056Y-102442944D03*
X97790000Y-101740000D03*
X96092944Y-102442944D03*
X95390000Y-104140000D03*
X96092944Y-105837056D03*
X97790000Y-106540000D03*
X99487056Y-105837056D03*
X100190000Y-104140000D03*
D15*
X97790000Y-104140000D03*
%TD*%
D14*
%TO.P,H3,1*%
%TO.N,N/C*%
X190927056Y-102442944D03*
X189230000Y-101740000D03*
X187532944Y-102442944D03*
X186830000Y-104140000D03*
X187532944Y-105837056D03*
X189230000Y-106540000D03*
X190927056Y-105837056D03*
X191630000Y-104140000D03*
D15*
X189230000Y-104140000D03*
%TD*%
D14*
%TO.P,H2,1*%
%TO.N,N/C*%
X190927056Y-31322944D03*
X189230000Y-30620000D03*
X187532944Y-31322944D03*
X186830000Y-33020000D03*
X187532944Y-34717056D03*
X189230000Y-35420000D03*
X190927056Y-34717056D03*
X191630000Y-33020000D03*
D15*
X189230000Y-33020000D03*
%TD*%
D14*
%TO.P,H1,1*%
%TO.N,N/C*%
X99487056Y-31322944D03*
X97790000Y-30620000D03*
X96092944Y-31322944D03*
X95390000Y-33020000D03*
X96092944Y-34717056D03*
X97790000Y-35420000D03*
X99487056Y-34717056D03*
X100190000Y-33020000D03*
D15*
X97790000Y-33020000D03*
%TD*%
D10*
%TO.P,D19,2*%
%TO.N,/BTN_DEC_CLK_F*%
X176530000Y-96520000D03*
D11*
%TO.P,D19,1*%
%TO.N,Net-(D19-Pad1)*%
X173990000Y-96520000D03*
%TD*%
D10*
%TO.P,D18,2*%
%TO.N,/BTN_INC_CLK_F*%
X176530000Y-76200000D03*
D11*
%TO.P,D18,1*%
%TO.N,Net-(D18-Pad1)*%
X173990000Y-76200000D03*
%TD*%
D10*
%TO.P,D17,2*%
%TO.N,/BTN_CLK_STEP*%
X156210000Y-96520000D03*
D11*
%TO.P,D17,1*%
%TO.N,Net-(D17-Pad1)*%
X153670000Y-96520000D03*
%TD*%
D10*
%TO.P,D16,2*%
%TO.N,/LED_CLK_STEP_EN*%
X156210000Y-76200000D03*
D11*
%TO.P,D16,1*%
%TO.N,Net-(D16-Pad1)*%
X153670000Y-76200000D03*
%TD*%
D10*
%TO.P,D15,2*%
%TO.N,/BTN_INST_STEP*%
X135890000Y-96520000D03*
D11*
%TO.P,D15,1*%
%TO.N,Net-(D15-Pad1)*%
X133350000Y-96520000D03*
%TD*%
D10*
%TO.P,D14,2*%
%TO.N,/LED_INST_STEP_EN*%
X135890000Y-76200000D03*
D11*
%TO.P,D14,1*%
%TO.N,Net-(D14-Pad1)*%
X133350000Y-76200000D03*
%TD*%
D10*
%TO.P,D13,2*%
%TO.N,/LED_INT_Active*%
X115570000Y-96520000D03*
D11*
%TO.P,D13,1*%
%TO.N,Net-(D13-Pad1)*%
X113030000Y-96520000D03*
%TD*%
D10*
%TO.P,D12,2*%
%TO.N,/RESET*%
X115570000Y-76200000D03*
D11*
%TO.P,D12,1*%
%TO.N,Net-(D12-Pad1)*%
X113030000Y-76200000D03*
%TD*%
D10*
%TO.P,D11,2*%
%TO.N,/LED_Halted_Bkpt*%
X162560000Y-49530000D03*
D11*
%TO.P,D11,1*%
%TO.N,Net-(D11-Pad1)*%
X160020000Y-49530000D03*
%TD*%
D10*
%TO.P,D10,2*%
%TO.N,/LED_Halted_Step*%
X162560000Y-43180000D03*
D11*
%TO.P,D10,1*%
%TO.N,Net-(D10-Pad1)*%
X160020000Y-43180000D03*
%TD*%
D10*
%TO.P,D9,2*%
%TO.N,/LED_Halted_Inst*%
X162560000Y-36830000D03*
D11*
%TO.P,D9,1*%
%TO.N,Net-(D9-Pad1)*%
X160020000Y-36830000D03*
%TD*%
D10*
%TO.P,D8,2*%
%TO.N,Net-(D8-Pad2)*%
X137160000Y-36830000D03*
D11*
%TO.P,D8,1*%
%TO.N,/LED_Halted*%
X134620000Y-36830000D03*
%TD*%
D10*
%TO.P,D7,2*%
%TO.N,/LED_Halted*%
X137160000Y-43180000D03*
D11*
%TO.P,D7,1*%
%TO.N,Net-(D7-Pad1)*%
X134620000Y-43180000D03*
%TD*%
D16*
%TO.N,/RESET*%
X115570000Y-81189990D03*
X116840000Y-62865000D03*
X115025010Y-66040000D03*
%TO.N,/LED_INT_Active*%
X114935000Y-86360000D03*
X114935000Y-62230000D03*
X114935000Y-67945000D03*
X111760000Y-83820000D03*
%TO.N,/LED_CLK_STEP_EN*%
X121285000Y-90805000D03*
X127635000Y-90170000D03*
X155575000Y-88265000D03*
X154940000Y-85090000D03*
X159385000Y-83185000D03*
%TO.N,/LED_INST_STEP_EN*%
X119380000Y-95250000D03*
X123190000Y-95250000D03*
X137795000Y-95250000D03*
X134620000Y-85725000D03*
X136525000Y-83185000D03*
%TO.N,/LED_Halted*%
X125730000Y-79919990D03*
%TO.N,/LED_Halted_Inst*%
X163291501Y-79959183D03*
%TO.N,/LED_Halted_Step*%
X163195000Y-78105000D03*
%TO.N,/LED_Halted_Bkpt*%
X163417661Y-72557659D03*
%TO.N,/BTN_INST_STEP*%
X143600010Y-74295000D03*
%TO.N,/BTN_CLK_STEP*%
X163195000Y-82550000D03*
%TO.N,/BTN_INC_CLK_F*%
X120015000Y-93980000D03*
X123190000Y-93980000D03*
X175260000Y-87630000D03*
X175260000Y-85725000D03*
X177800000Y-83185000D03*
%TO.N,/BTN_INST_STEP_EN*%
X143115165Y-78890155D03*
%TO.N,/BTN_CLK_STEP_EN*%
X161925000Y-80645000D03*
%TO.N,/BTN_RESET*%
X121285000Y-81280000D03*
%TO.N,/BTN_INT*%
X121285000Y-89535000D03*
%TD*%
D17*
%TO.N,GND*%
X100330000Y-69850000D02*
X97790000Y-69850000D01*
%TO.N,+5V*%
X116840000Y-66040000D02*
X137160000Y-66040000D01*
X137160000Y-66040000D02*
X157480000Y-66040000D01*
X157480000Y-66040000D02*
X177800000Y-66040000D01*
X177800000Y-86360000D02*
X180340000Y-86360000D01*
X180340000Y-86360000D02*
X184150000Y-82550000D01*
X184150000Y-82550000D02*
X184150000Y-69850000D01*
X180340000Y-66040000D02*
X177800000Y-66040000D01*
X184150000Y-69850000D02*
X180340000Y-66040000D01*
X116840000Y-86360000D02*
X122555000Y-86360000D01*
X122770001Y-86575001D02*
X177584999Y-86575001D01*
X177584999Y-86575001D02*
X177800000Y-86360000D01*
X122555000Y-86360000D02*
X122770001Y-86575001D01*
X122555000Y-86360000D02*
X122555000Y-93356998D01*
X122555000Y-93356998D02*
X116851998Y-99060000D01*
X116851998Y-99060000D02*
X106680000Y-99060000D01*
X106680000Y-99060000D02*
X100330000Y-92710000D01*
X100330000Y-92710000D02*
X97790000Y-92710000D01*
D18*
%TO.N,/RESET*%
X100330000Y-82550000D02*
X101690010Y-81189990D01*
X101690010Y-81189990D02*
X115570000Y-81189990D01*
X116840000Y-62865000D02*
X115025010Y-64679990D01*
X115025010Y-64679990D02*
X115025010Y-66040000D01*
%TO.N,/LED_INT_Active*%
X113665000Y-85090000D02*
X114935000Y-86360000D01*
X114935000Y-62230000D02*
X114300000Y-62865000D01*
X114300000Y-67310000D02*
X114935000Y-67945000D01*
X114300000Y-62865000D02*
X114300000Y-67310000D01*
X111760000Y-83820000D02*
X110490000Y-85090000D01*
X110490000Y-85090000D02*
X113665000Y-85090000D01*
X100330000Y-85090000D02*
X110490000Y-85090000D01*
%TO.N,/LED_CLK_STEP_EN*%
X101179999Y-86780001D02*
X112815001Y-86780001D01*
X100330000Y-87630000D02*
X101179999Y-86780001D01*
X115149999Y-89114999D02*
X118959999Y-89114999D01*
X112815001Y-86780001D02*
X115149999Y-89114999D01*
X120650000Y-90805000D02*
X121285000Y-90805000D01*
X118959999Y-89114999D02*
X120650000Y-90805000D01*
X154784999Y-87474999D02*
X155575000Y-88265000D01*
X132284002Y-88265000D02*
X149655998Y-88265000D01*
X131494001Y-87474999D02*
X132284002Y-88265000D01*
X129764316Y-87474999D02*
X131494001Y-87474999D01*
X150445999Y-87474999D02*
X154784999Y-87474999D01*
X149655998Y-88265000D02*
X150445999Y-87474999D01*
X127635000Y-89604315D02*
X129764316Y-87474999D01*
X127635000Y-90170000D02*
X127635000Y-89604315D01*
X154940000Y-85090000D02*
X156845000Y-83185000D01*
X156845000Y-83185000D02*
X159385000Y-83185000D01*
%TO.N,/LED_INST_STEP_EN*%
X100330000Y-90170000D02*
X104140000Y-90170000D01*
X109220000Y-95250000D02*
X119380000Y-95250000D01*
X104140000Y-90170000D02*
X109220000Y-95250000D01*
X123190000Y-95250000D02*
X137795000Y-95250000D01*
X134620000Y-85090000D02*
X136525000Y-83185000D01*
X134620000Y-85725000D02*
X134620000Y-85090000D01*
%TO.N,/LED_Halted*%
X100330000Y-80010000D02*
X125639990Y-80010000D01*
X125639990Y-80010000D02*
X125730000Y-79919990D01*
%TO.N,/LED_Halted_Inst*%
X100330000Y-77470000D02*
X107952821Y-77470000D01*
X107952821Y-77470000D02*
X109227799Y-78744978D01*
X142612800Y-79744978D02*
X161115608Y-79744978D01*
X161390598Y-79469987D02*
X162802305Y-79469987D01*
X161115608Y-79744978D02*
X161390598Y-79469987D01*
X162802305Y-79469987D02*
X163291501Y-79959183D01*
X141612800Y-78744978D02*
X142612800Y-79744978D01*
X109227799Y-78744978D02*
X141612800Y-78744978D01*
%TO.N,/LED_Halted_Step*%
X139700000Y-74930000D02*
X142875000Y-78105000D01*
X100330000Y-74930000D02*
X139700000Y-74930000D01*
X142875000Y-78105000D02*
X163195000Y-78105000D01*
%TO.N,/LED_Halted_Bkpt*%
X100330000Y-72390000D02*
X101385001Y-73445001D01*
X162530319Y-73445001D02*
X163417661Y-72557659D01*
X101385001Y-73445001D02*
X162530319Y-73445001D01*
%TO.N,/BTN_INST_STEP*%
X99154999Y-73754999D02*
X100894001Y-73754999D01*
X100894001Y-73754999D02*
X101434002Y-74295000D01*
X97790000Y-72390000D02*
X99154999Y-73754999D01*
X101434002Y-74295000D02*
X143600010Y-74295000D01*
%TO.N,/BTN_CLK_STEP*%
X161576998Y-79919998D02*
X162273002Y-79919998D01*
X98965001Y-78645001D02*
X108491412Y-78645001D01*
X108491412Y-78645001D02*
X109041400Y-79194989D01*
X162650002Y-82005002D02*
X163195000Y-82550000D01*
X97790000Y-77470000D02*
X98965001Y-78645001D01*
X141426400Y-79194989D02*
X142426400Y-80194989D01*
X109041400Y-79194989D02*
X141426400Y-79194989D01*
X162650002Y-80296998D02*
X162650002Y-82005002D01*
X162273002Y-79919998D02*
X162650002Y-80296998D01*
X161302007Y-80194989D02*
X161576998Y-79919998D01*
X142426400Y-80194989D02*
X161302007Y-80194989D01*
%TO.N,/BTN_INC_CLK_F*%
X98965001Y-88805001D02*
X104680001Y-88805001D01*
X97790000Y-87630000D02*
X98965001Y-88805001D01*
X109855000Y-93980000D02*
X120015000Y-93980000D01*
X104680001Y-88805001D02*
X109855000Y-93980000D01*
X123190000Y-93980000D02*
X177165000Y-93980000D01*
X177165000Y-93980000D02*
X178435000Y-92710000D01*
X178435000Y-92710000D02*
X178435000Y-88900000D01*
X178435000Y-88900000D02*
X177320001Y-87785001D01*
X177115999Y-87785001D02*
X176960998Y-87630000D01*
X176960998Y-87630000D02*
X175260000Y-87630000D01*
X177320001Y-87785001D02*
X177115999Y-87785001D01*
X175260000Y-85725000D02*
X175260000Y-84455000D01*
X176530000Y-84455000D02*
X177800000Y-83185000D01*
X175260000Y-84455000D02*
X176530000Y-84455000D01*
%TO.N,/BTN_DEC_CLK_F*%
X97790000Y-90170000D02*
X96520000Y-91440000D01*
X96520000Y-93179002D02*
X97320998Y-93980000D01*
X96520000Y-91440000D02*
X96520000Y-93179002D01*
X97320998Y-93980000D02*
X100330000Y-93980000D01*
X100330000Y-93980000D02*
X106045000Y-99695000D01*
X106045000Y-99695000D02*
X175260000Y-99695000D01*
X176530000Y-98425000D02*
X176530000Y-96520000D01*
X175260000Y-99695000D02*
X176530000Y-98425000D01*
%TO.N,/BTN_INST_STEP_EN*%
X109414200Y-78294967D02*
X141954292Y-78294967D01*
X141954292Y-78294967D02*
X142549480Y-78890155D01*
X97790000Y-74930000D02*
X98965001Y-76105001D01*
X142549480Y-78890155D02*
X143115165Y-78890155D01*
X107224234Y-76105001D02*
X109414200Y-78294967D01*
X98965001Y-76105001D02*
X107224234Y-76105001D01*
%TO.N,/BTN_CLK_STEP_EN*%
X121542992Y-80464988D02*
X121723004Y-80645000D01*
X98965001Y-81185001D02*
X100894001Y-81185001D01*
X97790000Y-80010000D02*
X98965001Y-81185001D01*
X121723004Y-80645000D02*
X161925000Y-80645000D01*
X100894001Y-81185001D02*
X101614014Y-80464988D01*
X101614014Y-80464988D02*
X121542992Y-80464988D01*
%TO.N,/BTN_RESET*%
X98965001Y-83725001D02*
X101059999Y-83725001D01*
X97790000Y-82550000D02*
X98965001Y-83725001D01*
X101059999Y-83725001D02*
X102870000Y-81915000D01*
X120650000Y-81915000D02*
X121285000Y-81280000D01*
X102870000Y-81915000D02*
X120650000Y-81915000D01*
%TO.N,/BTN_INT*%
X113636400Y-86329990D02*
X115971398Y-88664988D01*
X97790000Y-85090000D02*
X99029990Y-86329990D01*
X99029990Y-86329990D02*
X113636400Y-86329990D01*
X115971398Y-88664988D02*
X120414988Y-88664988D01*
X120414988Y-88664988D02*
X121285000Y-89535000D01*
%TD*%
M02*
