M48
; DRILL file {KiCad (5.1.9)-1} date 05/31/21 11:25:05
; FORMAT={-:-/ absolute / inch / decimal}
; #@! TF.CreationDate,2021-05-31T11:25:05+02:00
; #@! TF.GenerationSoftware,Kicad,Pcbnew,(5.1.9)-1
; #@! TF.FileFunction,NonPlated,1,2,NPTH
FMAT,2
INCH
T1C0.0669
T2C0.1575
%
G90
G05
T1
X4.35Y-3.1
X4.35Y-3.85
X4.75Y-3.1
X4.75Y-3.85
X5.1Y-3.1
X5.1Y-3.85
X5.5Y-3.1
X5.5Y-3.85
X5.85Y-3.1
X5.85Y-3.85
X6.25Y-3.1
X6.25Y-3.85
X6.6Y-3.1
X6.6Y-3.85
X7.0Y-3.1
X7.0Y-3.85
T2
X4.55Y-3.1
X4.55Y-3.85
X5.3Y-3.1
X5.3Y-3.85
X6.05Y-3.1
X6.05Y-3.85
X6.8Y-3.1
X6.8Y-3.85
T0
M30
