%TF.GenerationSoftware,KiCad,Pcbnew,(5.1.9)-1*%
%TF.CreationDate,2021-03-30T21:11:26+02:00*%
%TF.ProjectId,RemoteCtrl,52656d6f-7465-4437-9472-6c2e6b696361,v0.1*%
%TF.SameCoordinates,Original*%
%TF.FileFunction,Soldermask,Top*%
%TF.FilePolarity,Negative*%
%FSLAX46Y46*%
G04 Gerber Fmt 4.6, Leading zero omitted, Abs format (unit mm)*
G04 Created by KiCad (PCBNEW (5.1.9)-1) date 2021-03-30 21:11:26*
%MOMM*%
%LPD*%
G01*
G04 APERTURE LIST*
%ADD10C,1.800000*%
%ADD11R,1.800000X1.800000*%
%ADD12C,1.700000*%
%ADD13C,4.000000*%
%ADD14C,2.200000*%
%ADD15C,0.800000*%
%ADD16C,6.400000*%
G04 APERTURE END LIST*
D10*
%TO.C,D2*%
X110490000Y-43180000D03*
D11*
X107950000Y-43180000D03*
%TD*%
D10*
%TO.C,D1*%
X110490000Y-36830000D03*
D11*
X107950000Y-36830000D03*
%TD*%
D12*
%TO.C,SW8*%
X180340000Y-91440000D03*
X170180000Y-91440000D03*
D13*
X175260000Y-91440000D03*
D14*
X171450000Y-88900000D03*
X177800000Y-86360000D03*
%TD*%
D12*
%TO.C,SW7*%
X180340000Y-71120000D03*
X170180000Y-71120000D03*
D13*
X175260000Y-71120000D03*
D14*
X171450000Y-68580000D03*
X177800000Y-66040000D03*
%TD*%
D12*
%TO.C,SW6*%
X160020000Y-91440000D03*
X149860000Y-91440000D03*
D13*
X154940000Y-91440000D03*
D14*
X151130000Y-88900000D03*
X157480000Y-86360000D03*
%TD*%
D12*
%TO.C,SW5*%
X160020000Y-71120000D03*
X149860000Y-71120000D03*
D13*
X154940000Y-71120000D03*
D14*
X151130000Y-68580000D03*
X157480000Y-66040000D03*
%TD*%
D12*
%TO.C,SW4*%
X139700000Y-91440000D03*
X129540000Y-91440000D03*
D13*
X134620000Y-91440000D03*
D14*
X130810000Y-88900000D03*
X137160000Y-86360000D03*
%TD*%
D12*
%TO.C,SW3*%
X139700000Y-71120000D03*
X129540000Y-71120000D03*
D13*
X134620000Y-71120000D03*
D14*
X130810000Y-68580000D03*
X137160000Y-66040000D03*
%TD*%
D12*
%TO.C,SW2*%
X119380000Y-91440000D03*
X109220000Y-91440000D03*
D13*
X114300000Y-91440000D03*
D14*
X110490000Y-88900000D03*
X116840000Y-86360000D03*
%TD*%
D12*
%TO.C,SW1*%
X119380000Y-71120000D03*
X109220000Y-71120000D03*
D13*
X114300000Y-71120000D03*
D14*
X110490000Y-68580000D03*
X116840000Y-66040000D03*
%TD*%
D12*
%TO.C,J1*%
X97790000Y-69850000D03*
X97790000Y-72390000D03*
X97790000Y-74930000D03*
X97790000Y-77470000D03*
X97790000Y-80010000D03*
X97790000Y-82550000D03*
X97790000Y-85090000D03*
X97790000Y-87630000D03*
X97790000Y-90170000D03*
X97790000Y-92710000D03*
X100330000Y-69850000D03*
X100330000Y-72390000D03*
X100330000Y-74930000D03*
X100330000Y-77470000D03*
X100330000Y-80010000D03*
X100330000Y-82550000D03*
X100330000Y-85090000D03*
X100330000Y-87630000D03*
X100330000Y-90170000D03*
G36*
G01*
X101180000Y-92110000D02*
X101180000Y-93310000D01*
G75*
G02*
X100930000Y-93560000I-250000J0D01*
G01*
X99730000Y-93560000D01*
G75*
G02*
X99480000Y-93310000I0J250000D01*
G01*
X99480000Y-92110000D01*
G75*
G02*
X99730000Y-91860000I250000J0D01*
G01*
X100930000Y-91860000D01*
G75*
G02*
X101180000Y-92110000I0J-250000D01*
G01*
G37*
%TD*%
D15*
%TO.C,H4*%
X99487056Y-102442944D03*
X97790000Y-101740000D03*
X96092944Y-102442944D03*
X95390000Y-104140000D03*
X96092944Y-105837056D03*
X97790000Y-106540000D03*
X99487056Y-105837056D03*
X100190000Y-104140000D03*
D16*
X97790000Y-104140000D03*
%TD*%
D15*
%TO.C,H3*%
X190927056Y-102442944D03*
X189230000Y-101740000D03*
X187532944Y-102442944D03*
X186830000Y-104140000D03*
X187532944Y-105837056D03*
X189230000Y-106540000D03*
X190927056Y-105837056D03*
X191630000Y-104140000D03*
D16*
X189230000Y-104140000D03*
%TD*%
D15*
%TO.C,H2*%
X190927056Y-31322944D03*
X189230000Y-30620000D03*
X187532944Y-31322944D03*
X186830000Y-33020000D03*
X187532944Y-34717056D03*
X189230000Y-35420000D03*
X190927056Y-34717056D03*
X191630000Y-33020000D03*
D16*
X189230000Y-33020000D03*
%TD*%
D15*
%TO.C,H1*%
X99487056Y-31322944D03*
X97790000Y-30620000D03*
X96092944Y-31322944D03*
X95390000Y-33020000D03*
X96092944Y-34717056D03*
X97790000Y-35420000D03*
X99487056Y-34717056D03*
X100190000Y-33020000D03*
D16*
X97790000Y-33020000D03*
%TD*%
D10*
%TO.C,D19*%
X176530000Y-96520000D03*
D11*
X173990000Y-96520000D03*
%TD*%
D10*
%TO.C,D18*%
X176530000Y-76200000D03*
D11*
X173990000Y-76200000D03*
%TD*%
D10*
%TO.C,D17*%
X156210000Y-96520000D03*
D11*
X153670000Y-96520000D03*
%TD*%
D10*
%TO.C,D16*%
X156210000Y-76200000D03*
D11*
X153670000Y-76200000D03*
%TD*%
D10*
%TO.C,D15*%
X135890000Y-96520000D03*
D11*
X133350000Y-96520000D03*
%TD*%
D10*
%TO.C,D14*%
X135890000Y-76200000D03*
D11*
X133350000Y-76200000D03*
%TD*%
D10*
%TO.C,D13*%
X115570000Y-96520000D03*
D11*
X113030000Y-96520000D03*
%TD*%
D10*
%TO.C,D12*%
X115570000Y-76200000D03*
D11*
X113030000Y-76200000D03*
%TD*%
D10*
%TO.C,D11*%
X162560000Y-49530000D03*
D11*
X160020000Y-49530000D03*
%TD*%
D10*
%TO.C,D10*%
X162560000Y-43180000D03*
D11*
X160020000Y-43180000D03*
%TD*%
D10*
%TO.C,D9*%
X162560000Y-36830000D03*
D11*
X160020000Y-36830000D03*
%TD*%
D10*
%TO.C,D8*%
X137160000Y-36830000D03*
D11*
X134620000Y-36830000D03*
%TD*%
D10*
%TO.C,D7*%
X137160000Y-43180000D03*
D11*
X134620000Y-43180000D03*
%TD*%
M02*
