%TF.GenerationSoftware,KiCad,Pcbnew,(5.1.9)-1*%
%TF.CreationDate,2021-05-31T11:25:02+02:00*%
%TF.ProjectId,RemoteCtrl,52656d6f-7465-4437-9472-6c2e6b696361,v0.1*%
%TF.SameCoordinates,Original*%
%TF.FileFunction,Legend,Top*%
%TF.FilePolarity,Positive*%
%FSLAX46Y46*%
G04 Gerber Fmt 4.6, Leading zero omitted, Abs format (unit mm)*
G04 Created by KiCad (PCBNEW (5.1.9)-1) date 2021-05-31 11:25:02*
%MOMM*%
%LPD*%
G01*
G04 APERTURE LIST*
%ADD10C,0.300000*%
%ADD11C,0.120000*%
%ADD12C,0.150000*%
G04 APERTURE END LIST*
D10*
X113701190Y-58054761D02*
X113701190Y-56054761D01*
X114653571Y-56721428D02*
X114653571Y-58054761D01*
X114653571Y-56911904D02*
X114748809Y-56816666D01*
X114939285Y-56721428D01*
X115225000Y-56721428D01*
X115415476Y-56816666D01*
X115510714Y-57007142D01*
X115510714Y-58054761D01*
X116177380Y-56721428D02*
X116939285Y-56721428D01*
X116463095Y-56054761D02*
X116463095Y-57769047D01*
X116558333Y-57959523D01*
X116748809Y-58054761D01*
X116939285Y-58054761D01*
X118367857Y-57959523D02*
X118177380Y-58054761D01*
X117796428Y-58054761D01*
X117605952Y-57959523D01*
X117510714Y-57769047D01*
X117510714Y-57007142D01*
X117605952Y-56816666D01*
X117796428Y-56721428D01*
X118177380Y-56721428D01*
X118367857Y-56816666D01*
X118463095Y-57007142D01*
X118463095Y-57197619D01*
X117510714Y-57388095D01*
X119320238Y-58054761D02*
X119320238Y-56721428D01*
X119320238Y-57102380D02*
X119415476Y-56911904D01*
X119510714Y-56816666D01*
X119701190Y-56721428D01*
X119891666Y-56721428D01*
X120558333Y-58054761D02*
X120558333Y-56721428D01*
X120558333Y-57102380D02*
X120653571Y-56911904D01*
X120748809Y-56816666D01*
X120939285Y-56721428D01*
X121129761Y-56721428D01*
X122653571Y-56721428D02*
X122653571Y-58054761D01*
X121796428Y-56721428D02*
X121796428Y-57769047D01*
X121891666Y-57959523D01*
X122082142Y-58054761D01*
X122367857Y-58054761D01*
X122558333Y-57959523D01*
X122653571Y-57864285D01*
X123605952Y-56721428D02*
X123605952Y-58721428D01*
X123605952Y-56816666D02*
X123796428Y-56721428D01*
X124177380Y-56721428D01*
X124367857Y-56816666D01*
X124463095Y-56911904D01*
X124558333Y-57102380D01*
X124558333Y-57673809D01*
X124463095Y-57864285D01*
X124367857Y-57959523D01*
X124177380Y-58054761D01*
X123796428Y-58054761D01*
X123605952Y-57959523D01*
X125129761Y-56721428D02*
X125891666Y-56721428D01*
X125415476Y-56054761D02*
X125415476Y-57769047D01*
X125510714Y-57959523D01*
X125701190Y-58054761D01*
X125891666Y-58054761D01*
X114844047Y-51069761D02*
X114177380Y-50117380D01*
X113701190Y-51069761D02*
X113701190Y-49069761D01*
X114463095Y-49069761D01*
X114653571Y-49165000D01*
X114748809Y-49260238D01*
X114844047Y-49450714D01*
X114844047Y-49736428D01*
X114748809Y-49926904D01*
X114653571Y-50022142D01*
X114463095Y-50117380D01*
X113701190Y-50117380D01*
X116463095Y-50974523D02*
X116272619Y-51069761D01*
X115891666Y-51069761D01*
X115701190Y-50974523D01*
X115605952Y-50784047D01*
X115605952Y-50022142D01*
X115701190Y-49831666D01*
X115891666Y-49736428D01*
X116272619Y-49736428D01*
X116463095Y-49831666D01*
X116558333Y-50022142D01*
X116558333Y-50212619D01*
X115605952Y-50403095D01*
X117320238Y-50974523D02*
X117510714Y-51069761D01*
X117891666Y-51069761D01*
X118082142Y-50974523D01*
X118177380Y-50784047D01*
X118177380Y-50688809D01*
X118082142Y-50498333D01*
X117891666Y-50403095D01*
X117605952Y-50403095D01*
X117415476Y-50307857D01*
X117320238Y-50117380D01*
X117320238Y-50022142D01*
X117415476Y-49831666D01*
X117605952Y-49736428D01*
X117891666Y-49736428D01*
X118082142Y-49831666D01*
X119796428Y-50974523D02*
X119605952Y-51069761D01*
X119225000Y-51069761D01*
X119034523Y-50974523D01*
X118939285Y-50784047D01*
X118939285Y-50022142D01*
X119034523Y-49831666D01*
X119225000Y-49736428D01*
X119605952Y-49736428D01*
X119796428Y-49831666D01*
X119891666Y-50022142D01*
X119891666Y-50212619D01*
X118939285Y-50403095D01*
X120463095Y-49736428D02*
X121225000Y-49736428D01*
X120748809Y-49069761D02*
X120748809Y-50784047D01*
X120844047Y-50974523D01*
X121034523Y-51069761D01*
X121225000Y-51069761D01*
X162627857Y-63992142D02*
X162913571Y-64087380D01*
X163008809Y-64182619D01*
X163104047Y-64373095D01*
X163104047Y-64658809D01*
X163008809Y-64849285D01*
X162913571Y-64944523D01*
X162723095Y-65039761D01*
X161961190Y-65039761D01*
X161961190Y-63039761D01*
X162627857Y-63039761D01*
X162818333Y-63135000D01*
X162913571Y-63230238D01*
X163008809Y-63420714D01*
X163008809Y-63611190D01*
X162913571Y-63801666D01*
X162818333Y-63896904D01*
X162627857Y-63992142D01*
X161961190Y-63992142D01*
X163961190Y-65039761D02*
X163961190Y-63706428D01*
X163961190Y-64087380D02*
X164056428Y-63896904D01*
X164151666Y-63801666D01*
X164342142Y-63706428D01*
X164532619Y-63706428D01*
X165961190Y-64944523D02*
X165770714Y-65039761D01*
X165389761Y-65039761D01*
X165199285Y-64944523D01*
X165104047Y-64754047D01*
X165104047Y-63992142D01*
X165199285Y-63801666D01*
X165389761Y-63706428D01*
X165770714Y-63706428D01*
X165961190Y-63801666D01*
X166056428Y-63992142D01*
X166056428Y-64182619D01*
X165104047Y-64373095D01*
X167770714Y-65039761D02*
X167770714Y-63992142D01*
X167675476Y-63801666D01*
X167485000Y-63706428D01*
X167104047Y-63706428D01*
X166913571Y-63801666D01*
X167770714Y-64944523D02*
X167580238Y-65039761D01*
X167104047Y-65039761D01*
X166913571Y-64944523D01*
X166818333Y-64754047D01*
X166818333Y-64563571D01*
X166913571Y-64373095D01*
X167104047Y-64277857D01*
X167580238Y-64277857D01*
X167770714Y-64182619D01*
X168723095Y-65039761D02*
X168723095Y-63039761D01*
X168913571Y-64277857D02*
X169485000Y-65039761D01*
X169485000Y-63706428D02*
X168723095Y-64468333D01*
X170342142Y-63706428D02*
X170342142Y-65706428D01*
X170342142Y-63801666D02*
X170532619Y-63706428D01*
X170913571Y-63706428D01*
X171104047Y-63801666D01*
X171199285Y-63896904D01*
X171294523Y-64087380D01*
X171294523Y-64658809D01*
X171199285Y-64849285D01*
X171104047Y-64944523D01*
X170913571Y-65039761D01*
X170532619Y-65039761D01*
X170342142Y-64944523D01*
X172437380Y-65039761D02*
X172246904Y-64944523D01*
X172151666Y-64849285D01*
X172056428Y-64658809D01*
X172056428Y-64087380D01*
X172151666Y-63896904D01*
X172246904Y-63801666D01*
X172437380Y-63706428D01*
X172723095Y-63706428D01*
X172913571Y-63801666D01*
X173008809Y-63896904D01*
X173104047Y-64087380D01*
X173104047Y-64658809D01*
X173008809Y-64849285D01*
X172913571Y-64944523D01*
X172723095Y-65039761D01*
X172437380Y-65039761D01*
X173961190Y-65039761D02*
X173961190Y-63706428D01*
X173961190Y-63039761D02*
X173865952Y-63135000D01*
X173961190Y-63230238D01*
X174056428Y-63135000D01*
X173961190Y-63039761D01*
X173961190Y-63230238D01*
X174913571Y-63706428D02*
X174913571Y-65039761D01*
X174913571Y-63896904D02*
X175008809Y-63801666D01*
X175199285Y-63706428D01*
X175485000Y-63706428D01*
X175675476Y-63801666D01*
X175770714Y-63992142D01*
X175770714Y-65039761D01*
X176437380Y-63706428D02*
X177199285Y-63706428D01*
X176723095Y-63039761D02*
X176723095Y-64754047D01*
X176818333Y-64944523D01*
X177008809Y-65039761D01*
X177199285Y-65039761D01*
X161865952Y-57959523D02*
X162151666Y-58054761D01*
X162627857Y-58054761D01*
X162818333Y-57959523D01*
X162913571Y-57864285D01*
X163008809Y-57673809D01*
X163008809Y-57483333D01*
X162913571Y-57292857D01*
X162818333Y-57197619D01*
X162627857Y-57102380D01*
X162246904Y-57007142D01*
X162056428Y-56911904D01*
X161961190Y-56816666D01*
X161865952Y-56626190D01*
X161865952Y-56435714D01*
X161961190Y-56245238D01*
X162056428Y-56150000D01*
X162246904Y-56054761D01*
X162723095Y-56054761D01*
X163008809Y-56150000D01*
X163580238Y-56721428D02*
X164342142Y-56721428D01*
X163865952Y-56054761D02*
X163865952Y-57769047D01*
X163961190Y-57959523D01*
X164151666Y-58054761D01*
X164342142Y-58054761D01*
X165770714Y-57959523D02*
X165580238Y-58054761D01*
X165199285Y-58054761D01*
X165008809Y-57959523D01*
X164913571Y-57769047D01*
X164913571Y-57007142D01*
X165008809Y-56816666D01*
X165199285Y-56721428D01*
X165580238Y-56721428D01*
X165770714Y-56816666D01*
X165865952Y-57007142D01*
X165865952Y-57197619D01*
X164913571Y-57388095D01*
X166723095Y-56721428D02*
X166723095Y-58721428D01*
X166723095Y-56816666D02*
X166913571Y-56721428D01*
X167294523Y-56721428D01*
X167485000Y-56816666D01*
X167580238Y-56911904D01*
X167675476Y-57102380D01*
X167675476Y-57673809D01*
X167580238Y-57864285D01*
X167485000Y-57959523D01*
X167294523Y-58054761D01*
X166913571Y-58054761D01*
X166723095Y-57959523D01*
X168532619Y-56721428D02*
X168532619Y-58721428D01*
X168532619Y-56816666D02*
X168723095Y-56721428D01*
X169104047Y-56721428D01*
X169294523Y-56816666D01*
X169389761Y-56911904D01*
X169485000Y-57102380D01*
X169485000Y-57673809D01*
X169389761Y-57864285D01*
X169294523Y-57959523D01*
X169104047Y-58054761D01*
X168723095Y-58054761D01*
X168532619Y-57959523D01*
X170342142Y-58054761D02*
X170342142Y-56721428D01*
X170342142Y-56054761D02*
X170246904Y-56150000D01*
X170342142Y-56245238D01*
X170437380Y-56150000D01*
X170342142Y-56054761D01*
X170342142Y-56245238D01*
X171294523Y-56721428D02*
X171294523Y-58054761D01*
X171294523Y-56911904D02*
X171389761Y-56816666D01*
X171580238Y-56721428D01*
X171865952Y-56721428D01*
X172056428Y-56816666D01*
X172151666Y-57007142D01*
X172151666Y-58054761D01*
X173961190Y-56721428D02*
X173961190Y-58340476D01*
X173865952Y-58530952D01*
X173770714Y-58626190D01*
X173580238Y-58721428D01*
X173294523Y-58721428D01*
X173104047Y-58626190D01*
X173961190Y-57959523D02*
X173770714Y-58054761D01*
X173389761Y-58054761D01*
X173199285Y-57959523D01*
X173104047Y-57864285D01*
X173008809Y-57673809D01*
X173008809Y-57102380D01*
X173104047Y-56911904D01*
X173199285Y-56816666D01*
X173389761Y-56721428D01*
X173770714Y-56721428D01*
X173961190Y-56816666D01*
X161961190Y-51069761D02*
X161961190Y-49069761D01*
X161961190Y-50022142D02*
X163104047Y-50022142D01*
X163104047Y-51069761D02*
X163104047Y-49069761D01*
X163961190Y-50498333D02*
X164913571Y-50498333D01*
X163770714Y-51069761D02*
X164437380Y-49069761D01*
X165104047Y-51069761D01*
X166723095Y-51069761D02*
X165770714Y-51069761D01*
X165770714Y-49069761D01*
X167104047Y-49069761D02*
X168246904Y-49069761D01*
X167675476Y-51069761D02*
X167675476Y-49069761D01*
X170437380Y-51069761D02*
X170437380Y-49069761D01*
X171389761Y-49736428D02*
X171389761Y-51069761D01*
X171389761Y-49926904D02*
X171485000Y-49831666D01*
X171675476Y-49736428D01*
X171961190Y-49736428D01*
X172151666Y-49831666D01*
X172246904Y-50022142D01*
X172246904Y-51069761D01*
X173104047Y-50974523D02*
X173294523Y-51069761D01*
X173675476Y-51069761D01*
X173865952Y-50974523D01*
X173961190Y-50784047D01*
X173961190Y-50688809D01*
X173865952Y-50498333D01*
X173675476Y-50403095D01*
X173389761Y-50403095D01*
X173199285Y-50307857D01*
X173104047Y-50117380D01*
X173104047Y-50022142D01*
X173199285Y-49831666D01*
X173389761Y-49736428D01*
X173675476Y-49736428D01*
X173865952Y-49831666D01*
X174532619Y-49736428D02*
X175294523Y-49736428D01*
X174818333Y-49069761D02*
X174818333Y-50784047D01*
X174913571Y-50974523D01*
X175104047Y-51069761D01*
X175294523Y-51069761D01*
X175961190Y-50879285D02*
X176056428Y-50974523D01*
X175961190Y-51069761D01*
X175865952Y-50974523D01*
X175961190Y-50879285D01*
X175961190Y-51069761D01*
X155484047Y-45354761D02*
X154817380Y-44402380D01*
X154341190Y-45354761D02*
X154341190Y-43354761D01*
X155103095Y-43354761D01*
X155293571Y-43450000D01*
X155388809Y-43545238D01*
X155484047Y-43735714D01*
X155484047Y-44021428D01*
X155388809Y-44211904D01*
X155293571Y-44307142D01*
X155103095Y-44402380D01*
X154341190Y-44402380D01*
X157103095Y-45259523D02*
X156912619Y-45354761D01*
X156531666Y-45354761D01*
X156341190Y-45259523D01*
X156245952Y-45069047D01*
X156245952Y-44307142D01*
X156341190Y-44116666D01*
X156531666Y-44021428D01*
X156912619Y-44021428D01*
X157103095Y-44116666D01*
X157198333Y-44307142D01*
X157198333Y-44497619D01*
X156245952Y-44688095D01*
X158912619Y-45354761D02*
X158912619Y-44307142D01*
X158817380Y-44116666D01*
X158626904Y-44021428D01*
X158245952Y-44021428D01*
X158055476Y-44116666D01*
X158912619Y-45259523D02*
X158722142Y-45354761D01*
X158245952Y-45354761D01*
X158055476Y-45259523D01*
X157960238Y-45069047D01*
X157960238Y-44878571D01*
X158055476Y-44688095D01*
X158245952Y-44592857D01*
X158722142Y-44592857D01*
X158912619Y-44497619D01*
X159769761Y-45259523D02*
X159960238Y-45354761D01*
X160341190Y-45354761D01*
X160531666Y-45259523D01*
X160626904Y-45069047D01*
X160626904Y-44973809D01*
X160531666Y-44783333D01*
X160341190Y-44688095D01*
X160055476Y-44688095D01*
X159865000Y-44592857D01*
X159769761Y-44402380D01*
X159769761Y-44307142D01*
X159865000Y-44116666D01*
X160055476Y-44021428D01*
X160341190Y-44021428D01*
X160531666Y-44116666D01*
X161769761Y-45354761D02*
X161579285Y-45259523D01*
X161484047Y-45164285D01*
X161388809Y-44973809D01*
X161388809Y-44402380D01*
X161484047Y-44211904D01*
X161579285Y-44116666D01*
X161769761Y-44021428D01*
X162055476Y-44021428D01*
X162245952Y-44116666D01*
X162341190Y-44211904D01*
X162436428Y-44402380D01*
X162436428Y-44973809D01*
X162341190Y-45164285D01*
X162245952Y-45259523D01*
X162055476Y-45354761D01*
X161769761Y-45354761D01*
X163293571Y-44021428D02*
X163293571Y-45354761D01*
X163293571Y-44211904D02*
X163388809Y-44116666D01*
X163579285Y-44021428D01*
X163865000Y-44021428D01*
X164055476Y-44116666D01*
X164150714Y-44307142D01*
X164150714Y-45354761D01*
X166341190Y-44021428D02*
X167103095Y-44021428D01*
X166626904Y-45354761D02*
X166626904Y-43640476D01*
X166722142Y-43450000D01*
X166912619Y-43354761D01*
X167103095Y-43354761D01*
X168055476Y-45354761D02*
X167865000Y-45259523D01*
X167769761Y-45164285D01*
X167674523Y-44973809D01*
X167674523Y-44402380D01*
X167769761Y-44211904D01*
X167865000Y-44116666D01*
X168055476Y-44021428D01*
X168341190Y-44021428D01*
X168531666Y-44116666D01*
X168626904Y-44211904D01*
X168722142Y-44402380D01*
X168722142Y-44973809D01*
X168626904Y-45164285D01*
X168531666Y-45259523D01*
X168341190Y-45354761D01*
X168055476Y-45354761D01*
X169579285Y-45354761D02*
X169579285Y-44021428D01*
X169579285Y-44402380D02*
X169674523Y-44211904D01*
X169769761Y-44116666D01*
X169960238Y-44021428D01*
X170150714Y-44021428D01*
X172341190Y-45354761D02*
X172341190Y-43354761D01*
X172341190Y-44307142D02*
X173484047Y-44307142D01*
X173484047Y-45354761D02*
X173484047Y-43354761D01*
X175293571Y-45354761D02*
X175293571Y-44307142D01*
X175198333Y-44116666D01*
X175007857Y-44021428D01*
X174626904Y-44021428D01*
X174436428Y-44116666D01*
X175293571Y-45259523D02*
X175103095Y-45354761D01*
X174626904Y-45354761D01*
X174436428Y-45259523D01*
X174341190Y-45069047D01*
X174341190Y-44878571D01*
X174436428Y-44688095D01*
X174626904Y-44592857D01*
X175103095Y-44592857D01*
X175293571Y-44497619D01*
X176531666Y-45354761D02*
X176341190Y-45259523D01*
X176245952Y-45069047D01*
X176245952Y-43354761D01*
X177007857Y-44021428D02*
X177769761Y-44021428D01*
X177293571Y-43354761D02*
X177293571Y-45069047D01*
X177388809Y-45259523D01*
X177579285Y-45354761D01*
X177769761Y-45354761D01*
X178436428Y-45164285D02*
X178531666Y-45259523D01*
X178436428Y-45354761D01*
X178341190Y-45259523D01*
X178436428Y-45164285D01*
X178436428Y-45354761D01*
X178436428Y-44116666D02*
X178531666Y-44211904D01*
X178436428Y-44307142D01*
X178341190Y-44211904D01*
X178436428Y-44116666D01*
X178436428Y-44307142D01*
X137831190Y-58054761D02*
X137831190Y-56054761D01*
X137831190Y-57007142D02*
X138974047Y-57007142D01*
X138974047Y-58054761D02*
X138974047Y-56054761D01*
X140783571Y-58054761D02*
X140783571Y-57007142D01*
X140688333Y-56816666D01*
X140497857Y-56721428D01*
X140116904Y-56721428D01*
X139926428Y-56816666D01*
X140783571Y-57959523D02*
X140593095Y-58054761D01*
X140116904Y-58054761D01*
X139926428Y-57959523D01*
X139831190Y-57769047D01*
X139831190Y-57578571D01*
X139926428Y-57388095D01*
X140116904Y-57292857D01*
X140593095Y-57292857D01*
X140783571Y-57197619D01*
X142021666Y-58054761D02*
X141831190Y-57959523D01*
X141735952Y-57769047D01*
X141735952Y-56054761D01*
X142497857Y-56721428D02*
X143259761Y-56721428D01*
X142783571Y-56054761D02*
X142783571Y-57769047D01*
X142878809Y-57959523D01*
X143069285Y-58054761D01*
X143259761Y-58054761D01*
X138974047Y-51069761D02*
X138307380Y-50117380D01*
X137831190Y-51069761D02*
X137831190Y-49069761D01*
X138593095Y-49069761D01*
X138783571Y-49165000D01*
X138878809Y-49260238D01*
X138974047Y-49450714D01*
X138974047Y-49736428D01*
X138878809Y-49926904D01*
X138783571Y-50022142D01*
X138593095Y-50117380D01*
X137831190Y-50117380D01*
X140688333Y-49736428D02*
X140688333Y-51069761D01*
X139831190Y-49736428D02*
X139831190Y-50784047D01*
X139926428Y-50974523D01*
X140116904Y-51069761D01*
X140402619Y-51069761D01*
X140593095Y-50974523D01*
X140688333Y-50879285D01*
X141640714Y-49736428D02*
X141640714Y-51069761D01*
X141640714Y-49926904D02*
X141735952Y-49831666D01*
X141926428Y-49736428D01*
X142212142Y-49736428D01*
X142402619Y-49831666D01*
X142497857Y-50022142D01*
X142497857Y-51069761D01*
X143450238Y-49736428D02*
X143450238Y-51069761D01*
X143450238Y-49926904D02*
X143545476Y-49831666D01*
X143735952Y-49736428D01*
X144021666Y-49736428D01*
X144212142Y-49831666D01*
X144307380Y-50022142D01*
X144307380Y-51069761D01*
X145259761Y-51069761D02*
X145259761Y-49736428D01*
X145259761Y-49069761D02*
X145164523Y-49165000D01*
X145259761Y-49260238D01*
X145355000Y-49165000D01*
X145259761Y-49069761D01*
X145259761Y-49260238D01*
X146212142Y-49736428D02*
X146212142Y-51069761D01*
X146212142Y-49926904D02*
X146307380Y-49831666D01*
X146497857Y-49736428D01*
X146783571Y-49736428D01*
X146974047Y-49831666D01*
X147069285Y-50022142D01*
X147069285Y-51069761D01*
X148878809Y-49736428D02*
X148878809Y-51355476D01*
X148783571Y-51545952D01*
X148688333Y-51641190D01*
X148497857Y-51736428D01*
X148212142Y-51736428D01*
X148021666Y-51641190D01*
X148878809Y-50974523D02*
X148688333Y-51069761D01*
X148307380Y-51069761D01*
X148116904Y-50974523D01*
X148021666Y-50879285D01*
X147926428Y-50688809D01*
X147926428Y-50117380D01*
X148021666Y-49926904D01*
X148116904Y-49831666D01*
X148307380Y-49736428D01*
X148688333Y-49736428D01*
X148878809Y-49831666D01*
X106716190Y-44021428D02*
X106716190Y-46021428D01*
X106716190Y-44116666D02*
X106906666Y-44021428D01*
X107287619Y-44021428D01*
X107478095Y-44116666D01*
X107573333Y-44211904D01*
X107668571Y-44402380D01*
X107668571Y-44973809D01*
X107573333Y-45164285D01*
X107478095Y-45259523D01*
X107287619Y-45354761D01*
X106906666Y-45354761D01*
X106716190Y-45259523D01*
X108430476Y-45259523D02*
X108620952Y-45354761D01*
X109001904Y-45354761D01*
X109192380Y-45259523D01*
X109287619Y-45069047D01*
X109287619Y-44973809D01*
X109192380Y-44783333D01*
X109001904Y-44688095D01*
X108716190Y-44688095D01*
X108525714Y-44592857D01*
X108430476Y-44402380D01*
X108430476Y-44307142D01*
X108525714Y-44116666D01*
X108716190Y-44021428D01*
X109001904Y-44021428D01*
X109192380Y-44116666D01*
X110144761Y-45354761D02*
X110144761Y-43354761D01*
X110811428Y-44783333D01*
X111478095Y-43354761D01*
X111478095Y-45354761D01*
X113573333Y-45164285D02*
X113478095Y-45259523D01*
X113192380Y-45354761D01*
X113001904Y-45354761D01*
X112716190Y-45259523D01*
X112525714Y-45069047D01*
X112430476Y-44878571D01*
X112335238Y-44497619D01*
X112335238Y-44211904D01*
X112430476Y-43830952D01*
X112525714Y-43640476D01*
X112716190Y-43450000D01*
X113001904Y-43354761D01*
X113192380Y-43354761D01*
X113478095Y-43450000D01*
X113573333Y-43545238D01*
X114430476Y-43354761D02*
X114430476Y-44973809D01*
X114525714Y-45164285D01*
X114620952Y-45259523D01*
X114811428Y-45354761D01*
X115192380Y-45354761D01*
X115382857Y-45259523D01*
X115478095Y-45164285D01*
X115573333Y-44973809D01*
X115573333Y-43354761D01*
X117954285Y-45259523D02*
X118240000Y-45354761D01*
X118716190Y-45354761D01*
X118906666Y-45259523D01*
X119001904Y-45164285D01*
X119097142Y-44973809D01*
X119097142Y-44783333D01*
X119001904Y-44592857D01*
X118906666Y-44497619D01*
X118716190Y-44402380D01*
X118335238Y-44307142D01*
X118144761Y-44211904D01*
X118049523Y-44116666D01*
X117954285Y-43926190D01*
X117954285Y-43735714D01*
X118049523Y-43545238D01*
X118144761Y-43450000D01*
X118335238Y-43354761D01*
X118811428Y-43354761D01*
X119097142Y-43450000D01*
X119668571Y-44021428D02*
X120430476Y-44021428D01*
X119954285Y-43354761D02*
X119954285Y-45069047D01*
X120049523Y-45259523D01*
X120240000Y-45354761D01*
X120430476Y-45354761D01*
X121954285Y-45354761D02*
X121954285Y-44307142D01*
X121859047Y-44116666D01*
X121668571Y-44021428D01*
X121287619Y-44021428D01*
X121097142Y-44116666D01*
X121954285Y-45259523D02*
X121763809Y-45354761D01*
X121287619Y-45354761D01*
X121097142Y-45259523D01*
X121001904Y-45069047D01*
X121001904Y-44878571D01*
X121097142Y-44688095D01*
X121287619Y-44592857D01*
X121763809Y-44592857D01*
X121954285Y-44497619D01*
X122620952Y-44021428D02*
X123382857Y-44021428D01*
X122906666Y-43354761D02*
X122906666Y-45069047D01*
X123001904Y-45259523D01*
X123192380Y-45354761D01*
X123382857Y-45354761D01*
X124811428Y-45259523D02*
X124620952Y-45354761D01*
X124240000Y-45354761D01*
X124049523Y-45259523D01*
X123954285Y-45069047D01*
X123954285Y-44307142D01*
X124049523Y-44116666D01*
X124240000Y-44021428D01*
X124620952Y-44021428D01*
X124811428Y-44116666D01*
X124906666Y-44307142D01*
X124906666Y-44497619D01*
X123954285Y-44688095D01*
X125763809Y-45164285D02*
X125859047Y-45259523D01*
X125763809Y-45354761D01*
X125668571Y-45259523D01*
X125763809Y-45164285D01*
X125763809Y-45354761D01*
X125763809Y-44116666D02*
X125859047Y-44211904D01*
X125763809Y-44307142D01*
X125668571Y-44211904D01*
X125763809Y-44116666D01*
X125763809Y-44307142D01*
D11*
%TO.C,D11*%
X160470000Y-64134538D02*
G75*
G02*
X154920000Y-65679830I-2990000J-462D01*
G01*
X160470000Y-64135462D02*
G75*
G03*
X154920000Y-62590170I-2990000J462D01*
G01*
X159980000Y-64135000D02*
G75*
G03*
X159980000Y-64135000I-2500000J0D01*
G01*
X154920000Y-62590000D02*
X154920000Y-65680000D01*
%TO.C,D10*%
X160470000Y-57149538D02*
G75*
G02*
X154920000Y-58694830I-2990000J-462D01*
G01*
X160470000Y-57150462D02*
G75*
G03*
X154920000Y-55605170I-2990000J462D01*
G01*
X159980000Y-57150000D02*
G75*
G03*
X159980000Y-57150000I-2500000J0D01*
G01*
X154920000Y-55605000D02*
X154920000Y-58695000D01*
%TO.C,D9*%
X160470000Y-50164538D02*
G75*
G02*
X154920000Y-51709830I-2990000J-462D01*
G01*
X160470000Y-50165462D02*
G75*
G03*
X154920000Y-48620170I-2990000J462D01*
G01*
X159980000Y-50165000D02*
G75*
G03*
X159980000Y-50165000I-2500000J0D01*
G01*
X154920000Y-48620000D02*
X154920000Y-51710000D01*
%TO.C,D8*%
X136340000Y-50164538D02*
G75*
G02*
X130790000Y-51709830I-2990000J-462D01*
G01*
X136340000Y-50165462D02*
G75*
G03*
X130790000Y-48620170I-2990000J462D01*
G01*
X135850000Y-50165000D02*
G75*
G03*
X135850000Y-50165000I-2500000J0D01*
G01*
X130790000Y-48620000D02*
X130790000Y-51710000D01*
%TO.C,D7*%
X136340000Y-57149538D02*
G75*
G02*
X130790000Y-58694830I-2990000J-462D01*
G01*
X136340000Y-57150462D02*
G75*
G03*
X130790000Y-55605170I-2990000J462D01*
G01*
X135850000Y-57150000D02*
G75*
G03*
X135850000Y-57150000I-2500000J0D01*
G01*
X130790000Y-55605000D02*
X130790000Y-58695000D01*
%TO.C,D2*%
X112210000Y-57149538D02*
G75*
G02*
X106660000Y-58694830I-2990000J-462D01*
G01*
X112210000Y-57150462D02*
G75*
G03*
X106660000Y-55605170I-2990000J462D01*
G01*
X111720000Y-57150000D02*
G75*
G03*
X111720000Y-57150000I-2500000J0D01*
G01*
X106660000Y-55605000D02*
X106660000Y-58695000D01*
%TO.C,D1*%
X112210000Y-50164538D02*
G75*
G02*
X106660000Y-51709830I-2990000J-462D01*
G01*
X112210000Y-50165462D02*
G75*
G03*
X106660000Y-48620170I-2990000J462D01*
G01*
X111720000Y-50165000D02*
G75*
G03*
X111720000Y-50165000I-2500000J0D01*
G01*
X106660000Y-48620000D02*
X106660000Y-51710000D01*
%TO.C,J1*%
X105010000Y-94115000D02*
X104010000Y-94615000D01*
X105010000Y-95115000D02*
X105010000Y-94115000D01*
X104010000Y-94615000D02*
X105010000Y-95115000D01*
X102310000Y-81135000D02*
X103620000Y-81135000D01*
X102310000Y-81135000D02*
X102310000Y-81135000D01*
X102310000Y-67845000D02*
X102310000Y-81135000D01*
X95810000Y-67845000D02*
X102310000Y-67845000D01*
X95810000Y-98525000D02*
X95810000Y-67845000D01*
X102310000Y-98525000D02*
X95810000Y-98525000D01*
X102310000Y-85235000D02*
X102310000Y-98525000D01*
X103620000Y-85235000D02*
X102310000Y-85235000D01*
X103620000Y-66545000D02*
X103620000Y-99825000D01*
X94500000Y-66545000D02*
X103620000Y-66545000D01*
X94500000Y-99825000D02*
X94500000Y-66545000D01*
X103620000Y-99825000D02*
X94500000Y-99825000D01*
%TO.C,SW8*%
X165735000Y-104775000D02*
X165735000Y-90805000D01*
X179705000Y-104775000D02*
X165735000Y-104775000D01*
X179705000Y-90805000D02*
X179705000Y-104775000D01*
X165735000Y-90805000D02*
X179705000Y-90805000D01*
%TO.C,SW7*%
X165735000Y-85725000D02*
X165735000Y-71755000D01*
X179705000Y-85725000D02*
X165735000Y-85725000D01*
X179705000Y-71755000D02*
X179705000Y-85725000D01*
X165735000Y-71755000D02*
X179705000Y-71755000D01*
%TO.C,SW6*%
X146685000Y-104775000D02*
X146685000Y-90805000D01*
X160655000Y-104775000D02*
X146685000Y-104775000D01*
X160655000Y-90805000D02*
X160655000Y-104775000D01*
X146685000Y-90805000D02*
X160655000Y-90805000D01*
%TO.C,SW5*%
X146685000Y-85725000D02*
X146685000Y-71755000D01*
X160655000Y-85725000D02*
X146685000Y-85725000D01*
X160655000Y-71755000D02*
X160655000Y-85725000D01*
X146685000Y-71755000D02*
X160655000Y-71755000D01*
%TO.C,SW4*%
X127635000Y-104775000D02*
X127635000Y-90805000D01*
X141605000Y-104775000D02*
X127635000Y-104775000D01*
X141605000Y-90805000D02*
X141605000Y-104775000D01*
X127635000Y-90805000D02*
X141605000Y-90805000D01*
%TO.C,SW3*%
X127635000Y-85725000D02*
X127635000Y-71755000D01*
X141605000Y-85725000D02*
X127635000Y-85725000D01*
X141605000Y-71755000D02*
X141605000Y-85725000D01*
X127635000Y-71755000D02*
X141605000Y-71755000D01*
%TO.C,SW2*%
X108585000Y-104775000D02*
X108585000Y-90805000D01*
X122555000Y-104775000D02*
X108585000Y-104775000D01*
X122555000Y-90805000D02*
X122555000Y-104775000D01*
X108585000Y-90805000D02*
X122555000Y-90805000D01*
%TO.C,SW1*%
X108585000Y-85725000D02*
X108585000Y-71755000D01*
X122555000Y-85725000D02*
X108585000Y-85725000D01*
X122555000Y-71755000D02*
X122555000Y-85725000D01*
X108585000Y-71755000D02*
X122555000Y-71755000D01*
%TO.C,D19*%
X171160000Y-103950000D02*
X171160000Y-104106000D01*
X171160000Y-101634000D02*
X171160000Y-101790000D01*
X173761130Y-103949837D02*
G75*
G02*
X171679039Y-103950000I-1041130J1079837D01*
G01*
X173761130Y-101790163D02*
G75*
G03*
X171679039Y-101790000I-1041130J-1079837D01*
G01*
X174392335Y-103948608D02*
G75*
G02*
X171160000Y-104105516I-1672335J1078608D01*
G01*
X174392335Y-101791392D02*
G75*
G03*
X171160000Y-101634484I-1672335J-1078608D01*
G01*
%TO.C,D18*%
X171160000Y-84900000D02*
X171160000Y-85056000D01*
X171160000Y-82584000D02*
X171160000Y-82740000D01*
X173761130Y-84899837D02*
G75*
G02*
X171679039Y-84900000I-1041130J1079837D01*
G01*
X173761130Y-82740163D02*
G75*
G03*
X171679039Y-82740000I-1041130J-1079837D01*
G01*
X174392335Y-84898608D02*
G75*
G02*
X171160000Y-85055516I-1672335J1078608D01*
G01*
X174392335Y-82741392D02*
G75*
G03*
X171160000Y-82584484I-1672335J-1078608D01*
G01*
%TO.C,D17*%
X152110000Y-103950000D02*
X152110000Y-104106000D01*
X152110000Y-101634000D02*
X152110000Y-101790000D01*
X154711130Y-103949837D02*
G75*
G02*
X152629039Y-103950000I-1041130J1079837D01*
G01*
X154711130Y-101790163D02*
G75*
G03*
X152629039Y-101790000I-1041130J-1079837D01*
G01*
X155342335Y-103948608D02*
G75*
G02*
X152110000Y-104105516I-1672335J1078608D01*
G01*
X155342335Y-101791392D02*
G75*
G03*
X152110000Y-101634484I-1672335J-1078608D01*
G01*
%TO.C,D16*%
X152110000Y-84900000D02*
X152110000Y-85056000D01*
X152110000Y-82584000D02*
X152110000Y-82740000D01*
X154711130Y-84899837D02*
G75*
G02*
X152629039Y-84900000I-1041130J1079837D01*
G01*
X154711130Y-82740163D02*
G75*
G03*
X152629039Y-82740000I-1041130J-1079837D01*
G01*
X155342335Y-84898608D02*
G75*
G02*
X152110000Y-85055516I-1672335J1078608D01*
G01*
X155342335Y-82741392D02*
G75*
G03*
X152110000Y-82584484I-1672335J-1078608D01*
G01*
%TO.C,D15*%
X133060000Y-103950000D02*
X133060000Y-104106000D01*
X133060000Y-101634000D02*
X133060000Y-101790000D01*
X135661130Y-103949837D02*
G75*
G02*
X133579039Y-103950000I-1041130J1079837D01*
G01*
X135661130Y-101790163D02*
G75*
G03*
X133579039Y-101790000I-1041130J-1079837D01*
G01*
X136292335Y-103948608D02*
G75*
G02*
X133060000Y-104105516I-1672335J1078608D01*
G01*
X136292335Y-101791392D02*
G75*
G03*
X133060000Y-101634484I-1672335J-1078608D01*
G01*
%TO.C,D14*%
X133060000Y-84900000D02*
X133060000Y-85056000D01*
X133060000Y-82584000D02*
X133060000Y-82740000D01*
X135661130Y-84899837D02*
G75*
G02*
X133579039Y-84900000I-1041130J1079837D01*
G01*
X135661130Y-82740163D02*
G75*
G03*
X133579039Y-82740000I-1041130J-1079837D01*
G01*
X136292335Y-84898608D02*
G75*
G02*
X133060000Y-85055516I-1672335J1078608D01*
G01*
X136292335Y-82741392D02*
G75*
G03*
X133060000Y-82584484I-1672335J-1078608D01*
G01*
%TO.C,D13*%
X114010000Y-103950000D02*
X114010000Y-104106000D01*
X114010000Y-101634000D02*
X114010000Y-101790000D01*
X116611130Y-103949837D02*
G75*
G02*
X114529039Y-103950000I-1041130J1079837D01*
G01*
X116611130Y-101790163D02*
G75*
G03*
X114529039Y-101790000I-1041130J-1079837D01*
G01*
X117242335Y-103948608D02*
G75*
G02*
X114010000Y-104105516I-1672335J1078608D01*
G01*
X117242335Y-101791392D02*
G75*
G03*
X114010000Y-101634484I-1672335J-1078608D01*
G01*
%TO.C,D12*%
X114010000Y-84900000D02*
X114010000Y-85056000D01*
X114010000Y-82584000D02*
X114010000Y-82740000D01*
X116611130Y-84899837D02*
G75*
G02*
X114529039Y-84900000I-1041130J1079837D01*
G01*
X116611130Y-82740163D02*
G75*
G03*
X114529039Y-82740000I-1041130J-1079837D01*
G01*
X117242335Y-84898608D02*
G75*
G02*
X114010000Y-85055516I-1672335J1078608D01*
G01*
X117242335Y-82741392D02*
G75*
G03*
X114010000Y-82584484I-1672335J-1078608D01*
G01*
%TO.C,D2*%
D12*
X104671904Y-60142380D02*
X104671904Y-59142380D01*
X104910000Y-59142380D01*
X105052857Y-59190000D01*
X105148095Y-59285238D01*
X105195714Y-59380476D01*
X105243333Y-59570952D01*
X105243333Y-59713809D01*
X105195714Y-59904285D01*
X105148095Y-59999523D01*
X105052857Y-60094761D01*
X104910000Y-60142380D01*
X104671904Y-60142380D01*
X105624285Y-59237619D02*
X105671904Y-59190000D01*
X105767142Y-59142380D01*
X106005238Y-59142380D01*
X106100476Y-59190000D01*
X106148095Y-59237619D01*
X106195714Y-59332857D01*
X106195714Y-59428095D01*
X106148095Y-59570952D01*
X105576666Y-60142380D01*
X106195714Y-60142380D01*
%TO.C,J1*%
X98726666Y-100167380D02*
X98726666Y-100881666D01*
X98679047Y-101024523D01*
X98583809Y-101119761D01*
X98440952Y-101167380D01*
X98345714Y-101167380D01*
X99726666Y-101167380D02*
X99155238Y-101167380D01*
X99440952Y-101167380D02*
X99440952Y-100167380D01*
X99345714Y-100310238D01*
X99250476Y-100405476D01*
X99155238Y-100453095D01*
%TO.C,SW8*%
X171386666Y-90574761D02*
X171529523Y-90622380D01*
X171767619Y-90622380D01*
X171862857Y-90574761D01*
X171910476Y-90527142D01*
X171958095Y-90431904D01*
X171958095Y-90336666D01*
X171910476Y-90241428D01*
X171862857Y-90193809D01*
X171767619Y-90146190D01*
X171577142Y-90098571D01*
X171481904Y-90050952D01*
X171434285Y-90003333D01*
X171386666Y-89908095D01*
X171386666Y-89812857D01*
X171434285Y-89717619D01*
X171481904Y-89670000D01*
X171577142Y-89622380D01*
X171815238Y-89622380D01*
X171958095Y-89670000D01*
X172291428Y-89622380D02*
X172529523Y-90622380D01*
X172720000Y-89908095D01*
X172910476Y-90622380D01*
X173148571Y-89622380D01*
X173672380Y-90050952D02*
X173577142Y-90003333D01*
X173529523Y-89955714D01*
X173481904Y-89860476D01*
X173481904Y-89812857D01*
X173529523Y-89717619D01*
X173577142Y-89670000D01*
X173672380Y-89622380D01*
X173862857Y-89622380D01*
X173958095Y-89670000D01*
X174005714Y-89717619D01*
X174053333Y-89812857D01*
X174053333Y-89860476D01*
X174005714Y-89955714D01*
X173958095Y-90003333D01*
X173862857Y-90050952D01*
X173672380Y-90050952D01*
X173577142Y-90098571D01*
X173529523Y-90146190D01*
X173481904Y-90241428D01*
X173481904Y-90431904D01*
X173529523Y-90527142D01*
X173577142Y-90574761D01*
X173672380Y-90622380D01*
X173862857Y-90622380D01*
X173958095Y-90574761D01*
X174005714Y-90527142D01*
X174053333Y-90431904D01*
X174053333Y-90241428D01*
X174005714Y-90146190D01*
X173958095Y-90098571D01*
X173862857Y-90050952D01*
%TO.C,SW7*%
X171386666Y-71524761D02*
X171529523Y-71572380D01*
X171767619Y-71572380D01*
X171862857Y-71524761D01*
X171910476Y-71477142D01*
X171958095Y-71381904D01*
X171958095Y-71286666D01*
X171910476Y-71191428D01*
X171862857Y-71143809D01*
X171767619Y-71096190D01*
X171577142Y-71048571D01*
X171481904Y-71000952D01*
X171434285Y-70953333D01*
X171386666Y-70858095D01*
X171386666Y-70762857D01*
X171434285Y-70667619D01*
X171481904Y-70620000D01*
X171577142Y-70572380D01*
X171815238Y-70572380D01*
X171958095Y-70620000D01*
X172291428Y-70572380D02*
X172529523Y-71572380D01*
X172720000Y-70858095D01*
X172910476Y-71572380D01*
X173148571Y-70572380D01*
X173434285Y-70572380D02*
X174100952Y-70572380D01*
X173672380Y-71572380D01*
%TO.C,SW6*%
X152336666Y-90574761D02*
X152479523Y-90622380D01*
X152717619Y-90622380D01*
X152812857Y-90574761D01*
X152860476Y-90527142D01*
X152908095Y-90431904D01*
X152908095Y-90336666D01*
X152860476Y-90241428D01*
X152812857Y-90193809D01*
X152717619Y-90146190D01*
X152527142Y-90098571D01*
X152431904Y-90050952D01*
X152384285Y-90003333D01*
X152336666Y-89908095D01*
X152336666Y-89812857D01*
X152384285Y-89717619D01*
X152431904Y-89670000D01*
X152527142Y-89622380D01*
X152765238Y-89622380D01*
X152908095Y-89670000D01*
X153241428Y-89622380D02*
X153479523Y-90622380D01*
X153670000Y-89908095D01*
X153860476Y-90622380D01*
X154098571Y-89622380D01*
X154908095Y-89622380D02*
X154717619Y-89622380D01*
X154622380Y-89670000D01*
X154574761Y-89717619D01*
X154479523Y-89860476D01*
X154431904Y-90050952D01*
X154431904Y-90431904D01*
X154479523Y-90527142D01*
X154527142Y-90574761D01*
X154622380Y-90622380D01*
X154812857Y-90622380D01*
X154908095Y-90574761D01*
X154955714Y-90527142D01*
X155003333Y-90431904D01*
X155003333Y-90193809D01*
X154955714Y-90098571D01*
X154908095Y-90050952D01*
X154812857Y-90003333D01*
X154622380Y-90003333D01*
X154527142Y-90050952D01*
X154479523Y-90098571D01*
X154431904Y-90193809D01*
%TO.C,SW5*%
X152336666Y-71524761D02*
X152479523Y-71572380D01*
X152717619Y-71572380D01*
X152812857Y-71524761D01*
X152860476Y-71477142D01*
X152908095Y-71381904D01*
X152908095Y-71286666D01*
X152860476Y-71191428D01*
X152812857Y-71143809D01*
X152717619Y-71096190D01*
X152527142Y-71048571D01*
X152431904Y-71000952D01*
X152384285Y-70953333D01*
X152336666Y-70858095D01*
X152336666Y-70762857D01*
X152384285Y-70667619D01*
X152431904Y-70620000D01*
X152527142Y-70572380D01*
X152765238Y-70572380D01*
X152908095Y-70620000D01*
X153241428Y-70572380D02*
X153479523Y-71572380D01*
X153670000Y-70858095D01*
X153860476Y-71572380D01*
X154098571Y-70572380D01*
X154955714Y-70572380D02*
X154479523Y-70572380D01*
X154431904Y-71048571D01*
X154479523Y-71000952D01*
X154574761Y-70953333D01*
X154812857Y-70953333D01*
X154908095Y-71000952D01*
X154955714Y-71048571D01*
X155003333Y-71143809D01*
X155003333Y-71381904D01*
X154955714Y-71477142D01*
X154908095Y-71524761D01*
X154812857Y-71572380D01*
X154574761Y-71572380D01*
X154479523Y-71524761D01*
X154431904Y-71477142D01*
%TO.C,SW4*%
X133286666Y-90574761D02*
X133429523Y-90622380D01*
X133667619Y-90622380D01*
X133762857Y-90574761D01*
X133810476Y-90527142D01*
X133858095Y-90431904D01*
X133858095Y-90336666D01*
X133810476Y-90241428D01*
X133762857Y-90193809D01*
X133667619Y-90146190D01*
X133477142Y-90098571D01*
X133381904Y-90050952D01*
X133334285Y-90003333D01*
X133286666Y-89908095D01*
X133286666Y-89812857D01*
X133334285Y-89717619D01*
X133381904Y-89670000D01*
X133477142Y-89622380D01*
X133715238Y-89622380D01*
X133858095Y-89670000D01*
X134191428Y-89622380D02*
X134429523Y-90622380D01*
X134620000Y-89908095D01*
X134810476Y-90622380D01*
X135048571Y-89622380D01*
X135858095Y-89955714D02*
X135858095Y-90622380D01*
X135620000Y-89574761D02*
X135381904Y-90289047D01*
X136000952Y-90289047D01*
%TO.C,SW3*%
X133286666Y-71524761D02*
X133429523Y-71572380D01*
X133667619Y-71572380D01*
X133762857Y-71524761D01*
X133810476Y-71477142D01*
X133858095Y-71381904D01*
X133858095Y-71286666D01*
X133810476Y-71191428D01*
X133762857Y-71143809D01*
X133667619Y-71096190D01*
X133477142Y-71048571D01*
X133381904Y-71000952D01*
X133334285Y-70953333D01*
X133286666Y-70858095D01*
X133286666Y-70762857D01*
X133334285Y-70667619D01*
X133381904Y-70620000D01*
X133477142Y-70572380D01*
X133715238Y-70572380D01*
X133858095Y-70620000D01*
X134191428Y-70572380D02*
X134429523Y-71572380D01*
X134620000Y-70858095D01*
X134810476Y-71572380D01*
X135048571Y-70572380D01*
X135334285Y-70572380D02*
X135953333Y-70572380D01*
X135620000Y-70953333D01*
X135762857Y-70953333D01*
X135858095Y-71000952D01*
X135905714Y-71048571D01*
X135953333Y-71143809D01*
X135953333Y-71381904D01*
X135905714Y-71477142D01*
X135858095Y-71524761D01*
X135762857Y-71572380D01*
X135477142Y-71572380D01*
X135381904Y-71524761D01*
X135334285Y-71477142D01*
%TO.C,SW2*%
X114236666Y-90574761D02*
X114379523Y-90622380D01*
X114617619Y-90622380D01*
X114712857Y-90574761D01*
X114760476Y-90527142D01*
X114808095Y-90431904D01*
X114808095Y-90336666D01*
X114760476Y-90241428D01*
X114712857Y-90193809D01*
X114617619Y-90146190D01*
X114427142Y-90098571D01*
X114331904Y-90050952D01*
X114284285Y-90003333D01*
X114236666Y-89908095D01*
X114236666Y-89812857D01*
X114284285Y-89717619D01*
X114331904Y-89670000D01*
X114427142Y-89622380D01*
X114665238Y-89622380D01*
X114808095Y-89670000D01*
X115141428Y-89622380D02*
X115379523Y-90622380D01*
X115570000Y-89908095D01*
X115760476Y-90622380D01*
X115998571Y-89622380D01*
X116331904Y-89717619D02*
X116379523Y-89670000D01*
X116474761Y-89622380D01*
X116712857Y-89622380D01*
X116808095Y-89670000D01*
X116855714Y-89717619D01*
X116903333Y-89812857D01*
X116903333Y-89908095D01*
X116855714Y-90050952D01*
X116284285Y-90622380D01*
X116903333Y-90622380D01*
%TO.C,SW1*%
X114236666Y-71524761D02*
X114379523Y-71572380D01*
X114617619Y-71572380D01*
X114712857Y-71524761D01*
X114760476Y-71477142D01*
X114808095Y-71381904D01*
X114808095Y-71286666D01*
X114760476Y-71191428D01*
X114712857Y-71143809D01*
X114617619Y-71096190D01*
X114427142Y-71048571D01*
X114331904Y-71000952D01*
X114284285Y-70953333D01*
X114236666Y-70858095D01*
X114236666Y-70762857D01*
X114284285Y-70667619D01*
X114331904Y-70620000D01*
X114427142Y-70572380D01*
X114665238Y-70572380D01*
X114808095Y-70620000D01*
X115141428Y-70572380D02*
X115379523Y-71572380D01*
X115570000Y-70858095D01*
X115760476Y-71572380D01*
X115998571Y-70572380D01*
X116903333Y-71572380D02*
X116331904Y-71572380D01*
X116617619Y-71572380D02*
X116617619Y-70572380D01*
X116522380Y-70715238D01*
X116427142Y-70810476D01*
X116331904Y-70858095D01*
%TO.C,D19*%
X169362380Y-104084285D02*
X168362380Y-104084285D01*
X168362380Y-103846190D01*
X168410000Y-103703333D01*
X168505238Y-103608095D01*
X168600476Y-103560476D01*
X168790952Y-103512857D01*
X168933809Y-103512857D01*
X169124285Y-103560476D01*
X169219523Y-103608095D01*
X169314761Y-103703333D01*
X169362380Y-103846190D01*
X169362380Y-104084285D01*
X169362380Y-102560476D02*
X169362380Y-103131904D01*
X169362380Y-102846190D02*
X168362380Y-102846190D01*
X168505238Y-102941428D01*
X168600476Y-103036666D01*
X168648095Y-103131904D01*
X169362380Y-102084285D02*
X169362380Y-101893809D01*
X169314761Y-101798571D01*
X169267142Y-101750952D01*
X169124285Y-101655714D01*
X168933809Y-101608095D01*
X168552857Y-101608095D01*
X168457619Y-101655714D01*
X168410000Y-101703333D01*
X168362380Y-101798571D01*
X168362380Y-101989047D01*
X168410000Y-102084285D01*
X168457619Y-102131904D01*
X168552857Y-102179523D01*
X168790952Y-102179523D01*
X168886190Y-102131904D01*
X168933809Y-102084285D01*
X168981428Y-101989047D01*
X168981428Y-101798571D01*
X168933809Y-101703333D01*
X168886190Y-101655714D01*
X168790952Y-101608095D01*
%TO.C,D18*%
X169362380Y-85034285D02*
X168362380Y-85034285D01*
X168362380Y-84796190D01*
X168410000Y-84653333D01*
X168505238Y-84558095D01*
X168600476Y-84510476D01*
X168790952Y-84462857D01*
X168933809Y-84462857D01*
X169124285Y-84510476D01*
X169219523Y-84558095D01*
X169314761Y-84653333D01*
X169362380Y-84796190D01*
X169362380Y-85034285D01*
X169362380Y-83510476D02*
X169362380Y-84081904D01*
X169362380Y-83796190D02*
X168362380Y-83796190D01*
X168505238Y-83891428D01*
X168600476Y-83986666D01*
X168648095Y-84081904D01*
X168790952Y-82939047D02*
X168743333Y-83034285D01*
X168695714Y-83081904D01*
X168600476Y-83129523D01*
X168552857Y-83129523D01*
X168457619Y-83081904D01*
X168410000Y-83034285D01*
X168362380Y-82939047D01*
X168362380Y-82748571D01*
X168410000Y-82653333D01*
X168457619Y-82605714D01*
X168552857Y-82558095D01*
X168600476Y-82558095D01*
X168695714Y-82605714D01*
X168743333Y-82653333D01*
X168790952Y-82748571D01*
X168790952Y-82939047D01*
X168838571Y-83034285D01*
X168886190Y-83081904D01*
X168981428Y-83129523D01*
X169171904Y-83129523D01*
X169267142Y-83081904D01*
X169314761Y-83034285D01*
X169362380Y-82939047D01*
X169362380Y-82748571D01*
X169314761Y-82653333D01*
X169267142Y-82605714D01*
X169171904Y-82558095D01*
X168981428Y-82558095D01*
X168886190Y-82605714D01*
X168838571Y-82653333D01*
X168790952Y-82748571D01*
%TO.C,D17*%
X150312380Y-104084285D02*
X149312380Y-104084285D01*
X149312380Y-103846190D01*
X149360000Y-103703333D01*
X149455238Y-103608095D01*
X149550476Y-103560476D01*
X149740952Y-103512857D01*
X149883809Y-103512857D01*
X150074285Y-103560476D01*
X150169523Y-103608095D01*
X150264761Y-103703333D01*
X150312380Y-103846190D01*
X150312380Y-104084285D01*
X150312380Y-102560476D02*
X150312380Y-103131904D01*
X150312380Y-102846190D02*
X149312380Y-102846190D01*
X149455238Y-102941428D01*
X149550476Y-103036666D01*
X149598095Y-103131904D01*
X149312380Y-102227142D02*
X149312380Y-101560476D01*
X150312380Y-101989047D01*
%TO.C,D16*%
X150312380Y-85034285D02*
X149312380Y-85034285D01*
X149312380Y-84796190D01*
X149360000Y-84653333D01*
X149455238Y-84558095D01*
X149550476Y-84510476D01*
X149740952Y-84462857D01*
X149883809Y-84462857D01*
X150074285Y-84510476D01*
X150169523Y-84558095D01*
X150264761Y-84653333D01*
X150312380Y-84796190D01*
X150312380Y-85034285D01*
X150312380Y-83510476D02*
X150312380Y-84081904D01*
X150312380Y-83796190D02*
X149312380Y-83796190D01*
X149455238Y-83891428D01*
X149550476Y-83986666D01*
X149598095Y-84081904D01*
X149312380Y-82653333D02*
X149312380Y-82843809D01*
X149360000Y-82939047D01*
X149407619Y-82986666D01*
X149550476Y-83081904D01*
X149740952Y-83129523D01*
X150121904Y-83129523D01*
X150217142Y-83081904D01*
X150264761Y-83034285D01*
X150312380Y-82939047D01*
X150312380Y-82748571D01*
X150264761Y-82653333D01*
X150217142Y-82605714D01*
X150121904Y-82558095D01*
X149883809Y-82558095D01*
X149788571Y-82605714D01*
X149740952Y-82653333D01*
X149693333Y-82748571D01*
X149693333Y-82939047D01*
X149740952Y-83034285D01*
X149788571Y-83081904D01*
X149883809Y-83129523D01*
%TO.C,D15*%
X131262380Y-104084285D02*
X130262380Y-104084285D01*
X130262380Y-103846190D01*
X130310000Y-103703333D01*
X130405238Y-103608095D01*
X130500476Y-103560476D01*
X130690952Y-103512857D01*
X130833809Y-103512857D01*
X131024285Y-103560476D01*
X131119523Y-103608095D01*
X131214761Y-103703333D01*
X131262380Y-103846190D01*
X131262380Y-104084285D01*
X131262380Y-102560476D02*
X131262380Y-103131904D01*
X131262380Y-102846190D02*
X130262380Y-102846190D01*
X130405238Y-102941428D01*
X130500476Y-103036666D01*
X130548095Y-103131904D01*
X130262380Y-101655714D02*
X130262380Y-102131904D01*
X130738571Y-102179523D01*
X130690952Y-102131904D01*
X130643333Y-102036666D01*
X130643333Y-101798571D01*
X130690952Y-101703333D01*
X130738571Y-101655714D01*
X130833809Y-101608095D01*
X131071904Y-101608095D01*
X131167142Y-101655714D01*
X131214761Y-101703333D01*
X131262380Y-101798571D01*
X131262380Y-102036666D01*
X131214761Y-102131904D01*
X131167142Y-102179523D01*
%TO.C,D14*%
X131262380Y-85034285D02*
X130262380Y-85034285D01*
X130262380Y-84796190D01*
X130310000Y-84653333D01*
X130405238Y-84558095D01*
X130500476Y-84510476D01*
X130690952Y-84462857D01*
X130833809Y-84462857D01*
X131024285Y-84510476D01*
X131119523Y-84558095D01*
X131214761Y-84653333D01*
X131262380Y-84796190D01*
X131262380Y-85034285D01*
X131262380Y-83510476D02*
X131262380Y-84081904D01*
X131262380Y-83796190D02*
X130262380Y-83796190D01*
X130405238Y-83891428D01*
X130500476Y-83986666D01*
X130548095Y-84081904D01*
X130595714Y-82653333D02*
X131262380Y-82653333D01*
X130214761Y-82891428D02*
X130929047Y-83129523D01*
X130929047Y-82510476D01*
%TO.C,D13*%
X112212380Y-104084285D02*
X111212380Y-104084285D01*
X111212380Y-103846190D01*
X111260000Y-103703333D01*
X111355238Y-103608095D01*
X111450476Y-103560476D01*
X111640952Y-103512857D01*
X111783809Y-103512857D01*
X111974285Y-103560476D01*
X112069523Y-103608095D01*
X112164761Y-103703333D01*
X112212380Y-103846190D01*
X112212380Y-104084285D01*
X112212380Y-102560476D02*
X112212380Y-103131904D01*
X112212380Y-102846190D02*
X111212380Y-102846190D01*
X111355238Y-102941428D01*
X111450476Y-103036666D01*
X111498095Y-103131904D01*
X111212380Y-102227142D02*
X111212380Y-101608095D01*
X111593333Y-101941428D01*
X111593333Y-101798571D01*
X111640952Y-101703333D01*
X111688571Y-101655714D01*
X111783809Y-101608095D01*
X112021904Y-101608095D01*
X112117142Y-101655714D01*
X112164761Y-101703333D01*
X112212380Y-101798571D01*
X112212380Y-102084285D01*
X112164761Y-102179523D01*
X112117142Y-102227142D01*
%TO.C,D12*%
X112212380Y-85034285D02*
X111212380Y-85034285D01*
X111212380Y-84796190D01*
X111260000Y-84653333D01*
X111355238Y-84558095D01*
X111450476Y-84510476D01*
X111640952Y-84462857D01*
X111783809Y-84462857D01*
X111974285Y-84510476D01*
X112069523Y-84558095D01*
X112164761Y-84653333D01*
X112212380Y-84796190D01*
X112212380Y-85034285D01*
X112212380Y-83510476D02*
X112212380Y-84081904D01*
X112212380Y-83796190D02*
X111212380Y-83796190D01*
X111355238Y-83891428D01*
X111450476Y-83986666D01*
X111498095Y-84081904D01*
X111307619Y-83129523D02*
X111260000Y-83081904D01*
X111212380Y-82986666D01*
X111212380Y-82748571D01*
X111260000Y-82653333D01*
X111307619Y-82605714D01*
X111402857Y-82558095D01*
X111498095Y-82558095D01*
X111640952Y-82605714D01*
X112212380Y-83177142D01*
X112212380Y-82558095D01*
%TD*%
M02*
