M48
; DRILL file {KiCad (5.1.9)-1} date 05/31/21 11:25:05
; FORMAT={-:-/ absolute / inch / decimal}
; #@! TF.CreationDate,2021-05-31T11:25:05+02:00
; #@! TF.GenerationSoftware,Kicad,Pcbnew,(5.1.9)-1
; #@! TF.FileFunction,Plated,1,2,PTH
FMAT,2
INCH
T1C0.0157
T2C0.0197
T3C0.0354
T4C0.0394
T5C0.0591
T6C0.1260
%
G90
G05
T1
X4.25Y-3.8
X4.25Y-4.2
X4.325Y-2.775
X4.5Y-2.75
X4.525Y-2.9
X4.5483Y-3.4983
X4.5483Y-3.6179
X4.55Y-3.675
X4.575Y-2.75
X4.575Y-2.875
X4.6Y-3.4299
X4.9Y-3.4535
X4.925Y-3.725
X5.325Y-2.875
X5.325Y-3.625
X5.375Y-3.55
X5.425Y-2.8
X5.425Y-3.95
X5.45Y-3.25
X5.5Y-2.925
X5.5Y-3.0
X5.6Y-3.225
X5.6577Y-3.3965
X6.075Y-3.7215
X6.125Y-3.525
X6.2Y-3.225
X6.2Y-3.525
X6.25Y-2.775
X6.25Y-3.0
X6.375Y-3.375
X6.3927Y-2.8468
X6.4Y-3.275
X6.439Y-2.964
X6.45Y-3.425
X6.825Y-3.725
X6.85Y-4.2
X6.8712Y-3.552
X6.925Y-3.525
X7.175Y-3.35
T2
X3.7305Y-1.825
X3.7305Y-4.125
X3.7582Y-1.7582
X3.7582Y-1.8918
X3.7582Y-4.0582
X3.7582Y-4.1918
X3.825Y-1.7305
X3.825Y-1.9195
X3.825Y-4.0305
X3.825Y-4.2195
X3.8918Y-1.7582
X3.8918Y-1.8918
X3.8918Y-4.0582
X3.8918Y-4.1918
X3.9195Y-1.825
X3.9195Y-4.125
X7.2805Y-1.825
X7.2805Y-4.125
X7.3082Y-1.7582
X7.3082Y-1.8918
X7.3082Y-4.0582
X7.3082Y-4.1918
X7.375Y-1.7305
X7.375Y-1.9195
X7.375Y-4.0305
X7.375Y-4.2195
X7.4418Y-1.7582
X7.4418Y-1.8918
X7.4418Y-4.0582
X7.4418Y-4.1918
X7.4695Y-1.825
X7.4695Y-4.125
T3
X4.25Y-1.975
X4.25Y-2.25
X4.35Y-1.975
X4.35Y-2.25
X4.5Y-3.3
X4.5Y-4.05
X4.6Y-3.3
X4.6Y-4.05
X5.2Y-1.975
X5.2Y-2.25
X5.25Y-3.3
X5.25Y-4.05
X5.3Y-1.975
X5.3Y-2.25
X5.35Y-3.3
X5.35Y-4.05
X6.0Y-3.3
X6.0Y-4.05
X6.1Y-3.3
X6.1Y-4.05
X6.15Y-1.975
X6.15Y-2.25
X6.15Y-2.525
X6.25Y-1.975
X6.25Y-2.25
X6.25Y-2.525
X6.75Y-3.3
X6.75Y-4.05
X6.85Y-3.3
X6.85Y-4.05
T4
X3.85Y-2.825
X3.85Y-2.925
X3.85Y-3.025
X3.85Y-3.125
X3.85Y-3.225
X3.85Y-3.325
X3.85Y-3.425
X3.85Y-3.525
X3.85Y-3.625
X3.85Y-3.725
X3.95Y-2.825
X3.95Y-2.925
X3.95Y-3.025
X3.95Y-3.125
X3.95Y-3.225
X3.95Y-3.325
X3.95Y-3.425
X3.95Y-3.525
X3.95Y-3.625
X3.95Y-3.725
T5
X4.4Y-3.0
X4.4Y-3.75
X4.65Y-2.9
X4.65Y-3.65
X5.15Y-3.0
X5.15Y-3.75
X5.4Y-2.9
X5.4Y-3.65
X5.9Y-3.0
X5.9Y-3.75
X6.15Y-2.9
X6.15Y-3.65
X6.65Y-3.0
X6.65Y-3.75
X6.9Y-2.9
X6.9Y-3.65
T6
X3.825Y-1.825
X3.825Y-4.125
X7.375Y-1.825
X7.375Y-4.125
T0
M30
