%TF.GenerationSoftware,KiCad,Pcbnew,(5.1.9)-1*%
%TF.CreationDate,2021-05-31T11:41:51+02:00*%
%TF.ProjectId,periph_8x8leds,70657269-7068-45f3-9878-386c6564732e,v1_0*%
%TF.SameCoordinates,Original*%
%TF.FileFunction,Soldermask,Bot*%
%TF.FilePolarity,Negative*%
%FSLAX46Y46*%
G04 Gerber Fmt 4.6, Leading zero omitted, Abs format (unit mm)*
G04 Created by KiCad (PCBNEW (5.1.9)-1) date 2021-05-31 11:41:51*
%MOMM*%
%LPD*%
G01*
G04 APERTURE LIST*
%ADD10C,1.800000*%
%ADD11R,1.800000X1.800000*%
%ADD12C,1.700000*%
%ADD13C,0.800000*%
%ADD14C,6.400000*%
G04 APERTURE END LIST*
D10*
%TO.C,D27*%
X501015000Y-25400000D03*
D11*
X498475000Y-25400000D03*
%TD*%
D10*
%TO.C,D78*%
X485775000Y-63500000D03*
D11*
X483235000Y-63500000D03*
%TD*%
D12*
%TO.C,J2*%
X455295000Y-73660000D03*
X452755000Y-73660000D03*
X450215000Y-73660000D03*
X447675000Y-73660000D03*
X445135000Y-73660000D03*
X442595000Y-73660000D03*
X440055000Y-73660000D03*
X437515000Y-73660000D03*
X434975000Y-73660000D03*
X432435000Y-73660000D03*
X429895000Y-73660000D03*
X427355000Y-73660000D03*
X424815000Y-73660000D03*
X422275000Y-73660000D03*
X419735000Y-73660000D03*
X455295000Y-76200000D03*
X452755000Y-76200000D03*
X450215000Y-76200000D03*
X447675000Y-76200000D03*
X445135000Y-76200000D03*
X442595000Y-76200000D03*
X440055000Y-76200000D03*
X437515000Y-76200000D03*
X434975000Y-76200000D03*
X432435000Y-76200000D03*
X429895000Y-76200000D03*
X427355000Y-76200000D03*
X424815000Y-76200000D03*
X422275000Y-76200000D03*
G36*
G01*
X420335000Y-77050000D02*
X419135000Y-77050000D01*
G75*
G02*
X418885000Y-76800000I0J250000D01*
G01*
X418885000Y-75600000D01*
G75*
G02*
X419135000Y-75350000I250000J0D01*
G01*
X420335000Y-75350000D01*
G75*
G02*
X420585000Y-75600000I0J-250000D01*
G01*
X420585000Y-76800000D01*
G75*
G02*
X420335000Y-77050000I-250000J0D01*
G01*
G37*
%TD*%
%TO.C,J1*%
X455295000Y1905000D03*
X452755000Y1905000D03*
X450215000Y1905000D03*
X447675000Y1905000D03*
X445135000Y1905000D03*
X442595000Y1905000D03*
X440055000Y1905000D03*
X437515000Y1905000D03*
X434975000Y1905000D03*
X432435000Y1905000D03*
X429895000Y1905000D03*
X427355000Y1905000D03*
X424815000Y1905000D03*
X422275000Y1905000D03*
X419735000Y1905000D03*
X455295000Y-635000D03*
X452755000Y-635000D03*
X450215000Y-635000D03*
X447675000Y-635000D03*
X445135000Y-635000D03*
X442595000Y-635000D03*
X440055000Y-635000D03*
X437515000Y-635000D03*
X434975000Y-635000D03*
X432435000Y-635000D03*
X429895000Y-635000D03*
X427355000Y-635000D03*
X424815000Y-635000D03*
X422275000Y-635000D03*
G36*
G01*
X420335000Y-1485000D02*
X419135000Y-1485000D01*
G75*
G02*
X418885000Y-1235000I0J250000D01*
G01*
X418885000Y-35000D01*
G75*
G02*
X419135000Y215000I250000J0D01*
G01*
X420335000Y215000D01*
G75*
G02*
X420585000Y-35000I0J-250000D01*
G01*
X420585000Y-1235000D01*
G75*
G02*
X420335000Y-1485000I-250000J0D01*
G01*
G37*
%TD*%
D13*
%TO.C,H4*%
X411272056Y-75137944D03*
X409575000Y-74435000D03*
X407877944Y-75137944D03*
X407175000Y-76835000D03*
X407877944Y-78532056D03*
X409575000Y-79235000D03*
X411272056Y-78532056D03*
X411975000Y-76835000D03*
D14*
X409575000Y-76835000D03*
%TD*%
D13*
%TO.C,H3*%
X553512056Y-75137944D03*
X551815000Y-74435000D03*
X550117944Y-75137944D03*
X549415000Y-76835000D03*
X550117944Y-78532056D03*
X551815000Y-79235000D03*
X553512056Y-78532056D03*
X554215000Y-76835000D03*
D14*
X551815000Y-76835000D03*
%TD*%
D13*
%TO.C,H2*%
X411272056Y4237056D03*
X409575000Y4940000D03*
X407877944Y4237056D03*
X407175000Y2540000D03*
X407877944Y842944D03*
X409575000Y140000D03*
X411272056Y842944D03*
X411975000Y2540000D03*
D14*
X409575000Y2540000D03*
%TD*%
D13*
%TO.C,H1*%
X553512056Y4237056D03*
X551815000Y4940000D03*
X550117944Y4237056D03*
X549415000Y2540000D03*
X550117944Y842944D03*
X551815000Y140000D03*
X553512056Y842944D03*
X554215000Y2540000D03*
D14*
X551815000Y2540000D03*
%TD*%
D10*
%TO.C,D80*%
X455295000Y-63500000D03*
D11*
X452755000Y-63500000D03*
%TD*%
D10*
%TO.C,D79*%
X470535000Y-63500000D03*
D11*
X467995000Y-63500000D03*
%TD*%
D10*
%TO.C,D77*%
X501015000Y-63500000D03*
D11*
X498475000Y-63500000D03*
%TD*%
D10*
%TO.C,D76*%
X462915000Y-63500000D03*
D11*
X460375000Y-63500000D03*
%TD*%
D10*
%TO.C,D75*%
X478155000Y-63500000D03*
D11*
X475615000Y-63500000D03*
%TD*%
D10*
%TO.C,D74*%
X493395000Y-63500000D03*
D11*
X490855000Y-63500000D03*
%TD*%
D10*
%TO.C,D73*%
X508635000Y-63500000D03*
D11*
X506095000Y-63500000D03*
%TD*%
D10*
%TO.C,D70*%
X455295000Y-55880000D03*
D11*
X452755000Y-55880000D03*
%TD*%
D10*
%TO.C,D69*%
X470535000Y-55880000D03*
D11*
X467995000Y-55880000D03*
%TD*%
D10*
%TO.C,D68*%
X485775000Y-55880000D03*
D11*
X483235000Y-55880000D03*
%TD*%
D10*
%TO.C,D67*%
X501015000Y-55880000D03*
D11*
X498475000Y-55880000D03*
%TD*%
D10*
%TO.C,D66*%
X462915000Y-55880000D03*
D11*
X460375000Y-55880000D03*
%TD*%
D10*
%TO.C,D65*%
X478155000Y-55880000D03*
D11*
X475615000Y-55880000D03*
%TD*%
D10*
%TO.C,D64*%
X493395000Y-55880000D03*
D11*
X490855000Y-55880000D03*
%TD*%
D10*
%TO.C,D63*%
X508635000Y-55880000D03*
D11*
X506095000Y-55880000D03*
%TD*%
D10*
%TO.C,D60*%
X455295000Y-48260000D03*
D11*
X452755000Y-48260000D03*
%TD*%
D10*
%TO.C,D59*%
X470535000Y-48260000D03*
D11*
X467995000Y-48260000D03*
%TD*%
D10*
%TO.C,D58*%
X485775000Y-48260000D03*
D11*
X483235000Y-48260000D03*
%TD*%
D10*
%TO.C,D57*%
X501015000Y-48260000D03*
D11*
X498475000Y-48260000D03*
%TD*%
D10*
%TO.C,D56*%
X462915000Y-48260000D03*
D11*
X460375000Y-48260000D03*
%TD*%
D10*
%TO.C,D55*%
X478155000Y-48260000D03*
D11*
X475615000Y-48260000D03*
%TD*%
D10*
%TO.C,D54*%
X493395000Y-48260000D03*
D11*
X490855000Y-48260000D03*
%TD*%
D10*
%TO.C,D53*%
X508635000Y-48260000D03*
D11*
X506095000Y-48260000D03*
%TD*%
D10*
%TO.C,D50*%
X455295000Y-40640000D03*
D11*
X452755000Y-40640000D03*
%TD*%
D10*
%TO.C,D49*%
X470535000Y-40640000D03*
D11*
X467995000Y-40640000D03*
%TD*%
D10*
%TO.C,D48*%
X485775000Y-40640000D03*
D11*
X483235000Y-40640000D03*
%TD*%
D10*
%TO.C,D47*%
X501015000Y-40640000D03*
D11*
X498475000Y-40640000D03*
%TD*%
D10*
%TO.C,D46*%
X462915000Y-40640000D03*
D11*
X460375000Y-40640000D03*
%TD*%
D10*
%TO.C,D45*%
X478155000Y-40640000D03*
D11*
X475615000Y-40640000D03*
%TD*%
D10*
%TO.C,D44*%
X493395000Y-40640000D03*
D11*
X490855000Y-40640000D03*
%TD*%
D10*
%TO.C,D43*%
X508635000Y-40640000D03*
D11*
X506095000Y-40640000D03*
%TD*%
D10*
%TO.C,D40*%
X455295000Y-33020000D03*
D11*
X452755000Y-33020000D03*
%TD*%
D10*
%TO.C,D39*%
X470535000Y-33020000D03*
D11*
X467995000Y-33020000D03*
%TD*%
D10*
%TO.C,D38*%
X485775000Y-33020000D03*
D11*
X483235000Y-33020000D03*
%TD*%
D10*
%TO.C,D37*%
X501015000Y-33020000D03*
D11*
X498475000Y-33020000D03*
%TD*%
D10*
%TO.C,D36*%
X462915000Y-33020000D03*
D11*
X460375000Y-33020000D03*
%TD*%
D10*
%TO.C,D35*%
X478155000Y-33020000D03*
D11*
X475615000Y-33020000D03*
%TD*%
D10*
%TO.C,D34*%
X493395000Y-33020000D03*
D11*
X490855000Y-33020000D03*
%TD*%
D10*
%TO.C,D33*%
X508635000Y-33020000D03*
D11*
X506095000Y-33020000D03*
%TD*%
D10*
%TO.C,D30*%
X455295000Y-25400000D03*
D11*
X452755000Y-25400000D03*
%TD*%
D10*
%TO.C,D29*%
X470535000Y-25400000D03*
D11*
X467995000Y-25400000D03*
%TD*%
D10*
%TO.C,D28*%
X485775000Y-25400000D03*
D11*
X483235000Y-25400000D03*
%TD*%
D10*
%TO.C,D26*%
X462915000Y-25400000D03*
D11*
X460375000Y-25400000D03*
%TD*%
D10*
%TO.C,D25*%
X478155000Y-25400000D03*
D11*
X475615000Y-25400000D03*
%TD*%
D10*
%TO.C,D24*%
X493395000Y-25400000D03*
D11*
X490855000Y-25400000D03*
%TD*%
D10*
%TO.C,D23*%
X508635000Y-25400000D03*
D11*
X506095000Y-25400000D03*
%TD*%
D10*
%TO.C,D20*%
X455295000Y-17780000D03*
D11*
X452755000Y-17780000D03*
%TD*%
D10*
%TO.C,D19*%
X470535000Y-17780000D03*
D11*
X467995000Y-17780000D03*
%TD*%
D10*
%TO.C,D18*%
X485775000Y-17780000D03*
D11*
X483235000Y-17780000D03*
%TD*%
D10*
%TO.C,D17*%
X501015000Y-17780000D03*
D11*
X498475000Y-17780000D03*
%TD*%
D10*
%TO.C,D16*%
X462915000Y-17780000D03*
D11*
X460375000Y-17780000D03*
%TD*%
D10*
%TO.C,D15*%
X478155000Y-17780000D03*
D11*
X475615000Y-17780000D03*
%TD*%
D10*
%TO.C,D14*%
X493395000Y-17780000D03*
D11*
X490855000Y-17780000D03*
%TD*%
D10*
%TO.C,D13*%
X508635000Y-17780000D03*
D11*
X506095000Y-17780000D03*
%TD*%
D10*
%TO.C,D10*%
X455295000Y-10160000D03*
D11*
X452755000Y-10160000D03*
%TD*%
D10*
%TO.C,D9*%
X470535000Y-10160000D03*
D11*
X467995000Y-10160000D03*
%TD*%
D10*
%TO.C,D8*%
X485775000Y-10160000D03*
D11*
X483235000Y-10160000D03*
%TD*%
D10*
%TO.C,D7*%
X501015000Y-10160000D03*
D11*
X498475000Y-10160000D03*
%TD*%
D10*
%TO.C,D6*%
X462915000Y-10160000D03*
D11*
X460375000Y-10160000D03*
%TD*%
D10*
%TO.C,D5*%
X478155000Y-10160000D03*
D11*
X475615000Y-10160000D03*
%TD*%
D10*
%TO.C,D4*%
X493395000Y-10160000D03*
D11*
X490855000Y-10160000D03*
%TD*%
D10*
%TO.C,D3*%
X508635000Y-10160000D03*
D11*
X506095000Y-10160000D03*
%TD*%
M02*
