M48
; DRILL file {KiCad (5.1.9)-1} date 05/31/21 11:41:53
; FORMAT={-:-/ absolute / inch / decimal}
; #@! TF.CreationDate,2021-05-31T11:41:53+02:00
; #@! TF.GenerationSoftware,Kicad,Pcbnew,(5.1.9)-1
; #@! TF.FileFunction,Plated,1,2,PTH
FMAT,2
INCH
T1C0.0118
T2C0.0157
T3C0.0197
T4C0.0354
T5C0.0394
T6C0.1260
%
G90
G05
T1
X15.975Y-0.1
X15.975Y-0.5
X15.975Y-1.1
X15.975Y-1.7
X15.975Y-2.3
X15.975Y-2.85
X15.9994Y-0.125
X16.0Y-0.525
X16.0Y-1.125
X16.0Y-1.725
X16.0Y-2.325
X16.0Y-2.825
X16.025Y-0.15
X16.025Y-0.55
X16.025Y-1.15
X16.025Y-1.75
X16.025Y-2.35
X16.025Y-2.8
X16.05Y-0.175
X16.05Y-0.575
X16.05Y-1.175
X16.05Y-1.775
X16.05Y-2.375
X16.05Y-2.775
X16.075Y-0.2
X16.075Y-0.6
X16.075Y-1.2
X16.075Y-1.8
X16.075Y-2.4
X16.075Y-2.75
X16.1Y-0.225
X16.1Y-0.625
X16.1Y-1.225
X16.1Y-1.825
X16.1Y-2.425
X16.1Y-2.725
X16.1244Y-0.25
X16.125Y-0.65
X16.125Y-1.25
X16.125Y-1.85
X16.125Y-2.45
X16.125Y-2.7
X16.15Y-0.275
X16.15Y-0.675
X16.15Y-1.275
X16.15Y-1.875
X16.15Y-2.475
X16.15Y-2.675
X16.175Y-0.35
X16.175Y-0.725
X16.175Y-0.95
X16.175Y-1.325
X16.175Y-1.55
X16.175Y-1.925
X16.175Y-2.15
X16.175Y-2.525
X16.2Y-0.5967
X16.2Y-1.1967
X16.2Y-1.7967
X16.2Y-2.3967
X16.2Y-0.6488
X16.2Y-0.6744
X16.2Y-0.7
X16.2Y-1.2488
X16.2Y-1.2744
X16.2Y-1.3
X16.2Y-1.8488
X16.2Y-1.8744
X16.2Y-1.9
X16.2Y-2.4488
X16.2Y-2.4744
X16.2Y-2.5
X16.2Y-0.5711
X16.2Y-1.1711
X16.2Y-1.7711
X16.2Y-2.3711
X16.2013Y-0.6223
X16.2013Y-1.2223
X16.2013Y-1.8223
X16.2013Y-2.4223
X16.2042Y-0.5452
X16.2042Y-1.1452
X16.2042Y-1.7452
X16.2042Y-2.3452
X16.225Y-0.5
X16.225Y-0.775
X16.225Y-1.1
X16.225Y-1.375
X16.225Y-1.7
X16.225Y-1.975
X16.225Y-2.3
X16.225Y-2.575
X16.275Y-0.375
X16.275Y-0.975
X16.275Y-1.575
X16.275Y-2.175
X16.2996Y-0.3882
X16.2996Y-0.9882
X16.2996Y-1.5882
X16.2996Y-2.1882
X16.3Y-0.725
X16.3Y-0.825
X16.3Y-1.325
X16.3Y-1.425
X16.3Y-1.925
X16.3Y-2.025
X16.3Y-2.525
X16.3Y-2.625
X16.3177Y-0.4063
X16.3177Y-1.0063
X16.3177Y-1.6063
X16.3177Y-2.2063
X16.335Y-0.4251
X16.335Y-1.0251
X16.335Y-1.6251
X16.335Y-2.2251
X16.3504Y-0.45
X16.3504Y-1.05
X16.3504Y-1.65
X16.3504Y-2.25
X16.3744Y-0.4744
X16.3744Y-1.0744
X16.3744Y-1.6744
X16.3744Y-2.2744
X16.3975Y-0.4975
X16.3975Y-1.0975
X16.3975Y-1.6975
X16.3975Y-2.2975
X16.4Y-0.6
X16.4Y-1.2
X16.4Y-1.8
X16.402Y-2.402
X16.4247Y-0.622
X16.4247Y-1.222
X16.4247Y-1.822
X16.4247Y-2.422
X16.425Y-0.3
X16.4275Y-0.6475
X16.4275Y-1.2475
X16.4275Y-1.8475
X16.4275Y-2.4475
X16.45Y0.025
X16.5Y-0.325
X16.5Y-0.775
X16.5Y-0.925
X16.5Y-1.375
X16.5Y-1.525
X16.5Y-1.975
X16.5Y-2.125
X16.5Y-2.575
X16.5225Y-0.7275
X16.5225Y-1.3275
X16.5225Y-1.9275
X16.5225Y-2.5275
X16.5236Y-1.251
X16.525Y-0.525
X16.525Y-0.65
X16.525Y-1.125
X16.525Y-1.725
X16.525Y-1.85
X16.525Y-2.325
X16.525Y-2.45
X16.5476Y-0.7516
X16.5476Y-1.3516
X16.5476Y-1.9516
X16.5476Y-2.5516
X16.55Y-0.675
X16.55Y-1.275
X16.55Y-1.875
X16.55Y-2.475
X16.5725Y-1.1975
X16.575Y-0.6
X16.575Y-1.8
X16.575Y-2.4
X16.575Y-2.6699
X16.5775Y-0.6787
X16.5775Y-1.2787
X16.5775Y-1.8787
X16.5775Y-2.4787
X16.6Y-0.425
X16.6Y-1.025
X16.6Y-1.625
X16.6Y-2.225
X16.6213Y-0.6
X16.6213Y-1.2
X16.6213Y-1.8
X16.6213Y-2.4
X16.6325Y-0.7825
X16.6325Y-1.3825
X16.6325Y-1.9825
X16.6325Y-2.5825
X16.675Y-2.1
X16.6797Y-0.4203
X16.6797Y-1.0203
X16.6797Y-1.6203
X16.6797Y-2.2203
X16.7222Y-0.4272
X16.7222Y-1.0272
X16.7222Y-1.6272
X16.7222Y-2.2272
X16.725Y-0.375
X16.725Y-0.825
X16.725Y-0.975
X16.725Y-1.425
X16.725Y-1.575
X16.725Y-2.025
X16.725Y-2.175
X16.725Y-3.075
X16.7257Y-2.5703
X16.7263Y-2.6313
X16.75Y-0.425
X16.75Y-0.9
X16.75Y-1.025
X16.75Y-1.475
X16.75Y-1.625
X16.75Y-2.225
X16.7618Y-0.5455
X16.7699Y-1.139
X16.7699Y-1.739
X16.7699Y-2.339
X16.775Y-3.15
X16.7868Y-1.4777
X16.7868Y-2.1027
X16.7868Y-2.5703
X16.8Y-0.875
X16.8225Y-0.4225
X16.825Y-1.025
X16.8525Y-0.3525
X16.8525Y-0.9525
X16.8632Y-1.5502
X16.8632Y-1.6201
X16.8632Y-2.1502
X16.8632Y-2.2206
X16.875Y-0.825
X16.875Y-1.425
X16.875Y-2.025
X16.875Y-2.627
X16.875Y-3.175
X16.9Y-0.55
X16.9Y-1.15
X16.9Y-1.75
X16.9Y-2.35
X16.925Y-0.5976
X16.925Y-0.6232
X16.925Y-0.6488
X16.925Y-0.6744
X16.925Y-0.7
X16.925Y-1.025
X16.925Y-1.1976
X16.925Y-1.2232
X16.925Y-1.2488
X16.925Y-1.2744
X16.925Y-1.3
X16.925Y-1.625
X16.925Y-1.7976
X16.925Y-1.8232
X16.925Y-1.8488
X16.925Y-1.8744
X16.925Y-1.9
X16.925Y-2.225
X16.925Y-2.3976
X16.925Y-2.4232
X16.925Y-2.4488
X16.925Y-2.4744
X16.925Y-2.5
X16.9264Y-0.426
X16.9349Y-0.315
X16.95Y-2.4
X16.9741Y-2.4991
X16.975Y-0.075
X16.975Y-0.425
X16.975Y-0.7
X16.975Y-1.025
X16.975Y-1.3
X16.975Y-1.625
X16.975Y-1.9
X16.975Y-2.225
X16.9898Y-2.8026
X17.0Y-1.475
X17.0Y-2.1
X17.0056Y-1.0516
X17.0056Y-1.6516
X17.0056Y-2.2516
X17.0058Y-0.4513
X17.025Y-0.425
X17.025Y-1.025
X17.025Y-1.625
X17.025Y-2.225
X17.025Y-3.125
X17.0301Y-0.475
X17.0301Y-1.075
X17.0301Y-1.675
X17.0301Y-2.275
X17.05Y-0.5
X17.05Y-1.1
X17.05Y-1.7
X17.05Y-2.3
X17.0575Y-0.7825
X17.0575Y-1.3825
X17.0575Y-1.9825
X17.0575Y-2.5825
X17.075Y0.2
X17.0975Y-0.1025
X17.1Y-2.275
X17.125Y0.25
X17.125Y-2.575
X17.125Y-3.1
X17.127Y-2.8148
X17.1475Y-2.0275
X17.1496Y-2.4918
X17.1497Y-1.8974
X17.15Y-0.15
X17.15Y-0.575
X17.15Y-0.7
X17.15Y-0.7256
X17.15Y-0.825
X17.15Y-0.875
X17.15Y-1.175
X17.15Y-1.3
X17.15Y-1.3256
X17.15Y-1.425
X17.15Y-1.775
X17.15Y-2.375
X17.1508Y-2.5174
X17.1528Y-1.9228
X17.1537Y-3.1359
X17.1537Y-3.0713
X17.1581Y-2.6118
X17.1696Y-0.6787
X17.1696Y-1.2787
X17.1696Y-1.8761
X17.1696Y-2.4706
X17.175Y-0.375
X17.175Y-0.45
X17.175Y-0.9
X17.175Y-0.975
X17.175Y-1.05
X17.175Y-1.575
X17.175Y-1.65
X17.175Y-2.175
X17.175Y-2.25
X17.175Y-2.95
X17.175Y-2.95
X17.175Y-3.1657
X17.1839Y-0.1118
X17.196Y-0.6691
X17.196Y-1.2691
X17.196Y-1.8691
X17.196Y-2.4691
X17.2Y-0.5
X17.202Y-1.098
X17.204Y-2.7809
X17.2075Y-2.3126
X17.21Y-3.105
X17.2132Y-1.7069
X17.2225Y-0.6475
X17.2225Y-1.8475
X17.2225Y-2.4475
X17.225Y0.225
X17.225Y-0.475
X17.225Y-0.725
X17.225Y-0.7506
X17.225Y-1.075
X17.225Y-1.325
X17.225Y-1.3506
X17.225Y-1.675
X17.225Y-1.925
X17.225Y-1.9506
X17.225Y-2.525
X17.225Y-2.5506
X17.2269Y-1.2502
X17.2275Y-2.2537
X17.2475Y-0.6225
X17.2475Y-1.2225
X17.2475Y-1.8225
X17.2475Y-2.4225
X17.25Y-0.5
X17.25Y-1.1
X17.2557Y-1.7006
X17.2557Y-2.3006
X17.275Y-0.125
X17.275Y-0.3
X17.275Y-0.475
X17.3Y-0.825
X17.3Y-1.425
X17.3Y-2.025
X17.3Y-2.625
X17.3249Y-2.7799
X17.325Y-0.125
X17.325Y-0.55
X17.325Y-1.15
X17.325Y-1.75
X17.325Y-2.35
X17.3275Y0.2213
X17.3343Y-0.6246
X17.3478Y-1.2278
X17.3478Y-1.8278
X17.35Y-1.2789
X17.35Y-1.8789
X17.35Y-0.6795
X17.35Y-0.1
X17.35Y-1.2
X17.35Y-1.8
X17.35Y-2.4
X17.35Y-2.4256
X17.35Y-2.4512
X17.35Y-2.4768
X17.35Y-2.5024
X17.35Y-0.7051
X17.35Y-1.3045
X17.35Y-1.9045
X17.35Y-0.6539
X17.3502Y-1.2533
X17.3502Y-1.8533
X17.3503Y-0.6028
X17.3749Y-2.7787
X17.375Y-0.375
X17.375Y-2.275
X17.3762Y-2.1238
X17.3763Y-0.3187
X17.3805Y-0.925
X17.3805Y-1.5235
X17.4Y-0.175
X17.42Y-3.147
X17.425Y0.1782
X17.4309Y-2.763
X17.4374Y-0.3624
X17.4377Y-0.9584
X17.4377Y-1.5584
X17.4377Y-2.1584
X17.45Y-0.8
X17.45Y-1.4
X17.45Y-2.0
X17.4562Y-0.4523
X17.4562Y-1.0523
X17.4562Y-1.6523
X17.4562Y-2.2523
X17.4606Y-0.7051
X17.4606Y-1.3051
X17.4606Y-1.9051
X17.4606Y-2.5051
X17.4652Y-3.0555
X17.475Y0.125
X17.5Y-0.2
X17.5Y-0.425
X17.5Y-1.025
X17.5Y-1.625
X17.5Y-2.225
X17.5037Y-0.71
X17.5037Y-1.31
X17.5037Y-1.91
X17.5037Y-2.51
X17.5244Y-2.75
X17.525Y-0.075
X17.525Y-0.325
X17.525Y-0.925
X17.525Y-1.075
X17.525Y-1.525
X17.525Y-1.675
X17.525Y-2.125
X17.525Y-2.275
X17.5309Y-0.4683
X17.55Y-2.75
X17.5714Y-0.186
X17.575Y-0.425
X17.575Y-1.025
X17.575Y-1.625
X17.575Y-2.225
X17.6Y-0.675
X17.6Y-0.775
X17.6Y-0.8218
X17.6Y-1.2006
X17.6Y-1.275
X17.6Y-1.375
X17.6Y-1.4219
X17.6Y-1.8213
X17.6Y-1.875
X17.6Y-1.975
X17.6Y-2.0219
X17.6Y-2.4006
X17.6Y-2.475
X17.6Y-2.575
X17.6001Y-0.6028
X17.6025Y-0.7475
X17.6025Y-1.3475
X17.6025Y-1.9475
X17.6025Y-2.5475
X17.6073Y-2.6061
X17.625Y-1.1219
X17.625Y-1.7218
X17.625Y-2.2969
X17.625Y-2.725
X17.625Y-3.164
X17.626Y-0.0949
X17.6274Y-0.2199
X17.6374Y-0.3624
X17.6374Y-0.9626
X17.6374Y-1.5626
X17.6374Y-2.1626
X17.6493Y-0.5382
X17.6534Y-0.7123
X17.6534Y-1.3123
X17.6534Y-1.9123
X17.6534Y-2.5123
X17.666Y-1.7119
X17.6709Y-2.3143
X17.6721Y-0.5213
X17.675Y-1.0968
X17.6774Y-0.2368
X17.7032Y-1.1531
X17.725Y-0.172
X17.725Y-0.325
X17.725Y-0.925
X17.725Y-1.525
X17.725Y-2.125
X17.725Y-2.7
X17.725Y-3.1488
X17.7274Y-0.2484
X17.7281Y-1.7531
X17.7281Y-2.3531
X17.7305Y-0.5532
X17.7475Y-0.1132
X17.75Y-0.6
X17.75Y-0.675
X17.75Y-0.75
X17.75Y-0.8218
X17.75Y-1.2
X17.75Y-1.275
X17.75Y-1.35
X17.75Y-1.4219
X17.75Y-1.875
X17.75Y-1.95
X17.75Y-2.0219
X17.75Y-2.4
X17.75Y-2.475
X17.75Y-2.5467
X17.7516Y-1.8132
X17.7573Y-2.6061
X17.775Y-0.275
X17.8223Y-2.7368
X17.825Y-0.525
X17.825Y-0.85
X17.825Y-1.125
X17.825Y-1.45
X17.825Y-1.725
X17.825Y-2.05
X17.825Y-2.325
X17.8403Y-2.6699
X17.8652Y-2.6808
X17.875Y-2.35
X17.875Y-2.75
X17.875Y-2.7969
X17.9Y-2.275
X17.925Y-2.65
X17.925Y-2.725
X17.9746Y-2.7563
X17.975Y-1.475
X17.975Y-1.75
X17.975Y-2.7
X17.975Y-3.0472
X17.9969Y0.1531
X18.0Y-0.5
X18.0Y-2.825
X18.025Y-0.325
X18.025Y-0.925
X18.025Y-1.525
X18.025Y-2.125
X18.025Y-2.825
X18.0281Y0.1531
X18.0426Y-3.1103
X18.0531Y0.1531
X18.0531Y-0.15
X18.0549Y-2.8201
X18.1Y-2.625
X18.1Y-2.95
X18.1268Y-2.6618
X18.15Y-2.775
X18.15Y-2.875
X18.1537Y-3.0787
X18.175Y-2.85
X18.1756Y-2.775
X18.2225Y-2.9475
X18.225Y-2.8
X18.225Y-2.9744
X18.225Y-3.0
X18.2441Y-2.777
X18.25Y-2.3
X18.275Y-2.1
X18.275Y-2.675
X18.275Y-3.1
X18.3Y-0.225
X18.3037Y-2.0775
X18.3131Y-2.6787
X18.3251Y-0.1486
X18.3476Y-2.6618
X18.35Y-2.875
X18.375Y-2.85
X18.4226Y-2.6618
X18.425Y-2.752
X18.45Y-2.725
X18.5127Y-2.8123
X18.5252Y-3.1002
X18.575Y-3.0
X18.5977Y-2.777
X18.6Y-2.925
X18.6Y-2.975
X18.625Y0.2
X18.625Y-1.65
X18.625Y-2.325
X18.6256Y-2.925
X18.649Y-2.6699
X18.65Y-0.075
X18.6528Y-2.9278
X18.6906Y-2.636
X18.6998Y-3.1002
X18.7223Y-3.072
X18.75Y-2.85
X18.7725Y-2.7775
X18.775Y-2.6699
X18.775Y-2.9
X18.7852Y-3.0148
X18.7993Y-3.1272
X18.8067Y-2.64
X18.824Y-3.037
X18.8382Y-2.9766
X18.85Y-2.7382
X18.8516Y-3.0395
X18.8699Y-2.311
X18.8725Y-2.8725
X18.875Y-2.9244
X18.875Y-2.95
X18.8868Y-0.475
X18.9Y-2.628
X18.9037Y-2.575
X18.9127Y-2.8127
X18.924Y-2.6449
X18.925Y-0.45
X18.9346Y-2.9788
X18.95Y0.1
X18.95Y0.025
X18.95Y-1.975
X18.95Y-2.35
X18.9634Y-2.6235
X18.9669Y-2.9132
X18.975Y-3.025
X19.025Y-2.6449
X19.025Y-3.1488
X19.0976Y-2.6618
X19.1Y-3.075
X19.1156Y-2.8327
X19.1235Y-2.9555
X19.1239Y-2.8752
X19.125Y-2.275
X19.125Y-3.1488
X19.15Y-2.325
X19.15Y-3.025
X19.1506Y-3.15
X19.1726Y-2.6618
X19.175Y-2.35
X19.175Y-2.925
X19.2Y-1.075
X19.2Y-3.15
X19.225Y-0.125
X19.225Y-2.3
X19.225Y-3.125
X19.2382Y-3.025
X19.2389Y-2.6449
X19.25Y-0.1
X19.2551Y-2.725
X19.3Y-2.625
X19.3Y-3.15
X19.3127Y-2.8123
X19.375Y-2.625
X19.4Y-2.65
X19.4208Y-2.6693
X19.425Y-2.6
X19.4266Y-2.7287
X19.4618Y-2.3473
X19.475Y-2.7287
X19.4803Y-2.6524
X19.5Y-0.875
X19.5Y-2.75
X19.5Y-3.075
X19.5182Y-2.837
X19.5242Y-2.8795
X19.525Y-0.275
X19.525Y-3.125
X19.5253Y-2.6656
X19.5275Y-1.3775
X19.5344Y-2.939
X19.55Y-0.775
X19.55Y-3.025
X19.5516Y-2.6226
X19.5536Y-2.6921
X19.5563Y-2.978
X19.575Y-2.0
X19.575Y-2.275
X19.5997Y-2.647
X19.6Y-3.025
X19.6025Y-2.6725
X19.625Y-2.575
X19.65Y-2.725
X19.675Y-0.8
X19.7Y-2.275
X19.7Y-2.45
X19.7127Y-2.8127
X19.7725Y-1.7475
X19.775Y-1.4
X19.8Y-2.45
X19.825Y0.15
X19.825Y-0.575
X19.825Y-1.175
X19.825Y-1.775
X19.825Y-2.375
X19.8382Y-2.5512
X19.8551Y-2.636
X19.9Y-2.875
X19.9Y-3.15
X19.925Y-0.25
X19.925Y-0.625
X19.925Y-0.875
X19.925Y-1.225
X19.925Y-1.45
X19.925Y-1.825
X19.925Y-2.05
X19.925Y-2.425
X19.925Y-2.75
X19.975Y-2.9
X19.975Y-3.15
X20.05Y-3.15
X20.0567Y-2.9463
X20.1Y-0.3
X20.1Y-0.35
X20.1Y-0.45
X20.1Y-0.5
X20.1Y-0.9
X20.1Y-0.95
X20.1Y-1.05
X20.1Y-1.1
X20.1Y-1.5
X20.1Y-1.55
X20.1Y-1.65
X20.1Y-1.7
X20.1Y-2.1
X20.1Y-2.15
X20.1Y-2.25
X20.1Y-2.3
X20.1Y-2.925
X20.125Y-0.625
X20.125Y-0.8
X20.125Y-1.225
X20.125Y-1.4
X20.125Y-1.825
X20.125Y-2.0
X20.125Y-2.425
X20.125Y-2.6
X20.125Y-3.15
X20.2Y-3.0
X20.2Y-3.15
X20.225Y-0.575
X20.225Y-1.175
X20.225Y-1.775
X20.225Y-2.375
X20.25Y-0.2972
X20.25Y-0.3236
X20.25Y-0.35
X20.25Y-0.425
X20.25Y-0.5
X20.25Y-0.8972
X20.25Y-0.9236
X20.25Y-0.95
X20.25Y-1.025
X20.25Y-1.1
X20.25Y-1.4972
X20.25Y-1.5236
X20.25Y-1.55
X20.25Y-1.625
X20.25Y-1.7
X20.25Y-2.0972
X20.25Y-2.1236
X20.25Y-2.15
X20.25Y-2.225
X20.25Y-2.3
X20.2531Y-0.3781
X20.2531Y-0.4531
X20.2531Y-0.5281
X20.2531Y-0.9781
X20.2531Y-1.0531
X20.2531Y-1.1281
X20.2531Y-1.5781
X20.2531Y-1.6531
X20.2531Y-1.7281
X20.2531Y-2.1781
X20.2531Y-2.2531
X20.2531Y-2.3281
X20.275Y-0.75
X20.275Y-1.35
X20.275Y-1.95
X20.275Y-2.55
X20.275Y-3.15
X20.2873Y-2.8127
X20.325Y-0.625
X20.325Y-1.225
X20.325Y-1.825
X20.325Y-2.425
X20.325Y-2.925
X20.325Y-3.075
X20.35Y-0.775
X20.35Y-1.375
X20.35Y-1.975
X20.35Y-2.575
X20.35Y-2.625
X20.375Y-2.75
X20.375Y-3.1
X20.3961Y-0.9809
X20.3969Y-0.325
X20.3969Y-0.375
X20.3969Y-0.45
X20.3969Y-0.525
X20.3994Y-0.925
X20.4Y-1.05
X20.4Y-1.125
X20.4Y-1.525
X20.4Y-1.575
X20.4Y-1.65
X20.4Y-1.725
X20.4Y-2.125
X20.4Y-2.175
X20.4Y-2.25
X20.4Y-2.325
X20.425Y-0.3
X20.425Y-0.575
X20.425Y-0.725
X20.425Y-1.175
X20.425Y-1.325
X20.425Y-1.775
X20.425Y-1.925
X20.425Y-2.375
X20.425Y-2.525
X20.45Y-0.925
X20.45Y-1.525
X20.45Y-2.125
X20.4624Y-2.8624
X20.475Y-0.4
X20.475Y-0.55
X20.475Y-0.9
X20.475Y-1.15
X20.475Y-1.5
X20.475Y-1.75
X20.475Y-2.0994
X20.475Y-2.2014
X20.475Y-2.35
X20.4751Y-1.0014
X20.4751Y-1.6014
X20.4784Y-0.2782
X20.5Y-0.4232
X20.5Y-0.4488
X20.5Y-0.4744
X20.5Y-0.5
X20.5Y-1.0232
X20.5Y-1.0488
X20.5Y-1.0744
X20.5Y-1.1
X20.5Y-1.6232
X20.5Y-1.6488
X20.5Y-1.6744
X20.5Y-1.7
X20.5Y-2.2232
X20.5Y-2.2488
X20.5Y-2.2744
X20.5Y-2.3
X20.5Y-2.675
X20.525Y-0.275
X20.5489Y-2.9169
X20.55Y-0.625
X20.55Y-0.9
X20.55Y-1.225
X20.55Y-1.5
X20.55Y-1.825
X20.55Y-2.1
X20.55Y-2.425
X20.55Y-3.125
X20.575Y-0.5
X20.575Y-1.1
X20.575Y-1.7
X20.575Y-2.3
X20.575Y-2.75
X20.6079Y-0.4714
X20.6079Y-1.0714
X20.6079Y-1.6714
X20.6079Y-2.2714
X20.6444Y-0.4042
X20.6489Y-1.0014
X20.6489Y-1.6014
X20.6489Y-2.2014
X20.6559Y-0.453
X20.6559Y-1.053
X20.6559Y-1.653
X20.6559Y-2.253
X20.6624Y-2.8624
X20.675Y-0.125
X20.675Y-0.25
X20.675Y-0.85
X20.6785Y-0.436
X20.6785Y-1.036
X20.6785Y-1.636
X20.6785Y-2.236
X20.6789Y-0.3532
X20.6789Y-0.9463
X20.6789Y-1.5463
X20.6789Y-2.1463
X20.7Y-0.2969
X20.7Y-0.9
X20.7Y-1.5
X20.7Y-2.1
X20.7Y-2.9
X20.7004Y-0.4191
X20.7012Y-1.0191
X20.7012Y-1.6191
X20.7012Y-2.2191
X20.7041Y-0.9509
X20.7041Y-1.5509
X20.7041Y-2.1509
X20.7045Y-0.3532
X20.725Y-0.625
X20.725Y-1.225
X20.725Y-1.825
X20.725Y-2.425
X20.75Y-0.575
X20.75Y-1.175
X20.75Y-1.775
X20.75Y-2.375
X20.75Y-2.75
X20.75Y-2.925
X20.775Y-0.35
X20.775Y-0.95
X20.775Y-1.55
X20.775Y-2.15
X20.7994Y-0.6756
X20.7994Y-1.2756
X20.7994Y-1.8756
X20.7994Y-2.4756
X20.8Y-0.4
X20.8Y-0.65
X20.8Y-1.0
X20.8Y-1.25
X20.8Y-1.6
X20.8Y-1.85
X20.8Y-2.2
X20.8Y-2.45
X20.825Y-0.675
X20.825Y-0.85
X20.825Y-1.275
X20.825Y-1.875
X20.825Y-2.475
X20.85Y0.25
X20.85Y-0.275
X20.85Y-1.475
X20.85Y-2.075
X20.8524Y-0.8745
X20.8624Y-2.8626
X20.875Y0.225
X20.875Y-0.575
X20.875Y-0.725
X20.875Y-1.175
X20.875Y-1.325
X20.875Y-1.775
X20.875Y-1.925
X20.875Y-2.375
X20.875Y-2.525
X20.885Y-1.3787
X20.8975Y-0.7775
X20.8975Y-1.9775
X20.8975Y-2.5775
X20.9Y0.2
X20.9Y-0.225
X20.9Y-0.375
X20.9Y-0.55
X20.9Y-0.975
X20.9Y-1.15
X20.9Y-1.575
X20.9Y-1.75
X20.9Y-2.175
X20.9Y-2.35
X20.9Y-2.95
X20.925Y0.175
X20.925Y-0.2
X20.9374Y-2.8624
X20.95Y-0.175
X20.9552Y-2.8992
X20.975Y-0.3
X20.975Y-0.625
X20.975Y-0.9
X20.975Y-1.225
X20.975Y-1.5
X20.975Y-1.825
X20.975Y-2.1
X20.975Y-2.425
X20.975Y-2.75
X21.0118Y-1.0438
X21.0228Y-1.6367
X21.0264Y-0.4719
X21.0264Y-1.0719
X21.0264Y-1.6719
X21.0264Y-2.2719
X21.0275Y-0.4975
X21.0275Y-1.0975
X21.0275Y-1.6975
X21.0275Y-2.2975
X21.0281Y-0.4435
X21.0281Y-2.2435
X21.0449Y-1.025
X21.048Y-1.6281
X21.05Y-0.425
X21.05Y-2.225
X21.05Y-3.15
X21.05Y-0.9999
X21.0593Y-1.5843
X21.0593Y-2.1843
X21.0624Y-2.8624
X21.075Y-0.4
X21.075Y-0.5
X21.075Y-1.1
X21.075Y-1.7
X21.075Y-2.3
X21.075Y-2.675
X21.0769Y-2.2029
X21.0927Y-1.6133
X21.0963Y-1.0
X21.1Y-0.3
X21.1Y-0.9
X21.1Y-1.5
X21.1Y-2.1
X21.1037Y-2.1787
X21.125Y-0.825
X21.125Y-1.425
X21.125Y-2.025
X21.125Y-2.625
X21.15Y-0.25
X21.15Y-0.475
X21.15Y-0.625
X21.15Y-1.075
X21.15Y-1.225
X21.15Y-1.675
X21.15Y-1.825
X21.15Y-2.275
X21.15Y-2.425
X21.1668Y-0.85
X21.1668Y-1.45
X21.1734Y-0.5963
X21.1734Y-1.1963
X21.1734Y-1.7963
X21.1734Y-2.3963
X21.175Y-2.05
X21.2175Y-0.3425
X21.2175Y-0.9425
X21.2175Y-1.5425
X21.2175Y-2.1425
X21.2217Y-0.3968
X21.2217Y-0.9968
X21.2217Y-1.5968
X21.2217Y-2.1968
X21.2468Y-0.4018
X21.2468Y-1.0018
X21.2468Y-1.6018
X21.2468Y-2.2018
X21.25Y-0.4782
X21.25Y-1.0782
X21.25Y-1.6782
X21.25Y-2.2782
X21.2543Y-0.5963
X21.2543Y-1.1963
X21.2543Y-1.7963
X21.2543Y-2.3963
X21.2576Y-0.5027
X21.2576Y-1.1027
X21.2576Y-1.7027
X21.2576Y-2.3027
X21.275Y-0.25
X21.275Y-0.85
X21.275Y-1.45
X21.275Y-2.05
X21.2772Y-0.4795
X21.2772Y-1.0795
X21.2772Y-1.6795
X21.2772Y-2.2795
X21.2818Y-0.5609
X21.2818Y-1.1609
X21.2818Y-1.7609
X21.2818Y-2.3609
X21.2946Y-0.3789
X21.2946Y-0.9789
X21.2946Y-1.5789
X21.2946Y-2.1789
X21.325Y-0.35
X21.325Y-0.5
X21.325Y-0.95
X21.325Y-1.1
X21.325Y-1.55
X21.325Y-1.7
X21.325Y-2.15
X21.325Y-2.3
X21.35Y-0.8
X21.35Y-1.4
X21.35Y-2.0
X21.35Y-2.6
X21.375Y-0.65
X21.375Y-1.25
X21.375Y-1.85
X21.375Y-2.45
X21.425Y-0.275
X21.425Y-0.3976
X21.425Y-0.4232
X21.425Y-0.4488
X21.425Y-0.4744
X21.425Y-0.5
X21.425Y-0.5256
X21.425Y-0.5512
X21.425Y-0.5768
X21.425Y-0.875
X21.425Y-0.9976
X21.425Y-1.0232
X21.425Y-1.0488
X21.425Y-1.0744
X21.425Y-1.1
X21.425Y-1.1256
X21.425Y-1.1512
X21.425Y-1.1768
X21.425Y-1.475
X21.425Y-1.5976
X21.425Y-1.6232
X21.425Y-1.6488
X21.425Y-1.6744
X21.425Y-1.7
X21.425Y-1.7256
X21.425Y-1.7512
X21.425Y-1.7768
X21.425Y-2.075
X21.425Y-2.1976
X21.425Y-2.2232
X21.425Y-2.2488
X21.425Y-2.2744
X21.425Y-2.3
X21.425Y-2.3256
X21.425Y-2.3512
X21.425Y-2.3768
X21.475Y-0.475
X21.475Y-1.075
X21.475Y-1.675
X21.475Y-2.275
X21.5Y-0.275
X21.5Y-0.425
X21.5Y-0.825
X21.5Y-0.875
X21.5Y-1.025
X21.5Y-1.425
X21.5Y-1.475
X21.5Y-1.625
X21.5Y-2.025
X21.5Y-2.075
X21.5Y-2.225
X21.5Y-2.625
X21.5025Y-0.5975
X21.5025Y-1.1975
X21.5025Y-1.7975
X21.5025Y-2.3975
X21.525Y-0.575
X21.525Y-1.175
X21.525Y-1.775
X21.525Y-2.375
X21.5322Y-0.3957
X21.5322Y-0.9957
X21.5322Y-1.5957
X21.5322Y-2.1957
X21.5382Y-0.5069
X21.5382Y-1.1069
X21.5382Y-1.7069
X21.5382Y-2.3069
X21.55Y-0.275
X21.55Y-0.7
X21.55Y-0.875
X21.55Y-1.3
X21.55Y-1.475
X21.55Y-1.9
X21.55Y-2.075
X21.55Y-2.5
X21.5579Y-0.4501
X21.5579Y-1.0501
X21.5579Y-1.6501
X21.5579Y-2.2501
X21.575Y-0.325
X21.575Y-0.6756
X21.575Y-0.925
X21.575Y-1.2756
X21.575Y-1.525
X21.575Y-1.8756
X21.575Y-2.125
X21.575Y-2.4756
X21.576Y-0.65
X21.576Y-1.25
X21.576Y-1.85
X21.576Y-2.45
X21.6127Y-0.3364
X21.6127Y-0.9364
X21.6127Y-1.5364
X21.6127Y-2.1364
X21.65Y-0.422
X21.65Y-0.4476
X21.65Y-0.4732
X21.65Y-0.4988
X21.65Y-0.5244
X21.65Y-0.55
X21.65Y-0.5756
X21.65Y-0.6012
X21.65Y-0.775
X21.65Y-1.022
X21.65Y-1.0476
X21.65Y-1.0732
X21.65Y-1.0988
X21.65Y-1.1244
X21.65Y-1.15
X21.65Y-1.1756
X21.65Y-1.2012
X21.65Y-1.375
X21.65Y-1.6226
X21.65Y-1.6482
X21.65Y-1.6738
X21.65Y-1.6994
X21.65Y-1.725
X21.65Y-1.7506
X21.65Y-1.7762
X21.65Y-1.8018
X21.65Y-1.975
X21.65Y-2.222
X21.65Y-2.2476
X21.65Y-2.2732
X21.65Y-2.2988
X21.65Y-2.3244
X21.65Y-2.35
X21.65Y-2.3756
X21.65Y-2.4012
X21.65Y-2.575
X21.7Y-0.6
X21.7Y-1.2
X21.7Y-1.8
X21.7Y-2.4
X21.725Y-0.575
X21.725Y-1.175
X21.725Y-1.775
X21.725Y-2.375
X21.75Y-0.225
X21.75Y-0.55
X21.75Y-1.15
X21.75Y-1.75
X21.75Y-2.35
X21.775Y-0.2
X21.775Y-0.525
X21.775Y-1.125
X21.775Y-1.725
X21.775Y-2.325
X21.8Y-0.175
X21.8Y-0.5
X21.8Y-1.1
X21.8Y-1.7
X21.8Y-2.3
X21.825Y-0.15
X21.825Y-0.475
X21.825Y-1.075
X21.825Y-1.675
X21.825Y-2.275
X21.85Y-0.45
X21.85Y-1.05
X21.85Y-1.65
X21.85Y-2.25
X21.875Y-0.125
X21.875Y-0.425
X21.875Y-1.025
X21.875Y-1.625
X21.875Y-2.225
T2
X18.1Y-0.025
X18.425Y-0.025
X18.725Y-0.025
X19.025Y-0.025
X19.325Y-0.025
X19.625Y-0.025
X19.925Y-0.025
T3
X16.0305Y0.1
X16.0305Y-3.025
X16.0582Y0.1668
X16.0582Y0.0332
X16.0582Y-2.9582
X16.0582Y-3.0918
X16.125Y0.1945
X16.125Y0.0055
X16.125Y-2.9305
X16.125Y-3.1195
X16.1918Y0.1668
X16.1918Y0.0332
X16.1918Y-2.9582
X16.1918Y-3.0918
X16.2195Y0.1
X16.2195Y-3.025
X21.6305Y0.1
X21.6305Y-3.025
X21.6582Y0.1668
X21.6582Y0.0332
X21.6582Y-2.9582
X21.6582Y-3.0918
X21.725Y0.1945
X21.725Y0.0055
X21.725Y-2.9305
X21.725Y-3.1195
X21.7918Y0.1668
X21.7918Y0.0332
X21.7918Y-2.9582
X21.7918Y-3.0918
X21.8195Y0.1
X21.8195Y-3.025
T4
X17.825Y-0.4
X17.825Y-0.7
X17.825Y-1.0
X17.825Y-1.3
X17.825Y-1.6
X17.825Y-1.9
X17.825Y-2.2
X17.825Y-2.5
X17.925Y-0.4
X17.925Y-0.7
X17.925Y-1.0
X17.925Y-1.3
X17.925Y-1.6
X17.925Y-1.9
X17.925Y-2.2
X17.925Y-2.5
X18.125Y-0.4
X18.125Y-0.7
X18.125Y-1.0
X18.125Y-1.3
X18.125Y-1.6
X18.125Y-1.9
X18.125Y-2.2
X18.125Y-2.5
X18.225Y-0.4
X18.225Y-0.7
X18.225Y-1.0
X18.225Y-1.3
X18.225Y-1.6
X18.225Y-1.9
X18.225Y-2.2
X18.225Y-2.5
X18.425Y-0.4
X18.425Y-0.7
X18.425Y-1.0
X18.425Y-1.3
X18.425Y-1.6
X18.425Y-1.9
X18.425Y-2.2
X18.425Y-2.5
X18.525Y-0.4
X18.525Y-0.7
X18.525Y-1.0
X18.525Y-1.3
X18.525Y-1.6
X18.525Y-1.9
X18.525Y-2.2
X18.525Y-2.5
X18.725Y-0.4
X18.725Y-0.7
X18.725Y-1.0
X18.725Y-1.3
X18.725Y-1.6
X18.725Y-1.9
X18.725Y-2.2
X18.725Y-2.5
X18.825Y-0.4
X18.825Y-0.7
X18.825Y-1.0
X18.825Y-1.3
X18.825Y-1.6
X18.825Y-1.9
X18.825Y-2.2
X18.825Y-2.5
X19.025Y-0.4
X19.025Y-0.7
X19.025Y-1.0
X19.025Y-1.3
X19.025Y-1.6
X19.025Y-1.9
X19.025Y-2.2
X19.025Y-2.5
X19.125Y-0.4
X19.125Y-0.7
X19.125Y-1.0
X19.125Y-1.3
X19.125Y-1.6
X19.125Y-1.9
X19.125Y-2.2
X19.125Y-2.5
X19.325Y-0.4
X19.325Y-0.7
X19.325Y-1.0
X19.325Y-1.3
X19.325Y-1.6
X19.325Y-1.9
X19.325Y-2.2
X19.325Y-2.5
X19.425Y-0.4
X19.425Y-0.7
X19.425Y-1.0
X19.425Y-1.3
X19.425Y-1.6
X19.425Y-1.9
X19.425Y-2.2
X19.425Y-2.5
X19.625Y-0.4
X19.625Y-0.7
X19.625Y-1.0
X19.625Y-1.3
X19.625Y-1.6
X19.625Y-1.9
X19.625Y-2.2
X19.625Y-2.5
X19.725Y-0.4
X19.725Y-0.7
X19.725Y-1.0
X19.725Y-1.3
X19.725Y-1.6
X19.725Y-1.9
X19.725Y-2.2
X19.725Y-2.5
X19.925Y-0.4
X19.925Y-0.7
X19.925Y-1.0
X19.925Y-1.3
X19.925Y-1.6
X19.925Y-1.9
X19.925Y-2.2
X19.925Y-2.5
X20.025Y-0.4
X20.025Y-0.7
X20.025Y-1.0
X20.025Y-1.3
X20.025Y-1.6
X20.025Y-1.9
X20.025Y-2.2
X20.025Y-2.5
T5
X16.525Y0.075
X16.525Y-0.025
X16.525Y-2.9
X16.525Y-3.0
X16.625Y0.075
X16.625Y-0.025
X16.625Y-2.9
X16.625Y-3.0
X16.725Y0.075
X16.725Y-0.025
X16.725Y-2.9
X16.725Y-3.0
X16.825Y0.075
X16.825Y-0.025
X16.825Y-2.9
X16.825Y-3.0
X16.925Y0.075
X16.925Y-0.025
X16.925Y-2.9
X16.925Y-3.0
X17.025Y0.075
X17.025Y-0.025
X17.025Y-2.9
X17.025Y-3.0
X17.125Y0.075
X17.125Y-0.025
X17.125Y-2.9
X17.125Y-3.0
X17.225Y0.075
X17.225Y-0.025
X17.225Y-2.9
X17.225Y-3.0
X17.325Y0.075
X17.325Y-0.025
X17.325Y-2.9
X17.325Y-3.0
X17.425Y0.075
X17.425Y-0.025
X17.425Y-2.9
X17.425Y-3.0
X17.525Y0.075
X17.525Y-0.025
X17.525Y-2.9
X17.525Y-3.0
X17.625Y0.075
X17.625Y-0.025
X17.625Y-2.9
X17.625Y-3.0
X17.725Y0.075
X17.725Y-0.025
X17.725Y-2.9
X17.725Y-3.0
X17.825Y0.075
X17.825Y-0.025
X17.825Y-2.9
X17.825Y-3.0
X17.925Y0.075
X17.925Y-0.025
X17.925Y-2.9
X17.925Y-3.0
T6
X16.125Y0.1
X16.125Y-3.025
X21.725Y0.1
X21.725Y-3.025
T0
M30
