G04 #@! TF.GenerationSoftware,KiCad,Pcbnew,(5.1.5)-3*
G04 #@! TF.CreationDate,2020-06-15T09:36:13+02:00*
G04 #@! TF.ProjectId,StateMachineTest,53746174-654d-4616-9368-696e65546573,rev?*
G04 #@! TF.SameCoordinates,Original*
G04 #@! TF.FileFunction,Soldermask,Bot*
G04 #@! TF.FilePolarity,Negative*
%FSLAX46Y46*%
G04 Gerber Fmt 4.6, Leading zero omitted, Abs format (unit mm)*
G04 Created by KiCad (PCBNEW (5.1.5)-3) date 2020-06-15 09:36:13*
%MOMM*%
%LPD*%
G04 APERTURE LIST*
%ADD10C,0.100000*%
G04 APERTURE END LIST*
D10*
G36*
X180011564Y-148269389D02*
G01*
X180202833Y-148348615D01*
X180202835Y-148348616D01*
X180374973Y-148463635D01*
X180521365Y-148610027D01*
X180636385Y-148782167D01*
X180715611Y-148973436D01*
X180756000Y-149176484D01*
X180756000Y-149383516D01*
X180715611Y-149586564D01*
X180636385Y-149777833D01*
X180636384Y-149777835D01*
X180521365Y-149949973D01*
X180374973Y-150096365D01*
X180202835Y-150211384D01*
X180202834Y-150211385D01*
X180202833Y-150211385D01*
X180011564Y-150290611D01*
X179808516Y-150331000D01*
X179601484Y-150331000D01*
X179398436Y-150290611D01*
X179207167Y-150211385D01*
X179207166Y-150211385D01*
X179207165Y-150211384D01*
X179035027Y-150096365D01*
X178888635Y-149949973D01*
X178773616Y-149777835D01*
X178773615Y-149777833D01*
X178694389Y-149586564D01*
X178654000Y-149383516D01*
X178654000Y-149176484D01*
X178694389Y-148973436D01*
X178773615Y-148782167D01*
X178888635Y-148610027D01*
X179035027Y-148463635D01*
X179207165Y-148348616D01*
X179207167Y-148348615D01*
X179398436Y-148269389D01*
X179601484Y-148229000D01*
X179808516Y-148229000D01*
X180011564Y-148269389D01*
G37*
G36*
X221436564Y-148269389D02*
G01*
X221627833Y-148348615D01*
X221627835Y-148348616D01*
X221799973Y-148463635D01*
X221946365Y-148610027D01*
X222061385Y-148782167D01*
X222140611Y-148973436D01*
X222181000Y-149176484D01*
X222181000Y-149383516D01*
X222140611Y-149586564D01*
X222061385Y-149777833D01*
X222061384Y-149777835D01*
X221946365Y-149949973D01*
X221799973Y-150096365D01*
X221627835Y-150211384D01*
X221627834Y-150211385D01*
X221627833Y-150211385D01*
X221436564Y-150290611D01*
X221233516Y-150331000D01*
X221026484Y-150331000D01*
X220823436Y-150290611D01*
X220632167Y-150211385D01*
X220632166Y-150211385D01*
X220632165Y-150211384D01*
X220460027Y-150096365D01*
X220313635Y-149949973D01*
X220198616Y-149777835D01*
X220198615Y-149777833D01*
X220119389Y-149586564D01*
X220079000Y-149383516D01*
X220079000Y-149176484D01*
X220119389Y-148973436D01*
X220198615Y-148782167D01*
X220313635Y-148610027D01*
X220460027Y-148463635D01*
X220632165Y-148348616D01*
X220632167Y-148348615D01*
X220823436Y-148269389D01*
X221026484Y-148229000D01*
X221233516Y-148229000D01*
X221436564Y-148269389D01*
G37*
G36*
X214936564Y-148269389D02*
G01*
X215127833Y-148348615D01*
X215127835Y-148348616D01*
X215299973Y-148463635D01*
X215446365Y-148610027D01*
X215561385Y-148782167D01*
X215640611Y-148973436D01*
X215681000Y-149176484D01*
X215681000Y-149383516D01*
X215640611Y-149586564D01*
X215561385Y-149777833D01*
X215561384Y-149777835D01*
X215446365Y-149949973D01*
X215299973Y-150096365D01*
X215127835Y-150211384D01*
X215127834Y-150211385D01*
X215127833Y-150211385D01*
X214936564Y-150290611D01*
X214733516Y-150331000D01*
X214526484Y-150331000D01*
X214323436Y-150290611D01*
X214132167Y-150211385D01*
X214132166Y-150211385D01*
X214132165Y-150211384D01*
X213960027Y-150096365D01*
X213813635Y-149949973D01*
X213698616Y-149777835D01*
X213698615Y-149777833D01*
X213619389Y-149586564D01*
X213579000Y-149383516D01*
X213579000Y-149176484D01*
X213619389Y-148973436D01*
X213698615Y-148782167D01*
X213813635Y-148610027D01*
X213960027Y-148463635D01*
X214132165Y-148348616D01*
X214132167Y-148348615D01*
X214323436Y-148269389D01*
X214526484Y-148229000D01*
X214733516Y-148229000D01*
X214936564Y-148269389D01*
G37*
G36*
X186511564Y-148269389D02*
G01*
X186702833Y-148348615D01*
X186702835Y-148348616D01*
X186874973Y-148463635D01*
X187021365Y-148610027D01*
X187136385Y-148782167D01*
X187215611Y-148973436D01*
X187256000Y-149176484D01*
X187256000Y-149383516D01*
X187215611Y-149586564D01*
X187136385Y-149777833D01*
X187136384Y-149777835D01*
X187021365Y-149949973D01*
X186874973Y-150096365D01*
X186702835Y-150211384D01*
X186702834Y-150211385D01*
X186702833Y-150211385D01*
X186511564Y-150290611D01*
X186308516Y-150331000D01*
X186101484Y-150331000D01*
X185898436Y-150290611D01*
X185707167Y-150211385D01*
X185707166Y-150211385D01*
X185707165Y-150211384D01*
X185535027Y-150096365D01*
X185388635Y-149949973D01*
X185273616Y-149777835D01*
X185273615Y-149777833D01*
X185194389Y-149586564D01*
X185154000Y-149383516D01*
X185154000Y-149176484D01*
X185194389Y-148973436D01*
X185273615Y-148782167D01*
X185388635Y-148610027D01*
X185535027Y-148463635D01*
X185707165Y-148348616D01*
X185707167Y-148348615D01*
X185898436Y-148269389D01*
X186101484Y-148229000D01*
X186308516Y-148229000D01*
X186511564Y-148269389D01*
G37*
G36*
X46661564Y-146999389D02*
G01*
X46852833Y-147078615D01*
X46852835Y-147078616D01*
X47024973Y-147193635D01*
X47171365Y-147340027D01*
X47278882Y-147500937D01*
X47286385Y-147512167D01*
X47365611Y-147703436D01*
X47406000Y-147906484D01*
X47406000Y-148113516D01*
X47365611Y-148316564D01*
X47304692Y-148463635D01*
X47286384Y-148507835D01*
X47171365Y-148679973D01*
X47024973Y-148826365D01*
X46852835Y-148941384D01*
X46852834Y-148941385D01*
X46852833Y-148941385D01*
X46661564Y-149020611D01*
X46458516Y-149061000D01*
X46251484Y-149061000D01*
X46048436Y-149020611D01*
X45857167Y-148941385D01*
X45857166Y-148941385D01*
X45857165Y-148941384D01*
X45685027Y-148826365D01*
X45538635Y-148679973D01*
X45423616Y-148507835D01*
X45405308Y-148463635D01*
X45344389Y-148316564D01*
X45304000Y-148113516D01*
X45304000Y-147906484D01*
X45344389Y-147703436D01*
X45423615Y-147512167D01*
X45431119Y-147500937D01*
X45538635Y-147340027D01*
X45685027Y-147193635D01*
X45857165Y-147078616D01*
X45857167Y-147078615D01*
X46048436Y-146999389D01*
X46251484Y-146959000D01*
X46458516Y-146959000D01*
X46661564Y-146999389D01*
G37*
G36*
X53161564Y-146999389D02*
G01*
X53352833Y-147078615D01*
X53352835Y-147078616D01*
X53524973Y-147193635D01*
X53671365Y-147340027D01*
X53778882Y-147500937D01*
X53786385Y-147512167D01*
X53865611Y-147703436D01*
X53906000Y-147906484D01*
X53906000Y-148113516D01*
X53865611Y-148316564D01*
X53804692Y-148463635D01*
X53786384Y-148507835D01*
X53671365Y-148679973D01*
X53524973Y-148826365D01*
X53352835Y-148941384D01*
X53352834Y-148941385D01*
X53352833Y-148941385D01*
X53161564Y-149020611D01*
X52958516Y-149061000D01*
X52751484Y-149061000D01*
X52548436Y-149020611D01*
X52357167Y-148941385D01*
X52357166Y-148941385D01*
X52357165Y-148941384D01*
X52185027Y-148826365D01*
X52038635Y-148679973D01*
X51923616Y-148507835D01*
X51905308Y-148463635D01*
X51844389Y-148316564D01*
X51804000Y-148113516D01*
X51804000Y-147906484D01*
X51844389Y-147703436D01*
X51923615Y-147512167D01*
X51931119Y-147500937D01*
X52038635Y-147340027D01*
X52185027Y-147193635D01*
X52357165Y-147078616D01*
X52357167Y-147078615D01*
X52548436Y-146999389D01*
X52751484Y-146959000D01*
X52958516Y-146959000D01*
X53161564Y-146999389D01*
G37*
G36*
X70795589Y-146663876D02*
G01*
X70894893Y-146683629D01*
X71035206Y-146741748D01*
X71161484Y-146826125D01*
X71268875Y-146933516D01*
X71353252Y-147059794D01*
X71411371Y-147200107D01*
X71441000Y-147349063D01*
X71441000Y-147500937D01*
X71411371Y-147649893D01*
X71353252Y-147790206D01*
X71268875Y-147916484D01*
X71161484Y-148023875D01*
X71035206Y-148108252D01*
X70894893Y-148166371D01*
X70795589Y-148186124D01*
X70745938Y-148196000D01*
X70594062Y-148196000D01*
X70544411Y-148186124D01*
X70445107Y-148166371D01*
X70304794Y-148108252D01*
X70178516Y-148023875D01*
X70071125Y-147916484D01*
X69986748Y-147790206D01*
X69928629Y-147649893D01*
X69899000Y-147500937D01*
X69899000Y-147349063D01*
X69928629Y-147200107D01*
X69986748Y-147059794D01*
X70071125Y-146933516D01*
X70178516Y-146826125D01*
X70304794Y-146741748D01*
X70445107Y-146683629D01*
X70544411Y-146663876D01*
X70594062Y-146654000D01*
X70745938Y-146654000D01*
X70795589Y-146663876D01*
G37*
G36*
X221436564Y-143769389D02*
G01*
X221627833Y-143848615D01*
X221627835Y-143848616D01*
X221799973Y-143963635D01*
X221946365Y-144110027D01*
X222061385Y-144282167D01*
X222140611Y-144473436D01*
X222181000Y-144676484D01*
X222181000Y-144883516D01*
X222140611Y-145086564D01*
X222072829Y-145250204D01*
X222061384Y-145277835D01*
X221946365Y-145449973D01*
X221799973Y-145596365D01*
X221627835Y-145711384D01*
X221627834Y-145711385D01*
X221627833Y-145711385D01*
X221436564Y-145790611D01*
X221233516Y-145831000D01*
X221026484Y-145831000D01*
X220823436Y-145790611D01*
X220632167Y-145711385D01*
X220632166Y-145711385D01*
X220632165Y-145711384D01*
X220460027Y-145596365D01*
X220313635Y-145449973D01*
X220198616Y-145277835D01*
X220187171Y-145250204D01*
X220119389Y-145086564D01*
X220079000Y-144883516D01*
X220079000Y-144676484D01*
X220119389Y-144473436D01*
X220198615Y-144282167D01*
X220313635Y-144110027D01*
X220460027Y-143963635D01*
X220632165Y-143848616D01*
X220632167Y-143848615D01*
X220823436Y-143769389D01*
X221026484Y-143729000D01*
X221233516Y-143729000D01*
X221436564Y-143769389D01*
G37*
G36*
X214936564Y-143769389D02*
G01*
X215127833Y-143848615D01*
X215127835Y-143848616D01*
X215299973Y-143963635D01*
X215446365Y-144110027D01*
X215561385Y-144282167D01*
X215640611Y-144473436D01*
X215681000Y-144676484D01*
X215681000Y-144883516D01*
X215640611Y-145086564D01*
X215572829Y-145250204D01*
X215561384Y-145277835D01*
X215446365Y-145449973D01*
X215299973Y-145596365D01*
X215127835Y-145711384D01*
X215127834Y-145711385D01*
X215127833Y-145711385D01*
X214936564Y-145790611D01*
X214733516Y-145831000D01*
X214526484Y-145831000D01*
X214323436Y-145790611D01*
X214132167Y-145711385D01*
X214132166Y-145711385D01*
X214132165Y-145711384D01*
X213960027Y-145596365D01*
X213813635Y-145449973D01*
X213698616Y-145277835D01*
X213687171Y-145250204D01*
X213619389Y-145086564D01*
X213579000Y-144883516D01*
X213579000Y-144676484D01*
X213619389Y-144473436D01*
X213698615Y-144282167D01*
X213813635Y-144110027D01*
X213960027Y-143963635D01*
X214132165Y-143848616D01*
X214132167Y-143848615D01*
X214323436Y-143769389D01*
X214526484Y-143729000D01*
X214733516Y-143729000D01*
X214936564Y-143769389D01*
G37*
G36*
X180011564Y-143769389D02*
G01*
X180202833Y-143848615D01*
X180202835Y-143848616D01*
X180374973Y-143963635D01*
X180521365Y-144110027D01*
X180636385Y-144282167D01*
X180715611Y-144473436D01*
X180756000Y-144676484D01*
X180756000Y-144883516D01*
X180715611Y-145086564D01*
X180647829Y-145250204D01*
X180636384Y-145277835D01*
X180521365Y-145449973D01*
X180374973Y-145596365D01*
X180202835Y-145711384D01*
X180202834Y-145711385D01*
X180202833Y-145711385D01*
X180011564Y-145790611D01*
X179808516Y-145831000D01*
X179601484Y-145831000D01*
X179398436Y-145790611D01*
X179207167Y-145711385D01*
X179207166Y-145711385D01*
X179207165Y-145711384D01*
X179035027Y-145596365D01*
X178888635Y-145449973D01*
X178773616Y-145277835D01*
X178762171Y-145250204D01*
X178694389Y-145086564D01*
X178654000Y-144883516D01*
X178654000Y-144676484D01*
X178694389Y-144473436D01*
X178773615Y-144282167D01*
X178888635Y-144110027D01*
X179035027Y-143963635D01*
X179207165Y-143848616D01*
X179207167Y-143848615D01*
X179398436Y-143769389D01*
X179601484Y-143729000D01*
X179808516Y-143729000D01*
X180011564Y-143769389D01*
G37*
G36*
X186511564Y-143769389D02*
G01*
X186702833Y-143848615D01*
X186702835Y-143848616D01*
X186874973Y-143963635D01*
X187021365Y-144110027D01*
X187136385Y-144282167D01*
X187215611Y-144473436D01*
X187256000Y-144676484D01*
X187256000Y-144883516D01*
X187215611Y-145086564D01*
X187147829Y-145250204D01*
X187136384Y-145277835D01*
X187021365Y-145449973D01*
X186874973Y-145596365D01*
X186702835Y-145711384D01*
X186702834Y-145711385D01*
X186702833Y-145711385D01*
X186511564Y-145790611D01*
X186308516Y-145831000D01*
X186101484Y-145831000D01*
X185898436Y-145790611D01*
X185707167Y-145711385D01*
X185707166Y-145711385D01*
X185707165Y-145711384D01*
X185535027Y-145596365D01*
X185388635Y-145449973D01*
X185273616Y-145277835D01*
X185262171Y-145250204D01*
X185194389Y-145086564D01*
X185154000Y-144883516D01*
X185154000Y-144676484D01*
X185194389Y-144473436D01*
X185273615Y-144282167D01*
X185388635Y-144110027D01*
X185535027Y-143963635D01*
X185707165Y-143848616D01*
X185707167Y-143848615D01*
X185898436Y-143769389D01*
X186101484Y-143729000D01*
X186308516Y-143729000D01*
X186511564Y-143769389D01*
G37*
G36*
X75875589Y-144123876D02*
G01*
X75974893Y-144143629D01*
X76115206Y-144201748D01*
X76241484Y-144286125D01*
X76348875Y-144393516D01*
X76433252Y-144519794D01*
X76491371Y-144660107D01*
X76521000Y-144809063D01*
X76521000Y-144960937D01*
X76491371Y-145109893D01*
X76433252Y-145250206D01*
X76348875Y-145376484D01*
X76241484Y-145483875D01*
X76115206Y-145568252D01*
X75974893Y-145626371D01*
X75875589Y-145646124D01*
X75825938Y-145656000D01*
X75674062Y-145656000D01*
X75624411Y-145646124D01*
X75525107Y-145626371D01*
X75384794Y-145568252D01*
X75258516Y-145483875D01*
X75151125Y-145376484D01*
X75066748Y-145250206D01*
X75008629Y-145109893D01*
X74979000Y-144960937D01*
X74979000Y-144809063D01*
X75008629Y-144660107D01*
X75066748Y-144519794D01*
X75151125Y-144393516D01*
X75258516Y-144286125D01*
X75384794Y-144201748D01*
X75525107Y-144143629D01*
X75624411Y-144123876D01*
X75674062Y-144114000D01*
X75825938Y-144114000D01*
X75875589Y-144123876D01*
G37*
G36*
X53161564Y-142499389D02*
G01*
X53331771Y-142569891D01*
X53352835Y-142578616D01*
X53524973Y-142693635D01*
X53671365Y-142840027D01*
X53786385Y-143012167D01*
X53865611Y-143203436D01*
X53906000Y-143406484D01*
X53906000Y-143613516D01*
X53865611Y-143816564D01*
X53804692Y-143963635D01*
X53786384Y-144007835D01*
X53671365Y-144179973D01*
X53524973Y-144326365D01*
X53352835Y-144441384D01*
X53352834Y-144441385D01*
X53352833Y-144441385D01*
X53161564Y-144520611D01*
X52958516Y-144561000D01*
X52751484Y-144561000D01*
X52548436Y-144520611D01*
X52357167Y-144441385D01*
X52357166Y-144441385D01*
X52357165Y-144441384D01*
X52185027Y-144326365D01*
X52038635Y-144179973D01*
X51923616Y-144007835D01*
X51905308Y-143963635D01*
X51844389Y-143816564D01*
X51804000Y-143613516D01*
X51804000Y-143406484D01*
X51844389Y-143203436D01*
X51923615Y-143012167D01*
X52038635Y-142840027D01*
X52185027Y-142693635D01*
X52357165Y-142578616D01*
X52378229Y-142569891D01*
X52548436Y-142499389D01*
X52751484Y-142459000D01*
X52958516Y-142459000D01*
X53161564Y-142499389D01*
G37*
G36*
X46661564Y-142499389D02*
G01*
X46831771Y-142569891D01*
X46852835Y-142578616D01*
X47024973Y-142693635D01*
X47171365Y-142840027D01*
X47286385Y-143012167D01*
X47365611Y-143203436D01*
X47406000Y-143406484D01*
X47406000Y-143613516D01*
X47365611Y-143816564D01*
X47304692Y-143963635D01*
X47286384Y-144007835D01*
X47171365Y-144179973D01*
X47024973Y-144326365D01*
X46852835Y-144441384D01*
X46852834Y-144441385D01*
X46852833Y-144441385D01*
X46661564Y-144520611D01*
X46458516Y-144561000D01*
X46251484Y-144561000D01*
X46048436Y-144520611D01*
X45857167Y-144441385D01*
X45857166Y-144441385D01*
X45857165Y-144441384D01*
X45685027Y-144326365D01*
X45538635Y-144179973D01*
X45423616Y-144007835D01*
X45405308Y-143963635D01*
X45344389Y-143816564D01*
X45304000Y-143613516D01*
X45304000Y-143406484D01*
X45344389Y-143203436D01*
X45423615Y-143012167D01*
X45538635Y-142840027D01*
X45685027Y-142693635D01*
X45857165Y-142578616D01*
X45878229Y-142569891D01*
X46048436Y-142499389D01*
X46251484Y-142459000D01*
X46458516Y-142459000D01*
X46661564Y-142499389D01*
G37*
G36*
X70795589Y-141583876D02*
G01*
X70894893Y-141603629D01*
X71035206Y-141661748D01*
X71161484Y-141746125D01*
X71268875Y-141853516D01*
X71353252Y-141979794D01*
X71411371Y-142120107D01*
X71441000Y-142269063D01*
X71441000Y-142420937D01*
X71411371Y-142569893D01*
X71353252Y-142710206D01*
X71268875Y-142836484D01*
X71161484Y-142943875D01*
X71035206Y-143028252D01*
X70894893Y-143086371D01*
X70795589Y-143106124D01*
X70745938Y-143116000D01*
X70594062Y-143116000D01*
X70544411Y-143106124D01*
X70445107Y-143086371D01*
X70304794Y-143028252D01*
X70178516Y-142943875D01*
X70071125Y-142836484D01*
X69986748Y-142710206D01*
X69928629Y-142569893D01*
X69899000Y-142420937D01*
X69899000Y-142269063D01*
X69928629Y-142120107D01*
X69986748Y-141979794D01*
X70071125Y-141853516D01*
X70178516Y-141746125D01*
X70304794Y-141661748D01*
X70445107Y-141603629D01*
X70544411Y-141583876D01*
X70594062Y-141574000D01*
X70745938Y-141574000D01*
X70795589Y-141583876D01*
G37*
G36*
X53161564Y-136839389D02*
G01*
X53352833Y-136918615D01*
X53352835Y-136918616D01*
X53524973Y-137033635D01*
X53671365Y-137180027D01*
X53786385Y-137352167D01*
X53865611Y-137543436D01*
X53906000Y-137746484D01*
X53906000Y-137953516D01*
X53865611Y-138156564D01*
X53786385Y-138347833D01*
X53786384Y-138347835D01*
X53671365Y-138519973D01*
X53524973Y-138666365D01*
X53352835Y-138781384D01*
X53352834Y-138781385D01*
X53352833Y-138781385D01*
X53161564Y-138860611D01*
X52958516Y-138901000D01*
X52751484Y-138901000D01*
X52548436Y-138860611D01*
X52357167Y-138781385D01*
X52357166Y-138781385D01*
X52357165Y-138781384D01*
X52185027Y-138666365D01*
X52038635Y-138519973D01*
X51923616Y-138347835D01*
X51923615Y-138347833D01*
X51844389Y-138156564D01*
X51804000Y-137953516D01*
X51804000Y-137746484D01*
X51844389Y-137543436D01*
X51923615Y-137352167D01*
X52038635Y-137180027D01*
X52185027Y-137033635D01*
X52357165Y-136918616D01*
X52357167Y-136918615D01*
X52548436Y-136839389D01*
X52751484Y-136799000D01*
X52958516Y-136799000D01*
X53161564Y-136839389D01*
G37*
G36*
X46661564Y-136839389D02*
G01*
X46852833Y-136918615D01*
X46852835Y-136918616D01*
X47024973Y-137033635D01*
X47171365Y-137180027D01*
X47286385Y-137352167D01*
X47365611Y-137543436D01*
X47406000Y-137746484D01*
X47406000Y-137953516D01*
X47365611Y-138156564D01*
X47286385Y-138347833D01*
X47286384Y-138347835D01*
X47171365Y-138519973D01*
X47024973Y-138666365D01*
X46852835Y-138781384D01*
X46852834Y-138781385D01*
X46852833Y-138781385D01*
X46661564Y-138860611D01*
X46458516Y-138901000D01*
X46251484Y-138901000D01*
X46048436Y-138860611D01*
X45857167Y-138781385D01*
X45857166Y-138781385D01*
X45857165Y-138781384D01*
X45685027Y-138666365D01*
X45538635Y-138519973D01*
X45423616Y-138347835D01*
X45423615Y-138347833D01*
X45344389Y-138156564D01*
X45304000Y-137953516D01*
X45304000Y-137746484D01*
X45344389Y-137543436D01*
X45423615Y-137352167D01*
X45538635Y-137180027D01*
X45685027Y-137033635D01*
X45857165Y-136918616D01*
X45857167Y-136918615D01*
X46048436Y-136839389D01*
X46251484Y-136799000D01*
X46458516Y-136799000D01*
X46661564Y-136839389D01*
G37*
G36*
X53161564Y-132339389D02*
G01*
X53352833Y-132418615D01*
X53352835Y-132418616D01*
X53524973Y-132533635D01*
X53671365Y-132680027D01*
X53786385Y-132852167D01*
X53865611Y-133043436D01*
X53906000Y-133246484D01*
X53906000Y-133453516D01*
X53865611Y-133656564D01*
X53786385Y-133847833D01*
X53786384Y-133847835D01*
X53671365Y-134019973D01*
X53524973Y-134166365D01*
X53352835Y-134281384D01*
X53352834Y-134281385D01*
X53352833Y-134281385D01*
X53161564Y-134360611D01*
X52958516Y-134401000D01*
X52751484Y-134401000D01*
X52548436Y-134360611D01*
X52357167Y-134281385D01*
X52357166Y-134281385D01*
X52357165Y-134281384D01*
X52185027Y-134166365D01*
X52038635Y-134019973D01*
X51923616Y-133847835D01*
X51923615Y-133847833D01*
X51844389Y-133656564D01*
X51804000Y-133453516D01*
X51804000Y-133246484D01*
X51844389Y-133043436D01*
X51923615Y-132852167D01*
X52038635Y-132680027D01*
X52185027Y-132533635D01*
X52357165Y-132418616D01*
X52357167Y-132418615D01*
X52548436Y-132339389D01*
X52751484Y-132299000D01*
X52958516Y-132299000D01*
X53161564Y-132339389D01*
G37*
G36*
X46661564Y-132339389D02*
G01*
X46852833Y-132418615D01*
X46852835Y-132418616D01*
X47024973Y-132533635D01*
X47171365Y-132680027D01*
X47286385Y-132852167D01*
X47365611Y-133043436D01*
X47406000Y-133246484D01*
X47406000Y-133453516D01*
X47365611Y-133656564D01*
X47286385Y-133847833D01*
X47286384Y-133847835D01*
X47171365Y-134019973D01*
X47024973Y-134166365D01*
X46852835Y-134281384D01*
X46852834Y-134281385D01*
X46852833Y-134281385D01*
X46661564Y-134360611D01*
X46458516Y-134401000D01*
X46251484Y-134401000D01*
X46048436Y-134360611D01*
X45857167Y-134281385D01*
X45857166Y-134281385D01*
X45857165Y-134281384D01*
X45685027Y-134166365D01*
X45538635Y-134019973D01*
X45423616Y-133847835D01*
X45423615Y-133847833D01*
X45344389Y-133656564D01*
X45304000Y-133453516D01*
X45304000Y-133246484D01*
X45344389Y-133043436D01*
X45423615Y-132852167D01*
X45538635Y-132680027D01*
X45685027Y-132533635D01*
X45857165Y-132418616D01*
X45857167Y-132418615D01*
X46048436Y-132339389D01*
X46251484Y-132299000D01*
X46458516Y-132299000D01*
X46661564Y-132339389D01*
G37*
G36*
X53161564Y-126679389D02*
G01*
X53352833Y-126758615D01*
X53352835Y-126758616D01*
X53524973Y-126873635D01*
X53671365Y-127020027D01*
X53786385Y-127192167D01*
X53865611Y-127383436D01*
X53906000Y-127586484D01*
X53906000Y-127793516D01*
X53865611Y-127996564D01*
X53786385Y-128187833D01*
X53786384Y-128187835D01*
X53671365Y-128359973D01*
X53524973Y-128506365D01*
X53352835Y-128621384D01*
X53352834Y-128621385D01*
X53352833Y-128621385D01*
X53161564Y-128700611D01*
X52958516Y-128741000D01*
X52751484Y-128741000D01*
X52548436Y-128700611D01*
X52357167Y-128621385D01*
X52357166Y-128621385D01*
X52357165Y-128621384D01*
X52185027Y-128506365D01*
X52038635Y-128359973D01*
X51923616Y-128187835D01*
X51923615Y-128187833D01*
X51844389Y-127996564D01*
X51804000Y-127793516D01*
X51804000Y-127586484D01*
X51844389Y-127383436D01*
X51923615Y-127192167D01*
X52038635Y-127020027D01*
X52185027Y-126873635D01*
X52357165Y-126758616D01*
X52357167Y-126758615D01*
X52548436Y-126679389D01*
X52751484Y-126639000D01*
X52958516Y-126639000D01*
X53161564Y-126679389D01*
G37*
G36*
X46661564Y-126679389D02*
G01*
X46852833Y-126758615D01*
X46852835Y-126758616D01*
X47024973Y-126873635D01*
X47171365Y-127020027D01*
X47286385Y-127192167D01*
X47365611Y-127383436D01*
X47406000Y-127586484D01*
X47406000Y-127793516D01*
X47365611Y-127996564D01*
X47286385Y-128187833D01*
X47286384Y-128187835D01*
X47171365Y-128359973D01*
X47024973Y-128506365D01*
X46852835Y-128621384D01*
X46852834Y-128621385D01*
X46852833Y-128621385D01*
X46661564Y-128700611D01*
X46458516Y-128741000D01*
X46251484Y-128741000D01*
X46048436Y-128700611D01*
X45857167Y-128621385D01*
X45857166Y-128621385D01*
X45857165Y-128621384D01*
X45685027Y-128506365D01*
X45538635Y-128359973D01*
X45423616Y-128187835D01*
X45423615Y-128187833D01*
X45344389Y-127996564D01*
X45304000Y-127793516D01*
X45304000Y-127586484D01*
X45344389Y-127383436D01*
X45423615Y-127192167D01*
X45538635Y-127020027D01*
X45685027Y-126873635D01*
X45857165Y-126758616D01*
X45857167Y-126758615D01*
X46048436Y-126679389D01*
X46251484Y-126639000D01*
X46458516Y-126639000D01*
X46661564Y-126679389D01*
G37*
G36*
X53161564Y-122179389D02*
G01*
X53352833Y-122258615D01*
X53352835Y-122258616D01*
X53524973Y-122373635D01*
X53671365Y-122520027D01*
X53786385Y-122692167D01*
X53865611Y-122883436D01*
X53906000Y-123086484D01*
X53906000Y-123293516D01*
X53865611Y-123496564D01*
X53786385Y-123687833D01*
X53786384Y-123687835D01*
X53671365Y-123859973D01*
X53524973Y-124006365D01*
X53352835Y-124121384D01*
X53352834Y-124121385D01*
X53352833Y-124121385D01*
X53161564Y-124200611D01*
X52958516Y-124241000D01*
X52751484Y-124241000D01*
X52548436Y-124200611D01*
X52357167Y-124121385D01*
X52357166Y-124121385D01*
X52357165Y-124121384D01*
X52185027Y-124006365D01*
X52038635Y-123859973D01*
X51923616Y-123687835D01*
X51923615Y-123687833D01*
X51844389Y-123496564D01*
X51804000Y-123293516D01*
X51804000Y-123086484D01*
X51844389Y-122883436D01*
X51923615Y-122692167D01*
X52038635Y-122520027D01*
X52185027Y-122373635D01*
X52357165Y-122258616D01*
X52357167Y-122258615D01*
X52548436Y-122179389D01*
X52751484Y-122139000D01*
X52958516Y-122139000D01*
X53161564Y-122179389D01*
G37*
G36*
X46661564Y-122179389D02*
G01*
X46852833Y-122258615D01*
X46852835Y-122258616D01*
X47024973Y-122373635D01*
X47171365Y-122520027D01*
X47286385Y-122692167D01*
X47365611Y-122883436D01*
X47406000Y-123086484D01*
X47406000Y-123293516D01*
X47365611Y-123496564D01*
X47286385Y-123687833D01*
X47286384Y-123687835D01*
X47171365Y-123859973D01*
X47024973Y-124006365D01*
X46852835Y-124121384D01*
X46852834Y-124121385D01*
X46852833Y-124121385D01*
X46661564Y-124200611D01*
X46458516Y-124241000D01*
X46251484Y-124241000D01*
X46048436Y-124200611D01*
X45857167Y-124121385D01*
X45857166Y-124121385D01*
X45857165Y-124121384D01*
X45685027Y-124006365D01*
X45538635Y-123859973D01*
X45423616Y-123687835D01*
X45423615Y-123687833D01*
X45344389Y-123496564D01*
X45304000Y-123293516D01*
X45304000Y-123086484D01*
X45344389Y-122883436D01*
X45423615Y-122692167D01*
X45538635Y-122520027D01*
X45685027Y-122373635D01*
X45857165Y-122258616D01*
X45857167Y-122258615D01*
X46048436Y-122179389D01*
X46251484Y-122139000D01*
X46458516Y-122139000D01*
X46661564Y-122179389D01*
G37*
G36*
X43928512Y-115943927D02*
G01*
X44077812Y-115973624D01*
X44241784Y-116041544D01*
X44389354Y-116140147D01*
X44514853Y-116265646D01*
X44613456Y-116413216D01*
X44681376Y-116577188D01*
X44716000Y-116751259D01*
X44716000Y-116928741D01*
X44681376Y-117102812D01*
X44613456Y-117266784D01*
X44514853Y-117414354D01*
X44389354Y-117539853D01*
X44241784Y-117638456D01*
X44077812Y-117706376D01*
X43928512Y-117736073D01*
X43903742Y-117741000D01*
X43726258Y-117741000D01*
X43701488Y-117736073D01*
X43552188Y-117706376D01*
X43388216Y-117638456D01*
X43240646Y-117539853D01*
X43115147Y-117414354D01*
X43016544Y-117266784D01*
X42948624Y-117102812D01*
X42914000Y-116928741D01*
X42914000Y-116751259D01*
X42948624Y-116577188D01*
X43016544Y-116413216D01*
X43115147Y-116265646D01*
X43240646Y-116140147D01*
X43388216Y-116041544D01*
X43552188Y-115973624D01*
X43701488Y-115943927D01*
X43726258Y-115939000D01*
X43903742Y-115939000D01*
X43928512Y-115943927D01*
G37*
G36*
X44716000Y-115201000D02*
G01*
X42914000Y-115201000D01*
X42914000Y-113399000D01*
X44716000Y-113399000D01*
X44716000Y-115201000D01*
G37*
G36*
X181723512Y-85463927D02*
G01*
X181872812Y-85493624D01*
X182036784Y-85561544D01*
X182184354Y-85660147D01*
X182309853Y-85785646D01*
X182408456Y-85933216D01*
X182476376Y-86097188D01*
X182511000Y-86271259D01*
X182511000Y-86448741D01*
X182476376Y-86622812D01*
X182408456Y-86786784D01*
X182309853Y-86934354D01*
X182184354Y-87059853D01*
X182036784Y-87158456D01*
X181872812Y-87226376D01*
X181723512Y-87256073D01*
X181698742Y-87261000D01*
X181521258Y-87261000D01*
X181496488Y-87256073D01*
X181347188Y-87226376D01*
X181183216Y-87158456D01*
X181035646Y-87059853D01*
X180910147Y-86934354D01*
X180811544Y-86786784D01*
X180743624Y-86622812D01*
X180709000Y-86448741D01*
X180709000Y-86271259D01*
X180743624Y-86097188D01*
X180811544Y-85933216D01*
X180910147Y-85785646D01*
X181035646Y-85660147D01*
X181183216Y-85561544D01*
X181347188Y-85493624D01*
X181496488Y-85463927D01*
X181521258Y-85459000D01*
X181698742Y-85459000D01*
X181723512Y-85463927D01*
G37*
G36*
X181723512Y-82923927D02*
G01*
X181872812Y-82953624D01*
X182036784Y-83021544D01*
X182184354Y-83120147D01*
X182309853Y-83245646D01*
X182408456Y-83393216D01*
X182476376Y-83557188D01*
X182511000Y-83731259D01*
X182511000Y-83908741D01*
X182476376Y-84082812D01*
X182408456Y-84246784D01*
X182309853Y-84394354D01*
X182184354Y-84519853D01*
X182036784Y-84618456D01*
X181872812Y-84686376D01*
X181723512Y-84716073D01*
X181698742Y-84721000D01*
X181521258Y-84721000D01*
X181496488Y-84716073D01*
X181347188Y-84686376D01*
X181183216Y-84618456D01*
X181035646Y-84519853D01*
X180910147Y-84394354D01*
X180811544Y-84246784D01*
X180743624Y-84082812D01*
X180709000Y-83908741D01*
X180709000Y-83731259D01*
X180743624Y-83557188D01*
X180811544Y-83393216D01*
X180910147Y-83245646D01*
X181035646Y-83120147D01*
X181183216Y-83021544D01*
X181347188Y-82953624D01*
X181496488Y-82923927D01*
X181521258Y-82919000D01*
X181698742Y-82919000D01*
X181723512Y-82923927D01*
G37*
G36*
X182511000Y-82181000D02*
G01*
X180709000Y-82181000D01*
X180709000Y-80379000D01*
X182511000Y-80379000D01*
X182511000Y-82181000D01*
G37*
G36*
X83933512Y-67683927D02*
G01*
X84082812Y-67713624D01*
X84246784Y-67781544D01*
X84394354Y-67880147D01*
X84519853Y-68005646D01*
X84618456Y-68153216D01*
X84686376Y-68317188D01*
X84721000Y-68491259D01*
X84721000Y-68668741D01*
X84686376Y-68842812D01*
X84618456Y-69006784D01*
X84519853Y-69154354D01*
X84394354Y-69279853D01*
X84246784Y-69378456D01*
X84082812Y-69446376D01*
X83933512Y-69476073D01*
X83908742Y-69481000D01*
X83731258Y-69481000D01*
X83706488Y-69476073D01*
X83557188Y-69446376D01*
X83393216Y-69378456D01*
X83245646Y-69279853D01*
X83120147Y-69154354D01*
X83021544Y-69006784D01*
X82953624Y-68842812D01*
X82919000Y-68668741D01*
X82919000Y-68491259D01*
X82953624Y-68317188D01*
X83021544Y-68153216D01*
X83120147Y-68005646D01*
X83245646Y-67880147D01*
X83393216Y-67781544D01*
X83557188Y-67713624D01*
X83706488Y-67683927D01*
X83731258Y-67679000D01*
X83908742Y-67679000D01*
X83933512Y-67683927D01*
G37*
G36*
X91553512Y-67683927D02*
G01*
X91702812Y-67713624D01*
X91866784Y-67781544D01*
X92014354Y-67880147D01*
X92139853Y-68005646D01*
X92238456Y-68153216D01*
X92306376Y-68317188D01*
X92341000Y-68491259D01*
X92341000Y-68668741D01*
X92306376Y-68842812D01*
X92238456Y-69006784D01*
X92139853Y-69154354D01*
X92014354Y-69279853D01*
X91866784Y-69378456D01*
X91702812Y-69446376D01*
X91553512Y-69476073D01*
X91528742Y-69481000D01*
X91351258Y-69481000D01*
X91326488Y-69476073D01*
X91177188Y-69446376D01*
X91013216Y-69378456D01*
X90865646Y-69279853D01*
X90740147Y-69154354D01*
X90641544Y-69006784D01*
X90573624Y-68842812D01*
X90539000Y-68668741D01*
X90539000Y-68491259D01*
X90573624Y-68317188D01*
X90641544Y-68153216D01*
X90740147Y-68005646D01*
X90865646Y-67880147D01*
X91013216Y-67781544D01*
X91177188Y-67713624D01*
X91326488Y-67683927D01*
X91351258Y-67679000D01*
X91528742Y-67679000D01*
X91553512Y-67683927D01*
G37*
G36*
X87743512Y-67683927D02*
G01*
X87892812Y-67713624D01*
X88056784Y-67781544D01*
X88204354Y-67880147D01*
X88329853Y-68005646D01*
X88428456Y-68153216D01*
X88496376Y-68317188D01*
X88531000Y-68491259D01*
X88531000Y-68668741D01*
X88496376Y-68842812D01*
X88428456Y-69006784D01*
X88329853Y-69154354D01*
X88204354Y-69279853D01*
X88056784Y-69378456D01*
X87892812Y-69446376D01*
X87743512Y-69476073D01*
X87718742Y-69481000D01*
X87541258Y-69481000D01*
X87516488Y-69476073D01*
X87367188Y-69446376D01*
X87203216Y-69378456D01*
X87055646Y-69279853D01*
X86930147Y-69154354D01*
X86831544Y-69006784D01*
X86763624Y-68842812D01*
X86729000Y-68668741D01*
X86729000Y-68491259D01*
X86763624Y-68317188D01*
X86831544Y-68153216D01*
X86930147Y-68005646D01*
X87055646Y-67880147D01*
X87203216Y-67781544D01*
X87367188Y-67713624D01*
X87516488Y-67683927D01*
X87541258Y-67679000D01*
X87718742Y-67679000D01*
X87743512Y-67683927D01*
G37*
G36*
X91553512Y-65143927D02*
G01*
X91702812Y-65173624D01*
X91866784Y-65241544D01*
X92014354Y-65340147D01*
X92139853Y-65465646D01*
X92238456Y-65613216D01*
X92306376Y-65777188D01*
X92341000Y-65951259D01*
X92341000Y-66128741D01*
X92306376Y-66302812D01*
X92238456Y-66466784D01*
X92139853Y-66614354D01*
X92014354Y-66739853D01*
X91866784Y-66838456D01*
X91702812Y-66906376D01*
X91553512Y-66936073D01*
X91528742Y-66941000D01*
X91351258Y-66941000D01*
X91326488Y-66936073D01*
X91177188Y-66906376D01*
X91013216Y-66838456D01*
X90865646Y-66739853D01*
X90740147Y-66614354D01*
X90641544Y-66466784D01*
X90573624Y-66302812D01*
X90539000Y-66128741D01*
X90539000Y-65951259D01*
X90573624Y-65777188D01*
X90641544Y-65613216D01*
X90740147Y-65465646D01*
X90865646Y-65340147D01*
X91013216Y-65241544D01*
X91177188Y-65173624D01*
X91326488Y-65143927D01*
X91351258Y-65139000D01*
X91528742Y-65139000D01*
X91553512Y-65143927D01*
G37*
G36*
X87743512Y-65143927D02*
G01*
X87892812Y-65173624D01*
X88056784Y-65241544D01*
X88204354Y-65340147D01*
X88329853Y-65465646D01*
X88428456Y-65613216D01*
X88496376Y-65777188D01*
X88531000Y-65951259D01*
X88531000Y-66128741D01*
X88496376Y-66302812D01*
X88428456Y-66466784D01*
X88329853Y-66614354D01*
X88204354Y-66739853D01*
X88056784Y-66838456D01*
X87892812Y-66906376D01*
X87743512Y-66936073D01*
X87718742Y-66941000D01*
X87541258Y-66941000D01*
X87516488Y-66936073D01*
X87367188Y-66906376D01*
X87203216Y-66838456D01*
X87055646Y-66739853D01*
X86930147Y-66614354D01*
X86831544Y-66466784D01*
X86763624Y-66302812D01*
X86729000Y-66128741D01*
X86729000Y-65951259D01*
X86763624Y-65777188D01*
X86831544Y-65613216D01*
X86930147Y-65465646D01*
X87055646Y-65340147D01*
X87203216Y-65241544D01*
X87367188Y-65173624D01*
X87516488Y-65143927D01*
X87541258Y-65139000D01*
X87718742Y-65139000D01*
X87743512Y-65143927D01*
G37*
G36*
X83933512Y-65143927D02*
G01*
X84082812Y-65173624D01*
X84246784Y-65241544D01*
X84394354Y-65340147D01*
X84519853Y-65465646D01*
X84618456Y-65613216D01*
X84686376Y-65777188D01*
X84721000Y-65951259D01*
X84721000Y-66128741D01*
X84686376Y-66302812D01*
X84618456Y-66466784D01*
X84519853Y-66614354D01*
X84394354Y-66739853D01*
X84246784Y-66838456D01*
X84082812Y-66906376D01*
X83933512Y-66936073D01*
X83908742Y-66941000D01*
X83731258Y-66941000D01*
X83706488Y-66936073D01*
X83557188Y-66906376D01*
X83393216Y-66838456D01*
X83245646Y-66739853D01*
X83120147Y-66614354D01*
X83021544Y-66466784D01*
X82953624Y-66302812D01*
X82919000Y-66128741D01*
X82919000Y-65951259D01*
X82953624Y-65777188D01*
X83021544Y-65613216D01*
X83120147Y-65465646D01*
X83245646Y-65340147D01*
X83393216Y-65241544D01*
X83557188Y-65173624D01*
X83706488Y-65143927D01*
X83731258Y-65139000D01*
X83908742Y-65139000D01*
X83933512Y-65143927D01*
G37*
G36*
X88531000Y-64401000D02*
G01*
X86729000Y-64401000D01*
X86729000Y-62599000D01*
X88531000Y-62599000D01*
X88531000Y-64401000D01*
G37*
G36*
X92341000Y-64401000D02*
G01*
X90539000Y-64401000D01*
X90539000Y-62599000D01*
X92341000Y-62599000D01*
X92341000Y-64401000D01*
G37*
G36*
X84721000Y-64401000D02*
G01*
X82919000Y-64401000D01*
X82919000Y-62599000D01*
X84721000Y-62599000D01*
X84721000Y-64401000D01*
G37*
M02*
