G04 #@! TF.GenerationSoftware,KiCad,Pcbnew,(5.1.5)-3*
G04 #@! TF.CreationDate,2020-06-15T09:36:13+02:00*
G04 #@! TF.ProjectId,StateMachineTest,53746174-654d-4616-9368-696e65546573,rev?*
G04 #@! TF.SameCoordinates,Original*
G04 #@! TF.FileFunction,Legend,Bot*
G04 #@! TF.FilePolarity,Positive*
%FSLAX46Y46*%
G04 Gerber Fmt 4.6, Leading zero omitted, Abs format (unit mm)*
G04 Created by KiCad (PCBNEW (5.1.5)-3) date 2020-06-15 09:36:13*
%MOMM*%
%LPD*%
G04 APERTURE LIST*
%ADD10C,1.000000*%
G04 APERTURE END LIST*
D10*
X120299523Y-147669047D02*
X119728095Y-147859523D01*
X118775714Y-147859523D01*
X118394761Y-147669047D01*
X118204285Y-147478571D01*
X118013809Y-147097619D01*
X118013809Y-146716666D01*
X118204285Y-146335714D01*
X118394761Y-146145238D01*
X118775714Y-145954761D01*
X119537619Y-145764285D01*
X119918571Y-145573809D01*
X120109047Y-145383333D01*
X120299523Y-145002380D01*
X120299523Y-144621428D01*
X120109047Y-144240476D01*
X119918571Y-144050000D01*
X119537619Y-143859523D01*
X118585238Y-143859523D01*
X118013809Y-144050000D01*
X114013809Y-147478571D02*
X114204285Y-147669047D01*
X114775714Y-147859523D01*
X115156666Y-147859523D01*
X115728095Y-147669047D01*
X116109047Y-147288095D01*
X116299523Y-146907142D01*
X116490000Y-146145238D01*
X116490000Y-145573809D01*
X116299523Y-144811904D01*
X116109047Y-144430952D01*
X115728095Y-144050000D01*
X115156666Y-143859523D01*
X114775714Y-143859523D01*
X114204285Y-144050000D01*
X114013809Y-144240476D01*
X112299523Y-147859523D02*
X112299523Y-143859523D01*
X112299523Y-145764285D02*
X110013809Y-145764285D01*
X110013809Y-147859523D02*
X110013809Y-143859523D01*
X108109047Y-147859523D02*
X108109047Y-143859523D01*
X104299523Y-147859523D02*
X106204285Y-147859523D01*
X106204285Y-143859523D01*
X102966190Y-147859523D02*
X102966190Y-143859523D01*
X100680476Y-147859523D02*
X102394761Y-145573809D01*
X100680476Y-143859523D02*
X102966190Y-146145238D01*
X232119761Y-68929047D02*
X231548333Y-69119523D01*
X230595952Y-69119523D01*
X230215000Y-68929047D01*
X230024523Y-68738571D01*
X229834047Y-68357619D01*
X229834047Y-67976666D01*
X230024523Y-67595714D01*
X230215000Y-67405238D01*
X230595952Y-67214761D01*
X231357857Y-67024285D01*
X231738809Y-66833809D01*
X231929285Y-66643333D01*
X232119761Y-66262380D01*
X232119761Y-65881428D01*
X231929285Y-65500476D01*
X231738809Y-65310000D01*
X231357857Y-65119523D01*
X230405476Y-65119523D01*
X229834047Y-65310000D01*
X228691190Y-66452857D02*
X227167380Y-66452857D01*
X228119761Y-65119523D02*
X228119761Y-68548095D01*
X227929285Y-68929047D01*
X227548333Y-69119523D01*
X227167380Y-69119523D01*
X224119761Y-69119523D02*
X224119761Y-67024285D01*
X224310238Y-66643333D01*
X224691190Y-66452857D01*
X225453095Y-66452857D01*
X225834047Y-66643333D01*
X224119761Y-68929047D02*
X224500714Y-69119523D01*
X225453095Y-69119523D01*
X225834047Y-68929047D01*
X226024523Y-68548095D01*
X226024523Y-68167142D01*
X225834047Y-67786190D01*
X225453095Y-67595714D01*
X224500714Y-67595714D01*
X224119761Y-67405238D01*
X222786428Y-66452857D02*
X221262619Y-66452857D01*
X222215000Y-65119523D02*
X222215000Y-68548095D01*
X222024523Y-68929047D01*
X221643571Y-69119523D01*
X221262619Y-69119523D01*
X218405476Y-68929047D02*
X218786428Y-69119523D01*
X219548333Y-69119523D01*
X219929285Y-68929047D01*
X220119761Y-68548095D01*
X220119761Y-67024285D01*
X219929285Y-66643333D01*
X219548333Y-66452857D01*
X218786428Y-66452857D01*
X218405476Y-66643333D01*
X218215000Y-67024285D01*
X218215000Y-67405238D01*
X220119761Y-67786190D01*
X213453095Y-69119523D02*
X213453095Y-66452857D01*
X213453095Y-66833809D02*
X213262619Y-66643333D01*
X212881666Y-66452857D01*
X212310238Y-66452857D01*
X211929285Y-66643333D01*
X211738809Y-67024285D01*
X211738809Y-69119523D01*
X211738809Y-67024285D02*
X211548333Y-66643333D01*
X211167380Y-66452857D01*
X210595952Y-66452857D01*
X210215000Y-66643333D01*
X210024523Y-67024285D01*
X210024523Y-69119523D01*
X206405476Y-69119523D02*
X206405476Y-67024285D01*
X206595952Y-66643333D01*
X206976904Y-66452857D01*
X207738809Y-66452857D01*
X208119761Y-66643333D01*
X206405476Y-68929047D02*
X206786428Y-69119523D01*
X207738809Y-69119523D01*
X208119761Y-68929047D01*
X208310238Y-68548095D01*
X208310238Y-68167142D01*
X208119761Y-67786190D01*
X207738809Y-67595714D01*
X206786428Y-67595714D01*
X206405476Y-67405238D01*
X202786428Y-68929047D02*
X203167380Y-69119523D01*
X203929285Y-69119523D01*
X204310238Y-68929047D01*
X204500714Y-68738571D01*
X204691190Y-68357619D01*
X204691190Y-67214761D01*
X204500714Y-66833809D01*
X204310238Y-66643333D01*
X203929285Y-66452857D01*
X203167380Y-66452857D01*
X202786428Y-66643333D01*
X201072142Y-69119523D02*
X201072142Y-65119523D01*
X199357857Y-69119523D02*
X199357857Y-67024285D01*
X199548333Y-66643333D01*
X199929285Y-66452857D01*
X200500714Y-66452857D01*
X200881666Y-66643333D01*
X201072142Y-66833809D01*
X197453095Y-69119523D02*
X197453095Y-66452857D01*
X197453095Y-65119523D02*
X197643571Y-65310000D01*
X197453095Y-65500476D01*
X197262619Y-65310000D01*
X197453095Y-65119523D01*
X197453095Y-65500476D01*
X195548333Y-66452857D02*
X195548333Y-69119523D01*
X195548333Y-66833809D02*
X195357857Y-66643333D01*
X194976904Y-66452857D01*
X194405476Y-66452857D01*
X194024523Y-66643333D01*
X193834047Y-67024285D01*
X193834047Y-69119523D01*
X190405476Y-68929047D02*
X190786428Y-69119523D01*
X191548333Y-69119523D01*
X191929285Y-68929047D01*
X192119761Y-68548095D01*
X192119761Y-67024285D01*
X191929285Y-66643333D01*
X191548333Y-66452857D01*
X190786428Y-66452857D01*
X190405476Y-66643333D01*
X190215000Y-67024285D01*
X190215000Y-67405238D01*
X192119761Y-67786190D01*
X186024523Y-66452857D02*
X184500714Y-66452857D01*
X185453095Y-65119523D02*
X185453095Y-68548095D01*
X185262619Y-68929047D01*
X184881666Y-69119523D01*
X184500714Y-69119523D01*
X181643571Y-68929047D02*
X182024523Y-69119523D01*
X182786428Y-69119523D01*
X183167380Y-68929047D01*
X183357857Y-68548095D01*
X183357857Y-67024285D01*
X183167380Y-66643333D01*
X182786428Y-66452857D01*
X182024523Y-66452857D01*
X181643571Y-66643333D01*
X181453095Y-67024285D01*
X181453095Y-67405238D01*
X183357857Y-67786190D01*
X179929285Y-68929047D02*
X179548333Y-69119523D01*
X178786428Y-69119523D01*
X178405476Y-68929047D01*
X178215000Y-68548095D01*
X178215000Y-68357619D01*
X178405476Y-67976666D01*
X178786428Y-67786190D01*
X179357857Y-67786190D01*
X179738809Y-67595714D01*
X179929285Y-67214761D01*
X179929285Y-67024285D01*
X179738809Y-66643333D01*
X179357857Y-66452857D01*
X178786428Y-66452857D01*
X178405476Y-66643333D01*
X177072142Y-66452857D02*
X175548333Y-66452857D01*
X176500714Y-65119523D02*
X176500714Y-68548095D01*
X176310238Y-68929047D01*
X175929285Y-69119523D01*
X175548333Y-69119523D01*
X171548333Y-66452857D02*
X170595952Y-69119523D01*
X169643571Y-66452857D01*
X167357857Y-65119523D02*
X166976904Y-65119523D01*
X166595952Y-65310000D01*
X166405476Y-65500476D01*
X166215000Y-65881428D01*
X166024523Y-66643333D01*
X166024523Y-67595714D01*
X166215000Y-68357619D01*
X166405476Y-68738571D01*
X166595952Y-68929047D01*
X166976904Y-69119523D01*
X167357857Y-69119523D01*
X167738809Y-68929047D01*
X167929285Y-68738571D01*
X168119761Y-68357619D01*
X168310238Y-67595714D01*
X168310238Y-66643333D01*
X168119761Y-65881428D01*
X167929285Y-65500476D01*
X167738809Y-65310000D01*
X167357857Y-65119523D01*
X164310238Y-68738571D02*
X164119761Y-68929047D01*
X164310238Y-69119523D01*
X164500714Y-68929047D01*
X164310238Y-68738571D01*
X164310238Y-69119523D01*
X161643571Y-65119523D02*
X161262619Y-65119523D01*
X160881666Y-65310000D01*
X160691190Y-65500476D01*
X160500714Y-65881428D01*
X160310238Y-66643333D01*
X160310238Y-67595714D01*
X160500714Y-68357619D01*
X160691190Y-68738571D01*
X160881666Y-68929047D01*
X161262619Y-69119523D01*
X161643571Y-69119523D01*
X162024523Y-68929047D01*
X162215000Y-68738571D01*
X162405476Y-68357619D01*
X162595952Y-67595714D01*
X162595952Y-66643333D01*
X162405476Y-65881428D01*
X162215000Y-65500476D01*
X162024523Y-65310000D01*
X161643571Y-65119523D01*
M02*
