M48
; DRILL file {KiCad (5.1.5)-3} date 06/15/20 09:36:15
; FORMAT={-:-/ absolute / inch / decimal}
; #@! TF.CreationDate,2020-06-15T09:36:15+02:00
; #@! TF.GenerationSoftware,Kicad,Pcbnew,(5.1.5)-3
; #@! TF.FileFunction,Plated,1,2,PTH
FMAT,2
INCH
T1C0.0138
T2C0.0157
T3C0.0315
T4C0.0394
T5C0.0433
%
G90
G05
T1
X1.65Y-3.025
X1.65Y-3.2
X1.65Y-3.275
X1.65Y-3.575
X1.65Y-3.75
X1.675Y-3.15
X1.675Y-3.65
X1.6829Y-3.0792
X1.6874Y-3.45
X1.725Y-3.0
X1.75Y-3.475
X1.8215Y-3.443
X1.8307Y-3.7789
X1.8465Y-3.618
X1.85Y-2.875
X1.875Y-4.2
X1.8785Y-3.35
X1.8785Y-3.5
X1.9035Y-3.65
X1.9081Y-3.4753
X1.9331Y-3.753
X1.95Y-2.85
X1.95Y-3.125
X1.9577Y-4.1423
X1.975Y-2.875
X1.9758Y-3.425
X2.0Y-2.625
X2.0Y-3.175
X2.0Y-3.475
X2.0Y-3.775
X2.025Y-3.525
X2.05Y-2.425
X2.05Y-2.775
X2.05Y-2.875
X2.05Y-3.125
X2.05Y-3.225
X2.05Y-3.35
X2.05Y-3.425
X2.05Y-3.55
X2.075Y-2.4
X2.075Y-2.625
X2.1Y-2.525
X2.1Y-3.0
X2.1Y-3.5
X2.15Y-4.875
X2.15Y-5.275
X2.15Y-5.6
X2.15Y-5.675
X2.175Y-2.475
X2.175Y-2.775
X2.175Y-3.125
X2.175Y-3.225
X2.175Y-4.75
X2.2Y-2.45
X2.2Y-2.825
X2.2Y-3.275
X2.225Y-2.775
X2.225Y-3.225
X2.225Y-4.75
X2.2276Y-3.65
X2.25Y-3.0
X2.25Y-3.625
X2.2528Y-2.7222
X2.2732Y-3.6018
X2.3Y-5.1
X2.375Y-3.05
X2.375Y-3.225
X2.375Y-3.275
X2.375Y-3.4
X2.375Y-3.475
X2.4Y-2.775
X2.4Y-2.825
X2.4Y-2.875
X2.4Y-2.925
X2.4222Y-3.6222
X2.425Y-5.375
X2.45Y-2.725
X2.45Y-3.4
X2.45Y-5.45
X2.475Y-3.575
X2.475Y-4.8
X2.475Y-5.025
X2.475Y-5.35
X2.5Y-3.225
X2.5Y-3.5
X2.5Y-5.225
X2.5Y-5.65
X2.5221Y-2.9374
X2.525Y-2.725
X2.55Y-2.525
X2.55Y-3.375
X2.5597Y-3.4533
X2.575Y-2.625
X2.575Y-2.775
X2.575Y-3.175
X2.575Y-5.5
X2.575Y-5.65
X2.5778Y-2.8533
X2.6Y-3.125
X2.6Y-3.425
X2.6206Y-3.3445
X2.625Y-2.675
X2.625Y-2.825
X2.625Y-2.9
X2.65Y-2.525
X2.65Y-3.0
X2.65Y-3.4
X2.65Y-5.225
X2.65Y-5.275
X2.65Y-5.3976
X2.6549Y-3.3729
X2.6715Y-5.004
X2.675Y-4.85
X2.7Y-5.075
X2.725Y-3.0
X2.725Y-4.8
X2.725Y-4.875
X2.725Y-5.175
X2.7301Y-3.225
X2.775Y-2.725
X2.775Y-2.775
X2.7778Y-3.2778
X2.7967Y-3.2329
X2.8Y-3.15
X2.8Y-4.35
X2.8Y-5.275
X2.8Y-5.35
X2.8079Y-4.875
X2.825Y-2.675
X2.825Y-2.75
X2.825Y-3.5876
X2.825Y-4.35
X2.825Y-4.75
X2.825Y-5.075
X2.8258Y-3.1994
X2.85Y-3.0
X2.85Y-4.35
X2.85Y-4.9
X2.875Y-4.8
X2.875Y-4.85
X2.925Y-3.5876
X2.95Y-2.9
X2.95Y-4.925
X2.95Y-5.225
X2.975Y-2.95
X2.975Y-3.2374
X2.975Y-3.275
X2.975Y-3.325
X2.975Y-3.375
X2.975Y-3.45
X2.975Y-4.75
X3.0Y-2.875
X3.0Y-3.175
X3.0Y-4.2
X3.0Y-4.65
X3.0001Y-3.4875
X3.025Y-4.025
X3.025Y-4.8
X3.025Y-4.85
X3.025Y-4.8776
X3.025Y-5.1
X3.025Y-5.175
X3.05Y-3.175
X3.075Y-3.15
X3.075Y-5.225
X3.075Y-5.35
X3.1Y-4.45
X3.1Y-5.175
X3.1217Y-4.1597
X3.125Y-3.45
X3.125Y-3.9
X3.125Y-4.75
X3.125Y-5.0
X3.1375Y-3.9589
X3.1412Y-3.9955
X3.15Y-4.5
X3.15Y-4.85
X3.15Y-5.7
X3.1717Y-3.0597
X3.175Y-4.6
X3.175Y-4.8
X3.175Y-4.925
X3.1792Y-5.4024
X3.1845Y-3.9964
X3.25Y-5.275
X3.25Y-5.475
X3.25Y-5.725
X3.2747Y-4.6675
X3.275Y-4.7575
X3.3Y-5.025
X3.3Y-5.675
X3.3Y-5.825
X3.325Y-4.8
X3.35Y-4.225
X3.35Y-4.625
X3.35Y-5.675
X3.375Y-2.975
X3.375Y-3.85
X3.375Y-4.4
X3.375Y-4.45
X3.375Y-4.5
X3.375Y-4.55
X3.375Y-5.025
X3.375Y-5.15
X3.375Y-5.2
X3.375Y-5.25
X3.4Y-3.775
X3.4Y-3.9
X3.4Y-4.6
X3.4Y-4.95
X3.4Y-5.35
X3.4Y-5.4
X3.4217Y-5.1597
X3.425Y-4.7575
X3.425Y-5.1
X3.475Y-4.8
X3.475Y-4.875
X3.475Y-4.925
X3.475Y-5.025
X3.5Y-5.825
X3.5218Y-3.7809
X3.525Y-2.85
X3.525Y-2.9
X3.525Y-3.0035
X3.525Y-3.7535
X3.525Y-3.9
X3.525Y-3.95
X3.525Y-4.0
X3.525Y-4.1
X3.525Y-4.35
X3.525Y-4.625
X3.55Y-4.3
X3.575Y-2.775
X3.575Y-2.925
X3.575Y-3.8
X3.575Y-4.05
X3.575Y-4.225
X3.575Y-4.4
X3.575Y-4.5
X3.5944Y-2.8714
X3.6Y-4.7535
X3.625Y-2.825
X3.625Y-3.9
X3.625Y-5.15
X3.625Y-5.225
X3.625Y-5.35
X3.6261Y-3.8252
X3.65Y-2.7
X3.65Y-2.85
X3.65Y-2.925
X3.65Y-2.975
X3.65Y-3.0035
X3.65Y-4.3
X3.65Y-5.1724
X3.65Y-5.2
X3.65Y-5.45
X3.6552Y-3.8251
X3.675Y-3.575
X3.675Y-3.8
X3.6778Y-3.7472
X3.7Y-3.15
X3.7Y-4.3
X3.7Y-4.65
X3.7Y-5.45
X3.725Y-2.875
X3.725Y-4.9
X3.725Y-5.2
X3.775Y-4.6675
X3.775Y-4.825
X3.775Y-4.9
X3.775Y-5.175
X3.775Y-5.4
X3.7974Y-3.0035
X3.8Y-2.8
X3.8Y-3.85
X3.8203Y-3.2963
X3.8248Y-3.0193
X3.825Y-2.7
X3.825Y-2.9465
X3.825Y-2.975
X3.825Y-3.175
X3.825Y-3.225
X3.825Y-4.35
X3.825Y-4.7
X3.8271Y-3.3685
X3.8276Y-3.253
X3.8496Y-3.7045
X3.8499Y-3.6769
X3.85Y-3.6218
X3.85Y-3.2
X3.85Y-3.3232
X3.85Y-3.3508
X3.85Y-3.551
X3.85Y-3.5943
X3.85Y-3.6494
X3.875Y-3.375
X3.875Y-3.475
X3.875Y-3.875
X3.875Y-3.975
X3.894Y-4.9536
X3.9Y-3.45
X3.9Y-3.85
X3.925Y-3.425
X3.925Y-3.825
X3.925Y-4.2
X3.9281Y-2.9452
X3.9443Y-3.3984
X3.95Y-3.8
X3.95Y-5.275
X3.9723Y-3.0193
X3.975Y-2.8
X3.975Y-2.9
X3.975Y-3.775
X3.975Y-3.975
X4.0Y-2.975
X4.0Y-3.425
X4.0Y-4.225
X4.0Y-5.575
X4.0026Y-2.9
X4.05Y-4.325
X4.05Y-4.85
X4.075Y-4.925
X4.075Y-5.075
X4.075Y-5.475
X4.1Y-3.15
X4.1Y-3.425
X4.1024Y-3.7173
X4.1163Y-3.5378
X4.1163Y-4.4357
X4.125Y-4.0
X4.125Y-4.075
X4.125Y-4.1685
X4.125Y-4.4
X4.125Y-4.925
X4.125Y-5.25
X4.1403Y-4.4492
X4.1461Y-3.6669
X4.15Y-2.8
X4.15Y-3.1
X4.15Y-3.4
X4.15Y-3.4276
X4.15Y-3.775
X4.15Y-4.025
X4.15Y-4.1
X4.15Y-4.475
X4.1528Y-3.6972
X4.1529Y-4.5027
X4.155Y-3.6409
X4.1663Y-3.4878
X4.1745Y-3.6214
X4.175Y-3.375
X4.175Y-4.05
X4.175Y-4.125
X4.175Y-4.2
X4.175Y-4.525
X4.2Y-2.825
X4.2Y-3.025
X4.2Y-5.275
X4.2121Y-3.5588
X4.225Y-2.575
X4.225Y-3.75
X4.2252Y-3.602
X4.2472Y-2.6278
X4.25Y-3.025
X4.25Y-3.6511
X4.25Y-4.975
X4.25Y-5.05
X4.25Y-5.2
X4.25Y-5.3
X4.2903Y-3.7033
X4.298Y-3.5342
X4.302Y-3.5775
X4.3049Y-3.5075
X4.325Y-2.8
X4.325Y-4.925
X4.325Y-5.325
X4.3266Y-5.0287
X4.3497Y-5.1247
X4.35Y-2.625
X4.3622Y-5.2622
X4.3754Y-5.1395
X4.3838Y-2.5814
X4.3996Y-5.169
X4.4Y-4.15
X4.4Y-4.225
X4.4Y-5.3
X4.4222Y-5.2722
X4.425Y-2.8
X4.425Y-4.325
X4.425Y-5.325
X4.4285Y-3.125
X4.45Y-5.075
X4.4519Y-3.5587
X4.475Y-2.75
X4.475Y-3.725
X4.475Y-4.15
X4.475Y-4.225
X4.475Y-4.325
X4.4836Y-3.3953
X4.4863Y-3.5304
X4.5Y-2.95
X4.5Y-4.975
X4.5Y-5.05
X4.5Y-5.2
X4.5Y-5.325
X4.525Y-2.6
X4.525Y-3.325
X4.525Y-4.45
X4.55Y-3.8
X4.575Y-2.625
X4.575Y-4.3
X4.575Y-4.95
X4.575Y-5.325
X4.5923Y-4.2002
X4.6Y-3.825
X4.6Y-4.65
X4.6Y-5.2
X4.6067Y-3.4217
X4.6115Y-3.4489
X4.6226Y-4.1774
X4.625Y-2.65
X4.625Y-2.9215
X4.65Y-5.3
X4.6606Y-4.4217
X4.6613Y-3.4137
X4.6673Y-4.9283
X4.6726Y-3.8126
X4.675Y-2.625
X4.6774Y-4.1226
X4.679Y-3.3926
X4.7Y-3.0
X4.7Y-3.075
X4.7Y-4.85
X4.7Y-5.0783
X4.7Y-5.425
X4.7114Y-4.3468
X4.7226Y-4.1024
X4.7233Y-5.0626
X4.725Y-2.625
X4.725Y-5.3
X4.7267Y-3.6374
X4.7294Y-3.4268
X4.75Y-3.55
X4.75Y-5.0468
X4.75Y-5.325
X4.7626Y-4.3626
X4.7732Y-2.7433
X4.775Y-3.675
X4.775Y-5.35
X4.775Y-5.6
X4.7762Y-3.5114
X4.7774Y-4.0976
X4.8Y-2.575
X4.8Y-2.8
X4.8Y-3.6
X4.8Y-5.1
X4.8226Y-3.8126
X4.825Y-2.6374
X4.825Y-3.075
X4.825Y-3.55
X4.825Y-4.425
X4.8274Y-4.0774
X4.8286Y-2.7444
X4.847Y-3.6724
X4.85Y-2.925
X4.85Y-3.575
X4.85Y-4.95
X4.85Y-4.9776
X4.875Y-3.2
X4.875Y-4.075
X4.875Y-5.2
X4.8838Y-3.6462
X4.8876Y-3.6971
X4.9Y-3.075
X4.9Y-4.375
X4.9Y-5.275
X4.9093Y-3.6593
X4.9247Y-3.5272
X4.925Y-2.7468
X4.925Y-3.05
X4.925Y-4.075
X4.925Y-5.025
X4.9259Y-3.2738
X4.95Y-3.025
X4.95Y-5.275
X4.9546Y-5.4771
X4.9653Y-3.6847
X4.975Y-2.75
X4.975Y-3.0
X4.975Y-4.1
X5.0Y-2.975
X5.0018Y-5.2715
X5.0065Y-5.002
X5.0222Y-5.1472
X5.025Y-2.625
X5.025Y-2.95
X5.025Y-3.275
X5.025Y-4.3
X5.025Y-4.55
X5.025Y-4.65
X5.025Y-4.825
X5.0488Y-5.2733
X5.05Y-2.9285
X5.05Y-3.2
X5.05Y-3.325
X5.05Y-5.7
X5.0585Y-5.1283
X5.075Y-2.6
X5.075Y-5.55
X5.0783Y-5.275
X5.0788Y-3.2338
X5.0858Y-5.1241
X5.1Y-5.15
X5.1Y-5.375
X5.1Y-5.475
X5.1089Y-5.0249
X5.122Y-5.0755
X5.1239Y-5.048
X5.125Y-3.275
X5.125Y-3.4
X5.125Y-3.55
X5.125Y-3.6
X5.125Y-3.65
X5.125Y-3.7
X5.125Y-3.75
X5.125Y-4.45
X5.1254Y-5.1029
X5.1262Y-3.5114
X5.1292Y-2.5783
X5.1338Y-3.4268
X5.1374Y-5.3028
X5.15Y-2.925
X5.15Y-3.075
X5.15Y-3.2
X5.15Y-4.425
X5.15Y-5.275
X5.1707Y-5.1565
X5.175Y-2.625
X5.175Y-3.05
X5.175Y-4.4
X5.2Y-2.8
X5.2Y-3.025
X5.2Y-4.375
X5.225Y-3.0
X5.225Y-4.35
X5.225Y-5.25
X5.225Y-5.325
X5.225Y-5.375
X5.225Y-5.6
X5.25Y-2.6
X5.25Y-2.975
X5.25Y-4.325
X5.25Y-5.0
X5.25Y-5.3
X5.2715Y-4.8715
X5.275Y-2.8
X5.275Y-2.9535
X5.275Y-4.275
X5.275Y-5.525
X5.2992Y-4.8751
X5.3Y-2.7
X5.3Y-3.15
X5.3Y-4.3
X5.3Y-5.65
X5.325Y-2.9
X5.325Y-3.275
X5.325Y-3.7
X5.325Y-5.8
X5.3397Y-2.8647
X5.3479Y-2.6255
X5.35Y-2.925
X5.35Y-3.0783
X5.35Y-3.125
X5.35Y-3.4
X5.35Y-3.725
X5.35Y-5.825
X5.3512Y-2.4999
X5.3677Y-3.0446
X5.375Y-2.55
X5.375Y-2.9465
X5.375Y-3.3
X5.375Y-3.75
X5.375Y-4.775
X5.375Y-4.8
X5.375Y-4.825
X5.375Y-5.4
X5.375Y-5.85
X5.3965Y-3.4518
X5.3972Y-3.0285
X5.4Y-2.575
X5.4Y-3.075
X5.4Y-3.775
X5.4Y-5.875
X5.4001Y-3.4244
X5.404Y-2.9715
X5.4222Y-2.5972
X5.425Y-2.8
X5.425Y-2.925
X5.425Y-3.15
X5.425Y-3.3
X5.425Y-3.6
X5.425Y-3.8
X5.425Y-5.9
X5.45Y-3.825
X5.45Y-5.925
X5.475Y-3.85
X5.475Y-5.95
X5.4778Y-2.7778
X5.4903Y-2.6467
X5.4965Y-4.575
X5.4965Y-4.625
X5.4972Y-5.3278
X5.4973Y-5.0495
X5.4974Y-3.15
X5.498Y-4.9005
X5.5Y-3.875
X5.5Y-3.975
X5.5Y-4.275
X5.5Y-4.525
X5.5Y-5.2
X5.5Y-5.775
X5.525Y-2.8
X5.525Y-3.15
X5.525Y-3.3
X5.525Y-3.9
X5.525Y-4.0
X5.525Y-4.3
X5.525Y-4.525
X5.525Y-4.7
X5.525Y-4.725
X5.525Y-4.75
X5.5468Y-3.031
X5.55Y-3.0035
X5.55Y-4.025
X5.55Y-4.325
X5.55Y-4.525
X5.55Y-5.1
X5.5528Y-5.0283
X5.5535Y-4.6
X5.559Y-3.4518
X5.5722Y-2.7972
X5.575Y-4.05
X5.575Y-4.35
X5.575Y-4.475
X5.575Y-5.375
X5.6Y-3.425
X5.6Y-4.075
X5.6Y-4.375
X5.6Y-4.75
X5.6093Y-5.125
X5.6197Y-2.8504
X5.6249Y-4.3999
X5.625Y-3.5
X5.625Y-4.1
X5.625Y-4.925
X5.625Y-5.15
X5.625Y-5.675
X5.633Y-4.8927
X5.6423Y-4.9801
X5.6444Y-4.4194
X5.6471Y-2.8967
X5.65Y-3.025
X5.65Y-4.125
X5.65Y-4.65
X5.65Y-4.75
X5.6532Y-4.6
X5.675Y-3.425
X5.675Y-3.5
X5.675Y-4.525
X5.675Y-4.775
X5.6753Y-2.9128
X5.6876Y-5.3874
X5.6965Y-2.5173
X5.6972Y-4.3972
X5.6974Y-2.572
X5.6981Y-2.7996
X5.7Y-2.6
X5.7Y-2.75
X5.7Y-3.0285
X5.7Y-3.35
X5.7Y-4.9752
X5.7003Y-2.5446
X5.7017Y-3.1461
X5.7043Y-2.915
X5.725Y-2.725
X5.725Y-3.5
X5.725Y-4.175
X5.725Y-4.325
X5.75Y-3.425
X5.75Y-4.475
X5.75Y-5.25
X5.775Y-4.15
X5.775Y-4.2498
X5.775Y-5.125
X5.7915Y-3.4625
X5.8Y-3.7
X5.8Y-4.175
X5.8Y-4.3
X5.8Y-4.375
X5.8Y-4.8
X5.8Y-5.075
X5.8Y-5.325
X5.8065Y-4.125
X5.825Y-2.5974
X5.825Y-2.65
X5.825Y-2.8154
X5.825Y-2.9465
X5.825Y-3.425
X5.825Y-3.725
X5.825Y-4.2
X5.825Y-4.525
X5.825Y-4.5974
X5.825Y-4.625
X5.825Y-4.75
X5.825Y-4.9
X5.825Y-5.25
X5.8321Y-4.1
X5.85Y-2.475
X5.85Y-3.75
X5.8511Y-2.9282
X5.8577Y-4.0774
X5.8722Y-2.9972
X5.875Y-2.95
X5.875Y-3.775
X5.875Y-4.775
X5.875Y-5.375
X5.8779Y-3.4808
X5.8833Y-4.05
X5.8847Y-4.0217
X5.8997Y-3.4977
X5.9Y-2.5
X5.9Y-3.425
X5.9Y-3.8
X5.9047Y-4.6529
X5.9223Y-2.5411
X5.925Y-2.4575
X5.925Y-3.825
X5.925Y-4.475
X5.925Y-5.1
X5.925Y-5.325
X5.9344Y-3.975
X5.9463Y-2.5984
X5.95Y-3.025
X5.95Y-3.85
X5.95Y-5.675
X5.9597Y-3.9967
X5.975Y-4.225
X5.975Y-4.8
X5.975Y-4.95
X5.975Y-5.0
X5.9911Y-2.7211
X5.9929Y-5.145
X5.9935Y-3.848
X5.9972Y-5.1722
X6.0Y-3.975
X6.0Y-4.2
X6.0Y-4.325
X6.0Y-4.6
X6.0222Y-4.4268
X6.0222Y-4.9778
X6.025Y-3.425
X6.025Y-5.775
X6.0345Y-2.4575
X6.0481Y-2.5165
X6.05Y-2.95
X6.05Y-3.625
X6.05Y-4.55
X6.05Y-4.65
X6.05Y-5.125
X6.05Y-5.35
X6.0567Y-2.8057
X6.0722Y-4.4778
X6.0722Y-5.3965
X6.075Y-2.6
X6.075Y-2.725
X6.075Y-2.8724
X6.075Y-2.9
X6.075Y-4.75
X6.075Y-5.075
X6.075Y-5.475
X6.0757Y-2.8257
X6.0887Y-2.5569
X6.1Y-3.425
X6.1Y-4.3
X6.1Y-5.025
X6.1Y-2.8032
X6.125Y-3.15
X6.125Y-5.15
X6.125Y-5.325
X6.125Y-5.425
X6.1425Y-2.4575
X6.1465Y-2.5727
X6.1472Y-5.2722
X6.15Y-3.125
X6.15Y-3.725
X6.15Y-4.225
X6.15Y-4.525
X6.15Y-4.95
X6.1702Y-2.5972
X6.1719Y-2.8624
X6.175Y-3.425
X6.175Y-4.65
X6.175Y-5.5
X6.1957Y-2.6772
X6.2Y-2.5028
X6.2Y-2.65
X6.2Y-3.075
X6.2015Y-2.4752
X6.2033Y-2.8032
X6.2054Y-4.6498
X6.2109Y-2.6179
X6.2136Y-2.9541
X6.2192Y-2.9174
X6.225Y-5.65
X6.2321Y-5.5247
X6.2326Y-4.6543
X6.25Y-3.425
X6.25Y-3.825
X6.2503Y-4.6754
X6.2637Y-5.7967
X6.275Y-4.7
X6.2912Y-5.7975
X6.2954Y-3.7229
X6.2981Y-3.6269
X6.3Y-3.85
X6.3Y-4.725
X6.3Y-5.2
X6.3Y-5.25
X6.3Y-5.2776
X6.3Y-5.3051
X6.3Y-5.3327
X6.3037Y-2.5984
X6.3048Y-2.4741
X6.305Y-2.9507
X6.3051Y-2.8585
X6.306Y-2.5705
X6.3124Y-2.6376
X6.3167Y-5.8276
X6.325Y-3.425
X6.325Y-3.95
X6.325Y-4.3061
X6.325Y-4.4453
X6.325Y-4.75
X6.325Y-5.025
X6.3279Y-2.5085
X6.3284Y-2.7522
X6.3307Y-2.8428
X6.35Y-3.0
X6.35Y-4.775
X6.35Y-5.25
X6.35Y-5.775
X6.35Y-5.85
X6.3561Y-2.8536
X6.3577Y-4.0
X6.3665Y-2.4575
X6.375Y-3.975
X6.375Y-4.8
X6.375Y-5.275
X6.3821Y-2.8628
X6.3874Y-2.5738
X6.4Y-3.425
X6.4Y-4.025
X6.4Y-5.3
X6.4003Y-2.5494
X6.4231Y-2.5261
X6.425Y-2.4533
X6.425Y-2.8
X6.425Y-4.05
X6.425Y-5.7
X6.4316Y-2.8903
X6.4471Y-2.5124
X6.45Y-3.625
X6.45Y-4.3
X6.45Y-4.85
X6.45Y-5.075
X6.475Y-3.425
X6.475Y-3.925
X6.5Y-3.75
X6.5Y-4.025
X6.5Y-5.4
X6.525Y-3.85
X6.525Y-5.325
X6.525Y-5.65
X6.5267Y-5.5284
X6.5453Y-2.8485
X6.549Y-2.8918
X6.5497Y-2.7783
X6.55Y-3.425
X6.55Y-4.65
X6.55Y-5.875
X6.5515Y-2.8217
X6.5541Y-5.3235
X6.5722Y-2.6278
X6.575Y-2.45
X6.575Y-2.5154
X6.575Y-3.0
X6.575Y-5.3
X6.575Y-5.9
X6.6Y-5.925
X6.6004Y-4.6501
X6.625Y-3.95
X6.6276Y-4.675
X6.6362Y-2.5388
X6.6423Y-5.7774
X6.6467Y-4.0735
X6.6483Y-5.2971
X6.6497Y-2.5716
X6.65Y-3.425
X6.65Y-4.3
X6.65Y-4.7
X6.65Y-5.325
X6.65Y-5.825
X6.6721Y-2.5876
X6.675Y-4.075
X6.6776Y-4.725
X6.7Y-4.65
X6.7Y-4.75
X6.7153Y-2.6033
X6.722Y-4.0724
X6.725Y-3.425
X6.725Y-4.775
X6.725Y-5.7
X6.7429Y-4.8
X6.75Y-2.625
X6.75Y-3.65
X6.75Y-4.075
X6.75Y-4.3
X6.775Y-3.675
X6.775Y-4.025
X6.775Y-4.2474
X6.775Y-4.275
X6.775Y-4.525
X6.8Y-5.2
X6.8057Y-4.5249
X6.8222Y-4.3278
X6.825Y-2.6
X6.825Y-4.725
X6.8309Y-4.15
X6.8376Y-3.9471
X6.85Y-2.95
X6.85Y-5.225
X6.8533Y-3.9224
X6.8533Y-4.1
X6.8717Y-4.4403
X6.8744Y-4.2463
X6.875Y-2.825
X6.875Y-3.1
X6.875Y-4.15
X6.875Y-4.1776
X6.875Y-4.5
X6.875Y-5.325
X6.8874Y-4.3471
X6.9Y-3.2
X6.9Y-3.475
X6.9Y-5.4
X6.9032Y-4.2693
X6.9124Y-3.6517
X6.9218Y-4.925
X6.925Y-2.8
X6.925Y-3.625
X6.925Y-5.175
X6.925Y-5.225
X6.925Y-5.475
X6.95Y-3.225
X6.95Y-4.1
X6.9644Y-4.37
X6.9652Y-4.8847
X6.975Y-5.225
X6.978Y-4.2783
X6.9782Y-4.6
X7.0Y-3.025
X7.0Y-4.225
X7.0Y-4.325
X7.0Y-4.375
X7.0Y-4.525
X7.0Y-4.575
X7.0Y-4.775
X7.0Y-5.075
X7.0Y-5.25
X7.025Y-4.725
X7.025Y-5.375
X7.0572Y-2.4575
X7.125Y-4.975
X7.1357Y-4.5913
X7.15Y-4.2
X7.15Y-4.325
X7.15Y-4.475
X7.15Y-4.5175
X7.15Y-4.775
X7.15Y-4.825
X7.15Y-5.225
X7.1528Y-4.2278
X7.1542Y-4.9223
X7.1653Y-4.2783
X7.2Y-3.575
X7.2Y-3.675
X7.2Y-5.0785
X7.225Y-4.35
X7.225Y-4.975
X7.25Y-4.05
X7.25Y-4.475
X7.275Y-2.775
X7.2966Y-4.5955
X7.3Y-4.2
X7.3Y-4.325
X7.3Y-4.525
X7.3Y-4.825
X7.3Y-5.0
X7.3015Y-4.2959
X7.3028Y-4.2278
X7.3046Y-4.6271
X7.325Y-2.8
X7.325Y-4.8
X7.35Y-4.025
X7.35Y-4.825
X7.35Y-5.775
X7.375Y-2.85
X7.375Y-4.35
X7.375Y-4.8
X7.375Y-4.925
X7.4Y-4.325
X7.4Y-4.475
X7.4Y-4.825
X7.425Y-2.875
X7.425Y-3.45
X7.425Y-5.55
X7.4497Y-4.2552
X7.45Y-3.6
X7.45Y-4.2
X7.45Y-4.4285
X7.45Y-4.525
X7.45Y-4.5526
X7.45Y-4.6
X7.45Y-4.75
X7.45Y-4.95
X7.4528Y-4.2278
X7.4597Y-2.5597
X7.475Y-3.25
X7.5Y-4.825
X7.5Y-5.725
X7.5028Y-2.6028
X7.525Y-3.1
X7.525Y-4.75
X7.53Y-4.5721
X7.55Y-4.475
X7.575Y-2.725
X7.575Y-3.075
X7.575Y-4.825
X7.6Y-4.2
X7.6Y-4.525
X7.6Y-5.4
X7.6028Y-4.2278
X7.6046Y-4.3271
X7.625Y-3.0
X7.625Y-3.05
X7.625Y-5.625
X7.65Y-4.775
X7.65Y-4.825
X7.6801Y-4.6522
X7.7Y-4.475
X7.725Y-3.3
X7.725Y-4.2
X7.725Y-4.825
X7.75Y-2.675
X7.75Y-2.725
X7.75Y-2.825
X7.75Y-2.875
X7.75Y-3.45
X7.75Y-3.6
X7.75Y-4.225
X7.75Y-4.525
X7.75Y-4.6
X7.75Y-4.7
X7.7528Y-4.3278
X7.775Y-5.875
X7.8Y-4.825
X7.8Y-5.725
X7.8Y-5.775
X7.875Y-3.725
X7.875Y-4.025
X7.875Y-4.2
X7.875Y-4.425
X7.875Y-4.475
X7.875Y-4.675
X7.875Y-4.825
X7.9Y-3.35
X7.9Y-4.6
X7.9Y-5.55
X7.9Y-5.625
X7.9124Y-5.7624
X7.925Y-3.45
X7.925Y-4.65
X7.95Y-3.6
X7.95Y-4.0
X7.95Y-4.2
X7.95Y-5.725
X7.975Y-3.75
X7.975Y-4.4
X7.9767Y-4.7374
X8.0Y-3.225
X8.0Y-4.225
X8.0Y-4.325
X8.0Y-4.375
X8.0Y-4.675
X8.0175Y-3.625
X8.025Y-4.275
X8.025Y-4.525
X8.025Y-5.025
X8.025Y-5.675
X8.05Y-4.25
X8.05Y-4.6
X8.05Y-5.625
X8.075Y-4.0575
X8.075Y-4.3
X8.075Y-4.45
X8.1Y-5.725
X8.125Y-4.5
X8.125Y-4.75
X8.1575Y-4.0
X8.175Y-4.2
X8.175Y-4.4
X8.175Y-5.375
X8.1874Y-4.2252
X8.1923Y-5.0094
X8.2Y-2.675
X8.2Y-3.35
X8.2Y-4.325
X8.2Y-4.75
X8.2Y-5.625
X8.2028Y-4.1222
X8.2058Y-5.079
X8.2356Y-5.0006
X8.25Y-2.725
X8.25Y-3.35
X8.25Y-4.125
X8.25Y-4.75
X8.2735Y-4.9765
X8.275Y-5.675
X8.3Y-2.825
X8.3Y-3.35
X8.3Y-4.125
X8.3Y-4.75
X8.325Y-4.95
X8.35Y-2.875
X8.35Y-3.35
X8.35Y-4.125
X8.35Y-4.2
X8.35Y-4.425
X8.35Y-4.75
X8.375Y-4.925
X8.4Y-3.35
X8.4Y-4.125
X8.4Y-4.75
X8.425Y-3.0
X8.425Y-4.9
X8.45Y-3.35
X8.45Y-4.125
X8.45Y-4.75
X8.475Y-3.05
X8.475Y-4.9
X8.5Y-3.35
X8.5Y-4.125
X8.5Y-4.75
X8.525Y-3.075
X8.525Y-4.875
X8.55Y-3.35
X8.55Y-4.125
X8.55Y-4.75
X8.575Y-3.1
X8.575Y-4.775
X8.6Y-2.575
X8.6Y-2.625
X8.6Y-2.675
X8.6Y-2.725
X8.6Y-2.85
X8.6Y-3.65
X8.6Y-3.775
X8.6Y-4.125
X8.6Y-5.15
X8.6Y-5.5
X8.625Y-2.875
X8.625Y-5.175
X8.625Y-5.75
X8.725Y-5.2
X8.75Y-4.175
X8.75Y-5.1
X8.8Y-5.9
X8.9Y-2.825
X8.9Y-4.6
X8.9Y-4.7
X8.9Y-5.4
X8.95Y-3.05
X9.0Y-4.65
X9.175Y-5.8
X9.325Y-5.8
T2
X1.65Y-2.95
X1.75Y-3.275
X1.825Y-2.9968
X1.825Y-3.05
X1.825Y-3.1
X1.825Y-3.275
X1.8607Y-2.9947
X1.875Y-4.05
X1.875Y-4.1
X1.9085Y-3.975
X1.95Y-2.5
X2.025Y-3.975
X2.05Y-4.2
X2.1Y-3.675
X2.1Y-4.2
X2.425Y-2.575
X2.5Y-3.05
X2.825Y-4.575
X2.85Y-2.575
X2.875Y-4.575
X2.925Y-4.575
X2.975Y-3.05
X4.2Y-4.6
X4.25Y-4.6
X4.3Y-4.6
X4.325Y-3.225
X4.35Y-3.475
X4.3764Y-3.1486
X6.175Y-4.2
X6.525Y-3.575
X6.525Y-4.55
X6.55Y-4.2
X6.875Y-4.65
X7.0Y-4.65
X7.025Y-3.475
X7.044Y-5.044
X7.125Y-3.475
X7.125Y-3.5282
X7.1396Y-4.6236
X7.15Y-4.55
X7.15Y-4.725
X7.25Y-5.05
X7.275Y-3.65
X7.325Y-3.325
X7.75Y-3.525
X7.8Y-3.375
X7.8904Y-4.3256
X7.9Y-3.55
X8.075Y-4.125
X8.45Y-4.25
X8.725Y-3.55
X8.775Y-2.775
X8.925Y-3.15
X9.15Y-5.5
X9.175Y-5.725
X9.225Y-2.8
T3
X2.7823Y-5.6041
X2.7823Y-5.8041
X2.9823Y-5.7041
T4
X1.725Y-4.5
X1.725Y-4.6
X3.45Y-2.5
X3.45Y-2.6
X3.45Y-2.7
X7.15Y-3.2
X7.15Y-3.3
X7.15Y-3.4
X3.3Y-2.5
X3.3Y-2.6
X3.3Y-2.7
X3.6Y-2.5
X3.6Y-2.6
X3.6Y-2.7
T5
X1.825Y-5.25
X1.825Y-5.4272
X2.0809Y-5.25
X2.0809Y-5.4272
X7.075Y-5.7
X7.075Y-5.8772
X7.3309Y-5.7
X7.3309Y-5.8772
X1.825Y-4.85
X1.825Y-5.0272
X2.0809Y-4.85
X2.0809Y-5.0272
X1.825Y-5.65
X1.825Y-5.8272
X2.0809Y-5.65
X2.0809Y-5.8272
X8.45Y-5.7
X8.45Y-5.8772
X8.7059Y-5.7
X8.7059Y-5.8772
T0
M30
